<?xml version="1.0" standalone="no"?>
<!DOCTYPE svg PUBLIC "-//W3C//DTD SVG 20010904//EN"
 "http://www.w3.org/TR/2001/REC-SVG-20010904/DTD/svg10.dtd">
<svg version="1.0" xmlns="http://www.w3.org/2000/svg"
 width="900.000000pt" height="900.000000pt" viewBox="0 0 900.000000 900.000000"
 preserveAspectRatio="xMidYMid meet">
<metadata>
Created by potrace 1.14, written by Peter Selinger 2001-2017
</metadata>
<g transform="translate(0.000000,900.000000) scale(0.100000,-0.100000)"
fill="#000000" stroke="none">
<path d="M1370 8058 c-170 -13 -230 -25 -383 -74 -355 -117 -665 -396 -836
-754 -48 -101 -92 -233 -105 -314 -4 -21 -8 -42 -11 -46 -16 -26 -19 -368 -19
-2045 0 -1690 3 -1947 20 -2065 11 -74 44 -227 60 -280 10 -30 18 -59 20 -65
7 -32 62 -171 98 -249 262 -564 786 -1002 1381 -1156 61 -15 126 -31 145 -34
19 -3 46 -8 60 -10 56 -10 100 -16 180 -22 114 -9 4931 -9 5043 0 48 4 96 9
105 11 9 1 37 6 62 10 25 3 59 9 75 11 181 29 460 134 669 253 205 117 450
332 594 521 40 52 77 101 83 108 32 39 150 250 187 337 24 55 47 109 52 120
33 76 92 301 106 401 3 27 8 52 9 55 15 24 19 446 19 2074 -1 1029 -4 1900 -8
1936 -32 310 -176 614 -399 842 -45 46 -104 102 -132 124 -215 173 -505 288
-780 309 -115 9 -6182 11 -6295 2z m5918 -967 c-7 -9 -46 -54 -88 -101 -41
-47 -97 -112 -125 -144 -27 -32 -59 -68 -70 -81 -11 -12 -31 -35 -45 -51 -79
-93 -155 -180 -164 -189 -6 -5 -67 -75 -136 -155 -68 -80 -129 -150 -135 -156
-5 -6 -25 -29 -44 -50 -19 -21 -51 -57 -70 -79 -20 -23 -59 -68 -87 -100 -88
-101 -425 -488 -455 -522 -15 -17 -74 -85 -131 -150 -56 -65 -107 -123 -113
-129 -12 -13 -7 -7 -265 -304 -112 -129 -209 -240 -215 -246 -5 -6 -21 -24
-35 -40 -163 -190 -204 -232 -275 -279 -67 -44 -114 -63 -210 -84 -232 -49
-444 29 -620 230 -16 19 -91 104 -165 189 -74 85 -137 157 -140 160 -3 3 -48
55 -100 115 -52 61 -97 112 -100 115 -3 3 -32 37 -65 75 -33 39 -62 72 -65 75
-3 3 -34 39 -70 80 -36 41 -67 77 -71 80 -3 3 -83 95 -178 205 -96 110 -202
232 -236 270 -34 39 -75 86 -91 105 -16 19 -35 42 -44 50 -8 8 -42 47 -75 85
-33 39 -74 86 -91 105 -17 19 -84 96 -149 170 -64 74 -141 162 -170 195 -29
33 -101 116 -161 185 -59 69 -153 177 -209 240 -55 63 -106 122 -113 131 -11
15 204 17 2788 16 2577 0 2799 -1 2788 -16z m-6152 -793 c87 -101 163 -188
169 -194 5 -6 35 -40 65 -74 55 -64 126 -145 184 -210 17 -19 74 -84 126 -145
52 -60 99 -115 105 -121 5 -6 21 -24 35 -40 14 -16 101 -117 195 -224 150
-172 203 -232 240 -274 6 -6 37 -43 70 -81 33 -39 62 -72 65 -75 5 -4 306
-350 370 -424 14 -16 32 -37 40 -46 8 -9 42 -47 75 -85 33 -39 64 -75 70 -81
5 -6 35 -39 65 -74 30 -35 60 -68 65 -74 6 -6 71 -81 145 -166 157 -180 217
-240 320 -319 235 -179 498 -287 780 -318 124 -14 359 -7 450 12 14 3 49 10
79 16 129 25 357 119 479 196 149 95 299 228 408 363 16 19 31 37 35 40 3 3
68 77 145 165 77 88 151 174 165 190 15 17 48 55 74 85 26 30 62 71 79 90 17
19 62 71 100 115 38 44 72 82 75 85 4 3 19 21 35 40 23 28 110 127 161 184 6
6 35 40 65 76 30 35 62 72 70 80 8 9 28 32 45 51 16 19 110 126 208 239 99
113 202 232 231 264 28 33 89 103 136 156 47 53 96 110 110 126 26 31 148 171
165 190 6 6 21 24 35 40 58 67 156 180 167 192 7 7 52 58 100 113 47 54 88 97
91 94 3 -2 5 -791 4 -1752 0 -1915 2 -1840 -59 -2023 -127 -383 -453 -685
-836 -774 -36 -8 -78 -19 -93 -22 -16 -4 -1147 -9 -2514 -10 -2499 -2 -2533
-1 -2665 31 -59 14 -160 48 -172 58 -7 5 -13 7 -13 4 0 -3 -37 15 -82 40 -366
201 -587 533 -624 934 -8 87 -11 3519 -3 3519 4 0 78 -82 165 -182z"/>
</g>
</svg>
