<svg width="55" height="55" viewBox="0 0 55 55" fill="none" xmlns="http://www.w3.org/2000/svg">
<path d="M9.73958 0H45.2604C50.6458 0 55 4.46581 55 9.98932V45.0107C55 50.5342 50.6458 55 45.2604 55H9.73958C4.35417 55 0 50.5342 0 45.0107V9.98932C0 4.46581 4.35417 0 9.73958 0Z" fill="#330000"/>
<path fill-rule="evenodd" clip-rule="evenodd" d="M17.5536 34.4925H26.1422L28.0354 39.7095C28.0815 39.863 28.2432 39.9726 28.4048 39.9507H33.2301C33.461 39.9507 33.5302 39.8411 33.461 39.5999L25.034 17.022C25.0109 16.9124 24.9185 16.8467 24.7338 16.8467H18.8234H18.7541C18.6387 16.8686 18.5463 16.9782 18.5694 17.0878C18.5694 17.57 18.5232 18.0523 18.4309 18.5126C18.3655 18.699 18.3116 18.8744 18.2611 19.0387C18.2404 19.1063 18.2202 19.1721 18.2 19.236L10.7658 39.5561C10.6965 39.8191 10.7658 39.9507 11.0197 39.9507H15.3602C15.568 39.9726 15.7527 39.8411 15.7989 39.6438L17.5536 34.4925ZM24.7569 30.0427H18.8926C19.239 29.122 19.5853 28.0918 19.9085 26.9738C20.1372 26.2953 20.3571 25.6167 20.5735 24.9486C20.7067 24.5375 20.8386 24.1304 20.9705 23.7296C21.2938 22.7871 21.5477 21.8445 21.7555 20.9019H21.8017C21.8918 21.1952 21.9819 21.5021 22.076 21.8226C22.1507 22.077 22.2279 22.3401 22.3096 22.6117C22.4943 23.2474 22.7021 23.8831 22.933 24.5626C23.0484 24.9024 23.1581 25.2367 23.2678 25.5709C23.3774 25.9052 23.4871 26.2395 23.6025 26.5793C23.8103 27.2369 24.0181 27.8726 24.2259 28.4644C24.4337 29.0343 24.6184 29.5824 24.7569 30.0427Z" fill="#FF9A00"/>
<path fill-rule="evenodd" clip-rule="evenodd" d="M36.4393 19.8276C36.9934 20.3317 37.7322 20.6167 38.4941 20.5948C39.2791 20.6386 40.064 20.3536 40.5951 19.8276C41.1492 19.2795 41.4262 18.5562 41.4031 17.8109C41.4262 17.0875 41.1492 16.3861 40.6412 15.86C40.1333 15.3558 39.4407 15.0928 38.5403 15.0928C37.7784 15.0928 37.0396 15.3558 36.4854 15.86C35.9313 16.3641 35.6312 17.0656 35.6543 17.8109C35.6312 18.5562 35.9083 19.2795 36.4393 19.8276ZM35.9083 22.7429V39.6216C35.9083 39.8408 36.0237 39.9723 36.2546 39.9723H40.7798C40.9876 39.9723 41.0799 39.8627 41.0799 39.6216V22.7429C41.0799 22.5457 40.9876 22.4361 40.7798 22.4361H36.2084C36.0006 22.4361 35.9083 22.5237 35.9083 22.7429Z" fill="#FF9A00"/>
</svg>
