<svg width="55" height="55" viewBox="0 0 55 55" fill="none" xmlns="http://www.w3.org/2000/svg">
<path d="M9.73958 0H45.2604C50.6458 0 55 4.46581 55 9.98932V45.0107C55 50.5342 50.6458 55 45.2604 55H9.73958C4.35417 55 0 50.5342 0 45.0107V9.98932C0 4.46581 4.35417 0 9.73958 0Z" fill="#001E36"/>
<path fill-rule="evenodd" clip-rule="evenodd" d="M11.4584 15.4044V39.202C11.4584 39.4101 11.55 39.5026 11.7334 39.5026H16.0875H16.1792C16.3396 39.4795 16.4542 39.3407 16.4313 39.1789V31.7551H16.4314C16.8668 31.7551 17.1876 31.7551 17.4167 31.7782C17.6459 31.8014 18.0125 31.8014 18.5625 31.8014C20.4417 31.8014 22.1605 31.5932 23.7188 31.0151C25.2084 30.46 26.4917 29.4887 27.4084 28.1936C28.325 26.8985 28.7834 25.2565 28.7834 23.2675C28.7834 22.2268 28.6 21.2324 28.2563 20.261C27.8896 19.2666 27.3167 18.3646 26.5834 17.6246C25.7125 16.7689 24.6584 16.1213 23.5125 15.7282C22.2292 15.2425 20.6709 15.0112 18.7917 15.0112C18.1042 15.0112 17.4167 15.0112 16.7063 15.0344C16.3633 15.0455 16.031 15.0513 15.7094 15.0569C15.3649 15.0629 15.0326 15.0686 14.7125 15.0806C14.4124 15.0918 14.1231 15.0976 13.842 15.1032C13.5434 15.1092 13.2541 15.115 12.9709 15.1269C12.4438 15.15 12.0771 15.15 11.6875 15.15C11.5271 15.15 11.4584 15.2425 11.4584 15.4044ZM16.4542 27.384V19.6133C16.6146 19.5902 16.9354 19.5671 17.3938 19.5902C17.8292 19.5671 18.3563 19.5671 18.9521 19.5671C19.8917 19.5439 20.8084 19.6827 21.6563 20.0296C22.3209 20.284 22.8709 20.7465 23.2604 21.3478C23.6271 21.9723 23.8104 22.6892 23.7875 23.4061C23.7875 24.4237 23.5584 25.21 23.0771 25.7882C22.5729 26.3664 21.9313 26.8058 21.1979 27.0139C20.35 27.2915 19.4563 27.4302 18.5625 27.4302H17.3479C17.0927 27.4302 16.8177 27.4103 16.523 27.389C16.5002 27.3873 16.4772 27.3856 16.4542 27.384Z" fill="#31A8FF"/>
<path d="M43.0834 25.9733C42.3959 25.6032 41.6625 25.3488 40.8834 25.187C40.0355 25.0019 39.1875 24.8863 38.3167 24.8863C37.8584 24.8632 37.3771 24.9326 36.9417 25.0482C36.6438 25.1176 36.3917 25.2795 36.2313 25.5107C36.1167 25.6957 36.048 25.927 36.048 26.1352C36.048 26.3433 36.1396 26.5514 36.2771 26.7365C36.4834 26.9909 36.7584 27.199 37.0563 27.3609C37.5834 27.6384 38.1334 27.8928 38.6834 28.1241C39.9209 28.5404 41.1125 29.1185 42.2125 29.8123C42.9688 30.298 43.5875 30.9456 44.023 31.7319C44.3896 32.4719 44.573 33.2814 44.55 34.1139C44.573 35.2009 44.2521 36.2879 43.6563 37.1898C43.0146 38.1149 42.1209 38.8318 41.0896 39.2481C39.9667 39.7338 38.5917 39.9882 36.9417 39.9882C35.8875 39.9882 34.8563 39.8957 33.825 39.6875C33.023 39.5488 32.2209 39.2944 31.4875 38.9475C31.3271 38.855 31.2125 38.6931 31.2355 38.5081V34.484C31.2355 34.4146 31.2584 34.3221 31.3271 34.2758C31.3959 34.2296 31.4646 34.2527 31.5334 34.299C32.4271 34.8309 33.3667 35.2009 34.375 35.4322C35.2459 35.6634 36.1625 35.7791 37.0792 35.7791C37.95 35.7791 38.5688 35.6634 38.9813 35.4553C39.348 35.2934 39.6 34.9003 39.6 34.484C39.6 34.1602 39.4167 33.8595 39.05 33.5589C38.6834 33.2582 37.9271 32.9113 36.8042 32.4719C35.6355 32.0556 34.5584 31.5006 33.55 30.8068C32.8396 30.298 32.2438 29.6273 31.8084 28.841C31.4417 28.1009 31.2584 27.2915 31.2813 26.4821C31.2813 25.4876 31.5563 24.5394 32.0605 23.6837C32.6334 22.7586 33.4813 22.0186 34.4667 21.556C35.5438 21.001 36.8959 20.7466 38.523 20.7466C39.4625 20.7466 40.425 20.816 41.3646 20.9547C42.0521 21.0472 42.7167 21.2322 43.3355 21.4866C43.4271 21.5098 43.5188 21.6023 43.5646 21.6948C43.5875 21.7873 43.6105 21.8798 43.6105 21.9723V25.742C43.6105 25.8345 43.5646 25.927 43.4959 25.9733C43.2896 26.0195 43.175 26.0195 43.0834 25.9733Z" fill="#31A8FF"/>
</svg>
