<?xml version="1.0" encoding="utf-8"?>
<!-- Generator: Adobe Illustrator 12.0.1, SVG Export Plug-In  -->
<!DOCTYPE svg PUBLIC "-//W3C//DTD SVG 1.1//EN" "http://www.w3.org/Graphics/SVG/1.1/DTD/svg11.dtd" [
	<!ENTITY ns_flows "http://ns.adobe.com/Flows/1.0/">
	<!ENTITY ns_svg "http://www.w3.org/2000/svg">
	<!ENTITY ns_xlink "http://www.w3.org/1999/xlink">
]>
<svg  version="1.1" xmlns="&ns_svg;" xmlns:xlink="&ns_xlink;" xmlns:a="http://ns.adobe.com/AdobeSVGViewerExtensions/3.0/"
	 width="24" height="22" viewBox="0 -0.438 24 22" enable-background="new 0 -0.438 24 22" xml:space="preserve">
<defs>
</defs>
<path fill="#F9BC15" d="M8.265,2.057c0.997-1.885,3.332-2.605,5.218-1.608c1.885,0.997,2.604,3.332,1.607,5.217
	c-0.043,0.083-0.09,0.164-0.139,0.243L7.23,19.278c-1.042,1.861-3.394,2.524-5.254,1.483c-1.86-1.04-2.525-3.394-1.483-5.254
	c0.017-0.029,0.034-0.061,0.051-0.09L8.265,2.057z"/>
<path fill="#567DBF" d="M16.66,8.977c0.996-1.885,3.331-2.605,5.217-1.608c1.886,0.997,2.605,3.332,1.609,5.217
	c-0.044,0.083-0.091,0.164-0.14,0.243l-3.712,6.431c-1.042,1.861-3.395,2.525-5.255,1.483c-1.86-1.04-2.525-3.394-1.484-5.254
	c0.017-0.031,0.034-0.061,0.051-0.09L16.66,8.977z"/>
<ellipse fill="#36A852" cx="3.861" cy="17.374" rx="3.86" ry="3.86"/>
</svg>
