<?xml version="1.0" encoding="utf-8"?>
<!-- Generator: Adobe Illustrator 12.0.1, SVG Export Plug-In  -->
<!DOCTYPE svg PUBLIC "-//W3C//DTD SVG 1.1//EN" "http://www.w3.org/Graphics/SVG/1.1/DTD/svg11.dtd" [
	<!ENTITY ns_flows "http://ns.adobe.com/Flows/1.0/">
	<!ENTITY ns_svg "http://www.w3.org/2000/svg">
	<!ENTITY ns_xlink "http://www.w3.org/1999/xlink">
]>
<svg  version="1.1" xmlns="&ns_svg;" xmlns:xlink="&ns_xlink;" xmlns:a="http://ns.adobe.com/AdobeSVGViewerExtensions/3.0/"
	 width="32" height="32" viewBox="-0.625 0 32 32" enable-background="new -0.625 0 32 32" xml:space="preserve">
<defs>
</defs>
<linearGradient id="XMLID_1_" gradientUnits="userSpaceOnUse" x1="1283.3691" y1="1337.2119" x2="1283.3691" y2="1491.22" gradientTransform="matrix(0.2317 0 0 0.2317 -281.3723 -311.8362)">
	<stop  offset="0" style="stop-color:#66C6BC"/>
	<stop  offset="1" style="stop-color:#24AAE2"/>
</linearGradient>
<path fill="url(#XMLID_1_)" d="M15.921,3.168c-0.408,0-0.739,0.331-0.739,0.74V6.13c0,0.409,0.331,0.74,0.739,0.74
	c0.409,0,0.739-0.331,0.739-0.74V3.908C16.66,3.5,16.33,3.168,15.921,3.168z"/>
<linearGradient id="XMLID_2_" gradientUnits="userSpaceOnUse" x1="1303.792" y1="1337.2119" x2="1303.792" y2="1491.22" gradientTransform="matrix(0.2317 0 0 0.2317 -281.3723 -311.8362)">
	<stop  offset="0" style="stop-color:#66C6BC"/>
	<stop  offset="1" style="stop-color:#24AAE2"/>
</linearGradient>
<path fill="url(#XMLID_2_)" d="M20.653,3.168c-0.409,0-0.74,0.331-0.74,0.74V6.13c0,0.409,0.331,0.74,0.74,0.74
	c0.407,0,0.738-0.331,0.738-0.74V3.908C21.392,3.5,21.061,3.168,20.653,3.168z"/>
<linearGradient id="XMLID_3_" gradientUnits="userSpaceOnUse" x1="1237.7197" y1="1337.21" x2="1237.7197" y2="1491.2264" gradientTransform="matrix(0.2317 0 0 0.2317 -281.3723 -311.8362)">
	<stop  offset="0" style="stop-color:#66C6BC"/>
	<stop  offset="1" style="stop-color:#24AAE2"/>
</linearGradient>
<path fill="url(#XMLID_3_)" d="M5.347,2.644c-1.312,0-2.376,1.063-2.375,2.376c0,1.312,1.064,2.375,2.375,2.375
	c1.312-0.001,2.375-1.064,2.375-2.376C7.72,3.707,6.658,2.645,5.347,2.644z M5.347,5.916c-0.495,0-0.897-0.402-0.897-0.897
	c0.001-0.495,0.402-0.896,0.897-0.896s0.896,0.402,0.896,0.896C6.236,5.511,5.839,5.909,5.347,5.916z"/>
<path fill="url(#XMLID_1_)" d="M15.921,15.207c-0.408,0-0.739,0.331-0.739,0.739l0,0v2.223c0,0.408,0.331,0.739,0.739,0.739
	c0.409,0,0.739-0.331,0.739-0.739v-2.223C16.66,15.538,16.33,15.207,15.921,15.207L15.921,15.207z"/>
<linearGradient id="XMLID_5_" gradientUnits="userSpaceOnUse" x1="1237.7197" y1="1337.2246" x2="1237.7197" y2="1491.2106" gradientTransform="matrix(0.2317 0 0 0.2317 -281.3723 -311.8362)">
	<stop  offset="0" style="stop-color:#66C6BC"/>
	<stop  offset="1" style="stop-color:#24AAE2"/>
</linearGradient>
<path fill="url(#XMLID_5_)" d="M5.347,14.683c-1.312,0-2.376,1.063-2.375,2.375c0,1.313,1.064,2.375,2.375,2.375
	c1.312,0,2.375-1.063,2.375-2.375C7.72,15.747,6.658,14.683,5.347,14.683L5.347,14.683z M5.347,17.954
	c-0.495,0-0.897-0.401-0.897-0.897c0.001-0.495,0.402-0.896,0.897-0.896s0.896,0.401,0.896,0.896
	C6.236,17.551,5.839,17.947,5.347,17.954z"/>
<linearGradient id="XMLID_6_" gradientUnits="userSpaceOnUse" x1="1282.3604" y1="1337.2119" x2="1282.3604" y2="1491.2214" gradientTransform="matrix(0.2317 0 0 0.2317 -281.3723 -311.8362)">
	<stop  offset="0" style="stop-color:#66C6BC"/>
	<stop  offset="1" style="stop-color:#24AAE2"/>
</linearGradient>
<path fill="url(#XMLID_6_)" d="M30.983,16.785l-6.586-3.51c-0.114-0.062-0.243-0.092-0.374-0.089
	c-0.688-0.723-1.643-1.133-2.643-1.134h-8.047v-1.997h8.047c2.018,0,3.635-1.677,3.635-3.693V3.677C25.016,1.661,23.398,0,21.381,0
	H3.819C1.803,0,0.173,1.661,0.173,3.677v2.685c0,2.017,1.629,3.693,3.646,3.693h8.036v1.997H3.819
	c-2.018,0.006-3.65,1.646-3.646,3.665v2.684c-0.001,2.005,1.624,3.632,3.629,3.633c0.005,0,0.012,0,0.017,0h8.036v2.07
	c-1.104,0.261-1.968,1.118-2.24,2.219H4.172c-0.408-1.116-1.644-1.69-2.76-1.282c-1.116,0.408-1.689,1.645-1.281,2.76
	c0.408,1.117,1.643,1.69,2.759,1.281c0.595-0.218,1.063-0.686,1.281-1.281h5.442c0.409,1.649,2.076,2.654,3.725,2.245
	c1.106-0.272,1.971-1.137,2.246-2.245h2.944c1.033,1.626,2.516,2.868,4.315,3.658l0.888,0.395c0.188,0.084,0.4,0.087,0.59,0.006
	l0.998-0.431c3.668-1.542,6.055-5.134,6.055-9.112v-4.877C31.375,17.164,31.225,16.913,30.983,16.785L30.983,16.785z M23.536,6.325
	c0,1.203-0.975,2.177-2.178,2.177H3.83c-1.203,0-2.178-0.975-2.178-2.177V3.657c0-1.203,0.975-2.178,2.178-2.178h17.528
	c1.203,0,2.178,0.976,2.178,2.178V6.325z M1.652,18.399v-2.684c-0.004-1.202,0.965-2.18,2.167-2.186h17.562
	c0.424,0.001,0.84,0.126,1.193,0.36l-5.296,2.897c-0.239,0.129-0.391,0.378-0.396,0.65v3.117H3.819
	c-1.188,0.009-2.158-0.947-2.167-2.135C1.652,18.413,1.652,18.406,1.652,18.399L1.652,18.399z M2.163,27.749
	c-0.366,0-0.663-0.295-0.663-0.662c0-0.366,0.297-0.662,0.663-0.662c0.365,0,0.662,0.296,0.662,0.662
	C2.824,27.452,2.528,27.749,2.163,27.749L2.163,27.749z M12.6,28.685c-0.881,0-1.597-0.716-1.597-1.598s0.715-1.597,1.597-1.597
	c0.882,0,1.597,0.715,1.597,1.597c0.009,0.873-0.689,1.587-1.563,1.598C12.623,28.685,12.612,28.685,12.6,28.685z M15.585,26.321
	c-0.277-1.103-1.146-1.959-2.252-2.219v-2.07h3.549v0.373c0.004,1.352,0.293,2.684,0.847,3.916H15.585z M29.894,22.314
	c0,3.386-2.029,6.442-5.151,7.751c-0.003,0.002-0.003,0.003-0.005,0.003l-0.707,0.307l-0.606-0.261
	c-3.067-1.336-5.054-4.362-5.063-7.709v-4.53l5.68-3.107l5.853,3.113V22.314L29.894,22.314z"/>
<linearGradient id="XMLID_7_" gradientUnits="userSpaceOnUse" x1="1319.3984" y1="1337.2012" x2="1319.3984" y2="1491.2258" gradientTransform="matrix(0.2317 0 0 0.2317 -281.3723 -311.8362)">
	<stop  offset="0" style="stop-color:#66C6BC"/>
	<stop  offset="1" style="stop-color:#24AAE2"/>
</linearGradient>
<path fill="url(#XMLID_7_)" d="M21.947,21.926c-0.266-0.311-0.731-0.348-1.043-0.082c-0.311,0.265-0.347,0.731-0.082,1.042
	l1.732,2.028c0.008,0.009,0.017,0.018,0.024,0.025c0.009,0.011,0.018,0.021,0.028,0.03c0.009,0.009,0.021,0.019,0.032,0.027
	c0.011,0.01,0.02,0.018,0.03,0.026c0.011,0.008,0.023,0.016,0.035,0.023c0.011,0.008,0.021,0.016,0.032,0.021
	c0.013,0.007,0.025,0.014,0.039,0.021c0.01,0.006,0.021,0.012,0.032,0.018c0.014,0.006,0.027,0.011,0.041,0.017
	c0.012,0.005,0.022,0.009,0.034,0.013c0.014,0.005,0.028,0.008,0.043,0.012c0.011,0.003,0.022,0.007,0.033,0.009
	c0.016,0.004,0.032,0.006,0.048,0.007c0.01,0.003,0.02,0.005,0.031,0.006c0.019,0.002,0.038,0.002,0.059,0.003
	c0.007,0,0.013,0.002,0.021,0.002c0.021,0,0.041-0.001,0.063-0.003c0.004,0,0.008-0.002,0.011-0.002
	c0.018-0.001,0.034-0.003,0.052-0.006c0.006-0.002,0.013-0.003,0.02-0.004c0.015-0.004,0.027-0.007,0.041-0.01
	c0.009-0.002,0.018-0.005,0.025-0.008c0.011-0.003,0.023-0.007,0.035-0.01c0.01-0.004,0.018-0.008,0.027-0.011
	c0.011-0.005,0.021-0.01,0.032-0.015c0.009-0.004,0.019-0.009,0.027-0.014c0.01-0.004,0.021-0.011,0.03-0.015
	c0.009-0.007,0.018-0.012,0.027-0.018c0.009-0.006,0.019-0.012,0.027-0.019c0.01-0.007,0.018-0.013,0.026-0.019
	c0.007-0.006,0.014-0.01,0.021-0.017l4.034-3.281c0.316-0.258,0.365-0.723,0.106-1.04c-0.258-0.316-0.724-0.365-1.039-0.107
	l-3.475,2.826L21.947,21.926z"/>
</svg>
