<?xml version="1.0" encoding="utf-8"?>
<!-- Generator: Adobe Illustrator 12.0.1, SVG Export Plug-In  -->
<!DOCTYPE svg PUBLIC "-//W3C//DTD SVG 1.1//EN" "http://www.w3.org/Graphics/SVG/1.1/DTD/svg11.dtd" [
	<!ENTITY ns_flows "http://ns.adobe.com/Flows/1.0/">
	<!ENTITY ns_svg "http://www.w3.org/2000/svg">
	<!ENTITY ns_xlink "http://www.w3.org/1999/xlink">
]>
<svg  version="1.1" xmlns="&ns_svg;" xmlns:xlink="&ns_xlink;" xmlns:a="http://ns.adobe.com/AdobeSVGViewerExtensions/3.0/"
	 width="25" height="16" viewBox="0 -0.137 25 16" enable-background="new 0 -0.137 25 16" xml:space="preserve">
<defs>
</defs>
<path fill="#010101" d="M9.686,6.796c0,0,2.271-0.169,2.271-2.833C11.957,1.3,10.099,0,7.745,0H3.413H3.285H0v14.883h3.285h0.127
	h4.333c0,0,4.729,0.151,4.729-4.391C12.474,10.493,12.68,6.796,9.686,6.796z M3.413,2.646h3.775h0.557c0,0,1.053,0,1.053,1.548
	s-0.62,1.773-1.321,1.773H3.413V2.646z M7.545,12.24H3.413V8.262h4.333c0,0,1.569-0.021,1.569,2.045
	C9.314,12.027,8.167,12.223,7.545,12.24z"/>
<rect x="15.578" y="0.877" fill="#010101" width="6.141" height="1.833"/>
<path fill="#010101" d="M18.78,3.787c-5.725,0-5.72,5.719-5.72,5.719s-0.392,5.69,5.72,5.69c0,0,5.094,0.291,5.094-3.959h-2.62
	c0,0,0.088,1.6-2.387,1.6c0,0-2.619,0.178-2.619-2.589h7.712C23.96,10.249,24.804,3.787,18.78,3.787z M21.108,8.262h-4.89
	c0,0,0.319-2.294,2.618-2.294C21.138,5.967,21.108,8.262,21.108,8.262z"/>
</svg>
