<?xml version="1.0" encoding="utf-8"?>
<!-- Generator: Adobe Illustrator 23.1.0, SVG Export Plug-In . SVG Version: 6.00 Build 0)  -->
<svg version="1.1" id="Layer_1" xmlns="http://www.w3.org/2000/svg" xmlns:xlink="http://www.w3.org/1999/xlink" x="0px" y="0px"
	 width="800px" height="800px" viewBox="0 0 800 800" style="enable-background:new 0 0 800 800;" xml:space="preserve">
<title>codepen</title>
<path d="M691.3,442.8l-69.6-48.1l69.6-53V442.8z M563.7,351.7l-132.6-94.4V103.1l237,167.4L563.7,351.7L563.7,351.7z M394.7,479.3
	l-109.4-84.5l109.4-77.9L504,394.8L394.7,479.3z M359.9,257.3l-132.6,94.4l-104.4-79.5l237-167.4V257.3z M99.7,341.8l69.6,53
	l-69.6,48.1V341.8z M225.7,437.9l134.2,102.7v150.8l-237-180.6L225.7,437.9L225.7,437.9z M429.5,540.6l134.2-102.7l102.7,72.9
	l-237,180.6L429.5,540.6L429.5,540.6z M368.2,8.7L50,239c-11.6,8.3-19.9,23.2-19.9,38.1v232c0,14.9,6.6,28.2,18.2,38.1l318.1,243.6
	c16.6,13.3,39.8,13.3,58,0l318.1-243.6c11.6-8.3,18.2-23.2,18.2-38.1v-232c0-14.9-6.6-29.8-19.9-38.1L422.8,8.7
	C406.3-2.9,384.7-2.9,368.2,8.7L368.2,8.7z"/>
</svg>
