<svg xmlns="http://www.w3.org/2000/svg" width="26" height="24" viewBox="-0.953 -0.813 26 24" fill="#010101" xmlns:v="https://vecta.io/nano"><path d="M20.866 0H3.326A3.33 3.33 0 0 0 0 3.326V14.06a3.33 3.33 0 0 0 3.314 3.326v4.87l7-4.87h10.55a3.33 3.33 0 0 0 3.326-3.326V3.326A3.33 3.33 0 0 0 20.866 0zm1.9 14.06a1.91 1.91 0 0 1-1.909 1.91H9.87l-5.138 3.573V15.97H3.326a1.91 1.91 0 0 1-1.908-1.91V3.326a1.91 1.91 0 0 1 1.908-1.909h17.54a1.91 1.91 0 0 1 1.909 1.909V14.06zm-4.358-8.612H5.715a1.05 1.05 0 0 0-1.048 1.048 1.05 1.05 0 0 0 1.048 1.047H18.42a1.05 1.05 0 0 0 1.048-1.047 1.05 1.05 0 0 0-1.049-1.048zm0 4.19H5.715c-.58 0-1.048.468-1.048 1.047a1.05 1.05 0 0 0 1.048 1.048H18.42a1.05 1.05 0 0 0 1.048-1.048c0-.58-.47-1.047-1.05-1.047z"/></svg>