<?xml version="1.0" encoding="utf-8"?>
<!-- Generator: Adobe Illustrator 12.0.1, SVG Export Plug-In  -->
<!DOCTYPE svg PUBLIC "-//W3C//DTD SVG 1.1//EN" "http://www.w3.org/Graphics/SVG/1.1/DTD/svg11.dtd" [
	<!ENTITY ns_flows "http://ns.adobe.com/Flows/1.0/">
	<!ENTITY ns_svg "http://www.w3.org/2000/svg">
	<!ENTITY ns_xlink "http://www.w3.org/1999/xlink">
]>
<svg  version="1.1" xmlns="&ns_svg;" xmlns:xlink="&ns_xlink;" xmlns:a="http://ns.adobe.com/AdobeSVGViewerExtensions/3.0/"
	 width="24" height="24" viewBox="0 -0.042 24 24" enable-background="new 0 -0.042 24 24" xml:space="preserve">
<defs>
</defs>
<path fill="#F2F2F3" d="M23.958,11.979c0,4.107-2.068,7.732-5.219,9.891c-0.128,0.088-0.259,0.174-0.391,0.258
	c-1.846,1.16-4.028,1.831-6.37,1.831c-2.244,0-4.343-0.616-6.138-1.69c-0.148-0.088-0.295-0.18-0.44-0.275
	C2.148,19.851,0,16.165,0,11.979C0,5.363,5.363,0,11.979,0C18.594,0,23.958,5.363,23.958,11.979z"/>
<path fill="#6599D1" d="M19.658,8.161c0.063-0.022,0.085-0.061,0.087-0.121c0.011-0.166,0.025-0.334,0.04-0.5
	c0.019-0.227,0.038-0.454,0.058-0.693c-0.018,0.004-0.028,0.006-0.037,0.009c-1.327,0.388-2.745,0.752-4.071,1.138
	c-0.067,0.02-0.005,0.125,0.021,0.172c0.21,0.366,0.432,0.703,0.636,1.07c0.019,0.032,0.034,0.047,0.056,0.052
	c0.013,0,0.047-0.029,0.062-0.034C17.557,8.888,18.606,8.522,19.658,8.161L19.658,8.161z"/>
<path fill="#6599D1" d="M5.509,9.77c0.21,0.029,0.419,0.059,0.63,0.087C6.463,9.902,6.786,9.945,7.109,9.99
	c0.006,0.002,0.013,0.002,0.018,0.002c0.039-0.002,0.045-0.036,0.054-0.07c0.085-0.285,0.172-0.569,0.26-0.853
	c0.02-0.06,0.002-0.078-0.056-0.094C6.782,8.818,6.178,8.659,5.574,8.5C4.971,8.34,4.367,8.181,3.766,8.021
	C3.753,8.018,3.742,8.015,3.729,8.015c-0.018,0-0.029,0.004-0.036,0.018C3.691,8.037,3.689,8.042,3.689,8.046
	c-0.003,0.009-0.004,0.02-0.005,0.029C3.64,8.521,3.592,8.966,3.541,9.411C3.534,9.467,3.545,9.492,3.588,9.503
	c0.009,0.002,0.02,0.004,0.034,0.006C4.25,9.597,4.88,9.683,5.509,9.77L5.509,9.77z"/>
<polyline fill="#DF372D" points="10.197,17.297 10.01,17.848 9.902,18.145 9.928,18.514 9.564,19.103 9.753,19.494 9.753,19.912 
	10.307,20.101 10.415,19.885 11.224,19.453 11.912,19.196 12.097,19.026 12.492,19.156 12.951,19.075 14.853,19.804 14.933,19.413 
	14.933,18.887 15.081,18.59 14.588,17.454 "/>
<path fill="#C08E69" d="M6.376,2.844C6.426,2.91,6.477,2.975,6.527,3.04l0.001,0.001c0.014,0.017,0.046,0.057,0.1,0.057
	c0.02,0,0.04-0.005,0.059-0.017c0.05-0.027,0.105-0.053,0.157-0.077c0.104-0.048,0.212-0.099,0.311-0.174
	C7.53,2.533,7.86,2.25,8.164,1.965c0.054-0.049,0.113-0.118,0.1-0.209c0-0.008,0-0.017,0.001-0.024
	c0.002-0.044,0.007-0.118-0.067-0.159c-0.019-0.01-0.038-0.016-0.058-0.016c-0.043,0-0.073,0.025-0.091,0.04
	C8.044,1.601,8.039,1.604,8.037,1.606C8.014,1.617,7.995,1.629,7.976,1.642C7.962,1.65,7.949,1.659,7.938,1.665
	C7.836,1.718,7.736,1.773,7.639,1.827C7.424,1.946,7.204,2.069,6.973,2.16C6.895,2.19,6.814,2.222,6.738,2.253
	C6.585,2.315,6.427,2.378,6.269,2.435c-0.002,0-0.005,0.001-0.008,0.002C6.237,2.442,6.188,2.454,6.17,2.504
	C6.159,2.538,6.167,2.575,6.197,2.612C6.256,2.689,6.317,2.768,6.376,2.844z"/>
<path fill="#C08E69" d="M7.447,2.869L7.446,2.867L7.445,2.864c-0.01-0.019-0.041-0.077-0.106-0.077
	c-0.028,0-0.052,0.011-0.073,0.021C7.162,2.855,7.076,2.925,6.994,2.993c-0.066,0.055-0.129,0.106-0.2,0.145
	c-0.035,0.02-0.055,0.045-0.062,0.077c-0.008,0.049,0.021,0.084,0.04,0.106l0.001,0.002l0.505,0.58
	c0.005,0.005,0.01,0.015,0.014,0.023c0.003,0.005,0.006,0.01,0.008,0.014l0.032,0.053L7.39,3.97C7.4,3.966,7.408,3.962,7.413,3.96
	c0.011-0.004,0.021-0.008,0.03-0.014c0.041-0.025,0.081-0.049,0.12-0.074s0.079-0.049,0.12-0.074C7.713,3.78,7.76,3.737,7.729,3.651
	c-0.033-0.09-0.065-0.184-0.095-0.275C7.577,3.209,7.519,3.035,7.447,2.869z"/>
<path fill="#C08E69" d="M6.579,4.426c0.022-0.014,0.045-0.027,0.07-0.04L6.75,4.328L6.653,4.263C6.59,4.222,6.527,4.181,6.466,4.142
	C6.257,4.006,6.059,3.879,5.874,3.723L5.786,3.647L5.758,3.76c-0.023,0.094-0.04,0.166-0.056,0.238
	c-0.008-0.003-0.021-0.02-0.031-0.033c-0.007-0.01-0.015-0.019-0.024-0.029L5.645,3.935L5.643,3.933
	C5.625,3.917,5.618,3.899,5.618,3.895C5.654,3.817,5.68,3.737,5.707,3.659c0.016-0.05,0.031-0.096,0.049-0.143
	c0.004-0.012,0.01-0.027,0.016-0.04C5.784,3.485,5.797,3.495,5.805,3.5l0.001,0.001c0.007,0.005,0.013,0.009,0.018,0.014
	C6.077,3.779,6.348,3.98,6.65,4.133c0.097,0.049,0.173,0.071,0.247,0.071c0.086,0,0.166-0.031,0.243-0.096
	c0.001,0,0.004-0.002,0.006-0.003c0.006-0.003,0.012-0.007,0.019-0.012c0.052-0.031,0.07-0.089,0.043-0.143
	C7.2,3.935,7.194,3.917,7.187,3.899C7.17,3.849,7.149,3.792,7.098,3.748L7.097,3.747C6.936,3.61,6.782,3.458,6.632,3.311
	c-0.02-0.02-0.039-0.039-0.059-0.058c-0.193-0.19-0.392-0.386-0.535-0.619C5.98,2.542,5.923,2.47,5.859,2.408
	c-0.054-0.051-0.123-0.08-0.194-0.08c-0.098,0-0.185,0.053-0.231,0.143C5.37,2.591,5.292,2.707,5.216,2.819
	C5.147,2.922,5.076,3.028,5.013,3.141C4.955,3.245,4.889,3.348,4.824,3.447C4.733,3.589,4.638,3.736,4.562,3.894
	C4.528,3.964,4.527,4.03,4.558,4.103c0.019,0.046,0.039,0.09,0.059,0.134c0.036,0.078,0.07,0.153,0.095,0.231
	C4.698,4.448,4.687,4.427,4.674,4.407C4.61,4.303,4.545,4.194,4.485,4.083C4.401,3.93,4.318,3.77,4.239,3.615
	c-0.19-0.37-0.387-0.752-0.638-1.099l0,0C3.599,2.514,3.598,2.509,3.597,2.507c-0.01-0.023-0.035-0.082-0.102-0.082
	c-0.018,0-0.036,0.004-0.054,0.013C3.333,2.493,3.331,2.577,3.34,2.621c0.012,0.066,0.022,0.134,0.033,0.2
	c0.02,0.124,0.041,0.253,0.073,0.378C3.628,3.887,3.853,4.572,4.07,5.235c0.039,0.117,0.077,0.235,0.115,0.353
	c0.008,0.025,0.033,0.103,0.111,0.103l0,0c0.032,0,0.058-0.013,0.089-0.031c0.658-0.372,1.331-0.751,1.999-1.126
	C6.449,4.5,6.512,4.464,6.579,4.426z"/>
<path fill="#C08E69" d="M7.715,6.13c0.056-0.063,0.114-0.127,0.149-0.212c0.159-0.365,0.372-0.702,0.579-1.027
	c0.26-0.412,0.525-0.741,0.812-1.007c0.106-0.098,0.147-0.215,0.171-0.307c0.031-0.123-0.031-0.224-0.1-0.278l0-0.001
	c-0.049-0.038-0.105-0.058-0.16-0.058c-0.052,0-0.101,0.017-0.146,0.05L9.019,3.292C8.726,3.512,8.401,3.659,8.057,3.814
	C8.012,3.835,7.966,3.855,7.92,3.876C7.9,3.885,7.878,3.895,7.857,3.905c-0.155,0.07-0.332,0.148-0.421,0.336
	C7.433,4.242,7.43,4.243,7.427,4.246L7.426,4.247C7.299,4.327,7.157,4.365,7.046,4.39C7.04,4.391,7.031,4.391,7.021,4.391H7.014
	c-0.026,0-0.069,0-0.114,0.028C6.102,4.918,5.29,5.423,4.486,5.92C4.406,5.97,4.387,6.032,4.427,6.116
	C4.461,6.187,4.496,6.26,4.528,6.331c0.11,0.237,0.225,0.482,0.365,0.71c0.018,0.038,0.014,0.048-0.001,0.07
	C4.72,7.348,4.652,7.627,4.604,7.873C4.588,7.901,4.563,7.958,4.591,8.011c0.021,0.041,0.062,0.064,0.124,0.071
	c0.03,0.004,0.061,0.012,0.094,0.02C4.826,8.105,4.843,8.11,4.861,8.114c0.408,0.111,0.824,0.215,1.235,0.31
	C6.122,8.437,6.158,8.451,6.2,8.451c0.015,0,0.03-0.002,0.043-0.005l0.004-0.001l0.005-0.001c0.029-0.011,0.063-0.037,0.063-0.1
	V8.34L6.57,7.489c0.003-0.011,0.006-0.021,0.009-0.029C6.585,7.433,6.59,7.416,6.6,7.408c0.127-0.095,0.195-0.229,0.206-0.41V6.997
	C6.807,6.973,6.813,6.947,6.818,6.92c0.006-0.027,0.012-0.056,0.015-0.086c0.004-0.049,0.019-0.07,0.059-0.089
	C7.211,6.596,7.488,6.389,7.715,6.13z"/>
<path fill="#C08E69" d="M16.582,14.138l-0.002-0.001l-0.001-0.001c-0.048-0.015-0.099-0.023-0.151-0.023
	c-0.022,0-0.044,0.004-0.063,0.006h-0.002l-0.005,0.002c-0.002,0-0.003,0-0.004,0c-0.007,0.001-0.016,0.002-0.025,0.006
	c-0.01,0.003-0.018,0.007-0.022,0.01l-0.011,0.005l-0.018,0.019l-0.004,0.007c-0.026,0.039-0.014,0.08-0.006,0.102
	c0.001,0.003,0.002,0.006,0.002,0.009c-0.003,0.018-0.004,0.035-0.004,0.048c-0.001,0.008-0.001,0.018-0.002,0.021
	c-0.009,0.026-0.017,0.048-0.025,0.071c-0.016,0.034-0.032,0.07-0.05,0.104c-0.044,0.077-0.097,0.153-0.164,0.23
	c0.003-0.019,0.01-0.04,0.019-0.062l0.002-0.005v-0.002c0.001-0.002,0.001-0.002,0.002-0.004s0.002-0.006,0.005-0.008V14.67v-0.002
	c0.017-0.035,0.036-0.07,0.059-0.106c0.006-0.01,0.012-0.02,0.017-0.03c0.003-0.005,0.007-0.009,0.012-0.016
	c0.006-0.008,0.013-0.016,0.02-0.026c0.001-0.002,0.002-0.004,0.002-0.005l0.002-0.001l0.006-0.014
	c0.007-0.02,0.01-0.04,0.007-0.061c-0.006-0.083-0.091-0.187-0.162-0.252c-0.029-0.024-0.054-0.044-0.076-0.056
	c-0.033-0.019-0.057-0.027-0.081-0.031c-0.031-0.004-0.06-0.007-0.089-0.009h-0.002c-0.074-0.007-0.149-0.013-0.217-0.032
	l-0.02-0.007c-0.118-0.037-0.235-0.08-0.348-0.128c-0.038-0.016-0.076-0.033-0.112-0.051h-0.001
	c-0.148-0.069-0.292-0.15-0.427-0.242c-0.038-0.028-0.076-0.054-0.114-0.081c-0.063-0.043-0.129-0.088-0.192-0.134
	c-0.02-0.013-0.04-0.026-0.059-0.04c-0.049-0.032-0.098-0.067-0.145-0.102l-0.002-0.001c-0.1-0.072-0.198-0.147-0.294-0.225
	l-0.002-0.002l-0.003-0.001c-0.001-0.001-0.004-0.002-0.005-0.004c-0.003-0.003-0.008-0.007-0.013-0.01
	c-0.008-0.007-0.017-0.013-0.023-0.018c-0.006-0.005-0.012-0.008-0.017-0.012l-0.002-0.003l-0.013-0.008
	c-0.011-0.008-0.02-0.015-0.027-0.021l-0.002-0.002c-0.021-0.014-0.033-0.027-0.041-0.04c-0.01-0.013-0.021-0.027-0.03-0.039
	c-0.004-0.005-0.008-0.01-0.012-0.015c-0.005-0.006-0.01-0.013-0.015-0.022c-0.025-0.03-0.053-0.062-0.078-0.093
	c-0.109-0.13-0.213-0.255-0.26-0.417l-0.055-0.191l-0.08,0.183c-0.077,0.174-0.159,0.316-0.251,0.435
	c-0.034,0.043-0.078,0.099-0.125,0.147c-0.181,0.188-0.4,0.32-0.65,0.389c-0.104,0.03-0.212,0.051-0.328,0.063
	c0.013-0.013,0.026-0.023,0.04-0.036c0.048-0.045,0.102-0.087,0.153-0.129c0.108-0.087,0.22-0.176,0.312-0.291l0.01-0.007
	l0.002-0.002c0.026-0.02,0.044-0.05,0.048-0.083v-0.003v-0.087h-0.072c-0.008,0-0.014,0.001-0.019,0.002h-0.002l-0.011,0.003
	c-0.02,0.007-0.049,0.018-0.075,0.043c-0.101,0.059-0.206,0.115-0.308,0.169c-0.026,0.013-0.053,0.027-0.079,0.041l-0.001,0.003
	c-0.01,0.004-0.019,0.008-0.028,0.013c-0.01,0.007-0.02,0.011-0.03,0.018c-0.033,0.017-0.065,0.033-0.099,0.048l-0.001,0.002h-0.002
	c-0.061,0.03-0.119,0.057-0.168,0.076c-0.271,0.112-0.561,0.187-0.861,0.219c-0.167,0.022-0.337,0.037-0.503,0.053
	c-0.167,0.015-0.336,0.028-0.502,0.041H9.601c-0.106,0.006-0.217,0.013-0.325,0.018c-0.01,0-0.019,0-0.028,0
	C9.24,13.45,9.233,13.45,9.228,13.45c-0.019,0-0.037,0.001-0.054,0.001c-0.016,0-0.031,0.002-0.045,0.002
	c-0.035,0-0.069,0.001-0.104,0.005c-0.035,0.002-0.069,0.006-0.106,0.014c-0.016,0.002-0.03,0.006-0.044,0.01l-0.01,0.002
	c-0.307,0.078-0.573,0.178-0.816,0.3c-0.07,0.037-0.141,0.076-0.208,0.117c-0.046,0.028-0.091,0.06-0.135,0.091
	c-0.021,0.015-0.045,0.033-0.067,0.051C7.588,14.08,7.534,14.13,7.5,14.197c-0.005,0.01-0.01,0.021-0.015,0.036
	c-0.001,0.004-0.002,0.006-0.003,0.009l-0.001,0.002l-0.002,0.009c-0.001,0.004-0.003,0.011-0.004,0.016s-0.001,0.009-0.003,0.013
	l-0.001,0.004l0,0.003c-0.003,0.021-0.003,0.041-0.003,0.058v0.003l0,0.001c0.002,0.063,0.02,0.131,0.05,0.203
	c0.113,0.277,0.259,0.551,0.436,0.813c0.026,0.04,0.058,0.075,0.094,0.109l0.004,0.003l0.134,0.085l0.005,0.003
	c0.077,0.034,0.166,0.052,0.264,0.052c0.09,0,0.12,0.02,0.148,0.092C8.717,16,8.921,16.244,9.21,16.438h0.002
	c0.006,0.005,0.012,0.009,0.018,0.013c0.013,0.007,0.026,0.017,0.042,0.024c0.018,0.011,0.034,0.022,0.053,0.033l0.001,0.001
	l0.001,0.001c0.082,0.046,0.158,0.098,0.221,0.141c0.013,0.01,0.025,0.018,0.037,0.026c0.011,0.009,0.022,0.017,0.034,0.025
	c0.091,0.069,0.179,0.146,0.262,0.225c0.006,0.007,0.013,0.014,0.021,0.021c0.014,0.015,0.026,0.025,0.038,0.038l0.001,0.002
	l0.001,0.001c0.082,0.083,0.163,0.169,0.24,0.257c0.006,0.008,0.013,0.014,0.019,0.021c0.012,0.014,0.025,0.029,0.04,0.044
	c0.019,0.022,0.039,0.044,0.058,0.065c0.019,0.021,0.038,0.043,0.057,0.064h0c0.105,0.12,0.187,0.23,0.251,0.335l0.001,0.002
	l0.001,0.002c0.006,0.008,0.012,0.019,0.018,0.029c0.003,0.006,0.005,0.01,0.008,0.014c0.033,0.058,0.06,0.114,0.08,0.17
	l0.001,0.002c0.056,0.143,0.158,0.231,0.242,0.291c0.05,0.039,0.104,0.072,0.156,0.104l0.002,0.002
	c0.014,0.007,0.026,0.015,0.039,0.021c0.026,0.017,0.054,0.031,0.083,0.047l0.001,0.002c0.028,0.014,0.054,0.027,0.082,0.045
	c0.028,0.017,0.058,0.032,0.089,0.049c0.054,0.027,0.101,0.048,0.147,0.061h0.001l0.026,0.007c0.007,0.002,0.013,0.004,0.017,0.004
	h0.001l0.004,0.001l0.007,0.002c0.138,0.02,0.252,0.027,0.359,0.027c0.072,0,0.139-0.004,0.205-0.012l0.013-0.002
	c0.05-0.007,0.102-0.012,0.152-0.021c0.046-0.007,0.089-0.013,0.135-0.021l0.016-0.003c0.006-0.001,0.01-0.001,0.013-0.003h0.002
	h0.006c0.052-0.009,0.104-0.019,0.155-0.03c0.13-0.026,0.26-0.059,0.388-0.098c0.041-0.012,0.083-0.025,0.124-0.039h0.002h0.001
	c0.009-0.005,0.019-0.008,0.023-0.009h0.005l0.005-0.002c0.039-0.014,0.078-0.027,0.116-0.044c0.008-0.003,0.016-0.006,0.022-0.009
	c0.006-0.002,0.011-0.004,0.016-0.006l0.002-0.001h0.003c0.007-0.004,0.015-0.007,0.022-0.01c0.009-0.004,0.019-0.008,0.028-0.012
	l0.062-0.026c0.055-0.026,0.109-0.054,0.162-0.081l0.002-0.001c0.066-0.037,0.133-0.076,0.198-0.116l0.002-0.001
	c0.033-0.022,0.065-0.046,0.096-0.067l0.004-0.002c0.093-0.069,0.175-0.141,0.245-0.215c0.035-0.038,0.067-0.077,0.1-0.116
	l0.001-0.001c0.135-0.172,0.257-0.371,0.387-0.624c0.01-0.021,0.021-0.041,0.031-0.061c0.009-0.02,0.018-0.038,0.027-0.057v-0.001
	c0.029-0.059,0.058-0.12,0.083-0.181l0.001-0.003c0.005-0.009,0.008-0.018,0.012-0.026c0.003-0.007,0.006-0.016,0.01-0.022v-0.002
	l0.001-0.001c0.031-0.085,0.049-0.171,0.067-0.262c0.004-0.022,0.009-0.044,0.014-0.067l0.028-0.132l-0.126,0.049
	c-0.012,0.007-0.023,0.011-0.037,0.016c-0.02,0.006-0.04,0.016-0.061,0.024l-0.024,0.01c-0.036,0.017-0.072,0.03-0.108,0.044
	c-0.04,0.015-0.08,0.023-0.121,0.028h-0.003H14.48c-0.007,0.002-0.015,0.002-0.022,0.002c-0.001,0-0.006,0-0.006,0
	c-0.031,0-0.035-0.007-0.04-0.021l0.003-0.001l0.002-0.003c0.002,0,0.006-0.002,0.011-0.002h0.004l0.004-0.002
	c0.009-0.002,0.016-0.004,0.024-0.009h0.001c0.011-0.004,0.021-0.009,0.032-0.014l0.03-0.013l0.021-0.009
	c0.146-0.056,0.299-0.112,0.433-0.208c0.091-0.065,0.17-0.13,0.24-0.197c0.028-0.027,0.061-0.055,0.087-0.085
	c0.142-0.15,0.244-0.302,0.312-0.47c0.002-0.006,0.006-0.013,0.008-0.019c0.007-0.014,0.014-0.029,0.022-0.042
	c0.011-0.02,0.021-0.038,0.03-0.059c0.003-0.009,0.005-0.011,0.004-0.011c0.001,0,0.004,0,0.011,0c0.025,0,0.051-0.005,0.072-0.007
	c0.013-0.002,0.025-0.004,0.038-0.005h0.055c0.236,0,0.383-0.154,0.504-0.32c0.09-0.118,0.144-0.255,0.189-0.366l0.002-0.001
	c0.006-0.017,0.011-0.03,0.019-0.046l0.001-0.002l0,0c0.03-0.069,0.068-0.156,0.074-0.252v-0.003v-0.003c0-0.001,0-0.002,0-0.004
	C16.648,14.244,16.656,14.164,16.582,14.138z M14.293,15.063L14.293,15.063c-0.062-0.011-0.122-0.015-0.18-0.02
	c-0.021-0.001-0.043-0.002-0.065-0.004c-0.092-0.007-0.187-0.021-0.262-0.077c-0.084-0.062-0.179-0.07-0.264-0.077h-0.001
	c-0.101-0.007-0.186-0.057-0.276-0.108c-0.01-0.007-0.021-0.013-0.03-0.02c-0.027-0.016-0.037-0.039-0.042-0.102v-0.001
	c-0.007-0.082-0.012-0.136-0.048-0.178s-0.088-0.055-0.167-0.072c-0.185-0.045-0.331-0.14-0.434-0.284
	c-0.05-0.068-0.082-0.155-0.092-0.254c-0.009-0.074-0.015-0.154-0.017-0.254c0.03,0.039,0.056,0.073,0.063,0.112v0.003
	c0.012,0.063,0.031,0.121,0.049,0.178c0.073,0.23,0.266,0.265,0.422,0.292c0.016,0.003,0.032,0.006,0.047,0.009
	c0.357,0.064,0.707,0.098,1.038,0.098c0.231,0,0.461-0.017,0.683-0.047c-0.005,0.002-0.009,0.004-0.015,0.005
	c-0.037,0.014-0.075,0.028-0.111,0.041c-0.271,0.094-0.538,0.178-0.819,0.195c-0.008,0.001-0.016,0.002-0.022,0.002
	c-0.063,0-0.125-0.014-0.19-0.028c-0.042-0.008-0.087-0.02-0.13-0.024c-0.006,0-0.013-0.001-0.02-0.003
	c-0.018-0.003-0.037-0.007-0.06-0.007c-0.016,0-0.03,0.001-0.046,0.005l-0.063,0.017l0.01,0.064c0.015,0.094,0.071,0.176,0.17,0.237
	c0.102,0.065,0.223,0.133,0.382,0.133c0.216,0,0.436-0.021,0.688-0.07c0.053-0.009,0.094-0.032,0.13-0.054
	c0.069-0.043,0.14-0.08,0.207-0.117c-0.128,0.117-0.271,0.239-0.442,0.378c-0.035,0.028-0.055,0.035-0.073,0.035
	C14.307,15.065,14.3,15.065,14.293,15.063z M11.296,17.74c-0.013,0.056-0.024,0.108-0.046,0.156c0-0.001-0.001-0.002-0.002-0.004
	c-0.033-0.045-0.04-0.102-0.048-0.165c-0.002-0.017-0.004-0.034-0.006-0.051c0.014-0.049,0.021-0.099,0.028-0.146
	c0.01-0.065,0.019-0.129,0.045-0.187c0.066-0.148,0.205-0.193,0.353-0.24c0.02-0.006,0.04-0.014,0.06-0.02
	c0.195-0.067,0.41-0.104,0.637-0.11c0.007,0,0.016,0,0.024,0c0.197,0,0.356,0.067,0.475,0.202c-0.141-0.079-0.29-0.094-0.436-0.107
	c-0.046-0.005-0.094-0.009-0.14-0.017c-0.011-0.001-0.023-0.002-0.035-0.002c-0.032,0-0.063,0.006-0.095,0.019
	c-0.029,0.012-0.059,0.021-0.088,0.033c-0.131,0.051-0.265,0.103-0.396,0.16c-0.097,0.041-0.234,0.126-0.304,0.374
	C11.312,17.672,11.304,17.706,11.296,17.74z M12.876,16.477c-0.021,0-0.039,0.005-0.056,0.007l-0.006,0.002
	c-0.216,0.037-0.419,0.117-0.625,0.206c-0.061,0.023-0.119,0.038-0.172,0.038c-0.074,0-0.141-0.024-0.207-0.072
	c-0.095-0.072-0.196-0.109-0.3-0.109c-0.085,0-0.173,0.024-0.262,0.073c-0.112,0.063-0.216,0.092-0.317,0.092
	c-0.051,0-0.102-0.008-0.152-0.023c-0.015-0.004-0.03-0.008-0.036-0.014l-0.001-0.001c-0.003-0.002-0.007-0.007-0.012-0.01
	c0.003-0.002,0.007-0.005,0.011-0.007c0.006-0.003,0.011-0.008,0.017-0.01c0.028-0.02,0.058-0.038,0.085-0.062l0.002-0.001
	c0.024-0.022,0.041-0.026,0.062-0.026c0.013,0,0.03,0.002,0.051,0.007c0.023,0.006,0.047,0.009,0.071,0.009
	c0.077,0,0.159-0.029,0.235-0.082c0.074-0.051,0.148-0.077,0.227-0.077c0.083,0,0.174,0.028,0.279,0.085
	c0.004,0.002,0.008,0.004,0.012,0.007c0.002,0.001,0.004,0.002,0.005,0.002c0.074,0.06,0.162,0.119,0.265,0.119
	c0.081,0,0.156-0.034,0.231-0.108c0.022-0.021,0.07-0.021,0.121-0.021c0.028-0.001,0.056-0.001,0.086-0.006
	c0.038-0.005,0.079-0.01,0.117-0.014c0.154-0.018,0.314-0.035,0.464-0.113c0.01,0.016,0.021,0.028,0.029,0.041
	c0.024,0.034,0.04,0.055,0.042,0.081v0.002v0.004c-0.008,0.005-0.016,0.008-0.024,0.011c-0.036,0.017-0.07,0.032-0.097,0.032
	c-0.013,0-0.03-0.004-0.053-0.024C12.943,16.49,12.912,16.477,12.876,16.477z M9.394,14.805c-0.006,0.001-0.011,0.002-0.016,0.002
	c-0.008,0-0.02-0.002-0.045-0.021c-0.002-0.001-0.004-0.002-0.006-0.005c0.001-0.001,0.003-0.002,0.005-0.002
	c0.088-0.04,0.188-0.063,0.274-0.085c0.01-0.002,0.021-0.004,0.031-0.009c0.029,0.005,0.056,0.007,0.082,0.009
	c0.052,0.005,0.097,0.009,0.14,0.019c0.132,0.03,0.266,0.047,0.409,0.047c0.142,0,0.29-0.016,0.451-0.046
	c0.053-0.01,0.124-0.02,0.192-0.02c0.065,0,0.124,0.009,0.177,0.029c0.012,0.006,0.022,0.008,0.032,0.01
	c0.004,0.001,0.011,0.004,0.015,0.005c0.002,0.002,0.005,0.004,0.008,0.006l-0.019,0.003c-0.13,0.018-0.253,0.034-0.381,0.048
	c-0.052,0.004-0.092,0.024-0.132,0.045c-0.021,0.014-0.044,0.025-0.064,0.037c-0.066,0.037-0.129,0.074-0.198,0.098
	c-0.055,0.02-0.109,0.028-0.16,0.028c-0.094,0-0.182-0.032-0.26-0.098c-0.108-0.09-0.225-0.137-0.344-0.137
	C9.521,14.768,9.458,14.78,9.394,14.805z M9.532,13.982c0.003,0,0.007,0.001,0.012,0.001c0.006,0,0.014,0.002,0.023,0.002
	c0.563,0.035,1.086,0.089,1.598,0.167c0.034,0.005,0.066,0.007,0.097,0.007c0.152,0,0.274-0.061,0.362-0.178
	c0.011-0.016,0.021-0.029,0.032-0.044c0.057-0.076,0.116-0.151,0.165-0.237c0.007-0.013,0.024-0.039,0.035-0.049
	c0.007,0.004,0.018,0.016,0.011,0.067l0,0c-0.03,0.263-0.145,0.461-0.353,0.604c-0.014,0.011-0.049,0.037-0.054,0.082
	c-0.004,0.044,0.024,0.075,0.034,0.086c0.197,0.221,0.237,0.501,0.262,0.769c0.01,0.119-0.014,0.236-0.069,0.349
	c-0.044,0.087-0.028,0.159,0.047,0.223c0.056,0.045,0.107,0.098,0.161,0.151c0.039,0.038,0.082,0.059,0.127,0.059
	c0.038,0,0.076-0.013,0.115-0.043c0.039-0.027,0.069-0.063,0.099-0.097c0.006-0.008,0.012-0.015,0.018-0.021l0.001-0.002
	c0.014-0.017,0.027-0.032,0.041-0.048c0.092-0.111,0.179-0.216,0.298-0.287c0.033-0.02,0.067-0.03,0.097-0.03
	c0.031,0,0.055,0.011,0.071,0.031c-0.147,0.056-0.23,0.18-0.305,0.29c-0.007,0.011-0.014,0.021-0.021,0.03
	c-0.044,0.064-0.083,0.131-0.122,0.195c-0.015,0.024-0.029,0.048-0.043,0.071c-0.054,0.087-0.145,0.139-0.242,0.139
	c-0.072,0-0.14-0.027-0.197-0.077c-0.015-0.015-0.03-0.028-0.046-0.041c-0.057-0.053-0.112-0.1-0.153-0.154
	c-0.088-0.115-0.2-0.156-0.311-0.17c0.029-0.046,0.069-0.091,0.124-0.137c0.121-0.098,0.172-0.229,0.161-0.416
	c-0.01-0.155-0.03-0.357-0.101-0.548h0c-0.046-0.12-0.108-0.239-0.245-0.31c-0.051-0.027-0.102-0.032-0.146-0.038
	c-0.008-0.002-0.015-0.002-0.023-0.004c-0.127-0.017-0.256-0.037-0.38-0.057c-0.239-0.04-0.486-0.079-0.734-0.101
	c-0.079-0.006-0.16-0.01-0.239-0.01c-0.177,0-0.358,0.017-0.539,0.051c0.088-0.098,0.196-0.178,0.308-0.26L9.532,13.982z
	 M7.923,14.394c0.045,0.044,0.062,0.104,0.081,0.172c0.008,0.029,0.017,0.059,0.027,0.087c0.029,0.081,0.064,0.165,0.159,0.226
	C8.232,14.904,8.258,14.944,8.27,15c-0.048-0.063-0.109-0.115-0.188-0.154c-0.177-0.091-0.263-0.259-0.222-0.437
	c0.004-0.02,0.013-0.032,0.039-0.046C7.905,14.372,7.913,14.383,7.923,14.394z"/>
<path fill="#C08E69" d="M18.381,6.782c-0.211-0.55-0.4-1.044-0.629-1.533v0c-0.024-0.053-0.029-0.093-0.01-0.135
	c0.111-0.249,0.152-0.512,0.119-0.783c-0.007-0.059-0.006-0.121-0.002-0.185c0.002-0.068,0.005-0.137-0.005-0.209
	c-0.029-0.257-0.095-0.507-0.16-0.748c-0.025-0.099-0.052-0.201-0.077-0.302c-0.067-0.285-0.192-0.547-0.312-0.802
	c-0.049-0.102-0.098-0.206-0.144-0.311c-0.071-0.167-0.169-0.323-0.265-0.474c-0.049-0.08-0.1-0.162-0.147-0.244
	c-0.035-0.063-0.074-0.125-0.112-0.186c-0.047-0.076-0.09-0.147-0.13-0.221c-0.066-0.126-0.158-0.266-0.326-0.342h-0.001
	c-0.005-0.002-0.011-0.004-0.016-0.007c-0.025-0.013-0.059-0.028-0.096-0.028c-0.034,0-0.067,0.015-0.089,0.042l-0.001,0.002
	c-0.027,0.036-0.099,0.131-0.053,0.242c0.023,0.061,0.05,0.121,0.075,0.18c0.026,0.058,0.053,0.118,0.076,0.177
	c0.035,0.082,0.072,0.165,0.106,0.244c0.106,0.241,0.218,0.489,0.28,0.749l0.008,0.03c0.031,0.127,0.062,0.248,0.07,0.373v0.002
	c0,0.01,0,0.018,0,0.026c-0.005-0.008-0.011-0.016-0.017-0.022c-0.085-0.092-0.201-0.198-0.351-0.198
	c-0.041,0-0.081,0.009-0.121,0.025l-0.002,0.001c-0.018,0.008-0.039,0.012-0.063,0.012c-0.014,0-0.028-0.001-0.041-0.004
	c-0.002,0-0.005-0.001-0.008-0.001c0.001-0.001,0.003-0.002,0.005-0.003c0.007-0.005,0.017-0.011,0.026-0.016
	c0.02-0.011,0.042-0.024,0.063-0.042l0.001-0.001c0.086-0.081,0.071-0.164,0.028-0.215c-0.021-0.027-0.044-0.057-0.065-0.084
	c-0.062-0.083-0.126-0.168-0.211-0.234c-0.199-0.156-0.432-0.335-0.674-0.491l-0.001-0.001c-0.018-0.01-0.033-0.021-0.05-0.031
	C15.046,1.022,15.027,1.011,15.01,1c-0.38-0.23-0.799-0.457-1.277-0.692c-0.051-0.026-0.12-0.056-0.201-0.056
	c-0.007,0-0.015,0-0.021,0.001h-0.003c-0.004,0.001-0.009,0.001-0.014,0.002c-0.043,0.003-0.122,0.01-0.157,0.094
	c-0.032,0.073-0.02,0.152,0.033,0.215l0.009,0.01c0.046,0.053,0.099,0.113,0.173,0.155c0.056,0.031,0.113,0.061,0.168,0.09
	c0.13,0.069,0.264,0.139,0.38,0.229c0.318,0.243,0.658,0.507,0.996,0.789c0.105,0.088,0.203,0.187,0.284,0.272l0.17,0.176
	c0.013,0.013,0.02,0.024,0.021,0.028c0,0.002,0.001,0.004,0.001,0.006v0.001c-0.001,0.002-0.004,0.006-0.009,0.01
	c-0.009,0.009-0.013,0.009-0.016,0.009c-0.013,0-0.036-0.014-0.056-0.024c-0.007-0.004-0.016-0.016-0.026-0.027
	c-0.005-0.005-0.009-0.01-0.014-0.015l-0.001-0.001l-0.028-0.029c-0.014-0.015-0.029-0.029-0.043-0.044
	c-0.028-0.03-0.058-0.061-0.091-0.091l-0.006-0.004c-0.018-0.016-0.037-0.033-0.06-0.048c-0.125-0.094-0.253-0.189-0.377-0.281
	c-0.122-0.092-0.25-0.187-0.376-0.281L14.44,1.474c-0.237-0.178-0.483-0.362-0.723-0.544c-0.142-0.107-0.293-0.199-0.464-0.281
	c-0.033-0.016-0.062-0.023-0.089-0.023c-0.068,0-0.11,0.047-0.124,0.063L13.04,0.69c-0.065,0.078-0.077,0.166-0.032,0.255
	c0.051,0.104,0.124,0.196,0.225,0.283c0.021,0.019,0.042,0.036,0.064,0.055c0.092,0.078,0.178,0.151,0.253,0.236l0.001,0.001
	c0.13,0.145,0.263,0.29,0.392,0.431c0.337,0.37,0.685,0.753,1.013,1.141c0.026,0.029,0.039,0.058,0.044,0.09
	C15.001,3.194,15,3.202,15,3.208c-0.004,0-0.011-0.001-0.021-0.005c-0.012-0.005-0.024-0.012-0.037-0.019l-0.026-0.016
	c-0.545-0.308-1.107-0.626-1.624-0.996c-0.145-0.102-0.31-0.194-0.507-0.281L12.782,1.89c-0.033-0.015-0.071-0.032-0.114-0.032
	c-0.036,0-0.088,0.012-0.128,0.074l0,0.001c-0.051,0.08-0.023,0.218,0.057,0.28c0.152,0.114,0.298,0.244,0.439,0.369
	c0.044,0.04,0.09,0.08,0.136,0.12c0.063,0.054,0.127,0.108,0.188,0.161c0.36,0.308,0.731,0.625,0.999,1.03
	c0.05,0.073,0.161,0.106,0.25,0.106c0.04,0,0.093-0.006,0.138-0.034c0.186-0.118,0.368-0.176,0.556-0.176c0.002,0,0.007,0,0.009,0
	l-0.584,0.38c-0.031,0.02-0.049,0.022-0.063,0.022c-0.011,0-0.021-0.001-0.033-0.004l-0.002-0.001
	c-0.022-0.006-0.045-0.013-0.07-0.02c-0.071-0.021-0.146-0.043-0.23-0.043c-0.003,0-0.006,0-0.009,0
	c-0.373,0.004-0.776,0.043-1.269,0.123c-0.013,0.002-0.025,0.004-0.039,0.006c-0.084,0.014-0.172,0.028-0.256,0.077
	c-0.072,0.042-0.107,0.117-0.096,0.205c0.01,0.094,0.057,0.149,0.137,0.163c0.222,0.044,0.446,0.091,0.663,0.136l0.113,0.023
	c0.015,0.003,0.028,0.006,0.042,0.01c0.075,0.019,0.152,0.039,0.233,0.046c0.339,0.213,0.611,0.396,0.854,0.574
	c0.203,0.148,0.396,0.234,0.604,0.269c0.072,0.012,0.145,0.031,0.215,0.05c0.024,0.006,0.047,0.012,0.07,0.018
	c0.043,0.011,0.088,0.019,0.131,0.026c0.087,0.015,0.169,0.029,0.221,0.069c0.059,0.044,0.098,0.131,0.135,0.216
	c0.015,0.032,0.03,0.065,0.048,0.096c0.015,0.035,0.065,0.135,0.185,0.135c0.019,0,0.039-0.002,0.059-0.007h0.002
	c0.007-0.002,0.014-0.003,0.016-0.003l0,0c0.002,0.003,0.009,0.012,0.018,0.038c0.045,0.133,0.094,0.267,0.141,0.397
	c0.059,0.164,0.119,0.333,0.177,0.5l0.001,0.004l0.003,0.003c0.02,0.04,0.054,0.112,0.14,0.112c0.019,0,0.038-0.004,0.063-0.011
	c0.409-0.127,0.851-0.259,1.352-0.406c0.039-0.011,0.087-0.029,0.111-0.076C18.409,6.869,18.396,6.819,18.381,6.782z"/>
<path fill="#1A4582" d="M15.09,18.72l2.984-1.217l0.051-1.054l0.518-1.07l0.114-1.185l0.584-1.786l0.648-1.492l-0.05-0.357
	l-0.097-0.325l0.066-0.373l-0.114-0.438l0.064-0.307l-0.583-0.714l-2.599,0.909l0.115,0.341l-0.241,0.406l0.227,0.698l-0.356,0.698
	l0.502,1.507l1.07,0.568c-0.05,0.016-1.361-0.115-1.361-0.115l0.306,0.634l-0.356,0.989l-0.421,0.212l-0.356,0.114l-0.699,0.81
	l-0.518,1.281l0.438,1.264H15.09L15.09,18.72z M4.111,9.761l2.648,0.303L7.1,11.747l-0.572,1.359l0.321,0.234l0.555,1.54
	l0.647,0.716l0.446,0.269l0.787,0.752l0.914,0.68l-0.324,0.698l0.054,0.519L9.82,18.8l-0.198,0.556L7.708,18.8l0.054-0.322
	l-0.27-0.357l0.09-0.34l-2.612-1.915l-0.198-0.484l-0.572-0.177l-0.018-4.101l-0.234-0.59L4.111,9.761L4.111,9.761z"/>
<path fill="#63411F" d="M8.893,16.375L8.893,16.375c-0.017-0.017-0.034-0.032-0.05-0.048c-0.019-0.02-0.038-0.039-0.058-0.058
	c-0.074-0.066-0.143-0.05-0.169-0.04c-0.026,0.01-0.088,0.043-0.098,0.135c-0.011,0.081-0.015,0.162-0.017,0.238
	c-0.004,0.108-0.009,0.211-0.032,0.309l-0.037,0.164h0.25l0.037-0.073c0.035-0.07,0.069-0.14,0.104-0.211
	c0.034-0.069,0.07-0.138,0.104-0.209l0,0c0.032-0.063,0.022-0.142-0.025-0.197L8.893,16.375z"/>
<path fill="#63411F" d="M16.21,15.365l-0.046-0.021c-0.086-0.037-0.162,0.006-0.212,0.035c-0.011,0.006-0.021,0.012-0.03,0.016
	c-0.104,0.037-0.154,0.104-0.149,0.201c0.006,0.189,0.025,0.392,0.063,0.635l0.066,0.424l0.185-0.387
	c0.028-0.061,0.037-0.112,0.041-0.147l0.004-0.02c0.019-0.109,0.037-0.213,0.054-0.318l0.027-0.151
	c0.002-0.011,0.007-0.021,0.009-0.032c0.018-0.047,0.044-0.118,0.01-0.19L16.21,15.365z"/>
<path fill="#63411F" d="M16.619,13.375c0.221,0.005,0.431,0.008,0.641,0.039l0.52,0.076l-0.422-0.314l0,0
	c-0.108-0.08-0.238-0.131-0.389-0.15c-0.097-0.013-0.192-0.026-0.289-0.038c0.026-0.002,0.053-0.012,0.074-0.027
	c0.044-0.028,0.076-0.069,0.092-0.118l0.013-0.038l-0.011-0.038c-0.004-0.017-0.008-0.032-0.011-0.047
	c-0.005-0.02-0.009-0.038-0.014-0.057l-0.006-0.024l-0.402-1.689l-0.394-0.443c-0.506-1.019-1.07-1.114-1.745-1.431
	c-0.008-0.004-0.015-0.007-0.022-0.009l-0.012-0.003c-0.198-0.061-0.401-0.051-0.64,0.031h-0.002
	c-0.138,0.049-0.521-0.26-0.856-0.519C12.404,8.311,11.96,8.1,11.589,8.022c-0.469-0.098-0.958,0.048-1.39,0.177l-0.107,0.032
	c-0.084,0.026-0.166,0.056-0.238,0.084C9.784,8.345,9.719,8.38,9.655,8.421C9.412,8.576,9.134,8.75,8.896,8.977
	c-0.01,0.009-0.02,0.018-0.029,0.027C8.858,9.013,8.85,9.021,8.84,9.029L8.831,9.037C8.768,9.085,8.715,9.133,8.665,9.181
	C8.641,9.203,8.617,9.225,8.593,9.247L8.546,9.288c-0.255,0.279-0.464,0.596-0.65,0.876c-0.089,0.136-0.183,0.283-0.26,0.457
	c-0.033,0.073-0.251,0.144-0.293,0.219c-0.049,0.087-0.1,0.178-0.14,0.276L7.182,11.61c0,0-0.342,0.822-0.542,1.142
	c-0.043,0.069-0.075,0.146-0.094,0.226l-0.088,0.365c0,0,0.475-0.246,0.64,0.784l0.086,0.343l0.161-0.314
	c0.016-0.03,0.03-0.062,0.043-0.089c0.029-0.063,0.054-0.115,0.088-0.159c0.135-0.178,0.321-0.291,0.554-0.332
	c0.142-0.027,0.285-0.044,0.436-0.059c0.069-0.008,0.136-0.016,0.205-0.024c0.265-0.033,0.539-0.055,0.803-0.076
	c0.322-0.023,0.654-0.05,0.981-0.1c0.47-0.07,0.964-0.176,1.399-0.467c0.073-0.05,0.149-0.098,0.224-0.144
	c0.22-0.139,0.448-0.282,0.642-0.48c0.188-0.193,0.37-0.405,0.487-0.665c-0.063,0.363,0.027,0.674,0.273,0.931
	c0.014,0.013,0.027,0.027,0.04,0.038c0.222,0.201,0.495,0.426,0.844,0.573c0.134,0.057,0.271,0.114,0.41,0.167l-0.115,0.257
	l0.476,0.259c0.121,0.067,0.263,0.146,0.437,0.139c0.048-0.001,0.098,0.005,0.152,0.013c0.021,0.002,0.045,0.007,0.066,0.009l0,0
	c0.084,0.01,0.17,0.015,0.259,0.015c0.16,0,0.33-0.015,0.523-0.045l0.378-0.057l-0.332-0.188c-0.055-0.03-0.123-0.15-0.2-0.298
	c0.013,0,0.024,0,0.037,0C16.509,13.374,16.563,13.374,16.619,13.375z"/>
<path fill="#1B1A1B" d="M4.257,8.533L4.257,8.533C4.189,8.538,4.113,8.531,4.054,8.587C3.882,8.753,3.887,9.052,4.066,9.209
	c0.101,0.089,0.249,0.089,0.354,0c0.137-0.119,0.171-0.294,0.09-0.501C4.461,8.58,4.393,8.533,4.257,8.533z"/>
<path fill="#1B1A1B" d="M19.461,7.205L19.461,7.205c-0.145,0.002-0.274,0.137-0.269,0.273C19.2,7.606,19.31,7.719,19.43,7.714
	c0.129-0.002,0.252-0.144,0.25-0.282C19.676,7.276,19.604,7.202,19.461,7.205z"/>
<path fill="#1B1A1B" d="M15.562,20.637L15.562,20.637c-0.259-0.213-0.631-0.19-0.867,0.047c-0.146,0.15-0.169,0.303-0.078,0.492
	c0.07,0.141,0.165,0.263,0.261,0.388c0.067,0.088,0.14,0.176,0.202,0.267c0.045,0.066,0.021,0.117-0.054,0.143
	c-0.045,0.016-0.089,0.011-0.131-0.004c-0.133-0.047-0.247-0.122-0.35-0.217c-0.035-0.031-0.067-0.069-0.076-0.116
	c-0.012-0.07-0.049-0.101-0.116-0.108c-0.077-0.007-0.146-0.007-0.191,0.075c-0.074,0.13-0.055,0.246,0.081,0.368
	c0.257,0.228,0.565,0.329,0.874,0.354c0.278,0.005,0.452-0.248,0.36-0.486c-0.041-0.108-0.11-0.202-0.178-0.294
	c-0.112-0.148-0.229-0.291-0.335-0.444c-0.082-0.117-0.044-0.202,0.094-0.248c0.124-0.039,0.232-0.004,0.337,0.075
	c0.12,0.094,0.224,0.045,0.251-0.108C15.66,20.737,15.618,20.684,15.562,20.637z"/>
<path fill="#1B1A1B" d="M16.647,20.927c0.2-0.004,0.399-0.008,0.593-0.07c0.072-0.024,0.137-0.056,0.181-0.121
	c0.063-0.101,0.039-0.168-0.078-0.173c-0.255-0.011-0.511-0.031-0.767,0c-0.153,0.019-0.299,0.062-0.354,0.23
	c-0.002,0.01-0.014,0.023-0.022,0.025c-0.175,0.045-0.236,0.188-0.283,0.335c-0.099,0.323-0.187,0.651-0.278,0.974
	c-0.021,0.078,0.009,0.13,0.075,0.172c0.051,0.03,0.102,0.029,0.16,0.013c0.303-0.075,0.606-0.155,0.922-0.134
	c0.044,0.004,0.081-0.009,0.12-0.026c0.073-0.037,0.123-0.137,0.109-0.225c-0.014-0.084-0.081-0.109-0.153-0.12
	c-0.054-0.009-0.108-0.015-0.165-0.016c-0.193-0.004-0.386,0.021-0.579,0.049c0.029-0.213,0.045-0.227,0.247-0.227
	c0.149,0,0.3-0.009,0.443-0.067c0.093-0.04,0.154-0.105,0.162-0.211c0.007-0.071-0.022-0.114-0.097-0.116
	c-0.06-0.003-0.118-0.002-0.177,0.002c-0.137,0.011-0.273,0.024-0.425,0.038c0.023-0.05,0.034-0.094,0.059-0.128
	c0.041-0.059-0.006-0.166,0.078-0.195l0,0C16.489,20.914,16.571,20.928,16.647,20.927z"/>
<path fill="#1B1A1B" d="M6.938,20.641c-0.027,0.08-0.067,0.147-0.139,0.189c-0.045,0.026-0.092,0.04-0.142,0.011
	c-0.148-0.09-0.282-0.044-0.412,0.038c-0.102,0.068-0.169,0.162-0.229,0.267c-0.083,0.14-0.137,0.293-0.175,0.449
	c-0.01,0.038-0.011,0.077-0.005,0.115c0.021,0.101,0.055,0.124,0.154,0.099c0.199-0.051,0.388-0.137,0.581-0.206
	c0.059-0.021,0.115-0.046,0.18-0.043c0.065,0.001,0.097,0.026,0.097,0.097c0,0.076-0.029,0.136-0.079,0.19
	c-0.061,0.065-0.132,0.115-0.211,0.157c-0.227,0.123-0.467,0.207-0.716,0.264c-0.148-0.089-0.295-0.18-0.44-0.275
	c-0.022-0.09-0.021-0.185,0-0.28c0.092-0.415,0.281-0.781,0.604-1.063c0.15-0.131,0.324-0.212,0.572-0.223
	c0.088,0,0.207,0.043,0.322,0.107C6.941,20.559,6.954,20.595,6.938,20.641z"/>
<path fill="#1B1A1B" d="M19.895,8.291c0.074-0.022,0.095-0.065,0.1-0.132c0.042-0.566,0.085-1.133,0.13-1.699
	c0.008-0.079-0.008-0.094-0.088-0.069c-0.424,0.135-0.849,0.262-1.272,0.395c-0.132,0.041-0.134,0.041-0.192-0.087
	c-0.215-0.484-0.384-0.987-0.562-1.486c-0.037-0.105-0.037-0.2,0.006-0.296c0.063-0.175,0.024-0.353,0.02-0.53
	c-0.002-0.009-0.005-0.018-0.005-0.027c-0.045-0.487-0.109-0.972-0.238-1.448c-0.11-0.412-0.267-0.81-0.467-1.187
	c-0.213-0.404-0.442-0.804-0.688-1.192c-0.105-0.166-0.219-0.316-0.406-0.4c-0.067-0.029-0.135-0.038-0.206-0.044
	c-0.083-0.009-0.131,0.022-0.185,0.087c-0.092,0.112-0.125,0.271-0.065,0.402c0.178,0.383,0.339,0.777,0.494,1.169
	c0.009,0.018,0.021,0.036,0.036,0.063c-0.036-0.002-0.047-0.02-0.059-0.041c-0.278-0.29-0.605-0.521-0.934-0.752
	c-0.441-0.314-0.925-0.563-1.404-0.814c-0.066-0.034-0.131-0.054-0.2-0.061c-0.119-0.014-0.24-0.025-0.359-0.038
	c-0.188-0.022-0.332,0.085-0.332,0.274c0,0.101-0.043,0.123-0.126,0.13c-0.074,0.005-0.175,0.108-0.184,0.18
	c-0.026,0.229,0.044,0.421,0.213,0.579c0.415,0.388,0.817,0.79,1.219,1.192l0.013,0.006c0.013,0.009,0.021,0.02,0.028,0.036
	c-0.008,0.002-0.015,0.002-0.019,0.002c-0.014-0.002-0.025-0.01-0.034-0.02c-0.001-0.002-0.004-0.004-0.004-0.007
	c-0.059-0.033-0.119-0.064-0.175-0.103c-0.281-0.186-0.557-0.377-0.838-0.559c-0.13-0.085-0.267-0.148-0.43-0.159
	c-0.153-0.012-0.264,0.029-0.366,0.135c-0.069,0.069-0.094,0.141-0.083,0.235c0.016,0.137,0.107,0.222,0.208,0.292
	c0.469,0.317,0.889,0.687,1.277,1.098c0.033,0.036,0.069,0.074,0.107,0.105c0.109,0.089,0.177,0.209,0.244,0.333
	c0.032,0.056,0.021,0.069-0.04,0.069c-0.399,0-0.781,0.11-1.165,0.19c-0.157,0.034-0.312,0.088-0.368,0.263
	c-0.061,0.195-0.09,0.305,0.15,0.365c0.478,0.12,0.939,0.287,1.392,0.483c0.04,0.018,0.075,0.043,0.109,0.072
	c0.113,0.096,0.216,0.205,0.339,0.283c0.354,0.231,0.721,0.446,1.141,0.545c0.049,0.011,0.094,0.036,0.141,0.047
	c0.047,0.014,0.078,0.041,0.087,0.087c0.028,0.167,0.131,0.261,0.287,0.308c0.02,0.007,0.034,0.021,0.054,0.027
	c0.051,0.016,0.073,0.052,0.089,0.101c0.063,0.224,0.129,0.447,0.197,0.669c0.025,0.074,0.003,0.094-0.064,0.114
	c-0.348,0.101-0.694,0.207-1.04,0.313c-0.122,0.038-0.126,0.04-0.063,0.152l0.85,1.528c0.118,0.215,0.123,0.215,0.341,0.103
	c0.022-0.011,0.054-0.049,0.074-0.014c0.02,0.034,0.057,0.083,0.021,0.122c-0.105,0.121-0.177,0.262-0.266,0.393
	c-0.029,0.043-0.029,0.07-0.005,0.11c0.095,0.155,0.188,0.312,0.281,0.469c0.011,0.018,0.03,0.041,0.026,0.054
	c-0.035,0.115-0.076,0.229-0.115,0.344c-0.062-0.249-0.171-0.465-0.295-0.669c-0.17-0.269-0.385-0.507-0.58-0.759
	c-0.03-0.038-0.067-0.072-0.103-0.107c-0.187-0.193-0.427-0.31-0.653-0.446c-0.102-0.061-0.204-0.097-0.319-0.12
	c-0.35-0.074-0.697-0.103-1.045,0.005c-0.072,0.022-0.11,0.004-0.152-0.057c-0.086-0.118-0.155-0.255-0.271-0.348
	c-0.28-0.224-0.576-0.428-0.922-0.545c-0.262-0.09-0.53-0.148-0.808-0.157c-0.144-0.004-0.29,0.004-0.434,0.016
	c-0.37,0.029-0.738,0.069-1.066,0.273C9.81,8.177,9.735,8.199,9.668,8.237C9.331,8.419,8.999,8.598,8.719,8.872
	c-0.29,0.285-0.579,0.57-0.84,0.882c-0.301,0.359-0.527,0.766-0.732,1.185c-0.013,0.029-0.02,0.065-0.064,0.09
	c-0.038-0.238-0.077-0.467-0.113-0.696c-0.006-0.042,0.021-0.04,0.05-0.036c0.083,0.008,0.164,0.013,0.247,0.024
	c0.063,0.009,0.097-0.004,0.112-0.074c0.02-0.096,0.042-0.192,0.063-0.292c0.076-0.37,0.186-0.729,0.283-1.093
	c0.018-0.069,0.007-0.094-0.065-0.112c-0.357-0.085-0.714-0.18-1.07-0.265C6.521,8.47,6.49,8.446,6.51,8.374
	c0.081-0.278,0.117-0.569,0.227-0.841c0.012-0.029,0.023-0.058,0.052-0.081c0.092-0.072,0.16-0.155,0.15-0.283
	c-0.006-0.097,0.039-0.157,0.13-0.2C7.24,6.888,7.403,6.794,7.564,6.7C7.693,6.625,7.798,6.522,7.87,6.388
	c0.301-0.566,0.553-1.16,0.917-1.692C8.817,4.648,8.842,4.597,8.88,4.557c0.236-0.247,0.456-0.51,0.721-0.73
	C9.684,3.757,9.706,3.663,9.708,3.56c0-0.119-0.07-0.202-0.142-0.285c-0.07-0.08-0.141-0.15-0.26-0.137
	C9.279,3.14,9.252,3.129,9.224,3.125C9.242,3.088,9.271,3.08,9.295,3.064c0.317-0.204,0.634-0.41,0.949-0.615
	c0.384-0.247,0.765-0.497,1.151-0.743c0.049-0.032,0.072-0.056,0.018-0.104c-0.013-0.011-0.022-0.027-0.034-0.04
	c-0.078-0.092-0.078-0.092-0.186-0.027c-1.073,0.667-2.146,1.336-3.219,2.002C7.881,3.596,7.881,3.596,7.834,3.49
	C7.729,3.246,7.668,2.987,7.589,2.734C7.572,2.676,7.587,2.642,7.632,2.606c0.27-0.215,0.517-0.458,0.766-0.694
	c0.101-0.096,0.157-0.211,0.175-0.345c0.021-0.159-0.085-0.242-0.229-0.184C8.272,1.412,8.202,1.443,8.137,1.481
	c-0.635,0.35-1.313,0.59-2.009,0.792c-0.041,0.011-0.076,0.025-0.11-0.018C5.949,2.17,5.845,2.124,5.758,2.061
	C5.74,2.047,5.722,2.043,5.7,2.047c-0.094,0.025-0.19,0.051-0.249,0.137C5.303,2.402,5.117,2.595,4.977,2.822
	C4.818,3.084,4.666,3.347,4.485,3.596C4.452,3.643,4.438,3.649,4.407,3.593C4.209,3.246,4.01,2.897,3.812,2.55
	C3.75,2.44,3.682,2.334,3.604,2.233C3.516,2.124,3.409,2.069,3.269,2.085C3.245,2.087,3.213,2.081,3.204,2.119
	c-0.02,0.103-0.067,0.211-0.053,0.31c0.031,0.253,0.076,0.506,0.138,0.753c0.108,0.429,0.229,0.853,0.357,1.275
	C3.77,4.873,3.909,5.282,4.043,5.694C4.055,5.73,4.075,5.762,4.025,5.791C3.962,5.827,3.862,5.845,3.851,5.908
	C3.839,5.973,3.898,6.049,3.925,6.119c0.002,0.004,0.004,0.011,0.006,0.016c0.023,0.054,0.034,0.135,0.074,0.155
	c0.054,0.027,0.104-0.047,0.153-0.076c0.045-0.027,0.061-0.02,0.081,0.027c0.116,0.273,0.235,0.545,0.355,0.819
	C4.611,7.102,4.616,7.144,4.6,7.187C4.517,7.404,4.463,7.631,4.42,7.86C4.409,7.925,4.385,7.925,4.335,7.912
	C4.076,7.845,3.816,7.779,3.556,7.714C3.442,7.685,3.442,7.685,3.429,7.801v0.009C3.373,8.433,3.316,9.054,3.258,9.676
	C3.253,9.732,3.26,9.754,3.321,9.761C3.502,9.784,3.682,9.813,3.862,9.84c0.033,0.004,0.063,0.007,0.054,0.056
	c-0.041,0.21-0.072,0.424-0.117,0.632c-0.014,0.063-0.004,0.105,0.031,0.153c0.063,0.081,0.124,0.164,0.186,0.247
	c0.043,0.058,0.075,0.134,0.036,0.195c-0.024,0.039-0.032,0.072-0.032,0.11c0.007,0.388,0.007,0.776,0.025,1.166
	c0.009,0.188,0.006,0.377,0.011,0.564c0.009,0.501,0.038,0.999,0.056,1.501c0.009,0.244-0.034,0.486-0.022,0.73
	c0.002,0.061,0.016,0.095,0.079,0.114c0.148,0.048,0.292,0.108,0.442,0.155c0.081,0.024,0.137,0.07,0.173,0.146
	c0.032,0.067,0.04,0.135,0.036,0.204c-0.002,0.067,0.022,0.106,0.077,0.146c0.231,0.166,0.46,0.337,0.691,0.506
	c0.608,0.45,1.216,0.901,1.827,1.349c0.056,0.042,0.069,0.075,0.036,0.137c-0.032,0.059-0.052,0.125-0.083,0.184
	c-0.027,0.054-0.022,0.088,0.029,0.126c0.076,0.053,0.15,0.115,0.22,0.175c0.061,0.052,0.063,0.132,0.044,0.195
	c-0.013,0.044-0.08,0.004-0.123,0c-0.029-0.003-0.059-0.009-0.087-0.015c-0.29-0.046-0.577-0.12-0.871-0.146
	c-0.469-0.038-0.938-0.078-1.412-0.064c-0.025,0-0.063-0.022-0.07,0.026c-0.006,0.041-0.016,0.083,0.029,0.11
	c0.023,0.013,0.047,0.024,0.072,0.033c0.264,0.093,0.512,0.225,0.754,0.365c0.157,0.089,0.312,0.19,0.484,0.25
	c0.031,0.012,0.063,0.035,0.101,0.003c-0.26-0.206-0.52-0.415-0.779-0.622c0.036-0.027,0.065-0.017,0.092-0.014
	c0.312,0.025,0.621,0.067,0.924,0.14c0.666,0.159,1.328,0.339,1.984,0.536c0.216,0.065,0.444,0.097,0.637,0.228
	c0.047,0.03,0.074,0.063,0.07,0.121c0.011,0.014,0.024,0.03,0.008,0.043c-0.018,0.011-0.034-0.013-0.046-0.023
	c-0.153-0.014-0.306-0.024-0.457-0.04c-0.433-0.042-0.864-0.104-1.301-0.09c-0.328,0.009-0.656-0.015-0.981,0.009
	c-0.462,0.031-0.925,0.092-1.385,0.141c-0.022,0.004-0.058-0.001-0.058,0.025c0,0.033,0.014,0.071,0.056,0.081
	c0.034,0.007,0.069,0.011,0.105,0.011c0.234,0.009,0.465,0.007,0.698,0.012c0.579,0.014,1.161-0.012,1.74,0.037
	c0.208,0.019,0.419,0.01,0.624,0.048c0.963,0.18,1.921,0.368,2.877,0.577c0.113,0.025,0.227,0.042,0.336,0.097
	c-0.051,0.047-0.118,0.06-0.147,0.127c-0.204,0.475-0.339,0.972-0.496,1.461c-0.027,0.084,0.029,0.18,0.112,0.203
	c0.152,0.042,0.303-0.053,0.33-0.208c0.018-0.101,0.036-0.2,0.049-0.304c0.004-0.033,0.016-0.052,0.049-0.063
	c0.124-0.05,0.245-0.103,0.368-0.151c0.182-0.074,0.353-0.166,0.494-0.303c0.126-0.119,0.231-0.256,0.233-0.44
	c0-0.057,0.014-0.091,0.059-0.125c0.207-0.159,0.39-0.342,0.571-0.527c0.172-0.182,0.365-0.341,0.56-0.499
	c0.023-0.017,0.042-0.044,0.076-0.03c0.169,0.067,0.335,0.132,0.524,0.205c-0.351,0.214-0.683,0.419-1.013,0.618
	c-0.016,0.009-0.034,0.014-0.05,0.018c-0.12,0.036-0.226,0.101-0.315,0.188c-0.351,0.349-0.53,0.762-0.51,1.263
	c0.014,0.336,0.206,0.496,0.534,0.42c0.574-0.135,1.066-0.685,1.151-1.288c0.021-0.168,0.049-0.336-0.071-0.481
	c-0.053-0.063-0.108-0.124-0.167-0.181c0.019-0.011,0.027-0.018,0.036-0.025c0.727-0.434,1.52-0.727,2.313-1
	c0.974-0.335,1.964-0.603,2.959-0.858c-0.022-0.004-0.048-0.011-0.07-0.016c-0.064,0.006-0.128,0.014-0.193,0.018
	c-0.273,0.025-0.547,0.055-0.814,0.126c-0.004,0.004-0.011,0.005-0.015,0.007c-0.025,0.011-0.055,0.013-0.088,0.013
	c-0.015,0-0.027,0-0.045,0.003c0.061-0.059,0.234-0.247,0.282-0.233l0.002-0.005h0.005c0-0.007,0.019-0.02,0.019-0.02
	c0.015-0.027,0.038-0.044,0.069-0.047c0.051-0.072,0.112-0.13,0.184-0.175c0.048-0.029,0.098-0.059,0.151-0.081h-0.004
	c0.151,0,0.299-0.182,0.455-0.244c-0.001-0.006-0.008-0.01-0.012-0.017c-0.225,0.031-0.444,0.067-0.66,0.148
	c-0.46,0.171-0.937,0.304-1.385,0.5c-0.694,0.303-1.385,0.605-2.052,0.968c-0.02,0.011-0.039,0.02-0.072,0.033
	c-0.017-0.161-0.033-0.316-0.051-0.471c-0.004-0.032,0.012-0.045,0.038-0.059c0.591-0.313,1.183-0.622,1.8-0.878
	c0.507-0.211,1.01-0.439,1.52-0.646c0.003-0.004,0.004-0.009,0.009-0.009h0.004c0.004,0,0.004,0.003,0.006,0.003
	c0.006,0.011,0.002,0.018-0.006,0.024c-0.001,0.002-0.004,0.002-0.009,0.005h-0.001c-0.136,0.193-0.26,0.395-0.349,0.616
	c0.035,0.01,0.05-0.002,0.063-0.015c0.105-0.113,0.21-0.223,0.314-0.335c0.199-0.22,0.411-0.429,0.657-0.6
	c0.016-0.011,0.042-0.021,0.031-0.044c-0.014-0.027-0.042-0.015-0.063-0.01c-0.231,0.048-0.463,0.09-0.692,0.145
	c-0.075,0.017-0.071-0.009-0.073-0.063c-0.002-0.185,0.024-0.364,0.031-0.549c0.002-0.079,0.021-0.157,0.055-0.23
	c0.091-0.211,0.185-0.42,0.277-0.631c0.048-0.104,0.074-0.217,0.092-0.33c0.03-0.179,0.052-0.36,0.07-0.543
	c0.029-0.277,0.127-0.541,0.175-0.816c0.061-0.35,0.111-0.701,0.241-1.037c0.115-0.297,0.229-0.592,0.348-0.885
	c0.163-0.4,0.371-0.779,0.472-1.206c0.032-0.148,0.071-0.283,0.004-0.429c-0.039-0.079-0.05-0.168-0.076-0.254
	c-0.021-0.062-0.026-0.127-0.013-0.19c0.046-0.229,0.065-0.457-0.058-0.669c-0.034-0.059,0.008-0.094,0.04-0.13
	c0.083-0.085,0.089-0.123,0.016-0.215c-0.083-0.103-0.163-0.209-0.254-0.305c-0.073-0.078-0.143-0.164-0.218-0.245
	c-0.05-0.031-0.046-0.051,0.013-0.071l0,0C19.635,8.387,19.763,8.332,19.895,8.291z M13.862,21.12
	c-0.036,0.272-0.147,0.554-0.397,0.765l0,0c-0.087,0.075-0.188,0.119-0.303,0.128c-0.137,0.011-0.244-0.076-0.231-0.213
	c0.027-0.302,0.108-0.583,0.31-0.818c0.123-0.143,0.303-0.181,0.482-0.113C13.828,20.91,13.864,20.962,13.862,21.12z M16.477,6.372
	L16.477,6.372c-0.021-0.063-0.05-0.097-0.118-0.081c-0.083,0.02-0.128-0.016-0.164-0.089c-0.059-0.12-0.105-0.263-0.2-0.337
	c-0.099-0.074-0.251-0.077-0.378-0.108c-0.097-0.024-0.193-0.054-0.294-0.069c-0.212-0.036-0.396-0.128-0.571-0.256
	c-0.282-0.208-0.574-0.402-0.872-0.586c-0.098-0.007-0.188-0.034-0.284-0.056c-0.26-0.054-0.518-0.11-0.778-0.159
	c-0.063-0.011-0.074-0.058-0.078-0.101c-0.007-0.051,0.006-0.103,0.06-0.135c0.083-0.049,0.178-0.058,0.272-0.074
	c0.415-0.064,0.834-0.114,1.258-0.121c0.102-0.002,0.194,0.037,0.291,0.061c0.059,0.016,0.104,0.009,0.154-0.027
	c0.201-0.135,0.405-0.263,0.607-0.395c0.033-0.02,0.092-0.034,0.065-0.087c-0.003-0.008-0.008-0.015-0.013-0.021
	c-0.011-0.008-0.024-0.011-0.039-0.011c-0.018,0-0.033,0.003-0.048,0.003H15.34c-0.229-0.007-0.434,0.065-0.626,0.186
	c-0.072,0.047-0.24,0.018-0.288-0.052c-0.319-0.482-0.77-0.831-1.198-1.206c-0.19-0.166-0.377-0.339-0.58-0.491
	c-0.051-0.039-0.074-0.135-0.04-0.185c0.045-0.067,0.103-0.038,0.157-0.014c0.173,0.077,0.339,0.164,0.494,0.274
	c0.527,0.377,1.093,0.695,1.656,1.014c0.016,0.009,0.031,0.018,0.047,0.024c0.085,0.029,0.13-0.009,0.117-0.098
	c-0.008-0.047-0.027-0.088-0.059-0.126C14.564,2.514,14.085,2,13.613,1.477c-0.099-0.107-0.215-0.202-0.325-0.299
	c-0.088-0.074-0.157-0.159-0.207-0.26c-0.031-0.063-0.024-0.124,0.022-0.177c0.038-0.043,0.072-0.052,0.128-0.023
	c0.159,0.077,0.31,0.167,0.451,0.274c0.249,0.188,0.5,0.377,0.752,0.565c0.252,0.189,0.502,0.375,0.754,0.563
	c0.021,0.016,0.041,0.032,0.058,0.047c0.048,0.042,0.09,0.087,0.133,0.132l0.028,0.027c0.018,0.018,0.032,0.043,0.055,0.056
	c0.052,0.032,0.106,0.058,0.16,0.004c0.018-0.018,0.027-0.034,0.028-0.051c0-0.007,0.003-0.014,0-0.021c0-0.002,0-0.007-0.001-0.009
	c-0.009-0.025-0.022-0.048-0.041-0.067l-0.169-0.175c-0.093-0.097-0.188-0.191-0.292-0.278c-0.324-0.272-0.659-0.535-0.996-0.791
	c-0.171-0.13-0.37-0.217-0.557-0.325c-0.067-0.038-0.112-0.095-0.161-0.148c-0.033-0.04-0.043-0.089-0.022-0.141
	c0.021-0.049,0.069-0.047,0.112-0.052c0.067-0.007,0.128,0.018,0.187,0.047c0.433,0.213,0.858,0.442,1.272,0.689
	c0.034,0.02,0.067,0.041,0.102,0.063c0.229,0.148,0.449,0.317,0.668,0.487c0.103,0.081,0.18,0.202,0.265,0.307
	c0.036,0.044,0.012,0.085-0.022,0.117c-0.022,0.022-0.054,0.036-0.081,0.052c-0.028,0.02-0.067,0.038-0.057,0.081
	c0.01,0.038,0.053,0.047,0.087,0.054c0.048,0.009,0.103,0.006,0.148-0.014c0.156-0.065,0.289,0.045,0.39,0.155
	c0.027,0.029,0.038,0.087,0.088,0.069c0.051-0.02,0.059-0.076,0.055-0.127c-0.013-0.141-0.049-0.279-0.08-0.416
	c-0.083-0.352-0.25-0.671-0.39-1.003C16.104,0.772,16.05,0.653,16,0.534c-0.025-0.065,0.011-0.123,0.046-0.17
	c0.028-0.039,0.076-0.005,0.115,0.013c0.141,0.063,0.222,0.178,0.291,0.31c0.074,0.142,0.166,0.271,0.244,0.409
	c0.136,0.238,0.301,0.462,0.408,0.711c0.158,0.364,0.357,0.709,0.451,1.1c0.082,0.346,0.196,0.685,0.236,1.042
	c0.016,0.134-0.009,0.265,0.007,0.395c0.03,0.261-0.007,0.507-0.115,0.745c-0.028,0.065-0.02,0.128,0.011,0.195
	c0.237,0.498,0.433,1.012,0.628,1.529c0.024,0.067,0.013,0.094-0.057,0.114c-0.451,0.133-0.902,0.27-1.354,0.406
	c-0.064,0.02-0.087,0.002-0.106-0.056C16.693,6.976,16.583,6.674,16.477,6.372z M13.646,9.218L13.646,9.218
	c0.183-0.063,0.368-0.087,0.561-0.029c0.004,0.002,0.009,0.002,0.013,0.004c0.243,0.074,0.489,0.132,0.722,0.242
	c0.038,0.018,0.078,0.036,0.105,0.071c0.15,0.108,0.287,0.231,0.4,0.38c0.178,0.229,0.355,0.46,0.521,0.723
	c-0.01-0.004-0.021-0.008-0.03-0.012l-0.002-0.001c-0.062-0.026-0.118-0.059-0.172-0.097c-0.203-0.123-0.414-0.234-0.63-0.332
	c-0.103-0.045-0.203-0.075-0.311-0.095c-0.282-0.054-0.566-0.063-0.852-0.038c-0.078,0.007-0.158,0-0.237,0
	c-0.058,0-0.085-0.027-0.085-0.085c0-0.22,0.012-0.442-0.056-0.656C13.58,9.249,13.606,9.231,13.646,9.218z M13.588,10.836
	L13.588,10.836c0.002-0.007,0.004-0.014,0.007-0.018c0.001-0.004,0.001-0.009,0.004-0.013c0.002-0.004,0.002-0.009,0.005-0.016
	c0.002-0.004,0.002-0.009,0.004-0.013c0.002-0.005,0.002-0.012,0.005-0.016c0-0.004,0.002-0.009,0.002-0.013
	c0-0.004,0.003-0.012,0.003-0.016s0.002-0.009,0.002-0.013c0-0.005,0.002-0.012,0.002-0.016c0-0.005,0.002-0.009,0.002-0.013
	c0-0.004,0.003-0.012,0.003-0.016s0.002-0.009,0.002-0.014c0-0.004,0.002-0.011,0.002-0.015c0-0.005,0-0.009,0.002-0.013
	c0-0.004,0-0.012,0.003-0.016v-0.249c-0.003-0.076,0.024-0.105,0.101-0.104s0.152-0.001,0.228-0.004
	c0.023,0.001,0.047,0.002,0.07,0.003c0.038-0.002,0.076-0.003,0.114-0.004c0.119-0.002,0.238,0.005,0.356,0.022
	c0.204,0.016,0.393,0.054,0.515,0.153c0.087,0.038,0.175,0.085,0.26,0.134c0.207,0.124,0.413,0.251,0.62,0.377
	c0.042,0.027,0.08,0.059,0.109,0.102c0.066,0.096,0.141,0.195,0.21,0.294c0.011,0.015,0.028,0.034,0.013,0.053
	c-0.004,0.006-0.011,0.012-0.018,0.014l0,0c-0.019,0.004-0.032-0.002-0.048-0.011c-0.091-0.052-0.187-0.101-0.279-0.153
	c-0.32-0.18-0.659-0.308-1.013-0.404c-0.031-0.008-0.063-0.017-0.094-0.025c-0.1-0.03-0.193-0.058-0.302-0.071l-0.142-0.032
	c-0.004,0.002,0.005,0.011,0.016,0.022c0.004,0.004,0.008,0.008,0.011,0.014c0.012,0.013,0.022,0.022,0.038,0.031
	c0.003,0,0.015,0.005,0.02,0.009c0.212,0.107,0.571,0.175,0.835,0.296l-0.006-0.002l-0.014-0.007
	c0.004,0.001,0.007,0.003,0.011,0.005l0.003,0.002c0.021,0.008,0.041,0.02,0.059,0.029c0.146,0.076,0.279,0.17,0.411,0.271
	l0.251,0.192c0.377,0.274,0.608,0.646,0.722,1.093c0.002,0.014,0.006,0.028,0.008,0.042l0.009,0.013
	c0.018,0.026,0.022,0.061,0.016,0.089c0.002,0.009,0.002,0.015,0.004,0.021c-0.004,0.065-0.056,0.037-0.084,0.037
	c-0.196-0.007-0.385-0.05-0.569-0.102l-0.007-0.002c-0.048-0.013-0.11-0.036-0.155-0.05c-0.196-0.069-0.383-0.152-0.574-0.222
	c-0.234-0.083-0.419-0.245-0.619-0.385c-0.33-0.234-0.648-0.479-0.936-0.764c-0.029-0.029-0.059-0.062-0.074-0.1
	c-0.021-0.047-0.041-0.095-0.059-0.143l-0.033-0.087c-0.008-0.018-0.014-0.036-0.022-0.056c0-0.002,0-0.002-0.003-0.004
	c-0.002-0.002-0.002-0.007-0.002-0.009v-0.002c0-0.002-0.002-0.006-0.002-0.009C13.578,10.901,13.576,10.868,13.588,10.836z
	 M15.143,11.03c-0.007-0.002-0.013-0.005-0.019-0.008C15.13,11.025,15.136,11.028,15.143,11.03z M14.924,10.946
	c-0.005-0.002-0.012-0.004-0.019-0.007C14.912,10.942,14.919,10.944,14.924,10.946z M14.441,10.762
	c-0.011,0.006-0.026,0.003-0.03,0.017H14.41c-0.004-0.018-0.002-0.024,0.003-0.026C14.423,10.758,14.432,10.76,14.441,10.762
	L14.441,10.762z M13.42,11.269L13.42,11.269c0.007-0.021,0.02-0.033,0.032-0.03c0.001,0.001,0.001,0.001,0.002,0.003
	c0.006,0.002,0.014,0.009,0.02,0.023c0.072,0.144,0.172,0.262,0.281,0.372c0.116,0.113,0.242,0.216,0.363,0.327
	c0.252,0.226,0.507,0.447,0.766,0.666c0.166,0.141,0.367,0.214,0.579,0.271c0.485,0.122,0.98,0.17,1.472,0.236
	c0.131,0.019,0.247,0.062,0.352,0.146h-0.008c0.009,0.007,0.017,0.012,0.021,0.018c-0.275-0.04-0.55-0.035-0.827-0.042
	c-0.303-0.007-0.6,0.029-0.898,0.063c-0.106,0.011-0.21,0-0.313-0.025c-0.287-0.065-0.56-0.182-0.83-0.297
	c-0.308-0.13-0.564-0.33-0.806-0.549c-0.019-0.019-0.036-0.034-0.054-0.052c-0.083-0.08-0.146-0.169-0.19-0.263L13.38,12.13
	c-0.001-0.001-0.002-0.002-0.003-0.004c-0.084-0.197-0.079-0.419-0.015-0.662C13.38,11.399,13.4,11.334,13.42,11.269z M16.02,16.095
	c-0.006,0.045-0.012,0.091-0.045,0.154l-0.007-0.039c-0.002,0.005-0.007,0.013-0.011,0.021c-0.039-0.231-0.063-0.445-0.069-0.66
	c-0.003-0.049,0.03-0.061,0.063-0.071c0.052-0.019,0.115-0.076,0.15-0.05c0.004,0.005,0.008,0.009,0.011,0.014
	c0.002,0.003,0.004,0.003,0.006,0.004c0.042,0.032-0.006,0.104-0.017,0.158l0,0C16.069,15.782,16.046,15.938,16.02,16.095z
	 M15.854,15.204h-0.058c-0.035,0-0.071,0.009-0.107,0.011c-0.04,0-0.065,0.018-0.081,0.054c-0.017,0.035-0.036,0.068-0.054,0.103
	c-0.002,0.005-0.004,0.01-0.006,0.017c-0.072,0.173-0.174,0.32-0.298,0.448c-0.026,0.029-0.055,0.057-0.085,0.084
	c-0.074,0.067-0.153,0.13-0.233,0.19c-0.132,0.094-0.285,0.151-0.438,0.208l-0.033,0.013c-0.011,0.005-0.021,0.009-0.032,0.015
	c-0.006,0.003-0.01,0.004-0.018,0.008c-0.009,0.001-0.021,0.005-0.029,0.009c-0.033,0.013-0.061,0.032-0.042,0.084
	c0.018,0.057,0.059,0.072,0.109,0.074c0.012,0,0.025,0,0.038-0.002c0.048-0.005,0.096-0.016,0.139-0.03
	c0.046-0.018,0.092-0.037,0.138-0.057c0.032-0.016,0.063-0.028,0.097-0.039c-0.026,0.115-0.043,0.221-0.08,0.318
	c-0.005,0.02-0.013,0.033-0.02,0.05c-0.025,0.06-0.054,0.12-0.082,0.18c-0.019,0.039-0.038,0.078-0.059,0.116
	c-0.107,0.216-0.229,0.422-0.38,0.614c-0.029,0.038-0.062,0.076-0.097,0.111c-0.071,0.076-0.149,0.146-0.235,0.207
	c-0.031,0.022-0.063,0.045-0.097,0.067c-0.063,0.039-0.129,0.077-0.194,0.113c-0.055,0.029-0.105,0.055-0.16,0.08l-0.06,0.025
	c-0.017,0.008-0.034,0.014-0.05,0.021c-0.014,0.005-0.027,0.013-0.041,0.017c-0.037,0.016-0.076,0.029-0.114,0.042
	c-0.011,0.005-0.022,0.009-0.036,0.012c-0.039,0.014-0.08,0.025-0.12,0.037c-0.126,0.037-0.253,0.07-0.382,0.097
	c-0.05,0.012-0.101,0.021-0.153,0.029c-0.007,0-0.011,0.003-0.018,0.003c-0.051,0.009-0.101,0.015-0.152,0.023
	c-0.054,0.008-0.107,0.017-0.164,0.023c-0.184,0.022-0.365,0.011-0.545-0.016c-0.006,0-0.013-0.002-0.02-0.005
	c-0.009-0.003-0.018-0.004-0.027-0.007c-0.047-0.014-0.092-0.032-0.135-0.056c-0.059-0.031-0.112-0.065-0.17-0.095
	c-0.042-0.021-0.082-0.043-0.121-0.067c-0.052-0.03-0.104-0.063-0.15-0.099c-0.092-0.067-0.173-0.146-0.218-0.261
	c-0.025-0.062-0.053-0.123-0.085-0.182c-0.009-0.017-0.02-0.033-0.029-0.049c-0.074-0.121-0.164-0.236-0.258-0.343
	c-0.039-0.046-0.077-0.091-0.117-0.134c-0.021-0.021-0.038-0.044-0.058-0.065c-0.079-0.088-0.16-0.174-0.243-0.257l-0.063-0.063
	c-0.084-0.083-0.175-0.161-0.269-0.231c-0.022-0.017-0.047-0.035-0.072-0.051c-0.073-0.053-0.149-0.101-0.227-0.146
	c-0.019-0.01-0.038-0.021-0.056-0.032c-0.018-0.014-0.038-0.026-0.056-0.037c-0.256-0.17-0.462-0.396-0.579-0.693
	c-0.002-0.006-0.006-0.013-0.01-0.02c-0.04-0.087-0.1-0.114-0.206-0.116c-0.083,0-0.164-0.013-0.235-0.044l0,0l-0.002-0.003
	C8.17,15.491,8.13,15.464,8.092,15.43l-0.024-0.015c-0.021-0.024-0.036-0.055-0.055-0.084c-0.134-0.198-0.258-0.401-0.36-0.615
	l0.002,0.008L7.65,14.711l0.003,0.005c-0.021-0.063-0.044-0.123-0.069-0.183c-0.011-0.028-0.023-0.055-0.033-0.081
	c-0.011-0.035-0.017-0.067-0.017-0.098c0-0.015,0-0.032,0.002-0.045c0.002-0.011,0.005-0.022,0.007-0.031
	c0.002-0.004,0.002-0.008,0.004-0.013c0.002-0.009,0.006-0.02,0.011-0.028c0.024-0.045,0.065-0.089,0.119-0.131
	c0.021-0.017,0.041-0.032,0.063-0.048c0.042-0.03,0.087-0.058,0.13-0.087c0.067-0.04,0.135-0.078,0.204-0.115
	c0.253-0.129,0.523-0.223,0.801-0.295c0.016-0.004,0.032-0.006,0.05-0.011c0.031-0.006,0.064-0.009,0.098-0.013
	c0.033-0.002,0.066-0.004,0.099-0.004c0.034,0,0.068-0.003,0.1-0.003c0.015,0,0.033,0,0.049-0.002
	c0.112-0.004,0.225-0.011,0.337-0.018c0.168-0.013,0.336-0.025,0.505-0.041s0.336-0.033,0.505-0.052
	c0.306-0.036,0.6-0.107,0.88-0.224c0.059-0.025,0.117-0.053,0.173-0.079c0.033-0.018,0.069-0.033,0.103-0.052
	c0.02-0.011,0.038-0.02,0.058-0.031c0.135-0.07,0.27-0.143,0.399-0.218c0.014-0.018,0.029-0.024,0.052-0.031
	c0.002,0,0.006-0.002,0.009-0.002v0.011c-0.003,0.013-0.009,0.022-0.018,0.03c-0.007,0.004-0.014,0.01-0.021,0.014
	c-0.13,0.167-0.31,0.282-0.465,0.42c-0.015,0.013-0.031,0.027-0.047,0.042c-0.049,0.041-0.098,0.083-0.154,0.129
	c0.195,0,0.384-0.023,0.559-0.075c0.254-0.074,0.485-0.206,0.683-0.408c0.046-0.048,0.09-0.099,0.13-0.152
	c0.096-0.128,0.184-0.278,0.26-0.452c0.061,0.218,0.218,0.372,0.35,0.537c0.01,0.013,0.019,0.026,0.027,0.037
	s0.019,0.024,0.027,0.035c0.016,0.021,0.033,0.041,0.056,0.057c0.014,0.011,0.029,0.022,0.043,0.032
	c0.016,0.012,0.029,0.02,0.043,0.031c0.006,0.004,0.013,0.011,0.02,0.015c0.099,0.078,0.198,0.154,0.299,0.228
	c0.066,0.05,0.134,0.097,0.205,0.144c0.103,0.072,0.205,0.142,0.307,0.213c0.14,0.096,0.285,0.178,0.437,0.25
	c0.038,0.018,0.077,0.034,0.115,0.052c0.116,0.049,0.235,0.092,0.354,0.129l0.021,0.009c0.074,0.02,0.155,0.025,0.233,0.034
	c0.029,0.003,0.058,0.007,0.085,0.009c0.017,0.002,0.037,0.011,0.057,0.024c0.02,0.01,0.043,0.028,0.063,0.045
	c0.069,0.063,0.135,0.152,0.14,0.207c0,0.009,0,0.016-0.003,0.022c-0.002,0.005-0.002,0.008-0.004,0.01
	c-0.009,0.016-0.021,0.028-0.032,0.044c-0.026,0.048-0.055,0.095-0.079,0.145c-0.004,0.008-0.006,0.015-0.011,0.023
	c-0.028,0.075-0.04,0.153,0.003,0.246c0.108-0.108,0.204-0.224,0.274-0.353c0.02-0.037,0.035-0.073,0.051-0.11
	c0.011-0.025,0.021-0.052,0.029-0.079c0.009-0.024,0.002-0.053,0.009-0.079c0.009-0.025-0.021-0.064-0.009-0.082
	c0-0.002,0.002-0.002,0.005-0.005c0.004-0.003,0.009-0.005,0.013-0.006c0.009-0.003,0.019-0.005,0.025-0.005
	c0.017-0.002,0.033-0.004,0.051-0.004c0.046,0,0.088,0.006,0.13,0.02c0.027,0.009,0.019,0.043,0.017,0.067v0.004
	c-0.004,0.082-0.038,0.154-0.067,0.228c-0.007,0.016-0.014,0.033-0.021,0.052c-0.05,0.12-0.103,0.244-0.181,0.349
	C16.19,15.061,16.062,15.196,15.854,15.204z M12.781,18.955L12.781,18.955c-0.084,0.015-0.17,0.021-0.256,0.021
	c-0.087,0-0.173-0.009-0.26-0.029c-0.047-0.012-0.065-0.043-0.061-0.081c0.002-0.024,0.021-0.024,0.038-0.024
	c0.012-0.003,0.025,0,0.037,0.002h0.167c0.025,0.002,0.05,0.002,0.077,0.002c0.075,0,0.149-0.008,0.222-0.021
	c0.014-0.003,0.027-0.005,0.038-0.003c0.029-0.002,0.052,0.004,0.054,0.05C12.836,18.912,12.846,18.947,12.781,18.955z
	 M8.597,16.943L8.597,16.943c0.045-0.184,0.027-0.375,0.052-0.562c0.004-0.037,0.024-0.033,0.047-0.014
	c0.035,0.035,0.069,0.069,0.105,0.103l0,0l0.014,0.015c0.018,0.016,0.02,0.035,0.011,0.056c-0.069,0.141-0.139,0.279-0.209,0.421
	c-0.007-0.004-0.016-0.005-0.022-0.008C8.595,16.949,8.597,16.947,8.597,16.943z M15.822,13.831L15.822,13.831
	c-0.079-0.009-0.157-0.023-0.239-0.021c-0.158,0.004-0.286-0.078-0.421-0.149h0.015c-0.011-0.007-0.021-0.012-0.032-0.018
	c0.021,0.002,0.048,0.002,0.069,0.004c0.026,0.002,0.051,0.009,0.078,0.014c0.222,0.045,0.438-0.018,0.658-0.042
	c0.226-0.023,0.422,0.057,0.612,0.168c-0.005,0-0.006,0-0.011,0.002c0.009,0.004,0.018,0.011,0.028,0.015
	C16.326,13.841,16.074,13.859,15.822,13.831z M7.417,10.964c0.074-0.142,0.157-0.276,0.244-0.406c0.045-0.065,0.09-0.13,0.137-0.193
	c0.022-0.032,0.047-0.063,0.071-0.094c0.072-0.094,0.146-0.186,0.223-0.276c0.076-0.089,0.153-0.179,0.231-0.269
	c0.079-0.09,0.158-0.178,0.233-0.268c0.032-0.034,0.07-0.063,0.107-0.092l0.024-0.027c0.074-0.064,0.138-0.129,0.223-0.197
	l0.012-0.009c0.02-0.019,0.04-0.039,0.063-0.059C9.21,8.861,9.471,8.695,9.731,8.528c0.026-0.017,0.053-0.032,0.08-0.047
	c0.035-0.016,0.07-0.031,0.104-0.045c0.008-0.004,0.018-0.008,0.026-0.011c0.053-0.022,0.107-0.042,0.162-0.061
	c0.036-0.012,0.074-0.023,0.11-0.034c0.13-0.039,0.26-0.07,0.388-0.11c0.239-0.076,0.485-0.11,0.732-0.107
	c0.036,0,0.069,0.002,0.105,0.002c0.184,0.009,0.364,0.081,0.532,0.155c0.074,0.034,0.148,0.065,0.222,0.101l0.054,0.027
	c0.054,0.027,0.11,0.054,0.162,0.085c0.036,0.02,0.069,0.04,0.105,0.061c0.034,0.022,0.07,0.042,0.102,0.067
	c0.067,0.047,0.132,0.099,0.193,0.155c0.204,0.188,0.348,0.41,0.434,0.673c0.061,0.188,0.105,0.381,0.121,0.577
	c0.016,0.189-0.04,0.373-0.09,0.554c-0.007,0.027-0.018,0.034-0.027,0.032c-0.014-0.004-0.02-0.02-0.031-0.034
	c-0.067-0.078-0.135-0.155-0.202-0.233c-0.263-0.306-0.577-0.527-0.974-0.64c-0.307-0.085-0.617-0.134-0.929-0.143
	c-0.249-0.007-0.503,0.038-0.752,0.085c-0.197,0.038-0.396,0.07-0.59,0.105C9.639,9.766,9.522,9.824,9.406,9.875
	C9.35,9.9,9.293,9.925,9.236,9.946L9.219,9.95c-0.353,0.123-0.65,0.335-0.958,0.533c-0.083,0.056-0.153,0.13-0.227,0.203
	l-0.009,0.008l-0.061,0.061c-0.141,0.138-0.28,0.276-0.434,0.402c-0.069,0.097-0.163,0.164-0.25,0.249
	C7.302,11.247,7.345,11.099,7.417,10.964z M7.354,11.863L7.354,11.863c0.011-0.017,0.022-0.034,0.038-0.05
	c0.312-0.307,0.61-0.632,0.956-0.901c0.575-0.449,1.201-0.799,1.921-0.954c0.175-0.038,0.353-0.065,0.534-0.065
	c0.207-0.002,0.413-0.009,0.618-0.015c0.395-0.014,0.758,0.098,1.09,0.303c0.123,0.075,0.236,0.165,0.339,0.265l0.013,0.013
	c0.116,0.115,0.216,0.245,0.3,0.384c0.074,0.121,0.054,0.254,0.029,0.386c-0.067,0.378-0.296,0.659-0.554,0.923
	c-0.247,0.25-0.557,0.414-0.844,0.605c-0.406,0.271-0.871,0.376-1.345,0.446c-0.59,0.089-1.189,0.099-1.782,0.177
	c-0.215,0.025-0.433,0.043-0.649,0.082c-0.255,0.048-0.476,0.172-0.635,0.384c-0.059,0.078-0.094,0.175-0.15,0.283
	c-0.004-0.011-0.007-0.021-0.009-0.035c-0.031-0.127-0.011-0.232,0.034-0.334c0.104-0.229,0.276-0.39,0.499-0.504
	c0.388-0.204,0.821-0.246,1.237-0.35c0.336-0.086,0.682-0.134,1.017-0.228c0.46-0.127,0.909-0.291,1.333-0.513
	c0.225-0.117,0.458-0.236,0.613-0.454c0.112-0.159,0.141-0.332,0.112-0.521c-0.004-0.031-0.014-0.047-0.024-0.049
	c-0.012-0.002-0.027,0.006-0.047,0.025c-0.168,0.15-0.343,0.293-0.535,0.419c-0.298,0.193-0.628,0.31-0.969,0.393
	c-0.543,0.135-1.09,0.25-1.649,0.29c-0.395,0.027-0.783,0.099-1.158,0.227c-0.318,0.108-0.642,0.219-0.897,0.457
	c-0.031,0.03-0.069,0.054-0.121,0.092c0.002-0.014,0.004-0.025,0.006-0.037c-0.008,0.008-0.016,0.012-0.024,0.019l0-0.005
	c0.008-0.006,0.014-0.012,0.022-0.016c0.016-0.074,0.045-0.132,0.079-0.187C6.95,12.501,7.152,12.183,7.354,11.863z M9.593,12.454
	l0.49-0.08l0.085-0.017c-0.101,0.054-0.211,0.08-0.321,0.101c-0.523,0.13-1.058,0.207-1.587,0.306
	c-0.381,0.072-0.722,0.222-1.032,0.454C7.21,13.232,7.19,13.248,7.17,13.26c-0.025,0.016-0.036,0.011-0.041-0.009
	c-0.002-0.004-0.002-0.012-0.002-0.019c-0.009-0.134,0.031-0.199,0.155-0.255c0.168-0.076,0.337-0.158,0.505-0.237
	c0.22-0.101,0.455-0.131,0.694-0.156C8.851,12.543,9.221,12.497,9.593,12.454z M7.659,3.679C7.668,3.704,7.67,3.724,7.644,3.739
	c-0.081,0.049-0.16,0.099-0.24,0.148C7.397,3.892,7.388,3.894,7.36,3.906C7.354,3.894,7.345,3.874,7.332,3.858l-0.505-0.58
	c-0.022-0.026-0.044-0.051,0-0.076c0.167-0.094,0.292-0.247,0.467-0.327c0.045-0.02,0.061-0.022,0.083,0.026
	C7.489,3.154,7.564,3.42,7.659,3.679z M6.29,2.499L6.29,2.499c0.238-0.086,0.471-0.183,0.707-0.276
	c0.341-0.135,0.65-0.328,0.972-0.498c0.034-0.019,0.065-0.041,0.099-0.059C8.097,1.652,8.122,1.612,8.16,1.632
	c0.044,0.025,0.029,0.072,0.029,0.126C8.2,1.814,8.164,1.861,8.112,1.908C7.79,2.208,7.453,2.494,7.107,2.77
	C6.97,2.88,6.802,2.931,6.649,3.015c-0.031,0.015-0.049,0-0.067-0.023c-0.112-0.144-0.222-0.29-0.334-0.433
	C6.205,2.507,6.263,2.509,6.29,2.499z M4.255,5.568c-0.256-0.792-0.526-1.58-0.739-2.386C3.467,2.996,3.447,2.802,3.41,2.61
	C3.399,2.555,3.438,2.525,3.473,2.505c0.05-0.025,0.052,0.034,0.07,0.056c0.352,0.487,0.592,1.037,0.879,1.56
	c0.085,0.158,0.182,0.31,0.273,0.465c0.018,0.029,0.031,0.054,0.077,0.038c0.049-0.018,0.041-0.049,0.031-0.085
	c-0.036-0.162-0.119-0.307-0.18-0.46c-0.022-0.054-0.022-0.097,0.003-0.15c0.127-0.265,0.307-0.496,0.448-0.75
	c0.13-0.231,0.296-0.438,0.422-0.671c0.065-0.119,0.214-0.14,0.312-0.044c0.067,0.063,0.122,0.134,0.169,0.213
	C6.14,2.938,6.364,3.149,6.582,3.365c0.153,0.152,0.308,0.3,0.469,0.44c0.054,0.047,0.063,0.119,0.092,0.179
	c0.012,0.022,0.002,0.041-0.018,0.051C7.114,4.042,7.103,4.047,7.096,4.054C6.963,4.166,6.837,4.15,6.683,4.072
	C6.375,3.917,6.11,3.713,5.875,3.468C5.866,3.459,5.857,3.453,5.848,3.446C5.74,3.365,5.736,3.369,5.688,3.493
	C5.64,3.618,5.608,3.749,5.552,3.87C5.531,3.912,5.563,3.957,5.594,3.988C5.63,4.024,5.655,4.081,5.72,4.072
	C5.749,4.067,5.765,4.051,5.771,4.02C5.787,3.946,5.807,3.872,5.828,3.78c0.245,0.206,0.516,0.365,0.786,0.545
	c-0.095,0.054-0.178,0.101-0.26,0.148c-0.667,0.375-1.336,0.75-2,1.127C4.299,5.629,4.277,5.636,4.255,5.568z M4.488,6.089
	C4.463,6.038,4.472,6.015,4.519,5.986C5.326,5.487,6.13,4.987,6.934,4.484c0.043-0.027,0.083-0.011,0.124-0.02
	C7.199,4.432,7.336,4.39,7.459,4.312C7.468,4.305,7.484,4.3,7.489,4.292c0.089-0.2,0.289-0.268,0.458-0.346
	C8.33,3.771,8.719,3.609,9.058,3.354c0.079-0.061,0.161-0.039,0.22,0.006c0.054,0.043,0.097,0.117,0.074,0.205
	c-0.026,0.105-0.067,0.195-0.15,0.271c-0.323,0.3-0.586,0.648-0.823,1.021C8.164,5.194,7.954,5.528,7.794,5.894
	C7.762,5.968,7.71,6.026,7.657,6.087C7.433,6.343,7.166,6.54,6.857,6.684c-0.067,0.032-0.096,0.079-0.1,0.148
	C6.752,6.888,6.734,6.942,6.73,6.998C6.721,7.142,6.674,7.265,6.552,7.355C6.514,7.384,6.51,7.432,6.497,7.472L6.241,8.327
	c0,0.007,0,0.013-0.002,0.018c0,0.014,0.002,0.029-0.016,0.036C6.184,8.39,6.15,8.378,6.117,8.36C5.7,8.264,5.287,8.159,4.874,8.048
	C4.822,8.037,4.773,8.021,4.719,8.015c-0.083-0.011-0.09-0.049-0.052-0.112C4.721,7.64,4.784,7.38,4.946,7.157
	c0.036-0.049,0.033-0.089,0.002-0.143C4.771,6.717,4.636,6.399,4.488,6.089z M3.62,9.512L3.62,9.512
	C3.608,9.51,3.597,9.508,3.586,9.505C3.545,9.494,3.532,9.469,3.539,9.413c0.049-0.445,0.097-0.889,0.143-1.335
	c0.002-0.011,0.002-0.02,0.004-0.029C3.689,8.044,3.691,8.04,3.691,8.035c0.007-0.013,0.02-0.018,0.036-0.018
	c0.009,0,0.022,0.002,0.036,0.006c0.604,0.16,1.206,0.319,1.81,0.479c0.603,0.159,1.207,0.316,1.811,0.476
	c0.058,0.016,0.076,0.034,0.056,0.095l-0.26,0.853C7.17,9.958,7.163,9.994,7.125,9.994c-0.004,0-0.011,0-0.018-0.002
	C6.784,9.947,6.46,9.905,6.138,9.859c-0.211-0.029-0.42-0.058-0.631-0.087C4.88,9.683,4.25,9.597,3.62,9.512z M4.115,10.374
	L4.115,10.374c-0.011-0.034-0.009-0.061,0-0.081c0.004-0.013,0.01-0.026,0.016-0.038c0.002,0.004,0.002,0.009,0.004,0.013
	C4.14,10.297,4.129,10.329,4.115,10.374z M9.659,18.752L9.659,18.752v-0.003c-0.022,0.003-0.024,0.017-0.036,0.022
	c-0.004,0.005-0.011,0.009-0.018,0.015c-0.012,0.009-0.023,0.017-0.036,0.023c-0.029,0.021-0.058,0.045-0.072,0.082
	c0,0.005,0,0.004-0.002,0.009c-0.002,0.004,0,0.013-0.002,0.013H9.5v0.013c-0.022,0.066-0.034,0.113-0.045,0.147
	c-0.002,0.008-0.007,0.016-0.009,0.022c-0.002,0.007-0.007,0.011-0.009,0.015c-0.002,0.005-0.005,0.008-0.009,0.013
	c-0.007,0.005-0.014,0.009-0.023,0.011H9.398c-0.014,0-0.027-0.006-0.047-0.011c-0.031-0.013-0.072-0.028-0.127-0.046
	c-0.005-0.002-0.009-0.002-0.011-0.004c-0.003-0.004-0.007-0.005-0.012-0.005c-0.009-0.004-0.015-0.008-0.024-0.012H9.167v-0.009
	H9.165c-0.067-0.021-0.13-0.036-0.191-0.06c-0.036-0.015-0.074-0.025-0.112-0.041c-0.046-0.012-0.094-0.034-0.141-0.034
	c-0.13-0.046-0.262-0.067-0.388-0.113c-0.011,0-0.018,0.004-0.041,0v0.004c-0.089-0.019-0.161-0.042-0.246-0.057
	c-0.083-0.015-0.115-0.057-0.106-0.139c0.005-0.034,0.002-0.074,0.002-0.108c0-0.011-0.002-0.015-0.002-0.037
	c-0.013-0.023-0.034-0.05-0.052-0.079c-0.006-0.008-0.009-0.016-0.014-0.024c-0.011-0.012-0.033-0.023-0.033-0.036
	c-0.022-0.005-0.013-0.01-0.021-0.014c-0.069-0.064-0.049-0.152-0.04-0.236c0-0.009,0.002-0.017,0.002-0.026
	c0.003-0.019,0.005-0.036,0.007-0.053c0.002-0.009,0.002-0.018,0.004-0.023c0.036-0.14,0.044-0.271-0.105-0.354
	c-0.018-0.012-0.029-0.022-0.052-0.038v0.005c-0.068-0.055-0.142-0.11-0.211-0.155C7.415,17.405,7.413,17.4,7.39,17.392
	c-0.112-0.061-0.202-0.131-0.29-0.213c-0.022-0.015-0.047-0.025-0.069-0.038H7.04C7.026,17.118,7.011,17.12,7,17.109
	c-0.018-0.015-0.034-0.023-0.056-0.036c-0.112-0.097-0.265-0.187-0.387-0.297c-0.042-0.013-0.069-0.046-0.103-0.074v-0.005
	c-0.119-0.082-0.236-0.164-0.353-0.253h0.003c-0.014,0-0.014-0.011-0.036-0.021C6,16.388,5.933,16.331,5.875,16.287
	c-0.019-0.022-0.036-0.022-0.054-0.022C5.767,16.22,5.72,16.2,5.675,16.16c-0.019-0.012-0.034-0.025-0.057-0.038
	c-0.134-0.084-0.26-0.162-0.37-0.271l-0.011-0.011c-0.007-0.007-0.013-0.016-0.021-0.021c-0.01-0.014-0.018-0.026-0.024-0.042
	c-0.005-0.011-0.009-0.021-0.011-0.037v0.02c-0.081-0.087-0.135-0.188-0.202-0.281l-0.006-0.013
	c-0.002-0.004-0.004-0.009-0.004-0.014c-0.002-0.009-0.002-0.018-0.002-0.024c0.002-0.019,0.011-0.034,0.022-0.049
	c0-0.005,0.002-0.012,0.002-0.019c0.022-0.144,0.101-0.273,0.157-0.408v-0.035c0,0,0-0.02-0.002-0.027
	c-0.002-0.007-0.002-0.009-0.004-0.014l-0.004-0.004c-0.005-0.005-0.01-0.008-0.016-0.009H5.114c-0.013,0-0.031,0.005-0.054,0.02
	c-0.019,0.011-0.036,0.023-0.052,0.04c-0.006,0.004-0.011,0.009-0.018,0.013c-0.004,0.005-0.009,0.013-0.014,0.019
	c-0.002,0.002-0.004,0.007-0.006,0.009c0,0.002-0.002,0-0.002,0c0,0.002-0.002,0-0.002,0v0.002
	c-0.045,0.053-0.113,0.096-0.171,0.144c-0.011,0.011-0.031,0.026-0.031,0.037v-0.002H4.757c-0.018,0.021-0.042,0.021-0.067,0.011
	c-0.096-0.044-0.193-0.083-0.29-0.128c-0.022-0.011-0.034-0.037-0.038-0.059c-0.003-0.01-0.005-0.02-0.006-0.028
	c-0.003-0.01-0.005-0.017-0.007-0.026v0.004c-0.034-0.156,0.02-0.272,0.049-0.408c0.002-0.011,0.005-0.021,0.005-0.032
	c0.022-0.131,0.031-0.27,0.07-0.396v-0.059l0,0c-0.02-0.144-0.021-0.284-0.032-0.429c0-0.025,0.002-0.049,0.002-0.073
	c-0.014-0.268-0.032-0.535-0.041-0.801c-0.021-0.56-0.065-1.116-0.05-1.675c0.003-0.09-0.015-0.166-0.044-0.241
	c-0.007-0.018-0.016-0.036-0.025-0.054c-0.027-0.051-0.058-0.101-0.092-0.152c-0.049-0.07-0.067-0.137-0.045-0.222
	c0.034-0.13,0.059-0.265,0.083-0.397c0.011-0.063,0.029-0.097,0.101-0.072C4.358,9.916,4.39,9.913,4.418,9.916
	c0.12,0.026,0.243,0.029,0.362,0.059c0.011,0,0.015,0.002,0.032,0.009c0.105,0.004,0.226,0.02,0.339,0.045
	c0.011,0,0.025,0.002,0.036,0.009c0.135,0.018,0.27,0.034,0.404,0.056c0.031,0,0.058-0.002,0.087,0.016c0.004,0,0.011-0.002,0.011,0
	c0.157,0.018,0.281,0.029,0.416,0.051H6.09v0.004c0.089,0.012,0.148,0.022,0.218,0.034c0.071,0.011,0.145,0.029,0.215,0.029h0.002
	c0.006,0,0.011,0.002,0.016,0.002c0.004,0.002,0.02,0.004,0.02,0.004c0.045,0.002,0.063,0.027,0.07,0.065
	c0.036,0.213,0.064,0.427,0.109,0.64c0,0.016,0.009,0.029,0.007,0.042c0.006,0.036,0.011,0.07,0.018,0.104
	c0.021,0.104,0.038,0.207,0.059,0.31c0,0.009,0,0.029,0.002,0.034v0.009c0.022,0.135,0.047,0.256,0.069,0.384v0.042
	c-0.042,0.044-0.083,0.098-0.121,0.15c-0.063,0.088-0.117,0.183-0.159,0.28c-0.029,0.069-0.065,0.141-0.094,0.212l-0.004,0.001
	c-0.023,0.073-0.059,0.142-0.092,0.209c-0.002,0-0.004,0.004-0.007,0.009c-0.004,0.009-0.006,0.023-0.011,0.029v0.003
	c-0.038,0.099-0.08,0.196-0.127,0.294c-0.016,0.03-0.034,0.063-0.052,0.093c-0.007,0.018-0.023,0.036-0.023,0.053
	c-0.022,0.085-0.042,0.169-0.085,0.248c-0.014,0.074-0.034,0.144-0.069,0.211c-0.027,0.134-0.072,0.247-0.122,0.368
	c-0.006,0.018-0.018,0.034-0.018,0.052c0,0.003-0.002,0.004-0.002,0.007C5.907,14.09,5.904,14.101,5.9,14.109
	c-0.002,0.009-0.005,0.021-0.009,0.029c0,0.003-0.002,0.008-0.002,0.009c-0.011,0.231-0.024,0.462-0.036,0.694l0.02,0.006
	c0.029-0.059,0.058-0.114,0.087-0.173c0.029-0.055,0.052-0.113,0.083-0.172c0.018-0.042,0.047-0.081,0.047-0.122
	c0.067-0.112,0.128-0.224,0.198-0.327c0.007-0.012,0.021-0.019,0.027-0.04c0.058-0.09,0.125-0.21,0.195-0.313
	c0.025-0.039,0.051-0.075,0.073-0.114H6.582c0.016-0.045,0.041-0.052,0.061-0.071c0.021-0.021,0.031-0.041,0.077-0.062
	c0,0.018,0.004,0.034,0.002,0.051c0,0.001-0.002,0.005-0.002,0.008c0,0.009-0.005,0.018-0.007,0.026c0,0.003-0.002,0.008-0.002,0.01
	c-0.002,0.007-0.002,0.011-0.004,0.018c-0.002,0.007-0.002,0.012-0.002,0.019c0,0.008-0.005,0.011-0.002,0.019
	c0,0.004-0.002,0.009-0.004,0.013h0.004c-0.021,0.135-0.021,0.287-0.023,0.429c0,0.006-0.004,0.018-0.004,0.022l0.004-0.003
	c0.018,0.135,0.041,0.271,0.058,0.405H6.734c0.002,0,0.005,0.028,0.005,0.039c0.022,0.135,0.051,0.271,0.067,0.408
	c0,0.006,0.002,0.013,0.002,0.017c0.002,0.009,0.004,0.016,0.004,0.025c0.023,0.106,0.104,0.18,0.153,0.275
	c0.036,0.053,0.074,0.112,0.107,0.156h0.002v0.003c0.112,0.099,0.207,0.199,0.332,0.289c0.018,0,0.036,0.023,0.054,0.023H7.459
	v0.011c0.045,0.004,0.083,0.041,0.131,0.026c0.008-0.003,0.018-0.007,0.024-0.011c0.006-0.005,0.016-0.009,0.018-0.016
	c0.012-0.02-0.008-0.03-0.024-0.038c-0.185-0.117-0.155-0.308-0.177-0.487h0.006v-0.003c0.045,0.044,0.077,0.086,0.115,0.131
	c0.007,0.01,0.013,0.019,0.022,0.025c0.016,0.018,0.031,0.033,0.047,0.052c0.031,0.033,0.065,0.064,0.101,0.094
	c0.036,0.029,0.074,0.062,0.117,0.083c0.018,0.007,0.036,0.021,0.052,0.021H7.886c0.135,0.065,0.251,0.129,0.375,0.193
	c0.027,0.005,0.052,0.014,0.074,0.035c0.045,0.135,0.099,0.269,0.085,0.426c0.004,0,0.009,0.016,0.011,0.027
	c0.002,0.011,0,0.02-0.002,0.029c0.016,0.129,0.016,0.263-0.002,0.392c0.004,0.012,0.004,0.025-0.002,0.036
	c-0.002,0.006,0,0.007-0.002,0.011h0.002c0,0.131-0.002,0.261-0.036,0.389c-0.002,0.128-0.043,0.252-0.057,0.379
	c0,0.005-0.002,0.009-0.004,0.017c-0.006,0.025-0.018,0.055,0.036,0.047v-0.002c0.121-0.126,0.242-0.25,0.355-0.391v0.009
	c0.002-0.044,0.029-0.067,0.053-0.09c0.047-0.045,0.094-0.122,0.141-0.186c0.047-0.066,0.095-0.13,0.142-0.193
	c0-0.005,0.002-0.008,0.002-0.012c0.007-0.022,0.016-0.036,0.027-0.043c0.004-0.002,0.009-0.004,0.014-0.004h0.014
	c0.013,0.002,0.029,0.008,0.046,0.018c0.025,0.014,0.05,0.029,0.072,0.045c0.135,0.074,0.288,0.123,0.388,0.252
	c0.011,0.011,0.025,0.014,0.036,0.035c0.047,0.023,0.09,0.075,0.124,0.125c0.011,0.011,0.024,0.021,0.036,0.032
	c0.002,0.002,0.004,0.002,0.006,0.006c0.177,0.149,0.191,0.229,0.063,0.431c-0.004,0.006-0.011,0.014-0.016,0.014
	c-0.005,0.017-0.013,0.034-0.022,0.051c-0.004,0.012-0.011,0.022-0.018,0.033c-0.002,0.005-0.007,0.013-0.009,0.017
	c-0.034,0.055-0.07,0.109-0.083,0.173C9.724,17.945,9.715,18,9.724,18.051c0.025,0.087,0.047,0.178,0.065,0.268
	c0.011,0.054,0.022,0.108,0.026,0.164C9.834,18.614,9.771,18.695,9.659,18.752z M10.256,19.845L10.256,19.845
	c-0.029,0.036-0.034,0.11-0.081,0.104h-0.004c-0.004,0-0.009,0.002-0.014,0c-0.085-0.012-0.175-0.031-0.25-0.08
	c-0.026-0.019-0.02-0.053-0.02-0.084v-0.425c0-0.029,0.011-0.063-0.018-0.082c-0.099-0.063-0.074-0.171-0.099-0.26
	c-0.009-0.037,0.016-0.055,0.036-0.076c0.087-0.098,0.172-0.194,0.26-0.291c0.059-0.063,0.083-0.133,0.041-0.209
	c-0.081-0.151-0.067-0.297-0.002-0.452c0.052-0.122,0.085-0.25,0.132-0.394c0.004,0.004,0.009,0.012,0.014,0.017l0,0
	c0.087,0.109,0.175,0.204,0.233,0.313c0.142,0.271,0.351,0.47,0.62,0.612c0.126,0.067,0.239,0.16,0.387,0.18h0.002
	c0.006,0,0.011-0.002,0.017-0.002c0.016,0,0.038-0.003,0.033,0.022c-0.002,0.013-0.016,0.013-0.029,0.011h-0.006
	c-0.004,0-0.009,0-0.014-0.002c-0.156,0.005-0.309,0.03-0.461,0.062c-0.08,0.019-0.159,0.037-0.237,0.055
	c-0.072,0.018-0.144,0.033-0.215,0.048c-0.004,0.001-0.008,0.002-0.013,0.003c-0.001,0-0.001,0.001-0.002,0.002
	c-0.031,0.006-0.044,0.022-0.04,0.054c0.004,0.038,0.018,0.058,0.063,0.067c0.08,0.014,0.164,0.017,0.244,0.015h0.012
	c0.11-0.003,0.22-0.013,0.33-0.03c0.122-0.021,0.245-0.03,0.368-0.029c0.119,0,0.238,0.009,0.359,0.026
	c-0.402,0.066-0.734,0.292-1.098,0.444c-0.189,0.079-0.334,0.229-0.514,0.325C10.276,19.804,10.27,19.829,10.256,19.845z
	 M11.418,20.142L11.418,20.142c0,0.001-0.002,0.001-0.002,0.004c-0.002,0.001-0.004,0.001-0.007,0.001
	c-0.002,0-0.007-0.001-0.009-0.001c-0.004-0.003-0.008-0.007-0.011-0.012c-0.263-0.065-0.527-0.13-0.806-0.2
	c0.092-0.073,0.16-0.116,0.271-0.073c0.184,0.071,0.355,0.173,0.532,0.256c0.009,0,0.021,0.003,0.027,0.009
	c0.004,0.002,0.004,0.005,0.004,0.011V20.142L11.418,20.142z M12.211,21.001c-0.043,0.071-0.108,0.123-0.173,0.174
	c-0.13,0.098-0.271,0.171-0.451,0.226c0.064-0.202,0.118-0.389,0.229-0.549c0.072-0.103,0.245-0.13,0.353-0.068
	C12.24,20.822,12.26,20.919,12.211,21.001z M13.256,19.807L13.256,19.807c-0.206,0.165-0.41,0.335-0.603,0.517
	c-0.047,0.045-0.083,0.046-0.137,0.013c-0.33-0.194-0.673-0.359-1.025-0.51c-0.155-0.064-0.319-0.091-0.479-0.147
	c0.018-0.033,0.052-0.033,0.079-0.043c0.343-0.127,0.693-0.242,1.03-0.393c0.087-0.04,0.175-0.007,0.261,0.005
	c0.127,0.017,0.251,0.021,0.368-0.043c0.02-0.011,0.042-0.021,0.067-0.009c0.261,0.106,0.521,0.216,0.79,0.325
	C13.491,19.618,13.375,19.713,13.256,19.807z M14.863,18.665L14.863,18.665c-0.107,0.141-0.125,0.298-0.07,0.46
	c0.062,0.192,0.017,0.324-0.172,0.419c-0.044,0.023-0.076,0.036-0.113,0.034c-0.026,0.002-0.051-0.006-0.082-0.027
	c-0.35-0.242-0.768-0.324-1.16-0.462c-0.057-0.021-0.11-0.041-0.169-0.054c-0.066-0.016-0.063-0.061-0.054-0.109
	c0.007-0.033,0.024-0.038,0.043-0.034c0.018-0.005,0.043,0.009,0.058,0.013c0.449,0.113,0.903,0.202,1.336,0.37
	c0.016,0.007,0.028,0.009,0.041,0.012c0.031-0.005,0.04-0.034,0.035-0.076c-0.009-0.102-0.018-0.2-0.135-0.255
	c-0.289-0.134-0.597-0.193-0.911-0.217c-0.046-0.004-0.092-0.008-0.139-0.01c0.222-0.135,0.466-0.205,0.667-0.378
	c0.024-0.021,0.047-0.041,0.068-0.063l0.373-0.451c0.016-0.024,0.028-0.049,0.046-0.074c0.003,0.002,0.007,0.005,0.011,0.007
	l0.007-0.007c0.034,0.021,0.037,0.047,0.047,0.069c0.094,0.231,0.187,0.465,0.281,0.696C14.893,18.579,14.896,18.623,14.863,18.665z
	 M19.665,9.13L19.665,9.13c0.006,0.006,0.011,0.014,0.013,0.022c0.002,0.007,0.002,0.014-0.002,0.021
	c-0.004,0.005-0.009,0.01-0.014,0.013c-0.004,0.007-0.006,0.009-0.008,0.013l-0.003,0.002c-0.003,0.003-0.003,0.005-0.006,0.009
	c0,0.002-0.001,0.004-0.001,0.004h0.001v0.007c-0.135,0.137-0.098,0.265,0.011,0.388c0.006,0.011,0.013,0.022,0.013,0.034
	c0.089,0.119,0.016,0.238,0,0.356c-0.002,0.012-0.004,0.016-0.013,0.021c-0.002,0-0.005,0.002-0.008,0.002
	c-0.009,0-0.019-0.002-0.027-0.005c-0.002,0-0.007-0.002-0.009-0.002c-0.078-0.022-0.156-0.047-0.235-0.072
	c-0.007,0-0.012-0.004-0.019-0.006c-0.007,0-0.011-0.007-0.018-0.007c-0.035,0-0.076-0.002-0.11-0.018
	c-0.101-0.042-0.193-0.029-0.273,0.047c0,0.006-0.002,0.013-0.005,0.018c0.039,0.056,0.103,0.069,0.157,0.087
	c0.229,0.074,0.425,0.215,0.636,0.326c0.05,0.027,0.059,0.085,0.055,0.141c-0.004,0.032-0.013,0.063-0.02,0.097l-0.067,0.29
	c0,0.025-0.002,0.049-0.018,0.072c0.002,0.157-0.108,0.274-0.159,0.408c-0.006,0.012-0.011,0.016-0.017,0.039
	c-0.037,0.094-0.076,0.187-0.122,0.278c0,0.007-0.009,0.016-0.012,0.021v-0.004c0,0.003-0.001,0.003-0.001,0.004
	c0,0.003-0.004,0.005-0.005,0.01c-0.003,0.002-0.003,0.004-0.005,0.006c-0.013,0.042-0.019,0.088-0.054,0.124
	c-0.037,0.145-0.106,0.275-0.176,0.404c-0.007,0.012-0.011,0.012-0.016,0.034c-0.059,0.135-0.119,0.295-0.178,0.445
	c-0.013,0.052-0.023,0.106-0.037,0.159l-0.006,0.013c0,0.002-0.003,0.002-0.003,0.004c0,0.004-0.005,0.009-0.009,0.013
	c-0.001,0.07-0.005,0.124-0.032,0.181c-0.011,0.036-0.021,0.076-0.03,0.112c0,0.005-0.004,0.011-0.004,0.018
	c-0.065,0.285-0.126,0.57-0.189,0.853c-0.052,0.233-0.073,0.472-0.11,0.705c-0.036,0.22-0.045,0.446-0.1,0.663
	c-0.038,0.156-0.128,0.302-0.198,0.448c-0.067,0.137-0.111,0.282-0.193,0.416l-0.007,0.013c-0.004,0.009-0.009,0.019-0.013,0.028
	c-0.002,0.005-0.002,0.011-0.005,0.018c0,0.009-0.004,0.02-0.006,0.03s-0.002,0.021-0.002,0.032c0,0.014,0,0.024-0.003,0.035v0.032
	c0,0.024,0,0.046-0.002,0.067c-0.018,0.241-0.049,0.481-0.037,0.723c0.001,0.046-0.012,0.07-0.054,0.087l-0.055,0.021
	c-0.036,0.013-0.071,0.028-0.105,0.045c-0.018,0.006-0.038,0.015-0.057,0.021c-0.029,0.011-0.047,0.021-0.091,0.031v-0.004
	c0,0-0.008,0.004-0.012,0.004c-0.042,0.018-0.083,0.037-0.124,0.052c-0.028,0.012-0.057,0.024-0.087,0.036
	c-0.061,0.043-0.128,0.067-0.198,0.085l-0.032,0.021c-0.143,0.063-0.29,0.128-0.426,0.19c0,0.002-0.013,0.006-0.018,0.006
	c-0.075,0.023-0.154,0.067-0.231,0.104c-0.082,0.035-0.163,0.068-0.246,0.105c-0.13,0.059-0.261,0.112-0.391,0.171
	c-0.005,0.002-0.011,0-0.016,0c-0.119,0.044-0.242,0.11-0.354,0.161c-0.046,0.025-0.111,0.049-0.168,0.072
	c-0.102,0.04-0.124,0.035-0.147-0.069c-0.067-0.05-0.074-0.133-0.098-0.203c-0.026-0.067-0.046-0.141-0.068-0.208
	c-0.004-0.023-0.016-0.02-0.016-0.032c-0.022-0.032-0.022-0.062-0.033-0.092c0-0.004-0.004-0.012-0.004-0.016
	c-0.005-0.005-0.005-0.011-0.008-0.018c-0.002-0.005-0.005-0.012-0.006-0.017h0.004c-0.032-0.093-0.065-0.186-0.088-0.28
	c-0.022-0.062-0.063-0.124-0.074-0.188c-0.005-0.021-0.005-0.043,0-0.065c0.003-0.011,0.004-0.021,0.007-0.03
	c0.002-0.006,0.002-0.012,0.005-0.017c0.019-0.044,0.047-0.088,0.069-0.13c0.016-0.036,0.029-0.072,0.045-0.107
	c0.016-0.036,0.029-0.063,0.045-0.106c0.036-0.068,0.059-0.147,0.104-0.227c0-0.018,0.014-0.035,0.019-0.054
	c0.039-0.136,0.085-0.276,0.139-0.408c0-0.005-0.004-0.012-0.002-0.016c0.016-0.08,0.091-0.109,0.137-0.156v0.002
	c0.021-0.007,0.033-0.02,0.045-0.02c0.013-0.023,0.027-0.032,0.04-0.046c0.023-0.029,0.047-0.061,0.069-0.092
	c0.012-0.017,0.022-0.032,0.031-0.047c0.044-0.063,0.082-0.128,0.129-0.191c0.015-0.02,0.029-0.052,0.053-0.052
	c0.005,0,0.007,0,0.011,0.002c0.037,0.011,0.025,0.052,0.021,0.078c-0.021,0.104-0.015,0.205,0,0.307
	c0.013,0.078,0.025,0.156,0.032,0.235c0,0.012-0.003,0.025-0.003,0.036c0.022,0.059,0.033,0.117,0.034,0.178
	c0.019,0.076,0.033,0.15,0.058,0.226c0.067,0.14,0.115,0.282,0.16,0.424l0.005-0.002c0.076,0.112,0.152,0.242,0.229,0.367
	c0.022,0.028,0.047,0.06,0.069,0.082h0.004v0.019c0.023,0,0.035,0.049,0.068,0.005c-0.008-0.023-0.012-0.023-0.019-0.023
	c-0.012-0.023-0.021-0.049-0.029-0.073c-0.004-0.017-0.011-0.034-0.013-0.047c-0.005-0.017-0.009-0.031-0.012-0.048
	c-0.002-0.007-0.002-0.016-0.005-0.022c-0.001-0.016-0.004-0.03-0.009-0.045c-0.004-0.022-0.006-0.045-0.011-0.069
	c-0.005-0.022-0.007-0.048-0.011-0.07c-0.008-0.007-0.008-0.016-0.008-0.024c-0.001-0.01-0.004-0.019-0.009-0.027
	c-0.002-0.026-0.006-0.053-0.012-0.08l-0.02-0.162c-0.002-0.025-0.011-0.054-0.013-0.08c-0.032-0.294-0.011-0.589,0.033-0.88h0.014
	c0.026-0.135,0.053-0.291,0.081-0.437c0.007,0,0.013,0.002,0.021,0.002c-0.009,0.246,0.017,0.488,0.069,0.726
	c0.003,0.005,0.003,0.011,0.003,0.016c0.033,0.093,0.069,0.185,0.1,0.279c0.007,0.021,0.013,0.04,0.02,0.059
	c0.007,0.018,0.015,0.038,0.026,0.053c0.008,0.011,0.017,0.023,0.025,0.035c0.007,0.01,0.02,0.021,0.02,0.033
	c0.022,0.018,0.035,0.038,0.053,0.056c0.013,0.017,0.023,0.033,0.036,0.05c0.048,0.045,0.099,0.087,0.156,0.146
	c-0.006-0.043-0.012-0.087-0.017-0.13c-0.003-0.04-0.01-0.082-0.015-0.126c0,0-0.012-0.007-0.012-0.011
	c0-0.034-0.004-0.067-0.009-0.102c-0.013-0.103-0.024-0.207-0.038-0.308c0-0.01,0-0.015,0.001-0.023
	c0-0.011,0.004-0.026,0.004-0.026c-0.019-0.135-0.021-0.258-0.019-0.389c0-0.004-0.002-0.011-0.002-0.015
	c-0.005-0.009-0.006-0.022-0.007-0.031c-0.018-0.106-0.009-0.211,0.004-0.314c0.005-0.031,0.003-0.065,0.005-0.097
	c0-0.007-0.002-0.011-0.002-0.018c0-0.148,0.007-0.299,0.052-0.442c0-0.005,0.002-0.015,0.002-0.015
	c0.011-0.068,0.022-0.15,0.034-0.223c0.011-0.075,0.021-0.151,0.031-0.225c0.004-0.032,0.013-0.048,0.031-0.048
	c0.009,0,0.021,0.004,0.038,0.016c0.016,0.009,0.031,0.021,0.047,0.029c0.022,0.014,0.047,0.029,0.07,0.044
	c0.022,0.018,0.044,0.032,0.064,0.052c0.003,0.003,0.004,0.006,0.009,0.007c0.005,0.004,0.016,0.012,0.016,0.012h0.005v-0.002
	c0.157,0.078,0.245,0.212,0.35,0.333c0.021,0.015,0.034,0.028,0.05,0.046c0.024,0.026,0.04,0.061,0.054,0.098
	c0.068,0.091,0.122,0.191,0.157,0.3c0.002,0.009,0.007,0.02,0.009,0.029c0.002,0.009,0.007,0.004,0.009,0.027
	c0.019,0.021,0.03,0.051,0.041,0.078s0.02,0.054,0.03,0.078c0.008,0.014,0.012,0.025,0.019,0.038c0.005,0.01,0.01,0.017,0.017,0.022
	c0.009,0.012,0.02,0.018,0.037,0.022c0.025-0.083-0.033-0.161-0.012-0.239h0.007c0-0.023-0.007-0.023-0.007-0.033
	c-0.021-0.147-0.039-0.29-0.101-0.425c-0.001-0.011-0.001-0.036-0.001-0.036c-0.055-0.135-0.082-0.272-0.16-0.39
	c-0.019-0.015-0.029-0.037-0.033-0.059c-0.025-0.023-0.038-0.05-0.052-0.076c-0.012-0.02-0.022-0.037-0.036-0.059v0.015
	c0-0.002-0.005-0.004-0.005-0.006v-0.003c-0.061-0.091-0.135-0.178-0.205-0.26l-0.01-0.009c-0.01-0.01-0.019-0.01-0.027-0.032
	c-0.054-0.022-0.106-0.09-0.159-0.138c-0.007-0.007-0.015-0.009-0.019-0.015c-0.004-0.005,0-0.009-0.021-0.016
	c-0.112-0.076-0.195-0.172-0.295-0.239c-0.019-0.021-0.04-0.009-0.049-0.043c0.289-0.02,0.57,0.015,0.861,0.032v-0.011h0.002
	c0.145,0.021,0.279,0.05,0.41,0.106c0.004,0,0.009,0.007,0.015,0.007v0.004c0.09,0.02,0.174,0.061,0.261,0.102
	c0.018,0.009,0.039,0.038,0.06,0.01c0.017-0.022-0.008-0.042-0.021-0.059c-0.033-0.048-0.066-0.096-0.101-0.144
	c-0.007-0.011-0.019-0.021-0.019-0.033c-0.068-0.064-0.118-0.139-0.177-0.204c-0.018-0.019-0.039-0.038-0.057-0.061
	c-0.067-0.046-0.137-0.097-0.195-0.158c-0.012-0.008-0.022-0.022-0.034-0.022c-0.028,0-0.06-0.03-0.089-0.05
	c-0.029-0.021-0.061-0.039-0.09-0.059c-0.012-0.006-0.022-0.011-0.033-0.018c-0.137-0.052-0.275-0.1-0.41-0.152
	c-0.006,0-0.016-0.002-0.016-0.004c0,0-0.011,0-0.015-0.002c-0.028-0.002-0.053-0.011-0.067-0.026
	c-0.011-0.009-0.02-0.021-0.024-0.035c-0.003-0.002-0.003-0.007-0.005-0.011c-0.007-0.019-0.009-0.038-0.007-0.059
	c0.004-0.068,0-0.139-0.011-0.206c-0.002-0.02-0.007-0.038-0.011-0.059c-0.005-0.017-0.01-0.037-0.015-0.055
	c-0.004-0.019-0.009-0.038-0.014-0.058c-0.006-0.028-0.015-0.057-0.021-0.084c0,0-0.009-0.002-0.009-0.009
	c-0.023-0.137-0.076-0.274-0.117-0.407c-0.007-0.019-0.009-0.033-0.016-0.055c-0.036-0.067-0.051-0.105-0.053-0.157
	c0-0.019,0-0.034,0.002-0.052c0-0.009,0.002-0.017,0.002-0.025c0.004-0.024,0.009-0.051,0.018-0.076
	c0.009-0.034,0.021-0.067,0.031-0.101c0-0.004,0-0.016,0.002-0.016h-0.002c0.029-0.16,0.093-0.293,0.137-0.437
	c0-0.002,0.005-0.002,0.005-0.004l0.008-0.009c0.004-0.002,0.006-0.002,0.006-0.004c0.042-0.059,0.054-0.117,0.049-0.173
	c-0.003-0.033-0.012-0.066-0.024-0.096c-0.016-0.041-0.035-0.079-0.056-0.119c-0.002-0.004-0.009-0.009-0.015-0.011
	c-0.002-0.003-0.004-0.005-0.004-0.007c-0.087-0.092-0.144-0.213-0.195-0.332c-0.005-0.012-0.011-0.025-0.016-0.037
	c-0.004-0.004-0.004-0.008-0.007-0.016c0-0.002-0.002-0.004-0.002-0.006c-0.002-0.005-0.004-0.01-0.006-0.016l0.002,0.002
	c0-0.002,0-0.002-0.002-0.004c0.002-0.014,0.006-0.027,0.011-0.041c0.004-0.009,0.009-0.015,0.013-0.024
	c0.004-0.007,0.011-0.014,0.019-0.021c0.001-0.002,0.007-0.005,0.009-0.007c0.061-0.087,0.117-0.179,0.185-0.265
	c0.056-0.074,0.074-0.144,0.047-0.235c-0.038-0.128-0.034-0.13,0.093-0.178c0.024-0.009,0.296-0.112,0.405-0.146
	c0.018-0.007,0.063-0.025,0.068-0.027c0.008-0.002,0.012-0.004,0.019-0.006c0.019-0.007,0.036-0.014,0.053-0.02
	c0.141-0.054,0.281-0.106,0.424-0.158c0.005-0.002,0.012-0.002,0.016-0.002c0.133-0.067,0.273-0.11,0.413-0.157
	c0.017-0.007,0.033-0.014,0.056-0.018c0.022-0.018,0.09-0.034,0.111-0.052c0.113-0.036,0.203-0.087,0.304-0.11
	c0.148-0.112,0.27-0.065,0.372,0.074c0.013,0.009,0.025,0.018,0.039,0.029c0.02,0.019,0.028,0.039,0.05,0.061
	C19.467,8.924,19.567,9.027,19.665,9.13z M16.509,9.253L16.509,9.253c-0.012,0.004-0.024,0.007-0.036,0.009
	c-0.033,0.004-0.051-0.011-0.074-0.052c-0.205-0.368-0.411-0.734-0.62-1.1c-0.026-0.047-0.035-0.072,0.032-0.09
	c1.326-0.389,2.65-0.777,3.977-1.165c0.015-0.004,0.029-0.006,0.056-0.014v0.005c0.002,0,0.002,0,0.003,0
	c-0.021,0.24-0.04,0.465-0.059,0.691l-0.04,0.5C19.743,8.1,19.725,8.138,19.66,8.161C18.609,8.522,17.558,8.886,16.509,9.253z"/>
<path fill="#1B1A1B" d="M8.454,20.388c-0.063-0.024-0.132-0.029-0.162,0.054c-0.018,0.048-0.049,0.041-0.085,0.037
	c-0.24-0.037-0.451,0.035-0.622,0.204c-0.354,0.345-0.536,0.76-0.516,1.265c0.014,0.335,0.207,0.497,0.532,0.422
	c0.644-0.15,1.145-0.781,1.172-1.479C8.779,20.711,8.615,20.451,8.454,20.388z M8.364,21.117c-0.034,0.273-0.146,0.555-0.395,0.766
	c-0.087,0.073-0.188,0.119-0.303,0.13c-0.141,0.011-0.249-0.076-0.235-0.217c0.026-0.295,0.107-0.572,0.303-0.805
	c0.125-0.15,0.314-0.19,0.495-0.119C8.333,20.914,8.368,20.965,8.364,21.117L8.364,21.117z"/>
<path fill="#1B1A1B" d="M10.86,21.95L10.86,21.95c-0.032-0.028-0.052-0.063-0.059-0.105c-0.025-0.121-0.004-0.24,0.016-0.359
	c0.036-0.229,0.108-0.453,0.097-0.688c-0.004-0.093-0.018-0.178-0.112-0.223c-0.101-0.05-0.175,0.005-0.245,0.066
	c-0.135,0.124-0.252,0.266-0.366,0.408c-0.115,0.141-0.229,0.284-0.343,0.426c-0.019,0.022-0.039,0.064-0.075,0.046
	c-0.029-0.013-0.018-0.052-0.013-0.08c0.009-0.104,0.022-0.204,0.034-0.308c0.013-0.135,0.032-0.27,0.009-0.403
	c-0.029-0.162-0.146-0.207-0.275-0.105c-0.032,0.024-0.061,0.055-0.088,0.084c-0.105,0.119-0.193,0.252-0.278,0.387
	c-0.211,0.326-0.404,0.664-0.658,0.961c-0.047,0.056-0.096,0.109-0.139,0.171c-0.045,0.066-0.063,0.144-0.021,0.215
	c0.039,0.063,0.104,0.085,0.175,0.081c0.076-0.005,0.117-0.06,0.157-0.114c0.195-0.265,0.39-0.532,0.586-0.797
	c0.011-0.014,0.015-0.042,0.049-0.032c-0.004,0.035-0.008,0.068-0.011,0.104c-0.009,0.128-0.036,0.257-0.009,0.386
	c0.031,0.148,0.148,0.209,0.285,0.143c0.071-0.037,0.132-0.089,0.191-0.143c0.111-0.104,0.214-0.219,0.31-0.338
	c0.106-0.136,0.213-0.271,0.325-0.418c0.034,0.111,0.02,0.214,0.016,0.314c-0.011,0.175-0.045,0.35-0.011,0.527
	c0.023,0.109,0.086,0.175,0.175,0.183c0.092,0.005,0.182-0.015,0.26-0.066C10.958,22.196,10.97,22.049,10.86,21.95z"/>
<path fill="#1B1A1B" d="M9.979,14.294L9.979,14.294c0.373,0.032,0.741,0.106,1.111,0.157c0.049,0.008,0.099,0.01,0.146,0.034
	c0.112,0.059,0.167,0.162,0.21,0.271c0.065,0.169,0.086,0.348,0.097,0.527c0.009,0.142-0.02,0.261-0.135,0.354
	c-0.085,0.069-0.155,0.149-0.186,0.261c0.143,0,0.267,0.024,0.362,0.146c0.058,0.076,0.134,0.138,0.208,0.203
	c0.172,0.154,0.426,0.119,0.547-0.076c0.054-0.088,0.106-0.177,0.164-0.263c0.081-0.119,0.16-0.245,0.303-0.299
	c0.087-0.029,0.049-0.071,0.02-0.107c-0.059-0.074-0.166-0.076-0.262-0.018c-0.149,0.089-0.249,0.222-0.357,0.35
	c-0.031,0.038-0.063,0.076-0.105,0.107c-0.054,0.038-0.101,0.041-0.148-0.008c-0.054-0.054-0.107-0.11-0.166-0.158
	c-0.05-0.039-0.058-0.076-0.029-0.135c0.063-0.12,0.089-0.251,0.076-0.385c-0.027-0.293-0.074-0.579-0.28-0.811
	c-0.022-0.025-0.022-0.038,0.008-0.06c0.229-0.161,0.351-0.381,0.382-0.656c0.007-0.069-0.006-0.126-0.063-0.146
	s-0.092,0.037-0.117,0.082c-0.056,0.096-0.127,0.184-0.193,0.274c-0.102,0.137-0.243,0.166-0.391,0.144
	c-0.534-0.083-1.068-0.138-1.606-0.169c-0.027-0.002-0.054-0.01-0.076,0.01c-0.171,0.125-0.343,0.245-0.451,0.437
	c0.006,0.002,0.014,0.007,0.018,0.007c0.018-0.002,0.034-0.007,0.052-0.009C9.396,14.292,9.686,14.271,9.979,14.294z"/>
<path fill="#1B1A1B" d="M13.126,16.316L13.126,16.316c-0.018-0.03-0.04-0.038-0.071-0.02c-0.177,0.098-0.377,0.102-0.572,0.128
	c-0.083,0.011-0.187-0.013-0.247,0.046c-0.148,0.146-0.274,0.087-0.404-0.018c-0.006-0.004-0.013-0.011-0.022-0.013
	c-0.193-0.104-0.386-0.142-0.583-0.005c-0.074,0.053-0.162,0.083-0.25,0.063c-0.069-0.018-0.124-0.014-0.177,0.034
	c-0.027,0.026-0.063,0.046-0.094,0.066c-0.087,0.059-0.087,0.067-0.007,0.132c0.018,0.016,0.041,0.022,0.063,0.029
	c0.187,0.058,0.361,0.016,0.525-0.074c0.17-0.091,0.33-0.087,0.484,0.029c0.142,0.106,0.292,0.107,0.449,0.044
	c0.197-0.084,0.397-0.164,0.61-0.2c0.031-0.004,0.063-0.017,0.092,0.009c0.089,0.082,0.174,0.023,0.26-0.009
	c0.033-0.014,0.038-0.041,0.035-0.074C13.212,16.412,13.157,16.373,13.126,16.316z"/>
<path fill="#1B1A1B" d="M18.378,20.897c-0.014,0.045-0.035,0.087-0.064,0.123c-0.121,0.15-0.274,0.252-0.465,0.33
	c0.021-0.146,0.047-0.276,0.104-0.397c0.058-0.126,0.153-0.209,0.294-0.222C18.356,20.722,18.409,20.792,18.378,20.897z
	 M18.466,21.557c-0.083-0.112-0.088-0.112,0.024-0.188c0.236-0.162,0.318-0.392,0.301-0.665c-0.014-0.204-0.123-0.322-0.316-0.355
	c-0.159-0.025-0.287,0.042-0.406,0.136c-0.026,0.021-0.043,0.045-0.088,0.016c-0.098-0.067-0.192-0.049-0.275,0.036
	c-0.048,0.05-0.082,0.107-0.098,0.175c-0.117,0.472-0.234,0.94-0.348,1.414c-0.036,0.157,0.046,0.237,0.209,0.213
	c0.148-0.022,0.223-0.107,0.247-0.298c0.024-0.185,0.05-0.366,0.104-0.558c0.139,0.175,0.272,0.339,0.403,0.503
	c0.041,0.05,0.082,0.097,0.126,0.142c0.132-0.084,0.263-0.17,0.391-0.258C18.638,21.775,18.549,21.669,18.466,21.557z"/>
<path fill="#1B1A1B" d="M14.97,14.503L14.97,14.503c-0.133,0.064-0.262,0.134-0.39,0.209c-0.033,0.021-0.063,0.038-0.104,0.045
	c-0.223,0.04-0.447,0.069-0.677,0.069c-0.132,0-0.239-0.057-0.343-0.122c-0.063-0.039-0.125-0.098-0.137-0.188
	c0.033-0.01,0.065,0.003,0.097,0.008c0.119,0.016,0.235,0.059,0.356,0.051c0.292-0.018,0.566-0.104,0.84-0.199
	c0.089-0.031,0.177-0.065,0.265-0.097c0.039-0.013,0.052-0.026,0.016-0.064c-0.044-0.048-0.089-0.038-0.137-0.03
	c-0.586,0.089-1.167,0.063-1.748-0.044c-0.168-0.031-0.348-0.043-0.414-0.252c-0.018-0.057-0.036-0.111-0.047-0.169
	c-0.011-0.065-0.049-0.113-0.088-0.161c-0.022-0.028-0.051-0.041-0.085-0.035c-0.036,0.009-0.034,0.048-0.034,0.074
	c0.002,0.094,0.007,0.189,0.018,0.282c0.012,0.104,0.045,0.204,0.105,0.287c0.117,0.165,0.279,0.265,0.477,0.313
	c0.146,0.034,0.146,0.036,0.159,0.187c0.007,0.064,0.016,0.123,0.076,0.159c0.105,0.063,0.211,0.128,0.339,0.137
	c0.079,0.007,0.159,0.011,0.227,0.063c0.087,0.067,0.192,0.083,0.298,0.092c0.079,0.008,0.16,0.009,0.238,0.023
	c0.063,0.011,0.105-0.009,0.15-0.048c0.224-0.185,0.443-0.37,0.651-0.576C15.055,14.487,15.019,14.479,14.97,14.503z"/>
<path fill="#1B1A1B" d="M12.312,16.902L12.312,16.902c-0.223,0.007-0.449,0.043-0.658,0.114c-0.173,0.059-0.366,0.099-0.456,0.298
	c-0.052,0.117-0.045,0.241-0.081,0.358c0.016,0.091,0.016,0.184,0.069,0.262c0.016,0.021,0.023,0.059,0.061,0.056
	c0.04-0.001,0.054-0.035,0.064-0.063c0.041-0.086,0.05-0.181,0.077-0.271c0.042-0.146,0.11-0.263,0.262-0.328
	c0.16-0.067,0.322-0.13,0.483-0.193c0.032-0.011,0.063-0.017,0.095-0.011c0.199,0.029,0.408,0.021,0.585,0.137
	c0.016,0.012,0.036,0.016,0.059,0.012c0.067-0.016,0.074-0.038,0.034-0.092C12.76,16.979,12.547,16.896,12.312,16.902z"/>
<path fill="#1B1A1B" d="M10.75,14.864L10.75,14.864c0.135-0.013,0.27-0.031,0.402-0.049c0.036-0.005,0.092,0.009,0.101-0.034
	c0.009-0.044-0.042-0.071-0.074-0.101c-0.016-0.016-0.043-0.019-0.066-0.025c-0.135-0.049-0.271-0.038-0.408-0.013
	c-0.276,0.051-0.554,0.067-0.831,0c-0.074-0.019-0.152-0.019-0.243-0.029c-0.103,0.023-0.219,0.049-0.33,0.099
	c-0.076,0.036-0.081,0.079-0.014,0.13c0.041,0.032,0.081,0.048,0.13,0.03c0.173-0.063,0.321-0.03,0.463,0.089
	c0.141,0.119,0.307,0.144,0.489,0.081c0.099-0.033,0.184-0.09,0.274-0.14C10.677,14.885,10.711,14.868,10.75,14.864z"/>
<path fill="#1B1A1B" d="M8.348,15.115L8.348,15.115c0.006-0.126-0.018-0.232-0.119-0.298c-0.075-0.048-0.104-0.113-0.13-0.188
	c-0.036-0.098-0.045-0.209-0.125-0.287c-0.023-0.023-0.039-0.071-0.079-0.057c-0.047,0.019-0.091,0.046-0.105,0.108
	c-0.045,0.209,0.051,0.409,0.26,0.516c0.095,0.05,0.167,0.119,0.211,0.215c0.016,0.034,0.019,0.1,0.068,0.089
	C8.377,15.201,8.337,15.142,8.348,15.115z"/>
<path fill="#2F2F2E" d="M4.133,10.268c0-0.004-0.002-0.009-0.004-0.013c-0.004,0.011-0.012,0.024-0.016,0.038
	c-0.006,0.022-0.008,0.046,0,0.08C4.129,10.329,4.14,10.297,4.133,10.268"/>
</svg>
