<?xml version="1.0" encoding="utf-8"?>
<!-- Generator: Adobe Illustrator 12.0.1, SVG Export Plug-In  -->
<!DOCTYPE svg PUBLIC "-//W3C//DTD SVG 1.1//EN" "http://www.w3.org/Graphics/SVG/1.1/DTD/svg11.dtd" [
	<!ENTITY ns_flows "http://ns.adobe.com/Flows/1.0/">
	<!ENTITY ns_svg "http://www.w3.org/2000/svg">
	<!ENTITY ns_xlink "http://www.w3.org/1999/xlink">
]>
<svg  version="1.1" xmlns="&ns_svg;" xmlns:xlink="&ns_xlink;" xmlns:a="http://ns.adobe.com/AdobeSVGViewerExtensions/3.0/"
	 width="29" height="34" viewBox="-0.215 -0.755 29 34" enable-background="new -0.215 -0.755 29 34" xml:space="preserve">
<defs>
</defs>
<path fill="#F8F8F9" d="M27.02,29.376c0,1.59-1.292,2.88-2.886,2.88H4.294c-1.594,0-2.886-1.29-2.886-2.88V2.88
	C1.408,1.29,2.7,0,4.294,0h12.351c0.575,0,1.126,0.228,1.532,0.634l8.211,8.212c0.404,0.404,0.632,0.953,0.632,1.525V29.376z"/>
<path fill="#E3E0E3" d="M6.241,32.256H4.293c-1.594,0-2.886-1.29-2.886-2.882V2.88C1.408,1.29,2.7,0,4.293,0h1.947
	C4.647,0,3.355,1.29,3.355,2.88v26.494C3.355,30.966,4.647,32.256,6.241,32.256z"/>
<path fill="#E3E0E3" d="M27.02,10.371v1.054h-7.525c-2.15,0-3.898-1.749-3.898-3.899V0h1.049c0.575,0,1.126,0.229,1.532,0.634
	l8.211,8.211C26.792,9.25,27.02,9.799,27.02,10.371L27.02,10.371z"/>
<path fill="#DC4A56" d="M26.826,9.479h-7.332c-1.078,0-1.952-0.874-1.952-1.952V0.195c0.234,0.106,0.449,0.254,0.635,0.439
	l8.211,8.211C26.572,9.031,26.72,9.245,26.826,9.479z"/>
<path fill="#DC4A56" d="M25.831,27.973H2.596C1.162,27.973,0,26.811,0,25.376v-9.476c0-1.434,1.162-2.596,2.596-2.596h23.235
	c1.434,0,2.597,1.162,2.597,2.596v9.476C28.428,26.811,27.265,27.973,25.831,27.973z"/>
<path fill="#C42531" d="M4.219,27.973H2.596C1.162,27.973,0,26.811,0,25.376v-9.476c0-1.434,1.162-2.596,2.596-2.596h1.623
	c-1.435,0-2.597,1.162-2.597,2.596v9.476C1.623,26.811,2.785,27.973,4.219,27.973z"/>
<path fill="#F8F8F9" d="M7.822,24.76c-2.308,0-4.186-1.878-4.186-4.187c0-2.308,1.878-4.186,4.186-4.186
	c0.838,0,1.648,0.248,2.34,0.715c0.223,0.15,0.282,0.453,0.131,0.676c-0.15,0.224-0.453,0.282-0.676,0.132
	c-0.53-0.359-1.152-0.549-1.795-0.549c-1.772,0-3.212,1.44-3.212,3.212c0,1.772,1.44,3.213,3.212,3.213
	c0.677,0,1.25-0.206,1.706-0.611c0.089-0.079,0.173-0.166,0.25-0.259c0.173-0.206,0.48-0.233,0.687-0.061
	c0.206,0.172,0.233,0.479,0.061,0.686c-0.108,0.129-0.226,0.25-0.35,0.361C9.546,24.463,8.732,24.76,7.822,24.76L7.822,24.76z"/>
<path fill="#F8F8F9" d="M15.002,24.76c-1.127,0-2.225-0.47-2.938-1.257c-0.181-0.2-0.166-0.507,0.033-0.688
	c0.2-0.181,0.508-0.166,0.688,0.034c0.531,0.586,1.361,0.937,2.217,0.937c0.98,0,1.62-0.62,1.725-1.202
	c0.109-0.617-0.346-1.162-1.25-1.496c-1.134-0.417-2.14-0.866-2.183-0.885c-0.023-0.01-0.046-0.022-0.067-0.036
	c-0.636-0.415-0.963-1.143-0.854-1.898c0.117-0.818,0.722-1.486,1.579-1.745c1.795-0.54,3.284,0.686,3.347,0.739
	c0.205,0.173,0.231,0.479,0.059,0.686c-0.172,0.205-0.479,0.231-0.685,0.061c-0.012-0.01-1.156-0.94-2.44-0.552
	c-0.497,0.149-0.832,0.504-0.896,0.95c-0.054,0.37,0.093,0.713,0.394,0.925c0.193,0.085,1.101,0.481,2.083,0.843
	c1.613,0.595,2.024,1.724,1.872,2.58C17.48,23.898,16.327,24.76,15.002,24.76L15.002,24.76z"/>
<path fill="#F8F8F9" d="M22.077,24.76c-1.126,0-2.225-0.47-2.938-1.257c-0.181-0.2-0.166-0.507,0.034-0.688
	c0.198-0.181,0.507-0.166,0.688,0.034c0.531,0.586,1.361,0.937,2.216,0.937c0.98,0,1.62-0.62,1.725-1.202
	c0.111-0.617-0.346-1.162-1.249-1.496c-1.135-0.417-2.141-0.866-2.183-0.885c-0.023-0.01-0.046-0.022-0.067-0.036
	c-0.636-0.415-0.964-1.143-0.854-1.898c0.117-0.818,0.723-1.486,1.578-1.745c1.798-0.54,3.284,0.686,3.347,0.739
	c0.207,0.173,0.232,0.479,0.06,0.686c-0.173,0.205-0.479,0.231-0.685,0.061c-0.012-0.01-1.156-0.94-2.441-0.552
	c-0.496,0.149-0.832,0.504-0.896,0.95c-0.053,0.37,0.094,0.713,0.394,0.925c0.194,0.085,1.102,0.481,2.084,0.843
	c1.613,0.595,2.024,1.724,1.872,2.58C24.556,23.898,23.403,24.76,22.077,24.76L22.077,24.76z"/>
</svg>
