<?xml version="1.0" encoding="utf-8"?>
<!-- Generator: Adobe Illustrator 12.0.1, SVG Export Plug-In  -->
<!DOCTYPE svg PUBLIC "-//W3C//DTD SVG 1.1//EN" "http://www.w3.org/Graphics/SVG/1.1/DTD/svg11.dtd" [
	<!ENTITY ns_flows "http://ns.adobe.com/Flows/1.0/">
	<!ENTITY ns_svg "http://www.w3.org/2000/svg">
	<!ENTITY ns_xlink "http://www.w3.org/1999/xlink">
]>
<svg  version="1.1" xmlns="&ns_svg;" xmlns:xlink="&ns_xlink;" xmlns:a="http://ns.adobe.com/AdobeSVGViewerExtensions/3.0/"
	 width="84" height="64" viewBox="-0.024 -0.917 84 64" enable-background="new -0.024 -0.917 84 64" xml:space="preserve">
<defs>
</defs>
<g>
	<g>
		<path fill="#00ADEF" d="M76.72,31.343c-3.458-2.417-5.688-3.487-8.814-3.855c-1.033-3.276-3.527-9.988-13.948-12.756
			c-1.436-5.561-3.444-8.843-8.165-11.67c-2.816-1.688-7.259-3.102-11.511-3.061c-5.887,0.057-11.334,2.755-13.311,4.708
			c-4.431,4.377-6.407,7.844-6.11,16.88c-4.416,1.308-8.621,3.487-11.507,7.891c-3.498,5.34-4.696,15.461-1.472,21.698
			c3.224,6.239,5.934,7.722,8.107,8.913c2.173,1.192,5.561,2.441,9.275,2.441h46.82c3.084,0,6.142-0.389,9.532-2.662
			c3.568-2.396,7.896-7.682,7.896-14.9C83.513,38.769,80.049,33.669,76.72,31.343z M65.61,51.353H19
			c-3.476,0-4.047-0.695-6.01-2.698c-1.962-2.004-2.372-4.58-2.372-7.236c0-2.658,1.104-4.989,2.862-6.706
			c1.758-1.717,4.17-2.249,5.233-2.249s6.869,0,6.869,0s-0.031-11.958-0.031-13.85c0-2.474,0.904-3.703,2.157-5.029
			c1.468-1.553,4.711-2.17,6.112-2.146c3.087,0.051,4.344,0.716,5.888,1.932c1.801,1.419,2.269,4.375,2.269,5.602
			c0,1.226,0,6.378,0,6.378s6.296,0,8.013,0c1.718,0,3.076,0.685,4.508,1.993c1.433,1.309,2.076,3.526,2.076,5.162
			c0,1.636,0,6.91,0,6.91s7.85,0,9.853,0c2.004,0,5.07,1.84,5.07,6.297C71.498,50.167,67.45,51.353,65.61,51.353z"/>
	</g>
</g>
</svg>
