<svg width="56" height="55" viewBox="0 0 56 55" fill="none" xmlns="http://www.w3.org/2000/svg">
<path d="M26.2138 8H31.1951C31.401 8.03447 31.5703 8.21939 31.5593 8.43221C31.5637 9.85851 31.5615 11.2853 31.5604 12.7116C31.5802 12.9556 31.3654 13.18 31.1195 13.1652C29.531 13.1696 27.9425 13.1652 26.3546 13.1674C26.2029 13.1734 26.0396 13.1302 25.9471 13.0022C25.8507 12.8905 25.8545 12.7352 25.8534 12.5968C25.8578 11.2104 25.8512 9.82404 25.8567 8.43768C25.8446 8.22486 26.0101 8.04049 26.2138 8Z" fill="#2496ED"/>
<path d="M12.5728 14.2637C12.6632 14.2073 12.7738 14.2101 12.8774 14.209C14.4664 14.2123 16.056 14.2073 17.645 14.2112C17.8624 14.2068 18.0585 14.3999 18.058 14.6171C18.0618 16.0587 18.0591 17.5009 18.0591 18.9431C18.0733 19.1909 17.8389 19.3988 17.5957 19.3764C16.0045 19.3775 14.4133 19.3769 12.8226 19.3764C12.5794 19.3993 12.345 19.192 12.3576 18.9447C12.3548 17.5211 12.357 16.0976 12.3565 14.674C12.3455 14.5104 12.426 14.343 12.5728 14.2637Z" fill="#2496ED"/>
<path d="M19.3624 14.2642C19.4544 14.2068 19.5662 14.2101 19.6708 14.209C21.2598 14.2123 22.8483 14.2073 24.4368 14.2117C24.6767 14.2062 24.8728 14.4366 24.8514 14.6707C24.8509 16.0954 24.8531 17.5206 24.8503 18.9452C24.8613 19.1909 24.6301 19.3977 24.3886 19.3764C22.7963 19.3775 21.2045 19.3769 19.6127 19.3764C19.369 19.3988 19.1373 19.192 19.1466 18.9447C19.1422 17.5195 19.145 16.0943 19.1455 14.6691C19.1389 14.5077 19.2173 14.3425 19.3624 14.2642Z" fill="#2496ED"/>
<path d="M26.0905 14.2538C26.1715 14.2095 26.2658 14.2106 26.3567 14.209C27.9441 14.2117 29.5314 14.209 31.1188 14.2106C31.3686 14.1915 31.5844 14.4262 31.5614 14.6718C31.5603 16.0976 31.5636 17.5239 31.5598 18.9496C31.568 19.1832 31.3538 19.3884 31.121 19.3758C29.5128 19.378 27.9046 19.3775 26.2964 19.3758C26.0614 19.3884 25.8462 19.1805 25.8566 18.9441C25.8527 17.5211 25.8549 16.0981 25.8555 14.6746C25.844 14.5039 25.9338 14.3293 26.0905 14.2538Z" fill="#2496ED"/>
<path d="M42.9833 17.0614C43.2528 16.534 43.6066 16.058 43.9429 15.5728C44.5334 15.9076 45.1315 16.2375 45.6464 16.6845C47.2278 17.9888 48.3791 19.8516 48.6656 21.8951C50.0438 21.6735 51.4619 21.6095 52.8417 21.8546C53.6113 21.993 54.3726 22.2228 55.0579 22.6052C55.403 22.7929 55.6922 23.0615 56 23.3022C55.8653 23.6814 55.7557 24.072 55.5717 24.4314C54.7982 25.9912 53.4365 27.2348 51.8415 27.9241C50.4863 28.5183 48.9855 28.7202 47.5143 28.6605C46.548 31.1094 45.4164 33.5051 43.9654 35.7077C42.5138 37.9197 40.7353 39.9254 38.6632 41.576C32.8641 46.1957 25.3046 47.6942 18.0316 47.3216C14.7078 47.1515 11.2751 46.5847 8.36323 44.8865C5.49904 43.2156 3.54248 40.3499 2.44314 37.2725C1.7108 35.2219 1.33176 33.0636 1.1395 30.9004C1.01297 29.4768 0.502462 26.6395 2.74714 26.639C14.6328 26.6373 26.5179 26.639 38.403 26.6384C39.4399 26.6647 40.4751 26.5011 41.4764 26.2418C41.982 26.1045 42.4804 25.9294 42.9422 25.6794C42.3566 24.7542 41.9699 23.7016 41.8374 22.614C41.5969 20.6996 42.0915 18.7525 42.9833 17.0614Z" fill="#2496ED"/>
<path d="M5.94585 20.4453C6.02582 20.4147 6.11346 20.4202 6.19837 20.418C7.78794 20.4218 9.37806 20.4152 10.9682 20.4213C11.1955 20.4218 11.3889 20.6352 11.3735 20.8606C11.3752 22.2825 11.3735 23.7039 11.3741 25.1258C11.3987 25.3824 11.1626 25.6122 10.9068 25.5853C9.30192 25.5848 7.69701 25.5886 6.0921 25.5837C5.87191 25.5892 5.67088 25.396 5.67198 25.1761C5.66869 23.735 5.67088 22.294 5.67088 20.8529C5.66321 20.6762 5.77934 20.505 5.94585 20.4453Z" fill="#2496ED"/>
<path d="M12.6255 20.4481C12.7065 20.4147 12.7958 20.4207 12.8824 20.418C14.4714 20.4213 16.0604 20.4158 17.6494 20.4207C17.8768 20.418 18.0729 20.6302 18.0597 20.8557C18.0592 22.2951 18.0613 23.735 18.0586 25.175C18.0608 25.4163 17.8264 25.6094 17.5903 25.5859C16.0013 25.5859 14.4122 25.5859 12.8232 25.5853C12.5866 25.6083 12.3554 25.4125 12.3582 25.1717C12.3543 23.7312 12.3565 22.2907 12.3571 20.8496C12.3521 20.6767 12.4633 20.5093 12.6255 20.4481Z" fill="#2496ED"/>
<path d="M19.4214 20.4459C19.5008 20.4147 19.5874 20.4202 19.6717 20.418C21.2618 20.4218 22.8525 20.4158 24.4426 20.4213C24.6694 20.4196 24.8622 20.6308 24.8507 20.8557C24.8513 22.2945 24.8535 23.7334 24.8496 25.1723C24.8513 25.4136 24.619 25.6094 24.3818 25.5859C22.7769 25.5843 21.172 25.5886 19.5671 25.5837C19.3272 25.5897 19.1289 25.3643 19.1453 25.1302C19.1442 23.7066 19.1431 22.283 19.1459 20.86C19.141 20.6817 19.2516 20.5066 19.4214 20.4459Z" fill="#2496ED"/>
<path d="M26.1062 20.4559C26.1834 20.4192 26.2705 20.4198 26.3549 20.4187C27.888 20.4198 29.4212 20.4198 30.9543 20.4181C31.0951 20.4203 31.2523 20.4023 31.3739 20.4914C31.5136 20.5806 31.5728 20.7519 31.5618 20.9122C31.5607 22.3166 31.5618 23.721 31.5607 25.1254C31.5832 25.3705 31.3668 25.6008 31.1187 25.585C29.5127 25.5866 27.9067 25.5866 26.3007 25.585C26.0514 25.6025 25.834 25.3721 25.8553 25.1259C25.8548 23.7046 25.8531 22.2827 25.8559 20.8613C25.8488 20.6911 25.9495 20.5237 26.1062 20.4559Z" fill="#2496ED"/>
<path d="M32.8958 20.447C32.9747 20.4152 33.0617 20.4207 33.1461 20.418C34.7368 20.4218 36.328 20.4158 37.9186 20.4213C38.1449 20.4185 38.3388 20.6286 38.3289 20.8529C38.3311 22.277 38.3295 23.7017 38.3295 25.1258C38.3492 25.3621 38.1493 25.5903 37.9082 25.5837C36.3028 25.5886 34.6973 25.5848 33.0924 25.5853C32.8355 25.6122 32.6033 25.3829 32.6235 25.128C32.623 23.7044 32.6214 22.2809 32.6241 20.8573C32.6192 20.6811 32.7293 20.5088 32.8958 20.447Z" fill="#2496ED"/>
</svg>
