<svg width="55" height="55" viewBox="0 0 55 55" fill="none" xmlns="http://www.w3.org/2000/svg">
<rect width="55" height="55" rx="14" fill="#242424"/>
<path d="M22.725 44C25.7246 44 28.1562 41.5376 28.1562 38.5V33H22.725C19.7254 33 17.2937 35.4624 17.2937 38.5C17.2937 41.5376 19.7254 44 22.725 44Z" fill="#0ACF83"/>
<path d="M17.2937 27.5C17.2937 24.4624 19.7254 22 22.725 22H28.1562V33H22.725C19.7254 33 17.2937 30.5376 17.2937 27.5Z" fill="#A259FF"/>
<path d="M17.2937 16.5C17.2937 13.4624 19.7254 11 22.725 11H28.1562V22H22.725C19.7254 22 17.2937 19.5376 17.2937 16.5Z" fill="#F24E1E"/>
<path d="M28.1562 11H33.5875C36.5871 11 39.0187 13.4624 39.0187 16.5C39.0187 19.5376 36.5871 22 33.5875 22H28.1562V11Z" fill="#FF7262"/>
<path d="M39.0187 27.5C39.0187 30.5376 36.5871 33 33.5875 33C30.5879 33 28.1562 30.5376 28.1562 27.5C28.1562 24.4624 30.5879 22 33.5875 22C36.5871 22 39.0187 24.4624 39.0187 27.5Z" fill="#1ABCFE"/>
</svg>
