<?xml version="1.0" encoding="iso-8859-1"?>
<!-- Generator: Adobe Illustrator 19.0.0, SVG Export Plug-In . SVG Version: 6.00 Build 0)  -->
<svg version="1.1" id="Capa_1" xmlns="http://www.w3.org/2000/svg" xmlns:xlink="http://www.w3.org/1999/xlink" x="0px" y="0px"
	 viewBox="0 0 512 512" style="enable-background:new 0 0 512 512;" xml:space="preserve">
<path style="fill:#2196F3;" d="M416,85.333H96c-5.891,0-10.667,4.776-10.667,10.667v106.667c0,5.891,4.776,10.667,10.667,10.667
	c5.891,0,10.667-4.776,10.667-10.667c0-17.673,14.327-32,32-32h74.667v202.667c0,17.673-14.327,32-32,32
	c-5.891,0-10.667,4.776-10.667,10.667c0,5.891,4.776,10.667,10.667,10.667h149.333c5.891,0,10.667-4.776,10.667-10.667
	c0-5.891-4.776-10.667-10.667-10.667c-17.673,0-32-14.327-32-32V170.667h74.667c17.673,0,32,14.327,32,32
	c0,5.891,4.776,10.667,10.667,10.667c5.891,0,10.667-4.776,10.667-10.667V96C426.667,90.109,421.891,85.333,416,85.333z"/>
<g>
	<path style="fill:#607D8B;" d="M117.333,42.667H160c5.891,0,10.667-4.776,10.667-10.667S165.891,21.333,160,21.333h-42.667
		c-5.891,0-10.667,4.776-10.667,10.667S111.442,42.667,117.333,42.667z"/>
	<path style="fill:#607D8B;" d="M234.667,42.667h42.667C283.224,42.667,288,37.891,288,32s-4.776-10.667-10.667-10.667h-42.667
		C228.776,21.333,224,26.109,224,32S228.776,42.667,234.667,42.667z"/>
	<path style="fill:#607D8B;" d="M352,42.667h42.667c5.891,0,10.667-4.776,10.667-10.667s-4.776-10.667-10.667-10.667H352
		c-5.891,0-10.667,4.776-10.667,10.667S346.109,42.667,352,42.667z"/>
	<path style="fill:#607D8B;" d="M160,469.333h-42.667c-5.891,0-10.667,4.776-10.667,10.667c0,5.891,4.776,10.667,10.667,10.667H160
		c5.891,0,10.667-4.776,10.667-10.667C170.667,474.109,165.891,469.333,160,469.333z"/>
	<path style="fill:#607D8B;" d="M277.333,469.333h-42.667c-5.891,0-10.667,4.776-10.667,10.667c0,5.891,4.776,10.667,10.667,10.667
		h42.667c5.891,0,10.667-4.776,10.667-10.667C288,474.109,283.224,469.333,277.333,469.333z"/>
	<path style="fill:#607D8B;" d="M394.667,469.333H352c-5.891,0-10.667,4.776-10.667,10.667c0,5.891,4.776,10.667,10.667,10.667
		h42.667c5.891,0,10.667-4.776,10.667-10.667C405.333,474.109,400.558,469.333,394.667,469.333z"/>
	<path style="fill:#607D8B;" d="M21.333,394.667c0,5.891,4.776,10.667,10.667,10.667s10.667-4.776,10.667-10.667V352
		c0-5.891-4.776-10.667-10.667-10.667S21.333,346.109,21.333,352V394.667z"/>
	<path style="fill:#607D8B;" d="M21.333,277.333C21.333,283.224,26.109,288,32,288s10.667-4.776,10.667-10.667v-42.667
		C42.667,228.776,37.891,224,32,224s-10.667,4.776-10.667,10.667V277.333z"/>
	<path style="fill:#607D8B;" d="M32,170.667c5.891,0,10.667-4.776,10.667-10.667v-42.667c0-5.891-4.776-10.667-10.667-10.667
		s-10.667,4.776-10.667,10.667V160C21.333,165.891,26.109,170.667,32,170.667z"/>
	<path style="fill:#607D8B;" d="M469.333,394.667c0,5.891,4.776,10.667,10.667,10.667c5.891,0,10.667-4.776,10.667-10.667V352
		c0-5.891-4.776-10.667-10.667-10.667c-5.891,0-10.667,4.776-10.667,10.667V394.667z"/>
	<path style="fill:#607D8B;" d="M469.333,277.333c0,5.891,4.776,10.667,10.667,10.667c5.891,0,10.667-4.776,10.667-10.667v-42.667
		c0-5.891-4.776-10.667-10.667-10.667c-5.891,0-10.667,4.776-10.667,10.667V277.333z"/>
	<path style="fill:#607D8B;" d="M480,170.667c5.891,0,10.667-4.776,10.667-10.667v-42.667c0-5.891-4.776-10.667-10.667-10.667
		c-5.891,0-10.667,4.776-10.667,10.667V160C469.333,165.891,474.109,170.667,480,170.667z"/>
</g>
<g>
	<path style="fill:#455A64;" d="M458.667,0h42.667C507.224,0,512,4.776,512,10.667v42.667C512,59.224,507.224,64,501.333,64h-42.667
		C452.776,64,448,59.224,448,53.333V10.667C448,4.776,452.776,0,458.667,0z"/>
	<path style="fill:#455A64;" d="M10.667,0h42.667C59.224,0,64,4.776,64,10.667v42.667C64,59.224,59.224,64,53.333,64H10.667
		C4.776,64,0,59.224,0,53.333V10.667C0,4.776,4.776,0,10.667,0z"/>
	<path style="fill:#455A64;" d="M458.667,448h42.667c5.891,0,10.667,4.776,10.667,10.667v42.667c0,5.891-4.776,10.667-10.667,10.667
		h-42.667c-5.891,0-10.667-4.776-10.667-10.667v-42.667C448,452.776,452.776,448,458.667,448z"/>
	<path style="fill:#455A64;" d="M10.667,448h42.667C59.224,448,64,452.776,64,458.667v42.667C64,507.224,59.224,512,53.333,512
		H10.667C4.776,512,0,507.224,0,501.333v-42.667C0,452.776,4.776,448,10.667,448z"/>
</g>
<g>
</g>
<g>
</g>
<g>
</g>
<g>
</g>
<g>
</g>
<g>
</g>
<g>
</g>
<g>
</g>
<g>
</g>
<g>
</g>
<g>
</g>
<g>
</g>
<g>
</g>
<g>
</g>
<g>
</g>
</svg>
