<?xml version="1.0" encoding="utf-8"?>
<!-- Generator: Adobe Illustrator 12.0.1, SVG Export Plug-In  -->
<!DOCTYPE svg PUBLIC "-//W3C//DTD SVG 1.1//EN" "http://www.w3.org/Graphics/SVG/1.1/DTD/svg11.dtd" [
	<!ENTITY ns_flows "http://ns.adobe.com/Flows/1.0/">
	<!ENTITY ns_svg "http://www.w3.org/2000/svg">
	<!ENTITY ns_xlink "http://www.w3.org/1999/xlink">
]>
<svg  version="1.1" xmlns="&ns_svg;" xmlns:xlink="&ns_xlink;" xmlns:a="http://ns.adobe.com/AdobeSVGViewerExtensions/3.0/"
	 width="24" height="24" viewBox="0 -0.707 24 24" enable-background="new 0 -0.707 24 24" xml:space="preserve">
<defs>
</defs>
<path fill="#010101" d="M11.893,0C5.326,0,0,5.346,0,11.941c0,5.275,3.407,9.751,8.135,11.331c0.595,0.109,0.812-0.259,0.812-0.576
	c0-0.284-0.011-1.034-0.016-2.03c-3.309,0.721-4.007-1.602-4.007-1.602c-0.54-1.38-1.32-1.747-1.32-1.747
	c-1.081-0.74,0.081-0.725,0.081-0.725c1.193,0.083,1.821,1.23,1.821,1.23c1.062,1.824,2.785,1.299,3.463,0.992
	c0.106-0.772,0.415-1.299,0.755-1.598c-2.641-0.302-5.418-1.325-5.418-5.9c0-1.304,0.464-2.37,1.226-3.206
	C5.407,7.81,5,6.595,5.646,4.952c0,0,1-0.321,3.271,1.224c0.949-0.265,1.965-0.396,2.978-0.401c1.01,0.005,2.029,0.136,2.978,0.403
	c2.271-1.545,3.269-1.224,3.269-1.224c0.647,1.645,0.24,2.858,0.119,3.16c0.762,0.835,1.222,1.901,1.222,3.205
	c0,4.588-2.78,5.597-5.431,5.893c0.428,0.369,0.809,1.098,0.809,2.21c0,1.598-0.016,2.885-0.016,3.275
	c0,0.32,0.215,0.691,0.818,0.574c4.72-1.582,8.125-6.055,8.125-11.329C23.788,5.346,18.462,0,11.893,0z"/>
</svg>
