<?xml version="1.0" encoding="utf-8"?>
<!-- Generator: Adobe Illustrator 22.1.0, SVG Export Plug-In . SVG Version: 6.00 Build 0)  -->
<svg version="1.1" id="Layer_1" xmlns="http://www.w3.org/2000/svg" xmlns:xlink="http://www.w3.org/1999/xlink" x="0px" y="0px"
	 viewBox="0 0 512 512" style="enable-background:new 0 0 512 512;" xml:space="preserve">
<g>
	<path d="M472.5,235.9L276,39.5c-11.3-11.3-29.7-11.3-41,0l-45.6,45.6l34.3,34.3c5.5-2.6,11.7-4.1,18.2-4.1
		c23.3,0,42.2,18.9,42.2,42.2c0,6.5-1.5,12.7-4.1,18.2l56.2,56.2c5.5-2.6,11.7-4.1,18.2-4.1c23.3,0,42.2,18.9,42.2,42.2
		s-18.9,42.2-42.2,42.2s-42.2-18.9-42.2-42.2c0-6.5,1.5-12.7,4.1-18.2l-56.2-56.2c-1.3,0.6-2.7,1.2-4.1,1.7v117.3
		c16.4,5.8,28.1,21.4,28.1,39.8c0,23.3-18.9,42.2-42.2,42.2s-42.2-18.9-42.2-42.2c0-18.4,11.7-34,28.1-39.8V197.3
		c-16.4-5.8-28.1-21.4-28.1-39.8c0-6.5,1.5-12.7,4.1-18.2L169.5,105l-130,130c-11.3,11.3-11.3,29.7,0,41L236,472.5
		c11.3,11.3,29.6,11.3,41,0L472.5,277C483.8,265.6,483.8,247.3,472.5,235.9L472.5,235.9z"/>
</g>
</svg>
