<svg width="49" height="55" viewBox="0 0 49 55" fill="none" xmlns="http://www.w3.org/2000/svg">
<path d="M35.1531 6.5625V47.8125C35.1531 52.4281 38.349 55 41.7329 55C44.8661 55 48.3127 52.8125 48.3127 47.8125V6.875C48.3127 2.64375 45.1794 0 41.7329 0C38.2863 0 35.1531 2.91563 35.1531 6.5625Z" fill="#F9AB00"/>
<path d="M17.9197 27.5V47.8125C17.9197 52.4281 21.1156 55 24.4995 55C27.6327 55 31.0793 52.8125 31.0793 47.8125V27.8125C31.0793 23.5813 27.946 20.9375 24.4995 20.9375C21.0529 20.9375 17.9197 23.8531 17.9197 27.5Z" fill="#E37400"/>
<path d="M7.26706 55C10.901 55 13.8469 52.0619 13.8469 48.4375C13.8469 44.8131 10.901 41.875 7.26706 41.875C3.63313 41.875 0.687256 44.8131 0.687256 48.4375C0.687256 52.0619 3.63313 55 7.26706 55Z" fill="#E37400"/>
</svg>
