<svg width="56" height="51" viewBox="0 0 56 51" fill="none" xmlns="http://www.w3.org/2000/svg">
<path d="M19.1747 6.66127C19.7063 5.25932 20.4372 3.96864 21.5226 2.92274C25.864 -1.32761 33.0406 -0.259457 35.9866 5.0813C38.2016 9.13136 40.5495 13.0924 42.8309 17.098C46.6408 23.7517 50.4949 30.4054 54.2604 37.0813C57.4278 42.6668 53.9946 49.7211 47.704 50.678C43.8499 51.2565 40.2394 49.4763 38.2459 46.0048C34.9012 40.1522 31.5344 34.2997 28.1898 28.4693C28.1233 28.3358 28.0347 28.2246 27.9461 28.1133C27.5917 27.824 27.4367 27.4012 27.2152 27.0229C25.7311 24.397 24.2027 21.7934 22.7187 19.1898C21.7662 17.4985 20.7695 15.8296 19.817 14.1383C18.9532 12.6251 18.5545 10.9784 18.5988 9.24263C18.6652 8.35251 18.776 7.46238 19.1747 6.66127Z" fill="#3C8BD9"/>
<path d="M19.1746 6.66113C18.9752 7.46225 18.798 8.26336 18.7537 9.10898C18.6873 10.9782 19.1524 12.714 20.0827 14.3385C22.5193 18.5443 24.9558 22.7724 27.3701 27.0005C27.5916 27.3788 27.7688 27.7571 27.9903 28.1132C26.6613 30.4275 25.3323 32.7196 23.9812 35.0339C22.1206 38.2606 20.2599 41.5095 18.3772 44.7362C18.2886 44.7362 18.2664 44.6917 18.2443 44.625C18.2221 44.4469 18.2886 44.2912 18.3329 44.1132C19.241 40.7752 18.4879 37.8155 16.2065 35.2787C14.811 33.7432 13.039 32.8753 11.0012 32.586C8.34321 32.2077 5.9953 32.8976 3.89104 34.5666C3.51449 34.8559 3.27084 35.2787 2.82784 35.5012C2.73924 35.5012 2.69494 35.4567 2.67279 35.3899C3.73599 33.5429 4.77705 31.6959 5.84025 29.8489C10.226 22.1938 14.6117 14.5387 19.0195 6.90592C19.0638 6.8169 19.1303 6.75015 19.1746 6.66113Z" fill="#FABC04"/>
<path d="M2.76137 35.4567C3.18222 35.0784 3.58092 34.6778 4.02392 34.3218C9.40639 30.0492 17.4912 33.1424 18.6651 39.9073C18.9531 41.5318 18.798 43.0895 18.3107 44.6472C18.2886 44.7808 18.2664 44.892 18.2221 45.0255C18.0228 45.3816 17.8456 45.7599 17.6241 46.1159C15.6527 49.3872 12.7511 51.0116 8.94124 50.7669C4.57767 50.4553 1.14441 47.1618 0.546362 42.8002C0.258411 40.6862 0.679262 38.7057 1.76462 36.8809C1.98612 36.4803 2.25192 36.1243 2.49557 35.7237C2.60632 35.6347 2.56202 35.4567 2.76137 35.4567Z" fill="#34A852"/>
<path d="M2.76162 35.4572C2.67302 35.5462 2.67302 35.702 2.51797 35.7242C2.49582 35.5684 2.58442 35.4794 2.67302 35.3682L2.76162 35.4572Z" fill="#FABC04"/>
<path d="M18.2224 45.0253C18.1338 44.8695 18.2224 44.7582 18.311 44.647C18.3331 44.6692 18.3774 44.7137 18.3996 44.736L18.2224 45.0253Z" fill="#E1C025"/>
</svg>
