<svg width="56" height="55" viewBox="0 0 56 55" fill="none" xmlns="http://www.w3.org/2000/svg">
<path d="M0.5 0H55.5V55H0.5V0Z" fill="#F7DF1E"/>
<path d="M14.9614 45.9627L19.1704 43.4155C19.9824 44.8552 20.721 46.0733 22.4928 46.0733C24.1912 46.0733 25.2619 45.4089 25.2619 42.8248V25.251H30.4305V42.8979C30.4305 48.2512 27.2926 50.6879 22.7144 50.6879C18.5797 50.6879 16.1796 48.5464 14.9613 45.9622" fill="black"/>
<path d="M33.2383 45.4075L37.4468 42.9708C38.5547 44.78 39.9945 46.109 42.5418 46.109C44.6834 46.109 46.0491 45.0383 46.0491 43.5615C46.0491 41.7893 44.6462 41.1616 42.2833 40.1283L40.9915 39.5741C37.2624 37.9868 34.7887 35.9932 34.7887 31.7843C34.7887 27.9078 37.7422 24.9541 42.3573 24.9541C45.6432 24.9541 48.006 26.0987 49.7041 29.0892L45.6799 31.6734C44.7938 30.086 43.8341 29.4585 42.3574 29.4585C40.8437 29.4585 39.8837 30.4184 39.8837 31.6734C39.8837 33.2241 40.8437 33.8519 43.0586 34.8118L44.3507 35.3656C48.7442 37.2486 51.2178 39.1682 51.2178 43.4876C51.2178 48.1397 47.5629 50.6869 42.6527 50.6869C37.8532 50.6869 34.7519 48.3981 33.2384 45.4075" fill="black"/>
</svg>
