<?xml version="1.0" encoding="UTF-8"?> <svg xmlns="http://www.w3.org/2000/svg" width="570" height="511" viewBox="0 0 570 511" fill="none"> <path fill-rule="evenodd" clip-rule="evenodd" d="M570 0H0V511H570V0ZM20.6035 21.4616C5 36.2514 5 61.0011 5 110.501V400.499C5 449.999 5 474.749 20.6035 489.538C36.207 504.328 60.9209 503.004 110.35 500.356L470.35 481.071C515.168 478.67 537.577 477.469 551.289 463.004C565 448.538 565 426.097 565 381.214V129.786C565 84.9034 565 62.462 551.289 47.9965C537.577 33.5309 515.168 32.3304 470.35 29.9294L110.35 10.6437C60.9209 7.99579 36.207 6.67181 20.6035 21.4616Z" fill="white"></path> </svg> 