<svg width="56" height="55" viewBox="0 0 56 55" fill="none" xmlns="http://www.w3.org/2000/svg">
<path d="M0.885132 8.43699C1.02408 3.98125 4.95307 0.0107329 9.44082 0.0107329C21.9698 -0.00997771 34.4989 0.00777423 47.0279 0.00185692C50.815 -0.0809855 54.4188 2.61731 55.4801 6.23871C56.0773 8.14704 55.8053 10.1648 55.8851 12.1264C55.8231 23.5646 55.9088 35.0028 55.8467 46.4409C55.8408 50.944 51.829 54.9855 47.3206 54.9885C34.6999 55.0063 22.0792 55.0003 9.45856 54.9915C5.08907 54.9826 1.25172 51.2547 0.885132 46.935V8.43699H0.885132ZM11.531 8.89262C13.3077 13.0229 15.0845 17.1562 16.8406 21.2953C15.0875 29.5736 13.29 37.8401 11.5398 46.1185C13.3166 46.1125 15.0934 46.2102 16.8731 46.1185C19.7437 38.5325 22.6705 30.9672 25.5648 23.3871C26.0348 22.18 26.4192 20.9344 27.0223 19.7834C25.3726 28.5647 23.7732 37.3549 22.1827 46.1451C23.9624 46.1392 25.7422 46.1717 27.5219 46.1185C30.6615 36.701 34.0495 27.3635 37.1093 17.9195C37.1241 19.2657 36.793 20.5734 36.6008 21.8989C35.3414 29.9731 34.0613 38.0443 32.8285 46.1244C34.6023 46.0918 36.3762 46.1747 38.147 46.1214C41.3901 35.7661 44.6421 25.4138 47.9 15.0614C44.8165 13.1383 41.7597 11.1649 38.6939 9.21512C38.3599 8.99322 37.9815 8.80978 37.5676 8.85416C35.9948 8.85712 34.4191 8.83937 32.8463 8.83937C34.2358 11.5377 35.7701 14.159 37.2424 16.81C34.4486 14.6147 31.7347 12.3128 28.9764 10.0731C28.4147 9.66483 27.9446 9.04647 27.2588 8.86895C25.5796 8.76836 23.8944 8.94884 22.2152 8.83345C23.6904 12.0643 25.3815 15.1916 26.9306 18.387C25.9343 17.6858 25.1154 16.7745 24.2433 15.9342C21.7895 13.5732 19.318 11.2359 16.8583 8.88079C15.0845 8.866 13.3077 8.8157 11.531 8.89262Z" fill="#FFD02F"/>
<path d="M11.5309 8.89267C13.3077 8.81574 15.0845 8.86604 16.8583 8.88083C19.318 11.2359 21.7895 13.5733 24.2433 15.9343C25.1154 16.7745 25.9343 17.6858 26.9306 18.387C25.3815 15.1917 23.6904 12.0644 22.2152 8.8335C23.8944 8.94888 25.5795 8.76841 27.2587 8.869C27.9446 9.04652 28.4147 9.66488 28.9764 10.0732C31.7347 12.3129 34.4486 14.6147 37.2424 16.81C35.7701 14.1591 34.2357 11.5377 32.8463 8.83941C34.419 8.83941 35.9948 8.85717 37.5676 8.85421C37.9814 8.80983 38.3599 8.99326 38.6939 9.21516C41.7597 11.1649 44.8165 13.1383 47.9 15.0615C44.6421 25.4138 41.3901 35.7662 38.147 46.1215C36.3761 46.1747 34.6023 46.0919 32.8285 46.1244C34.0613 38.0443 35.3414 29.9731 36.6008 21.8989C36.793 20.5734 37.1241 19.2657 37.1093 17.9195C34.0495 27.3636 30.6615 36.7011 27.5219 46.1185C25.7421 46.1718 23.9624 46.1392 22.1827 46.1451C23.7732 37.355 25.3726 28.5648 27.0222 19.7835C26.4191 20.9344 26.0348 22.18 25.5648 23.3871C22.6705 30.9672 19.7437 38.5325 16.8731 46.1185C15.0934 46.2102 13.3166 46.1126 11.5398 46.1185C13.29 37.8402 15.0874 29.5737 16.8406 21.2954C15.0845 17.1562 13.3077 13.023 11.5309 8.89267Z" fill="#050038"/>
</svg>
