<?xml version="1.0" encoding="utf-8"?>
<!-- Generator: Adobe Illustrator 12.0.1, SVG Export Plug-In  -->
<!DOCTYPE svg PUBLIC "-//W3C//DTD SVG 1.1//EN" "http://www.w3.org/Graphics/SVG/1.1/DTD/svg11.dtd" [
	<!ENTITY ns_flows "http://ns.adobe.com/Flows/1.0/">
	<!ENTITY ns_svg "http://www.w3.org/2000/svg">
	<!ENTITY ns_xlink "http://www.w3.org/1999/xlink">
]>
<svg  version="1.1" xmlns="&ns_svg;" xmlns:xlink="&ns_xlink;" xmlns:a="http://ns.adobe.com/AdobeSVGViewerExtensions/3.0/"
	 width="16" height="25" viewBox="-0.713 -0.846 16 25" enable-background="new -0.713 -0.846 16 25" xml:space="preserve">
<defs>
</defs>
<path fill="#010101" d="M14.65,10.681L4.543,0.589C4.171,0.196,3.706,0,3.147,0S2.125,0.196,1.752,0.589L0.574,1.751
	C0.191,2.134,0,2.599,0,3.147c0,0.537,0.191,1.008,0.574,1.411l7.535,7.519l-7.535,7.535C0.191,19.994,0,20.458,0,21.006
	c0,0.537,0.191,1.009,0.574,1.411l1.178,1.163c0.382,0.382,0.848,0.573,1.395,0.573c0.548,0,1.014-0.191,1.396-0.573L14.65,13.487
	c0.382-0.403,0.574-0.873,0.574-1.411C15.225,11.529,15.032,11.063,14.65,10.681z"/>
</svg>
