<?xml version="1.0" encoding="utf-8"?>
<!-- Generator: Adobe Illustrator 12.0.1, SVG Export Plug-In  -->
<!DOCTYPE svg PUBLIC "-//W3C//DTD SVG 1.1//EN" "http://www.w3.org/Graphics/SVG/1.1/DTD/svg11.dtd" [
	<!ENTITY ns_flows "http://ns.adobe.com/Flows/1.0/">
	<!ENTITY ns_svg "http://www.w3.org/2000/svg">
	<!ENTITY ns_xlink "http://www.w3.org/1999/xlink">
]>
<svg  version="1.1" xmlns="&ns_svg;" xmlns:xlink="&ns_xlink;" xmlns:a="http://ns.adobe.com/AdobeSVGViewerExtensions/3.0/"
	 width="24" height="25" viewBox="0 -1 24 25" enable-background="new 0 -1 24 25" xml:space="preserve">
<defs>
</defs>
<path fill="#F2F2F3" d="M24,12c0,6.626-5.373,12-12,12C5.886,24,0.839,19.427,0.095,13.513C0.032,13.019,0,12.512,0,12
	c0-0.939,0.108-1.854,0.312-2.731C1.548,3.958,6.312,0,12,0c5.674,0,10.429,3.938,11.679,9.229c0.164,0.692,0.267,1.407,0.305,2.14
	C23.994,11.578,24,11.788,24,12z"/>
<polygon fill="#3C8840" points="11.4,12.964 11.4,9.844 8.698,8.284 5.996,9.844 5.996,12.964 8.698,14.524 "/>
<path fill="#343433" d="M22.041,12.49l1.76,1.018l-1.76,1.017l-2.702-1.56V9.844l2.702-1.56l1.638,0.946
	c0.164,0.692,0.267,1.407,0.305,2.14l-1.002,0.578V10.86l-0.94-0.542L21.1,10.86v1.087L22.041,12.49z"/>
<polygon fill="#66A060" points="22.565,11.707 22.565,11.101 22.041,10.798 21.516,11.101 21.516,11.707 22.041,12.009 "/>
<path fill="#343433" d="M4.719,9.844v4.114l-1.802-1.027v-2.109l-0.899-0.52l-0.899,0.52v2.109l-1.023,0.583
	C0.032,13.019,0,12.512,0,12c0-0.939,0.108-1.854,0.312-2.731l1.706-0.985L4.719,9.844z"/>
<rect x="5.996" y="9.844" transform="matrix(-0.5 -0.866 0.866 -0.5 3.1707 24.6373)" fill="#6DA75C" width="5.404" height="3.119"/>
<polygon fill="#56A345" points="5.996,12.964 6.923,11.451 5.996,9.844 "/>
<polygon fill="#649C57" points="10.499,11.404 11.4,9.844 8.698,8.284 "/>
<path fill="#343433" d="M16.245,4.668v4.139L15.34,8.284l-2.703,1.56v3.121l2.703,1.56l2.701-1.56V5.629L16.245,4.668z
	 M16.239,11.924l-0.899,0.52l-0.901-0.52v-1.04l0.901-0.52l0.899,0.52V11.924z"/>
<path fill="#66A060" d="M13.227,16.816c0,0-0.054-0.457-0.542-0.457c-0.488,0-0.821,0.063-0.821,0.335c0,0.27,0.949,0.27,1.31,0.376
	c0.361,0.105,0.679,0.381,0.52,0.869c-0.158,0.488-0.647,0.541-1.4,0.541c-0.753,0-0.922-0.626-0.922-0.869h0.424
	c0,0-0.053,0.381,0.445,0.445c0.499,0.063,0.976,0.099,1.039-0.286c0.085-0.51-1.612-0.255-1.76-0.754
	c-0.125-0.421-0.053-0.975,0.795-1.061c0.849-0.085,1.315,0.29,1.315,0.849L13.227,16.816z"/>
<path fill="#66A060" d="M9.127,18.803l0.938,0.542c0.471,0.271,1.061-0.068,1.061-0.613v-0.949v-1.745h-0.382v2.589
	c0,0.297-0.322,0.482-0.579,0.334L9.51,18.582V15.82l2.393-1.382l2.393,1.382v2.762l-2.393,1.382l-0.689-0.397l-0.45,0.182
	l1.139,0.657l2.775-1.602v-3.205l-2.775-1.601l-2.775,1.601V18.803L9.127,18.803z"/>
</svg>
