<svg width="50" height="55" viewBox="0 0 50 55" fill="none" xmlns="http://www.w3.org/2000/svg">
<path d="M24.981 55C24.2445 55 23.513 54.8083 22.8672 54.435L16.1374 50.4496C15.1335 49.8896 15.6229 49.6878 15.9558 49.5718C17.2978 49.1076 17.5651 49.0017 18.9979 48.1895C19.1492 48.1037 19.346 48.139 19.4973 48.2298L24.6683 51.2971C24.8549 51.403 25.1223 51.403 25.2938 51.2971L45.4479 39.6637C45.6346 39.5578 45.7556 39.3409 45.7556 39.1189V15.8622C45.7556 15.6352 45.6346 15.4233 45.4429 15.3073L25.2938 3.68399C25.1072 3.573 24.86 3.573 24.6733 3.68399L4.53433 15.3073C4.33758 15.4233 4.21651 15.6402 4.21651 15.8622V39.1189C4.21651 39.3409 4.34263 39.5527 4.53433 39.6587L10.0534 42.847C13.05 44.3453 14.8813 42.5796 14.8813 40.8089V17.8448C14.8813 17.522 15.1436 17.2647 15.4665 17.2647H18.0242C18.342 17.2647 18.6094 17.522 18.6094 17.8448V40.8089C18.6094 44.8044 16.43 47.0998 12.6414 47.0998C11.476 47.0998 10.5579 47.0998 8.00013 45.8386L2.71315 42.7966C1.40654 42.0398 0.599365 40.6323 0.599365 39.1189V15.8622C0.599365 14.3488 1.40654 12.9413 2.71315 12.1896L22.8672 0.541058C24.1436 -0.180353 25.8387 -0.180353 27.1049 0.541058L47.259 12.1845C48.5656 12.9413 49.3778 14.3488 49.3778 15.8572V39.1138C49.3778 40.6273 48.5656 42.0297 47.259 42.7915L27.1049 54.4249C26.4592 54.8033 25.7277 55 24.981 55Z" fill="#679E63"/>
<path d="M31.2064 38.9721C22.388 38.9721 20.5416 34.9262 20.5416 31.526C20.5416 31.2031 20.7989 30.9458 21.1218 30.9458H23.7249C24.0175 30.9458 24.2597 31.1526 24.3051 31.4402C24.6986 34.0938 25.869 35.4307 31.2064 35.4307C35.4541 35.4307 37.2602 34.4721 37.2602 32.2171C37.2602 30.9206 36.7456 29.957 30.147 29.3062C24.633 28.7614 21.2227 27.5406 21.2227 23.1314C21.2227 19.0652 24.6481 16.6387 30.3992 16.6387C36.8566 16.6387 40.05 18.8786 40.4536 23.6863C40.4687 23.8528 40.4082 24.0092 40.2972 24.1353C40.1862 24.2513 40.0348 24.3219 39.8684 24.3219H37.2552C36.9827 24.3219 36.7456 24.1302 36.6901 23.8679C36.0646 21.0781 34.536 20.1852 30.3942 20.1852C25.758 20.1852 25.2182 21.7995 25.2182 23.0103C25.2182 24.4783 25.8538 24.9021 32.1145 25.7295C38.3095 26.5467 41.2507 27.707 41.2507 32.0607C41.2557 36.4598 37.5932 38.9721 31.2064 38.9721Z" fill="#679E63"/>
</svg>
