<?xml version="1.0" encoding="utf-8"?>
<!-- Generator: Adobe Illustrator 12.0.1, SVG Export Plug-In  -->
<!DOCTYPE svg PUBLIC "-//W3C//DTD SVG 1.1//EN" "http://www.w3.org/Graphics/SVG/1.1/DTD/svg11.dtd" [
	<!ENTITY ns_flows "http://ns.adobe.com/Flows/1.0/">
	<!ENTITY ns_svg "http://www.w3.org/2000/svg">
	<!ENTITY ns_xlink "http://www.w3.org/1999/xlink">
]>
<svg  version="1.1" xmlns="&ns_svg;" xmlns:xlink="&ns_xlink;" xmlns:a="http://ns.adobe.com/AdobeSVGViewerExtensions/3.0/"
	 width="20" height="24" viewBox="-0.372 -0.021 20 24" enable-background="new -0.372 -0.021 20 24" xml:space="preserve">
<defs>
</defs>
<path fill="#AD426E" d="M3.066,0C2.058,0,1.291,0.323,0.78,0.833C0.271,1.344,0,1.952,0,2.668c0,0.717,0,18.4,0,18.737
	c0,0.336,0.098,1.14,0.836,1.747c0.738,0.608,1.368,0.814,2.274,0.814c0.907,0,1.504-0.125,2.047-0.56
	c0.542-0.434,1.172-1.096,1.172-2.143c0-1.049,0-17.736,0-18.599c0-0.864-0.461-1.471-0.95-1.862C4.891,0.413,4.076,0,3.066,0z"/>
<circle fill="#496CAB" cx="10.575" cy="15.565" r="2.568"/>
<path fill="#496CAB" d="M3.144,0.003c0,0,1.292,0.129,2.016,0.644c0.439,0.304,0.81,0.698,1.013,1.216
	c0.092,0.235,0.156,0.491,0.156,0.851c0,0.702,0,3.113,0,3.113s4.982,0,5.276,0c0.295,0,0.909-0.011,1.461,0.399
	c0.423,0.314,0.652,0.596,0.652,2.555c0,2.382,0.021,11.973,0.021,12.375c0,0.403,0.112,1.399,0.775,1.956
	c0.664,0.556,1.212,0.866,2.121,0.866c0.908,0,1.657-0.298,2.075-0.821c0.419-0.522,0.776-0.797,0.776-1.884s0-15.058,0-15.713
	c0-0.656-0.415-1.942-1.092-2.893c-0.676-0.95-1.764-1.842-2.697-2.166C14.764,0.177,13.75,0.02,13.154,0.02
	C12.681,0.02,3.144,0.003,3.144,0.003z"/>
</svg>
