<?xml version="1.0" encoding="utf-8"?>
<!-- Generator: Adobe Illustrator 12.0.1, SVG Export Plug-In  -->
<!DOCTYPE svg PUBLIC "-//W3C//DTD SVG 1.1//EN" "http://www.w3.org/Graphics/SVG/1.1/DTD/svg11.dtd" [
	<!ENTITY ns_flows "http://ns.adobe.com/Flows/1.0/">
	<!ENTITY ns_svg "http://www.w3.org/2000/svg">
	<!ENTITY ns_xlink "http://www.w3.org/1999/xlink">
]>
<svg  version="1.1" xmlns="&ns_svg;" xmlns:xlink="&ns_xlink;" xmlns:a="http://ns.adobe.com/AdobeSVGViewerExtensions/3.0/"
	 width="17" height="25" viewBox="-0.875 0 17 25" enable-background="new -0.875 0 17 25" xml:space="preserve">
<defs>
</defs>
<path fill="#010101" d="M7.087,12.028l7.503-7.504c0.381-0.381,0.571-0.847,0.571-1.397s-0.19-1.016-0.571-1.397l-1.157-1.158
	C13.052,0.19,12.586,0,12.036,0c-0.552,0-1.017,0.19-1.397,0.571L0.571,10.623C0.19,11.004,0,11.469,0,12.02
	c0,0.551,0.19,1.018,0.571,1.397l10.067,10.052c0.381,0.381,0.846,0.571,1.397,0.571c0.55,0,1.016-0.19,1.397-0.571l1.157-1.157
	c0.381-0.381,0.571-0.845,0.571-1.391s-0.19-1.014-0.571-1.404L7.087,12.028z"/>
</svg>
