<svg width="55" height="55" viewBox="0 0 55 55" fill="none" xmlns="http://www.w3.org/2000/svg">
<path d="M0 27.6355C0 31.789 4.05588 35.6665 10.4503 37.8521C9.1734 44.2805 10.2215 49.4617 13.7221 51.4807C17.3204 53.5557 22.681 52.1193 27.7689 47.6719C32.7285 51.9398 37.741 53.6194 41.2384 51.5948C44.8331 49.5137 45.9266 43.9811 44.6144 37.352C51.2745 35.15 55 31.8437 55 27.6355C55 23.5782 50.9366 20.0681 44.6284 17.8965C46.0411 10.9935 44.8441 5.938 41.1985 3.83571C37.6838 1.80897 32.6131 3.57548 27.5807 7.95515C22.3452 3.30648 17.3245 1.88718 13.6825 3.9956C10.1712 6.0281 9.16926 11.3035 10.4503 17.8509C4.27179 20.0051 0 23.5944 0 27.6355Z" fill="white"/>
<path d="M43.292 20.0524C42.7853 19.878 42.2602 19.713 41.7196 19.5569C41.8085 19.1943 41.89 18.8363 41.9625 18.4844C43.1528 12.7068 42.3746 8.05229 39.7171 6.51983C37.169 5.0504 33.0017 6.58252 28.793 10.2453C28.3883 10.5975 27.9824 10.9704 27.5767 11.3612C27.3064 11.1026 27.0365 10.8527 26.7674 10.6137C22.3565 6.69728 17.9352 5.04684 15.2804 6.58373C12.7347 8.05742 11.9808 12.4331 13.0522 17.9086C13.1557 18.4375 13.2766 18.9776 13.4134 19.5267C12.7877 19.7044 12.1836 19.8937 11.6056 20.0952C6.43428 21.8981 3.13165 24.7238 3.13165 27.6547C3.13165 30.6818 6.67703 33.718 12.0633 35.5591C12.4884 35.7044 12.9295 35.8417 13.384 35.9721C13.2365 36.5661 13.1081 37.148 13.0004 37.7157C11.9788 43.0962 12.7766 47.3685 15.3155 48.8329C17.938 50.3452 22.3393 48.7907 26.625 45.0445C26.9637 44.7484 27.3036 44.4343 27.6442 44.1052C28.0856 44.5302 28.5263 44.9325 28.9647 45.3099C33.1159 48.8821 37.2159 50.3246 39.7524 48.8561C42.3723 47.3395 43.2237 42.75 42.1183 37.1661C42.0339 36.7397 41.9357 36.304 41.8253 35.8606C42.1344 35.7692 42.4379 35.6749 42.7337 35.5768C48.3333 33.7215 51.9766 30.7222 51.9766 27.6547C51.9766 24.7132 48.5674 21.8685 43.292 20.0524Z" fill="#53C1DE"/>
<path d="M27.5543 23.2944C29.9632 23.2944 31.916 25.2472 31.916 27.6561C31.916 30.065 29.9632 32.0178 27.5543 32.0178C25.1455 32.0178 23.1926 30.065 23.1926 27.6561C23.1926 25.2472 25.1455 23.2944 27.5543 23.2944Z" fill="#53C1DE"/>
<path d="M42.0766 33.5968C41.8095 33.6852 41.5355 33.7707 41.2562 33.8535C40.6381 31.8965 39.8038 29.8156 38.7828 27.6655C39.7571 25.5667 40.5591 23.5123 41.16 21.568C41.6596 21.7126 42.1446 21.8651 42.6119 22.026C47.1319 23.5821 49.8891 25.8827 49.8891 27.6554C49.8891 29.5436 46.9115 31.9948 42.0766 33.5968ZM40.0705 37.572C40.5593 40.0411 40.6291 42.2735 40.3053 44.0186C40.0144 45.5867 39.4294 46.6322 38.706 47.0509C37.1667 47.9419 33.8748 46.7838 30.3247 43.7287C29.9177 43.3785 29.5077 43.0046 29.0965 42.6088C30.4728 41.1036 31.8484 39.3537 33.1908 37.4102C35.5521 37.2007 37.783 36.8581 39.8061 36.3905C39.9057 36.7924 39.9942 37.1866 40.0705 37.572ZM19.7831 46.897C18.2792 47.4281 17.0814 47.4433 16.3573 47.0258C14.8166 46.1372 14.1761 42.7069 15.0498 38.1055C15.1498 37.5786 15.269 37.0372 15.4062 36.4839C17.4071 36.9264 19.6217 37.2448 21.9886 37.4367C23.3402 39.3384 24.7554 41.0864 26.1816 42.6169C25.87 42.9177 25.5597 43.2041 25.251 43.474C23.3559 45.1305 21.4568 46.3058 19.7831 46.897ZM12.7373 33.5852C10.3556 32.7712 8.38869 31.7132 7.04046 30.5587C5.82899 29.5212 5.21735 28.4911 5.21735 27.6554C5.21735 25.8768 7.86903 23.6081 12.2916 22.0662C12.8282 21.8791 13.3899 21.7028 13.9729 21.5372C14.5841 23.5254 15.3859 25.6041 16.3535 27.7061C15.3734 29.8394 14.5602 31.9512 13.943 33.9628C13.5274 33.8433 13.1248 33.7176 12.7373 33.5852ZM15.0992 17.5086C14.1812 12.8173 14.7909 9.27832 16.325 8.39028C17.9591 7.44425 21.5725 8.79309 25.381 12.1748C25.6244 12.3909 25.8688 12.6171 26.1139 12.8512C24.6947 14.375 23.2924 16.1099 21.9529 18.0004C19.6557 18.2133 17.4567 18.5554 15.4349 19.0134C15.3078 18.5021 15.1952 17.9997 15.0992 17.5086ZM36.1686 22.7112C35.6853 21.8763 35.1891 21.0612 34.6833 20.2684C36.2418 20.4654 37.7349 20.7269 39.1372 21.047C38.7162 22.3962 38.1915 23.8068 37.5738 25.2529C37.1308 24.4118 36.6621 23.5636 36.1686 22.7112ZM27.5766 14.3424C28.539 15.3851 29.5029 16.5493 30.4509 17.8124C29.4956 17.7673 28.5284 17.7438 27.5533 17.7438C26.5873 17.7438 25.6273 17.7668 24.6779 17.8111C25.6269 16.5597 26.5991 15.3971 27.5766 14.3424ZM18.9294 22.7256C18.4466 23.5628 17.9867 24.4063 17.5506 25.2514C16.943 23.8103 16.4231 22.3932 15.9985 21.0249C17.3921 20.713 18.8782 20.458 20.4268 20.2647C19.9138 21.0649 19.4135 21.8861 18.9294 22.7256ZM20.4714 35.1948C18.8714 35.0163 17.363 34.7745 15.9697 34.4712C16.4011 33.0784 16.9324 31.6311 17.553 30.159C17.9902 31.0035 18.4519 31.8473 18.9377 32.6863C19.4325 33.5411 19.9452 34.3783 20.4714 35.1948ZM27.6343 41.1154C26.6453 40.0484 25.6589 38.868 24.6954 37.5984C25.6307 37.6351 26.5842 37.6538 27.5533 37.6538C28.5488 37.6538 29.533 37.6314 30.5018 37.5883C29.5506 38.8808 28.5902 40.063 27.6343 41.1154ZM37.5937 30.084C38.2466 31.572 38.7969 33.0118 39.2339 34.3808C37.8177 34.7039 36.2886 34.9641 34.6776 35.1574C35.1846 34.3539 35.6852 33.5248 36.177 32.672C36.6746 31.8092 37.147 30.945 37.5937 30.084ZM34.3695 31.6295C33.606 32.9534 32.8221 34.2172 32.0263 35.4102C30.5769 35.5138 29.0795 35.5672 27.5533 35.5672C26.0332 35.5672 24.5547 35.52 23.1309 35.4276C22.303 34.219 21.5021 32.9514 20.7434 31.6409C19.9868 30.334 19.2905 29.016 18.6595 27.7054C19.2903 26.3918 19.9849 25.0724 20.7373 23.7678C21.4916 22.4597 22.2853 21.1986 23.1055 19.9976C24.5582 19.8878 26.0478 19.8305 27.5532 19.8305C29.0654 19.8305 30.557 19.8882 32.0092 19.999C32.8169 21.1912 33.6054 22.4485 34.3627 23.7567C35.1285 25.0797 35.8321 26.3903 36.4683 27.6758C35.834 28.9833 35.132 30.3072 34.3695 31.6295ZM38.674 8.32821C40.3097 9.27145 40.9458 13.0756 39.9181 18.0639C39.8525 18.3822 39.7787 18.7065 39.6986 19.035C37.6721 18.5674 35.4715 18.2195 33.1676 18.0033C31.8255 16.0921 30.4347 14.3545 29.0386 12.8502C29.4139 12.4891 29.7887 12.1448 30.162 11.8199C33.7681 8.68172 37.1384 7.44269 38.674 8.32821Z" fill="white"/>
</svg>
