<svg width="56" height="55" viewBox="0 0 56 55" fill="none" xmlns="http://www.w3.org/2000/svg">
<path d="M38.9357 38.1178C40.9654 37.9098 42.5052 36.1767 42.4352 34.097C42.3652 32.0172 40.6155 30.3534 38.5158 30.3534H38.3758C36.2061 30.4227 34.5264 32.2252 34.5964 34.3743C34.6663 35.4141 35.0863 36.3154 35.7162 36.9393C33.3365 41.5841 29.6971 44.981 24.2379 47.8233C20.5284 49.7644 16.679 50.4577 12.8295 49.9724C9.67999 49.5564 7.23034 48.1699 5.69057 45.8822C3.45089 42.4853 3.24092 38.8111 5.13065 35.1368C6.46045 32.5025 8.56015 30.5614 9.88996 29.5908C9.61 28.6896 9.19006 27.1645 8.98009 26.0553C-1.16843 33.3344 -0.118588 43.1785 2.96096 47.8233C5.27063 51.2896 9.95995 53.4386 15.1392 53.4386C16.539 53.4386 17.9388 53.3 19.3386 52.9534C28.2973 51.2202 35.0863 45.9515 38.9357 38.1178ZM51.2539 29.5215C45.9347 23.3516 38.0958 19.9547 29.1372 19.9547H28.0173C27.3874 18.7068 26.0576 17.8749 24.5878 17.8749H24.4478C22.2782 17.9443 20.5984 19.7467 20.6684 21.8958C20.7384 23.9755 22.4881 25.6393 24.5878 25.6393H24.7278C26.2676 25.57 27.5974 24.5994 28.1573 23.2823H29.4171C34.7363 23.2823 39.7756 24.8074 44.3249 27.7884C47.8244 30.0761 50.3441 33.0571 51.7439 36.662C52.9337 39.5736 52.8637 42.416 51.6039 44.8423C49.6442 48.5166 46.3546 50.527 42.0153 50.527C39.2157 50.527 36.5561 49.6951 35.1563 49.0712C34.3864 49.7644 32.9866 50.8736 32.0067 51.5669C35.0163 52.9534 38.0959 53.7159 41.0354 53.7159C47.7544 53.7159 52.7237 50.0417 54.6134 46.3675C56.6432 42.3466 56.5032 35.4141 51.2539 29.5215ZM15.6991 39.2963C15.7691 41.3761 17.5188 43.0399 19.6185 43.0399H19.7585C21.9282 42.9706 23.608 41.1681 23.538 39.019C23.468 36.9393 21.7182 35.2755 19.6185 35.2755H19.4786C19.3386 35.2755 19.1286 35.2755 18.9886 35.3448C16.119 30.6307 14.9292 25.5007 15.3492 19.9547C15.6291 15.7952 17.0289 12.1903 19.4786 9.20931C21.5083 6.64428 25.4277 5.39643 28.0873 5.32711C35.5062 5.18846 38.6558 14.3394 38.8657 18.0136C39.7756 18.2216 41.3154 18.7068 42.3652 19.0534C41.5253 7.82281 34.5264 1.99951 27.8073 1.99951C21.5083 1.99951 15.6991 6.50563 13.3894 13.1608C10.1699 22.0344 12.2696 30.5614 16.189 37.2859C15.8391 37.7712 15.6291 38.5338 15.6991 39.2963Z" fill="#764ABC"/>
</svg>
