<svg width="55" height="55" viewBox="0 0 55 55" fill="none" xmlns="http://www.w3.org/2000/svg">
<path d="M54.9999 36.517C54.9999 41.0186 51.8275 44.7786 47.5963 45.6841C46.9603 45.8208 46.3 45.8926 45.6233 45.8926H11.6598C10.7901 45.8926 9.94267 45.7976 9.12728 45.6163C3.90525 44.4605 -0.00012207 39.8028 -0.00012207 34.2337C-0.00012207 28.6636 3.90525 24.0058 9.12728 22.8501C9.2126 22.8307 9.29889 22.8123 9.38518 22.7958C9.43463 22.7861 9.38421 22.7677 9.38421 22.7677C9.37742 22.6019 9.37451 22.4351 9.37451 22.2684C9.37451 14.9405 15.315 9 22.6439 9C29.0313 9 34.3648 13.5133 35.6281 19.5255C36.9467 18.7033 38.5048 18.2282 40.1734 18.2282C44.9291 18.2282 48.7841 22.0842 48.7841 26.8398C48.7841 27.121 48.7705 27.3993 48.7433 27.6736C52.3879 28.9593 54.9999 32.4332 54.9999 36.517Z" fill="#3CADE7"/>
</svg>
