<?xml version="1.0" encoding="utf-8"?>
<!-- Generator: Adobe Illustrator 12.0.1, SVG Export Plug-In  -->
<!DOCTYPE svg PUBLIC "-//W3C//DTD SVG 1.1//EN" "http://www.w3.org/Graphics/SVG/1.1/DTD/svg11.dtd" [
	<!ENTITY ns_flows "http://ns.adobe.com/Flows/1.0/">
	<!ENTITY ns_svg "http://www.w3.org/2000/svg">
	<!ENTITY ns_xlink "http://www.w3.org/1999/xlink">
]>
<svg  version="1.1" xmlns="&ns_svg;" xmlns:xlink="&ns_xlink;" xmlns:a="http://ns.adobe.com/AdobeSVGViewerExtensions/3.0/"
	 width="25" height="25" viewBox="0 0 25 25" enable-background="new 0 0 25 25" xml:space="preserve">
<defs>
</defs>
<path fill="#231F20" d="M17.641,15.517c1.184-1.618,1.891-3.6,1.891-5.751C19.531,4.381,15.149,0,9.765,0S0,4.381,0,9.765
	s4.381,9.765,9.765,9.765c2.152,0,4.133-0.708,5.751-1.891l6.396,6.398l2.127-2.126L17.641,15.517L17.641,15.517z M9.765,16.526
	c-3.729,0-6.761-3.033-6.761-6.76c0-3.728,3.033-6.76,6.761-6.76c3.728,0,6.76,3.033,6.76,6.76
	C16.526,13.493,13.493,16.526,9.765,16.526L9.765,16.526z"/>
</svg>
