<svg height="512pt" viewBox="-14 0 512 512.0001" width="512pt" xmlns="http://www.w3.org/2000/svg"><path d="m119.878906 310.308594h305.246094c11.230469 0 21.058594-7.554688 23.941406-18.410156l35.449219-133.382813c4.019531-15.117187-6.804687-30.125-22.414063-31.089844l-366.054687-22.59375c-15.859375-.980469-28.527344 13.015625-25.976563 28.699219l25.355469 155.980469c1.953125 11.988281 12.304688 20.796875 24.453125 20.796875zm0 0" fill="#ff9500"/><path d="m96.046875 104.832031c-15.859375-.976562-28.527344 13.015625-25.976563 28.699219l25.355469 155.980469c1.949219 11.988281 12.304688 20.796875 24.453125 20.796875h146.246094v-194.976563zm0 0" fill="#ffa426"/><path d="m416.25 454.335938h-322.855469c-4.996093 0-9.742187-2.1875-12.988281-5.988282-3.246094-3.796875-4.660156-8.828125-3.878906-13.765625l15.046875-94.902343-44.128907-287.898438-38.136718-19.492188c-8.398438-4.292968-11.726563-14.582031-7.433594-22.980468 4.296875-8.398438 14.585938-11.726563 22.980469-7.433594l45.917969 23.472656c4.890624 2.496094 8.277343 7.191406 9.109374 12.621094l45.863282 299.167969c.265625 1.742187.261718 3.519531-.015625 5.261719l-12.332031 77.78125h302.851562c9.433594 0 17.078125 7.644531 17.078125 17.078124 0 9.433594-7.648437 17.078126-17.078125 17.078126zm0 0" fill="#cfcfcf"/><path d="m113.398438 420.179688 12.332031-77.78125c.277343-1.742188.28125-3.519532.015625-5.261719l-45.863282-299.167969c-.832031-5.425781-4.21875-10.125-9.109374-12.621094l-45.917969-23.472656c-8.394531-4.292969-18.683594-.964844-22.980469 7.433594-4.292969 8.398437-.964844 18.6875 7.433594 22.984375l38.132812 19.488281 44.132813 287.898438-15.046875 94.902343c-.785156 4.9375.632812 9.964844 3.878906 13.765625 3.246094 3.800782 7.992188 5.988282 12.988281 5.988282h164.089844v-34.15625zm0 0" fill="#d9d9d9"/><path d="m460.574219 467.675781c0 24.480469-19.84375 44.324219-44.324219 44.324219s-44.328125-19.84375-44.328125-44.324219 19.847656-44.328125 44.328125-44.328125 44.324219 19.847656 44.324219 44.328125zm0 0" fill="#383838"/><path d="m433.328125 467.675781c0 9.429688-7.648437 17.078125-17.078125 17.078125-9.433594 0-17.082031-7.648437-17.082031-17.078125 0-9.433593 7.648437-17.082031 17.082031-17.082031 9.429688 0 17.078125 7.648438 17.078125 17.082031zm0 0" fill="#adadad"/><path d="m140.730469 467.675781c0 24.480469-19.84375 44.324219-44.324219 44.324219s-44.328125-19.84375-44.328125-44.324219 19.847656-44.328125 44.328125-44.328125 44.324219 19.847656 44.324219 44.328125zm0 0" fill="#383838"/><path d="m113.484375 467.675781c0 9.429688-7.648437 17.078125-17.078125 17.078125-9.433594 0-17.078125-7.648437-17.078125-17.078125 0-9.433593 7.644531-17.082031 17.078125-17.082031 9.429688 0 17.078125 7.648438 17.078125 17.082031zm0 0" fill="#adadad"/><path d="m319.898438 247.394531-48.34375-48.347656 21.1875 4.082031c8.132812 1.566406 16-3.757812 17.566406-11.894531 1.566406-8.132813-3.757813-16-11.894532-17.5625l-69.21875-13.332031c-4.890624-.941406-9.921874.601562-13.441406 4.121094-3.519531 3.519531-5.066406 8.558593-4.125 13.445312l13.332032 69.21875c1.382812 7.175781 7.667968 12.164062 14.714843 12.164062.9375 0 1.894531-.089843 2.851563-.273437 8.136718-1.566406 13.460937-9.429687 11.894531-17.566406l-4.082031-21.1875 48.347656 48.34375c2.925781 2.929687 6.765625 4.394531 10.605469 4.394531 3.839843 0 7.675781-1.464844 10.605469-4.394531 5.859374-5.855469 5.859374-15.355469 0-21.210938zm0 0" fill="#f0f0f0"/><path d="m211.632812 177.90625 13.328126 69.21875c1.382812 7.175781 7.667968 12.164062 14.714843 12.164062.9375 0 1.894531-.089843 2.851563-.273437 8.136718-1.566406 13.460937-9.429687 11.894531-17.566406l-4.082031-21.1875 48.347656 48.34375c2.929688 2.929687 6.769531 4.394531 10.605469 4.394531 3.839843 0 7.679687-1.464844 10.609375-4.390625l-104.148438-104.148437c-3.519531 3.519531-5.066406 8.554687-4.121094 13.445312zm0 0" fill="#e4e4e4"/></svg>