<?xml version="1.0" encoding="utf-8"?>
<!-- Generator: Adobe Illustrator 12.0.1, SVG Export Plug-In  -->
<!DOCTYPE svg PUBLIC "-//W3C//DTD SVG 1.1//EN" "http://www.w3.org/Graphics/SVG/1.1/DTD/svg11.dtd" [
	<!ENTITY ns_flows "http://ns.adobe.com/Flows/1.0/">
	<!ENTITY ns_svg "http://www.w3.org/2000/svg">
	<!ENTITY ns_xlink "http://www.w3.org/1999/xlink">
]>
<svg  version="1.1" xmlns="&ns_svg;" xmlns:xlink="&ns_xlink;" xmlns:a="http://ns.adobe.com/AdobeSVGViewerExtensions/3.0/"
	 width="205" height="41" viewBox="0 -0.782 205 41" enable-background="new 0 -0.782 205 41" xml:space="preserve">
<defs>
</defs>
<path fill="#38A4DC" d="M23.393,11.531l4.44-5.305c0,0-1.375-2.017-5.386-4.129c-4.012-2.112-5.911-2.063-8.252-2.096
	S9.25,0.575,7.679,1.409C6.107,2.245,4.584,3.423,3.192,5.29c-1.392,1.867-1.703,5.075-1.719,6.058s0.311,4.125,1.441,5.73
	c1.129,1.605,2.521,2.849,4.044,3.668c1.522,0.818,4.604,1.982,6.761,2.504c2.505,0.606,5.19,1.883,5.632,2.161
	c0.442,0.278,2.406,1.654,1.981,3.93c-0.334,1.784-2.407,3.094-4.601,3.16c-2.194,0.064-5.076-0.196-7.826-0.771
	c-2.75-0.572-5.141-1.424-5.141-1.424L0,37.166c0,0,3.798,1.654,7.629,2.276s5.795,0.818,8.759,0.769
	c2.964-0.049,6.762-1.587,8.628-3.094c1.866-1.507,3.103-3.211,3.602-5.009c0.334-1.207,0.538-3.111,0.523-4.094
	c-0.024-1.642-0.507-3.667-1.326-4.961c-0.819-1.294-2.473-3.127-5.632-4.486c-1.919-0.825-6.074-2.112-7.777-2.636
	c-1.703-0.524-3.946-1.703-4.551-2.554c-0.606-0.852-0.852-2.128-0.376-3.406c0.475-1.277,1.752-2.03,2.865-2.243
	c1.114-0.213,3.602-0.606,6.074,0.639c2.472,1.244,2.718,1.506,3.274,1.932C22.25,10.725,23.393,11.531,23.393,11.531z"/>
<path fill="#38A4DC" d="M36.248,13.737l-4.617,5.698c0,0,7.302,9.691,8.252,10.969c0.95,1.276,6.876,9.038,6.876,9.038H55.6
	l-0.066-0.36c0,0-6.155-8.284-7.236-9.759C47.217,27.85,36.248,13.737,36.248,13.737z"/>
<polygon fill="#FFFFFF" points="55.141,0.804 46.202,0.804 36.26,13.688 40.819,19.558 "/>
<polygon fill="#FFFFFF" points="67.158,0.738 59.267,0.738 59.267,39.375 66.994,39.375 66.994,14.622 77.636,32.336 78.651,32.336 
	89.424,14.393 89.424,39.311 97.021,39.311 97.021,0.706 89.129,0.706 78.226,18.78 "/>
<g>
	<g>
		<path fill="#FFFFFF" d="M126.557,19.197c1.08-0.958,3.584-2.897,3.584-7.613s-2.172-6.944-3.415-8.142
			c-0.76-0.733-1.511-1.34-2.788-1.979c-0.884-0.442-2.246-0.657-2.57-0.729c-0.238-0.053-1.516-0.128-2.424-0.128
			c-0.909,0-15.816,0-15.816,0v38.654c0,0,16.528,0,17.191,0s4.862-0.516,7.343-2.849c2.479-2.333,3.807-4.322,3.807-8.473
			S129.527,20.597,126.557,19.197z M110.888,7.803c0,0,6.532,0.049,7.81,0.049c1.276,0,3.684,1.105,3.684,4.15
			c0,3.045-2.75,4.052-3.684,4.052c-0.933,0-7.81,0-7.81,0V7.803z M119.877,31.944c-1.18,0-9.015,0-9.015,0v-8.915
			c0,0,7.467,0.074,8.94,0.074c1.473,0,4.076,0.981,4.076,4.519C123.879,31.158,121.055,31.944,119.877,31.944z"/>
	</g>
</g>
<g>
	<g>
		<path fill="#FFFFFF" d="M157.326,24.576c0,0,3.497-1.067,5.635-4.472c1.449-2.308,1.685-5.425,1.685-6.53
			c0-1.105-0.383-6.608-3.772-9.678c-3.389-3.07-6.468-3.313-8.236-3.313c-1.228,0-16.307,0.024-16.307,0.024v38.557h7.687V25.754
			h5.746l7.736,13.532h8.275L157.326,24.576z M152.465,19.001c-1.276,0-8.473,0-8.473,0V7.729c0,0,6.409,0.024,8.178,0.024
			s4.739,2.063,4.739,5.722C156.909,17.134,153.742,19.001,152.465,19.001z"/>
	</g>
</g>
<g>
	<g>
		<path fill="#FFFFFF" d="M197.233,4.61c-3.755-3.057-7.44-4.052-10.977-4.052c-5.134,0-16.16,0-16.16,0v38.703
			c0,0,14.22,0,15.865,0c1.645,0,6.041-0.613,8.816-2.406c2.774-1.793,5.035-4.151,6.36-6.287c1.326-2.137,2.873-5.6,2.873-10.854
			C204.012,14.458,201.539,8.115,197.233,4.61z M195.932,24.208c-0.613,2.186-1.891,3.511-3.24,4.887
			c-1.352,1.376-4.618,2.604-6.018,2.604s-8.841,0-8.841,0V7.975c0,0,4.936-0.049,7.809-0.049c2.874,0,5.478,1.277,6.387,2.063
			c0.908,0.786,2.332,1.424,3.634,5.035C196.964,18.633,196.547,22.022,195.932,24.208z"/>
	</g>
</g>
</svg>
