<?xml version="1.0" encoding="utf-8"?>
<!-- Generator: Adobe Illustrator 12.0.1, SVG Export Plug-In  -->
<!DOCTYPE svg PUBLIC "-//W3C//DTD SVG 1.1//EN" "http://www.w3.org/Graphics/SVG/1.1/DTD/svg11.dtd" [
	<!ENTITY ns_flows "http://ns.adobe.com/Flows/1.0/">
	<!ENTITY ns_svg "http://www.w3.org/2000/svg">
	<!ENTITY ns_xlink "http://www.w3.org/1999/xlink">
]>
<svg  version="1.1" xmlns="&ns_svg;" xmlns:xlink="&ns_xlink;" xmlns:a="http://ns.adobe.com/AdobeSVGViewerExtensions/3.0/"
	 width="85" height="76" viewBox="-0.167 -0.838 85 76" enable-background="new -0.167 -0.838 85 76" xml:space="preserve">
<defs>
</defs>
<path fill="#38A4DC" d="M19.17,9.449l3.638-4.347c0,0-1.127-1.654-4.414-3.384c-3.287-1.731-4.843-1.69-6.762-1.717
	c-1.918-0.026-4.052,0.47-5.339,1.154c-1.289,0.685-2.536,1.65-3.677,3.18c-1.14,1.529-1.395,4.159-1.409,4.964
	c-0.014,0.806,0.255,3.381,1.181,4.696C3.314,15.31,4.455,16.33,5.702,17c1.248,0.671,3.773,1.625,5.542,2.053
	c2.053,0.497,4.253,1.543,4.615,1.771c0.363,0.228,1.973,1.355,1.624,3.221c-0.274,1.462-1.972,2.535-3.77,2.589
	c-1.798,0.054-4.16-0.161-6.414-0.63c-2.254-0.47-4.213-1.167-4.213-1.167L0,30.458c0,0,3.113,1.354,6.252,1.865
	c3.14,0.51,4.75,0.67,7.178,0.63c2.429-0.04,5.542-1.301,7.071-2.536c1.53-1.234,2.543-2.631,2.951-4.105
	c0.274-0.988,0.441-2.549,0.43-3.354c-0.02-1.345-0.416-3.006-1.087-4.065s-2.026-2.563-4.615-3.676
	c-1.574-0.676-4.978-1.73-6.373-2.16c-1.396-0.429-3.234-1.396-3.73-2.092c-0.497-0.699-0.698-1.745-0.309-2.791
	c0.389-1.047,1.437-1.665,2.349-1.838c0.912-0.175,2.951-0.497,4.978,0.523c2.026,1.019,2.227,1.234,2.684,1.583
	C18.234,8.789,19.17,9.449,19.17,9.449z"/>
<path fill="#38A4DC" d="M29.705,11.258l-3.784,4.669c0,0,5.984,7.942,6.762,8.989c0.779,1.047,5.635,7.407,5.635,7.407h7.246
	l-0.054-0.295c0,0-5.045-6.789-5.931-7.997C38.695,22.823,29.705,11.258,29.705,11.258z"/>
<polygon fill="#FFFFFF" points="45.188,0.659 37.862,0.659 29.715,11.217 33.452,16.028 "/>
<polygon fill="#FFFFFF" points="55.036,0.604 48.569,0.604 48.569,32.269 54.902,32.269 54.902,11.982 63.624,26.5 64.456,26.5 
	73.284,11.794 73.284,32.215 79.507,32.215 79.507,0.578 73.041,0.578 64.106,15.39 "/>
<g>
	<g>
		<path fill="#FFFFFF" d="M20.635,58.559c0.885-0.783,2.938-2.375,2.938-6.237c0-3.866-1.781-5.692-2.798-6.674
			c-0.623-0.6-1.238-1.098-2.285-1.62c-0.725-0.362-1.841-0.539-2.107-0.598c-0.195-0.045-1.242-0.105-1.987-0.105
			c-0.745,0-12.96,0-12.96,0v31.677c0,0,13.545,0,14.088,0s3.985-0.423,6.018-2.334c2.032-1.911,3.119-3.541,3.119-6.942
			C24.66,62.321,23.07,59.707,20.635,58.559z M7.795,49.222c0,0,5.354,0.039,6.4,0.039c1.046,0,3.019,0.907,3.019,3.401
			c0,2.497-2.253,3.32-3.019,3.32s-6.4,0-6.4,0V49.222z M15.161,69.004c-0.966,0-7.386,0-7.386,0v-7.306
			c0,0,6.118,0.062,7.325,0.062c1.208,0,3.341,0.804,3.341,3.703C18.441,68.361,16.127,69.004,15.161,69.004z"/>
	</g>
</g>
<g>
	<g>
		<path fill="#FFFFFF" d="M45.852,62.966c0,0,2.864-0.873,4.616-3.663c1.188-1.894,1.381-4.448,1.381-5.352
			c0-0.907-0.313-5.415-3.091-7.932c-2.777-2.515-5.301-2.716-6.749-2.716c-1.007,0-13.364,0.021-13.364,0.021v31.597h6.299V63.933
			h4.709l6.34,11.089h6.782L45.852,62.966z M41.867,58.398c-1.046,0-6.943,0-6.943,0V49.16c0,0,5.253,0.021,6.702,0.021
			c1.448,0,3.884,1.69,3.884,4.689S42.915,58.398,41.867,58.398z"/>
	</g>
</g>
<g>
	<g>
		<path fill="#FFFFFF" d="M78.556,46.604c-3.078-2.505-6.099-3.32-8.995-3.32c-4.207,0-13.242,0-13.242,0v31.717
			c0,0,11.652,0,12.999,0c1.35,0,4.95-0.503,7.227-1.972c2.274-1.471,4.124-3.401,5.212-5.151c1.086-1.752,2.354-4.589,2.354-8.896
			C84.111,54.677,82.083,49.477,78.556,46.604z M77.49,62.665c-0.504,1.791-1.551,2.878-2.656,4.006
			c-1.106,1.125-3.784,2.132-4.933,2.132c-1.146,0-7.242,0-7.242,0v-19.44c0,0,4.043-0.041,6.397-0.041s4.489,1.047,5.233,1.691
			c0.745,0.645,1.911,1.166,2.978,4.124C78.334,58.095,77.993,60.873,77.49,62.665z"/>
	</g>
</g>
</svg>
