<svg width="55" height="55" viewBox="0 0 55 55" fill="none" xmlns="http://www.w3.org/2000/svg">
<path d="M11.5953 34.7696C11.5953 37.9663 9.01365 40.5499 5.81943 40.5499C2.62521 40.5499 0.0435791 37.9663 0.0435791 34.7696C0.0435791 31.5729 2.62521 28.9893 5.81943 28.9893H11.5953V34.7696Z" fill="#E01E5A"/>
<path d="M14.4819 34.7676C14.4819 31.5709 17.0635 28.9873 20.2577 28.9873C23.4519 28.9873 26.0336 31.5709 26.0336 34.7676V49.2184C26.0336 52.4151 23.4519 54.9987 20.2577 54.9987C17.0635 54.9987 14.4819 52.4151 14.4819 49.2184V34.7676Z" fill="#E01E5A"/>
<path d="M20.2581 11.5606C17.0639 11.5606 14.4822 8.977 14.4822 5.78031C14.4822 2.58363 17.0639 0 20.2581 0C23.4523 0 26.0339 2.58363 26.0339 5.78031V11.5606H20.2581Z" fill="#36C5F0"/>
<path d="M20.2592 14.4937C23.4535 14.4937 26.0351 17.0773 26.0351 20.274C26.0351 23.4707 23.4535 26.0543 20.2592 26.0543H5.77585C2.58163 26.0543 0 23.4707 0 20.274C0 17.0773 2.58163 14.4937 5.77585 14.4937H20.2592Z" fill="#36C5F0"/>
<path d="M43.4047 20.2735C43.4047 17.0768 45.9864 14.4932 49.1806 14.4932C52.3748 14.4932 54.9564 17.0768 54.9564 20.2735C54.9564 23.4702 52.3748 26.0538 49.1806 26.0538H43.4047V20.2735Z" fill="#2EB67D"/>
<path d="M40.5181 20.2749C40.5181 23.4716 37.9365 26.0552 34.7423 26.0552C31.5481 26.0552 28.9664 23.4716 28.9664 20.2749V5.78031C28.9664 2.58363 31.5481 0 34.7423 0C37.9365 0 40.5181 2.58363 40.5181 5.78031V20.2749Z" fill="#2EB67D"/>
<path d="M34.7391 43.438C37.9333 43.438 40.515 46.0216 40.515 49.2183C40.515 52.415 37.9333 54.9986 34.7391 54.9986C31.5449 54.9986 28.9633 52.415 28.9633 49.2183V43.438H34.7391Z" fill="#ECB22E"/>
<path d="M34.7408 40.5494C31.5466 40.5494 28.965 37.9658 28.965 34.7691C28.965 31.5724 31.5466 28.9888 34.7408 28.9888H49.2242C52.4184 28.9888 55 31.5724 55 34.7691C55 37.9658 52.4184 40.5494 49.2242 40.5494H34.7408Z" fill="#ECB22E"/>
</svg>
