<?xml version="1.0" encoding="utf-8"?>
<!-- Generator: Adobe Illustrator 12.0.1, SVG Export Plug-In  -->
<!DOCTYPE svg PUBLIC "-//W3C//DTD SVG 1.1//EN" "http://www.w3.org/Graphics/SVG/1.1/DTD/svg11.dtd" [
	<!ENTITY ns_flows "http://ns.adobe.com/Flows/1.0/">
	<!ENTITY ns_svg "http://www.w3.org/2000/svg">
	<!ENTITY ns_xlink "http://www.w3.org/1999/xlink">
]>
<svg  version="1.1" xmlns="&ns_svg;" xmlns:xlink="&ns_xlink;" xmlns:a="http://ns.adobe.com/AdobeSVGViewerExtensions/3.0/"
	 width="101" height="100" viewBox="-1 -1 101 100" enable-background="new -1 -1 101 100" xml:space="preserve">
<defs>
</defs>
<linearGradient id="XMLID_6_" gradientUnits="userSpaceOnUse" x1="0" y1="49.3159" x2="99.6313" y2="49.3159">
	<stop  offset="0" style="stop-color:#0071BC"/>
	<stop  offset="1" style="stop-color:#00ADEF"/>
</linearGradient>
<path fill="url(#XMLID_6_)" d="M98.453,38.296H72.836l-49.424,0.188c0-3.631,8.824-18.517,27.37-17.819
	c10.812,0.41,17.35,5.747,21.039,10.442h24.404C88.627,12.579,76.418,6.159,68.982,3.084c-10.586-4.375-34.596-5.246-47.91,5.145
	C11.359,15.807,4.683,23.003,1.456,38.333c-2.33,8.486-1.292,18.506-0.757,21.461h22.399c-0.002-0.008-0.005-0.02-0.007-0.028
	l75.947,0.2C99.038,59.966,100.705,49.044,98.453,38.296z M45.178,77.316c-9.46-1.549-15.185-6.045-18.461-10.332H2.598
	c1.503,4.388,4.013,9.76,8.085,13.862c5.044,5.075,16.732,17.26,33.991,17.749C62.425,99.1,77.083,94.494,87.84,81.048
	c-6.319-3.23-19.497-10.896-19.497-10.896S60.781,79.871,45.178,77.316z"/>
</svg>
