<svg width="56" height="55" viewBox="0 0 56 55" fill="none" xmlns="http://www.w3.org/2000/svg">
<path d="M32.7889 52.909L23.2391 43.3495L43.753 22.6294L53.4789 32.3515L32.7889 52.909Z" fill="#8AB4F8"/>
<path d="M32.8581 11.7384L23.1345 2.01416L2.51582 22.6296C-0.170083 25.3128 -0.17231 29.6617 2.51137 32.3472C2.51359 32.3494 2.51582 32.3516 2.51582 32.3516L23.1345 52.967L32.6732 43.3853L17.0923 27.504L32.8581 11.7384Z" fill="#4285F4"/>
<path d="M53.4766 22.63L32.858 2.0146C30.1721 -0.670882 25.8181 -0.670882 23.1322 2.0146C20.4463 4.70008 20.4463 9.05341 23.1322 11.7367L43.7619 32.3521C46.4478 35.0376 50.8018 35.0376 53.4855 32.3521C56.1714 29.6666 56.1714 25.3133 53.4855 22.63H53.4766Z" fill="#8AB4F8"/>
<path d="M27.9204 54.9999C31.6842 54.9999 34.7354 51.9492 34.7354 48.186C34.7354 44.4228 31.6842 41.3721 27.9204 41.3721C24.1566 41.3721 21.1054 44.4228 21.1054 48.186C21.1054 51.9492 24.1566 54.9999 27.9204 54.9999Z" fill="#246FDB"/>
</svg>
