<svg id="Capa_1" enable-background="new 0 0 512 512" height="512" viewBox="0 0 512 512" width="512" xmlns="http://www.w3.org/2000/svg"><g><g><path d="m467 452c-8.284 0-15-6.716-15-15v-362c0-8.284 6.716-15 15-15s15 6.716 15 15v362c0 8.284-6.716 15-15 15z" fill="#c7cfe1"/></g><g><path d="m452 45c0 8.28-6.72 15-15 15h-362c-8.28 0-15-6.72-15-15s6.72-15 15-15h362c8.28 0 15 6.72 15 15z" fill="#dfe7f4"/></g><g><path d="m452 467c0 8.28-6.72 15-15 15h-362c-8.28 0-15-6.72-15-15s6.72-15 15-15h362c8.28 0 15 6.72 15 15z" fill="#dfe7f4"/></g><path d="m452 467c0 8.28-6.72 15-15 15h-181v-30h181c8.28 0 15 6.72 15 15z" fill="#c7cfe1"/><path d="m437 60h-181v-30h181c8.28 0 15 6.72 15 15s-6.72 15-15 15z" fill="#c7cfe1"/><g><g><path d="m45 452c-8.284 0-15-6.716-15-15v-362c0-8.284 6.716-15 15-15s15 6.716 15 15v362c0 8.284-6.716 15-15 15z" fill="#dfe7f4"/></g></g><g><g><path d="m407 90h-302c-8.28 0-15 6.72-15 15v90c0 8.28 6.72 15 15 15h30c8.28 0 15-6.72 15-15 0-8.27 6.73-15 15-15h46v152c0 8.27-6.73 15-15 15h-31c-8.28 0-15 6.72-15 15v45c0 8.28 6.72 15 15 15h182c8.28 0 15-6.72 15-15v-45c0-8.28-6.72-15-15-15h-31c-8.27 0-15-6.73-15-15v-152h46c8.27 0 15 6.73 15 15 0 8.28 6.72 15 15 15h30c8.28 0 15-6.72 15-15v-90c0-8.28-6.72-15-15-15z" fill="#7ed8f6"/></g></g><path d="m422 105v90c0 8.28-6.72 15-15 15h-30c-8.28 0-15-6.72-15-15 0-8.27-6.73-15-15-15h-46v152c0 8.27 6.73 15 15 15h31c8.28 0 15 6.72 15 15v45c0 8.28-6.72 15-15 15h-91v-332h151c8.28 0 15 6.72 15 15z" fill="#3aaaff"/><g><g><g><g><path d="m497 90h-60c-8.284 0-15-6.716-15-15v-60c0-8.284 6.716-15 15-15h60c8.284 0 15 6.716 15 15v60c0 8.284-6.716 15-15 15z" fill="#c7cfe1"/></g></g></g></g><g><g><g><g><path d="m497 512h-60c-8.284 0-15-6.716-15-15v-60c0-8.284 6.716-15 15-15h60c8.284 0 15 6.716 15 15v60c0 8.284-6.716 15-15 15z" fill="#c7cfe1"/></g></g></g></g><g><path d="m75 90h-60c-8.284 0-15-6.716-15-15v-60c0-8.284 6.716-15 15-15h60c8.284 0 15 6.716 15 15v60c0 8.284-6.716 15-15 15z" fill="#dfe7f4"/></g><g><path d="m75 512h-60c-8.284 0-15-6.716-15-15v-60c0-8.284 6.716-15 15-15h60c8.284 0 15 6.716 15 15v60c0 8.284-6.716 15-15 15z" fill="#dfe7f4"/></g></g></svg>