<?xml version="1.0" encoding="utf-8"?>
<!-- Generator: Adobe Illustrator 12.0.1, SVG Export Plug-In  -->
<!DOCTYPE svg PUBLIC "-//W3C//DTD SVG 1.1//EN" "http://www.w3.org/Graphics/SVG/1.1/DTD/svg11.dtd" [
	<!ENTITY ns_flows "http://ns.adobe.com/Flows/1.0/">
	<!ENTITY ns_svg "http://www.w3.org/2000/svg">
	<!ENTITY ns_xlink "http://www.w3.org/1999/xlink">
]>
<svg  version="1.1" xmlns="&ns_svg;" xmlns:xlink="&ns_xlink;" xmlns:a="http://ns.adobe.com/AdobeSVGViewerExtensions/3.0/"
	 width="24" height="20" viewBox="-0.053 -0.083 24 20" enable-background="new -0.053 -0.083 24 20" xml:space="preserve">
<defs>
</defs>
<path fill="#3AA4DC" d="M23.947,2.304c-0.89,0.391-1.84,0.649-2.827,0.775c1.017-0.608,1.795-1.563,2.159-2.714
	c-0.948,0.566-1.997,0.966-3.113,1.189C19.264,0.594,17.979,0,16.58,0c-2.718,0-4.906,2.206-4.906,4.911
	c0,0.389,0.033,0.763,0.113,1.119C7.706,5.832,4.094,3.875,1.667,0.895C1.244,1.63,0.995,2.471,0.995,3.376
	c0,1.7,0.875,3.208,2.181,4.08C2.387,7.442,1.613,7.213,0.958,6.852c0,0.015,0,0.035,0,0.054c0,2.386,1.702,4.368,3.934,4.825
	c-0.4,0.109-0.835,0.162-1.287,0.162c-0.314,0-0.632-0.02-0.93-0.084c0.636,1.943,2.441,3.373,4.588,3.418
	c-1.671,1.309-3.792,2.096-6.088,2.096c-0.402,0-0.789-0.02-1.175-0.068c2.175,1.402,4.752,2.203,7.532,2.203
	c9.035,0,13.973-7.484,13.973-13.971c0-0.217-0.008-0.426-0.019-0.634C22.462,4.161,23.28,3.297,23.947,2.304z"/>
</svg>
