<?xml version="1.0" encoding="utf-8"?>
<!-- Generator: Adobe Illustrator 12.0.1, SVG Export Plug-In  -->
<!DOCTYPE svg PUBLIC "-//W3C//DTD SVG 1.1//EN" "http://www.w3.org/Graphics/SVG/1.1/DTD/svg11.dtd" [
	<!ENTITY ns_flows "http://ns.adobe.com/Flows/1.0/">
	<!ENTITY ns_svg "http://www.w3.org/2000/svg">
	<!ENTITY ns_xlink "http://www.w3.org/1999/xlink">
]>
<svg  version="1.1" xmlns="&ns_svg;" xmlns:xlink="&ns_xlink;" xmlns:a="http://ns.adobe.com/AdobeSVGViewerExtensions/3.0/"
	 width="38" height="26" viewBox="-1 -0.221 38 26" enable-background="new -1 -0.221 38 26" xml:space="preserve">
<defs>
</defs>
<path fill="#F05262" d="M36.122,1.868v21.409c0,1.031-0.835,1.868-1.867,1.868H0V0h34.254C35.287,0,36.122,0.836,36.122,1.868z"/>
<path fill="#FFFFFF" d="M36.122,15.57v4.748H0V15.57H36.122z"/>
<path fill="#F05262" d="M18.061,10.51h18.061v5.061H18.061V10.51z"/>
<path fill="#FFFFFF" d="M18.061,5.06h18.061v5.45H18.061V5.06z"/>
<path fill="#8AA6D6" d="M18.061,15.57H0V0h18.061V15.57z"/>
<path fill="#FFFFFF" d="M5.241,10.484l1.075-0.781H4.988L4.577,8.44L4.167,9.703H2.838l1.075,0.781l-0.411,1.264l1.075-0.781
	l1.075,0.781L5.241,10.484z"/>
<path fill="#FFFFFF" d="M9.842,10.484l1.075-0.781H9.588L9.178,8.44L8.767,9.703H7.439l1.074,0.781l-0.41,1.264l1.075-0.781
	l1.075,0.781L9.842,10.484z"/>
<path fill="#FFFFFF" d="M14.216,10.484l1.075-0.781h-1.329L13.552,8.44l-0.411,1.263h-1.329l1.075,0.781l-0.41,1.264l1.075-0.781
	l1.075,0.781L14.216,10.484z"/>
<path fill="#FFFFFF" d="M5.241,5.432L6.316,4.65H4.988L4.577,3.387L4.167,4.65H2.838l1.075,0.782L3.502,6.695l1.075-0.78l1.075,0.78
	L5.241,5.432z"/>
<path fill="#FFFFFF" d="M9.842,5.432l1.075-0.782H9.588l-0.41-1.263L8.767,4.65H7.439l1.074,0.782l-0.41,1.263l1.075-0.78
	l1.075,0.78L9.842,5.432z"/>
<path fill="#FFFFFF" d="M14.216,5.432l1.075-0.782h-1.329l-0.411-1.263L13.141,4.65h-1.329l1.075,0.782l-0.41,1.263l1.075-0.78
	l1.075,0.78L14.216,5.432z"/>
</svg>
