<?xml version="1.0" encoding="utf-8"?>
<!-- Generator: Adobe Illustrator 12.0.1, SVG Export Plug-In  -->
<!DOCTYPE svg PUBLIC "-//W3C//DTD SVG 1.1//EN" "http://www.w3.org/Graphics/SVG/1.1/DTD/svg11.dtd" [
	<!ENTITY ns_flows "http://ns.adobe.com/Flows/1.0/">
	<!ENTITY ns_svg "http://www.w3.org/2000/svg">
	<!ENTITY ns_xlink "http://www.w3.org/1999/xlink">
]>
<svg  version="1.1" xmlns="&ns_svg;" xmlns:xlink="&ns_xlink;" xmlns:a="http://ns.adobe.com/AdobeSVGViewerExtensions/3.0/"
	 width="100" height="67" viewBox="-0.5 -0.616 100 67" enable-background="new -0.5 -0.616 100 67" xml:space="preserve">
<defs>
</defs>
<path fill="#F05262" d="M99.424,4.858v55.667c0,2.684-2.302,4.857-5.143,4.857H4.987c0,0-4.987,0.271-4.987-5.395
	c0-3.52,0-55.105,0-55.105L5.487,0h88.794C97.123,0,99.424,2.174,99.424,4.858z"/>
<path fill="#E8F6FB" d="M99.5,40.448v12.348H0.021V40.448H99.5z"/>
<path fill="#E8F6FB" d="M47.127,13.157h52.297v14.17H47.127V13.157z"/>
<path fill="#8AA6D6" d="M47.016,40.522H0.054V5.37c0,0-0.333-5.333,5.866-5.333c5.053,0,41.095,0,41.095,0V40.522z"/>
<path fill="#FFFFFF" d="M10.152,11.217c0.865-0.361,1.854-0.342,2.765,0.133c2.289,1.245,2.268,4.48,0,5.713
	c-1.167,0.609-2.431,0.438-3.324-0.165C7.509,15.526,7.684,12.245,10.152,11.217z"/>
<path fill="#FFFFFF" d="M22.901,11.03c1.644-0.315,3.241,0.633,3.731,2.235c0.518,1.619-0.383,3.495-2.157,4.038
	c-1.632,0.523-3.673-0.402-4.117-2.464C20.035,13.158,21.038,11.433,22.901,11.03L22.901,11.03z"/>
<path fill="#FFFFFF" d="M35.047,11.03c2.172-0.417,4.062,1.356,3.856,3.494c-0.354,3.655-5.612,3.969-6.398,0.315
	C32.179,13.151,33.188,11.432,35.047,11.03z"/>
<path fill="#FFFFFF" d="M9.592,29.044c-2.897-1.909-1.089-6.544,2.431-5.87c1.315,0.285,2.262,1.234,2.543,2.543
	C15.124,28.616,11.92,30.614,9.592,29.044L9.592,29.044z"/>
<path fill="#FFFFFF" d="M22.901,23.175c1.904-0.364,3.673,0.97,3.857,2.86c0.172,1.812-1.16,3.372-2.905,3.54
	c-1.58,0.152-3.119-0.85-3.494-2.588C20.034,25.293,21.046,23.576,22.901,23.175z"/>
<path fill="#FFFFFF" d="M37.479,23.659c0.668,0.44,1.182,1.145,1.377,2.059c0.706,3.66-4.267,5.407-6.032,2.16
	C31.256,24.868,34.722,21.801,37.479,23.659z"/>
</svg>
