<?xml version="1.0" encoding="utf-8"?>
<!-- Generator: Adobe Illustrator 23.1.0, SVG Export Plug-In . SVG Version: 6.00 Build 0)  -->
<svg version="1.1" id="Layer_1" xmlns="http://www.w3.org/2000/svg" xmlns:xlink="http://www.w3.org/1999/xlink" x="0px" y="0px"
	 width="900px" height="220px" viewBox="0 0 900 220" style="enable-background:new 0 0 900 220;" xml:space="preserve">
<rect x="583" y="82.9" width="31.5" height="136.2"/>
<path d="M553.5,162c-3.7-5.4-8.9-9.6-15.5-12.4c-1.2-0.5-2.4-1-3.7-1.4c5.3-2.8,9.5-6.5,12.7-11.3c3.5-5.3,5.3-11.4,5.3-18.6
	c0-10.6-4.3-19.2-12.9-25.7c-8.6-6.5-21.5-9.7-38.6-9.7h-66.6v78.8h31.3h4.8h32c8.2,0,14.4,1.4,18.6,4.2c4.2,2.8,6.3,7,6.3,12.7
	c0,5.8-2.1,10.1-6.3,12.7c-4.2,2.7-10.4,4-18.6,4h-32h-4.8h-56.1L359,82.9h-31.1l-49.3,110.5h-91.3l74.6-90.1V82.9H122.4l0,0H92.2
	V158c0,13-2.7,22.3-8,28s-12.8,8.6-22.4,8.6s-17.1-2.9-22.4-8.6c-5.3-5.7-8-15-8-28V82.9H0v76.3c0,20,5.4,35.4,16.3,46.1
	c10.9,10.8,26,16.2,45.3,16.2s34.4-5.4,45.3-16.2s16.3-26.1,16.3-46.1v-50.6h97.1l-74.7,90.1v20.4H267h32.1h0.2l11.2-27l0,0
	l14.1-33.9l0,0l18.5-44.4l16.3,39.4l0,0l16.1,38.9l0,0l11.2,27H398h21.9h84.6c17.9,0,31.5-3.3,40.7-9.8S559,193.6,559,182
	C559.1,174.1,557.2,167.4,553.5,162z M514.4,134.8c-4.1,2.7-10,4-17.6,4h-31.3v-32.1h31.3c7.7,0,13.5,1.3,17.6,4
	c4.1,2.7,6.1,6.7,6.1,12C520.5,128.1,518.5,132.1,514.4,134.8z"/>
<polygon points="839.1,82.9 808,82.9 758.7,193.5 678.4,193.5 678.4,82.9 646.8,82.9 646.8,219.2 779.4,219.2 779.4,219.2 
	779.5,219.2 791.7,190 791.7,190 806.6,154 806.6,154 823.3,113.9 839.3,152.6 839.3,152.6 854.9,190.1 866.9,219.2 900,219.2 "/>
<g>
	<path d="M323.9,41.5c-2.8,0-5.5-0.5-7.9-1.4c-2.4-0.9-4.5-2.3-6.3-4c-1.8-1.7-3.2-3.7-4.2-6.1s-1.5-4.9-1.5-7.6
		c0-2.8,0.5-5.3,1.5-7.6s2.4-4.4,4.2-6.1c1.8-1.7,3.9-3,6.3-4c2.4-0.9,5-1.4,7.9-1.4c3,0,5.8,0.5,8.3,1.6c2.5,1,4.6,2.6,6.4,4.6
		l-4.5,4.2c-1.3-1.4-2.8-2.5-4.5-3.3c-1.7-0.7-3.5-1.1-5.4-1.1s-3.7,0.3-5.3,1c-1.6,0.6-3,1.5-4.2,2.7c-1.2,1.2-2.1,2.5-2.8,4.1
		c-0.7,1.6-1,3.3-1,5.2c0,1.9,0.3,3.7,1,5.2c0.7,1.6,1.6,3,2.8,4.1c1.2,1.2,2.6,2.1,4.2,2.7c1.6,0.6,3.4,1,5.3,1s3.7-0.4,5.4-1.1
		c1.7-0.7,3.2-1.8,4.5-3.3l4.5,4.2c-1.7,2-3.9,3.6-6.4,4.6S327,41.5,323.9,41.5z"/>
	<path d="M344.6,41V12.7h6.3v7.8l-0.7-2.3c0.8-1.9,2.2-3.4,4-4.3c1.8-1,4.1-1.5,6.8-1.5v6.3c-0.3-0.1-0.5-0.1-0.8-0.1
		c-0.2,0-0.5,0-0.7,0c-2.5,0-4.5,0.7-6,2.2c-1.5,1.5-2.2,3.6-2.2,6.5V41H344.6z"/>
	<path d="M379.6,41.4c-3.1,0-5.9-0.6-8.2-1.9c-2.4-1.3-4.2-3-5.5-5.2c-1.3-2.2-1.9-4.7-1.9-7.5c0-2.8,0.6-5.3,1.9-7.5
		c1.3-2.2,3-3.9,5.2-5.1c2.2-1.2,4.7-1.9,7.6-1.9c2.8,0,5.2,0.6,7.4,1.8c2.2,1.2,3.9,2.9,5.1,5.1c1.2,2.2,1.9,4.8,1.9,7.7
		c0,0.3,0,0.6,0,1c0,0.4,0,0.7-0.1,1h-23.6v-4.4h20.1l-2.6,1.4c0-1.6-0.3-3.1-1-4.3c-0.7-1.2-1.7-2.2-2.9-2.9
		c-1.2-0.7-2.6-1.1-4.2-1.1c-1.6,0-3,0.4-4.3,1.1c-1.2,0.7-2.2,1.7-2.9,2.9c-0.7,1.3-1,2.7-1,4.4v1.1c0,1.7,0.4,3.2,1.2,4.5
		c0.8,1.3,1.9,2.3,3.3,3c1.4,0.7,3,1.1,4.9,1.1c1.6,0,3-0.2,4.3-0.7c1.3-0.5,2.4-1.3,3.4-2.3l3.6,4.1c-1.3,1.5-2.9,2.6-4.8,3.4
		C384.3,41,382.1,41.4,379.6,41.4z"/>
	<path d="M407,41.4c-2.1,0-4-0.4-5.6-1.1c-1.6-0.7-2.8-1.7-3.7-3c-0.9-1.3-1.3-2.7-1.3-4.4c0-1.6,0.4-3,1.1-4.3s2-2.3,3.7-3
		c1.7-0.7,4-1.1,6.9-1.1h8.2v4.4h-7.7c-2.3,0-3.8,0.4-4.6,1.1c-0.8,0.7-1.2,1.6-1.2,2.7c0,1.2,0.5,2.2,1.4,2.9c1,0.7,2.3,1.1,4,1.1
		c1.6,0,3.1-0.4,4.4-1.1c1.3-0.7,2.2-1.8,2.8-3.3l1.1,4c-0.6,1.7-1.8,3-3.4,3.9C411.6,40.9,409.6,41.4,407,41.4z M415.9,41v-5.7
		l-0.4-1.2V24c0-1.9-0.6-3.5-1.7-4.5c-1.2-1.1-2.9-1.6-5.3-1.6c-1.6,0-3.2,0.2-4.7,0.7c-1.5,0.5-2.8,1.2-3.9,2.1l-2.6-4.8
		c1.5-1.2,3.3-2,5.4-2.6s4.3-0.9,6.5-0.9c4.1,0,7.3,1,9.5,2.9c2.2,2,3.4,5,3.4,9.1V41H415.9z"/>
	<path d="M426.9,18.2v-5.3h18.9v5.3H426.9z M441.3,41.4c-3.1,0-5.5-0.8-7.2-2.4c-1.7-1.6-2.5-4-2.5-7.1V6.4h6.6v25.2
		c0,1.3,0.3,2.4,1,3.1c0.7,0.7,1.7,1.1,2.9,1.1c1.5,0,2.7-0.4,3.7-1.2l1.9,4.7c-0.8,0.6-1.7,1.1-2.9,1.4S442.5,41.4,441.3,41.4z"/>
	<path d="M465.5,41.4c-3.1,0-5.9-0.6-8.2-1.9c-2.4-1.3-4.2-3-5.5-5.2c-1.3-2.2-1.9-4.7-1.9-7.5c0-2.8,0.6-5.3,1.9-7.5
		c1.3-2.2,3-3.9,5.2-5.1c2.2-1.2,4.7-1.9,7.6-1.9c2.8,0,5.2,0.6,7.4,1.8c2.2,1.2,3.9,2.9,5.1,5.1c1.2,2.2,1.9,4.8,1.9,7.7
		c0,0.3,0,0.6,0,1c0,0.4,0,0.7-0.1,1h-23.6v-4.4h20.1l-2.6,1.4c0-1.6-0.3-3.1-1-4.3c-0.7-1.2-1.7-2.2-2.9-2.9
		c-1.2-0.7-2.6-1.1-4.2-1.1c-1.6,0-3,0.4-4.3,1.1c-1.2,0.7-2.2,1.7-2.9,2.9c-0.7,1.3-1,2.7-1,4.4v1.1c0,1.7,0.4,3.2,1.2,4.5
		c0.8,1.3,1.9,2.3,3.3,3c1.4,0.7,3,1.1,4.9,1.1c1.6,0,3-0.2,4.3-0.7c1.3-0.5,2.4-1.3,3.4-2.3l3.6,4.1c-1.3,1.5-2.9,2.6-4.8,3.4
		C470.2,41,468,41.4,465.5,41.4z"/>
	<path d="M497.1,41.4c-2.7,0-5.2-0.6-7.3-1.8c-2.2-1.2-3.9-2.9-5.1-5.1c-1.2-2.2-1.9-4.7-1.9-7.6c0-2.9,0.6-5.5,1.9-7.6
		c1.2-2.2,2.9-3.8,5.1-5c2.2-1.2,4.6-1.8,7.3-1.8c2.4,0,4.5,0.5,6.4,1.6c1.9,1,3.4,2.6,4.5,4.7c1.1,2.1,1.6,4.8,1.6,8.2
		c0,3.3-0.5,6-1.6,8.1c-1.1,2.1-2.5,3.7-4.4,4.8C501.7,40.8,499.6,41.4,497.1,41.4z M497.9,35.7c1.6,0,3-0.4,4.3-1.1
		c1.3-0.7,2.3-1.7,3-3.1c0.8-1.3,1.1-2.9,1.1-4.7c0-1.8-0.4-3.4-1.1-4.7s-1.8-2.3-3-3c-1.3-0.7-2.7-1.1-4.3-1.1
		c-1.6,0-3,0.4-4.3,1.1c-1.3,0.7-2.3,1.7-3,3s-1.1,2.9-1.1,4.7c0,1.8,0.4,3.4,1.1,4.7c0.8,1.3,1.8,2.4,3,3.1
		C494.9,35.3,496.3,35.7,497.9,35.7z M506.5,41v-6.7l0.3-7.5l-0.5-7.5V1.7h6.6V41H506.5z"/>
	<path d="M536.2,41V1.7h6.6v17.6l-0.5,7.5l0.2,7.5V41H536.2z M551.9,41.4c-2.4,0-4.5-0.5-6.4-1.6c-1.9-1.1-3.3-2.7-4.4-4.8
		c-1.1-2.1-1.6-4.8-1.6-8.1c0-3.3,0.6-6,1.7-8.2c1.1-2.1,2.6-3.7,4.5-4.7c1.9-1,4-1.6,6.3-1.6c2.8,0,5.3,0.6,7.4,1.8
		c2.1,1.2,3.8,2.9,5.1,5c1.3,2.2,1.9,4.7,1.9,7.6c0,2.9-0.6,5.5-1.9,7.6c-1.3,2.2-3,3.8-5.1,5.1C557.1,40.8,554.7,41.4,551.9,41.4z
		 M551.2,35.7c1.6,0,3-0.4,4.3-1.1c1.3-0.7,2.3-1.7,3-3.1c0.7-1.3,1.1-2.9,1.1-4.7c0-1.8-0.4-3.4-1.1-4.7s-1.7-2.3-3-3
		c-1.3-0.7-2.7-1.1-4.3-1.1s-3,0.4-4.3,1.1c-1.3,0.7-2.3,1.7-3,3s-1.1,2.9-1.1,4.7c0,1.8,0.4,3.4,1.1,4.7c0.7,1.3,1.7,2.4,3,3.1
		C548.1,35.3,549.6,35.7,551.2,35.7z"/>
	<path d="M574.1,51.7c-1.4,0-2.8-0.2-4.1-0.7c-1.4-0.5-2.5-1.1-3.4-1.9l2.7-4.9c0.7,0.6,1.4,1.1,2.3,1.4c0.8,0.4,1.7,0.5,2.6,0.5
		c1.2,0,2.2-0.3,2.9-0.9c0.7-0.6,1.4-1.6,2.1-3l1.6-3.7l0.5-0.8l10.7-25h6.4L585,43.3c-0.9,2.1-1.9,3.8-2.9,5
		c-1.1,1.2-2.3,2.1-3.6,2.6C577.1,51.4,575.7,51.7,574.1,51.7z M579.9,42l-12.8-29.3h6.9l10.4,24.4L579.9,42z"/>
</g>
</svg>
