<?xml version="1.0" encoding="utf-8"?>
<!-- Generator: Adobe Illustrator 12.0.1, SVG Export Plug-In  -->
<!DOCTYPE svg PUBLIC "-//W3C//DTD SVG 1.1//EN" "http://www.w3.org/Graphics/SVG/1.1/DTD/svg11.dtd" [
	<!ENTITY ns_flows "http://ns.adobe.com/Flows/1.0/">
	<!ENTITY ns_svg "http://www.w3.org/2000/svg">
	<!ENTITY ns_xlink "http://www.w3.org/1999/xlink">
]>
<svg  version="1.1" xmlns="&ns_svg;" xmlns:xlink="&ns_xlink;" xmlns:a="http://ns.adobe.com/AdobeSVGViewerExtensions/3.0/"
	 width="25" height="24" viewBox="0 0 25 24" enable-background="new 0 0 25 24" xml:space="preserve">
<defs>
</defs>
<path fill="#28A7DF" d="M0,1.727c0,0,0,11.295,0,12.085c0,0.788,0.227,2.604,0.375,3.354c0.148,0.748,0.582,1.863,0.967,2.544
	s0.809,1.135,1.391,1.628c0.582,0.494,1.48,1.203,2.407,1.599c0.928,0.394,1.677,0.552,2.584,0.661
	c0.908,0.107,1.451,0.126,2.151,0.126c0.701,0,2.673-0.116,3.482-0.296c0.809-0.177,2.802-0.915,3.313-1.458
	c-0.117-0.612-0.167-2.033,0.247-2.9c0.415-0.869,0.977-1.549,1.51-1.885c0.532-0.335,0.286-0.375,1.578-0.65
	c0-1.008,0-16.534,0-16.534s-1.776,0.276-2.881,0.651s-2.407,1.233-2.82,1.687c-0.415,0.454-0.761,1.648-0.761,2.526
	c0,0.877,0,8.157,0,8.71c0,0.552-0.108,1.204-0.217,1.835c-0.108,0.632-0.858,1.263-1.184,1.479
	c-0.326,0.217-1.164,0.482-1.706,0.482c-0.543,0-1.529-0.039-2.2-0.521c-0.671-0.484-0.789-0.641-0.986-0.977
	c-0.197-0.335-0.316-0.68-0.316-1.104c0-0.426,0-5.919,0-6.699s-0.089-1.46-0.474-2.447C6.077,4.637,5.939,4.38,5.426,3.788
	C4.913,3.197,4.518,2.763,3.69,2.417C2.861,2.072,0,1.727,0,1.727z"/>
<circle fill="#1852A4" cx="21.122" cy="20.833" r="2.908"/>
<path fill="#2E2E81" d="M0.007,1.733c0,0,3.225,0.324,4.158,0.932C4.821,3.092,5.204,3.522,5.5,3.876
	c0.17,0.204,0.334,0.385,0.443,0.591c0.295,0.562,0.394,0.823,0.608,1.42c0.22,0.61,0.38,1.53,0.38,2.053c0,0.522,0,5.875,0,6.585
	c0,0.522,0.042,0.944,0.315,1.392c0.216,0.354,0.305,0.384,0.587,0.671c0.434,0.442,1.124,0.783,2.516,0.783
	c0.282,0,0.646-0.053,0.972-0.143c0.391-0.105,0.7-0.257,0.863-0.372c0.125-0.088,0.383-0.269,0.602-0.501
	c0.305-0.322,0.575-0.731,0.627-1.064c0.151-0.977,0.132-1.771,0.132-1.771s-0.271,1.021-0.921,1.543
	c-0.651,0.524-1.164,0.78-2.042,0.78c-0.878,0-1.569-0.207-2.091-0.759c-0.523-0.553-0.483-0.76-0.483-0.967
	c0-0.208,0-4.824,0-5.535S7.907,6.846,7.7,6.028C7.493,5.209,7.079,4.104,6.29,3.216C5.5,2.328,4.553,2.022,3.606,1.855
	C2.66,1.687,0.007,1.733,0.007,1.733z"/>
<path fill="#2E2E81" d="M20.004,1.923v14.599c0,0,0.94-0.121,1.654,0.063c0,0,0.306-0.645,0.384-0.94s0.331-1.056,0.331-2.039
	c0-0.984,0-12.231,0-12.231s-0.55-0.015-1.211,0.096C20.427,1.592,20.004,1.923,20.004,1.923z"/>
</svg>
