<?xml version="1.0" encoding="utf-8"?>
<!-- Generator: Adobe Illustrator 23.1.0, SVG Export Plug-In . SVG Version: 6.00 Build 0)  -->
<svg version="1.1" id="Layer_1" xmlns="http://www.w3.org/2000/svg" xmlns:xlink="http://www.w3.org/1999/xlink" x="0px" y="0px"
	 width="900px" height="220px" viewBox="0 0 900 220" style="enable-background:new 0 0 900 220;" xml:space="preserve">
<style type="text/css">
	.st0{fill:#FFFFFF;}
</style>
<rect x="583" y="82.9" class="st0" width="31.5" height="136.2"/>
<path class="st0" d="M553.5,162c-3.7-5.4-8.9-9.6-15.5-12.4c-1.2-0.5-2.4-1-3.7-1.4c5.3-2.8,9.5-6.5,12.7-11.3
	c3.5-5.3,5.3-11.4,5.3-18.6c0-10.6-4.3-19.2-12.9-25.7c-8.6-6.5-21.5-9.7-38.6-9.7h-66.6v78.8h31.3h4.8h32c8.2,0,14.4,1.4,18.6,4.2
	c4.2,2.8,6.3,7,6.3,12.7c0,5.8-2.1,10.1-6.3,12.7c-4.2,2.7-10.4,4-18.6,4h-32h-4.8h-56.1L359,82.9h-31.1l-49.3,110.5h-91.3
	l74.6-90.1V82.9H122.4l0,0H92.2V158c0,13-2.7,22.3-8,28s-12.8,8.6-22.4,8.6s-17.1-2.9-22.4-8.6c-5.3-5.7-8-15-8-28V82.9H0v76.3
	c0,20,5.4,35.4,16.3,46.1c10.9,10.8,26,16.2,45.3,16.2s34.4-5.4,45.3-16.2s16.3-26.1,16.3-46.1v-50.6h97.1l-74.7,90.1v20.4H267h32.1
	h0.2l11.2-27l0,0l14.1-33.9l0,0l18.5-44.4l16.3,39.4l0,0l16.1,38.9l0,0l11.2,27H398h21.9h84.6c17.9,0,31.5-3.3,40.7-9.8
	S559,193.6,559,182C559.1,174.1,557.2,167.4,553.5,162z M514.4,134.8c-4.1,2.7-10,4-17.6,4h-31.3v-32.1h31.3c7.7,0,13.5,1.3,17.6,4
	c4.1,2.7,6.1,6.7,6.1,12C520.5,128.1,518.5,132.1,514.4,134.8z"/>
<polygon class="st0" points="839.1,82.9 808,82.9 758.7,193.5 678.4,193.5 678.4,82.9 646.8,82.9 646.8,219.2 779.4,219.2 
	779.4,219.2 779.5,219.2 791.7,190 791.7,190 806.6,154 806.6,154 823.3,113.9 839.3,152.6 839.3,152.6 854.9,190.1 866.9,219.2 
	900,219.2 "/>
<path class="st0" d="M323.9,45.6c-2.8,0-5.5-0.5-7.9-1.4c-2.4-0.9-4.5-2.3-6.3-4c-1.8-1.7-3.2-3.7-4.2-6.1s-1.5-4.9-1.5-7.6
	c0-2.8,0.5-5.3,1.5-7.6s2.4-4.4,4.2-6.1c1.8-1.7,3.9-3,6.3-4c2.4-0.9,5-1.4,7.9-1.4c3,0,5.8,0.5,8.3,1.6c2.5,1,4.6,2.6,6.4,4.6
	l-4.5,4.2c-1.3-1.4-2.8-2.5-4.5-3.3c-1.7-0.7-3.5-1.1-5.4-1.1s-3.7,0.3-5.3,1c-1.6,0.6-3,1.5-4.2,2.7c-1.2,1.2-2.1,2.5-2.8,4.1
	c-0.7,1.6-1,3.3-1,5.2c0,1.9,0.3,3.7,1,5.2c0.7,1.6,1.6,3,2.8,4.1c1.2,1.2,2.6,2.1,4.2,2.7c1.6,0.6,3.4,1,5.3,1s3.7-0.4,5.4-1.1
	c1.7-0.7,3.2-1.8,4.5-3.3l4.5,4.2c-1.7,2-3.9,3.6-6.4,4.6S327,45.6,323.9,45.6z"/>
<path class="st0" d="M354.2,17.9c-1.4,0.7-2.4,1.7-3.3,3v-4.1h-6.3V45h6.6V31.3c0-2.9,0.7-5.1,2.2-6.5c1.5-1.5,3.5-2.2,6-2.2
	c0.2,0,0.5,0,0.7,0c0.2,0,0.5,0.1,0.8,0.1v-6.3C358.3,16.4,356,16.9,354.2,17.9z"/>
<path class="st0" d="M391.1,23.3c-1.2-2.2-2.9-3.9-5.1-5.1c-2.2-1.2-4.6-1.8-7.4-1.8c-2.8,0-5.3,0.6-7.6,1.9
	c-2.2,1.2-3.9,2.9-5.2,5.1c-1.3,2.2-1.9,4.7-1.9,7.5c0,2.8,0.6,5.3,1.9,7.5c1.3,2.2,3.1,3.9,5.5,5.2c2.3,1.3,5.1,1.9,8.2,1.9
	c2.5,0,4.7-0.4,6.6-1.2c1.9-0.8,3.5-1.9,4.8-3.4l-3.6-4.1c-1,1.1-2.1,1.8-3.4,2.3c-1.3,0.5-2.7,0.7-4.3,0.7c-1.8,0-3.5-0.4-4.9-1.1
	c-1.4-0.7-2.5-1.7-3.3-3c-0.5-0.8-0.8-1.7-1-2.7h22.2c0-0.3,0.1-0.7,0.1-1c0-0.4,0-0.7,0-1C392.9,28.1,392.3,25.5,391.1,23.3z
	 M371.5,25.7c0.7-1.3,1.6-2.2,2.9-2.9c1.2-0.7,2.6-1.1,4.3-1.1c1.6,0,3,0.4,4.2,1.1c1.2,0.7,2.2,1.7,2.9,2.9
	c0.5,0.9,0.8,1.8,0.9,2.9h-16.1C370.7,27.6,371,26.6,371.5,25.7z"/>
<path class="st0" d="M418.8,19.4c-2.2-2-5.4-2.9-9.5-2.9c-2.3,0-4.4,0.3-6.5,0.9s-3.9,1.5-5.4,2.6l2.6,4.8c1.1-0.9,2.4-1.6,3.9-2.1
	c1.5-0.5,3.1-0.7,4.7-0.7c2.4,0,4.1,0.5,5.3,1.6c1.2,1.1,1.7,2.6,1.7,4.5v0.4h-7.3c-2.9,0-5.2,0.4-6.9,1.1c-1.7,0.7-3,1.7-3.7,3
	s-1.1,2.7-1.1,4.3c0,1.6,0.4,3.1,1.3,4.4c0.9,1.3,2.1,2.3,3.7,3c1.6,0.7,3.4,1.1,5.6,1.1c2.5,0,4.6-0.5,6.2-1.4
	c1.1-0.6,2-1.5,2.7-2.5V45h6.3V28.5C422.2,24.4,421.1,21.3,418.8,19.4z M412.8,39.5c-1.3,0.7-2.7,1.1-4.4,1.1c-1.7,0-3-0.4-4-1.1
	c-1-0.7-1.4-1.7-1.4-2.9c0-1.1,0.4-2,1.2-2.7c0.8-0.7,2.3-1.1,4.6-1.1h6.8v3.3C415,37.6,414.1,38.7,412.8,39.5z"/>
<path class="st0" d="M445.8,38.8c-1,0.8-2.2,1.2-3.7,1.2c-1.2,0-2.2-0.4-2.9-1.1c-0.7-0.7-1-1.8-1-3.1V22.3h7.6V17h-7.6v-6.5h-6.6
	V17h-4.7v5.3h4.7v13.6c0,3.1,0.8,5.5,2.5,7.1c1.7,1.6,4.1,2.4,7.2,2.4c1.2,0,2.4-0.2,3.5-0.5s2.1-0.8,2.9-1.4L445.8,38.8z"/>
<path class="st0" d="M477,23.3c-1.2-2.2-2.9-3.9-5.1-5.1c-2.2-1.2-4.6-1.8-7.4-1.8c-2.8,0-5.3,0.6-7.6,1.9c-2.2,1.2-3.9,2.9-5.2,5.1
	c-1.3,2.2-1.9,4.7-1.9,7.5c0,2.8,0.6,5.3,1.9,7.5c1.3,2.2,3.1,3.9,5.5,5.2c2.3,1.3,5.1,1.9,8.2,1.9c2.5,0,4.7-0.4,6.6-1.2
	c1.9-0.8,3.5-1.9,4.8-3.4l-3.6-4.1c-1,1.1-2.1,1.8-3.4,2.3c-1.3,0.5-2.7,0.7-4.3,0.7c-1.8,0-3.5-0.4-4.9-1.1c-1.4-0.7-2.5-1.7-3.3-3
	c-0.5-0.8-0.8-1.7-1-2.7h22.2c0-0.3,0.1-0.7,0.1-1c0-0.4,0-0.7,0-1C478.8,28.1,478.2,25.5,477,23.3z M457.4,25.7
	c0.7-1.3,1.6-2.2,2.9-2.9c1.2-0.7,2.6-1.1,4.3-1.1c1.6,0,3,0.4,4.2,1.1c1.2,0.7,2.2,1.7,2.9,2.9c0.5,0.9,0.8,1.8,0.9,2.9h-16.1
	C456.6,27.6,456.9,26.6,457.4,25.7z"/>
<path class="st0" d="M506.3,5.7v14.5c-0.8-0.9-1.7-1.7-2.8-2.3c-1.9-1-4-1.6-6.4-1.6c-2.7,0-5.2,0.6-7.3,1.8c-2.2,1.2-3.9,2.9-5.1,5
	c-1.2,2.2-1.9,4.7-1.9,7.6c0,2.9,0.6,5.5,1.9,7.6c1.2,2.2,2.9,3.8,5.1,5.1c2.2,1.2,4.6,1.8,7.3,1.8c2.4,0,4.6-0.5,6.5-1.6
	c1.1-0.6,2.1-1.5,2.9-2.5V45h6.3V5.7H506.3z M505.2,35.6c-0.8,1.3-1.8,2.4-3,3.1c-1.3,0.7-2.7,1.1-4.3,1.1c-1.6,0-3-0.4-4.3-1.1
	c-1.3-0.7-2.3-1.7-3-3.1c-0.8-1.3-1.1-2.9-1.1-4.7c0-1.8,0.4-3.4,1.1-4.7s1.8-2.3,3-3c1.3-0.7,2.7-1.1,4.3-1.1c1.6,0,3,0.4,4.3,1.1
	c1.3,0.7,2.3,1.7,3,3s1.1,2.9,1.1,4.7C506.4,32.7,506,34.3,505.2,35.6z"/>
<path class="st0" d="M564.4,23.3c-1.3-2.2-3-3.8-5.1-5c-2.1-1.2-4.6-1.8-7.4-1.8c-2.3,0-4.4,0.5-6.3,1.6c-1.1,0.6-2,1.3-2.8,2.3V5.7
	h-6.6V45h6.3v-3.8c0.8,1,1.8,1.9,3,2.6c1.9,1.1,4,1.6,6.4,1.6c2.8,0,5.3-0.6,7.4-1.8c2.1-1.2,3.8-2.9,5.1-5.1
	c1.3-2.2,1.9-4.7,1.9-7.6C566.3,28,565.6,25.4,564.4,23.3z M558.4,35.6c-0.7,1.3-1.7,2.4-3,3.1c-1.3,0.7-2.7,1.1-4.3,1.1
	s-3-0.4-4.3-1.1c-1.3-0.7-2.3-1.7-3-3.1c-0.7-1.3-1.1-2.9-1.1-4.7c0-1.8,0.4-3.4,1.1-4.7s1.7-2.3,3-3c1.3-0.7,2.7-1.1,4.3-1.1
	s3,0.4,4.3,1.1c1.3,0.7,2.3,1.7,3,3s1.1,2.9,1.1,4.7C559.5,32.7,559.2,34.3,558.4,35.6z"/>
<path class="st0" d="M591.9,16.7l-9,20.9L574,16.7h-6.9l12.4,28.4l-0.5,1.1c-0.6,1.4-1.3,2.4-2.1,3c-0.7,0.6-1.7,0.9-2.9,0.9
	c-0.9,0-1.7-0.2-2.6-0.5c-0.8-0.4-1.6-0.8-2.3-1.4l-2.7,4.9c0.9,0.8,2.1,1.4,3.4,1.9c1.4,0.5,2.8,0.7,4.1,0.7c1.6,0,3-0.2,4.4-0.7
	c1.3-0.5,2.5-1.4,3.6-2.6c1.1-1.2,2.1-2.9,2.9-5l13.3-30.6H591.9z"/>
</svg>
