<?xml version="1.0" encoding="utf-8"?>
<!-- Generator: Adobe Illustrator 12.0.1, SVG Export Plug-In  -->
<!DOCTYPE svg PUBLIC "-//W3C//DTD SVG 1.1//EN" "http://www.w3.org/Graphics/SVG/1.1/DTD/svg11.dtd" [
	<!ENTITY ns_flows "http://ns.adobe.com/Flows/1.0/">
	<!ENTITY ns_svg "http://www.w3.org/2000/svg">
	<!ENTITY ns_xlink "http://www.w3.org/1999/xlink">
]>
<svg  version="1.1" xmlns="&ns_svg;" xmlns:xlink="&ns_xlink;" xmlns:a="http://ns.adobe.com/AdobeSVGViewerExtensions/3.0/"
	 width="24" height="24" viewBox="0 0 24 24" enable-background="new 0 0 24 24" xml:space="preserve">
<defs>
</defs>
<circle id="XMLID_5_" fill="#4F76A1" cx="12" cy="12" r="12"/>
<path fill="#FFFFFF" d="M11.546,17.264h0.942c0,0,0.284-0.032,0.429-0.188c0.134-0.144,0.13-0.414,0.13-0.414
	s-0.019-1.264,0.568-1.449c0.578-0.184,1.32,1.221,2.107,1.761c0.595,0.41,1.048,0.32,1.048,0.32l2.104-0.029
	c0,0,1.101-0.068,0.578-0.934c-0.042-0.07-0.304-0.642-1.563-1.812c-1.32-1.224-1.143-1.025,0.446-3.144
	c0.969-1.29,1.355-2.078,1.234-2.415c-0.115-0.321-0.827-0.237-0.827-0.237l-2.369,0.015c0,0-0.176-0.024-0.306,0.054
	c-0.128,0.077-0.21,0.254-0.21,0.254s-0.375,0.999-0.875,1.848c-1.056,1.791-1.477,1.886-1.649,1.774
	c-0.401-0.259-0.301-1.042-0.301-1.597c0-1.736,0.264-2.46-0.513-2.647c-0.257-0.063-0.447-0.104-1.105-0.11
	c-0.845-0.008-1.561,0.003-1.966,0.201c-0.27,0.132-0.477,0.426-0.351,0.443c0.157,0.021,0.512,0.096,0.699,0.352
	c0.243,0.331,0.234,1.072,0.234,1.072s0.14,2.043-0.326,2.298c-0.319,0.174-0.757-0.182-1.698-1.807
	C7.525,10.04,7.162,9.12,7.162,9.12s-0.07-0.172-0.195-0.264C6.814,8.744,6.602,8.708,6.602,8.708L4.351,8.723
	c0,0-0.338,0.01-0.462,0.157C3.778,9.011,3.88,9.281,3.88,9.281s1.763,4.123,3.759,6.202C9.469,17.389,11.546,17.264,11.546,17.264
	L11.546,17.264z"/>
</svg>
