<?xml version="1.0" encoding="utf-8"?>
<!-- Generator: Adobe Illustrator 12.0.1, SVG Export Plug-In  -->
<!DOCTYPE svg PUBLIC "-//W3C//DTD SVG 1.1//EN" "http://www.w3.org/Graphics/SVG/1.1/DTD/svg11.dtd" [
	<!ENTITY ns_flows "http://ns.adobe.com/Flows/1.0/">
	<!ENTITY ns_svg "http://www.w3.org/2000/svg">
	<!ENTITY ns_xlink "http://www.w3.org/1999/xlink">
]>
<svg  version="1.1" xmlns="&ns_svg;" xmlns:xlink="&ns_xlink;" xmlns:a="http://ns.adobe.com/AdobeSVGViewerExtensions/3.0/"
	 width="33" height="33" viewBox="0 0 33 33" enable-background="new 0 0 33 33" xml:space="preserve">
<defs>
</defs>
<circle fill="#6E65AD" cx="16.125" cy="16.125" r="16.125"/>
<path fill="#534DA0" d="M25.523,8.151l-4.449-1.798l-7.839,7.595L8.5,10.355l-1.796,0.898l0.023,9.491L18.11,32.129
	c7.969-0.979,14.14-7.771,14.14-16.004c0-0.438-0.018-0.871-0.052-1.3L25.523,8.151z"/>
<path fill="#FFFFFF" d="M25.523,8.151l-4.449-1.798l-7.839,7.595L8.5,10.355l-1.796,0.898l0.023,9.491l1.796,0.899l4.736-3.594
	l7.838,7.596l4.449-1.798L25.523,8.151z M8.972,18.009v-4.02l2.222,2.01h0.024L8.972,18.009z M20.628,19.347l-4.468-3.348h-0.023
	l4.492-3.347V19.347L20.628,19.347z"/>
</svg>
