<?xml version="1.0" encoding="utf-8"?>
<!-- Generator: Adobe Illustrator 23.1.0, SVG Export Plug-In . SVG Version: 6.00 Build 0)  -->
<svg version="1.1" xmlns="http://www.w3.org/2000/svg" xmlns:xlink="http://www.w3.org/1999/xlink" x="0px" y="0px"
	 viewBox="0 0 300 300" style="enable-background:new 0 0 300 300;" xml:space="preserve">
<style type="text/css">
	.st0{fill:#A5A5A5;}
	.st1{fill:#4D4D4D;}
	.st2{fill:#DF922F;}
	.st3{fill:#E7AD4B;}
	.st4{opacity:0.2;fill:#0C0030;}
	.st5{fill:#0C0030;}
	.st6{fill:#FFFFFF;}
	.st7{fill:#D3DEE5;}
	.st8{opacity:0.5;fill:#FFFFFF;}
	.st9{fill:#6C3E94;}
	.st10{fill:#68A4FD;}
	.st11{fill:#CFD1D2;}
</style>
<g id="Layer_1">
</g>
<g id="OBJECTS">
	<g>
		<path class="st0" d="M40.7,157.23c0,0,19.45-0.43,34.42-23.21C71.49,118.9,29.27,146.63,40.7,157.23z"/>
		<g>
			<g>
				<polygon class="st1" points="44.72,135.32 44.72,135.32 44.72,135.32 44.72,135.32 				"/>
				<polygon class="st1" points="44.72,135.32 44.72,135.32 44.72,135.32 44.72,135.32 				"/>
				<g>
					<g>
						<path class="st2" d="M14.93,74.16L7.76,79c-1.89,1.28-3.39,2.84-4.43,4.47l0.91,1.34l4.61,6.84l35.77,53.05l17.4-11.73
							l-35.87-53.2l-4.51-6.69l-0.9-1.34C18.83,72.08,16.82,72.89,14.93,74.16z"/>
						<path class="st3" d="M20.74,71.75c-1.91,0.34-3.92,1.14-5.81,2.42l-2.94,3.37l39.31,58.3l11.2-2.15L26.22,79.87l-4.56-6.77
							L20.74,71.75z"/>
					</g>
					<g>
						<g>
							<polygon class="st4" points="17.98,86.42 14.26,93.01 23.48,94.58 25.49,85.44 							"/>
							<polygon class="st5" points="17.12,85.15 14.26,93.01 22.62,93.3 25.49,85.44 							"/>
							<polygon class="st6" points="18.76,87.57 23.09,86.6 17.98,86.42 16.23,91.23 							"/>
						</g>
						<g>
							<polygon class="st4" points="26.45,98.98 22.72,105.56 31.95,107.13 33.95,97.99 							"/>
							<polygon class="st5" points="25.59,97.7 22.72,105.56 31.09,105.85 33.95,97.99 							"/>
							<polygon class="st6" points="27.22,100.12 31.56,99.15 26.45,98.98 24.7,103.78 							"/>
						</g>
						<g>
							<polygon class="st4" points="35.05,111.74 31.18,118.11 40.55,119.89 42.42,110.54 							"/>
							<polygon class="st5" points="34.05,110.25 31.18,118.11 39.55,118.41 42.42,110.54 							"/>
							<polygon class="st6" points="35.69,112.67 40.02,111.71 34.91,111.53 33.16,116.33 							"/>
						</g>
						<path class="st5" d="M49.25,132.8c-11.62,7.83-18.58,17.83-15.54,22.33c1.18,1.74,3.68,2.39,6.98,2.1
							c-0.51-4.84,4.68-12.19,13.02-17.82c8.34-5.62,17.11-7.68,21.4-5.39c1.51-2.95,1.85-5.52,0.67-7.26
							C72.75,122.26,60.87,124.97,49.25,132.8z"/>
						<g>
							<path class="st7" d="M57.14,144.5c-3.16,2.13-5.87,4.51-7.99,6.92l33.43,49.57l17.4-11.73l-33.43-49.57
								C63.53,140.75,60.31,142.36,57.14,144.5z"/>
							<path class="st8" d="M99.98,189.25l-33.43-49.57c-3.02,1.07-6.24,2.68-9.41,4.82l34.14,50.62L99.98,189.25z"/>
						</g>
					</g>
					<path class="st5" d="M9.15,68.1l-4.84,3.27c-3.47,2.34-4.38,7.04-2.05,10.51l0.24,0.35l1.01,1.5c0,0,3.34,0.74,7.97-3.5
						c4.63-4.24,7.28-6.65,9.92-7.5l-0.49-0.73l-1.01-1.49l-0.24-0.35C17.32,66.68,12.62,65.76,9.15,68.1z"/>
					<path class="st5" d="M61.36,131.99l-7.24-10.74c-1.91,0.34-3.92,1.14-5.81,2.42l-7.16,4.83c-1.89,1.27-3.39,2.84-4.42,4.48
						l7.66,11.36l8.7-5.87C56.47,135.68,59.1,133.55,61.36,131.99z"/>
				</g>
				<path class="st6" d="M52.77,134.5c-1.93,1.14-3.73,2.34-5.37,3.56c2.01-2.2,4.78-4.44,8.09-6.4c7.85-4.65,15.73-5.92,17.99-3
					C69.8,127.16,61.38,129.41,52.77,134.5z"/>
			</g>
		</g>
	</g>
	<g>
		<path class="st0" d="M259.61,157.23c0,0-19.45-0.43-34.42-23.21C228.81,118.9,271.04,146.63,259.61,157.23z"/>
		<g>
			<g>
				<polygon class="st1" points="255.59,135.32 255.59,135.32 255.59,135.32 255.59,135.32 				"/>
				<polygon class="st1" points="255.59,135.32 255.59,135.32 255.59,135.32 255.59,135.32 				"/>
				<g>
					<g>
						<path class="st2" d="M285.38,74.16l7.16,4.83c1.89,1.28,3.39,2.84,4.43,4.47l-0.91,1.34l-4.61,6.84l-35.77,53.05l-17.4-11.73
							l35.87-53.2l4.51-6.69l0.9-1.34C281.48,72.08,283.49,72.89,285.38,74.16z"/>
						<path class="st3" d="M279.57,71.75c1.91,0.34,3.92,1.14,5.81,2.42l2.94,3.37L249,135.84l-11.2-2.15l36.29-53.82l4.56-6.77
							L279.57,71.75z"/>
					</g>
					<g>
						<g>
							<polygon class="st4" points="282.32,86.42 286.05,93.01 276.82,94.58 274.82,85.44 							"/>
							<polygon class="st5" points="283.18,85.15 286.05,93.01 277.69,93.3 274.82,85.44 							"/>
							<polygon class="st6" points="281.55,87.57 277.21,86.6 282.32,86.42 284.07,91.23 							"/>
						</g>
						<g>
							<polygon class="st4" points="273.86,98.98 277.59,105.56 268.36,107.13 266.36,97.99 							"/>
							<polygon class="st5" points="274.72,97.7 277.59,105.56 269.22,105.85 266.36,97.99 							"/>
							<polygon class="st6" points="273.09,100.12 268.75,99.15 273.86,98.98 275.61,103.78 							"/>
						</g>
						<g>
							<polygon class="st4" points="265.25,111.74 269.12,118.11 259.75,119.89 257.89,110.54 							"/>
							<polygon class="st5" points="266.26,110.25 269.12,118.11 260.76,118.41 257.89,110.54 							"/>
							<polygon class="st6" points="264.62,112.67 260.29,111.71 265.39,111.53 267.14,116.33 							"/>
						</g>
						<path class="st5" d="M251.05,132.8c11.62,7.83,18.58,17.83,15.54,22.33c-1.18,1.74-3.68,2.39-6.98,2.1
							c0.51-4.84-4.68-12.19-13.02-17.82c-8.34-5.62-17.11-7.68-21.4-5.39c-1.51-2.95-1.85-5.52-0.67-7.26
							C227.56,122.26,239.43,124.97,251.05,132.8z"/>
						<g>
							<path class="st7" d="M243.16,144.5c3.16,2.13,5.87,4.51,7.99,6.92l-33.43,49.57l-17.4-11.73l33.43-49.57
								C236.77,140.75,240,142.36,243.16,144.5z"/>
							<path class="st8" d="M200.33,189.25l33.43-49.57c3.02,1.07,6.24,2.68,9.41,4.82l-34.14,50.62L200.33,189.25z"/>
						</g>
					</g>
					<path class="st5" d="M291.16,68.1l4.84,3.27c3.47,2.34,4.38,7.04,2.05,10.51l-0.24,0.35l-1.01,1.5c0,0-3.34,0.74-7.97-3.5
						c-4.63-4.24-7.28-6.65-9.92-7.5l0.49-0.73l1.01-1.49l0.24-0.35C282.98,66.68,287.69,65.76,291.16,68.1z"/>
					<path class="st5" d="M238.94,131.99l7.24-10.74c1.91,0.34,3.92,1.14,5.81,2.42l7.16,4.83c1.89,1.27,3.39,2.84,4.42,4.48
						l-7.66,11.36l-8.7-5.87C243.84,135.68,241.2,133.55,238.94,131.99z"/>
				</g>
				<path class="st6" d="M247.54,134.5c1.93,1.14,3.73,2.34,5.37,3.56c-2.01-2.2-4.78-4.44-8.09-6.4c-7.85-4.65-15.73-5.92-17.99-3
					C230.51,127.16,238.93,129.41,247.54,134.5z"/>
			</g>
		</g>
	</g>
	<path class="st5" d="M45.38,159.82c-23.31,8.78-29.89,26.23-29.89,26.23s65.86,15.8,83.53,11.41s-9.86-30.73-9.86-30.73l-2.09-11.7
		C87.08,155.03,68.69,151.04,45.38,159.82z"/>
	<path class="st9" d="M143.54,133.9"/>
	<g>
		<path class="st5" d="M146.51,63.47c0,0-45.46-3.9-52.98,34.26c-8.73,44.29,52.5,70.94,52.5,70.94s62.2-26.66,53.47-70.94
			C191.97,59.57,146.51,63.47,146.51,63.47z"/>
		<path class="st10" d="M218.4,150.54l-5.12-5.56c-1.4,1.74-2.27,2.85-2.27,2.85l-4.99,8.2c0,0,15.98-45.92,17.58-55.7
			c-11.42,36.65-21.73,49.57-21.73,49.57l21.73-49.57c0.05-0.32,0.11-0.61,0.18-0.87c-1.04-7.64-16.5-39.22-16.5-39.22v0.02
			c-8.29-25.72-25.89-50.75-60.76-50.75c-24.71,0-40.26,13.72-50.09,31.64c-0.86,1.62-3.6,6.96-5.97,13.51
			c-5.38,14.9-10.66,35.37-0.54,27.89c7.7-5.69,18.6-15.47,33.78-16.53c0,0-21.44,5.32-34.99,27.13c0,0-5.11,11.84-6.2,15.2
			c3.1,5.96,6.45,12.12,9.28,16.71l-7.53,6.53c0,0-3.25-3.82-6.93-8.41c0.89,2.61,1.88,5.25,2.97,7.85
			c0.01,0.12,0.01,0.22,0.02,0.34l1.88,11.68c0,0,0.8,7.64,4.81,12.99c0,0-7.09-4.65-8.02-6.94c0,0,4.63,18.63,18.29,31.53
			c0,0-19.04-9.9-30.44-25.18c0,0,9.64,17.54,16.66,23.93c0,0-25.55-20.54-45.34-15.53c-9.17,2.32-17.54,12.31-22.65,22.21
			c0,0,47.97,34.32,59.68,44.83l71.4,58.87l126.31-108.24C272.87,181.52,256.87,155.92,218.4,150.54z"/>
		<path class="st5" d="M199.49,97.73c8.73,44.29-53.47,70.94-53.47,70.94s-61.23-26.66-52.5-70.94
			c7.53-38.16,52.98-34.26,52.98-34.26S191.97,59.57,199.49,97.73z"/>
	</g>
	<path class="st5" d="M137.63,161.56c-30.8-20.09-36.77-27.4-38.59-57.71c-1.83-30.31,28.06-38.33,28.06-38.33
		c-13.35,0.5-53.3,24.56-44.18,63.88c0,0,9.46,17.87,36.52,35.24c0,0-21.71-23.21-24.05-35.91c0,0,20.96,24.63,41.42,33.57"/>
	<path class="st5" d="M146.16,193.94c-26.37-5.52-44.75-18.98-55.7-29.55c3.82,6.63,21.84,34.9,55.7,43.68
		c33.87-8.77,51.88-37.05,55.7-43.68C190.92,174.95,172.53,188.41,146.16,193.94z"/>
	<path class="st5" d="M146.16,216.4c19.17-4.02,32.53-12.49,40.49-20.18c-2.78,4.82-15.87,25.37-40.49,31.75
		c-14.45-3.75-25.83-13.54-32.46-22.18C113.7,205.8,127.48,212.94,146.16,216.4z"/>
	<path class="st5" d="M146.11,237.68c9.59-1.83,18.29-13.58,18.29-13.58c-5.09,3.44-11.17,6.51-18.29,8
		c-3.58-0.73-6.91-1.71-9.88-2.77C136.23,229.34,138.81,233.97,146.11,237.68z"/>
	<path class="st5" d="M223.69,89.55c-4.01-9.18-5.82-3.01-18.68-37.24c-12.86-34.24-46.77-37.89-46.77-37.89
		c11.69,4.01,18.54,15.03,18.54,15.03c-11.52-5.01-30.77-3.01-30.77-3.01c14.42,4.64,24.85,11.48,31.97,17.6
		c-6.45-1.73-13.68-3.52-17.11-3.87c0,0,9.84,4.47,21.06,14.85c-36.51-10.81-58.26,1.02-58.26,1.02
		c51.89-1.54,64.17,19.44,64.17,19.44c-5.48-4.98-12.21-7.98-18.72-9.76c-1.06-0.32-2.05-0.56-2.96-0.73
		c-11.54-2.58-21.63-1.61-21.63-1.61s19.9,13,39.43,24.86c4.43,2.69,8.24,6.39,11.49,10.51c0.12,1.63,0.15,3.33,0.04,5.1
		c-1.83,30.31-18.67,44.73-49.47,64.83c0,0,28.36-8.67,47.9-23.77c0,0-24.32,33.59-47.61,40.1c0,0,44.18-7.6,62.65-47.28
		c0.82-2.06,1.49-4.14,2.07-6.23c0.01,0.06,0.02,0.09,0.02,0.09C216.43,116,227.7,98.74,223.69,89.55z"/>
	<path class="st5" d="M272.87,181.52c0,0-16.05-27.39-54.17-31.91l-6.4-6.15c0,0-0.34-0.45-0.22-1.3l0,0c0,0-2.06,8.53-6.07,13.88
		c0,0,7.08-4.65,8.02-6.94c0,0-4.63,18.63-18.29,31.53c0,0,19.04-9.9,30.44-25.18c0,0-9.65,17.54-16.66,23.93
		c0,0,25.55-20.54,45.34-15.53c19.79,5.01-46.38,72.85-46.41,72.88L272.87,181.52z"/>
	<g>
		<path class="st11" d="M154.94,108.35l18.87-2.17c0,0,9.85-8.29,9.18-13.03C182.99,93.15,160.79,98.52,154.94,108.35z"/>
		<path class="st6" d="M137.1,108.35l-18.87-2.17c0,0-9.85-8.29-9.18-13.03C109.05,93.15,131.26,98.52,137.1,108.35z"/>
		<path class="st6" d="M191.97,111c0,0-10.78,9.04-18.53,10.1l10.77,1.24c0,0-11.42,8.86-36.08-3.87c-0.64-0.25-1.36-0.39-2.11-0.39
			c-0.84,0-1.61,0.19-2.3,0.49c-24.53,12.59-35.89,3.78-35.89,3.78l10.77-1.24c-7.76-1.06-18.53-10.1-18.53-10.1
			s1.6,13.64,6.78,21.44c5.17,7.8,29.21,28.71,38.47,28.71h1.41c9.26,0,33.3-20.91,38.48-28.71C190.36,124.64,191.97,111,191.97,111
			z"/>
		<path class="st11" d="M173.44,121.1l10.77,1.24c0,0-11.42,8.86-36.08-3.87c-0.64-0.25-1.36-0.39-2.11-0.39h0v43.07h0.7
			c9.26,0,33.3-20.91,38.48-28.71c5.17-7.8,6.78-21.44,6.78-21.44S181.2,120.04,173.44,121.1z"/>
	</g>
	<path class="st2" d="M147.42,85.87c13.83,0,26.78-0.6,38.01-1.64c-11.86-18.65-38.91-16.35-38.91-16.35s-26.9-2.3-38.81,16.19
		C119.32,85.21,132.88,85.87,147.42,85.87z"/>
	<path class="st3" d="M146.57,68.86l-0.05-0.98c0,0-26.9-2.3-38.81,16.19c11.38,1.12,24.65,1.77,38.86,1.79V68.86z"/>
	<path class="st3" d="M146.57,68.86l-0.05-0.98c0,0-26.9-2.3-38.81,16.19c11.38,1.12,24.65,1.77,38.86,1.79V68.86z"/>
	<path class="st4" d="M183.56,81.63c-12.6-15.82-37.04-13.75-37.04-13.75s-24.41-2.07-37.01,13.71c15.78-10.07,37-8.43,37-8.43
		S167.77,71.53,183.56,81.63z"/>
	<path class="st6" d="M150.27,37.84c0,0,14.94,4.66,28.12,15.16c0,0-24.49-9.89-51.26,0c0,0,14.87-12.4,36.16-6.76
		C163.3,46.23,154.41,39.22,150.27,37.84z"/>
	<path class="st6" d="M173.07,27.04c0,0-10.87-3.38-24.11-1.86c0,0,10-3.42,18.55-1.37c0,0-0.99-1.9-1.57-2.89
		C165.93,20.91,170.41,23.47,173.07,27.04z"/>
	<path class="st6" d="M88.57,153.47l6.69,11.18c0,0,14.51,14.22,34.21,22.08C129.47,186.72,97.15,164.86,88.57,153.47z"/>
	<path class="st6" d="M109.58,197.46c1.11,1.96,2.24,3.9,3.67,5.65c13.97,7.72,26.91,9.52,26.91,9.52
		C129.39,209.63,117.08,202.34,109.58,197.46z"/>
	<path class="st6" d="M134.93,225.72c0.54,0.74,1.06,1.5,1.56,2.28c4.24,1.98,7.82,2.53,7.82,2.53
		C141.42,229.57,137.74,227.38,134.93,225.72z"/>
</g>
</svg>
