<?xml version="1.0" encoding="utf-8"?>
<!-- Generator: Adobe Illustrator 12.0.1, SVG Export Plug-In  -->
<!DOCTYPE svg PUBLIC "-//W3C//DTD SVG 1.1//EN" "http://www.w3.org/Graphics/SVG/1.1/DTD/svg11.dtd" [
	<!ENTITY ns_flows "http://ns.adobe.com/Flows/1.0/">
	<!ENTITY ns_svg "http://www.w3.org/2000/svg">
	<!ENTITY ns_xlink "http://www.w3.org/1999/xlink">
]>
<svg  version="1.1" xmlns="&ns_svg;" xmlns:xlink="&ns_xlink;" xmlns:a="http://ns.adobe.com/AdobeSVGViewerExtensions/3.0/"
	 width="101" height="70" viewBox="-0.331 -0.201 101 70" enable-background="new -0.331 -0.201 101 70" xml:space="preserve">
<defs>
</defs>
<path fill="#ED2224" d="M97.616,10.92c-1.149-4.27-4.516-7.635-8.784-8.785C81.032,0,49.833,0,49.833,0S18.636,0,10.837,2.053
	C6.65,3.202,3.202,6.651,2.053,10.92C0,18.718,0,34.893,0,34.893s0,16.254,2.053,23.973c1.15,4.268,4.515,7.635,8.785,8.785
	c7.88,2.133,38.997,2.133,38.997,2.133s31.197,0,38.997-2.053c4.27-1.148,7.635-4.514,8.784-8.783
	c2.053-7.801,2.053-23.973,2.053-23.973S99.751,18.718,97.616,10.92z"/>
<path fill="#FFFFFF" d="M39.901,49.834l25.943-14.942L39.901,19.951V49.834z"/>
</svg>
