<?xml version="1.0" encoding="utf-8"?>
<!-- Generator: Adobe Illustrator 12.0.1, SVG Export Plug-In  -->
<!DOCTYPE svg PUBLIC "-//W3C//DTD SVG 1.1//EN" "http://www.w3.org/Graphics/SVG/1.1/DTD/svg11.dtd" [
	<!ENTITY ns_flows "http://ns.adobe.com/Flows/1.0/">
	<!ENTITY ns_svg "http://www.w3.org/2000/svg">
	<!ENTITY ns_xlink "http://www.w3.org/1999/xlink">
]>
<svg  version="1.1" xmlns="&ns_svg;" xmlns:xlink="&ns_xlink;" xmlns:a="http://ns.adobe.com/AdobeSVGViewerExtensions/3.0/"
	 width="24" height="18" viewBox="-0.015 -0.625 24 18" enable-background="new -0.015 -0.625 24 18" xml:space="preserve">
<defs>
</defs>
<path fill="#EF4538" d="M22.967,1.589c-0.651-1.157-1.357-1.37-2.796-1.451C18.735,0.041,15.124,0,11.996,0
	C8.861,0,5.249,0.041,3.814,0.137C2.379,0.219,1.671,0.43,1.015,1.589C0.345,2.745,0,4.735,0,8.24c0,0.003,0,0.005,0,0.005
	C0,8.248,0,8.25,0,8.25v0.003c0,3.49,0.345,5.495,1.015,6.639c0.657,1.156,1.363,1.368,2.797,1.465
	c1.437,0.083,5.049,0.134,8.184,0.134c3.128,0,6.74-0.051,8.177-0.132c1.438-0.098,2.145-0.309,2.794-1.466
	c0.676-1.144,1.019-3.148,1.019-6.639c0,0,0-0.004,0-0.007c0,0,0-0.003,0-0.005C23.985,4.735,23.643,2.745,22.967,1.589z"/>
<polygon fill="#FAFAFA" points="8.994,12.742 8.994,3.748 16.49,8.245 "/>
</svg>
