<?xml version="1.0" standalone="no"?>
<!DOCTYPE svg PUBLIC "-//W3C//DTD SVG 20010904//EN"
 "http://www.w3.org/TR/2001/REC-SVG-20010904/DTD/svg10.dtd">
<svg version="1.0" xmlns="http://www.w3.org/2000/svg"
 width="800.000000pt" height="800.000000pt" viewBox="0 0 800.000000 800.000000"
 preserveAspectRatio="xMidYMid meet">
<metadata>
Created by potrace 1.14, written by Peter Selinger 2001-2017
</metadata>
<g transform="translate(0.000000,800.000000) scale(0.100000,-0.100000)"
fill="#000000" stroke="none">
<path d="M3967 7884 c-1 -1 -75 -5 -164 -8 -89 -4 -170 -8 -180 -10 -10 -2
-58 -7 -108 -10 -49 -4 -97 -9 -105 -11 -8 -2 -37 -6 -65 -10 -27 -3 -61 -7
-75 -10 -14 -2 -41 -7 -60 -9 -177 -27 -422 -86 -610 -148 -261 -85 -594 -245
-750 -360 -586 -435 -970 -837 -1227 -1283 -59 -101 -163 -311 -163 -327 0 -8
-4 -18 -9 -24 -31 -31 -166 -435 -215 -644 -14 -58 -36 -152 -50 -210 -30
-128 -53 -238 -62 -305 -3 -27 -8 -58 -10 -69 -2 -10 -6 -44 -9 -75 -3 -31 -8
-69 -10 -86 -6 -44 -18 -318 -18 -405 0 -92 12 -389 18 -421 2 -13 6 -60 10
-103 4 -43 8 -88 11 -100 2 -11 6 -38 10 -61 3 -22 8 -42 10 -44 2 -3 1034 -6
2292 -8 1258 -2 3009 -4 3892 -6 l1605 -2 12 95 c13 103 22 222 29 352 5 101
4 502 -1 578 -9 139 -16 237 -20 260 -2 14 -7 52 -10 85 -8 75 -35 245 -50
315 -2 8 -4 19 -4 24 -1 7 -2276 4 -5364 -7 -318 -1 -580 0 -582 3 -7 13 37
152 71 225 169 355 528 716 914 917 178 93 404 177 544 204 12 2 32 6 46 9
516 104 1067 41 1504 -171 275 -134 513 -320 714 -559 l42 -50 965 0 c531 0
965 3 965 7 0 11 -128 290 -170 373 -59 114 -111 206 -146 263 -19 29 -34 54
-34 56 0 18 -191 290 -289 411 -96 118 -93 116 -261 285 -127 129 -249 238
-360 323 -81 62 -131 97 -139 97 -5 0 -11 4 -13 9 -7 17 -287 185 -423 253
-263 131 -501 221 -725 273 -61 14 -274 55 -315 60 -46 6 -75 10 -145 20 -14
2 -61 7 -105 11 -44 3 -88 8 -99 10 -32 6 -504 22 -509 18z"/>
<path d="M287 2573 c-9 -8 96 -263 174 -422 111 -227 251 -443 382 -588 75
-84 383 -386 498 -488 315 -282 687 -534 1019 -693 168 -80 451 -186 554 -207
10 -3 55 -13 100 -24 44 -11 97 -23 116 -26 19 -3 42 -8 50 -10 8 -2 35 -6 60
-9 25 -3 55 -8 67 -10 26 -5 146 -17 223 -22 146 -9 614 -3 753 10 28 3 84 8
122 11 39 4 81 8 95 10 14 2 52 7 85 10 33 4 67 8 75 10 8 3 31 7 50 10 40 6
135 23 166 29 12 2 37 7 55 10 159 26 619 171 746 235 10 4 61 28 113 52 52
24 142 70 200 103 102 57 344 212 371 238 8 7 32 26 54 42 163 121 412 361
573 555 l52 63 -57 30 c-111 57 -268 142 -298 160 -16 10 -37 21 -45 25 -8 4
-107 58 -220 121 -113 63 -225 126 -250 140 -53 30 -487 279 -551 316 -24 15
-62 36 -85 48 l-41 21 -77 -76 c-383 -377 -951 -564 -1559 -513 -116 10 -139
13 -287 41 -309 58 -628 183 -870 339 -160 104 -346 269 -454 402 l-49 61
-953 0 c-524 0 -955 -1 -957 -4z"/>
</g>
</svg>
