<?xml version="1.0" standalone="no"?>
<!DOCTYPE svg PUBLIC "-//W3C//DTD SVG 20010904//EN"
 "http://www.w3.org/TR/2001/REC-SVG-20010904/DTD/svg10.dtd">
<svg version="1.0" xmlns="http://www.w3.org/2000/svg"
 width="1080.000000pt" height="1080.000000pt" viewBox="0 0 1080.000000 1080.000000"
 preserveAspectRatio="xMidYMid meet">
<metadata>
Created by potrace 1.11, written by Peter Selinger 2001-2013
</metadata>
<g transform="translate(0.000000,1080.000000) scale(0.100000,-0.100000)"
fill="#000000" stroke="none">
<path d="M1552 7025 l-3 -2225 3838 0 3838 0 0 748 0 747 -2945 5 -2945 5 0
726 0 726 2948 -1 2947 -1 0 748 0 747 -3837 0 -3838 0 -3 -2225z"/>
<path d="M1556 3133 c-3 -3 -6 -359 -6 -790 0 -739 1 -783 18 -784 102 -5
7651 -3 7662 2 13 6 15 102 14 783 0 427 -3 779 -7 782 -8 8 -7673 15 -7681 7z"/>
</g>
</svg>
