<?xml version="1.0" standalone="no"?>
<!DOCTYPE svg PUBLIC "-//W3C//DTD SVG 20010904//EN"
 "http://www.w3.org/TR/2001/REC-SVG-20010904/DTD/svg10.dtd">
<svg version="1.0" xmlns="http://www.w3.org/2000/svg"
 width="820.000000pt" height="820.000000pt" viewBox="0 0 820.000000 820.000000"
 preserveAspectRatio="xMidYMid meet">
<metadata>
Created by potrace 1.11, written by Peter Selinger 2001-2013
</metadata>
<g transform="translate(0.000000,820.000000) scale(0.100000,-0.100000)"
fill="#000000" stroke="none">
<path d="M1867 7274 c-1 -1 -50 -5 -109 -8 -59 -4 -117 -9 -130 -11 -57 -9
-206 -35 -233 -40 -58 -11 -205 -55 -302 -91 -134 -48 -243 -108 -414 -225
-161 -111 -374 -328 -488 -495 -47 -71 -97 -176 -134 -284 -57 -166 -57 -163
-57 -651 0 -411 2 -461 19 -529 62 -247 158 -408 376 -626 152 -153 329 -280
497 -357 29 -14 78 -36 108 -50 206 -95 655 -251 870 -303 236 -57 584 -185
805 -297 132 -67 144 -76 230 -162 73 -74 118 -139 146 -214 31 -82 33 -97 33
-201 -1 -80 -5 -106 -29 -165 -75 -187 -253 -327 -505 -395 -76 -21 -107 -24
-305 -24 -196 -1 -382 7 -470 19 -16 2 -57 6 -90 10 -33 3 -71 7 -85 9 -14 2
-47 7 -75 10 -52 6 -67 9 -175 27 -56 9 -189 35 -360 70 -25 5 -58 14 -75 19
-16 5 -41 11 -55 14 -65 13 -405 113 -508 150 l-42 15 -23 -37 c-13 -20 -53
-91 -89 -157 -36 -66 -74 -136 -85 -155 -11 -19 -41 -74 -66 -121 l-47 -86 0
-321 0 -320 183 -60 c158 -52 481 -140 572 -156 125 -23 337 -58 435 -72 25
-3 54 -8 65 -10 11 -2 43 -6 70 -9 28 -4 64 -8 80 -11 17 -3 46 -7 65 -9 32
-2 107 -10 200 -21 257 -28 769 -23 915 11 6 1 28 5 50 10 288 55 662 205 900
359 217 142 459 389 576 591 68 117 128 293 155 460 3 17 12 71 22 120 11 62
16 148 17 275 0 220 -3 247 -60 500 -14 61 -74 228 -104 291 -111 225 -366
475 -656 644 -243 141 -566 262 -1320 496 -426 132 -732 283 -866 426 -121
129 -162 350 -100 540 62 190 214 322 432 377 129 32 170 37 349 41 265 5 443
-34 673 -151 269 -135 398 -214 552 -337 54 -43 191 -137 199 -136 6 0 85 90
176 200 91 110 172 208 180 217 8 9 82 98 164 197 82 99 156 188 164 197 13
15 13 20 -1 42 -28 42 -180 190 -272 265 -82 66 -346 251 -359 251 -3 0 -34
17 -68 38 -80 49 -304 162 -411 208 -169 73 -392 145 -492 159 -16 2 -46 6
-65 10 -90 14 -185 22 -304 25 -72 1 -157 3 -189 4 -32 1 -59 1 -60 0z"/>
<path d="M6867 6958 c-73 -95 -423 -549 -777 -1008 -354 -459 -669 -864 -700
-900 -30 -36 -66 -81 -80 -99 -14 -18 -32 -40 -41 -49 -8 -10 -42 -51 -75 -92
-129 -162 -269 -335 -274 -340 -15 -14 -210 -260 -210 -265 0 -5 439 -595 451
-605 3 -3 120 -158 259 -345 140 -187 257 -342 260 -345 3 -3 17 -21 30 -40
14 -19 30 -42 37 -50 7 -8 117 -154 245 -325 129 -170 263 -348 299 -395 36
-47 137 -179 224 -295 88 -115 225 -296 305 -400 80 -105 172 -225 204 -268
33 -43 64 -81 70 -84 11 -7 1072 -12 1094 -5 9 3 12 56 12 217 l0 213 -99 135
c-55 74 -123 165 -151 203 -28 38 -58 78 -66 89 -8 11 -51 70 -97 131 -45 61
-156 211 -247 334 -144 194 -484 642 -704 927 -39 50 -142 183 -228 295 -87
111 -222 286 -301 388 l-144 185 107 140 c59 77 517 677 1018 1334 l912 1193
0 149 0 149 -600 0 -599 0 -134 -172z"/>
</g>
</svg>
