<?xml version="1.0" standalone="no"?>
<!DOCTYPE svg PUBLIC "-//W3C//DTD SVG 20010904//EN"
 "http://www.w3.org/TR/2001/REC-SVG-20010904/DTD/svg10.dtd">
<svg version="1.0" xmlns="http://www.w3.org/2000/svg"
 width="654.000000pt" height="654.000000pt" viewBox="0 0 654.000000 654.000000"
 preserveAspectRatio="xMidYMid meet">
<metadata>
Created by potrace 1.11, written by Peter Selinger 2001-2013
</metadata>
<g transform="translate(0.000000,654.000000) scale(0.100000,-0.100000)"
fill="#000000" stroke="none">
<path d="M2 4650 c-1 -1040 2 -1890 6 -1891 4 0 1126 -1 2495 -1 l2487 -1 -2
-706 -3 -706 -2490 0 -2490 0 -3 -672 -2 -673 3269 0 3270 0 -5 1038 c-10
2562 -13 2984 -18 2989 -3 3 -1128 6 -2501 5 -2317 0 -2495 1 -2496 16 -4 89
-3 1206 2 1214 4 6 909 9 2507 10 l2502 0 0 634 0 634 -3263 0 -3263 0 -2
-1890z"/>
</g>
</svg>
