<?xml version="1.0" standalone="no"?>
<!DOCTYPE svg PUBLIC "-//W3C//DTD SVG 20010904//EN"
 "http://www.w3.org/TR/2001/REC-SVG-20010904/DTD/svg10.dtd">
<svg version="1.0" xmlns="http://www.w3.org/2000/svg"
 width="654.000000pt" height="654.000000pt" viewBox="0 0 654.000000 654.000000"
 preserveAspectRatio="xMidYMid meet">
<metadata>
Created by potrace 1.11, written by Peter Selinger 2001-2013
</metadata>
<g transform="translate(0.000000,654.000000) scale(0.100000,-0.100000)"
fill="#000000" stroke="none">
<path d="M2 4650 l-2 -1890 3263 0 3262 0 -1 630 c0 347 -4 633 -7 636 -4 4
-1129 7 -2502 6 -2317 0 -2495 1 -2496 16 -4 90 -3 1206 2 1214 4 6 896 10
2508 10 l2501 0 0 634 0 634 -3263 0 -3263 0 -2 -1890z"/>
<path d="M0 670 l0 -670 3268 0 3269 0 0 670 0 670 -3269 0 -3268 0 0 -670z"/>
</g>
</svg>
