<?xml version="1.0" encoding="utf-8"?>
<!-- Generator: Adobe Illustrator 23.1.0, SVG Export Plug-In . SVG Version: 6.00 Build 0)  -->
<svg version="1.1" xmlns="http://www.w3.org/2000/svg" xmlns:xlink="http://www.w3.org/1999/xlink" x="0px" y="0px" width="100px"
	 height="100px" viewBox="0 0 100 100" style="enable-background:new 0 0 100 100;" xml:space="preserve">
<style type="text/css">
	.st0{fill:#FF1D58;}
</style>
<g id="Layer_1">
</g>
<g id="Layer_2">
	<g>
		<polygon class="st0" points="35.4,36.7 74.4,14.1 93.4,25.1 93.4,42.7 78.2,40.7 84,37.2 73.5,31.5 64.7,36.5 93.4,53.1 
			93.4,75.3 76.6,84.7 76.6,60.4 		"/>
		<polygon class="st0" points="6.5,30.2 20.9,38.7 21.2,65.7 30.2,70.9 30.2,44.1 45.9,53.1 45.9,80 49.9,82.3 54.7,79.6 54.7,57.3 
			69.6,65.9 69.6,89 49.9,100.2 6.5,75.3 		"/>
		<polygon class="st0" points="26,31.3 64.9,8.7 49.9,0 11,22.6 		"/>
	</g>
</g>
</svg>
