<?xml version="1.0" standalone="no"?>
<!DOCTYPE svg PUBLIC "-//W3C//DTD SVG 20010904//EN"
 "http://www.w3.org/TR/2001/REC-SVG-20010904/DTD/svg10.dtd">
<svg version="1.0" xmlns="http://www.w3.org/2000/svg"
 width="900.000000pt" height="900.000000pt" viewBox="0 0 900.000000 900.000000"
 preserveAspectRatio="xMidYMid meet">
<metadata>
Created by potrace 1.14, written by Peter Selinger 2001-2017
</metadata>
<g transform="translate(0.000000,900.000000) scale(0.100000,-0.100000)"
fill="#000000" stroke="none">
<path d="M4349 8996 c-2 -2 -50 -6 -107 -10 -56 -4 -108 -8 -115 -11 -6 -2
-37 -6 -67 -9 -30 -3 -66 -8 -80 -10 -14 -3 -47 -7 -74 -11 -75 -9 -196 -33
-311 -60 -38 -9 -80 -19 -93 -21 -28 -5 -342 -100 -374 -113 -33 -13 -61 -24
-73 -27 -5 -1 -55 -21 -110 -44 -55 -23 -108 -44 -119 -47 -10 -3 -93 -43
-185 -88 -142 -70 -218 -112 -360 -196 -121 -71 -445 -301 -516 -366 -11 -10
-36 -31 -55 -47 -228 -187 -509 -486 -705 -751 -88 -118 -225 -320 -225 -331
0 -3 -8 -18 -19 -32 -67 -96 -229 -418 -314 -627 -41 -100 -131 -355 -142
-401 -3 -10 -21 -80 -40 -154 -20 -74 -40 -155 -45 -180 -5 -25 -12 -56 -15
-70 -12 -58 -43 -245 -50 -310 -4 -30 -8 -66 -10 -80 -5 -34 -17 -178 -21
-265 -14 -278 2 -624 42 -885 22 -146 36 -225 59 -320 2 -8 10 -44 18 -80 40
-177 105 -382 183 -582 30 -76 58 -146 63 -155 5 -10 17 -36 27 -58 90 -210
305 -587 425 -745 14 -19 53 -71 85 -115 32 -44 63 -85 69 -91 5 -6 28 -33 50
-60 22 -27 56 -67 75 -89 19 -22 49 -55 65 -74 67 -77 286 -290 385 -374 58
-49 116 -99 130 -111 128 -109 439 -318 630 -423 268 -148 626 -301 865 -369
268 -77 419 -111 645 -144 188 -28 185 -28 285 -35 50 -4 110 -9 135 -11 51
-6 1901 -6 1907 -1 2 2 -1 17 -6 33 -5 16 -39 123 -76 239 -36 116 -86 271
-110 345 -23 74 -54 171 -68 215 -54 172 -159 501 -167 525 -5 14 -36 113 -70
220 -34 107 -90 285 -125 395 -35 110 -79 246 -96 302 l-33 103 -515 1 c-284
0 -534 2 -556 5 -403 39 -726 158 -1065 391 -44 30 -194 158 -251 214 -112
109 -280 326 -348 449 -117 215 -204 448 -240 645 -6 33 -13 71 -16 84 -30
153 -28 472 5 674 60 375 242 757 505 1056 267 304 657 542 1054 642 139 36
155 38 321 59 67 8 406 5 450 -4 14 -2 43 -7 65 -11 195 -28 387 -84 553 -161
40 -19 74 -34 76 -34 22 0 281 -166 370 -236 l58 -46 -39 -42 c-22 -22 -64
-70 -94 -106 -29 -36 -56 -67 -59 -70 -3 -3 -34 -39 -70 -80 -36 -41 -67 -77
-70 -80 -3 -3 -30 -34 -60 -70 -30 -36 -58 -67 -61 -70 -6 -5 -107 -121 -208
-239 -25 -30 -53 -61 -61 -70 -9 -9 -40 -45 -70 -81 -30 -36 -64 -74 -75 -86
-11 -12 -31 -34 -44 -50 -23 -28 -276 -319 -406 -468 -5 -6 -37 -43 -70 -81
-33 -39 -62 -72 -65 -75 -3 -3 -15 -17 -28 -31 l-23 -26 1537 0 c1126 0 1541
3 1549 11 5 6 32 38 60 71 27 33 62 74 76 90 24 27 225 262 337 395 26 30 81
93 122 141 41 47 98 112 125 144 28 32 55 63 60 69 6 6 48 56 95 111 47 55 90
105 96 110 6 6 44 48 84 95 113 131 181 209 222 254 21 23 38 44 38 48 0 13
-69 198 -121 321 -195 465 -487 919 -829 1291 -139 151 -339 339 -480 451 -41
33 -77 62 -80 65 -14 15 -196 145 -279 199 -224 148 -495 292 -738 395 -329
138 -775 260 -1098 302 -27 3 -58 8 -67 9 -9 2 -52 7 -95 10 -43 4 -87 9 -98
12 -22 6 -641 14 -646 9z"/>
</g>
</svg>
