<?xml version="1.0" standalone="no"?>
<!DOCTYPE svg PUBLIC "-//W3C//DTD SVG 20010904//EN"
 "http://www.w3.org/TR/2001/REC-SVG-20010904/DTD/svg10.dtd">
<svg version="1.0" xmlns="http://www.w3.org/2000/svg"
 width="300.000000pt" height="300.000000pt" viewBox="0 0 300.000000 300.000000"
 preserveAspectRatio="xMidYMid meet">
<metadata>
Created by potrace 1.14, written by Peter Selinger 2001-2017
</metadata>
<g transform="translate(0.000000,300.000000) scale(0.100000,-0.100000)"
fill="#000000" stroke="none">
<path d="M1409 2996 c-2 -2 -29 -7 -59 -10 -105 -13 -266 -56 -357 -96 -100
-44 -120 -54 -193 -97 -322 -190 -558 -490 -674 -857 -71 -223 -82 -543 -27
-772 93 -383 309 -696 628 -910 151 -101 345 -185 505 -218 40 -8 87 -18 103
-21 64 -14 360 -14 445 -1 333 52 627 203 856 438 148 152 193 239 181 353 -7
72 -35 132 -84 181 -61 62 -123 87 -213 87 -98 1 -166 -30 -230 -104 -182
-212 -348 -314 -577 -353 -86 -15 -245 -14 -328 3 -149 30 -312 114 -431 225
-294 270 -372 699 -193 1059 148 298 456 490 789 491 63 0 131 -3 150 -6 278
-45 519 -217 657 -469 68 -124 152 -180 273 -184 180 -6 322 144 306 325 -9
106 -135 314 -284 471 -231 243 -535 402 -866 453 -78 12 -367 21 -377 12z"/>
</g>
</svg>
