<svg width="25" height="20" fill="none" xmlns="http://www.w3.org/2000/svg"><path fill-rule="evenodd" clip-rule="evenodd" d="M2.008 1.118 9.52 8.671a4.214 4.214 0 0 0 5.958 0l7.513-7.553A.171.171 0 0 0 23.02.91a.171.171 0 0 0-.05-.055A4.698 4.698 0 0 0 20.266 0H4.734a4.698 4.698 0 0 0-2.703.855.171.171 0 0 0-.023.263ZM0 4.757c0-.767.185-1.523.54-2.203a.171.171 0 0 1 .206-.083.17.17 0 0 1 .067.042l7.419 7.454a6.023 6.023 0 0 0 8.536 0l7.419-7.454a.171.171 0 0 1 .22-.019c.022.016.04.036.052.06A4.74 4.74 0 0 1 25 4.757v9.93c0 2.625-2.125 4.757-4.734 4.757H4.734C2.125 19.444 0 17.312 0 14.687v-9.93Z" fill="#181A1E"/></svg>