<?xml version="1.0" encoding="utf-8"?>
<!-- Generator: Adobe Illustrator 23.1.0, SVG Export Plug-In . SVG Version: 6.00 Build 0)  -->
<svg version="1.1" xmlns="http://www.w3.org/2000/svg" xmlns:xlink="http://www.w3.org/1999/xlink" x="0px" y="0px" width="200px"
	 height="82px" viewBox="0 0 200 82" style="enable-background:new 0 0 200 82;" xml:space="preserve">
<style type="text/css">
	.st0{fill:#FFFFFF;}
	.st1{fill:#D4B05E;}
</style>
<g id="Layer_1">
</g>
<g id="Layer_2">
	<g>
		<g>
			<g>
				<path class="st0" d="M94.9,44.6c1.2-1.1,1.8-2.6,1.8-4.5c0-1.7-0.6-3-1.7-3.9s-2.7-1.4-4.7-1.4h-3.7v-4.2h8v-3.5H82.2v19.1h7.6
					C92,46.2,93.7,45.7,94.9,44.6z M86.5,43.1v-5.1h2.7c1.9,0,2.9,0.8,2.9,2.5c0,1.8-1,2.6-3,2.6H86.5z"/>
				<path class="st0" d="M109.1,37.3v8.9h3.8V32.6h-4.1l-4.6,7c-0.3,0.5-0.6,1.1-0.9,1.7v-8.7h-3.9v13.7h4l4.6-7
					C108.4,38.6,108.7,38,109.1,37.3z"/>
				<path class="st0" d="M126.9,42.4c0-0.9-0.3-1.6-0.9-2.2c-0.6-0.6-1.5-0.9-2.6-1v-0.1c2.1-0.4,3.2-1.5,3.2-3.2c0-2.5-2-3.7-6-3.7
					c-1.3,0-2.7,0.2-4.3,0.7v2.9c1.2-0.5,2.4-0.8,3.6-0.8c1.6,0,2.4,0.5,2.4,1.4c0,1-0.9,1.5-2.7,1.5h-1.9v2.6h1.9
					c2.1,0,3.1,0.5,3.1,1.6c0,1-0.9,1.6-2.8,1.6c-1.3,0-2.6-0.3-3.9-0.9v3.1c1.3,0.4,2.7,0.6,4.4,0.6
					C124.7,46.5,126.9,45.1,126.9,42.4z"/>
				<polygon class="st0" points="138.5,46.2 142.8,46.2 142.8,32.6 138.5,32.6 138.5,37.6 133.8,37.6 133.8,32.6 129.6,32.6 
					129.6,46.2 133.8,46.2 133.8,40.5 138.5,40.5 				"/>
				<path class="st0" d="M157.4,42.5c-1.1,0.7-2.5,1.1-4,1.1c-2.4,0-3.6-1-3.7-3h8.9v-1.8c0-2-0.5-3.6-1.6-4.8
					c-1.1-1.2-2.6-1.8-4.6-1.8c-1.9,0-3.5,0.7-4.9,2c-1.3,1.3-2,3.1-2,5.4c0,2.2,0.6,3.9,1.8,5.1c1.2,1.2,2.9,1.8,5.1,1.8
					c2,0,3.7-0.3,4.9-1V42.5z M150.6,35.9c0.5-0.6,1.1-0.8,1.8-0.8c1.6,0,2.4,1,2.4,2.9h-5C149.8,37.2,150.1,36.5,150.6,35.9z"/>
				<path class="st0" d="M171.4,42.3c-1,0.7-2,1-3.1,1c-1.2,0-2.1-0.3-2.8-1c-0.7-0.7-1-1.6-1-2.8c0-1.2,0.4-2.2,1.1-2.9
					s1.7-1.1,2.9-1.1c1.1,0,2.1,0.3,2.9,1v-3.6c-0.7-0.4-1.9-0.6-3.5-0.6c-2.3,0-4.2,0.7-5.6,2c-1.4,1.3-2.1,3.2-2.1,5.5
					c0,2,0.6,3.7,1.9,4.9c1.3,1.3,3,1.9,5.1,1.9c1.8,0,3.2-0.3,4.1-0.8V42.3z"/>
				<path class="st0" d="M94.1,52.6h-0.5v-2.2h-4.2v2.2h-0.5c-2.5,0-4.4,0.7-5.8,2C81.7,56,81,57.8,81,60.1c0,2.3,0.7,4.2,2.2,5.6
					c1.4,1.4,3.4,2.2,5.8,2.2h0.5v2.2h4.2v-2.2H94c2.5,0,4.4-0.7,5.8-2.2c1.4-1.4,2.2-3.3,2.2-5.6c0-2.2-0.7-4.1-2.1-5.4
					C98.5,53.3,96.6,52.6,94.1,52.6z M89.4,64.6h-0.2c-1.2,0-2.1-0.4-2.8-1.2c-0.7-0.8-1-1.9-1-3.2c0-1.3,0.3-2.4,1-3.2
					c0.7-0.8,1.6-1.2,2.8-1.2h0.2V64.6z M96.6,63.4c-0.7,0.8-1.6,1.2-2.8,1.2h-0.2v-8.7h0.2c1.2,0,2.1,0.4,2.8,1.2
					c0.7,0.8,1,1.8,1,3.2C97.6,61.5,97.3,62.6,96.6,63.4z"/>
				<path class="st0" d="M110.7,56c-1.9,0-3.5,0.7-4.9,2c-1.3,1.3-2,3.1-2,5.4c0,2.2,0.6,3.9,1.8,5.1c1.2,1.2,2.9,1.8,5.1,1.8
					c2,0,3.7-0.3,4.9-1v-3c-1.1,0.7-2.5,1.1-4,1.1c-2.4,0-3.6-1-3.7-3h8.9v-1.8c0-2-0.5-3.6-1.6-4.8C114.3,56.5,112.7,56,110.7,56z
					 M108.1,61.7c0.1-0.8,0.4-1.5,0.9-2.1c0.5-0.6,1.1-0.8,1.8-0.8c1.6,0,2.4,1,2.4,2.9H108.1z"/>
				<polygon class="st0" points="128.4,61.3 123.7,61.3 123.7,56.3 119.5,56.3 119.5,69.9 123.7,69.9 123.7,64.2 128.4,64.2 
					128.4,69.9 132.7,69.9 132.7,56.3 128.4,56.3 				"/>
				<path class="st0" d="M141,63.3c-0.3,0.5-0.6,1.1-0.9,1.7v-8.7h-3.9v13.7h4l4.6-7c0.4-0.6,0.8-1.2,1.1-1.9v8.9h3.8V56.3h-4.1
					L141,63.3z"/>
				<polygon class="st0" points="166.8,56.3 161.8,56.3 157.6,62.7 157.6,62.7 157.6,56.3 153.3,56.3 153.3,69.9 157.6,69.9 
					157.6,63.3 157.6,63.3 161.9,69.9 167,69.9 161.8,62.8 				"/>
				<path class="st0" d="M169.5,58c-1.4,1.3-2.1,3.2-2.1,5.5c0,2,0.6,3.7,1.9,4.9c1.3,1.3,3,1.9,5.1,1.9c1.8,0,3.2-0.3,4.1-0.8v-3.4
					c-1,0.7-2,1-3.1,1c-1.2,0-2.1-0.3-2.8-1c-0.7-0.7-1-1.6-1-2.8c0-1.2,0.4-2.2,1.1-2.9s1.7-1.1,2.9-1.1c1.1,0,2.1,0.3,2.9,1v-3.6
					c-0.7-0.4-1.9-0.6-3.5-0.6C172.7,56,170.8,56.6,169.5,58z"/>
				<rect x="195.8" y="56.3" class="st0" width="4.2" height="13.7"/>
				<path class="st0" d="M192.7,62.2c-0.9-0.8-2.1-1.1-3.6-1.1h-3.6v-4.8h-4.2v13.7h7.9c1.5,0,2.7-0.4,3.5-1.2
					c0.9-0.8,1.3-1.9,1.3-3.3C194,64,193.6,62.9,192.7,62.2z M187.5,67.3h-2v-3.5h2.1c1.4,0,2.1,0.6,2.1,1.7
					C189.7,66.7,189,67.3,187.5,67.3z"/>
			</g>
			<g>
				<path class="st0" d="M85.8,19.7v1H85v-1h-0.1c-0.8,0-1.5-0.3-2.1-0.9c-0.5-0.6-0.8-1.3-0.8-2.1c0-0.8,0.3-1.5,0.8-2
					c0.5-0.5,1.2-0.8,2.1-0.8H85V13h0.8v0.9h0.1c0.9,0,1.6,0.3,2.1,0.8c0.5,0.5,0.8,1.2,0.8,2c0,0.8-0.3,1.5-0.8,2.1
					c-0.5,0.6-1.2,0.9-2.1,0.9H85.8z M85,19v-4.3h-0.1c-0.6,0-1.1,0.2-1.4,0.6c-0.4,0.4-0.5,0.9-0.5,1.5c0,0.7,0.2,1.2,0.5,1.6
					c0.4,0.4,0.8,0.6,1.4,0.6H85z M85.8,14.7V19h0.1c0.6,0,1.1-0.2,1.4-0.6c0.4-0.4,0.5-0.9,0.5-1.6c0-0.6-0.2-1.1-0.5-1.5
					c-0.4-0.4-0.8-0.6-1.4-0.6H85.8z"/>
				<path class="st0" d="M92.4,20.8c-0.8,0-1.4-0.3-1.9-0.8c-0.5-0.5-0.7-1.2-0.7-2c0-0.9,0.2-1.6,0.7-2.1c0.5-0.5,1.2-0.8,2-0.8
					c0.8,0,1.4,0.2,1.9,0.7c0.4,0.5,0.7,1.2,0.7,2.1c0,0.9-0.2,1.5-0.7,2.1C93.8,20.6,93.2,20.8,92.4,20.8z M92.4,15.9
					c-0.6,0-1,0.2-1.3,0.6c-0.3,0.4-0.5,0.9-0.5,1.6c0,0.6,0.2,1.1,0.5,1.5c0.3,0.4,0.8,0.6,1.3,0.6c0.6,0,1-0.2,1.3-0.5
					c0.3-0.4,0.4-0.9,0.4-1.5c0-0.7-0.1-1.2-0.4-1.6S93,15.9,92.4,15.9z"/>
				<path class="st0" d="M100.9,20.7H100v-2.4h-2.7v2.4h-0.9v-5.4h0.9v2.2h2.7v-2.2h0.9V20.7z"/>
				<path class="st0" d="M107.3,22.7h-0.7v-2h-4v2h-0.7V20h0.5c0.9-1.3,1.4-2.9,1.4-4.6h2.8V20h0.8V22.7z M105.7,20v-3.9h-1.2
					c-0.1,1.4-0.5,2.8-1.2,3.9H105.7z"/>
			</g>
		</g>
		<g>
			<path class="st1" d="M43.1,48.7c-32.8-25-7.4-46.1-7.4-46.1C32.2,0.4,24-1.2,17.2,3.7C13.2,6.6,6.8,13,9.4,25
				c2.3,10.6,9.3,16.3,23.4,24.1C5.5,44.3,2.3,34.2,0,27.9c-0.6,25.2,14.2,31.1,33.6,41C15.3,68,10.1,61,1.6,53.8
				C14,88.3,42.9,82.4,51.5,78.5C53.8,61.2,47,51.8,43.1,48.7z"/>
			<path class="st1" d="M69.8,54.8c-4.4-10.6-7.6-12.6-8.3-21.5c-0.5-6.9,2-8.3,2.4-8.5c1.3-0.8,2.9-0.8,5.3,2.6
				c0,0,2.4-4.4-2.9-8.4c-5.3-3.9-7.7-3.7-9.9-4.3c-2.2-0.6-7.5-2-14.7,0.8c4.2-0.5,7.5-0.7,9.4,0.9c-0.7,0-1.3,0.1-1.8,0.2
				c-0.3,0-0.7,0.1-1.2,0.2c-0.1,0-0.3,0.1-0.4,0.1c0,0,0,0,0,0c0,0,0,0,0,0c0,0-0.1,0-0.1,0c-6.8,2.2-7.1,8.6-7.1,8.6
				c1.6-1,3.2-1.4,4.6-1.5c-1.5,2.7-2.2,6.3-0.4,11.2c0.3-1.8,1.3-3.7,3.5-4.9c-1,3.2-2.8,9.3-1.4,13.7c4.2,3.2,4.5,4.8,6.2,8.4
				c-0.9-4.4-4.6-15.2,0.8-22.9c0.3,5.4,1.2,13.7,6.2,21.9c5.6,9.3,5,15.9,3.4,22.7C63.3,74.3,74.3,65.5,69.8,54.8z M63.3,21.3
				c-1,0-1.7,0.2-2.9,0.4c-1.7-1.5-3.9-2.7-3.9-2.7C58.9,18.4,61,19.5,63.3,21.3z"/>
		</g>
	</g>
</g>
</svg>
