<?xml version="1.0" encoding="utf-8"?>
<!-- Generator: Adobe Illustrator 23.1.0, SVG Export Plug-In . SVG Version: 6.00 Build 0)  -->
<svg version="1.1" xmlns="http://www.w3.org/2000/svg" xmlns:xlink="http://www.w3.org/1999/xlink" x="0px" y="0px" width="100px"
	 height="100px" viewBox="0 0 100 100" style="enable-background:new 0 0 100 100;" xml:space="preserve">
<style type="text/css">
	.st0{fill:#D4B05E;}
</style>
<g id="Layer_1">
</g>
<g id="Layer_2">
	<g>
		<path class="st0" d="M59.5,59.5C19,28.6,50.3,2.6,50.3,2.6C46-0.1,35.9-2.1,27.5,4c-4.9,3.5-12.9,11.5-9.6,26.3
			C20.7,43.4,29.3,50.4,46.8,60C13,54.1,9.1,41.6,6.3,33.8C5.6,65,23.8,72.2,47.7,84.5c-22.6-1.2-29-9.8-39.6-18.7
			c15.3,42.5,51.1,35.3,61.6,30.5C72.7,75,64.3,63.4,59.5,59.5z"/>
		<path class="st0" d="M92.4,67.1C87,53.9,83,51.5,82.2,40.5c-0.6-8.5,2.5-10.2,3-10.5c1.7-1,3.6-1,6.6,3.2c0,0,3-5.5-3.6-10.3
			c-6.6-4.8-9.5-4.5-12.2-5.3c-2.7-0.8-9.3-2.5-18.1,1c5.2-0.6,9.2-0.8,11.6,1.2c-0.9,0.1-1.6,0.1-2.3,0.2c-0.4,0-0.9,0.1-1.4,0.3
			c-0.2,0-0.3,0.1-0.5,0.1c0,0,0,0,0,0c0,0,0,0,0,0c0,0-0.1,0-0.1,0c-8.4,2.7-8.8,10.6-8.8,10.6c1.9-1.3,4-1.7,5.7-1.8
			c-1.9,3.3-2.8,7.7-0.5,13.8c0.4-2.2,1.6-4.6,4.3-6c-1.3,3.9-3.5,11.5-1.7,17c5.2,4,5.6,5.9,7.6,10.4c-1.1-5.4-5.7-18.8,1-28.3
			c0.3,6.7,1.5,16.9,7.6,27.1c6.9,11.5,6.2,19.6,4.2,28C84.4,91,97.9,80.2,92.4,67.1z M84.4,25.7c-1.2,0.1-2.1,0.3-3.6,0.5
			c-2.1-1.9-4.8-3.3-4.8-3.3C79,22.1,81.5,23.5,84.4,25.7z"/>
	</g>
</g>
</svg>
