<?xml version="1.0" encoding="utf-8"?>
<!-- Generator: Adobe Illustrator 12.0.0, SVG Export Plug-In  -->
<!DOCTYPE svg PUBLIC "-//W3C//DTD SVG 1.1//EN" "http://www.w3.org/Graphics/SVG/1.1/DTD/svg11.dtd" [
	<!ENTITY ns_flows "http://ns.adobe.com/Flows/1.0/">
	<!ENTITY ns_svg "http://www.w3.org/2000/svg">
	<!ENTITY ns_xlink "http://www.w3.org/1999/xlink">
]>
<svg  version="1.1" xmlns="&ns_svg;" xmlns:xlink="&ns_xlink;" xmlns:a="http://ns.adobe.com/AdobeSVGViewerExtensions/3.0/"
	 width="298" height="58" viewBox="-0.555 -0.952 298 58" enable-background="new -0.555 -0.952 298 58" xml:space="preserve">
<defs>
</defs>
<g>
	<g>
		<path fill="#FFFFFF" d="M36.637,40.412c0-0.307,0.23-8.818-2.914-14.033s-6.748-6.825-10.812-7.822
			c-4.065-0.997-9.754-0.453-14.57,2.684c-4.995,3.253-7.745,8.436-8.205,12.729c-0.46,4.294,0.13,11.574,3.504,15.714
			c3.374,4.142,7.861,7.432,14.989,7.196c7.699-0.254,11.759-2.079,16.32-7.42c-2.99-2.301-5.291-4.294-5.291-4.294
			s-3.735,5.544-10.176,5.531c-6.367-0.01-12.062-3.846-12.062-10.44C11.409,40.105,36.637,40.718,36.637,40.412z M7.367,34.617
			c0.351-6.661,6.41-9.903,8.119-10.166c1.709-0.264,6.523-1.183,10.029,1.708c3.505,2.892,3.674,8.326,3.674,8.326
			S11.179,34.617,7.367,34.617z"/>
	</g>
</g>
<g>
	<g>
		<path fill="#FFFFFF" d="M86.327,49.47c0,0,5.126-1.796,8.15-6.747c3.024-4.951,4.294-9.99,4.338-12.751
			c0.044-2.76-0.658-11.743-2.716-15.292c-2.06-3.549-3.769-5.959-6.836-8.369C86.195,3.9,80.456-0.043,70.903,0
			c-4.82,0.022-9.29,1.139-12.269,2.672c-5.681,2.924-10.342,7.8-11.788,10.736c-1.446,2.936-4.293,9.64-3.637,17.571
			c0.657,7.931,5.638,14.488,6.748,15.862c1.665,2.06,10.208,8.94,20.244,8.983c10.473,0.043,32.338-0.045,32.338-0.045V49.47
			H86.327z M71.034,48.814c-8.281,0.082-12.313-3.856-15.161-6.879c-2.848-3.024-4.733-8.721-4.733-14.154
			c0-6.485,1.403-10.823,6.661-15.775c5.258-4.951,10.517-4.864,13.102-4.864c9.026,0,12.633,3.929,14.153,5.477
			c2.366,2.411,5.828,6.792,5.828,14.68c0,7.888-2.676,12.126-4.426,14.197C83.347,45.177,79.886,48.727,71.034,48.814z"/>
	</g>
</g>
<g>
	<g>
		<path fill="#FFFFFF" d="M138.515,22.654c-3.812-3.155-7.932-4.294-12.226-4.294s-9.246,0.964-14.197,5.872
			c-4.951,4.908-5.346,11.612-5.346,13.146s1.021,8.973,4.645,12.882c3.899,4.207,8.325,6.705,14.547,6.705
			s11.962-3.243,15.074-6.837c3.111-3.593,4.469-6.309,4.469-12.269C145.482,30.148,142.327,25.81,138.515,22.654z M135.097,46.097
			c-1.358,1.709-3.816,3.986-8.619,3.986c-3.856,0-6.192-0.743-8.689-3.241c-2.498-2.498-3.506-5.327-3.506-9.577
			s1.446-6.549,2.936-8.52c1.49-1.972,4.887-3.866,8.787-3.866s6.374,1.587,8.391,3.165c2.016,1.578,3.593,5.17,3.593,9.508
			S136.455,44.387,135.097,46.097z"/>
	</g>
</g>
<g>
	<g>
		<path fill="#FFFFFF" d="M226.853,22.654c-3.813-3.155-7.932-4.294-12.226-4.294s-9.245,0.964-14.196,5.872
			c-4.952,4.908-5.347,11.612-5.347,13.146c0,4.608,1.115,9.352,4.74,13.262c3.898,4.206,8.23,6.325,14.452,6.325
			c6.223,0,12.429-3.387,15.312-7.167c1.975-2.591,4.043-6.311,4.043-12.27C233.631,29.816,230.665,25.81,226.853,22.654z
			 M223.436,46.097c-1.359,1.709-4.432,4.082-8.809,4.082c-3.855,0-6.808-1.597-8.879-3.574c-2.555-2.438-3.269-4.758-3.269-9.009
			c0-4.25,1.588-6.88,3.078-8.851c1.489-1.972,4.839-3.866,8.738-3.866s6.422,1.587,8.438,3.165c2.016,1.578,3.593,5.17,3.593,9.508
			S224.793,44.387,223.436,46.097z"/>
	</g>
</g>
<path fill="#FFFFFF" d="M154.118,19.334v36.382h6.765V26.62c0,0-0.189-1.75,1.467-1.75c1.655,0,8.8,0,9.936,0
	c4.163,0,7.097,3.738,7.097,7.854c0,5.015,0,23.087,0,23.087h6.954V31.256c0,0-0.331-5.961-2.695-8.327
	c-2.816-2.816-4.779-3.548-9.32-3.548C169.777,19.381,154.118,19.334,154.118,19.334z"/>
<path fill="#FFFFFF" d="M242.306,19.381v36.382h6.908V24.87c0,0,8.232,0,10.551,0s6.576,1.797,6.576,7.806
	c0,9.558,0,23.229,0,23.229h6.767v-28.48c0-1.183,0.473-2.555,3.026-2.555c3.407,0,5.347,0,7.286,0s6.907,1.325,6.907,9.036
	c0,5.015,0,21.857,0,21.857h6.767v-24.46c0,0-0.615-12.016-9.841-12.016c-9.227,0-16.086-0.047-16.086-0.047
	s-3.359,0.095-3.785,3.217c-0.945-1.608-1.986-2.791-5.063-3.122C259.244,19.334,242.306,19.381,242.306,19.381z"/>
</svg>
