<?xml version="1.0" encoding="utf-8"?>
<!-- Generator: Adobe Illustrator 23.1.0, SVG Export Plug-In . SVG Version: 6.00 Build 0)  -->
<svg version="1.1" xmlns="http://www.w3.org/2000/svg" xmlns:xlink="http://www.w3.org/1999/xlink" x="0px" y="0px" width="100px"
	 height="100px" viewBox="0 0 100 100" style="enable-background:new 0 0 100 100;" xml:space="preserve">
<style type="text/css">
	.st0{fill:#FAC91B;}
</style>
<g id="Layer_1">
</g>
<g id="OBJECTS">
	<circle class="st0" cx="50" cy="50" r="50"/>
	<path d="M79.4,17.9c0,0-21.5-5.8-45.3,18c-0.1,0.1-1.2,1.3-2.8,3.4c-6.8-1.1-16.2,1.6-25.7,11.9c6.6,1.1,11.4,2.8,14.4,5.4
		c-3.4,7-5.2,14.3-2.1,19.4c-1.8,2.4-6.1,3-8.1,3.8c3.3,4.3,4.7,5.7,7.5,8c0.5-3.4,1.8-5.7,4-8.5c5.1,3.2,12.5,1.4,19.5-2
		c2.6,3,4.3,7.9,5.4,14.4c10.3-9.6,13-19,11.9-25.7c2-1.6,3.3-2.7,3.4-2.8C85.2,39.4,79.4,17.9,79.4,17.9z M46.3,51
		c-4.1-4.1-4.1-10.7,0-14.8c4.1-4.1,10.7-4.1,14.8,0c4.1,4.1,4.1,10.7,0,14.8C57,55.1,50.4,55.1,46.3,51z"/>
</g>
</svg>
