<?xml version="1.0" encoding="utf-8"?>
<!-- Generator: Adobe Illustrator 23.1.0, SVG Export Plug-In . SVG Version: 6.00 Build 0)  -->
<svg version="1.1" id="Layer_1" xmlns="http://www.w3.org/2000/svg" xmlns:xlink="http://www.w3.org/1999/xlink" x="0px" y="0px"
	 width="300px" height="100px" viewBox="0 0 300 100" style="enable-background:new 0 0 300 100;" xml:space="preserve">
<style type="text/css">
	.st0{fill:#FFFFFF;}
</style>
<g>
	<path class="st0" d="M56.8,79.2L42.4,58.7c0,0,0.1,0,0.1-0.1c4.1-1.8,7.4-4.5,9.6-7.9c2.3-3.4,3.4-7.6,3.4-12.3
		c0-4.8-1.1-9-3.4-12.4c-2.3-3.5-5.5-6.1-9.6-8c-4.2-1.9-9.1-2.8-14.8-2.8H0v64.1h14.8V61.4h12.9c0.2,0,0.5,0,0.7,0l12.3,17.9h16.1
		V79.2z M37.2,30.1c2.3,2,3.4,4.7,3.4,8.2s-1.1,6.2-3.4,8.2c-2.3,2-5.7,3-10.3,3H14.8V27.2h12.1C31.5,27.2,34.9,28.2,37.2,30.1z"/>
	<polygon class="st0" points="138.5,79.2 138.3,15.1 126.2,15.1 102.6,54.9 78.6,15.1 66.3,15.1 66.3,79.2 80.2,79.2 80.2,41.6 
		99,72.4 105.7,72.4 124.5,40.7 124.6,79.2 	"/>
	<path class="st0" d="M192.7,65c-1,0.5-2,0.9-3,1.3c-2.8,0.9-5.6,1.4-8.6,1.4c-3.1,0-5.8-0.5-8.4-1.5c-2.5-1-4.7-2.4-6.6-4.3
		c-1.9-1.9-3.3-4-4.3-6.5s-1.5-5.2-1.5-8.2c0-3.1,0.5-5.8,1.5-8.3s2.4-4.7,4.3-6.5c1.9-1.8,4.1-3.2,6.6-4.2c2.6-1,5.4-1.5,8.5-1.5
		c3.2,0,6.2,0.6,9,1.8c2.7,1.2,5.3,3,7.6,5.4l9.5-8.8c-3.1-3.6-6.9-6.3-11.5-8.2c-4.5-1.9-9.7-2.8-15.3-2.8c-5.1,0-9.8,0.8-14.1,2.4
		s-8,3.9-11.2,6.9s-5.6,6.5-7.4,10.5c-1.7,4-2.6,8.5-2.6,13.3s0.9,9.2,2.6,13.3c1.7,4,4.2,7.5,7.3,10.5s6.8,5.3,11.1,6.9
		c4.2,1.6,8.9,2.4,14,2.4c4.6,0,9.2-0.7,13.8-2.1s8.7-3.4,12.1-6v-26h-13.5L192.7,65L192.7,65z"/>
</g>
<g id="OBJECTS">
	<g>
		<path class="st0" d="M237.6,93.5c-1.6,0-3.3-0.4-4.8-1.2c-3.4-1.8-5.5-5.3-5.5-9.2v-72c0-3.9,2.1-7.4,5.5-9.2s7.5-1.5,10.7,0.7
			l51.9,36c2.8,1.9,4.4,5.1,4.4,8.5s-1.7,6.6-4.4,8.5l-51.9,36C241.7,92.9,239.7,93.5,237.6,93.5z M244.7,24.8v44.8L277,47.2
			L244.7,24.8z"/>
	</g>
</g>
<g>
	<path class="st0" d="M0,95.1V84.2h4.1c0.9,0,1.7,0.1,2.4,0.4C7.1,85,7.6,85.4,8,86c0.4,0.6,0.5,1.2,0.5,2c0,0.8-0.2,1.4-0.5,2
		c-0.4,0.6-0.9,1-1.5,1.3c-0.7,0.3-1.5,0.5-2.4,0.5H0.6l0.5-0.5v4H0z M1.2,91.2l-0.5-0.6H4c1.1,0,1.9-0.2,2.5-0.7
		c0.6-0.5,0.8-1.1,0.8-2c0-0.9-0.3-1.5-0.8-2C6,85.5,5.1,85.2,4,85.2H0.6l0.5-0.5V91.2z"/>
	<path class="st0" d="M13.9,95.2c-0.8,0-1.5-0.2-2.1-0.5c-0.6-0.4-1.1-0.9-1.5-1.5c-0.4-0.6-0.5-1.3-0.5-2.2c0-0.8,0.2-1.5,0.5-2.2
		c0.4-0.6,0.9-1.1,1.5-1.5c0.6-0.4,1.3-0.5,2.1-0.5c0.8,0,1.5,0.2,2.2,0.5c0.6,0.4,1.1,0.8,1.5,1.5c0.4,0.6,0.5,1.3,0.5,2.2
		c0,0.8-0.2,1.5-0.5,2.2c-0.4,0.6-0.9,1.1-1.5,1.5C15.4,95,14.7,95.2,13.9,95.2z M13.9,94.2c0.6,0,1.1-0.1,1.6-0.4s0.8-0.6,1.1-1.1
		c0.3-0.5,0.4-1,0.4-1.7c0-0.6-0.1-1.2-0.4-1.7c-0.3-0.5-0.6-0.8-1.1-1.1c-0.5-0.3-1-0.4-1.6-0.4s-1.1,0.1-1.6,0.4
		c-0.5,0.3-0.8,0.6-1.1,1.1s-0.4,1-0.4,1.7c0,0.6,0.1,1.2,0.4,1.7c0.3,0.5,0.6,0.9,1.1,1.1C12.8,94.1,13.3,94.2,13.9,94.2z"/>
	<path class="st0" d="M23.9,95.2c-0.8,0-1.5-0.2-2.2-0.5c-0.6-0.4-1.1-0.9-1.5-1.5c-0.4-0.6-0.5-1.3-0.5-2.2c0-0.8,0.2-1.5,0.5-2.2
		c0.4-0.6,0.9-1.1,1.5-1.5c0.6-0.4,1.4-0.5,2.2-0.5c0.7,0,1.3,0.1,1.9,0.4c0.6,0.3,1,0.7,1.3,1.2l-0.8,0.6c-0.3-0.4-0.6-0.7-1-0.9
		c-0.4-0.2-0.9-0.3-1.4-0.3c-0.6,0-1.1,0.1-1.6,0.4c-0.5,0.3-0.8,0.6-1.1,1.1c-0.3,0.5-0.4,1-0.4,1.7s0.1,1.2,0.4,1.7
		c0.3,0.5,0.6,0.8,1.1,1.1s1,0.4,1.6,0.4c0.5,0,0.9-0.1,1.4-0.3c0.4-0.2,0.8-0.5,1-0.9l0.8,0.6c-0.3,0.5-0.8,0.9-1.3,1.2
		C25.2,95.1,24.6,95.2,23.9,95.2z"/>
	<path class="st0" d="M32.5,95.2c-0.8,0-1.5-0.2-2.2-0.5c-0.6-0.4-1.1-0.9-1.5-1.5c-0.4-0.6-0.5-1.3-0.5-2.2c0-0.8,0.2-1.5,0.5-2.2
		c0.4-0.6,0.9-1.1,1.5-1.5c0.6-0.4,1.4-0.5,2.2-0.5c0.7,0,1.3,0.1,1.9,0.4c0.6,0.3,1,0.7,1.3,1.2l-0.8,0.6c-0.3-0.4-0.6-0.7-1-0.9
		c-0.4-0.2-0.9-0.3-1.4-0.3c-0.6,0-1.1,0.1-1.6,0.4c-0.5,0.3-0.8,0.6-1.1,1.1c-0.3,0.5-0.4,1-0.4,1.7s0.1,1.2,0.4,1.7
		c0.3,0.5,0.6,0.8,1.1,1.1s1,0.4,1.6,0.4c0.5,0,0.9-0.1,1.4-0.3c0.4-0.2,0.8-0.5,1-0.9l0.8,0.6c-0.3,0.5-0.8,0.9-1.3,1.2
		C33.8,95.1,33.2,95.2,32.5,95.2z"/>
	<path class="st0" d="M37.8,95.1V87h1.1v6.5l5.5-6.5h1v8.2h-1.1v-6.5l-5.4,6.5H37.8z"/>
	<path class="st0" d="M48.5,95.1V87h1.1v6.5l5.5-6.5h1v8.2H55v-6.5l-5.4,6.5H48.5z M52.2,85.8c-0.7,0-1.2-0.2-1.7-0.5
		c-0.4-0.3-0.6-0.8-0.7-1.5h0.8c0,0.4,0.2,0.7,0.4,1c0.3,0.2,0.6,0.4,1.1,0.4c0.4,0,0.8-0.1,1.1-0.4c0.3-0.2,0.4-0.6,0.4-1h0.8
		c0,0.7-0.2,1.2-0.7,1.5C53.5,85.6,52.9,85.8,52.2,85.8z"/>
	<path class="st0" d="M62.6,95.2c-0.8,0-1.5-0.2-2.2-0.5c-0.6-0.4-1.1-0.9-1.5-1.5c-0.4-0.6-0.5-1.3-0.5-2.2c0-0.8,0.2-1.5,0.5-2.2
		c0.4-0.6,0.9-1.1,1.5-1.5c0.6-0.4,1.4-0.5,2.2-0.5c0.7,0,1.3,0.1,1.9,0.4c0.6,0.3,1,0.7,1.3,1.2L65,89.1c-0.3-0.4-0.6-0.7-1-0.9
		c-0.4-0.2-0.9-0.3-1.4-0.3c-0.6,0-1.1,0.1-1.6,0.4c-0.5,0.3-0.8,0.6-1.1,1.1c-0.3,0.5-0.4,1-0.4,1.7s0.1,1.2,0.4,1.7
		c0.3,0.5,0.6,0.8,1.1,1.1c0.5,0.3,1,0.4,1.6,0.4c0.5,0,0.9-0.1,1.4-0.3c0.4-0.2,0.8-0.5,1-0.9l0.8,0.6c-0.3,0.5-0.8,0.9-1.3,1.2
		C64,95.1,63.3,95.2,62.6,95.2z"/>
	<path class="st0" d="M68,95.1V87h1.1v8.2H68z M68.7,91.5v-0.9h2.6v0.9H68.7z M71.6,91.2l-1-0.2l3.2-4H75L71.6,91.2z M74,95.1
		l-3.4-4l0.9-0.5l3.7,4.6H74z"/>
	<path class="st0" d="M79.1,95.2c-0.6,0-1.1-0.1-1.6-0.3c-0.5-0.2-0.8-0.5-1-0.8c-0.2-0.4-0.4-0.8-0.4-1.2c0-0.4,0.1-0.8,0.3-1.2
		c0.2-0.3,0.5-0.6,1-0.8c0.5-0.2,1.1-0.3,1.9-0.3h2.8v0.8h-2.8c-0.8,0-1.3,0.1-1.6,0.4c-0.3,0.3-0.5,0.6-0.5,1
		c0,0.5,0.2,0.8,0.5,1.1c0.4,0.3,0.9,0.4,1.5,0.4c0.6,0,1.2-0.1,1.6-0.4c0.5-0.3,0.8-0.7,1-1.2l0.2,0.8c-0.2,0.5-0.6,1-1.1,1.3
		C80.5,95,79.9,95.2,79.1,95.2z M81.9,95.1v-1.8l0-0.3v-3c0-0.7-0.2-1.2-0.6-1.6c-0.4-0.4-1-0.6-1.7-0.6c-0.5,0-1,0.1-1.5,0.3
		c-0.5,0.2-0.9,0.4-1.2,0.7L76.3,88c0.4-0.4,0.9-0.6,1.5-0.8c0.6-0.2,1.2-0.3,1.8-0.3c1.1,0,1.9,0.3,2.4,0.8S83,89,83,90v5.1H81.9z"
		/>
	<path class="st0" d="M85.2,95.1l2.2-3.1h1.2l-2.2,3.1H85.2z M91.2,95.1v-2.9l0.2,0.2h-2.8c-1,0-1.9-0.2-2.5-0.7
		c-0.6-0.5-0.9-1.1-0.9-2c0-0.9,0.3-1.6,0.9-2.1c0.6-0.5,1.5-0.7,2.5-0.7h3.4v8.2H91.2z M91.2,91.9v-4.3l0.2,0.3h-2.6
		c-0.8,0-1.3,0.1-1.8,0.4c-0.4,0.3-0.6,0.8-0.6,1.4c0,1.2,0.8,1.8,2.3,1.8h2.7L91.2,91.9z"/>
	<path class="st0" d="M99.7,95.1V84.2h0.9l5,8.5h-0.5l4.9-8.5h0.9v10.9h-1.1V86h0.3l-4.5,7.8h-0.5l-4.6-7.8h0.3v9.2H99.7z"/>
	<path class="st0" d="M117.9,95.2c-0.9,0-1.6-0.2-2.2-0.5c-0.6-0.4-1.1-0.9-1.5-1.5c-0.4-0.6-0.5-1.3-0.5-2.2s0.2-1.5,0.5-2.1
		c0.3-0.6,0.8-1.1,1.4-1.5c0.6-0.4,1.3-0.5,2-0.5c0.8,0,1.4,0.2,2,0.5c0.6,0.3,1.1,0.8,1.4,1.5c0.3,0.6,0.5,1.4,0.5,2.2
		c0,0.1,0,0.1,0,0.2c0,0.1,0,0.1,0,0.2h-7.1v-0.8h6.5l-0.4,0.3c0-0.6-0.1-1.1-0.4-1.6c-0.3-0.5-0.6-0.8-1-1.1
		c-0.4-0.3-0.9-0.4-1.5-0.4c-0.6,0-1.1,0.1-1.5,0.4c-0.4,0.3-0.8,0.6-1,1.1c-0.2,0.5-0.4,1-0.4,1.6v0.2c0,0.6,0.1,1.2,0.4,1.6
		c0.3,0.5,0.7,0.8,1.2,1.1c0.5,0.3,1.1,0.4,1.7,0.4c0.5,0,1-0.1,1.4-0.3c0.4-0.2,0.8-0.4,1.1-0.8l0.6,0.7c-0.4,0.4-0.8,0.8-1.4,1
		C119.1,95.1,118.5,95.2,117.9,95.2z"/>
	<path class="st0" d="M122.4,97.1v-2.9h9.4v2.9h-1v-2h-7.3v2H122.4z M129.4,94.6v-6.7h-3.9l-0.1,1.8c0,0.6-0.1,1.1-0.1,1.6
		c0,0.5-0.1,1-0.2,1.5c-0.1,0.4-0.3,0.8-0.5,1.1c-0.2,0.3-0.5,0.4-0.8,0.5l-1.1-0.2c0.3,0,0.6-0.1,0.8-0.3c0.2-0.2,0.4-0.6,0.5-1
		c0.1-0.4,0.2-0.9,0.2-1.5c0.1-0.5,0.1-1.1,0.1-1.7l0.1-2.7h6v7.6H129.4z"/>
	<path class="st0" d="M133.9,95.1V87h1.1v6.5l5.5-6.5h1v8.2h-1.1v-6.5l-5.4,6.5H133.9z"/>
	<path class="st0" d="M146.9,95.2c-0.6,0-1.1-0.1-1.6-0.3c-0.5-0.2-0.8-0.5-1-0.8c-0.2-0.4-0.4-0.8-0.4-1.2c0-0.4,0.1-0.8,0.3-1.2
		c0.2-0.3,0.5-0.6,1-0.8c0.5-0.2,1.1-0.3,1.9-0.3h2.8v0.8h-2.8c-0.8,0-1.3,0.1-1.6,0.4c-0.3,0.3-0.5,0.6-0.5,1
		c0,0.5,0.2,0.8,0.5,1.1c0.4,0.3,0.9,0.4,1.5,0.4c0.6,0,1.2-0.1,1.6-0.4c0.5-0.3,0.8-0.7,1-1.2l0.2,0.8c-0.2,0.5-0.6,1-1.1,1.3
		C148.3,95,147.7,95.2,146.9,95.2z M149.7,95.1v-1.8l0-0.3v-3c0-0.7-0.2-1.2-0.6-1.6c-0.4-0.4-1-0.6-1.7-0.6c-0.5,0-1,0.1-1.5,0.3
		c-0.5,0.2-0.9,0.4-1.2,0.7l-0.5-0.8c0.4-0.4,0.9-0.6,1.5-0.8c0.6-0.2,1.2-0.3,1.8-0.3c1.1,0,1.9,0.3,2.4,0.8
		c0.6,0.5,0.9,1.3,0.9,2.4v5.1H149.7z"/>
	<path class="st0" d="M153.7,95.1V87h5.8v1h-5l0.3-0.3v7.5H153.7z"/>
	<path class="st0" d="M161.1,98.1V87h1.1v2.5L162,91l0.2,1.6v5.4H161.1z M165.3,95.2c-0.7,0-1.3-0.2-1.9-0.5c-0.6-0.3-1-0.8-1.4-1.4
		c-0.3-0.6-0.5-1.4-0.5-2.3c0-0.9,0.2-1.6,0.5-2.3c0.3-0.6,0.8-1.1,1.4-1.4c0.6-0.3,1.2-0.5,1.9-0.5c0.8,0,1.5,0.2,2.1,0.5
		c0.6,0.3,1.1,0.8,1.5,1.5c0.4,0.6,0.5,1.4,0.5,2.2c0,0.8-0.2,1.6-0.5,2.2c-0.4,0.6-0.8,1.1-1.5,1.5C166.8,95,166.1,95.2,165.3,95.2
		z M165.2,94.2c0.6,0,1.1-0.1,1.6-0.4c0.5-0.3,0.8-0.6,1.1-1.1c0.3-0.5,0.4-1,0.4-1.7c0-0.6-0.1-1.2-0.4-1.7
		c-0.3-0.5-0.6-0.8-1.1-1.1c-0.5-0.3-1-0.4-1.6-0.4c-0.6,0-1.1,0.1-1.6,0.4c-0.5,0.3-0.8,0.6-1.1,1.1c-0.3,0.5-0.4,1-0.4,1.7
		c0,0.6,0.1,1.2,0.4,1.7c0.3,0.5,0.6,0.9,1.1,1.1C164.1,94.1,164.7,94.2,165.2,94.2z"/>
	<path class="st0" d="M171.7,98.2c-0.4,0-0.7-0.1-1.1-0.2c-0.3-0.1-0.6-0.3-0.9-0.6l0.5-0.8c0.2,0.2,0.4,0.4,0.7,0.5
		c0.2,0.1,0.5,0.2,0.8,0.2c0.4,0,0.7-0.1,0.9-0.3c0.3-0.2,0.5-0.6,0.8-1.1l0.5-1.2l0.1-0.2l3.4-7.6h1.1l-4.1,9.1
		c-0.2,0.5-0.5,0.9-0.8,1.3c-0.3,0.3-0.6,0.5-0.9,0.7C172.4,98.1,172.1,98.2,171.7,98.2z M173.9,95.4l-3.8-8.4h1.2l3.3,7.5
		L173.9,95.4z"/>
	<path class="st0" d="M180.2,95.1V87h7.3v8.2h-1.1v-7.5l0.3,0.3H181l0.3-0.3v7.5H180.2z"/>
	<path class="st0" d="M190.7,95.1V87h7.3v8.2h-1.1v-7.5l0.3,0.3h-5.7l0.3-0.3v7.5H190.7z"/>
	<path class="st0" d="M203.4,95.2c-0.6,0-1.1-0.1-1.6-0.3c-0.5-0.2-0.8-0.5-1-0.8c-0.2-0.4-0.4-0.8-0.4-1.2c0-0.4,0.1-0.8,0.3-1.2
		c0.2-0.3,0.5-0.6,1-0.8c0.5-0.2,1.1-0.3,1.9-0.3h2.8v0.8h-2.8c-0.8,0-1.3,0.1-1.6,0.4c-0.3,0.3-0.5,0.6-0.5,1
		c0,0.5,0.2,0.8,0.5,1.1c0.4,0.3,0.9,0.4,1.5,0.4c0.6,0,1.2-0.1,1.6-0.4c0.5-0.3,0.8-0.7,1-1.2l0.2,0.8c-0.2,0.5-0.6,1-1.1,1.3
		C204.9,95,204.2,95.2,203.4,95.2z M206.2,95.1v-1.8l0-0.3v-3c0-0.7-0.2-1.2-0.6-1.6c-0.4-0.4-1-0.6-1.7-0.6c-0.5,0-1,0.1-1.5,0.3
		c-0.5,0.2-0.9,0.4-1.2,0.7l-0.5-0.8c0.4-0.4,0.9-0.6,1.5-0.8c0.6-0.2,1.2-0.3,1.8-0.3c1.1,0,1.9,0.3,2.4,0.8
		c0.6,0.5,0.9,1.3,0.9,2.4v5.1H206.2z"/>
</g>
</svg>
