<?xml version="1.0" encoding="utf-8"?>
<!-- Generator: Adobe Illustrator 23.1.0, SVG Export Plug-In . SVG Version: 6.00 Build 0)  -->
<svg version="1.1" id="Layer_1" xmlns="http://www.w3.org/2000/svg" xmlns:xlink="http://www.w3.org/1999/xlink" x="0px" y="0px"
	 viewBox="0 0 50 50" style="enable-background:new 0 0 50 50;" xml:space="preserve">
<style type="text/css">
	.st0{fill:#FFFFFF;}
</style>
<path class="st0" d="M49.55,22.88h-6.82c-0.97-8.17-7.44-14.65-15.61-15.61V0.45c0-0.25-0.2-0.45-0.45-0.45h-3.35
	c-0.25,0-0.45,0.2-0.45,0.45v6.82C14.71,8.23,8.23,14.71,7.27,22.88H0.45C0.2,22.88,0,23.08,0,23.33v3.35c0,0.25,0.2,0.45,0.45,0.45
	h6.82c0.97,8.17,7.44,14.65,15.61,15.61v6.82c0,0.25,0.2,0.45,0.45,0.45h3.35c0.25,0,0.45-0.2,0.45-0.45v-6.82
	c8.17-0.97,14.65-7.44,15.61-15.61h6.82c0.25,0,0.45-0.2,0.45-0.45v-3.35C50,23.08,49.8,22.88,49.55,22.88z M25,38.62
	c-7.52,0-13.62-6.09-13.62-13.62S17.48,11.38,25,11.38S38.62,17.48,38.62,25S32.52,38.62,25,38.62z"/>
<g>
	<path class="st0" d="M25,33.7c-2.31,0-4.49-0.9-6.14-2.55C17.21,29.5,16.3,27.32,16.3,25c0-2.32,0.91-4.5,2.55-6.15
		c1.64-1.64,3.82-2.55,6.15-2.55c2.33,0,4.51,0.91,6.15,2.55c1.64,1.64,2.55,3.82,2.55,6.14c0,2.31-0.91,4.49-2.55,6.14
		C29.5,32.79,27.32,33.7,25,33.7z M25,20.3c-1.25,0-2.43,0.49-3.31,1.38c-0.89,0.89-1.38,2.07-1.38,3.32c0,1.25,0.49,2.43,1.38,3.32
		c0.89,0.89,2.07,1.38,3.32,1.38c1.25,0,2.43-0.49,3.32-1.38c0.89-0.89,1.38-2.07,1.38-3.32c0-1.25-0.49-2.43-1.38-3.32
		C27.43,20.79,26.25,20.3,25,20.3z"/>
</g>
</svg>
