<?xml version="1.0" encoding="utf-8"?>
<!-- Generator: Adobe Illustrator 23.1.0, SVG Export Plug-In . SVG Version: 6.00 Build 0)  -->
<svg version="1.1" xmlns="http://www.w3.org/2000/svg" xmlns:xlink="http://www.w3.org/1999/xlink" x="0px" y="0px"
	 viewBox="0 0 50 50" style="enable-background:new 0 0 50 50;" xml:space="preserve">
<style type="text/css">
	.st0{fill:#959697;}
</style>
<g id="Layer_1">
</g>
<g id="Layer_2">
	<circle class="st0" cx="15.9" cy="22.35" r="3.24"/>
	<circle class="st0" cx="25.03" cy="22.35" r="3.24"/>
	<circle class="st0" cx="34.16" cy="22.35" r="3.24"/>
	<path class="st0" d="M45.56,3.51C43.76,1.71,39.44,0,37.37,0H25.03h-0.02H12.67C10.6,0,6.28,1.71,4.48,3.51
		c-1.8,1.8-4.23,5.49-4.23,10.25c0,4.77,0,15.56,0,17.81s1.53,6.03,3.78,8.27c2.25,2.25,4.5,3.24,6.74,3.24s6.3,0,6.3,0
		s3.15,4.41,3.96,5.22c0.81,0.81,1.88,1.7,3.98,1.71v0c0,0,0.01,0,0.01,0c0,0,0.01,0,0.01,0v0c2.1-0.01,3.17-0.9,3.98-1.71
		c0.81-0.81,3.96-5.22,3.96-5.22s4.05,0,6.3,0c2.25,0,4.5-0.99,6.74-3.24c2.25-2.25,3.78-6.03,3.78-8.27s0-13.04,0-17.81
		C49.78,8.99,47.36,5.31,45.56,3.51z M45.11,31.56c0,5.67-4.32,6.92-5.31,6.92c-0.99,0-2.97,0-6.3,0s-4.99,3.91-6.56,5.49
		c-1.52,1.52-1.9,1.53-1.92,1.53c-0.03,0-0.4-0.01-1.92-1.53c-1.57-1.57-3.24-5.49-6.56-5.49c-3.33,0-5.31,0-6.3,0
		c-0.99,0-5.31-1.26-5.31-6.92c0-5.67,0-15.11,0-17.63c0-2.52,1.98-9.62,7.73-9.62c5.7,0,12.22,0.09,12.34,0.09v0c0,0,0.01,0,0.01,0
		c0,0,0.01,0,0.01,0v0c0.12,0,6.64-0.09,12.34-0.09c5.76,0,7.73,7.1,7.73,9.62C45.11,16.46,45.11,25.9,45.11,31.56z"/>
</g>
</svg>
