<?xml version="1.0" encoding="utf-8"?>
<!-- Generator: Adobe Illustrator 23.1.0, SVG Export Plug-In . SVG Version: 6.00 Build 0)  -->
<svg version="1.1" xmlns="http://www.w3.org/2000/svg" xmlns:xlink="http://www.w3.org/1999/xlink" x="0px" y="0px"
	 viewBox="0 0 50 50" style="enable-background:new 0 0 50 50;" xml:space="preserve">
<style type="text/css">
	.st0{fill:#959697;}
</style>
<g id="Layer_1">
</g>
<g id="Layer_2">
	<path class="st0" d="M47,14.29C43.78,11.08,29.76,1.7,29.76,1.7S27.09,0.01,24.22,0c-3.57-0.02-7.33,2.95-7.33,2.95
		C14.12,4.91,5.9,11.88,3.94,13.4c-1.97,1.52-3.48,3.84-3.48,8.58c0,4.74,0,15.9,0,17.06s0.49,5.23,3.66,8.4
		c3.17,3.17,4.47,2.5,5.99,2.5c1.52,0,30.02,0,31,0s2.46-0.4,5-2.95c2.55-2.55,3.66-4.2,3.66-7.86c0-3.66,0-16.17,0-17.87
		S50.21,17.51,47,14.29z M45.39,21.93c0,1.4,0,11.68,0,14.7s-0.92,4.37-3.01,6.47c-2.09,2.09-3.31,2.42-4.12,2.42
		c-0.81,0-24.25,0-25.5,0s-2.31,0.55-4.92-2.06c-2.61-2.61-3.01-5.95-3.01-6.91c0-0.96,0-10.14,0-14.04s1.25-5.81,2.87-7.05
		c1.62-1.25,8.38-6.98,10.66-8.6c0,0,3.09-2.44,6.03-2.43c2.36,0.01,4.56,1.4,4.56,1.4s11.54,7.72,14.18,10.36
		C45.76,18.84,45.39,20.53,45.39,21.93z"/>
	<path class="st0" d="M25.38,41.9h-0.51c-1.13,0-2.05-0.92-2.05-2.05v-7.86c0-1.13,0.92-2.05,2.05-2.05h0.51
		c1.13,0,2.05,0.92,2.05,2.05v7.86C27.43,40.98,26.51,41.9,25.38,41.9z"/>
</g>
</svg>
