<?xml version="1.0" encoding="utf-8"?>
<!-- Generator: Adobe Illustrator 23.1.0, SVG Export Plug-In . SVG Version: 6.00 Build 0)  -->
<svg version="1.1" xmlns="http://www.w3.org/2000/svg" xmlns:xlink="http://www.w3.org/1999/xlink" x="0px" y="0px"
	 viewBox="0 0 50 50" style="enable-background:new 0 0 50 50;" xml:space="preserve">
<style type="text/css">
	.st0{fill:#FFFFFF;}
	.st1{fill-rule:evenodd;clip-rule:evenodd;fill:#0077B5;}
</style>
<g id="Layer_2">
	<circle class="st0" cx="25" cy="25" r="23.26"/>
</g>
<g id="Layer_1">
	<path class="st1" d="M50,25C50,11.19,38.81,0,25,0S0,11.19,0,25s11.19,25,25,25S50,38.81,50,25z M17.88,36.12h-6.33V17.13h6.33
		V36.12z M14.71,15.02c-1.75,0-3.17-1.42-3.17-3.17c0-1.75,1.42-3.17,3.17-3.17s3.17,1.42,3.17,3.17
		C17.88,13.6,16.46,15.02,14.71,15.02z M41.09,36.12l-6.09,0v-9.01c0-2.15-0.04-4.91-3.17-4.91c-3.17,0-3.66,2.34-3.66,4.76v9.17
		H22.1V17.13l0,0h5.84v2.99l0.08,0c0.81-1.46,2.8-2.99,5.77-2.99c6.16,0,7.3,3.84,7.3,8.83V36.12z"/>
</g>
</svg>
