<?xml version="1.0" encoding="utf-8"?>
<!-- Generator: Adobe Illustrator 23.1.0, SVG Export Plug-In . SVG Version: 6.00 Build 0)  -->
<svg version="1.1" id="Layer_1" xmlns="http://www.w3.org/2000/svg" xmlns:xlink="http://www.w3.org/1999/xlink" x="0px" y="0px"
	 viewBox="0 0 50 50" style="enable-background:new 0 0 50 50;" xml:space="preserve">
<style type="text/css">
	.st0{fill:#FFFFFF;}
	.st1{fill:#448EFA;}
</style>
<circle class="st0" cx="25.23" cy="25.01" r="24.31"/>
<path class="st1" d="M25.23,0c13.8,0,25,11.2,25,25c0,13.8-11.2,25-25,25c-13.8,0-25-11.2-25-25C0.23,11.2,11.43,0,25.23,0z
	 M23.36,23.13h-8.75c-1.04,0-1.88,0.84-1.88,1.88c0,1.04,0.84,1.88,1.88,1.88h8.75v8.75c0,1.04,0.84,1.88,1.88,1.88
	c1.04,0,1.88-0.84,1.88-1.88v-8.75h8.75c1.04,0,1.88-0.84,1.88-1.88c0-1.04-0.84-1.88-1.88-1.88h-8.75v-8.75
	c0-1.04-0.84-1.88-1.88-1.88s-1.88,0.84-1.88,1.88L23.36,23.13z"/>
</svg>
