<?xml version="1.0" encoding="utf-8"?>
<!-- Generator: Adobe Illustrator 23.1.0, SVG Export Plug-In . SVG Version: 6.00 Build 0)  -->
<svg version="1.1" xmlns="http://www.w3.org/2000/svg" xmlns:xlink="http://www.w3.org/1999/xlink" x="0px" y="0px"
	 viewBox="0 0 50 50" style="enable-background:new 0 0 50 50;" xml:space="preserve">
<style type="text/css">
	.st0{fill:#959697;}
</style>
<g id="Layer_1">
</g>
<g id="Layer_2">
	<path class="st0" d="M49.29,48.71l-0.34,0.34c-0.75,0.75-1.97,0.75-2.73,0l-5.21-5.21c-0.75-0.75-0.75-1.97,0-2.73l0.34-0.34
		c0.75-0.75,1.97-0.75,2.73,0l5.21,5.21C50.05,46.74,50.05,47.96,49.29,48.71z"/>
	<path class="st0" d="M23.61,0.38c-12.96,0-23.47,10.51-23.47,23.47c0,12.96,10.51,23.47,23.47,23.47s23.47-10.51,23.47-23.47
		C47.08,10.89,36.57,0.38,23.61,0.38z M23.61,43.01c-10.58,0-19.16-8.58-19.16-19.16c0-10.58,8.58-19.16,19.16-19.16
		c10.58,0,19.16,8.58,19.16,19.16C42.78,34.43,34.2,43.01,23.61,43.01z"/>
</g>
</svg>
