<?xml version="1.0" encoding="utf-8"?>
<!-- Generator: Adobe Illustrator 23.1.0, SVG Export Plug-In . SVG Version: 6.00 Build 0)  -->
<svg version="1.1" id="Layer_1" xmlns="http://www.w3.org/2000/svg" xmlns:xlink="http://www.w3.org/1999/xlink" x="0px" y="0px"
	 viewBox="0 0 50 50" style="enable-background:new 0 0 50 50;" xml:space="preserve">
<style type="text/css">
	.st0{fill:#FFFFFF;}
</style>
<g>
	<path class="st0" d="M22.8,0.11C10.21,0.11,0,10.32,0,22.91s10.21,22.8,22.8,22.8s22.8-10.21,22.8-22.8S35.4,0.11,22.8,0.11z
		 M22.8,40.45c-9.69,0-17.54-7.85-17.54-17.54S13.12,5.38,22.8,5.38s17.54,7.85,17.54,17.54S32.49,40.45,22.8,40.45z"/>
	<path class="st0" d="M43.66,37.22c-3.5,0-6.34,2.84-6.34,6.34s2.84,6.34,6.34,6.34S50,47.05,50,43.55S47.16,37.22,43.66,37.22z
		 M43.66,45.49c-1.07,0-1.94-0.87-1.94-1.94s0.87-1.94,1.94-1.94s1.94,0.87,1.94,1.94S44.74,45.49,43.66,45.49z"/>
</g>
</svg>
