<?xml version="1.0" encoding="utf-8"?>
<!-- Generator: Adobe Illustrator 23.1.0, SVG Export Plug-In . SVG Version: 6.00 Build 0)  -->
<svg version="1.1" xmlns="http://www.w3.org/2000/svg" xmlns:xlink="http://www.w3.org/1999/xlink" x="0px" y="0px"
	 viewBox="0 0 50 50" style="enable-background:new 0 0 50 50;" xml:space="preserve">
<style type="text/css">
	.st0{fill:#959697;}
</style>
<g id="Layer_1">
</g>
<g id="Layer_2">
	<path class="st0" d="M25,15.79c-4.94,0-8.94,4-8.94,8.94s4,8.94,8.94,8.94s8.94-4,8.94-8.94S29.94,15.79,25,15.79z M25,29.81
		c-2.81,0-5.08-2.28-5.08-5.08s2.27-5.08,5.08-5.08s5.08,2.28,5.08,5.08S27.81,29.81,25,29.81z"/>
	<path class="st0" d="M25,5.95c-0.21,0-2.33-2.36-3.42-3.75c-1.09-1.39-2.25-1.5-3.57-1.47c-1.88,0.04-3.34,0.57-5.81,2.07
		C9.98,4.16,8.4,6.21,8.15,7.1c-0.48,1.75,0.28,4.1,0.73,5.32C9.47,14.05,9,15.69,6.7,16.17s-5.93,1.27-6.47,4.54s0,7.93,0.48,9.1
		c0.48,1.18,1.81,2.87,3.99,3.24s4.36,0.42,4.11,1.69s-1.15,5.93-0.48,7.56c0.67,1.63,2.31,3.08,3.46,3.84
		c1.72,1.13,4.04,1.99,5.79,2.21c2.33,0.29,5.06-1.67,5.93-3.51c0.47-1,1.48-0.95,1.48-0.95v-4.68c0,0-2.53-0.2-4,1.56
		c-0.88,1.05-2.26,3.71-4.44,2.86s-4.78-2.3-4.42-3.99c0.36-1.69,0.91-5.08,0.67-6.53c-0.24-1.45-0.28-3.8-5.08-4.48
		c-3.87-0.54-3.51-1.45-3.51-3.9s-0.24-3.66,2.96-4.39s4.84-2.09,5.69-4.55c0.85-2.47-0.02-4.52-0.37-5.55
		c-0.36-1.03,0.13-2.6,0.98-3.09c0.85-0.48,2.66-1.63,3.27-1.94c0.6-0.3,1.57-0.3,2.66,0.91c1.09,1.21,3.15,3.45,3.99,3.69
		c0.85,0.24,1.6,0.12,1.6,0.12V5.95z"/>
	<path class="st0" d="M49.77,20.71c-0.54-3.27-4.17-4.05-6.47-4.54c-2.3-0.48-2.77-2.12-2.18-3.75c0.44-1.23,1.21-3.57,0.73-5.32
		c-0.25-0.89-1.83-2.94-4.05-4.3c-2.47-1.5-3.92-2.03-5.81-2.07c-1.32-0.03-2.48,0.08-3.57,1.47C27.33,3.59,25.21,5.95,25,5.95
		c-0.21,0-2.33-2.36-3.42-3.75c-1.09-1.39-2.25-1.5-3.57-1.47c-1.88,0.04-3.34,0.57-5.81,2.07C9.98,4.16,8.4,6.21,8.15,7.1
		c-0.48,1.75,0.28,4.1,0.73,5.32C9.47,14.05,9,15.69,6.7,16.17c-2.3,0.48-5.93,1.27-6.47,4.54c-0.54,3.27,0,7.93,0.48,9.1
		c0.48,1.18,1.81,2.87,3.99,3.24s4.36,0.42,4.11,1.69c-0.24,1.27-1.15,5.93-0.48,7.56c0.67,1.63,2.31,3.08,3.46,3.84
		c1.72,1.13,4.04,1.99,5.79,2.21c2.33,0.29,5.06-1.67,5.93-3.51c0.47-1,1.48-0.95,1.48-0.95s1.01-0.05,1.48,0.95
		c0.87,1.84,3.6,3.8,5.93,3.51c1.75-0.22,4.07-1.07,5.79-2.21c1.15-0.76,2.8-2.21,3.46-3.84c0.67-1.63-0.24-6.29-0.48-7.56
		c-0.24-1.27,1.94-1.33,4.11-1.69c2.18-0.36,3.51-2.06,3.99-3.24C49.77,28.63,50.32,23.98,49.77,20.71z M42.27,28.63
		c-4.81,0.68-4.84,3.02-5.08,4.48c-0.24,1.45,0.3,4.84,0.67,6.53c0.36,1.69-2.24,3.15-4.42,3.99c-2.18,0.85-3.56-1.81-4.44-2.86
		c-1.47-1.76-4-1.56-4-1.56s-2.53-0.2-4,1.56c-0.88,1.05-2.26,3.71-4.44,2.86c-2.18-0.85-4.78-2.3-4.42-3.99
		c0.36-1.69,0.91-5.08,0.67-6.53c-0.24-1.45-0.28-3.8-5.08-4.48c-3.87-0.54-3.51-1.45-3.51-3.9s-0.24-3.66,2.96-4.39
		c3.21-0.73,4.84-2.09,5.69-4.55c0.85-2.47-0.02-4.52-0.37-5.55c-0.36-1.03,0.13-2.6,0.98-3.09c0.85-0.48,2.66-1.63,3.27-1.94
		c0.6-0.3,1.57-0.3,2.66,0.91c1.09,1.21,3.15,3.45,3.99,3.69c0.85,0.24,1.6,0.12,1.6,0.12s0.76,0.12,1.6-0.12
		c0.85-0.24,2.9-2.48,3.99-3.69c1.09-1.21,2.06-1.21,2.66-0.91c0.6,0.3,2.42,1.45,3.27,1.94c0.85,0.48,1.33,2.06,0.98,3.09
		c-0.36,1.03-1.22,3.09-0.37,5.55c0.85,2.47,2.48,3.83,5.69,4.55c3.21,0.73,2.96,1.94,2.96,4.39S46.14,28.09,42.27,28.63z"/>
</g>
</svg>
