<?xml version="1.0" encoding="utf-8"?>
<!-- Generator: Adobe Illustrator 23.1.0, SVG Export Plug-In . SVG Version: 6.00 Build 0)  -->
<svg version="1.1" id="Layer_1" xmlns="http://www.w3.org/2000/svg" xmlns:xlink="http://www.w3.org/1999/xlink" x="0px" y="0px"
	 viewBox="0 0 48 48" style="enable-background:new 0 0 48 48;" xml:space="preserve">
<style type="text/css">
	.st0{fill:#03A9F4;}
	.st1{fill:#FFFFFF;}
</style>
<path class="st0" d="M24,0C10.8,0,0,10.8,0,24s10.8,24,24,24s24-10.8,24-24S37.2,0,24,0z"/>
<path class="st1" d="M38.4,15.72c-1.08,0.48-2.4,0.96-3.6,1.08c1.2-0.72,3.12-2.28,3.6-3.6c-1.2,0.72-3.24,1.44-4.56,1.68
	c-1.08-1.2-2.64-1.68-4.32-1.68c-3.24,0-5.52,2.76-5.52,6v2.4c-4.8,0-9.48-3.6-12.36-7.2c-0.48,0.84-0.84,1.92-0.84,3
	c0,2.16,2.04,4.44,3.6,5.4c-0.96,0-2.76-0.72-3.6-1.2c0,0,0,0,0,0.12c0,2.88,2.04,4.8,4.68,5.28c-0.48,0.12-1.08,0.6-3.36,0.6
	c0.72,2.28,4.56,3.6,7.08,3.6c-2.04,1.56-5.64,2.4-8.4,2.4c-0.48,0-0.72,0-1.2,0c2.64,1.68,6.24,2.4,9.6,2.4
	C30.12,36,36,27.72,36,19.92c0-0.24,0-1.08,0-1.32C37.2,17.76,37.56,16.92,38.4,15.72"/>
</svg>
