<?xml version="1.0" encoding="utf-8"?>
<!-- Generator: Adobe Illustrator 23.1.0, SVG Export Plug-In . SVG Version: 6.00 Build 0)  -->
<svg version="1.1" xmlns="http://www.w3.org/2000/svg" xmlns:xlink="http://www.w3.org/1999/xlink" x="0px" y="0px" width="300px"
	 height="66px" viewBox="0 0 300 66" style="enable-background:new 0 0 300 66;" xml:space="preserve">
<style type="text/css">
	.st0{fill:#FFFFFF;}
</style>
<g id="Layer_1">
</g>
<g id="Layer_2">
	<g>
		<path class="st0" d="M34,2.6c0,0-5.2-2.3-13.3-2.3S5.9,4.4,3.3,8.6s-6.5,13.6,1,22.5S24.9,39,34,35.4V23.3l1.1-1h3.2v-3.1H19.5v3
			h4.3l1,1v10.9c0,0-7.9,0.7-12.1-5.9s-1.6-14.5-1-16.2c0.6-1.7,5.7-10,15.4-6.9c0.4,0.5,0.6,0.4,0.8,1.4s1.1,5.7,1.1,5.7H34V2.6z"
			/>
		<path class="st0" d="M57,1.1H38.8v3.2h3.8l0.9,1.1c0,0,0,15.6,0,18.6s0.1,8.8,4.5,11.3S55.4,38,59.8,38s7.3-1.2,9.4-2.6
			c2.1-1.4,4.5-4.3,4.5-13.5s0-16.7,0-16.7l0.7-0.9h3.4V1.1H64.3v3H68l0.8,1.3c0,0,0,12.5,0,16.6s-0.1,7.4-2.6,9.5
			c-2.5,2.2-7.4,1.6-9.6,0.6c-2.2-1-3.7-3-3.7-9s0-17.9,0-17.9l0.8-0.8h3.4L57,1.1z"/>
		<polygon class="st0" points="80.1,1.1 80.1,11.9 84.6,11.9 85.6,5.3 86.6,4.6 91.8,4.6 91.8,33.1 90.7,34.1 87.1,34.1 87.1,37.3 
			105.9,37.3 105.9,34.3 102.6,34.3 101.4,33 101.4,4.6 106.6,4.6 107.4,5.5 108.7,11.8 113.2,11.8 113.2,1.1 		"/>
		<path class="st0" d="M146.9,33.8L134.1,0.8h-7.7l-12.2,33l-3.5,0.3v3.1h12.9v-3.1l-3.4-0.3l-0.6-0.9l2.8-7.9h11.3l3.1,8l-0.7,1
			h-3.6l0.1,3.2h17.5v-3.2L146.9,33.8z M123.6,21.4l4.2-11.7l4.6,11.7H123.6z"/>
		<polygon class="st0" points="151.8,1.1 151.8,4.2 155.4,4.2 156.1,5.1 156.1,33 155.2,34 151.8,34.2 151.8,37.3 181.7,37.3 
			181.7,25.9 176.4,25.9 175.6,32.6 174.8,33.8 165.7,33.8 165.7,5.2 166.8,4.2 170.3,4.1 170.2,1.1 		"/>
		<polygon class="st0" points="184.1,1.1 184.1,4.2 187.7,4.2 188.4,5.1 188.4,33 187.5,34 184.1,34.2 184.1,37.3 214,37.3 
			214,25.9 208.7,25.9 208,32.6 207.1,33.8 198,33.8 198,5.2 199.1,4.2 202.6,4.1 202.5,1.1 		"/>
		<polygon class="st0" points="216.6,1.1 216.6,4.1 220.5,4.4 221.3,5.1 221.3,33.1 220.4,34.1 216.6,34.3 216.6,37.3 235.8,37.3 
			235.8,34.2 231.8,33.9 230.9,32.9 230.9,5.1 231.8,4.4 235.8,4.1 235.8,1.1 		"/>
		<polygon class="st0" points="280.8,1.1 280.8,4.1 284.7,4.4 285.6,5.1 285.6,33.1 284.7,34.1 280.8,34.3 280.8,37.3 300,37.3 
			300,34.2 296,33.9 295.1,32.9 295.1,5.1 296,4.4 300,4.1 300,1.1 		"/>
		<polygon class="st0" points="253.6,1.1 238.4,1.1 238.4,4.1 242,4.4 242.7,5.2 242.7,33 241.7,33.9 238.4,34.2 238.4,37.3 
			252,37.3 252,34.2 248.4,33.9 247.6,32.8 247.6,9.7 265.6,37.3 274,37.3 274,5.2 275.1,4.3 278.3,4 278.3,1.1 264.6,1.1 
			264.6,4.2 268,4.3 269.1,5.3 269.1,26.5 253.6,2.6 		"/>
		<rect x="1.4" y="41.8" class="st0" width="298.6" height="1.7"/>
		<path class="st0" d="M12.4,51.6c-0.4-0.9-1.5-1.9-3-2.1c-1.5-0.2-7.1-0.1-7.1-0.1s0.6,7.9,0,15.1h3.8c0,0-0.2-3.8-0.3-6.6
			c1.3,0,4.1,0.1,5.7-1.3C13.1,55.2,12.8,52.5,12.4,51.6z M5.9,56.6c0.2-3.9,0-5.8,0-5.8c2.7,0,3.3,0.6,3.3,2.9
			C9.2,56.1,7.1,56.6,5.9,56.6z"/>
		<path class="st0" d="M14.9,49.4c0,0,6,12,6.5,12.9c0,0.3-0.1,0.7-1.7,3.4c0,0,1.6-0.2,2.5,0c0.9-2.2,6.3-14.3,7.5-16.3
			c-1,0-2.3,0-2.3,0s-1.2,3.7-4,9.8c-0.4-1-4.2-8.8-4.6-9.8H14.9z"/>
		<path class="st0" d="M248.5,49.4c0,0,6,12,6.5,12.9c0,0.3-0.1,0.7-1.7,3.4c0,0,1.6-0.2,2.5,0c0.9-2.2,6.3-14.3,7.5-16.3
			c-1,0-2.3,0-2.3,0s-1.2,3.7-4,9.8c-0.4-1-4.2-8.8-4.6-9.8H248.5z"/>
		<path class="st0" d="M33.2,49.4c0,0,0.1,3.8,0.2,4.8c0.1,1,0.6,2.7,2.3,3.8c1.7,1,4.4,1.2,6.9-0.1c0,1,0.1,5.5-0.1,6.7h3.5
			c0,0-0.3-13.9,0-15.2h-3.4c0,0,0,4.5,0,5.3c0,0.8-0.4,2.6-2.9,2.6s-2.8-1.9-3.1-3.4c-0.3-1.4-0.1-4.5-0.1-4.5H33.2z"/>
		<path class="st0" d="M109.4,49.4c0,0,0.1,3.8,0.2,4.8c0.1,1,0.6,2.7,2.3,3.8c1.7,1,4.4,1.2,6.9-0.1c0,1,0.1,5.5-0.1,6.7h3.5
			c0,0-0.3-13.9,0-15.2h-3.6c0,0,0.2,4.5,0.2,5.3c0,0.8-0.4,2.6-2.9,2.6c-2.5,0-2.8-1.9-3.1-3.4c-0.3-1.4-0.1-4.5-0.1-4.5H109.4z"/>
		<path class="st0" d="M50.5,49.4v15.3H54c0,0-0.4-4.2-0.1-7.2c0,0,3.2-0.2,6.8,0c0,0,0.2,3.6-0.1,7.1h3.7c0,0-0.2-3.4-0.3-7.8
			s0-6.7,0.2-7.4h-3.5c0,0,0.1,2.1,0.1,6.2h-6.9c0,0,0.1-4.6,0.3-6.2H50.5z"/>
		<path class="st0" d="M75.7,49.4h-1.8c0,0-1.7,4.8-2.9,7.4c-1.2,2.6-2.8,6-3.6,7.6c0,0,1.8-0.1,2.5,0c0,0,0.8-3,1.4-4.3
			c0,0,1.7-0.3,5.1,0c0,0,1.1,2.7,1.7,4.3c0,0,2.6-0.2,3.9,0C81.9,64.4,79.9,60,75.7,49.4z M72,58.5c0.9-2.5,1.9-4.7,1.9-4.7
			c0.5,0.9,2.1,4.7,2.1,4.7C75.4,58.8,72,58.5,72,58.5z"/>
		<path class="st0" d="M197.9,49.4H196c0,0-1.7,4.8-2.9,7.4c-1.2,2.6-2.8,6-3.6,7.6c0,0,1.7-0.1,2.5,0c0,0,0.8-3,1.4-4.3
			c0,0,1.7-0.3,5.1,0c0,0,1.1,2.7,1.7,4.3c0,0,2.6-0.2,3.9,0C204.1,64.4,202.1,60,197.9,49.4z M194.2,58.5c0.9-2.5,1.9-4.7,1.9-4.7
			c0.5,0.9,2.1,4.7,2.1,4.7C197.6,58.8,194.2,58.5,194.2,58.5z"/>
		<path class="st0" d="M96.5,57.1c0-2.8,0.1-7.7,0.1-7.7s-3.6,0.1-5.3,0C89.6,49.3,86,50,86,53.7c0,2.8,2.3,3.5,3.3,3.8
			c0,0-1.9,3.1-2.6,4.1c-0.7,1-1,1.5-1.9,2.6v0.3h4c0,0,0-0.2,0.6-1.2c0.6-1,3.2-5.6,3.2-5.6h0.6c0,0,0,2.1-0.2,6.8h3.6
			C96.6,64.4,96.4,59.9,96.5,57.1z M93.2,56.3c0,0-1,0.3-1.9-0.1c-1.6-0.6-2.2-1.6-2.2-2.7s0.1-1.4,1-2.2c0.9-0.9,3.1-0.6,3.1-0.6
			V56.3z"/>
		<path class="st0" d="M126.6,49.4c0,0,0.3,3.6,0.2,6.9c-0.1,3.3-0.2,8.2-0.2,8.2h1.9c0,0,7.5-9.2,8.5-10.2c0,0,0.2,7.3-0.1,10.3
			h3.6c0,0-0.2-5-0.2-6.9c0-2,0.2-8.2,0.2-8.2h-1.7c0,0-2.2,3-4.7,5.9c-2.5,2.9-4.1,4.5-4.1,4.5s-0.2-2.5,0.1-10.4H126.6z"/>
		<path class="st0" d="M281.1,49.4c0,0,0.3,3.6,0.2,6.9s-0.2,8.2-0.2,8.2h1.9c0,0,7.5-9.2,8.5-10.2c0,0,0.2,7.3-0.1,10.3h3.6
			c0,0-0.2-5-0.2-6.9c0-2,0.2-8.2,0.2-8.2h-1.7c0,0-2.2,3-4.7,5.9c-2.5,2.9-4.1,4.5-4.1,4.5s-0.2-2.5,0.1-10.4H281.1z"/>
		<path class="st0" d="M281.1,49.2c0,0,0.3,3.6,0.2,6.9s-0.2,8.2-0.2,8.2h1.9c0,0,7.5-9.2,8.5-10.2c0,0,0.2,7.3-0.1,10.3h3.6
			c0,0-0.2-5-0.2-6.9c0-2,0.2-8.2,0.2-8.2h-1.7c0,0-2.2,3-4.7,5.9c-2.5,2.9-4.1,4.5-4.1,4.5s-0.2-2.5,0.1-10.4H281.1z"/>
		<path class="st0" d="M157.4,50.1c0,0-1.6-0.9-5.1-0.9c-3.5,0-8.2,2.3-8.2,7.8s3.3,6.6,3.9,6.9c0.6,0.3,3.7,2.1,8.7-0.1l0.5-2H157
			c0,0-1.2,1.6-3.9,1.6c-2.7,0-4-1.5-4.9-3.7s-0.2-5.4,0.4-6.5s1.8-2.7,4.1-2.7c2.3,0,3,0.9,4,2C156.6,52.6,156.9,50.9,157.4,50.1z"
			/>
		<path class="st0" d="M171.7,49.4c0,0-6.1,0-11.2-0.2c0,0,0.1,0.9,0,2c0,0,1.4-0.2,4.1-0.3c0,0,0.1,6.7-0.2,13.6c0,0,2.4,0.1,3.5,0
			c0,0-0.3-10.1-0.2-13.6c0,0,1.7,0,4,0.2V49.4z"/>
		<path class="st0" d="M178.7,49.4h-3.5c0,0,0.1,5.3,0,7.5s-0.2,6.5-0.2,7.5c0,0,3,0,3.7,0c0,0,0-2.9-0.2-6.6c0,0,3.1,4.4,4.4,6.7
			l4.2,0c0,0-2.3-3-6-8.7c0,0,4.4-5.1,5.8-6.3c0,0-1.9,0.1-3.1,0c0,0-0.3,1.1-5.1,6.6c0,0-0.2,0.4-0.4,0.1
			C178.5,56,178.6,52.5,178.7,49.4z"/>
		<path class="st0" d="M230,51.6c-2.8-3.1-6.5-2.5-6.5-2.5c-2.7,0-5.7,0.7-7.4,3.7c-1.8,3-1.2,7.7,0.8,9.3c2,1.7,3.2,2.6,6.6,2.6
			c3.4,0,5-1.3,6.8-3.2C232,59.6,232.7,54.7,230,51.6z M223.4,63.4c-1.2,0-4.7-0.7-4.7-6.4c0-5.7,3.4-6.4,4.7-6.4
			c2.1,0,4.7,1.1,4.7,6.4C228.1,62.3,224.6,63.4,223.4,63.4z"/>
		<path class="st0" d="M238.9,55.8c0,0-0.1-1.8,0-4.9c0,0,2.9,0.1,6.1,0.3l0-1.8c0,0-4.4,0.3-9.4,0c0,0,0,4.7,0,7.2
			c0,2.5,0.2,4.8-0.2,7.8c0,0,3.4,0.2,5.8,0.1c2.4-0.1,4.8-1,4.8-4.2C245.9,57.1,243.6,55.8,238.9,55.8z M241.9,62.1
			c-0.8,1.2-3.1,0.9-3.1,0.9c-0.1-2.9,0-5.8,0-5.8s1.6-0.4,2.8,0.7C242.9,59.1,242.7,61,241.9,62.1z"/>
		<path class="st0" d="M273.7,56.1c0,0,1.6,0,2.7-1.5c1.2-1.5,0.1-4.2-1-4.7s-2.3-0.6-3.5-0.6s-5.2,0-5.2,0s0,4.5,0,7.5
			c0,3,0.1,5.6-0.1,7.7c0,0,4.9,0.1,6.9-0.1c2-0.2,3.7-1.8,3.7-4.1C277.3,58,275.8,56.8,273.7,56.1z M270.1,50.8h1.3
			c0.8,0,2.1,0.8,2.1,2.4c0,1.6-1,2.3-1.9,2.5c-0.9,0.2-1.5,0.2-1.5,0.2C270.1,52.9,270.1,50.8,270.1,50.8z M273.3,62
			c-1.1,1.6-3.1,0.9-3.1,0.9c-0.2-3.4-0.1-5.6-0.1-5.6c1.8-0.1,2.2,0,2.9,0.5C273.7,58.3,274.4,60.4,273.3,62z"/>
	</g>
</g>
</svg>
