<?xml version="1.0" encoding="utf-8"?>
<!-- Generator: Adobe Illustrator 23.1.0, SVG Export Plug-In . SVG Version: 6.00 Build 0)  -->
<svg version="1.1" id="Layer_1" xmlns:serif="http://www.serif.com/"
	 xmlns="http://www.w3.org/2000/svg" xmlns:xlink="http://www.w3.org/1999/xlink" x="0px" y="0px" width="24px" height="24px"
	 viewBox="0 0 24 24" style="enable-background:new 0 0 24 24;" xml:space="preserve">
<style type="text/css">
	.st0{fill-rule:evenodd;clip-rule:evenodd;fill:#BEA88B;}
</style>
<path class="st0" d="M23.7,2.2C23.5,2,23.2,1.9,22.9,2C18.7,3.6,5.8,8.4,0.5,10.4C0.2,10.5,0,10.8,0,11.2c0,0.4,0.3,0.7,0.6,0.8
	c2.4,0.7,5.5,1.7,5.5,1.7s1.4,4.4,2.2,6.6c0.1,0.3,0.3,0.5,0.6,0.6c0.3,0.1,0.6,0,0.8-0.2c1.2-1.1,3.1-2.9,3.1-2.9s3.6,2.6,5.6,4.1
	c0.3,0.2,0.7,0.3,1.1,0.1c0.4-0.1,0.6-0.5,0.7-0.8c0.9-4.1,3-14.4,3.8-18.1C24,2.7,23.9,2.4,23.7,2.2z M19.6,5.9
	c-3.7,3.3-10.2,9.2-10.2,9.2l-0.4,3.5l-1.7-5.5c0,0,7.6-4.9,11.9-7.6c0.1-0.1,0.3-0.1,0.4,0.1C19.7,5.7,19.7,5.8,19.6,5.9z"/>
</svg>
