<?xml version="1.0" encoding="utf-8"?>
<!-- Generator: Adobe Illustrator 23.1.0, SVG Export Plug-In . SVG Version: 6.00 Build 0)  -->
<svg version="1.1" id="Layer_1" xmlns="http://www.w3.org/2000/svg" xmlns:xlink="http://www.w3.org/1999/xlink" x="0px" y="0px"
	 width="24px" height="24px" viewBox="0 0 24 24" style="enable-background:new 0 0 24 24;" xml:space="preserve">
<style type="text/css">
	.st0{fill:#BEA88B;}
</style>
<g>
	<path class="st0" d="M20.5,3.5C18.2,1.2,15.2,0,12.1,0C5.5,0,0.2,5.3,0.2,11.9c0,2.1,0.5,4.1,1.6,5.9L0.1,24l6.3-1.7
		c1.7,0.9,3.7,1.4,5.7,1.4c6.6,0,11.9-5.3,11.9-11.9C23.9,8.7,22.7,5.7,20.5,3.5z M12,21.8c-2.1,0-3.7-0.6-5.4-1.6l-3.7,1l1-3.6
		c-1.1-1.7-1.7-3.4-1.7-5.6C2.2,6.4,6.6,2,12.1,2c5.5,0,9.9,4.4,9.9,9.9C21.9,17.4,17.5,21.8,12,21.8z"/>
	<path class="st0" d="M18,14.7c-0.1-0.1-0.3-0.2-0.6-0.3c-0.3-0.1-1.8-0.9-2-1c-0.3-0.1-0.5-0.1-0.7,0.1c-0.2,0.3-0.8,1-0.9,1.2
		c-0.2,0.2-0.3,0.2-0.6,0.1c-0.3-0.1-1.3-0.5-2.4-1.5c-0.9-0.8-1.5-1.8-1.7-2.1c-0.2-0.3,0-0.5,0.1-0.6l0.4-0.5L10,9.7
		c0.1-0.2,0-0.4,0-0.5L9.1,6.9C8.8,6.3,8.6,6.4,8.4,6.4l-0.6,0C7.6,6.4,7.3,6.5,7,6.8s-1,1-1,2.5c0,1.5,1.1,2.9,1.2,3.1
		c0.1,0.2,2.1,3.2,5.1,4.5c0.7,0.3,1.3,0.5,1.7,0.6c0.7,0.2,1.4,0.2,1.9,0.1c0.6-0.1,1.8-0.7,2-1.4C18.1,15.4,18.1,14.9,18,14.7z"/>
</g>
</svg>
