<?xml version="1.0" encoding="utf-8"?>
<!-- Generator: Adobe Illustrator 23.1.0, SVG Export Plug-In . SVG Version: 6.00 Build 0)  -->
<svg version="1.1" id="Layer_1" xmlns="http://www.w3.org/2000/svg" xmlns:xlink="http://www.w3.org/1999/xlink" x="0px" y="0px"
	 width="100px" height="80px" viewBox="0 0 100 80" style="enable-background:new 0 0 100 80;" xml:space="preserve">
<style type="text/css">
	.st0{fill:#4285F4;}
	.st1{fill:#34A853;}
	.st2{fill:#FBBC04;}
	.st3{fill:#EA4335;}
	.st4{fill:#C5221F;}
</style>
<g>
	<path class="st0" d="M6.9,77.5h15.9V38.9l-22.7-17v48.8C0.1,74.4,3.1,77.5,6.9,77.5"/>
	<path class="st1" d="M77.2,77.5h15.9c3.8,0,6.8-3.1,6.8-6.8V21.8l-22.7,17"/>
	<path class="st2" d="M77.2,9.4v29.5l22.7-17v-9.1c0-8.4-9.6-13.2-16.3-8.2"/>
	<path class="st3" d="M22.8,38.9V9.4L50,29.8L77.2,9.4v29.5L50,59.3"/>
	<path class="st4" d="M0.1,12.8v9.1l22.7,17V9.4l-6.4-4.8C9.7-0.5,0.1,4.3,0.1,12.8"/>
</g>
</svg>
