<?xml version="1.0" encoding="utf-8"?>
<!-- Generator: Adobe Illustrator 23.1.0, SVG Export Plug-In . SVG Version: 6.00 Build 0)  -->
<svg version="1.1" xmlns="http://www.w3.org/2000/svg" xmlns:xlink="http://www.w3.org/1999/xlink" x="0px" y="0px" width="100px"
	 height="80px" viewBox="0 0 100 80" style="enable-background:new 0 0 100 80;" xml:space="preserve">
<style type="text/css">
	.st0{fill:url(#rect2996_1_);}
	.st1{fill:#FFFFFF;}
</style>
<g id="Layer_1">
</g>
<g id="svg8">
</g>
<g id="Livello_1">
</g>
<g id="svg2">
	<g id="layer1" transform="translate(0,-450.36218)">
		<g id="g3062" transform="matrix(6.6666666,0,0,6.6666666,-5.6668106,-5957.7191)">
			
				<linearGradient id="rect2996_1_" gradientUnits="userSpaceOnUse" x1="8.3441" y1="961.5604" x2="8.422" y2="1040.2734" gradientTransform="matrix(1 0 0 -1 0 1934.7242)">
				<stop  offset="0" style="stop-color:#70EFFF"/>
				<stop  offset="1" style="stop-color:#5770FF"/>
			</linearGradient>
			<path id="rect2996" class="st0" d="M5.1,961.2h6.5c1.5,0,2.8,1.2,2.8,2.8v6.5c0,1.5-1.2,2.8-2.8,2.8H5.1c-1.5,0-2.8-1.2-2.8-2.8
				V964C2.4,962.4,3.6,961.2,5.1,961.2L5.1,961.2z"/>
			<path id="rect3027" class="st1" d="M5,964.6c-0.1,0-0.1,0-0.2,0l1.1,1.2l1.1,1.2l0,0l0,0l0,0l0.1,0.1l1,1c0,0,0.1,0.1,0.1,0.1
				c0,0,0.1,0,0.2,0c0.1,0,0.1,0,0.2,0c0,0,0.1,0,0.1-0.1l1.1-1.2l1.1-1.2l1.1-1.1c-0.1,0-0.1-0.1-0.2-0.1H5z M4.6,964.8
				c-0.1,0.1-0.2,0.3-0.2,0.5v3.8c0,0.2,0.1,0.3,0.1,0.4l0.2-0.2l1.2-1.1l1-1l0,0L5.8,966L4.6,964.8L4.6,964.8z M12.3,964.8
				l-1.1,1.2l-1.1,1.2l0,0l1.1,1.1l1.2,1.1l0.1,0.1c0.1-0.1,0.1-0.2,0.1-0.4v-3.8C12.4,965.1,12.4,964.9,12.3,964.8z M7.1,967.3
				l-1,1l-1.2,1.1l-0.2,0.1c0.1,0.1,0.2,0.1,0.3,0.1h6.9c0.1,0,0.2,0,0.3-0.1l-0.1-0.1l-1.2-1.1l-1.1-1l-1,1c-0.1,0-0.1,0.1-0.1,0.1
				c-0.1,0-0.2,0.1-0.3,0.1c-0.1,0-0.2,0-0.3-0.1c0,0-0.1,0-0.1-0.1L7.1,967.3z"/>
		</g>
	</g>
</g>
</svg>
