<?xml version="1.0" encoding="utf-8"?>
<!-- Generator: Adobe Illustrator 23.1.0, SVG Export Plug-In . SVG Version: 6.00 Build 0)  -->
<svg version="1.1" xmlns="http://www.w3.org/2000/svg" xmlns:xlink="http://www.w3.org/1999/xlink" x="0px" y="0px" width="100px"
	 height="80px" viewBox="0 0 100 80" style="enable-background:new 0 0 100 80;" xml:space="preserve">
<style type="text/css">
	.st0{fill:#0A2767;}
	.st1{fill:#0364B8;}
	.st2{fill:#0078D4;}
	.st3{fill:#28A8EA;}
	.st4{fill:#14447D;}
	.st5{fill:url(#SVGID_1_);}
	.st6{opacity:0.5;fill:#0A2767;enable-background:new    ;}
	.st7{fill:#1490DF;}
	.st8{opacity:0.1;enable-background:new    ;}
	.st9{opacity:5.000000e-02;enable-background:new    ;}
	.st10{opacity:0.2;enable-background:new    ;}
	.st11{fill:url(#SVGID_2_);}
	.st12{fill:#FFFFFF;}
	.st13{fill:#50D9FF;}
</style>
<g id="Layer_1">
</g>
<g id="svg8">
</g>
<g id="Livello_1">
	<g>
		<path class="st0" d="M93,42c0-0.7-0.3-1.3-0.9-1.6h0l0,0L62.2,22.7c-0.1-0.1-0.3-0.2-0.4-0.2c-1.2-0.6-2.5-0.6-3.7,0
			c-0.1,0.1-0.3,0.2-0.4,0.2L28,40.3l0,0c-0.9,0.6-1.2,1.8-0.6,2.7c0.2,0.3,0.4,0.5,0.7,0.7l29.8,17.6c0.1,0.1,0.3,0.2,0.4,0.2
			c1.2,0.6,2.5,0.6,3.7,0c0.1-0.1,0.3-0.2,0.4-0.2L92,43.7C92.6,43.3,93,42.7,93,42z"/>
		<path class="st1" d="M31.4,30.2H51v17.9H31.4V30.2z M89,12V3.8C89,1.7,87.4,0,85.4,0H34.6C32.6,0,31,1.7,31,3.8V12l30,8L89,12z"/>
		<path class="st2" d="M31,12h20v18H31V12z"/>
		<path class="st3" d="M71,12H51v18l20,18h18V30L71,12z"/>
		<path class="st2" d="M51,30h20v18H51V30z"/>
		<path class="st1" d="M51,48h20v18H51V48z"/>
		<path class="st4" d="M31.4,48.1H51v16.3H31.4V48.1z"/>
		<path class="st2" d="M71,48h18v18H71V48z"/>
		
			<linearGradient id="SVGID_1_" gradientUnits="userSpaceOnUse" x1="59.9999" y1="-763.3334" x2="59.9999" y2="-725.3334" gradientTransform="matrix(1 0 0 1 0 805.3334)">
			<stop  offset="0" style="stop-color:#35B8F1"/>
			<stop  offset="1" style="stop-color:#28A8EA"/>
		</linearGradient>
		<path class="st5" d="M92.1,43.6L92.1,43.6L62.2,60.3c-0.1,0.1-0.3,0.2-0.4,0.2c-0.5,0.2-1.1,0.4-1.6,0.4l-1.6-1
			c-0.1-0.1-0.3-0.1-0.4-0.2L28,42.6h0L27,42v33.9c0,2.3,1.9,4.1,4.1,4.1h57.8c0,0,0.1,0,0.1,0c0.5,0,0.9-0.1,1.4-0.3
			c0.2-0.1,0.4-0.2,0.6-0.3c0.1-0.1,0.4-0.2,0.4-0.2c1-0.8,1.6-2,1.6-3.2V42C93,42.6,92.6,43.2,92.1,43.6z"/>
		<path class="st6" d="M91.4,41.9v2.1L60.2,65.4L28,42.6c0,0,0,0,0,0l0,0l-3-1.8v-1.5l1.2,0l2.6,1.5l0.1,0l0.2,0.1
			c0,0,30.3,17.3,30.4,17.3l1.2,0.7c0.1,0,0.2-0.1,0.3-0.1c0.1,0,30.1-16.9,30.1-16.9L91.4,41.9z"/>
		<path class="st7" d="M92.1,43.6L92.1,43.6L62.2,60.3c-0.1,0.1-0.3,0.2-0.4,0.2c-1.2,0.6-2.5,0.6-3.7,0c-0.1-0.1-0.3-0.1-0.4-0.2
			L28,43.6l0,0C27.4,43.3,27,42.7,27,42v33.9c0,2.3,1.9,4.1,4.1,4.1c0,0,0,0,0,0h57.8c2.3,0,4.1-1.8,4.1-4.1c0,0,0,0,0,0V42
			C93,42.6,92.6,43.2,92.1,43.6z"/>
		<path class="st8" d="M62.7,60.1l-0.4,0.3c-0.1,0.1-0.3,0.2-0.4,0.2c-0.5,0.2-1,0.4-1.6,0.4l11.3,13.4l19.8,4.8
			c0.5-0.4,1-0.9,1.3-1.6L62.7,60.1z"/>
		<path class="st9" d="M64.7,59l-2.5,1.4c-0.1,0.1-0.3,0.2-0.4,0.2c-0.5,0.2-1,0.4-1.6,0.4l5.3,14.6l25.8,3.5c1-0.8,1.6-2,1.6-3.2
			v-0.4L64.7,59z"/>
		<path class="st3" d="M31.2,80h57.7c0.9,0,1.8-0.3,2.5-0.8L58.6,60c-0.1-0.1-0.3-0.1-0.4-0.2L28,42.6h0L27,42v33.8
			C27,78.1,28.9,80,31.2,80C31.2,80,31.2,80,31.2,80z"/>
		<path class="st8" d="M55,19.7v42.7c0,1.5-0.9,2.8-2.3,3.4c-0.4,0.2-0.9,0.3-1.4,0.3H27V18h4v-2h20.3C53.4,16,55,17.6,55,19.7z"/>
		<path class="st10" d="M53,21.7v42.7c0,0.5-0.1,1-0.3,1.4c-0.6,1.4-1.9,2.3-3.4,2.3H27V18h22.3c0.6,0,1.2,0.1,1.7,0.4
			C52.2,19,53,20.3,53,21.7z"/>
		<path class="st10" d="M53,21.7v38.7c0,2-1.6,3.7-3.7,3.7H27V18h22.3c0.6,0,1.2,0.1,1.7,0.4C52.2,19,53,20.3,53,21.7z"/>
		<path class="st10" d="M51,21.7v38.7c0,2-1.6,3.7-3.7,3.7H27V18h20.3C49.4,18,51,19.6,51,21.7C51,21.7,51,21.7,51,21.7z"/>
		
			<linearGradient id="SVGID_2_" gradientUnits="userSpaceOnUse" x1="14.6437" y1="-790.1979" x2="43.3563" y2="-740.4689" gradientTransform="matrix(1 0 0 1 0 805.3334)">
			<stop  offset="0" style="stop-color:#1784D9"/>
			<stop  offset="0.5" style="stop-color:#107AD5"/>
			<stop  offset="1" style="stop-color:#0A63C9"/>
		</linearGradient>
		<path class="st11" d="M10.7,18h36.7c2,0,3.7,1.6,3.7,3.7v36.7c0,2-1.6,3.7-3.7,3.7H10.7c-2,0-3.7-1.6-3.7-3.7V21.7
			C7,19.6,8.6,18,10.7,18z"/>
		<path class="st12" d="M18.5,33.4c0.9-1.9,2.4-3.5,4.2-4.6c2-1.2,4.3-1.7,6.7-1.7c2.2,0,4.3,0.5,6.2,1.6c1.8,1,3.2,2.6,4.1,4.4
			c1,2,1.5,4.3,1.4,6.5c0,2.4-0.5,4.7-1.5,6.8c-0.9,1.9-2.4,3.5-4.2,4.6c-1.9,1.1-4.2,1.7-6.4,1.6c-2.2,0.1-4.4-0.5-6.3-1.6
			c-1.8-1-3.2-2.6-4.1-4.4c-1-2-1.5-4.2-1.4-6.4C17,37.8,17.5,35.5,18.5,33.4z M22.9,44.2c0.5,1.2,1.3,2.3,2.4,3
			c1.1,0.8,2.4,1.1,3.7,1.1c1.4,0.1,2.8-0.3,3.9-1.1c1-0.8,1.8-1.8,2.3-3c0.5-1.4,0.7-2.8,0.7-4.2c0-1.5-0.2-2.9-0.7-4.3
			c-0.4-1.2-1.2-2.4-2.2-3.2c-1.1-0.8-2.5-1.3-3.9-1.2c-1.3,0-2.7,0.4-3.8,1.1c-1.1,0.8-1.9,1.8-2.4,3.1
			C21.8,38.3,21.8,41.4,22.9,44.2L22.9,44.2z"/>
		<path class="st13" d="M71,12h18v18H71V12z"/>
	</g>
</g>
</svg>
