<?xml version="1.0" encoding="utf-8"?>
<!-- Generator: Adobe Illustrator 23.1.0, SVG Export Plug-In . SVG Version: 6.00 Build 0)  -->
<svg version="1.1" id="Layer_1" xmlns="http://www.w3.org/2000/svg" xmlns:xlink="http://www.w3.org/1999/xlink" x="0px" y="0px"
	 width="130px" height="24px" viewBox="0 0 130 24" style="enable-background:new 0 0 130 24;" xml:space="preserve">
<style type="text/css">
	.st0{fill:#FFE900;}
</style>
<g>
	<polygon class="st0" points="18.8,23.1 11.6,19.5 4.4,23 5.6,15.1 0,9.3 7.9,8 11.7,0.9 15.4,8.1 23.3,9.4 17.6,15.1 	"/>
	<polygon class="st0" points="45.5,23.1 38.3,19.5 31.1,23 32.3,15.1 26.7,9.3 34.6,8 38.4,0.9 42,8.1 50,9.4 44.3,15.1 	"/>
	<polygon class="st0" points="72.1,23.1 65,19.5 57.8,23 59,15.1 53.4,9.3 61.3,8 65,0.9 68.7,8.1 76.6,9.4 71,15.1 	"/>
	<polygon class="st0" points="98.8,23.1 91.6,19.5 84.4,23 85.7,15.1 80.1,9.3 88,8 91.7,0.9 95.4,8.1 103.3,9.4 97.7,15.1 	"/>
	<polygon class="st0" points="125.5,23.1 118.3,19.5 111.1,23 112.3,15.1 106.7,9.3 114.7,8 118.4,0.9 122.1,8.1 130,9.4 
		124.4,15.1 	"/>
</g>
</svg>
