<?xml version="1.0" encoding="utf-8"?>
<!-- Generator: Adobe Illustrator 23.1.0, SVG Export Plug-In . SVG Version: 6.00 Build 0)  -->
<svg version="1.1" xmlns="http://www.w3.org/2000/svg" xmlns:xlink="http://www.w3.org/1999/xlink" x="0px" y="0px" width="125px"
	 height="24px" viewBox="0 0 125 24" style="enable-background:new 0 0 125 24;" xml:space="preserve">
<style type="text/css">
	.st0{fill:#FFA511;}
</style>
<g id="Layer_1">
</g>
<g id="Layer_2">
	<g>
		<polygon class="st0" points="0,0.2 0,3.2 2,3.2 2,13 6.6,7.7 6.6,0.2 		"/>
		<polygon points="15.2,0.2 2,16.8 2,23.8 6.9,23.8 6.9,16.6 8.6,14.5 15.9,23.8 21.9,23.8 12,11.2 21.5,0.2 		"/>
		<polygon points="21.9,0.2 28.8,23.8 34,23.8 38,7.6 42.2,23.8 47.4,23.8 54.2,0.2 48.5,0.2 44.6,17.2 39.9,0.2 36.2,0.2 
			31.7,17.4 27.5,0.2 		"/>
		<path d="M66.8-0.1C60-0.1,54.6,5.3,54.6,12S60,24.1,66.8,24.1C73.5,24.1,79,18.7,79,12S73.5-0.1,66.8-0.1z M66.8,19.8
			c-3.9,0-7-3.5-7-7.8s3.1-7.8,7-7.8c3.9,0,7,3.5,7,7.8S70.7,19.8,66.8,19.8z"/>
		<path d="M96.3,14.9c0,0,5.1-0.7,4.8-7c-0.2-5.1-2.8-7.5-8-7.5S82.6,0.2,82.6,0.2v23.6h4.9v-8.3h3.7l4.5,8.3h5.7L96.3,14.9z
			 M93,11.1c-1.1,0-5.4,0-5.4,0V4.8c0,0,3.9-0.1,5.3-0.1c1.3,0,3.3,1.4,3.3,3.3C96.2,9.8,94.1,11.1,93,11.1z"/>
		<polygon points="115,11.2 124.5,0.2 118.3,0.2 110,10.6 110,0.2 105.1,0.2 105.1,16.8 105.1,18.6 105.1,23.8 110,23.8 110,18.6 
			110,16.6 111.7,14.5 119,23.8 125,23.8 		"/>
	</g>
</g>
</svg>
