<svg xmlns="http://www.w3.org/2000/svg" width="32" height="32" xmlns:v="https://vecta.io/nano"><path fill="#8f9dd0" d="M31.833 15.917a15.98 15.98 0 0 1-.25 2.821c-1.33 7.445-7.84 13.096-15.667 13.096-5.897 0-11.046-3.207-13.795-7.973-.67-1.162-1.2-2.418-1.56-3.74C.195 18.78 0 17.37 0 15.917A15.92 15.92 0 0 1 15.917 0c7.255 0 13.377 4.854 15.294 11.492.405 1.404.622 2.89.622 4.425z"/><path d="M8.093 11.082h-5.86L.562 20.12c.36 1.322.9 2.578 1.56 3.74h.544l.647-3.5h3.22c3.92 0 4.976-3.52 5.23-5.25a3.59 3.59 0 0 0-3.67-4.027zm.85 4.32c-.144.98-.868 2.976-3.1 2.976H3.678l.972-5.26h2.213c2.158 0 2.224 1.303 2.08 2.284zm22.257-3.9c-.5-.257-1.093-.4-1.778-.4h-5.86L21.2 23.86h2.794l.647-3.5h3.22c1.744 0 2.92-.696 3.712-1.622a15.98 15.98 0 0 0 .25-2.821c0-1.535-.217-3.02-.623-4.424zm-.927 3.9c-.144.98-.868 2.976-3.092 2.976h-2.174l.972-5.26h2.213c2.158 0 2.224 1.303 2.08 2.284zm-11.047-4.278h-3.394l.638-3.448h-2.784l-2.36 12.778H14.1l1.358-7.348h1.78c1.18 0 1.98.253 1.813 1.35l-1.14 5.947h2.826L22 13.486c.17-1.52-1.222-2.362-2.784-2.362z" fill="#f2f2f3"/></svg>