<?xml version="1.0" encoding="utf-8"?>
<!-- Generator: Adobe Illustrator 12.0.1, SVG Export Plug-In  -->
<!DOCTYPE svg PUBLIC "-//W3C//DTD SVG 1.1//EN" "http://www.w3.org/Graphics/SVG/1.1/DTD/svg11.dtd" [
	<!ENTITY ns_flows "http://ns.adobe.com/Flows/1.0/">
	<!ENTITY ns_svg "http://www.w3.org/2000/svg">
	<!ENTITY ns_xlink "http://www.w3.org/1999/xlink">
]>
<svg  version="1.1" xmlns="&ns_svg;" xmlns:xlink="&ns_xlink;" xmlns:a="http://ns.adobe.com/AdobeSVGViewerExtensions/3.0/"
	 width="188" height="28" viewBox="-1 -0.334 188 28" enable-background="new -1 -0.334 188 28" xml:space="preserve">
<defs>
</defs>
<path fill="#FCDEDE" d="M6.877,4.974l25.295-0.312c107.789-1.609-72.54-1.609,19.393-1.609c30.208,0-24.18-0.518,12.649-1.028
	l22.45-0.305c43.017-0.574,54.492-1.001,76.894-0.247l20.83,0.699l-6.725,21.344l-27.271-0.701
	c-20.037-0.676-18.791-0.301-62.642,0.287c-7.299,0.096-14.726,0.199-22.208,0.303c-36.82,0.508,16.85,1.035-13.978,1.035H51.53
	c-91.727,0,78.614,0-28.58,1.6L2.086,26.352L6.877,4.974z"/>
<path fill="#FCDEDE" d="M0.479,27.035c-0.412-0.254-0.569-0.59-0.431-0.912L4.839,4.742c0.206-0.478,1.021-0.823,1.978-0.836
	l25.294-0.314c107.816-1.608-72.488-1.608,19.454-1.608c30.173,0-24.246-0.518,12.593-1.026h0.009
	C71.694,0.854,79.2,0.75,86.609,0.652c42.975-0.573,54.564-1.003,77.086-0.247l20.83,0.7c0.641,0.021,1.223,0.191,1.588,0.465
	c0.359,0.27,0.459,0.611,0.266,0.925l-6.725,21.343c-0.289,0.469-1.166,0.777-2.125,0.744l-27.275-0.699
	c-19.9-0.668-18.506-0.297-62.35,0.287h-0.099c-7.297,0.1-14.724,0.201-22.206,0.307h-0.022
	c-36.806,0.508,16.844,1.035-14.012,1.035H51.53c-91.721,0,78.646,0-28.519,1.6L2.148,27.424c-0.644,0.008-1.259-0.137-1.67-0.389
	H0.479z M4.703,25.244l18.188-0.271c107.223-1.6-63.093-1.6,28.64-1.6h0.035c30.794,0-22.909-0.527,13.922-1.035
	c7.482-0.105,14.909-0.205,22.208-0.305l0.419-0.006c43.563-0.582,42.321-0.953,62.415-0.281l25.639,0.646l5.428-19.242
	l-18.174-0.61c-22.287-0.749-33.645-0.325-76.704,0.25c-7.41,0.099-14.915,0.203-22.446,0.307H64.25
	C27.436,3.604,81.801,4.123,51.567,4.123c-91.925,0,88.423,0-19.333,1.609L8.565,6.02L4.703,25.242V25.244z"/>
</svg>
