<?xml version="1.0" encoding="utf-8"?>
<!-- Generator: Adobe Illustrator 23.1.0, SVG Export Plug-In . SVG Version: 6.00 Build 0)  -->
<svg version="1.1" id="Layer_1" xmlns="http://www.w3.org/2000/svg" xmlns:xlink="http://www.w3.org/1999/xlink" x="0px" y="0px"
	 width="120px" height="22px" viewBox="0 0 120 22" style="enable-background:new 0 0 120 22;" xml:space="preserve">
<style type="text/css">
	.st0{fill:#FF9E00;}
	.st1{fill:#FFE900;}
</style>
<g>
	
		<ellipse transform="matrix(2.628891e-02 -0.9997 0.9997 2.628891e-02 -1.0587 20.9131)" class="st0" cx="10.2" cy="11" rx="10.2" ry="10.2"/>
	<polygon class="st1" points="15,18.1 10.2,15.7 5.3,18.1 6.1,12.7 2.4,8.8 7.7,8 10.2,3.2 12.7,8 18.1,8.9 14.2,12.8 	"/>
</g>
<g>
	<path class="st0" d="M45.3,11c0,5.6-4.6,10.2-10.2,10.2c-5.6,0-10.2-4.6-10.2-10.2c0-5.6,4.6-10.2,10.2-10.2
		C40.7,0.8,45.3,5.4,45.3,11z"/>
	<polygon class="st1" points="39.9,18.1 35.1,15.7 30.2,18.1 31,12.7 27.2,8.8 32.6,8 35.1,3.2 37.6,8 43,8.9 39.1,12.8 	"/>
</g>
<g>
	
		<ellipse transform="matrix(2.628891e-02 -0.9997 0.9997 2.628891e-02 47.4264 70.6901)" class="st0" cx="60" cy="11" rx="10.2" ry="10.2"/>
	<polygon class="st1" points="64.8,18.1 60,15.7 55.1,18.1 55.9,12.7 52.1,8.8 57.5,8 60,3.2 62.5,8 67.9,8.9 64,12.8 	"/>
</g>
<g>
	<path class="st0" d="M95.1,11c0,5.6-4.6,10.2-10.2,10.2c-5.6,0-10.2-4.6-10.2-10.2c0-5.6,4.6-10.2,10.2-10.2
		C90.5,0.8,95.1,5.4,95.1,11z"/>
	<polygon class="st1" points="89.7,18.1 84.9,15.7 80,18.1 80.8,12.7 77,8.8 82.4,8 84.9,3.2 87.4,8 92.8,8.9 88.9,12.8 	"/>
</g>
<g>
	
		<ellipse transform="matrix(2.628891e-02 -0.9997 0.9997 2.628891e-02 95.9116 120.4671)" class="st0" cx="109.8" cy="11" rx="10.2" ry="10.2"/>
	<polygon class="st1" points="114.6,18.1 109.8,15.7 104.9,18.1 105.7,12.7 101.9,8.8 107.3,8 109.8,3.2 112.3,8 117.7,8.9 
		113.8,12.8 	"/>
</g>
</svg>
