<?xml version="1.0" encoding="utf-8"?>
<!-- Generator: Adobe Illustrator 23.1.0, SVG Export Plug-In . SVG Version: 6.00 Build 0)  -->
<svg version="1.1" xmlns="http://www.w3.org/2000/svg" xmlns:xlink="http://www.w3.org/1999/xlink" x="0px" y="0px" width="100px"
	 height="100px" viewBox="0 0 100 100" style="enable-background:new 0 0 100 100;" xml:space="preserve">
<style type="text/css">
	.st0{fill:url(#SVGID_1_);}
</style>
<g id="Layer_1">
</g>
<g id="OBJECTS">
	<linearGradient id="SVGID_1_" gradientUnits="userSpaceOnUse" x1="1.0936" y1="50.2097" x2="98.933" y2="50.2097">
		<stop  offset="1.497109e-06" style="stop-color:#DB0055"/>
		<stop  offset="1" style="stop-color:#FF9D70"/>
	</linearGradient>
	<path class="st0" d="M51.3,0C23.6,0,1.1,22.5,1.1,50.2c0,27.7,22.5,50.2,50.2,50.2c0.2,0,8.9,0,18.5,0l-8.4-26.6c-9.6,0-9.8,0-10,0
		c-13.1,0-23.6-10.6-23.6-23.6c0-13.1,10.6-23.6,23.6-23.6c5.8,0,11.1,2.1,15.3,5.6L49.8,51.4h25.1h9.2c0,0,7.2-8.5,14.8-17.2
		C92.3,14.4,73.5,0,51.3,0z"/>
</g>
</svg>
