<?xml version="1.0" encoding="utf-8"?>
<!-- Generator: Adobe Illustrator 23.1.0, SVG Export Plug-In . SVG Version: 6.00 Build 0)  -->
<svg version="1.1" id="Layer_1" xmlns="http://www.w3.org/2000/svg" xmlns:xlink="http://www.w3.org/1999/xlink" x="0px" y="0px"
	 viewBox="0 0 150 150" style="enable-background:new 0 0 150 150;" xml:space="preserve">
<style type="text/css">
	.st0{fill:url(#SVGID_1_);}
	.st1{fill:url(#SVGID_2_);stroke:#FFFFFF;stroke-width:0.3697;}
</style>
<linearGradient id="SVGID_1_" gradientUnits="userSpaceOnUse" x1="1.7478" y1="16.8524" x2="162.0344" y2="144.0879">
	<stop  offset="0" style="stop-color:#9013FE"/>
	<stop  offset="1" style="stop-color:#6610F2"/>
</linearGradient>
<path class="st0" d="M121.99,150H28.01C12.54,150,0,137.46,0,121.99V28.01C0,12.54,12.54,0,28.01,0h93.97
	C137.46,0,150,12.54,150,28.01v93.97C150,137.46,137.46,150,121.99,150z"/>
<linearGradient id="SVGID_2_" gradientUnits="userSpaceOnUse" x1="50.4462" y1="111.3266" x2="87.4229" y2="48.791" gradientTransform="matrix(1 0 0 -1 0 152)">
	<stop  offset="0" style="stop-color:#FFFFFF"/>
	<stop  offset="1" style="stop-color:#F1E5FC"/>
</linearGradient>
<path class="st1" d="M79.27,114.67c17.49,0,28.03-8.56,28.03-22.69c0-10.68-7.52-18.4-18.68-19.63v-0.44
	c8.2-1.33,14.64-8.95,14.64-17.46c0-12.12-9.57-20.02-24.15-20.02H46.29v80.23H79.27z M59.05,44.61h16.98
	c9.23,0,14.47,4.11,14.47,11.57c0,7.95-6.09,12.4-17.15,12.4h-14.3C59.05,68.58,59.05,44.61,59.05,44.61z M59.05,104.5V78.09h16.86
	c12.08,0,18.34,4.45,18.34,13.12c0,8.67-6.09,13.29-17.6,13.29H59.05z"/>
</svg>
