<?xml version="1.0" encoding="utf-8"?>
<!-- Generator: Adobe Illustrator 23.1.0, SVG Export Plug-In . SVG Version: 6.00 Build 0)  -->
<svg version="1.1" xmlns="http://www.w3.org/2000/svg" xmlns:xlink="http://www.w3.org/1999/xlink" x="0px" y="0px"
	 viewBox="0 0 150 150" style="enable-background:new 0 0 150 150;" xml:space="preserve">
<style type="text/css">
	.st0{fill:#36447F;}
	.st1{fill:#C9D5F7;}
</style>
<g id="Layer_1">
</g>
<g id="svg3430">
	<circle class="st0" cx="75" cy="75" r="75"/>
	<g>
		<g id="g3484" transform="translate(161.7344,145.3066)">
			<path id="path3486" class="st1" d="M-127.3-61.73c3.76,0,6.57-0.69,8.34-2.06c1.76-1.35,2.97-3.7,3.61-6.97
				c0.59-3.06,0.37-5.19-0.67-6.34c-1.06-1.18-3.36-1.77-6.82-1.77h-6.01l-3.33,17.14H-127.3z M-146.96-40.62
				c-0.28,0-0.54-0.12-0.72-0.34c-0.18-0.22-0.25-0.5-0.2-0.77l8.83-45.43c0.09-0.44,0.47-0.76,0.92-0.76h19.03
				c5.98,0,10.43,1.62,13.23,4.83c2.81,3.22,3.68,7.72,2.58,13.38c-0.45,2.3-1.22,4.45-2.29,6.36c-1.07,1.92-2.49,3.69-4.21,5.28
				c-2.06,1.93-4.4,3.33-6.93,4.15c-2.49,0.81-5.7,1.22-9.52,1.22h-7.71l-2.2,11.32c-0.09,0.44-0.47,0.76-0.92,0.76H-146.96z"/>
		</g>
		<g id="g3488" transform="translate(159.2236,197.3071)">
			<path id="path3490" class="st0" d="M-125.57-129.94h5.24c4.18,0,5.64,0.92,6.13,1.47c0.82,0.91,0.97,2.82,0.45,5.54
				c-0.59,3.04-1.69,5.19-3.26,6.4c-1.61,1.24-4.22,1.87-7.77,1.87h-3.75L-125.57-129.94z M-116.59-140.85h-19.03
				c-0.9,0-1.66,0.63-1.84,1.51l-8.83,45.43c-0.11,0.55,0.04,1.12,0.39,1.55c0.36,0.43,0.88,0.68,1.44,0.68h9.9
				c0.9,0,1.67-0.63,1.84-1.51l2.05-10.57h6.94c3.92,0,7.22-0.43,9.81-1.27c2.66-0.86,5.11-2.33,7.28-4.36
				c1.79-1.65,3.27-3.5,4.39-5.5c1.12-2,1.92-4.24,2.39-6.64c1.16-5.95,0.22-10.72-2.8-14.17
				C-105.63-139.12-110.32-140.85-116.59-140.85 M-130.81-112.8h6.02c3.99,0,6.96-0.75,8.92-2.25c1.95-1.5,3.27-4.01,3.95-7.53
				c0.65-3.38,0.36-5.76-0.89-7.15c-1.25-1.39-3.76-2.08-7.52-2.08h-6.78L-130.81-112.8 M-116.59-138.98c5.73,0,9.9,1.5,12.53,4.51
				c2.62,3.01,3.42,7.2,2.37,12.59c-0.43,2.22-1.16,4.25-2.19,6.08c-1.03,1.84-2.37,3.52-4.03,5.04c-1.98,1.85-4.17,3.17-6.59,3.95
				c-2.42,0.79-5.49,1.18-9.23,1.18h-8.48l-2.35,12.08h-9.9l8.83-45.43H-116.59"/>
		</g>
		<g id="g3492" transform="translate(311.583,116.3066)">
			<path id="path3494" class="st1" d="M-230.44-23.7c-0.28,0-0.54-0.12-0.72-0.34c-0.18-0.22-0.25-0.5-0.2-0.77l3.91-20.1
				c0.37-1.91,0.28-3.28-0.26-3.86c-0.33-0.35-1.32-0.95-4.24-0.95h-7.08l-4.91,25.27c-0.09,0.44-0.47,0.76-0.92,0.76h-9.82
				c-0.28,0-0.54-0.12-0.72-0.34c-0.18-0.22-0.25-0.5-0.2-0.77l8.83-45.43c0.09-0.44,0.47-0.76,0.92-0.76h9.82
				c0.28,0,0.54,0.12,0.72,0.34c0.18,0.22,0.25,0.5,0.2,0.77l-2.13,10.97h7.61c5.8,0,9.73,1.02,12.02,3.13
				c2.33,2.15,3.06,5.58,2.17,10.2l-4.11,21.14c-0.09,0.44-0.47,0.76-0.92,0.76H-230.44z"/>
		</g>
		<g id="g3496" transform="translate(293.6611,271.0571)">
			<path id="path3498" class="st0" d="M-218.11-226.68h-9.82c-0.9,0-1.67,0.63-1.84,1.51l-8.83,45.43
				c-0.11,0.55,0.04,1.12,0.39,1.55c0.36,0.43,0.88,0.68,1.44,0.68h9.82c0.9,0,1.67-0.63,1.84-1.51l4.76-24.51h6.31
				c2.92,0,3.53,0.62,3.56,0.65c0.18,0.19,0.41,1.07,0.03,3.05l-3.91,20.1c-0.11,0.55,0.04,1.12,0.39,1.55
				c0.36,0.43,0.88,0.68,1.44,0.68h9.97c0.9,0,1.67-0.63,1.84-1.51l4.11-21.14c0.96-4.96,0.14-8.69-2.45-11.07
				c-2.47-2.27-6.61-3.37-12.65-3.37h-6.48l1.91-9.85c0.11-0.55-0.04-1.12-0.39-1.55C-217.02-226.43-217.55-226.68-218.11-226.68
				 M-218.11-224.81l-2.35,12.08h8.75c5.5,0,9.3,0.96,11.39,2.88c2.09,1.92,2.72,5.03,1.88,9.33l-4.11,21.14h-9.97l3.91-20.1
				c0.44-2.29,0.28-3.85-0.49-4.68c-0.77-0.83-2.41-1.25-4.93-1.25h-7.85l-5.06,26.03h-9.82l8.83-45.43H-218.11"/>
		</g>
		<g id="g3500" transform="translate(409.5498,145.3066)">
			<path id="path3502" class="st1" d="M-297.87-61.73c3.76,0,6.57-0.69,8.34-2.06c1.76-1.35,2.97-3.7,3.61-6.97
				c0.59-3.06,0.37-5.19-0.67-6.34c-1.06-1.18-3.36-1.77-6.82-1.77h-6.01l-3.33,17.14H-297.87z M-317.53-40.62
				c-0.28,0-0.54-0.12-0.72-0.34c-0.18-0.22-0.25-0.5-0.2-0.77l8.83-45.43c0.09-0.44,0.47-0.76,0.92-0.76h19.03
				c5.98,0,10.43,1.62,13.23,4.83c2.81,3.22,3.68,7.72,2.58,13.38c-0.45,2.3-1.22,4.45-2.29,6.36c-1.07,1.92-2.49,3.69-4.21,5.28
				c-2.06,1.93-4.4,3.33-6.93,4.15c-2.49,0.81-5.7,1.22-9.52,1.22h-7.71l-2.2,11.32c-0.09,0.44-0.47,0.76-0.92,0.76H-317.53z"/>
		</g>
		<g id="g3504" transform="translate(407.0391,197.3071)">
			<path id="path3506" class="st0" d="M-296.14-129.94h5.24c4.18,0,5.64,0.92,6.13,1.47c0.82,0.91,0.97,2.82,0.45,5.54
				c-0.59,3.04-1.69,5.19-3.26,6.4c-1.61,1.24-4.22,1.87-7.77,1.87h-3.75L-296.14-129.94z M-287.16-140.85h-19.03
				c-0.9,0-1.66,0.63-1.84,1.51l-8.83,45.43c-0.11,0.55,0.04,1.12,0.39,1.55c0.36,0.43,0.88,0.68,1.44,0.68h9.9
				c0.9,0,1.67-0.63,1.84-1.51l2.05-10.57h6.94c3.92,0,7.22-0.43,9.81-1.27c2.66-0.86,5.11-2.33,7.28-4.36
				c1.79-1.65,3.27-3.5,4.39-5.5c1.12-2,1.92-4.24,2.39-6.64c1.16-5.96,0.22-10.72-2.8-14.17
				C-276.2-139.12-280.89-140.85-287.16-140.85 M-301.38-112.8h6.02c3.99,0,6.96-0.75,8.92-2.25c1.95-1.5,3.27-4.01,3.95-7.53
				c0.66-3.38,0.36-5.76-0.89-7.15c-1.25-1.39-3.76-2.08-7.52-2.08h-6.78L-301.38-112.8 M-287.16-138.98c5.73,0,9.9,1.5,12.53,4.51
				c2.63,3.01,3.42,7.2,2.37,12.59c-0.43,2.22-1.16,4.25-2.19,6.08c-1.03,1.84-2.37,3.52-4.03,5.04c-1.98,1.85-4.17,3.17-6.59,3.95
				c-2.42,0.79-5.49,1.18-9.23,1.18h-8.48l-2.35,12.08h-9.9l8.83-45.43H-287.16"/>
		</g>
	</g>
</g>
</svg>
