<?xml version="1.0" encoding="utf-8"?>
<!-- Generator: Adobe Illustrator 23.1.0, SVG Export Plug-In . SVG Version: 6.00 Build 0)  -->
<svg version="1.1" xmlns="http://www.w3.org/2000/svg" xmlns:xlink="http://www.w3.org/1999/xlink" x="0px" y="0px" width="272px"
	 height="100px" viewBox="0 0 272 100" style="enable-background:new 0 0 272 100;" xml:space="preserve">
<style type="text/css">
	.st0{fill:#FFFFFF;}
	.st1{fill:#FFB12A;}
</style>
<g id="Layer_1">
</g>
<g id="Layer_2">
	<g>
		<path class="st0" d="M5.9,78.7H1l0.5-2.5h12.8l-0.5,2.5H8.8L5.8,94H2.9L5.9,78.7z"/>
		<path class="st0" d="M18.8,80.3c3.1,0,4.3,2.2,4.3,4.9c0,1.2-0.4,2.4-0.6,2.8h-8.1c-0.3,2.8,1.3,4,3.3,4c0.9,0,2-0.5,2.7-1
			l1.1,1.9c-1.1,0.8-2.7,1.4-4.6,1.4c-3.2,0-5.4-2.1-5.4-5.7C11.5,83.7,15.3,80.3,18.8,80.3z M20.5,86.2c0.1-0.3,0.1-0.7,0.1-1.2
			c0-1.3-0.6-2.5-2.2-2.5c-1.6,0-3.2,1.4-3.9,3.6H20.5z"/>
		<path class="st0" d="M27.2,80.6h2.4l-0.1,1.9h0.1c1.4-1.2,2.9-2.2,4.6-2.2c2.2,0,3.2,1.2,3.2,3.4c0,0.6-0.1,1.2-0.2,1.9L35.4,94
			h-2.9l1.6-8.1c0.1-0.6,0.2-1,0.2-1.4c0-1.1-0.5-1.7-1.7-1.7c-0.9,0-2,0.6-3.4,2.1L27.4,94h-2.9L27.2,80.6z"/>
		<path class="st0" d="M41.8,80.6h2.4l-0.1,1.9h0.1c1.4-1.2,2.9-2.2,4.6-2.2c2.2,0,3.2,1.2,3.2,3.4c0,0.6-0.1,1.2-0.2,1.9L50.1,94
			h-2.9l1.6-8.1c0.1-0.6,0.2-1,0.2-1.4c0-1.1-0.5-1.7-1.7-1.7c-0.9,0-2,0.6-3.4,2.1L42.1,94h-2.9L41.8,80.6z"/>
		<path class="st0" d="M56.6,80.6h2.9L56.8,94h-2.9L56.6,80.6z M57.1,76.7c0-1,0.9-1.9,2-1.9c0.9,0,1.7,0.6,1.7,1.5
			c0,1.1-0.9,1.9-2,1.9C57.9,78.2,57.1,77.7,57.1,76.7z"/>
		<path class="st0" d="M60,91.8l1.7-1.4c0.9,1.1,2,1.8,3.2,1.8c1.3,0,2.3-0.8,2.3-1.7c0-0.9-0.7-1.3-2.4-2.3c-1.8-1-2.9-2.1-2.9-3.7
			c0-2.4,2.2-4.2,4.9-4.2c1.7,0,3.1,0.8,4.2,1.9l-1.6,1.6c-0.7-0.7-1.5-1.3-2.6-1.3c-1.2,0-2.1,0.8-2.1,1.7c0,1,1.1,1.5,2.3,2.1
			c2,1.1,3,2.1,3,3.8c0,2.6-2.2,4.3-5.3,4.3C62.9,94.3,61,93.3,60,91.8z"/>
		<path class="st0" d="M84.7,76.2h3.5L90.1,94H87l-0.7-9.9c-0.1-1.8-0.3-3.6-0.3-5.6h-0.1c-0.9,1.9-1.7,3.7-2.6,5.6L78.4,94h-3.2
			L84.7,76.2z M80.2,86.7h8L87.6,89h-8L80.2,86.7z"/>
		<path class="st0" d="M92,88.9c0-4.8,3.5-8.6,7.7-8.6c1.6,0,2.8,0.8,3.5,1.6l-1.7,1.8c-0.6-0.7-1.2-1-2.1-1c-2.4,0-4.5,2.8-4.5,6.1
			c0,2,0.9,3.2,2.7,3.2c1,0,1.8-0.5,2.5-1l1.3,1.8c-1,0.7-2.4,1.6-4.4,1.6C94.2,94.3,92,92.3,92,88.9z"/>
		<path class="st0" d="M103.6,89.4c0-5.1,3.5-9.2,7.2-9.2c1.3,0,2.5,0.7,3.1,1.9h0.1l0.6-1.6h2.4L114.2,94h-2.4l0.1-1.9h-0.1
			c-1.3,1.3-2.9,2.2-4.4,2.2C105.1,94.3,103.6,92.6,103.6,89.4z M112.2,89.7l1.1-5.3c-0.6-1.1-1.4-1.6-2.3-1.6
			c-2.3,0-4.3,2.9-4.3,6.4c0,2,0.8,2.9,2,2.9C109.8,91.9,111.1,91.3,112.2,89.7z"/>
		<path class="st0" d="M129.1,79.5l0.9-4.7h2.9L129,94h-2.4l0.1-1.9h-0.1c-1.3,1.3-2.9,2.2-4.4,2.2c-2.4,0-3.8-1.7-3.8-4.9
			c0-5.1,3.5-9.2,7.2-9.2c1.3,0,2.4,0.7,2.9,1.8h0.1L129.1,79.5z M127,89.7l1.1-5.3c-0.6-1.1-1.4-1.6-2.3-1.6
			c-2.3,0-4.3,2.9-4.3,6.4c0,2,0.8,2.9,2,2.9C124.6,91.9,125.9,91.3,127,89.7z"/>
		<path class="st0" d="M140.4,80.3c3.1,0,4.3,2.2,4.3,4.9c0,1.2-0.4,2.4-0.6,2.8H136c-0.3,2.8,1.3,4,3.3,4c0.9,0,2-0.5,2.7-1
			l1.1,1.9c-1.1,0.8-2.7,1.4-4.6,1.4c-3.2,0-5.4-2.1-5.4-5.7C133.1,83.7,136.9,80.3,140.4,80.3z M142.1,86.2
			c0.1-0.3,0.1-0.7,0.1-1.2c0-1.3-0.6-2.5-2.2-2.5c-1.6,0-3.2,1.4-3.9,3.6H142.1z"/>
		<path class="st0" d="M148.8,80.6h2.4l-0.1,1.9h0.1c1.3-1.2,2.9-2.2,4.4-2.2c2.1,0,2.8,1,3.1,2.5c1.6-1.5,3.2-2.5,4.6-2.5
			c2.2,0,3.2,1.2,3.2,3.4c0,0.6-0.1,1.2-0.2,1.9l-1.7,8.5h-2.9l1.6-8.1c0.1-0.6,0.2-1,0.2-1.4c0-1.1-0.5-1.7-1.6-1.7
			c-0.7,0-1.8,0.6-3.2,2.1l-1.8,9.1h-2.9l1.6-8.1c0.1-0.6,0.2-1,0.2-1.4c0-1.1-0.5-1.7-1.6-1.7c-0.7,0-1.9,0.6-3.2,2.1l-1.8,9.1
			h-2.9L148.8,80.6z"/>
		<path class="st0" d="M166.4,99l0.9-2.1c0.3,0.2,0.6,0.3,1,0.3c1.1,0,2.3-1,3-2.5l0.4-0.8l-2.3-13.3h2.9l0.8,6.8
			c0.2,1.2,0.3,2.8,0.3,4h0.1c0.6-1.3,1.3-2.8,1.9-4l3.3-6.8h2.8l-7.5,14.1c-1.6,2.9-3.3,4.8-6,4.8C167.7,99.5,166.9,99.3,166.4,99z
			"/>
	</g>
	<path class="st0" d="M27.1,0.7c0,0-7.3-0.8-16.3,1.3c0,0-2.4,14.7-3.8,25.8S4.2,50.6,3.9,54.9c-0.3,4.3-0.4,8.4,0,10.8h14.3
		c0,0,1.3,0.8,1.8-3.1s2.2-21.4,3.1-29.5S27.1,0.7,27.1,0.7z"/>
	<path class="st0" d="M40.1,21.1c-3.8,0.9-6.9,0.8-7.8,8.2c-0.9,7.4-3.4,28.9-3.5,31.3s-1.1,5.2,2.2,5.2s8.6,0,10.2,0
		c0,0,3.4,0.8,3.7-2.8c0.3-3.6,3.8-33.3,3.8-33.3s5.3-0.1,6.6-0.1s3.6-1.4,3.3,3.6s-2.5,30.1-2.7,32c0,0,11.7,0,12.8,0
		c1.1,0,2.8,1.2,3.3-3.3s2.9-24.6,3.2-28.7s0.2-8.3-2.7-11s-8.2-3.2-14.2-3.2C50.6,18.9,42.4,20.5,40.1,21.1z"/>
	<path class="st0" d="M89.9,6c-1.6,0.4-3.1,0.9-3.3,4.4s-3.7,31-4.1,35.2c-0.4,4.2-1.2,11.2,0,13.6c1.2,2.4,2.1,5.1,8.4,6.8
		s16.4-0.4,18.8-1.8v-8.9c0,0-8.1,1.8-11-0.8c0,0-0.1-10.6,2.2-23.4c0,0,8.3,0,9.5,0c1.2,0,2.1,0.8,2.5-1.2c0.3-1.9,0.5-9.7,0.5-9.7
		l-11.1-0.1c0,0,1.5-10.8,1.7-12.7s0.7-3.9-3.3-3.2C96.6,4.9,89.9,6,89.9,6z"/>
	<path class="st0" d="M149.7,47.8c8.5-2.5,13.3-4.5,13.2-13.3c-0.1-8.8-3.8-11.6-5.9-12.9c-2.1-1.3-4.9-3.1-14.1-3
		c-7.2,0.1-14,1-19,6.6c-5,5.6-7.1,16.2-7,23c0.1,6.8,2.4,13.8,8.6,16.8c6.2,2.9,12.4,2.3,16.1,2.3c3.8,0,11.9-0.6,15.5-4.1
		c0,0-0.1-5,0-6.4c0.1-1.4-0.5-2.3-2.3-2.1c-1.7,0.1-6.4,2.5-12.2,2.3c-5.8-0.2-11.1-2.2-10.3-7.9C132.3,49,141.2,50.2,149.7,47.8z
		 M138.2,29.9c4.6-1.9,7.1-0.5,8.6,1.4c1.5,1.9,1.1,5.4-0.8,7.4c-1.9,2.1-4.3,2.6-5.4,2.6s-6.8,0-6.8,0
		C133.8,36.4,133.6,31.8,138.2,29.9z"/>
	<path class="st0" d="M195.3,18.6c-2.7,0.1-12.8,0.1-20.9,3.2c-1.4,0.6-2.8,1.3-3.1,4.2s-4,35.1-4.2,36.8c-0.2,1.7-0.8,3,1.6,2.9
		c2.4-0.1,10.9-0.2,11.8,0c0.9,0.2,2.1,0.8,2.5-1.7c0.4-2.5,2.7-24.6,4-32.9c0,0,4-0.5,9.2-0.6c2.1,0,2.4-0.5,2.5-2.4
		s0.2-5.4,0.4-7.1S199.4,18.5,195.3,18.6z"/>
	<circle class="st1" cx="227" cy="23.9" r="12"/>
	<path class="st0" d="M270.6,32c-1.3-7.6-5.5-12.5-11.1-16.4c-5.6-3.9-10.2-6.6-16.3-6.6c-1.2,0-3.1-0.2-3.4,2.4
		c-0.3,2.6-0.3,3.2-0.2,3.9c0.1,0.7,0.2,2.1,3.3,2.9c3.2,0.8,8.6,2.3,12.8,6.5c4.2,4.3,5.2,7.6,5.1,11.5c-0.1,3.9-2.4,10.1-8.5,16.7
		c-6.1,6.6-10,8.4-15.9,10.7c-5.8,2.3-13-0.4-17.4-4.2c-4.4-3.8-3.8-11.1-3.8-16.5c-0.1-2.8-0.2-4.4-1.8-5.5c-1.6-1.1-3-1.1-3-1.1
		c-2.7-0.5-4.9,0.3-5.1,3.3c-0.3,3-1.7,10.9-3.1,16.9c-1.4,6-1.3,5.9-1.7,8.8c-0.4,2.9-2.1,7.9-3.8,10.5c-1.6,2.6-8.8,10.3-9.5,11.2
		c-0.7,0.9-1.1,2.5,0.4,3.7c1.5,1.3,1.9,1.4,2.6,2c0.7,0.6,1.4,2,3.9-0.5c2.5-2.6,7.3-7.8,13.2-10.8c5.9-3,9.1-4.2,15.9-5.6
		c6.8-1.4,13.7-1.7,20.2-4.8c6.5-3,11.1-6.5,17.3-13.7c6.2-7.2,6.6-8.7,7.7-10.9C269.7,44.4,272,39.7,270.6,32z M209.4,70.6
		c1.3-3.5,1.5-6.5,1.5-6.5c1.3,3.6,4.7,5.1,4.7,5.1C211.6,69,209.4,70.6,209.4,70.6z"/>
</g>
</svg>
