<?xml version="1.0" encoding="utf-8"?>
<!-- Generator: Adobe Illustrator 23.1.0, SVG Export Plug-In . SVG Version: 6.00 Build 0)  -->
<svg version="1.1" id="Layer_1" xmlns="http://www.w3.org/2000/svg" xmlns:xlink="http://www.w3.org/1999/xlink" x="0px" y="0px"
	 width="500px" height="500px" viewBox="0 0 500 500" style="enable-background:new 0 0 500 500;" xml:space="preserve">
<style type="text/css">
	.st0{fill:#14120E;}
	.st1{fill:#FFFFFF;}
</style>
<g>
	<g>
		<path class="st0" d="M260.7,330.5c-0.5,0-1,0-0.6-0.3c0.3-0.2,0.6-0.4,0.9-0.6c0.9,0,1.3-0.1,2.2,0.3l-0.3,0.6H260.7z"/>
		<polygon class="st0" points="122.9,123.5 122.9,122.4 123.8,122.4 124,123.2 		"/>
		<path class="st0" d="M0.7,212.7c-0.8-0.9-0.8-2.2-0.6-3.4c0.3-1.2,0.6-2.5,0.7-3.7c0-0.3,0.2-0.6,0.3-0.3c0.3,1.1,0.6,2.3,0.7,3.4
			c0,0.2-0.3,1.2-0.3,1.5c0,0.4,0.2,1.8,0.3,2.2c-0.2,0.1-0.5,0.2-0.7,0.2C1,212.6,0.9,212.6,0.7,212.7"/>
		<path class="st0" d="M60.8,196.1c-0.7-0.5-1.1-1.3-1.5-2.1l1.1-2.3c0.5-0.1,0.7,0,1.1,0.1l0.6,0.6c0.3,0.5,0.2,1,0.2,1.5
			c0.3,0.4,0.3,0.9,0.6,1.3c-0.4,0.4-1,0.8-1.6,0.8C61.1,196,60.9,196.1,60.8,196.1"/>
		<path class="st0" d="M64.7,203.5c-0.4,0-0.8-0.2-1.2-0.4c-0.2-0.4-0.2-1-0.2-1.5c0-0.1,0.5-0.9,0.7-1h0.6c0.7,0.6,0.9,1.6,0.7,2.5
			C65.3,203.3,65.1,203.5,64.7,203.5"/>
		<path class="st0" d="M216,283.1c-1-0.8-0.7-2.4-0.7-3.6c0.9,0.3,1.1,1.9,1.4,2.8c0.1,0.2,0.1,0.5,0.2,0.7l-0.7,0.2
			C216.1,283.3,216,283.2,216,283.1"/>
		<path class="st0" d="M85.5,251.5c-0.1,0-0.2-0.1-0.2-0.1c-0.3-0.7-0.4-1.5-0.5-2.2c0.3-0.3,0.8-0.7,1.3-0.7
			c0.8,0.7,0.9,1.4,0.7,2.3C86.6,251.2,85.9,251.5,85.5,251.5"/>
		<path class="st0" d="M295.2,337.3c-0.1-0.7-0.1-1.5-0.3-2.2c0-0.3-0.1-0.6,0.1-0.4c0.6,0.9,1.2,1.4,1.9,2.3
			C296.4,337.3,295.8,337.3,295.2,337.3"/>
		<path class="st0" d="M197.3,329.9c-0.4-0.2-0.6-0.3-0.7-0.7c0.1-0.8,0.3-1.6,0.6-2.4v-0.6l-0.6-0.7c0.1-1.3,0.2-1.4,0.1-2.8
			c0-0.5,0.5-1,0.8-1.3c0.2-1.5,0.3-3.1,0.6-4.6c0.1-0.5,0.4-1.2,0.6-1.8c0.2-0.8-0.1-1.9-0.6-2.5h-0.9l-0.6,1.8
			c-0.2-0.1-0.6-0.5-0.6-0.8c-0.1-4.3,0-8.7-0.3-13c0-0.3-0.8-1-1-1.1c-0.8-0.3-1.9-0.4-2.8-0.3c-0.1-0.7-0.1-1.3,0.6-1.7v-1
			c0.7,0.2,1.1-0.5,1.6-0.9c0,1,0.1,2,0.7,2.9c0.4,0.7,2.5,0.6,3.3,0.7c0.2,0,0.4,0.2,0.5,0.5c1,3.1,1.9,6.2,2.9,9.3l-2.3,2.3
			c-0.1,0.9-0.1,1.1,0.7,1.6c0.6,0.4,1.3,0.1,1.9,0l0.1-1.2c0-0.2,0.2-0.2,0.4-0.3c1.6,3.3,2.8,6.7,3.9,10.2
			c0.3,0.8,0.1,1.9,0.3,2.7c0.1,0.4,1.1,1.4,1.4,1.8c0.5,0.6,0.7,1.4,0.9,2.1c0.1,0.3-0.1,0.8-0.3,1c-3,0.5-6,0.5-9,0.7
			C198.7,329.8,198,329.8,197.3,329.9"/>
		<path class="st0" d="M428.1,333.4c-0.3-0.3-0.5-0.6-0.7-0.9h-1.2c-0.5-1-1.1-2.2-1.7-3.1c-0.2-0.3-0.8-0.6-1.1-0.7
			c-0.5-0.1-0.9,0.1-1.2,0.4c-0.5,0.5-0.4,1.4-0.2,2c0.1,0.3-0.2,0.6-0.4,0.7c-1.2,0-2.4,0-3.6,0c-0.1,0-0.2-0.1-0.3-0.1
			c-0.5-0.2-1.6-1.1-2-1.5c-0.6-0.8-0.8-4.4-0.8-5.5l-1.4-0.3l-0.3,7.1h-7.4l-0.3-3c0.7,0.1,1.3,0,1.9-0.2c0.3-0.1,0.7-0.8,0.7-1.1
			c0-0.1,0-0.2,0-0.3c-1.6-4.4-3.3-8.7-4.9-13c0-0.1-0.1-0.2-0.2-0.3c-0.5-0.5-1-1-1.3-1.6c-2.4,0.7-7.9,0.3-10.6,0.3
			c0.1-1.5-0.8-2.5-1.2-4c-2.4-8-4.6-16.2-6.7-24.3c-0.1-0.3-0.2-2.6,0-3c4-9.4,8.6-18.7,12.7-28.1c0.5-1.2,0.1-2.8,1.2-3.7l0.3-4.8
			c2-2.1,4.5-3.8,5.8-6.4c0.8-1.6,1.7-4.4,2.5-6.5c0.3-0.6,0.3-2.2,0.6-3c2.7-6.2,5.8-12.2,8.5-18.4c6.9-15.4,13.7-30.8,20.6-46.2
			c0.5-1.1,0.9-2.2,1.3-3.4l-0.9-0.9c-11.5-0.1-23-0.2-34.5-0.3c-0.3,0-0.7,0-1-0.1c0.6-0.1,1-0.3,1.3-0.8c-9.3,0-18.8,0.5-27.9,0.3
			l-0.3-24.8c0.2,0-0.4,0.2-0.4,0.4c-7.7,21-15.2,42.1-22.6,63.2h-0.9c-0.7,1.5-1.4,2.9-1.8,4.4l0.6,0.6c-0.5,1.6-1,3.1-1.5,4.7
			l-1.8,1.2l-1.2,4.7c0.2,0.1,0.6,0.4,0.7,0.6c-0.1,0.1-0.2,0.3-0.3,0.4l-0.4,0.2c-1.6,4.6-3.1,9.2-4.7,13.8c-0.1,0.3-0.1,0.7,0,1.1
			l1.2,1.2h-1.5l-2.4,6.5c1.2,1,1.3,2,1.2,3.5c-0.7,0.7-1.5,0.8-2.3,0.9c-1.6,4-3.1,8-4.7,12c-0.2,8.4,0.4,16.8-0.4,25.2
			c-0.1,1.4-3,8.4-3.8,9.8c-0.2,0.4-0.1,1.2-0.1,1.6h0.9l3.3-6.2l-0.3,6.5c1.3,0.7,1.6,1.2,1.8,2.6l-1.8,1.9v12.2
			c-0.6,0.3-1.1,0.7-1.5,1.2c-0.1,2-0.3,3.9-0.5,5.9c0,0.3-0.3,0-0.3-0.3c-0.1-1.6-0.1-2.3-0.7-3.8c-0.7-0.2-1-0.4-1.4-1.1
			c0.3-0.2,0.7-0.6,0.8-1l2.1-0.3v-0.9l-2-0.6c-0.6-1-1.3-2.1-0.6-3.3l-4.8-2.7c0-0.9,0.2-1.9,0.6-2.8v-0.6l-0.6-0.7V295
			c-0.2-0.2-1.5-0.7-1.9-1c-0.4,0-1.7-0.1-2.1,0c-0.1,0-0.2,0.1-0.3,0.1c-0.1,0.1-0.6,0.6-0.7,0.7h-2.2c1.2,2,2.1,3.8,0.2,5.6h-1.4
			c-1.1,1.9-1,2.6-1.2,4.7c0,0.3-0.3-0.5-0.3-0.7c-0.1-0.6-0.2-1.6-0.3-2.2c-0.9,1.6-2,3.1-2.6,4.9c-0.2,0.5,0,2.6-0.1,3.3
			c0,0.2-0.5,0.9-0.6,1.2c-0.2,0.8-0.3,1.7-0.3,2.5l0.9,0.6c0,0.9,0,1.9,0,2.8c0,0.2,0.3,0.4,0.4,0.6c0.2,0.2,0.2,0.5,0,0.4l-1-0.5
			c-1,0.9-2.1,1.9-3.1,2.8c-0.2,0.2-0.4,0.8-0.4,1.1l0.6,0.9c-0.2,0.2-0.6,0.4-0.6,0.7c0,0.2,0,1.6,0,1.8c0.1,0.2,1,1.2,1.2,1.3
			h-2.7c-0.2-0.7-0.3-1.3-0.9-1.8c-0.8,0-1.7,0-2.5,0c-0.1,0-0.2,0.1-0.3,0.1c-0.2,0.4-0.3,0.8-0.6,1.2c-0.5,0.5-1,0.5-1.6,0.5
			l-0.3-1.5c3.5-7.6,7.2-15,10.6-22.6c0.3-0.6,0.3-1.6,0.3-2.2c-0.4-0.3-0.8-0.5-1.2-0.7c-0.3-0.2-0.1-0.5,0.2-0.4l1.3,0.5
			c0.5-0.5,1.3-1.5,1.5-2.2c0-0.1,0.3-2.1,0.2-2.2c-1.9-0.4-3.7-0.6-5.6-0.9l-0.9,1.5h-2.1v2.7h2.1l0.3-0.9h0.9
			c0,0.4-0.1,1.2-0.3,1.6c-2.8,6.3-5.9,12.4-8.8,18.6c-0.1,0.3-0.3,1.7-0.3,1.9c-0.2-0.3-0.4-0.5-0.5-0.8
			c-4.2-7.1-8.4-14.3-12.5-21.5c3.8,0,7.6,0,11.4,0c0.5,0,0.5-0.2,0.7-0.4c0.2-1.6-0.1-2.8-1.6-3.1c-1.1-0.2-5,0-6.1,0.3l-1.5-1.2
			l-6.5-0.3c0-13.3,0-26.5-0.1-39.8c-2.6-7-5.7-13.9-7.9-21c-0.4-1.2-0.3-5.5-0.4-7c-0.9-0.6-1.8-1.1-2.4-1.9
			c-0.1-0.1-1.1-2.6-1.2-2.7c-3.1-8.6-6.4-17.1-9.5-25.8c-5.8-16.2-11.3-32.6-17.1-48.8c-0.2-0.6-0.8-1.4-1.2-1.8
			c-0.1,0.2-0.3,0.7-0.3,1c5.2,27.1,10.6,54.2,15.6,81.4c2.4,12.9,3.2,26.7,5.6,39.7c0.4,1.9,3.3,6.9,3.9,9.2
			c1.1,4.3,2.1,9.5,2.6,13.9c0.1,0.7-0.2,2.6-0.3,3.4l-5-0.3c0-4.3-0.1-8.4,0.3-12.7c-0.2-0.4-0.5-0.8-0.9-1.1
			c-0.1,0.1-0.2,0.2-0.3,0.3c-0.3,1.5-0.7,2.9-0.9,4.4c-0.3,2.8-0.3,5.7-0.6,8.6c-0.1,0.9-1.1,1.3-1.8,1.6c-0.1,1.2-0.2,2.5-0.3,3.7
			c0,0.4-0.1,0.9-0.2,0.5c-0.1-0.4-0.6-0.7-1-0.8l0.2-0.7c-0.3-0.4-0.8-0.9-1.2-1.1l-0.8,0.1c-0.1,0.2-0.2,0.4-0.2,0.6
			c0.4,0.6,0.9,1.4,1.7,1.6c0.2,0.6,0.2,0.9,0.7,1.4c0.1,0.1,0.2,0.1,0.3,0.1h0.6c0.1,0,0.2-0.1,0.3-0.1l0.4-0.4
			c0.8,1.2,1.1,1.3,0.9,2.8c0,0.3-0.3,0.8-0.3,1.2c-0.5,4.3-0.8,8.6-1.2,12.9c-1.1-0.9-2.3-1.9-3.4-2.8c-0.1-0.1-0.2-0.1-0.3-0.1
			h-0.6l-0.2,0.1c-0.2,0.3-0.3,0.7-0.5,1c-0.7,0-1.8-0.5-2.3-0.9l-0.6,0.9c-1.3,0-2.7,0-4,0c-0.4,0-1.6,2.2-1.9,2.7
			c0.2,0.6,0.3,0.9,0.9,1.2l-0.6,1.8c0.5,0.7,0.3,3.2,0.3,4.1l-3.3,1.5l0.3,1.5l0.5-0.7c0.1,0.2,0.2,0.3,0.3,0.5v1.6h-2.1l-0.9,1.2
			h-5.3v-3.6c0.7-0.6,1.4-2,2.1-2.3l-1.2-0.3c0-1.5-0.1-3.1,0-4.6c0-0.8,0.9-1,1.5-1.3l0.3-1.1l-0.9-0.1v-0.6l0.9-0.3l0.3-1.2
			c-0.8-0.7-1.4-0.6-2.4-0.6l-1.2-1.2c-0.4,1.9-0.6,3.5-1.2,5.3c0.4,0.1,0.9,0.5,0.9,0.9c-0.2,0.2-0.6,0.4-0.6,0.7
			c-0.2,3.3-0.4,6.6-0.6,9.9l-6.2,0.3c-0.7-0.9-1.6-1.3-2.6-0.6l-0.3-0.5c-1.5-0.2-2,0.6-3.3,1.1l-0.3-5.9c0.7,0.4,1.4,0.3,2.2,0.2
			c-0.4-0.7-0.6-1.1-1.4-1.3c-0.2,0-0.6-0.5-0.7-0.6c-0.1-0.2,0.3-0.3,0.4-0.4c0.8-0.1,1.8-0.6,2.3-1.2c0.4-0.5,0.4-1.3,0.4-1.9
			c0-0.2-0.3-0.4-0.4-0.5c-1,0.5-1.9,0.9-2.8,1.4c-0.8-4-1.7-8-2.3-12c-0.1-0.6,0-1.7-0.1-2.4c-0.2-1.2-0.8-2.4-1.1-3.6
			c-0.4-1.7,0.4-2.1-1.1-3.6c0.2-0.1,0.4-0.2,0.6-0.3l1,0.7l-0.3,0.6c0.2,0.1,0.8,0.4,1,0.2c0.6-0.3,1.3-0.3,1.9-0.6
			c0-2.1,0.1-4.3-0.9-6.3c-0.6-1.4-0.2-2.3-0.8-3.8c0-0.1,0.2-0.2,0.2-0.3c0.6-1,0.9-1.8,1.5-2.8c1-0.3,2.1-0.6,2.9-1.2
			c0.4-1.3,0.9-2.6,1.1-4c0.3-1.8,0.2-3.8,0.4-5.6c0.1-1.6,0.7-3.2,0.9-4.7c0.1-0.6-0.3-2.5-0.3-3.3c0.1-2.5,0.8-5.1,0.9-7.7
			c0-3.4,1.1-6.7,0.2-10.1c-0.6-2.5-3.5-8.1-4.9-10.7c-0.3-0.6-1.3-1.3-1.7-2.1c-0.9-1.8-0.9-3.1-2.8-4.3c-0.2-1.1-0.1-1.5-1-2.2
			c-0.4-0.3-1.2-0.4-1.7-0.4l-1.4,1.4l-4.1-0.9l-1.2,0.9c-0.7,0-2.5,0.1-3.1,0c-0.1,0-0.2-0.1-0.3-0.1c-0.6-0.5-0.7-1.4-1-2.1
			c-0.1-0.3-0.5-0.3-0.7-0.4l0.6-0.9c0-0.3-0.1-0.6-0.4-0.7c-0.9-0.3-1.7-0.5-2.5-0.9c-0.2-1-0.9-1.6-1.8-2.1c1-0.8,1.1-1.5,0.7-2.5
			c-0.6-1.2-1.7-2.3-2.6-3.3c-1.2-1.3-2.5-2.7-3.9-3.7c-1.2,0-2.3-0.3-3.4-0.6c-0.3-0.1-0.9,0-1.2,0.1c-0.2,0.1-1.9,1.2-2.1,1.3
			c-1.2,1.2-2.3,1.8-3.5,2.9c-0.7,0.6-1.3,1.6-1.6,2.5c1.1,1.3,0.8,3.3,0.9,4.9c0,0.2,0.6,1.2,0.6,1.5c0.1,1.1,0,2.3,0,3.4
			c-2,1.2-3.9,3-4.5,5.2c-2.9,11.7-5,24-7.6,35.8c-0.2,0.8-1,1.2-0.2,2.1c0.3,0.3,0.5,0.4,0.9,0.4l0.3-0.2c0,0,0.9,1.3,1,1.5
			c0.5,5,1.4,10.7,1.5,15.7c0,0.1,0.3,0.8,0.3,0.9c-0.3,2.2-0.5,4.4-0.6,6.6c0.9,0,1.5,0.3,2.1-0.6l0.5,0.4
			c-0.6,0.4-1.1,0.7-1.5,1.3c-0.7,0.9-1.2,2.1-1.7,3.1l5.3,3.8v11.5l0.9,0.3v1.2h-0.6v2.7l2.6,0.9c0.2,0.1-0.2,0.5-0.2,0.7
			c-0.8,0.4-1.6,1.3-2,2.1c-0.5,1.1-0.4,2.1-0.4,3.2h-0.6c0.1,0.1,0-0.2,0-0.3c0.2-3.6-0.4-7.9-0.6-11.7c-1-1.3-2.4-1.1-3.9-0.7
			v-1.1l-3.8,0.3l-0.6,0.9c-2.3-0.1-4.7,0.2-6.9-0.4c-2-0.5-5.7-2.6-7.8-3.5c-0.1-1.1-0.1-2.3-0.9-3.2c-1.2,0.2-1.2,1.1-1.2,2.1
			c-0.5-0.3-0.8-0.5-1.4-0.6c-0.7-0.1-1.8-0.1-2.5,0l-0.3,0.9c-3,1.4-6,2.8-9,4.1c-0.4,0.2-1.2,0.1-1.6,0v-0.8
			c-0.4-0.2-0.9-0.3-1.3-0.3c-0.1,0-1.2,0.5-1.3,0.6v2h-4.4l-2.7,2.7v1.5l0.6,0.3v0.9c-2.3,0.2-3.4-0.8-5.3-1.7l-0.3-1
			c1.3,0.1,2.3,0.1,3.1-1c0.1-0.1,0.1-0.2,0.1-0.3c0.2-0.8,0.2-2.8-0.7-3c-0.8-0.2-1.7-0.1-2.5-0.1l-1.2-18.1
			c-0.2-0.1-0.5-0.2-0.7-0.2c-0.6-0.2-0.7-0.2-0.7,0.4c-0.2,5.8-0.1,11.7-0.6,17.5c-0.1,1.3-0.7,1.7-0.6,3.4c0,0.2-0.3-0.3-0.5-0.4
			c-0.2-0.6-0.4-1.2-1.1-1.4c-1.5,0.4-3,1-4.6,1.1c-1.8,0.2-3.7,0-5.5,0l-1.5-2.7h-3.3c-0.4-2-0.9-4.1-1.5-6.1c-0.3-1-0.8-2.4-1.6-3
			c-1.2-0.9-2.7-2-4.1-2.5c-0.4-0.2-2.8,0.3-3.3,0.3c-0.6,0-1.6-0.1-2.2-0.3c-0.6-5.7-0.9-11.4-1.8-17c-0.2-1.1-1-2-1.5-3
			c0-1.3,0-2.6,0-3.8c0-0.2,0.4-0.6,0.6-0.7v-4.2l1.8,0.6c0.6-0.4,1.2-0.6,1.9-0.9c0.5-0.2,0.8,0.5,1.2,0.6c0.7,0.2,1.5,0.3,2.2,0.3
			l0.6-0.9c0.8-0.2,1.7-0.4,2.5-0.6c0.3-0.1,1-0.7,1-1.1c0.1-1.5-0.2-3,0.3-4.4c0-0.1,0.1-0.2,0.2-0.3c0.4-0.4,0.9-0.7,1.3-1.1
			c0-1.1,0.3-2.9-1.4-2.9c-0.8,0.6-0.7,1.4-0.7,2.3l-0.9,0.6c-0.2,1.3-0.6,1.6-1.5,2.6c0.2-1.8,0.5-3,0.9-4.7h0.6l0.6-1.2l-0.9-0.6
			l0.9-0.6v-4.7l-0.9-0.9l0.9-0.3c0.3-0.6,0.6-1.8,0.6-2.5c0-0.1-0.7-2-0.8-2.1c-0.4-0.6-1.2-1.1-1.3-1.8c-2-18.3-3.3-36.7-5.3-55.1
			c-0.1-1.2-0.8-2.6-1.9-3.1c-3.7-1.7-7.6-3-11.4-4.5c-0.2-1.4-0.3-2.9-0.7-4.3c-0.2-0.8-1.1-1.1-1.8-1.4c0.7-0.5,1.9-1.8,1.6-2.8
			c-0.1-0.4-1.3-1.5-1.6-1.8c-0.7-0.6-1.7-0.9-2.7-0.6c-0.2,0-1,0.8-1.1,0.9c-0.1,0.2-0.5,1.2-0.5,1.5c-0.1,1.8-0.2,3.6-0.3,5.5
			c-4.1-1.2-8.2-2.5-12.2-3.8c-0.9-0.3-3.1,1-4,1.5c0,3.2-0.4,6.4-0.3,9.6c0,0.2,0.8,1.5,0.9,1.8c0.2,1.1,0.2,2.2,0.3,3.3
			c0,1.4-1.6,3.2-2.5,4.2c0.9,0.6,1.4,0.3,2.2-0.2c0.9,7.4,1.9,14.7,2.6,22.1c1.5,15,2.8,30,4.2,45c0.1,0.7,0.1,1.4,0.4,2.1
			c0.6,1.4,1.4,2.8,2,4.3l8,0.3l1.8-1.5l2.7,0.3l0.6,1.2l2.6-0.3c1.2,11.9,2.4,23.8,3.5,35.7c0.2,0.2,0.3,0.4,0.6,0.4v4.5l0.6,0.3
			l0.3,2.7l0.9,0.9c-1,1.5-0.6,1.7-1.1,3.1c0.2,0.2,0.5,0.4,0.5,0.7c0.1,1.6,0,3.3,0,4.9h0.5l0.4,0.7c-0.2,0.2-0.6,0.3-0.9,0.2
			l0.3,2c-1.3,0.4-3,0.9-4.3,1.3c-1.1,0.3-2.2,0.3-3.3,0.2c0.3-0.6,0.6-1,1.1-1.5c0-0.1-0.1-0.3-0.1-0.4c-0.4-0.5-0.6-0.7-1.2-0.7
			c-0.3,0-0.6,0.4-0.7,0.7c-0.1,0.6,0.2,1.2,0.5,1.6h-1.7v-8.6h0.6v-1.2c-0.9-1.3-2-2-2.7-3.5h-1.2v0.6h-0.9l-0.6,0.9
			c-0.4,0.1-0.7,0.2-1.1,0.3c-0.2,0.3-0.7,0.8-0.7,1.1c0,0.2-0.1,0.6,0,0.7l-0.7,0.4c0,0.2,0.4,0.9,0.7,0.4c0.1,0.6,0.1,1.5-0.2,2
			c0,0.1-0.4,0.3-0.5,0.4c0.5,0.6,0.6,1.4,0.7,2.2c0.7-0.1,1-0.4,1.3-1c0.1-0.2,0.2,0.4,0.2,0.6c0,0.5,0,1.1,0,1.6H65v-0.6
			c-1.5,0-3.1,0-4.6,0c-0.3,0-0.8,0.6-0.9,0.9l-0.4-0.9h-0.9v-0.9c-0.2,0.1-0.4,0.3-0.7,0.4l-0.2,0.4c-0.9,0-1.9-0.1-2.8,0
			c-0.6,0.1-2,0.4-2.5,0.6v0.6c-1.2,0.4-2.4,0.3-3.7,0.3c-0.4,0-0.9,0.4-1.1,0.6c-0.1-0.2-0.2-0.3-0.2-0.5c-0.1-0.2,0.1-0.9,0.1-1.1
			c0.6,0.2,1.5-0.4,1.9-0.9c0-1.3-0.2-2,0.4-3.2c-0.3-0.1-0.8-0.7-0.7-1.1H46l-0.2,0.6c-0.4-0.2-0.8-0.5-0.7-1
			c0.2-0.9,0.9-1.7,1.5-2.3c0.6,0.1,0.9,0.1,1.3-0.4c0.2-0.3,0.2-0.7,0.1-1c0.5-0.4,1-0.8,1.2-1.3c0.1-0.3,0.5-1.8,0.5-2.1
			c0-0.3,0.1-0.4,0-0.7c-0.4-0.4-0.8-1-1.5-1c-0.4,0-0.8-0.2-0.4-0.3l0.7-0.2c0-0.8,0-1.7,0-2.5c0-0.6-1.1-0.8-1.5-0.7v-0.6h1v-1.8
			c-0.6,0.2-1-0.2-1.3-0.7c-0.5-0.7-0.8-1.7-0.8-2.6c-0.4-0.1-0.7-0.4-0.8-0.8h-0.7c0,0.3-0.3,0.5-0.5,0.6c-0.1-0.8-0.1-1.6-0.3-2.3
			c-0.1-0.4-1.1-0.9-1.5-1c-0.2-0.9-0.1-1.7-1.2-1.8l-0.3-0.9l-0.9-0.3c-0.2-0.8-0.4-1.1-0.9-1.7l-3.5,3.2c0,0.6,0.1,1.1-0.1,1.6
			c0,0.2-0.7,1.2-0.9,1.3h-0.4c-0.8,0.7-0.7,1.4-0.7,2.4h0.6v0.6c0,0.1-0.1,0-0.1,0h-0.4v1.8c1,0.5,1.3,1.3,1.2,2.3H33l-3,3.8
			l0.6,3.6l1.2,0.6l-0.3,2.3c-0.7,0.1-2.5,0-3.1-0.4c-1.2-0.6-2.8-2-4-2.8c-1.4,0.5-2.7,1-3.9,1.8c-0.2-0.1-0.5-0.1-0.7-0.2
			s0.4-0.3,0.5-0.6c0.7-2.8,1.1-5.7,1.8-8.6c0.6-2.8,1.5-5.9,2.4-8.6c0.3-1,0.3-2.4,0.3-3.5c-0.2,0.2-0.5,0.3-0.7,0.6
			c-1.1,1.7-2.2,3.4-2.9,5.3c-1.8,5.2-2.8,11-4.1,16.4c-1.8,0.5-3.5,0.9-5.3,1.2c-0.4-1.1-0.8-2-0.2-3.1c-0.5-0.2-1.4-0.4-1.6-0.9
			c-1.9-4.2-3.7-8.3-5.5-12.4c-0.1-5.4-0.1-10.8-0.1-16.1h-2L0.7,285c0.7-0.5,2.6-1.6,3.5-1.9l0.3-2.9l1.8-0.6L6,277.2l-1.5-1.5
			v-5.3h2.4c-0.1-0.7-0.3-1.5-0.3-2.2c0.1-1.5,0.5-2.9,0.3-4.4c0-0.3-0.6-1.2-0.6-1.5c-0.1-2.6,0-5.1,0-7.7c0-0.2-0.4-0.6-0.6-0.7
			c0-2.3,0.2-4.7,0-7c-0.1-0.7-0.6-1.8-0.6-2.7c0-2.6,0-4.8,0-7.4c0-1.4-0.6-3.1-0.6-4.7c-0.1-4.9-0.2-9.7-0.3-14.6
			c0.4-0.4,0.9-1.1,1.5-1.2c0-2.5,0.2-5,0-7.6c0-0.4-0.8-1.8-0.8-2.4c0-0.4,0.2-1.6,0.2-2.1c0-0.4-0.6-1.6-0.6-2.1
			c-0.2-20.1,0-40.2,0-60.3c0.8-0.2,1.4-1.5,1.5-2.2c1-7.5,1.6-15.1,2.4-22.6l3.5-0.3c-1.8,9-3.7,18-5.3,27.1
			c-0.3,1.5-0.2,3.7-0.3,5.3c0,0.1,0,0.2,0,0.3c0,0.3,0,0.7,0.1,0.4l9.3-33.7l4.1-0.3L15.4,135l1.2-0.2l6.5-18.6
			c19.3-0.1,38.6-0.3,57.9,0.2c4.6,0.1,10.2,1.5,14.8,2.1c2.1,0.3,4.9,0.4,7.1,0.3c0.1,0,1-0.5,1.2-0.6c0.3-0.1,1-0.1,1.4,0l0.6,0.8
			l3.8,0.3c1,0.7,1.4,0.7,1.2,1.9c-0.1,0.8-0.8,1.8-1.2,2.5c0.7,0.1,1.4,0,1.9,0.4c2.1,1.3,4.6,3,6.5,4.5
			c5.5,4.2,10.4,9.6,14.1,15.5v4.7c-0.5,0-1,0.1-1.3,0.4c0.1,0.6,0.2,1.5,1,1.6l-0.3,8.3h0.9c0.7-1.3,1.3-2.6,2.3-3.7
			c0.5-0.6,1-1.1,1.6-1.6c0.7,2.7,1.6,5.4,2,8.1c0.4,2.1,0.6,4.4,0.6,6.5c0.1,13.3-0.2,26.8-0.3,40.1c-0.6,0.5-0.7,0.7-0.8,1.3
			c-0.1,0.3,0,0.6,0.2,0.9c0.2,0.3,0.6,0.6,0.9,0.7l0.3,2.8l0.6-0.1c2.4-10.8,4.6-21.5,6.8-32.3l2.1-0.6v-2.4
			c-0.3-0.3-0.7-0.6-0.9-1c0-0.1,0-0.5,0-0.6c0.9-4.3,1.6-8.7,2.7-13c2.3-9.7,5.3-19.3,7.3-29c1.3-6,1.8-13.2,2.7-19.4
			c5.8,0,11.6,0.3,17.3,0s12-1.6,17.8-2.1c5.5-0.4,11.4-0.6,16.9-0.6c0.1,0,0.2,0,0.3,0c0.4,0,0.8,0.1,0.5,0.2
			c-0.8,0.2-1.3,0.3-1.9,0.9c-0.4,0.4,0.1,1,0.4,1.3c10.7,0.2,21.4,0.5,32.1,0.6c0.3,0,0.9,0.1,1.2,0.3h9.3l0.3-0.6h26.9
			c0.8,2.2,1.3,4.5,2.3,6.7c0.3,0.6,1.3,1.6,1.7,2.4c0.6,1.1,0.8,2.5,1.5,3.6c0.5,0.8,2.3,2,2.6,3c6.1,19.9,11.4,40.2,17.1,60.2
			c0.4-0.1,0.7-0.2,0.9-0.4c1.5-5.2,2.9-10.5,4.6-15.7c0.3-1,1.2-1.9,1.5-3c0.3-1,0.2-2.1,0-3.1c0.4-1,0.7-2.1,1-3.1
			c4.5-16.7,8.9-33.3,13.4-50l0.1-0.4c13,0,26-0.5,38.9,0c1.6,0.1,3.9,0.3,5.6,0.6c0.2,0,0.9,0.6,1.2,0.6c1.9,0.1,4.3-0.2,6.2-0.3
			c1.6-0.1,3.4,0.2,5,0.3c0.2,0,0.6,0.4,0.7,0.6c0.6,0,1.4,0.1,2-0.3c0.1,0,0.4-0.3,0.4-0.3l-0.3-1.2h27.8c-0.4,0.7-0.8,1.1-0.6,1.9
			c0.1,0.4,0.7,0.7,1,0.7c0.1,0,0.8-0.4,1-0.5c0.1-0.4,0-0.7-0.1-1.1l-0.4-0.4h0.9l0.3-0.6H475l0.3-1.5c3.5,0.2,6.9,0.7,10.5,0.9
			c0.5,0.3,1.3,0.4,1.6,0.7c0.4,1.3,0.7,2.4,0.9,3.8c0.4,0.3,1,0.7,1.5,0.8l0.3-4.6h4.1l0.3,7.1c1.2,0.8,2,1.9,2.9,3h-2.3
			c-0.3,0.4-0.6,1.1-0.6,1.6c-0.1,3.9-0.5,9.5,0.3,13.3c0.2,1.1,0.8,2.3,1.4,3.3c0.6,0.8,2.7,2.2,3.6,3.1
			c-2.7,6.2-5.5,12.2-8.4,18.3c-0.5,0.3-0.4,0.7-0.6,1c-0.1,0.1-0.1-0.3-0.1-0.4c-0.1-0.2-0.2-0.3-0.4-0.5c-0.1,0.1-0.3,0.2-0.4,0.4
			c-10.9,23.7-21.7,47.4-32.2,71.2c-0.2,0-0.4,0-0.6-0.1c0,0-0.7-0.4-0.7-0.5l-2.1,1.5l1.8,2.1l-18.1,40h-0.9c-1.3,3-2.6,6-3.8,9
			c-0.3,0.7-0.5,1.6-0.6,2.4c0,0.4,0.4,0.7,0.7,0.7c16.9,0.3,33.9,0.2,50.8,0.3c0.1-0.5,0.2-1.1,0.3-1.6c0.1-0.6,0.1-0.5,0.8-0.4
			l1.6,0.3l0.3,1.8c1.1,0,2,0,3-0.6c0.8,0.6,2.1,0.3,2.9,0.3v5c-1.5,0.2-3.1,0.4-4.6,0.6c-0.3,0-0.7,0.5-0.8,0.8
			c-0.2,1.3-0.2,2.7-0.3,4c-4.1-1.9-8.2-4-12.3-5.8c-0.4-0.2-1-0.3-1.5-0.3c-0.4,0.2-0.2,0-0.6,0.4c-3.6,3.9-7.3,7.7-11,11.5
			c-0.3,0.3-0.9,0.6-1.3,0.7l-0.6-0.6c0.6-0.7,1.2-1,1.9-1.4c0.3-0.2,0.6-0.9,0.7-1.3c-2.7,0.4-5.5,0.3-8.2,0.3l-0.9-1.2
			c-0.9,0.1-1.4,1.1-1.2,1.9c0.3,1.1,0.7,2.1,0.9,3.3c0.1,1.1,0,2.3,0,3.4c-0.5,0-1.2-0.1-1.7,0.3l0.2,0.7c0.7,0.2,0.9,0.1,1.5-0.1
			v3.3c-2.4,2.7-4.9,5.4-7.2,8.1c0,0.1-0.2,0.4-0.2,0.5c0.4,1.2,0.5,2.1,0.8,3.2c-0.2,0-0.7,0-0.9-0.1c-0.7-0.4-1.7-0.9-1.9-1.8
			c0-0.2,0.1-0.5,0.3-0.7l-1.2-1.8h-2l-0.4,3.3c-0.9,0.8-1.8,1.6-2.8,2.3c-0.6-0.4-1.4-0.3-2.1-0.3c0.1,0.6-0.1,0.8-0.5,1.2l0.3,0.6
			l-6.2,0.3l-0.3,0.6L428.1,333.4z M458.3,205.3c0.5-0.1,1.1-0.3,1.4-0.8c0-0.2,0.1-0.7,0-0.8c-0.1-0.4-0.2-0.7-0.3-1l-1.1-0.3
			C458,203.2,457.7,204.5,458.3,205.3 M480.3,165.6h0.9v-0.4c-0.3-0.3-0.4-0.5-0.9-0.5c-0.1,0.1-0.3,0.3-0.4,0.4
			C479.5,165.5,479.8,165.6,480.3,165.6 M224.4,255.9h1.2v-1.3C224.9,254.6,224.6,255.3,224.4,255.9 M110.3,150c0.1,0,0.1,0,0.2,0.1
			l0.2-0.2c0-0.3,0-0.5,0-0.8h-0.9C109.9,149.3,110,149.9,110.3,150 M327.9,137.3c0.4,0.2,1,0.4,1.4,0.1c0.9-0.8,1.3-1.2,0.7-2.4
			c-0.7,0.2-2.1,0.4-2.4,1.1C327.4,136.6,327.5,137.1,327.9,137.3 M48.2,195.8c0.1,0,0.1,0,0.2,0c0.7-0.5,0.6-1.3,0.6-2.1
			c-0.3-0.2-0.7-0.2-1.1-0.2l-0.3,1l-0.6,0.2c0.1,0.2,0.2,0.5,0.2,0.7C47.5,195.6,47.8,195.7,48.2,195.8 M375.8,120
			c0.2-0.1,0.3-0.1,0.5-0.2l0.2-0.3c-0.2-0.1-0.4-0.3-0.7-0.3c-0.3,0-0.7,0.1-0.7,0.4C375.2,120.2,375.3,120.2,375.8,120 M210.4,124
			c0.1,0.1,0.3,0.1,0.5,0.1l0.3-0.4v-0.6c-0.1-0.5-0.8-0.9-1.3-1c-0.3,0-0.6,0.1-0.7,0.5C209.5,123.1,209.9,123.6,210.4,124
			 M330.5,126.9c0.3,0.2,1.5,0.3,1.9,0.3l0.2-0.7c0.2,0.2,0.4,0.4,0.6,0.6c0.6-0.4,1.2-1,1.4-1.7c0.1-0.4-0.1-0.9-0.4-1.1
			s-1.4-0.4-1.8-0.3c-1.4,0.5-1.6,0.8-2.3,2.2C330.1,126.5,330.2,126.6,330.5,126.9 M385.9,132.6c0.2-0.1,0.4-0.3,0.5-0.6
			c0.1-0.8,0.1-1.9-0.3-2.7c-0.4-0.9-1.1-1.6-2.1-1.3c-0.2,1.2-0.3,2.5,0.1,3.7C384.3,132.5,385,133,385.9,132.6 M114.3,131.4
			c0.5,0.3,0.9,0.5,1.5,0.7c0.3-0.5,0.7-1,0.6-1.7c-0.1-0.1-1.2-0.6-1.3-0.6c-0.4,0-0.7,0.1-1,0.3
			C114.1,130.6,114.2,131,114.3,131.4 M151.4,174.1l0.9,0.3c0.3-0.2,0.4-0.4,0.4-0.7c-0.1-0.2-0.2-0.4-0.2-0.6L151.4,174.1z
			 M246.2,274.9c0.2,0.2,0.4,0.5,0.6,0.7c0.1-0.1,0.5-0.1,0.4-0.3l-0.3-1.1l0.5,0.1c0-1.3-0.7-1.5-1.9-1.7c0.3,0.8,0.2,1.6,0.2,2.4
			C245.8,275.1,246,275,246.2,274.9 M465.8,177c0,0.1,0.1,0.3,0.1,0.4c1.5-0.6,1.6-1.3,1.5-2.9l-0.9-0.1l-0.9,0.6
			C465.6,175.8,465.6,176.4,465.8,177 M210.7,227.2c0.8,0.1,1.6,0,2.3-0.5c-0.2-0.9-0.5-2-1-2.7c-0.9,0.1-2.1,0.2-2.6,1
			c-0.2,0.4-0.4,1.1-0.1,1.5C209.5,226.9,210.1,227.1,210.7,227.2 M285.5,249.9c0.4,0.1,0.7-0.2,1-0.5l-0.3-1.2h-0.9l-0.6,1.2
			C285,249.6,285.3,249.9,285.5,249.9 M17.3,293.1c0,0.1,0,0.3-0.1,0.4l1.2-0.6v-0.6l-0.8-0.3C17.5,292.4,17.4,292.7,17.3,293.1
			 M232.9,254.9c0.9,0.4,1.6,0.5,2.6,0.4c-0.1-0.5-0.4-1.1-0.7-1.4h-1.2L232.9,254.9z M231.8,256.5l0.6,0.8c0.6-0.2,0.7-0.6,0.9-1.1
			C232.7,255.9,232.2,255.9,231.8,256.5 M42.7,268.4c0.6,0.2,1.6,0.7,2.2,0.5c1.5-0.4,1.7-1.6,1.9-3.2c-0.4-0.1-2.1,0.3-2.5,0.5
			C43.5,266.7,43,267.5,42.7,268.4 M61,278.7h1.3c0.3-0.2,0.5-0.5,0.7-0.9c-0.1-0.8-0.5-1-1.2-1.2l-0.9,0.6
			C61,277.7,61,278.2,61,278.7 M316,293.7c0,0,0.1,0,0.1,0.1l0.9-0.6l-0.3-0.8c0.2-0.2,0.5-0.2,0.8-0.1c0.1-0.4,0-0.7-0.1-1.1
			c-0.3-0.2-0.6-0.3-0.9-0.4c-0.1,0-0.3,0.1-0.4,0.1v0.5c0.2,0.4-0.4,1.6-0.6,1.9C315.7,293.6,315.9,293.6,316,293.7 M226.7,268.4
			l1.1-0.3c0.4-0.3,0.2-0.9,1-1.4v-1.5c0-0.6,0.2-0.7-0.4-0.7h-1.3v1.5C226.3,266.6,226,267.6,226.7,268.4 M226.3,270.1
			c0.1,0.1,0.2,0.1,0.3,0.2l0.7-0.5l-0.6-0.7l-0.9,0.8C226,270,226.2,270,226.3,270.1 M225.5,274.4c0.1,0.1,0.3,0.1,0.4,0.2
			c0.1-1,0.1-1.7-0.6-2.4c-0.7,0.2-1.3,0.3-1.7,0.9c0,0.3,0.1,0.8,0.4,0.9C224.4,274.1,225,274.3,225.5,274.4 M478.5,294.2
			c0.1,0,0.3,0.1,0.3,0v-0.4h-0.9v0.4H478.5z M226.2,280.8c0.5,0.3,1.3,0.6,1.9,0.4c0.4-0.1,1.1-0.6,1.4-0.9c0.7-1,0.7-2.1-0.2-3
			c-0.3-0.3-1.1-0.7-1.5-0.7c-0.5,0.1-1.6,0.5-1.7,1c-0.2,0.7-0.4,1.2-0.4,1.9c0.3,0,0.6,0.2,0.8,0.4
			C226.3,280.3,226.3,280.6,226.2,280.8 M449.5,317.3c0.2,0.1,0.3,0.1,0.5,0.2l-0.6-2.3c-0.5-0.5-0.8-0.5-1.5-0.4L447,313l-0.9,0.9
			l0.3,1.2h0.9v1.2C448,316.7,448.8,317,449.5,317.3 M10.2,292.3l1.1-0.6c-0.1-0.8-0.2-1.1-0.6-1.8l-0.9,0.3
			c0.1,0.5,0.2,1.1,0.2,1.6C10.1,292,10.1,292.2,10.2,292.3 M226.9,318.4h0.6c0.2-0.1,0.4-0.2,0.6-0.3l-0.9-0.6h-0.4l-0.2,0.7
			C226.7,318.3,226.8,318.3,226.9,318.4 M6.5,291.6c0.4,0.2,1,0.4,1.5,0.3l-0.7-1L6.5,291.6z M298.3,298.2c0.1,0,0.8-0.1,0.9-0.1
			l0.4-0.1l0.3-1.2l-0.6-0.9h-0.9c-0.1-0.9-0.4-1.4-1.4-1.5c-0.6,0.7-0.4,1.8-0.4,2.6C297.2,297.4,297.7,297.8,298.3,298.2
			 M219.2,301.6c0.1,0,0.2,0,0.2,0.1l0.2-0.3c0.1-0.2,0.1-0.4,0.2-0.6c-0.1-0.5-0.4-0.8-0.6-1.2c-0.4-0.2-0.8-0.4-1.3-0.4
			c-0.3,0-0.6,0.4-0.7,0.6l0.6,1.5C218.3,301.3,218.8,301.5,219.2,301.6 M300.6,295.3c0.3-0.1,0.7-0.2,1-0.3
			c0.3-0.4-0.3-0.8-0.6-0.9c-0.4,0.5-0.8,0.8-1.5,0.9l0.7,0.3C300.4,295.3,300.5,295.3,300.6,295.3 M220.1,312.2
			c0.1,0,0.6,0.2,0.7,0.2c1.1-1.1,1.1-2.8,0.3-4.1l-0.4,0.2c-0.4,0.1-0.7,0.1-1-0.1c-0.3,1.2-0.4,2.5,0.3,3.6
			C220,312.1,220.1,312.1,220.1,312.2 M313.4,300.3c0.3-0.1,0.5-0.2,0.8-0.4c0.2-0.4,0.4-0.8,0.6-1.2c-0.9-0.2-0.9-0.2-1.8,0.2
			l-0.3,1.1C312.4,300.6,312.8,300.4,313.4,300.3 M14.4,298.1c0.1,0.1,0.1,0.1,0.2,0.2l0.4-0.4l-0.4-0.4c-0.1-0.1-0.1-0.1-0.2-0.2
			l-0.4,0.4C14.2,297.9,14.3,298,14.4,298.1 M462,297.2l1.9,0.8c0.1-0.4,0.1-0.7-0.1-1c-0.2-0.4-0.6-0.8-0.9-0.9L462,297.2z
			 M225.8,299.5c0.1,0.2,0.1,0.4,0.2,0.6c0.2-0.2,0.7-0.8,0.5-1.1c-0.2-0.4-0.3-0.7-0.6-1l-0.5,0.4
			C225.5,298.7,225.6,299.1,225.8,299.5 M225.2,316.1c0.9,0,1.5-0.2,2.2-0.7c-0.3-0.5-0.7-0.8-1.2-1.1l-2.4,0.9
			C224.1,315.5,224.6,316.1,225.2,316.1 M221.6,307l1.3,0.7c0.8-0.6,1.1-1.3,0.8-2.3c-0.3-0.1-0.7,0.2-1,0.2
			C222.2,306,221.8,306.5,221.6,307 M240.8,317.5c0.2,0,0.4,0,0.6,0c-0.4-0.9-0.8-2-1-3h-0.9c-0.5,0.7-0.3,1.6-0.3,2.4
			C239.7,317.2,240.2,317.4,240.8,317.5 M14.2,317c0,0.1,0.1,0.3,0.1,0.4l0.8-0.6v-2.1h-0.4c-0.3,0-0.5,0.1-0.7,0.2
			C13.8,315.9,13.9,316.2,14.2,317 M227.2,312.5c0.3,0.3,0.7,0.4,1.2,0.3c0.4-0.4,0.6-0.9,0.8-1.4c0.3-0.7,0.5-1.6-0.2-2.1
			c-0.1-0.1-0.2-0.2-0.3-0.3c-0.3-0.1-0.6-0.1-1-0.1c-0.8,0.6-1.4,1.4-1.9,2.2C226.1,311.5,226.9,312,227.2,312.5 M449.1,309.1
			c1.2,0.1,1.6,0,2.6-0.5c0.1-0.1,0.3-1.3,0.3-1.4c-0.2-1.2-0.6-2-1.9-2.5c-0.5-0.2-2.2-0.1-2.2,0.7c0,0.6,0,1.3,0,1.9l1.8,1.2
			L449.1,309.1z M10.8,311.9l1.1,0.3c0.2-0.3,0.4-0.7,0.3-1c-0.1-0.8-0.2-2-0.4-2.7c-0.3,0.1-1,0.4-1.1,0.7
			C10.4,310,10.3,311,10.8,311.9 M237.9,312.6c0.1,0,0.2,0,0.3,0.1c0.1-0.1,0.3-0.1,0.4-0.2v-0.9h-1.3
			C237.5,311.9,237.6,312.3,237.9,312.6 M218.5,314.8h2.2l-0.1-1.2c-0.8-0.4-1.5-0.2-2.4,0C218.3,314.1,218.4,314.4,218.5,314.8
			 M237.9,318.9c0.1,0.1,0.3,0.1,0.4,0.2l0.5-0.5c-0.1-0.3-0.4-0.8-0.6-1c-0.1,0-0.2,0-0.3-0.1c-0.1,0.1-0.2,0.1-0.3,0.2
			s-0.1,0.2-0.1,0.2v0.6c0,0.1,0.1,0.2,0.1,0.3C237.7,318.9,237.8,318.9,237.9,318.9 M245.8,312.7l1.3-0.4l-0.6-0.9
			c-0.1,0-0.2-0.1-0.3-0.1c-0.3,0.1-0.5,0.2-0.7,0.3C245.5,312,245.6,312.4,245.8,312.7 M236.7,317.3l1.2-1.3h0.7
			c0.1-0.9-0.1-1.6-1-1.7c-0.5,0.2-1.1,0.2-1.6,0.5c-0.1,0.2-0.4,0.9-0.4,1.1C235.7,316.5,236.1,317.1,236.7,317.3 M224.9,324.2
			c0.9,0.5,2.1,0.6,2.8-0.4c-0.1-0.8-0.4-1.6-0.8-2.3c0.7-0.6,0.9-1.1,1.1-1.9l-1.1-0.3c-0.2,0.1-2.5,2-2.6,2.2
			c-0.4,0.5-0.6,1.1-0.5,1.8C224.1,323.6,224.4,323.9,224.9,324.2 M220.2,324.5l1.4,0.4c0.1-0.1,0.6-0.1,0.4-0.2
			c-0.3-0.4-0.8-0.7-1.3-0.6C220.6,324.1,220.4,324.3,220.2,324.5 M238.2,322c0.2,0.1,0.4,0.2,0.5,0.3v-0.8
			c-0.3-0.3-0.7-0.6-1.1-0.4c-0.2,0.2-0.4,0.3-0.6,0.5l0.5,0.7C237.7,322.1,238,322,238.2,322 M433.2,330.6c0.1,0,0.1,0.1,0.2,0.1
			l0.9-0.6c-0.5-0.4-0.9-0.9-1.2-1.5l-1,0.7C432.4,329.8,432.8,330.3,433.2,330.6 M417.3,328.9c0.5,0.2,1.4,0.2,1.9,0.1
			c0.3-0.9,0.2-1.6-0.4-2.3h-1.4l-1.1,1.4C416.4,328.3,417,328.8,417.3,328.9"/>
		<path class="st0" d="M332.5,274.3c0-0.1,0-0.3,0-0.4c0.2-0.3,0.6-0.5,0.9-0.3c0.1,0.1,0.1,0.2,0.2,0.3l-0.2,0.4H332.5z"/>
		<path class="st0" d="M298.6,336.9c-0.3-0.2-0.2-0.6,0.1-0.5c0.8,0.2,1.2,0.4,1.8,0.9C299.7,337.4,299.3,337.4,298.6,336.9"/>
		<path class="st0" d="M130.1,322.3c-0.1-0.1-0.1-0.1-0.1-0.2c-0.1-0.3,0-0.9,0.1-1.1c0.2,0.2,0.4,0.3,0.7,0.5
			c0,0.1,0.1,0.2,0.1,0.3c0,0.3-0.2,0.5-0.4,0.7C130.3,322.4,130.2,322.3,130.1,322.3"/>
		<path class="st0" d="M265.7,303c-0.1-0.1-0.1-0.1-0.1-0.2c-0.1-0.9-0.1-1.6-0.3-2.5c0.4,0.2,0.7,0.4,0.9,0.7v2.2
			C266,303.2,265.9,303.1,265.7,303"/>
		<path class="st0" d="M38.7,298.2c-0.5-0.3-0.5-1.3-0.2-0.8c0.1,0.2,0.1-0.1,0.2,0l0.6,0.3l-0.3,0.7
			C38.9,298.3,38.8,298.3,38.7,298.2"/>
		<path class="st0" d="M325.9,326.6c-0.1-1-0.4-1.9-0.8-2.8c-0.8-1.7-1.5-3.4-2.4-5c-0.2-0.3-0.2-0.8,0-1.2c0.2-0.4,0.6-1.5,0.7-1.7
			c0.6,2,1.5,3.9,2.1,5.9c0.4,1.1-0.4,1.3,0.7,2.5h0.9c0.1-0.2,0.1-0.4,0.2-0.6c0.1-0.4,0.1,0.1,0.1,0.5v2.5L325.9,326.6
			L325.9,326.6z"/>
		<path class="st0" d="M495.7,298.2c-0.1-0.1-0.2-0.1-0.2-0.1c-0.1-0.4-0.2-0.8-0.3-1.2c0.3-0.2,0.5-0.4,0.8-0.4
			c0.7,0.4,0.2,1.4,0.1,2.1C495.9,298.4,495.8,298.3,495.7,298.2"/>
		<path class="st0" d="M455.3,315.5c0-1.4-0.1-2.2-0.3-3.6c-0.1-0.8,0.1-1.8,0.3-2.5h3.5l0.6,2.1l-1.4,1.4c-0.2-0.2-0.4-0.3-0.5-0.4
			c-0.6,0.2-1.1,0.5-1.6,0.9l0.3,0.8h0.8c-0.3,0.9-1,1.4-1.7,2L455.3,315.5L455.3,315.5z"/>
		<path class="st0" d="M152.3,315.3c0.4-0.3,0.8-0.6,1.3-0.8l0.5,0.2l-1,0.8c0.4-0.3,0.3-0.2,0.2-0.2H152.3z"/>
		<path class="st0" d="M379.4,313.9c-1.2-0.1-2.4-0.2-3.7-0.3c-0.2-1.2,0.1-1.2,0.6-2.2c0.1-0.2,0.1-0.9,0-1.2
			c0-0.1-0.1-0.2-0.2-0.3c-0.8-0.9-2-1.3-3.1-1.6c0-1.2-0.4-2.5,0.1-3.7c1.8-4.9,4.6-10.3,6.7-15.1c1.8,6.4,4.3,12.6,6.2,19
			c0,0.1-0.3,1.8-0.2,2.1c0.1,0.4,0.6,2.1,0.8,2.4c-1,0.3-2.1,0.4-3.1,0.4c-0.2,0-2.3-0.5-2.5-0.6L379.4,313.9
			C379.5,313.9,379.4,313.9,379.4,313.9"/>
		<path class="st0" d="M278.3,336.4c0-0.5,0-1,0-1.5l4.7-0.3v-1.5l-4.8-0.3c0.3-0.4,0.4-0.6,0.6-1v-0.6c0,0-0.1-0.2-0.1-0.3
			c-0.1-0.1-0.6-0.6-0.7-0.7l0.3-1c0.3,0.1,0.8,0.3,0.8,0.7c0.5-0.1,0.9-0.2,1.4-0.3c0.2,0,0.4-0.5,0.5-0.6c1.2,0.2,1.5,0.2,2.5,1
			c0.2,0.1,0.3,0.3,0.4,0.4v0.9h-2.7l0.3,0.9c1.7-0.4,3.7-0.8,5.4-0.9c0.5,0,1.4,0.1,1.9,0.3c0.3,0.5,0.2,0.8,0.1,1.3
			c-0.5,0.5-0.9,0.5-1.6,0.5l-0.6,0.9l0.9,0.6c-1.5,0.5-2.8,1.4-4.3,1.7C282.3,336.9,279.5,336.6,278.3,336.4"/>
		<path class="st0" d="M265.3,311.7c0-0.1,0.4-1.2,0.5-1.4c0.1,0.2,0.3,0.5,0.3,0.8c0,0.2,0,0.7-0.1,0.8L265.3,311.7L265.3,311.7"/>
		<path class="st0" d="M292,335.5c-0.1-0.1-0.2-0.1-0.4-0.1c-0.2-0.1-0.1-0.2,0.1-0.3l0.5-0.3l0.4,0.6c0.1,0.1-0.3,0.1-0.4,0.2
			C292.3,335.5,292.1,335.5,292,335.5"/>
		<path class="st0" d="M89.3,321.2c-0.4,0.4-0.6,0.7-0.7,0.2c0-0.1,0-0.6,0-0.7c0.3-0.2,0.2-0.4,0.7-0.4c0.2,0,0.5,0,0.7,0
			C89.8,320.5,89.6,320.8,89.3,321.2"/>
		<path class="st0" d="M5.2,316.6c-0.1-0.1-0.2-0.1-0.3-0.1l-0.6-0.6c0,0-0.1-0.2-0.1-0.3c-0.1-1.7-0.9-3.4,1.2-4.3
			c1,1.3,1.4,1.7,1.2,3.4H5.5v1.4l0.9,0.6H5.2V316.6z"/>
		<path class="st0" d="M387.9,313.3c-0.5,0-0.9,0-0.5-0.3s1-0.5,1.5-0.5C388.7,313,388.5,313.3,387.9,313.3"/>
		<path class="st0" d="M308.7,326.6c1.4-0.8,1.7-1.1,1.9-2.7h0.9v2.4L308.7,326.6z"/>
		<path class="st0" d="M95.7,319.2c-0.2-0.3-0.5-0.5-0.6-0.8c-2.6-0.5-4.4-1.2-6.8-2.1v-1.2H90l0.6,1.5l1.5,0.6l0.6-0.6h3l0.3-1.2
			c0.1-0.1,0.6-0.3,0.8-0.3c0.7-0.1,1.8-0.3,2.4,0.2c0.8,0.6,0.4,1.6,0,2.3c-0.1,0.1-1.1,0.8-1.2,0.8c-0.6,0.2-1.2,0.2-1.8,0.4
			C96,318.9,95.8,319.1,95.7,319.2"/>
		<path class="st0" d="M281.8,325.2c-0.8-0.6-1.7-1.1-2.7-1.5c-0.5-0.8-0.8-1.7-1.1-2.7c1-1.6,1.8-3.1,1.7-5
			c-0.5-0.6-1.1-1.2-1.8-1.5c-0.1-4.9-0.2-9.8-0.3-14.7c0-0.4,0-0.7,0-1.1c4.1,6.9,8,14,11.8,21.1c-0.5,0.1-1,0.2-1.4,0.5
			c-0.1,0.5-0.3,1-0.5,1.4c-0.1,0.2-1.8,1.9-2.1,2c-1.3,0.9-1.8,0.8-3.3,1.2C282.1,325.1,282,325.1,281.8,325.2"/>
		<path class="st0" d="M328.8,327.1c0-0.1-0.1-0.2-0.1-0.3c0.2-1.3,0.5-2.6,0.6-3.8c0.1-2.8,0-5.6,0.1-8.4c0-0.2,0.1,0.5,0.1,0.7
			c0.1,2.7,0.3,5.3,0.4,8c0,1.5-0.2,3.1-0.3,4.6C329.2,327.6,329,327.3,328.8,327.1"/>
		<path class="st0" d="M34.5,331.2c0-0.1-0.1-0.2-0.1-0.3c0-1.1,0-2.3,0-3.4l1.2-0.3c0-0.1,0.1-0.4,0.1-0.6c0.1-0.2,0.3-0.1,0.3,0.1
			l0.2,0.8l0.9,0.3l0.3,1.1l-1.8,0.6v1.3l-0.9,0.5L34.5,331.2z"/>
		<path class="st0" d="M129.5,328.5c0.1-0.5,0.2-1.1,0.4-1.6c0.1-0.2,0.2-0.2,0.3,0.1c0.2,0.7,0.2,1.6,0.1,2.4L129.5,328.5z"/>
		<path class="st0" d="M178.3,331.5c0.1-0.3,0.2-0.7,0.2-1l-0.8-0.4c0.6-0.2,1.1-0.7,1.5-1.2c0-0.6,0.4-1.6,0.3-2.1l0.8,0.1
			c-0.1,0.6-0.2,1.3-0.9,1.4c0,1.6,0.5,2.9-1.3,3.7C178.2,331.9,178.2,331.7,178.3,331.5"/>
		<path class="st0" d="M32.3,329.9c0.1-0.4,0.2-0.9,0.3-1.3c0-0.2-0.2-1.6-0.3-1.7h0.6c0.1,0.2,0.3,0.4,0.3,0.6c0.1,1,0,2.3,0,3.4
			L32.3,329.9z"/>
		<path class="st0" d="M191.4,330.8c-0.3,0-0.8-0.2-1-0.3l0.6-0.6v-7.5c0.6,0.3,1.3,0.9,1.8,1.5c0.4,0.4,0.5,1,0.5,1.5
			c0.1,1.6,0.1,3.5,0,5.1C192.7,330.6,192,330.7,191.4,330.8"/>
		<path class="st0" d="M294.7,330.1c-0.1-0.5-0.2-1-0.1-1.5l0.3-0.6c0.1-0.1,0.3,0,0.4,0c-0.3,0.5,0,1.4,0.2,2L294.7,330.1
			L294.7,330.1"/>
	</g>
	<rect x="227.3" y="356.4" width="47" height="47"/>
	<path d="M158.9,372.3c-1.4-2.3-3.4-4.1-5.9-5.3c-2.5-1.3-5.4-1.9-8.8-1.9h-13.4v30.6h13.4c3.3,0,6.2-0.6,8.8-1.9
		c2.5-1.3,4.5-3.1,5.9-5.4c1.4-2.3,2.1-5,2.1-8C161,377.3,160.3,374.6,158.9,372.3z M153.8,385.9c-0.9,1.6-2.2,2.8-3.9,3.7
		c-1.7,0.9-3.7,1.3-6,1.3h-7.4v-21h7.4c2.3,0,4.3,0.4,6,1.3c1.7,0.9,3,2.1,3.9,3.7c0.9,1.6,1.4,3.4,1.4,5.5
		C155.2,382.5,154.8,384.3,153.8,385.9z"/>
	<path d="M189.5,395.7h6l-13.8-30.6H176l-13.8,30.6h5.9l3-7.1h15.3L189.5,395.7z M173,384.2l5.7-13.4l5.8,13.4H173z"/>
	<polygon points="222.7,365.1 217.1,365.1 208.1,380 199.1,365.1 193,365.1 205,385 205,395.7 210.7,395.7 210.7,384.9 	"/>
	<polygon class="st1" points="245.6,390.9 263.6,368.9 263.6,365.1 238.4,365.1 238.4,369.9 256.1,369.9 238.1,391.9 238.1,395.7 
		264.2,395.7 264.2,390.9 	"/>
	<path d="M280.3,395.7v-30.6h13.4c3.3,0,6.2,0.6,8.8,1.9c2.5,1.3,4.5,3.1,5.9,5.3c1.4,2.3,2.1,5,2.1,8.1c0,3.1-0.7,5.7-2.1,8
		c-1.4,2.3-3.4,4.1-5.9,5.4c-2.5,1.3-5.4,1.9-8.8,1.9H280.3z M286,390.9h7.4c2.3,0,4.3-0.4,6-1.3c1.7-0.9,3-2.1,3.9-3.7
		c0.9-1.6,1.4-3.4,1.4-5.5c0-2.1-0.5-4-1.4-5.5c-0.9-1.6-2.2-2.8-3.9-3.7c-1.7-0.9-3.7-1.3-6-1.3H286V390.9z"/>
	<path d="M338.9,395.7h6l-13.8-30.6h-5.6l-13.8,30.6h5.9l3-7.1h15.3L338.9,395.7z M322.5,384.2l5.7-13.4l5.8,13.4H322.5z"/>
	<polygon points="372.2,365.1 366.6,365.1 357.5,380 348.5,365.1 342.4,365.1 354.5,385 354.5,395.7 360.2,395.7 360.2,384.9 	"/>
</g>
</svg>
