<?xml version="1.0" encoding="utf-8"?>
<!-- Generator: Adobe Illustrator 23.1.0, SVG Export Plug-In . SVG Version: 6.00 Build 0)  -->
<svg version="1.1" xmlns="http://www.w3.org/2000/svg" xmlns:xlink="http://www.w3.org/1999/xlink" x="0px" y="0px" width="80px"
	 height="24px" viewBox="0 0 80 24" style="enable-background:new 0 0 80 24;" xml:space="preserve">
<style type="text/css">
	.st0{fill:#1DBF73;}
</style>
<g id="Layer_1">
</g>
<g id="Layer_2">
	<g>
		<path class="st0" d="M13.8,0c0,0-3.3,0-4.2,0S3.6,0,3.6,7.2l-3,0v4.5h3v11.9h5.2l0-12h5v12h5.3V7.2c0,0-10.1,0-10.3,0
			c0-0.9-0.2-2.8,2-2.8l3.1,0L13.8,0z"/>
		<polygon class="st0" points="19.3,7.2 25.2,23.6 29.8,23.6 35.7,7.2 30.4,7.2 27.5,16.8 24.7,7.2 		"/>
		<path class="st0" d="M42.5,6.9c-5,0-8.1,3.8-8.1,8.5s3.3,8.2,7.8,8.4c4.2,0.2,7.2-2,8-4.5c0,0,0,0,0,0l-4.7-1.3
			c-0.7,1.6-2.1,1.6-2.8,1.6c-0.7,0-1.5-0.1-2.2-0.7c-0.8-0.6-1-2.1-1-2.1h10.9c0.1-0.1,0.1-0.3,0.1-0.6c0-0.3,0-0.5,0-0.8
			C50.6,10.6,47.8,6.9,42.5,6.9z M39.6,13.5c0,0,0-0.7,0.6-1.6c0.6-1,1.7-1.1,2.3-1.1c0.8,0,1.2,0,2,0.6c1,0.7,1,2,1,2H39.6z"/>
		<path class="st0" d="M51.8,7.2v16.4h5.3c0,0,0-7.3,0-8.2c0-0.9,0.1-2.2,0.9-3s1.8-0.7,2.3-0.7c0.5,0,1.8,0,1.8,0v12h5.3
			c0,0,0-7.9,0-8.6c0-0.7,0.2-1.9,0.8-2.5s1.2-0.9,2.2-0.9c1,0,2.6,0,2.6,0V7.2c0,0-0.4,0-1.6,0s-2.8,0.1-3.9,2.5V7.2
			c0,0-5.7,0-6.6,0S58,7.4,57.1,9.7V7.2H51.8z"/>
		<circle class="st0" cx="76.2" cy="20.7" r="3.3"/>
	</g>
</g>
</svg>
