<svg xmlns="http://www.w3.org/2000/svg" width="32" height="32" xmlns:v="https://vecta.io/nano"><path fill="#f7df1b" d="M0 0h32v32H0z"/><path fill="#010101" d="M21.496 25c.645 1.052 1.483 1.826 2.965 1.826 1.248 0 2.043-.623 2.043-1.483 0-1.03-.818-1.396-2.19-1.996l-.75-.322c-2.17-.925-3.61-2.082-3.61-4.53 0-2.255 1.718-3.972 4.403-3.972 1.912 0 3.286.666 4.277 2.408l-2.342 1.503c-.516-.924-1.072-1.29-1.936-1.29-.88 0-1.438.56-1.438 1.29 0 .9.558 1.268 1.848 1.826l.752.32c2.555 1.097 3.998 2.214 3.998 4.724 0 2.708-2.128 4.19-4.984 4.19-2.792 0-4.597-1.33-5.48-3.075L21.496 25zm-10.622.26c.473.837.902 1.546 1.935 1.546.988 0 1.61-.387 1.61-1.89V14.693h3.007V24.96c0 3.113-1.826 4.53-4.5 4.53-2.408 0-3.802-1.247-4.51-2.747l2.448-1.48z"/></svg>