<?xml version="1.0" encoding="utf-8"?>
<!-- Generator: Adobe Illustrator 12.0.1, SVG Export Plug-In  -->
<!DOCTYPE svg PUBLIC "-//W3C//DTD SVG 1.1//EN" "http://www.w3.org/Graphics/SVG/1.1/DTD/svg11.dtd" [
	<!ENTITY ns_flows "http://ns.adobe.com/Flows/1.0/">
	<!ENTITY ns_svg "http://www.w3.org/2000/svg">
	<!ENTITY ns_xlink "http://www.w3.org/1999/xlink">
]>
<svg  version="1.1" xmlns="&ns_svg;" xmlns:xlink="&ns_xlink;" xmlns:a="http://ns.adobe.com/AdobeSVGViewerExtensions/3.0/"
	 width="24" height="24" viewBox="0 0 24 24" enable-background="new 0 0 24 24" xml:space="preserve">
<defs>
</defs>
<path fill="#F7F8F8" d="M15.666,10.038c0-0.589-0.685-0.917-1.144-0.547C13.169,10.58,13.13,11.297,12,11.297
	s-1.156-0.708-2.521-1.806C9.02,9.122,8.335,9.449,8.335,10.038c0,2.323-1.655,2.771-1.655,5.462c0,0.227,0.109,0.439,0.294,0.572
	C7,16.09,7.076,16.146,7.086,16.35c0.151,3.156,1.641,4.496,0.456,5.72c-0.333,0.345-0.231,0.916,0.203,1.124
	C8.818,23.706,10.369,24,12,24c1.632,0,3.184-0.294,4.257-0.808c0.433-0.207,0.536-0.778,0.202-1.123
	c-1.185-1.224,0.304-2.564,0.456-5.721c0.01-0.203,0.086-0.259,0.111-0.276c0.185-0.133,0.294-0.346,0.294-0.572
	C17.32,12.814,15.666,12.356,15.666,10.038z"/>
<path fill="#E0E0E0" d="M15.666,10.038c0-0.589-0.685-0.917-1.144-0.547C13.169,10.58,13.13,11.297,12,11.297V24
	c1.632,0,3.184-0.294,4.257-0.808c0.433-0.207,0.536-0.778,0.202-1.123c-1.185-1.224,0.304-2.564,0.456-5.721
	c0.01-0.203,0.086-0.259,0.111-0.276c0.185-0.133,0.294-0.346,0.294-0.572C17.32,12.814,15.666,12.356,15.666,10.038z"/>
<path fill="#2A4B4A" d="M18.854,6.073C18.676,2.21,15.834,0,12,0C8.166,0,5.325,2.211,5.147,6.073
	c-0.215,4.688-3.46,6.798-1.453,11.244c0.298,0.659,2.271,1.048,2.108-0.576c-0.062-0.618,0.866-0.889,1.17-0.671
	c0.464,0.335,1.113,0.002,1.113-0.57c0-2.204,1.655-2.676,1.655-5.462c0-0.212-0.096-0.413-0.261-0.546
	C9.251,9.307,8.974,9.099,8.657,8.874c0.212-0.053,0.432-0.102,0.654-0.146c0.55-0.11,0.755-0.79,0.36-1.186
	C9.399,7.27,9.238,6.808,9.238,6.309c0-0.676,0.36-1.433,0.842-1.433s0.843,0.756,0.843,1.433c0,0.322-0.067,0.628-0.191,0.881
	c-0.594,0.396-0.282,1.335,0.436,1.287c0.547-0.036,1.079-0.038,1.664,0c0.717,0.047,1.03-0.891,0.436-1.287
	c-0.125-0.253-0.191-0.559-0.191-0.881c0-0.676,0.36-1.433,0.843-1.433s0.844,0.756,0.844,1.433c0,0.5-0.162,0.961-0.435,1.233
	c-0.395,0.397-0.188,1.076,0.36,1.186c0.222,0.044,0.442,0.094,0.654,0.146c-0.317,0.225-0.595,0.433-0.823,0.618
	c-0.165,0.133-0.261,0.334-0.261,0.546c0,2.797,1.654,3.247,1.654,5.462c0,0.572,0.649,0.905,1.113,0.57
	c0.305-0.219,1.231,0.053,1.17,0.671c-0.161,1.628,1.813,1.23,2.108,0.576C22.314,12.87,19.069,10.763,18.854,6.073z"/>
<path fill="#1D2323" d="M18.854,6.073C18.676,2.21,15.834,0,12,0v8.449c0.27,0,0.544,0.009,0.833,0.028
	c0.717,0.047,1.03-0.891,0.436-1.287c-0.125-0.253-0.191-0.559-0.191-0.881c0-0.676,0.36-1.433,0.843-1.433s0.843,0.756,0.843,1.433
	c0,0.5-0.162,0.961-0.434,1.233c-0.395,0.397-0.188,1.076,0.359,1.186c0.223,0.044,0.443,0.094,0.655,0.146
	c-0.317,0.225-0.595,0.433-0.823,0.618c-0.165,0.133-0.261,0.334-0.261,0.546c0,2.797,1.653,3.247,1.653,5.462
	c0,0.572,0.649,0.905,1.114,0.57c0.305-0.219,1.231,0.053,1.17,0.671c-0.161,1.628,1.813,1.23,2.108,0.576
	C22.314,12.87,19.069,10.763,18.854,6.073z"/>
<path fill="#F7F8F8" d="M13.92,3.47C13.098,3.47,12.392,4,12,4.81C11.608,4,10.903,3.47,10.08,3.47
	c-1.224,0-2.249,1.224-2.249,2.839c0,0.876,0.308,1.688,0.845,2.226c0.165,0.166,0.403,0.239,0.635,0.193
	c0.651-0.128,1.194-0.207,1.943-0.256c0.215-0.014,0.413-0.127,0.535-0.306C11.868,8.049,11.938,7.926,12,7.796
	c0.062,0.129,0.132,0.253,0.211,0.369c0.122,0.179,0.319,0.292,0.536,0.306c0.754,0.049,1.282,0.128,1.942,0.256
	c0.232,0.046,0.47-0.027,0.636-0.193c0.537-0.538,0.844-1.35,0.844-2.226C16.169,4.681,15.136,3.47,13.92,3.47z"/>
<path fill="#E0E0E0" d="M13.92,3.47C13.099,3.47,12.392,4,12,4.81v2.987c0.062,0.129,0.132,0.253,0.211,0.369
	c0.122,0.179,0.319,0.292,0.536,0.306c0.754,0.049,1.282,0.128,1.942,0.256c0.232,0.046,0.47-0.027,0.636-0.193
	c0.537-0.538,0.844-1.35,0.844-2.226C16.169,4.681,15.136,3.47,13.92,3.47z"/>
<path fill="#FFD664" d="M8.49,16.283c-0.074-1.564-1.729-2.114-3.033-1.362c-0.559,0.322-0.92,0.819-1.029,1.39
	c-0.591-0.223-1.607-0.52-2.417,0.291c-0.806,0.806-0.526,1.792-0.292,2.416C0.333,19.28-0.369,21,0.196,22.144
	c0.277,0.563,0.823,0.904,1.497,0.937c2.077,0.1,3.396,0.918,4.75,0.918c0.747,0,1.45-0.263,2.109-0.95
	C10.447,21.09,8.636,19.303,8.49,16.283z"/>
<path fill="#F79746" d="M22.28,19.018c0.234-0.624,0.515-1.61-0.291-2.416c-0.811-0.811-1.826-0.514-2.417-0.291
	c-0.108-0.57-0.471-1.067-1.029-1.39c-1.306-0.753-2.959-0.201-3.032,1.361c-0.146,3.048-1.984,4.82-0.016,6.813
	c0.682,0.682,1.366,0.903,2.063,0.903c1.354,0,2.674-0.818,4.749-0.918l0,0c0.675-0.032,1.221-0.374,1.499-0.937
	C24.365,21.006,23.673,19.281,22.28,19.018z"/>
<path fill="#FFD664" d="M15.685,7.509c-2.455-0.609-4.83-0.63-7.368,0c-1.167,0.289-1.454,1.819-0.472,2.512
	c0.923,0.654,1.182,0.924,1.623,1.396c0.592,0.632,1.203,1.286,2.533,1.286c1.33,0,1.942-0.653,2.533-1.286
	c0.431-0.46,0.69-0.736,1.623-1.396C17.138,9.327,16.852,7.798,15.685,7.509z"/>
<path fill="#F79746" d="M15.685,7.509C14.446,7.202,13.229,7.045,12,7.045v5.658c1.33,0,1.942-0.653,2.533-1.286
	c0.431-0.46,0.69-0.736,1.623-1.396C17.138,9.327,16.852,7.798,15.685,7.509z"/>
<circle fill="#1D2323" cx="14.022" cy="5.757" r="0.738"/>
<circle fill="#2A4B4A" cx="9.977" cy="5.757" r="0.738"/>
</svg>
