<?xml version="1.0" encoding="utf-8"?>
<!-- Generator: Adobe Illustrator 23.1.0, SVG Export Plug-In . SVG Version: 6.00 Build 0)  -->
<svg version="1.1" id="Layer_1" xmlns="http://www.w3.org/2000/svg" xmlns:xlink="http://www.w3.org/1999/xlink" x="0px" y="0px"
	 width="100px" height="100px" viewBox="0 0 100 100" style="enable-background:new 0 0 100 100;" xml:space="preserve">
<style type="text/css">
	.st0{fill:url(#SVGID_1_);}
</style>
<g>
	<linearGradient id="SVGID_1_" gradientUnits="userSpaceOnUse" x1="-20.3154" y1="108.3018" x2="76.8826" y2="10.0529">
		<stop  offset="4.926372e-02" style="stop-color:#45DDD1"/>
		<stop  offset="1" style="stop-color:#EC84EF"/>
	</linearGradient>
	<path class="st0" d="M3.4,0v53.7c0,0-0.1,15.2,13.8,15.2s17.1-11.1,17.1-16.8s0-19.4,0-21.5s-1.1-14-9.6-22.3C14.9-1.1,3.4,0,3.4,0
		z M34.2,96.8c0,0,13.5,6,28.9,1.5C78.5,93.7,85,88.1,90.8,77.7c6.2-11.1,5.8-13.2,5.8-44.8c0-12.6,0-32.8,0-32.8
		S79.8,1.3,71.7,12.3c-8.1,10.9-6.1,22.3-6.1,29.9S66,61.9,63.8,69c-3,9.3-7.6,14.3-13.9,19.3C43.1,93.7,34.2,96.8,34.2,96.8z"/>
</g>
</svg>
