<svg xmlns="http://www.w3.org/2000/svg" width="33" height="33" xmlns:v="https://vecta.io/nano"><circle fill="#6e65ad" cx="16.125" cy="16.125" r="16.125"/><path fill="#534da0" d="M25.523 8.15l-4.45-1.798-7.84 7.595L8.5 10.355l-1.796.898.023 9.49L18.1 32.13c7.97-.98 14.14-7.77 14.14-16.004a16.44 16.44 0 0 0-.052-1.3L25.523 8.15z"/><path fill="#fff" d="M25.523 8.15l-4.45-1.798-7.84 7.595L8.5 10.355l-1.796.898.023 9.49 1.796.9 4.736-3.594 7.838 7.596 4.45-1.798-.023-15.696zM8.972 18.01v-4.02l2.222 2h.024l-2.246 2zm11.656 1.338L16.16 16h-.023l4.492-3.347-.001 6.695z"/></svg>