<?xml version="1.0" encoding="utf-8"?>
<!-- Generator: Adobe Illustrator 23.1.0, SVG Export Plug-In . SVG Version: 6.00 Build 0)  -->
<svg version="1.1" id="Layer_1" xmlns="http://www.w3.org/2000/svg" xmlns:xlink="http://www.w3.org/1999/xlink" x="0px" y="0px"
	 viewBox="0 0 164 102" style="enable-background:new 0 0 164 102;" xml:space="preserve">
<style type="text/css">
	.st0{fill:none;stroke:#F5333F;stroke-width:10.188;}
	.st1{fill:none;stroke:#FFFFFF;stroke-width:8.829;}
	.st2{fill:#231F20;}
	.st3{fill:#F5333F;}
</style>
<path class="st0" d="M156.08,27.78c5.38,20-23.62,45.18-64.77,56.25C50.17,95.1,12.44,87.88,7.06,67.89
	C1.68,47.9,30.68,22.71,71.83,11.63C112.98,0.56,150.7,7.79,156.08,27.78z"/>
<path class="st1" d="M156.86,34.57c5.58,20.77-23.19,46.57-64.28,57.62C51.5,103.25,13.67,95.38,8.08,74.61
	C2.49,53.84,31.26,28.03,72.34,16.98C113.43,5.92,151.27,13.8,156.86,34.57z"/>
<path class="st2" d="M62.5,42.34c-1.7,2.06-4.27,3.52-8.18,3.52c-2.48,0-4.66-0.48-5.94-1.19l3.88-18.76
	c1.7-0.75,3.61-1.19,6.15-1.19c5.35,0,7.5,3.08,7.5,7.32C65.9,35.32,64.59,39.8,62.5,42.34 M58.11,27.85
	c-0.54,0-1.08,0.09-1.49,0.24l-2.93,14.22c0.3,0.12,0.78,0.21,1.34,0.21c1.67,0,2.9-0.75,3.94-2.57c1.16-2.06,2.21-6.27,2.21-8.66
	C61.18,28.96,60.23,27.85,58.11,27.85"/>
<path class="st2" d="M80.06,42.28c-1.49,2.21-3.76,3.58-6.81,3.58c-3.82,0-5.79-2.45-5.79-5.94c0-2.36,0.87-5.29,2.18-7.2
	c1.52-2.24,3.82-3.55,6.78-3.55c3.82,0,5.83,2.42,5.83,5.91C82.24,37.44,81.34,40.37,80.06,42.28 M76.03,32.06
	c-1.25,0-2.15,0.96-2.78,2.39c-0.69,1.52-1.28,4.27-1.28,5.91c0,1.37,0.42,2.33,1.73,2.33c1.28,0,2.12-0.9,2.75-2.33
	c0.66-1.52,1.32-4.3,1.32-5.94C77.76,33.05,77.31,32.06,76.03,32.06"/>
<path class="st2" d="M98.52,37.77l-9.83,1.34c-0.09,2.09,0.75,3.58,3.14,3.58c1.7,0,3.41-0.51,4.3-0.93l0.45,2.9
	c-1.32,0.66-3.41,1.19-5.79,1.19c-4.06,0-6.45-2.3-6.45-6.18c0-2.36,0.81-5.05,2.18-6.96c1.55-2.18,3.91-3.55,6.84-3.55
	c3.55,0,5.56,2.09,5.56,5.67C98.91,35.74,98.79,36.69,98.52,37.77 M92.78,31.88c-1.35,0-2.48,0.93-3.26,2.51
	c-0.33,0.69-0.6,1.52-0.78,2.48L94.57,36c0.15-0.6,0.21-1.13,0.21-1.64C94.78,32.75,94.07,31.88,92.78,31.88"/>
<path class="st3" d="M23.72,63.93h-2.18l-2.75-7.06c-0.26-0.66-0.42-1.32-0.42-1.32h-0.04c0,0-0.07,0.68-0.22,1.37l-1.45,7.01h-2.49
	l2.6-12.59h2.53l2.54,6.44c0.26,0.64,0.42,1.23,0.42,1.23h0.04c0,0,0.06-0.6,0.2-1.26l1.32-6.41h2.49L23.72,63.93z"/>
<path class="st3" d="M35.31,59.15l-6.02,0.82c-0.05,1.28,0.46,2.2,1.92,2.2c1.04,0,2.09-0.31,2.64-0.57l0.27,1.78
	c-0.81,0.4-2.09,0.73-3.55,0.73c-2.49,0-3.95-1.41-3.95-3.79c0-1.45,0.49-3.09,1.34-4.26c0.95-1.34,2.4-2.18,4.19-2.18
	c2.18,0,3.4,1.28,3.4,3.48C35.55,57.91,35.47,58.49,35.31,59.15 M31.79,55.55c-0.82,0-1.52,0.57-2,1.54
	c-0.2,0.42-0.37,0.93-0.48,1.52l3.57-0.53c0.09-0.37,0.13-0.69,0.13-1.01C33.02,56.08,32.58,55.55,31.79,55.55"/>
<path class="st3" d="M44.57,63.38c-0.9,0.42-2.12,0.73-3.83,0.73c-2.4,0-4.06-1.26-4.06-3.7c0-1.48,0.57-3.28,1.47-4.45
	c0.99-1.32,2.41-2.03,4.08-2.03c0.59,0,1.12,0.07,1.43,0.17l0.93-4.54h2.85L44.57,63.38z M42.59,55.53c-0.99,0-1.7,0.53-2.22,1.45
	c-0.51,0.91-0.88,2.38-0.88,3.44c0,1.21,0.46,1.89,1.54,1.89c0.4,0,0.73-0.06,0.95-0.17l1.35-6.5
	C43.1,55.56,42.89,55.53,42.59,55.53"/>
<path class="st3" d="M55.94,59.15l-6.02,0.82c-0.05,1.28,0.46,2.2,1.92,2.2c1.04,0,2.09-0.31,2.64-0.57l0.27,1.78
	c-0.81,0.4-2.09,0.73-3.55,0.73c-2.49,0-3.95-1.41-3.95-3.79c0-1.45,0.49-3.09,1.34-4.26c0.95-1.34,2.4-2.18,4.19-2.18
	c2.18,0,3.4,1.28,3.4,3.48C56.17,57.91,56.1,58.49,55.94,59.15 M52.42,55.55c-0.82,0-1.52,0.57-2,1.54
	c-0.2,0.42-0.37,0.93-0.48,1.52l3.57-0.53c0.09-0.37,0.13-0.69,0.13-1.01C53.65,56.08,53.21,55.55,52.42,55.55"/>
<path class="st3" d="M63.17,55.93c-0.68-0.26-1.41-0.27-1.89-0.07l-1.67,8.07h-2.85l1.94-9.32c1.02-0.44,2.45-0.73,4.23-0.73
	c0.48,0,0.79,0.02,1.17,0.06L63.17,55.93z"/>
<polygon class="st3" points="66.28,63.93 63.44,63.93 66.42,49.56 69.26,49.56 "/>
<path class="st3" d="M76.99,63.38c-0.9,0.42-2.12,0.73-3.83,0.73c-2.6,0-4.06-1.39-4.06-3.68c0-1.56,0.58-3.37,1.56-4.56
	c1.04-1.26,2.58-2,4.68-2c1.43,0,2.74,0.31,3.46,0.73L76.99,63.38z M74.88,55.53c-0.86,0-1.57,0.51-2.11,1.46
	c-0.51,0.93-0.86,2.34-0.86,3.42c0,1.21,0.48,1.89,1.54,1.89c0.4,0,0.73-0.07,0.95-0.17l1.32-6.44
	C75.58,55.62,75.3,55.53,74.88,55.53"/>
<path class="st3" d="M88.9,57.16l-1.41,6.77h-2.84l1.41-6.9c0.04-0.15,0.05-0.27,0.05-0.4c0-0.55-0.35-0.97-1.24-0.97
	c-0.46,0-0.9,0.09-1.24,0.2l-1.68,8.07h-2.86l1.94-9.32c1.06-0.44,2.56-0.73,4.25-0.73c2.65,0,3.71,1.01,3.71,2.49
	C88.99,56.63,88.96,56.88,88.9,57.16"/>
<path class="st3" d="M98.16,63.38c-0.9,0.42-2.12,0.73-3.82,0.73c-2.4,0-4.06-1.26-4.06-3.7c0-1.48,0.57-3.28,1.47-4.45
	c0.99-1.32,2.42-2.03,4.08-2.03c0.59,0,1.12,0.07,1.43,0.17l0.93-4.54h2.85L98.16,63.38z M96.19,55.53c-0.99,0-1.7,0.53-2.21,1.45
	c-0.51,0.91-0.88,2.38-0.88,3.44c0,1.21,0.46,1.89,1.54,1.89c0.4,0,0.73-0.06,0.95-0.17l1.35-6.5
	C96.7,55.56,96.48,55.53,96.19,55.53"/>
<path class="st3" d="M101.75,64.02c-0.79,0-1.34-0.57-1.34-1.28c0-0.97,0.93-1.9,1.96-1.9c0.79,0,1.35,0.55,1.35,1.28
	C103.73,63.09,102.78,64.02,101.75,64.02"/>
<path class="st3" d="M115.29,57.16l-1.41,6.77h-2.84l1.41-6.9c0.04-0.15,0.06-0.27,0.06-0.4c0-0.55-0.35-0.97-1.24-0.97
	c-0.46,0-0.9,0.09-1.25,0.2l-1.68,8.07h-2.86l1.94-9.32c1.06-0.44,2.56-0.73,4.24-0.73c2.65,0,3.72,1.01,3.72,2.49
	C115.39,56.63,115.35,56.88,115.29,57.16"/>
<polygon class="st3" points="119.01,63.93 116.18,63.93 119.16,49.56 122,49.56 "/>
</svg>
