<?xml version="1.0" encoding="utf-8"?>
<!-- Generator: Adobe Illustrator 23.1.0, SVG Export Plug-In . SVG Version: 6.00 Build 0)  -->
<svg version="1.1" id="Layer_1" xmlns="http://www.w3.org/2000/svg" xmlns:xlink="http://www.w3.org/1999/xlink" x="0px" y="0px"
	 width="300px" height="48px" viewBox="0 0 300 48" style="enable-background:new 0 0 300 48;" xml:space="preserve">
<style type="text/css">
	.st0{fill:#4A5FC1;}
</style>
<g>
	<path class="st0" d="M15.5,47c-4.5,0-8.2-1.5-11.1-4.4C1.5,39.6,0,35.8,0,31.3c0-4.6,1.4-8.3,4.3-11.3c2.9-3,6.6-4.4,11.2-4.4
		c4.7,0,8.4,1.6,11.3,4.9c2.9,3.2,4.1,7.4,3.8,12.5H6.6c0.1,2.3,1,4.3,2.7,5.9c1.7,1.6,3.8,2.4,6.5,2.4c3.7,0,6.2-1.4,7.6-4.2h7
		c-0.9,2.9-2.7,5.4-5.3,7.3C22.3,46,19.2,47,15.5,47z M15.4,21.1c-2.2,0-4,0.6-5.6,1.8c-1.6,1.2-2.5,3-3,5.2h16.7
		c-0.5-2.3-1.5-4.1-3-5.3C19.1,21.7,17.3,21.1,15.4,21.1z"/>
	<path class="st0" d="M76,46.4v-17c0-2.5-0.5-4.4-1.4-5.7c-0.9-1.4-2.2-2.1-4-2.1c-2.1,0-3.8,0.8-5.1,2.5c-1.3,1.7-2,4-2.1,7v15.4
		h-6.7v-17c0-2.5-0.5-4.4-1.4-5.7c-0.9-1.4-2.2-2.1-4-2.1c-2.2,0-4,0.9-5.3,2.6c-1.3,1.7-2,4.2-2,7.3v14.9h-6.7V16.1h6.7v4.1
		c1.9-3.1,4.7-4.7,8.6-4.7c4.6,0,7.7,2,9.4,6c0.8-1.9,2.1-3.4,3.9-4.4c1.8-1,3.7-1.6,5.8-1.6c3.4,0,6,1.1,8,3.4s2.9,5.4,2.9,9.3
		v18.1H76z"/>
	<path class="st0" d="M103.6,47c-4.1,0-7.6-1.5-10.4-4.6c-2.8-3.1-4.2-6.8-4.2-11.1s1.4-8.1,4.2-11.1c2.8-3.1,6.3-4.6,10.4-4.6
		c2.1,0,3.9,0.5,5.7,1.4c1.7,0.9,3.1,2,4,3.3v-4.1h6.7v30.2h-6.7v-4.1c-0.9,1.3-2.3,2.4-4,3.3C107.5,46.5,105.6,47,103.6,47z
		 M98.3,38.1c1.7,1.9,3.8,2.8,6.5,2.8c2.6,0,4.8-0.9,6.5-2.8c1.7-1.9,2.5-4.2,2.5-6.9c0-2.7-0.8-5-2.5-6.9c-1.7-1.9-3.8-2.8-6.5-2.8
		c-2.6,0-4.8,0.9-6.5,2.8c-1.7,1.9-2.5,4.2-2.5,6.9C95.8,34,96.6,36.3,98.3,38.1z"/>
	<path class="st0" d="M132.2,24.9c-1.2,0-2.3-0.4-3.1-1.3c-0.9-0.9-1.3-1.9-1.3-3.2c0-1.2,0.4-2.2,1.3-3.1c0.9-0.9,1.9-1.3,3.1-1.3
		c1.2,0,2.3,0.4,3.1,1.3c0.8,0.9,1.3,1.9,1.3,3.1c0,1.2-0.4,2.3-1.3,3.2C134.5,24.5,133.5,24.9,132.2,24.9z"/>
	<path class="st0" d="M132.2,46.4c-1.2,0-2.3-0.4-3.1-1.3c-0.9-0.9-1.3-1.9-1.3-3.2c0-1.2,0.4-2.2,1.3-3.1c0.9-0.9,1.9-1.3,3.1-1.3
		c1.2,0,2.3,0.4,3.1,1.3c0.8,0.9,1.3,1.9,1.3,3.1c0,1.2-0.4,2.3-1.3,3.2C134.5,45.9,133.5,46.4,132.2,46.4z"/>
	<path class="st0" d="M141.3,46.4L151,1h6.7L148,46.4H141.3z"/>
	<path d="M168.9,46.7c-3.3,0-5.8-1-7.5-3.1c-1.7-2.1-2.2-5-1.4-8.7L167.2,1h6.7l-3.3,15.1h8.6l-1.3,5.9h-8.6l-2.8,13.2
		c-0.7,3.6,0.8,5.4,4.4,5.4c1.1,0,2.2-0.1,3.2-0.4l-1.2,5.9C171.7,46.5,170.4,46.7,168.9,46.7z"/>
	<path d="M195.6,47c-4.5,0-8.2-1.5-11.1-4.4c-2.9-3-4.4-6.7-4.4-11.3c0-4.6,1.4-8.3,4.3-11.3c2.9-3,6.6-4.4,11.2-4.4
		c4.7,0,8.4,1.6,11.3,4.9c2.9,3.2,4.1,7.4,3.8,12.5h-24.1c0.1,2.3,1,4.3,2.7,5.9c1.7,1.6,3.8,2.4,6.5,2.4c3.7,0,6.2-1.4,7.6-4.2h7
		c-0.9,2.9-2.7,5.4-5.3,7.3C202.5,46,199.3,47,195.6,47z M195.5,21.1c-2.2,0-4,0.6-5.6,1.8c-1.6,1.2-2.5,3-3,5.2h16.7
		c-0.5-2.3-1.5-4.1-3-5.3C199.2,21.7,197.4,21.1,195.5,21.1z"/>
	<path d="M256.1,46.4v-17c0-2.5-0.5-4.4-1.4-5.7c-0.9-1.4-2.2-2.1-4-2.1c-2.1,0-3.8,0.8-5.1,2.5c-1.3,1.7-2,4-2.1,7v15.4h-6.7v-17
		c0-2.5-0.5-4.4-1.4-5.7c-0.9-1.4-2.2-2.1-4-2.1c-2.2,0-4,0.9-5.3,2.6c-1.3,1.7-2,4.2-2,7.3v14.9h-6.7V16.1h6.7v4.1
		c1.9-3.1,4.7-4.7,8.6-4.7c4.6,0,7.7,2,9.4,6c0.8-1.9,2.1-3.4,3.9-4.4c1.8-1,3.7-1.6,5.8-1.6c3.4,0,6,1.1,8,3.4
		c1.9,2.3,2.9,5.4,2.9,9.3v18.1H256.1z"/>
	<path d="M283.7,47c-4.1,0-7.6-1.5-10.4-4.6c-2.8-3.1-4.2-6.8-4.2-11.1s1.4-8.1,4.2-11.1c2.8-3.1,6.3-4.6,10.4-4.6
		c2.1,0,3.9,0.5,5.7,1.4c1.7,0.9,3.1,2,4,3.3v-4.1h6.6v30.2h-6.6v-4.1c-0.9,1.3-2.3,2.4-4,3.3C287.6,46.5,285.7,47,283.7,47z
		 M278.4,38.1c1.7,1.9,3.8,2.8,6.5,2.8c2.6,0,4.8-0.9,6.5-2.8c1.7-1.9,2.5-4.2,2.5-6.9c0-2.7-0.8-5-2.5-6.9
		c-1.7-1.9-3.8-2.8-6.5-2.8c-2.6,0-4.8,0.9-6.5,2.8c-1.7,1.9-2.5,4.2-2.5,6.9C275.9,34,276.7,36.3,278.4,38.1z"/>
</g>
</svg>
