<?xml version="1.0" encoding="utf-8"?>
<!-- Generator: Adobe Illustrator 23.1.0, SVG Export Plug-In . SVG Version: 6.00 Build 0)  -->
<svg version="1.1" xmlns="http://www.w3.org/2000/svg" xmlns:xlink="http://www.w3.org/1999/xlink" x="0px" y="0px"
	 viewBox="0 0 150 150" style="enable-background:new 0 0 150 150;" xml:space="preserve">
<style type="text/css">
	.st0{fill:#BA85FB;}
	.st1{fill:#FFFFFF;}
</style>
<g id="Layer_1">
	<path class="st0" d="M142.95,97.22V52.1c0-10.23-5.46-19.69-14.32-24.81L89.55,4.74c-8.86-5.12-19.78-5.12-28.65,0L21.84,27.3
		C12.97,32.41,7.51,41.87,7.51,52.1v45.12c0,10.23,5.46,19.69,14.32,24.81l39.07,22.56c8.86,5.12,19.78,5.12,28.65,0l39.07-22.56
		C137.49,116.91,142.95,107.45,142.95,97.22z"/>
</g>
<g id="OBJECTS">
	<g>
		<path class="st1" d="M26.36,93.63V55.69h11.99l6.02,11.64c2.05,3.77,4.28,8.85,5.95,13.3h0.15c-0.56-5-0.76-10.3-0.76-15.97v-8.96
			h9.29v37.94H48.28l-6.43-12.61c-2.11-4.02-4.57-9.12-6.39-13.71h-0.2c0.25,5.12,0.38,10.84,0.38,17v9.32H26.36z"/>
		<path class="st1" d="M66.05,55.69h24.36V64h-14.2v6.99h13.36v8.22H76.21v14.42H66.05V55.69z"/>
		<path class="st1" d="M104.09,64.22h-9.67v-8.53h29.68v8.53h-9.85v29.41h-10.16V64.22z"/>
	</g>
</g>
</svg>
