<?xml version="1.0" encoding="utf-8"?>
<!-- Generator: Adobe Illustrator 23.1.0, SVG Export Plug-In . SVG Version: 6.00 Build 0)  -->
<svg version="1.1" id="Layer_1" xmlns="http://www.w3.org/2000/svg" xmlns:xlink="http://www.w3.org/1999/xlink" x="0px" y="0px"
	 viewBox="0 0 50 50" style="enable-background:new 0 0 50 50;" xml:space="preserve">
<style type="text/css">
	.st0{fill:#BA85FB;}
</style>
<path class="st0" d="M24.88,0.25C11.14,0.25,0,11.39,0,25.12S11.14,50,24.88,50s24.88-11.14,24.88-24.88S38.61,0.25,24.88,0.25z
	 M37.45,20.24c0.38,8.37-5.87,17.71-16.92,17.71c-3.36,0-6.49-0.99-9.13-2.68c3.16,0.37,6.31-0.51,8.81-2.46
	c-2.6-0.05-4.8-1.77-5.56-4.14c0.93,0.18,1.86,0.13,2.69-0.1c-2.86-0.58-4.84-3.16-4.78-5.91c0.8,0.45,1.72,0.71,2.7,0.74
	c-2.65-1.77-3.4-5.27-1.84-7.95c2.94,3.6,7.32,5.97,12.27,6.22c-0.87-3.72,1.96-7.31,5.8-7.31c1.71,0,3.26,0.72,4.34,1.88
	c1.36-0.27,2.63-0.76,3.78-1.44c-0.45,1.39-1.39,2.56-2.62,3.29c1.2-0.15,2.35-0.46,3.42-0.94C39.63,18.35,38.62,19.4,37.45,20.24z"
	/>
</svg>
