<?xml version="1.0" encoding="utf-8"?>
<!-- Generator: Adobe Illustrator 12.0.1, SVG Export Plug-In  -->
<!DOCTYPE svg PUBLIC "-//W3C//DTD SVG 1.1//EN" "http://www.w3.org/Graphics/SVG/1.1/DTD/svg11.dtd" [
	<!ENTITY ns_flows "http://ns.adobe.com/Flows/1.0/">
	<!ENTITY ns_svg "http://www.w3.org/2000/svg">
	<!ENTITY ns_xlink "http://www.w3.org/1999/xlink">
]>
<svg  version="1.1" xmlns="&ns_svg;" xmlns:xlink="&ns_xlink;" xmlns:a="http://ns.adobe.com/AdobeSVGViewerExtensions/3.0/"
	 width="22" height="24" viewBox="0 -0.512 22 24" enable-background="new 0 -0.512 22 24" xml:space="preserve">
<defs>
</defs>
<path fill="#212121" d="M9.527,5.699c-0.89,0.357-1.847,0.619-2.82,0.619C3.922,4.692,0.144,6.386,0.144,9.947h0.001
	c0,1.327,0.838,3.146,2.147,3.592v0.053c-0.973,0.436-1.242,2.653,0.052,3.449v0.053C0.931,17.564,0,18.472,0,20.039
	c0,2.7,2.525,3.449,4.736,3.449c2.692,0,4.695-0.98,4.695-3.984c0-3.697-5.227-2.333-5.227-4.342c0-0.708,0.373-0.98,1.019-1.117
	c2.859-0.537,4.025-3.393,3.286-5.41c0.347-0.078,0.683-0.173,1.019-0.288V5.699z M4.684,18.536L4.684,18.536
	c0.88-0.001,2.133,0.156,2.133,1.31c0,1.143-1.009,1.378-1.952,1.378c-0.896,0-2.241-0.142-2.241-1.32
	C2.628,18.735,3.767,18.536,4.684,18.536L4.684,18.536z M4.519,11.746L4.519,11.746c-1.138-0.001-1.62-0.682-1.62-1.772
	c0-2.585,3.157-2.559,3.157-0.026C6.055,11.012,5.641,11.746,4.519,11.746L4.519,11.746z"/>
<path fill="#212121" d="M21.531,16.91v-2.57c-0.414,0.289-1.01,0.436-1.516,0.436c-0.959,0-1.129-0.943-1.129-1.721V8.279
	c1.641,0,2.641,0.052,2.641,0.052V5.84h-2.641c0-0.718-0.027-1.436,0.076-2.16h-2.936c0.094,0.534,0.078,0.992,0.078,2.16h-1.242
	v2.491c0.865-0.136,0.881-0.053,1.242-0.053v0.053H16.08v4.598c0,2.28,0.326,4.493,3.094,4.493
	C19.951,17.423,20.842,17.291,21.531,16.91L21.531,16.91z"/>
<path fill="#212121" d="M12.227,0c-1.036,0-1.786,0.911-1.786,1.924c0,0.997,0.76,1.899,1.786,1.899
	c0.998,0,1.748-0.917,1.748-1.899C13.975,0.944,13.25,0,12.227,0z"/>
<path fill="#212121" d="M10.781,5.831c0.093,0.774,0.084,10.471,0,11.419h2.874c-0.084-0.943-0.094-10.654,0-11.419H10.781z"/>
</svg>
