<?xml version="1.0" standalone="no"?>
<!DOCTYPE svg PUBLIC "-//W3C//DTD SVG 20010904//EN"
 "http://www.w3.org/TR/2001/REC-SVG-20010904/DTD/svg10.dtd">
<svg version="1.0" xmlns="http://www.w3.org/2000/svg"
 width="750.000000pt" height="750.000000pt" viewBox="0 0 750.000000 750.000000"
 preserveAspectRatio="xMidYMid meet">
<metadata>
Created by potrace 1.14, written by Peter Selinger 2001-2017
</metadata>
<g transform="translate(0.000000,750.000000) scale(0.100000,-0.100000)"
fill="#000000" stroke="none">
<path d="M4480 7471 c14 -11 31 -21 38 -21 6 0 12 -4 12 -10 0 -5 6 -10 14
-10 20 0 136 -114 136 -133 0 -10 -6 -17 -12 -17 -9 0 -9 -3 1 -9 9 -6 11 -16
7 -27 -7 -18 -8 -18 -24 3 -9 11 -27 24 -39 28 -13 3 -23 12 -23 20 0 7 -12
20 -27 27 -16 8 -37 19 -48 25 -11 6 -55 20 -97 32 -70 19 -93 20 -238 14 -88
-3 -160 -10 -160 -15 0 -4 -10 -8 -22 -9 -13 0 -17 -3 -10 -6 6 -2 10 -9 7
-13 -3 -5 5 -16 17 -25 23 -16 22 -16 -13 -10 -23 4 -39 3 -43 -4 -5 -7 5 -11
28 -11 20 0 36 -5 36 -11 0 -6 -8 -8 -18 -5 -10 4 -41 -3 -68 -15 -38 -17 -45
-23 -30 -28 16 -6 16 -8 2 -20 -9 -7 -22 -11 -29 -8 -7 3 -19 -4 -25 -14 -8
-12 -8 -19 -2 -19 17 0 11 -18 -8 -24 -9 -3 -40 -26 -67 -51 -41 -36 -47 -46
-35 -54 14 -10 47 6 36 17 -10 10 36 62 52 60 10 -2 16 3 14 10 -1 6 5 12 13
12 8 0 15 -5 15 -10 0 -18 60 20 72 45 11 25 28 34 28 15 0 -10 74 15 97 32
21 16 126 16 150 1 15 -10 23 -11 23 -4 0 6 -4 11 -10 11 -5 0 -10 5 -10 10 0
11 43 14 53 4 3 -4 -1 -13 -9 -22 -9 -8 -13 -23 -11 -33 5 -18 -17 -34 -34
-23 -12 7 -11 2 6 -39 21 -50 20 -60 -4 -47 -29 15 -33 13 -21 -11 14 -26 -12
-72 -35 -63 -11 4 -15 -1 -15 -17 0 -36 -20 -99 -31 -99 -6 0 -6 7 1 19 13 25
13 101 0 101 -10 0 -14 -13 -11 -42 1 -10 -3 -18 -8 -18 -6 0 -11 10 -12 23 0
12 -2 36 -3 52 -3 34 12 49 31 33 10 -8 13 -5 13 11 0 11 -4 21 -10 21 -5 0
-10 7 -10 15 0 8 5 15 10 15 6 0 10 -4 10 -10 0 -5 7 -10 15 -10 9 0 15 9 15
25 0 16 6 25 15 25 14 0 43 46 34 54 -12 11 -49 16 -49 7 0 -6 -7 -8 -16 -4
-14 5 -15 3 -5 -16 13 -24 7 -41 -15 -41 -8 0 -26 -11 -39 -24 -13 -13 -34
-26 -47 -29 -12 -4 -29 -15 -35 -26 -11 -18 -10 -19 5 -14 9 3 25 13 35 21 9
8 19 13 22 11 10 -10 8 -90 -2 -100 -6 -6 -9 -18 -6 -25 3 -8 0 -14 -6 -14 -6
0 -11 7 -11 16 0 10 -16 -2 -43 -30 -23 -25 -46 -46 -51 -46 -5 0 -2 8 7 18 8
9 19 29 22 45 4 15 14 27 24 27 14 1 14 2 -1 11 -11 6 -18 22 -18 39 0 16 -4
31 -10 35 -5 3 -7 12 -3 20 5 16 -14 20 -33 7 -5 -4 -18 -28 -28 -54 -10 -26
-22 -50 -27 -53 -5 -4 -9 -11 -9 -16 0 -6 4 -8 9 -4 5 3 12 1 15 -4 6 -10 -10
-24 -29 -27 -5 0 -16 -2 -22 -2 -7 -1 -12 -5 -12 -9 4 -22 -3 -32 -20 -30 -20
1 -19 9 6 39 9 10 12 25 8 37 -7 25 -25 18 -25 -8 0 -10 -7 -24 -16 -32 -10
-8 -13 -21 -9 -37 5 -19 2 -23 -12 -20 -12 2 -28 -10 -47 -36 -25 -34 -30 -37
-36 -22 -5 15 -8 15 -16 4 -25 -31 -28 -42 -11 -35 11 4 17 1 17 -7 0 -19 -12
-27 -25 -16 -17 14 -43 -16 -28 -31 8 -8 13 -7 17 0 4 6 12 11 18 11 6 0 -5
-17 -25 -39 -19 -21 -37 -44 -39 -52 -3 -8 -9 -11 -13 -7 -4 4 2 23 14 43 12
20 19 41 15 46 -3 6 2 21 10 34 9 14 14 25 11 25 -7 0 -45 -22 -65 -36 -8 -6
-30 -14 -49 -16 -29 -4 -31 -3 -18 7 10 7 17 18 17 24 0 23 -24 5 -46 -34 -12
-22 -27 -41 -33 -43 -6 -2 -11 -11 -11 -20 0 -8 -3 -12 -7 -9 -3 4 -21 -9 -40
-28 -19 -19 -36 -35 -39 -35 -3 0 -16 -12 -29 -27 -32 -37 -32 -16 0 27 14 19
25 38 25 42 0 4 18 25 40 47 46 44 55 73 15 47 -37 -25 -38 -19 -2 17 18 17
28 29 23 25 -6 -5 -20 -8 -32 -8 -12 0 -35 -14 -51 -32 -16 -18 -50 -50 -76
-72 -27 -21 -46 -41 -43 -44 3 -3 15 3 26 13 28 25 25 3 -3 -23 -24 -23 -43
-30 -32 -12 14 23 -13 7 -49 -29 -23 -25 -35 -44 -30 -52 4 -8 3 -10 -4 -5 -8
5 -12 -1 -12 -16 0 -25 -57 -124 -66 -115 -3 2 4 28 15 57 17 46 18 50 3 38
-11 -10 -25 -12 -42 -7 -14 4 -18 8 -10 8 8 1 26 10 39 20 19 15 21 19 8 24
-22 8 -77 -21 -71 -37 3 -8 1 -17 -5 -21 -7 -4 -8 1 -4 12 6 16 4 16 -16 -1
-25 -23 -54 -30 -48 -13 3 7 10 11 16 10 14 -4 76 80 62 85 -13 4 -71 -26 -71
-38 0 -6 -6 -10 -14 -10 -16 0 -66 -45 -66 -60 0 -7 -9 -23 -20 -37 -11 -14
-27 -49 -35 -77 -8 -27 -26 -67 -40 -88 -14 -21 -25 -46 -25 -56 0 -10 -11
-40 -23 -68 -13 -27 -30 -64 -38 -81 -7 -18 -19 -35 -26 -38 -18 -6 -17 -5 19
66 18 34 32 77 32 95 0 18 2 31 6 29 3 -2 6 8 6 21 1 13 21 56 44 94 23 39 48
85 54 103 6 17 15 37 19 44 4 6 3 14 -2 17 -12 8 -58 -47 -76 -91 -18 -43 -18
-46 -2 -38 6 4 -3 -6 -20 -22 -22 -18 -38 -47 -49 -83 -21 -70 -63 -190 -75
-212 -6 -12 -5 -18 1 -18 23 0 3 -74 -24 -92 -7 -5 -5 -8 6 -8 9 0 20 5 23 10
4 6 11 8 16 5 5 -4 9 7 9 24 0 16 5 33 12 37 8 5 9 -4 5 -32 -11 -62 -27 -114
-37 -114 -5 0 -4 14 2 31 13 38 7 44 -20 19 -22 -21 -31 -57 -12 -45 13 8 13
3 -1 -32 -6 -15 -12 -37 -14 -48 -11 -59 -25 -159 -31 -229 -4 -50 -10 -73
-15 -65 -12 18 -2 -165 14 -251 6 -36 10 -69 9 -73 -1 -5 3 -27 9 -49 8 -31 8
-43 -1 -48 -9 -6 -9 -13 0 -30 11 -20 10 -22 -5 -16 -14 5 -16 2 -12 -17 4
-12 7 -54 8 -92 2 -91 21 -163 66 -253 29 -58 44 -77 74 -93 53 -26 73 -24
108 13 29 32 30 32 50 14 12 -11 21 -25 21 -31 0 -7 7 -15 15 -19 9 -3 20 -16
25 -28 7 -19 9 -20 9 -5 1 11 -8 30 -19 44 -24 30 -26 53 -5 53 8 0 15 -6 15
-14 0 -8 7 -16 14 -19 25 -10 28 68 8 188 -20 116 -19 170 6 194 12 13 15 13
24 -2 14 -26 38 -21 38 8 0 14 4 25 8 25 5 0 14 11 20 25 6 14 18 25 26 25 7
0 16 7 20 15 3 8 2 15 -2 15 -5 0 -9 17 -10 38 -1 20 -4 64 -7 98 l-7 60 56
16 c54 15 56 15 51 -2 -6 -20 10 -36 20 -21 3 6 13 7 21 4 9 -3 11 -9 6 -12
-5 -3 -12 -16 -16 -28 -6 -18 -4 -22 7 -17 27 10 28 -15 3 -41 -15 -14 -26
-30 -26 -35 0 -4 -9 -6 -19 -3 -13 3 -19 0 -17 -9 3 -23 17 -39 28 -32 7 5 9
1 5 -9 -8 -22 14 -27 95 -23 50 3 68 1 72 -10 6 -16 66 -20 66 -4 0 6 9 6 25
0 17 -7 25 -6 25 1 0 6 6 9 14 6 18 -7 56 20 56 40 0 14 2 14 15 -3 14 -17 14
-15 0 13 -8 18 -20 32 -26 30 -7 -1 -13 3 -16 10 -6 16 57 27 111 20 24 -4 47
-2 53 4 7 7 15 4 24 -7 9 -12 10 -15 2 -10 -7 4 -19 4 -25 -1 -7 -4 -17 -8
-23 -9 -5 0 -16 -2 -23 -2 -9 -2 -8 -9 4 -28 11 -16 20 -21 24 -14 5 9 18 9
48 -1 23 -6 39 -16 36 -21 -4 -6 7 -7 25 -5 23 4 31 1 31 -9 0 -9 4 -13 9 -9
5 3 12 1 16 -5 4 -6 11 -7 17 -4 7 5 9 -2 6 -19 -3 -15 -2 -24 2 -22 4 3 15
-4 25 -15 16 -17 16 -25 6 -62 -7 -24 -10 -61 -8 -83 3 -22 1 -44 -3 -50 -4
-5 -4 -46 -1 -90 4 -57 2 -88 -7 -108 -8 -15 -17 -52 -21 -82 -7 -51 -6 -54 9
-40 9 8 21 15 27 15 6 0 17 13 24 29 17 39 57 41 52 2 l-3 -26 10 25 c9 20 8
27 -11 41 -14 10 -20 23 -16 32 3 9 2 19 -3 22 -14 9 -12 45 3 45 7 1 5 6 -6
14 -16 13 -16 15 -2 30 10 10 12 16 5 16 -7 0 -10 7 -7 15 4 8 2 17 -3 20 -5
3 -5 18 0 34 4 16 6 32 2 35 -5 6 22 10 46 7 14 -2 17 16 2 21 -5 2 3 22 19
45 l28 42 27 -28 c14 -15 26 -35 26 -45 0 -16 1 -16 16 -2 23 24 53 38 64 31
6 -4 7 -11 4 -17 -5 -7 0 -9 14 -6 12 4 22 2 22 -4 0 -5 5 -6 12 -2 7 5 8 3 4
-5 -5 -7 -14 -10 -22 -7 -8 3 -11 0 -8 -9 3 -8 -1 -12 -13 -12 -11 1 -18 -5
-18 -16 0 -13 12 -23 38 -32 35 -12 38 -12 33 3 -5 14 -3 13 8 -2 8 -10 19
-15 24 -12 11 7 22 -16 22 -45 0 -10 -7 -19 -15 -19 -9 0 -18 -7 -22 -16 -3
-8 -12 -13 -19 -10 -8 3 -14 1 -14 -5 0 -6 -6 -9 -14 -6 -8 3 -17 0 -19 -8 -9
-21 4 -25 29 -8 23 14 24 14 24 -6 0 -11 5 -21 12 -21 6 0 8 -3 4 -7 -4 -4
-15 -8 -24 -8 -9 0 -21 -10 -28 -22 -6 -13 -14 -20 -17 -17 -13 13 -38 -19
-31 -40 6 -18 5 -19 -9 -8 -14 12 -17 10 -23 -14 -5 -20 -2 -30 11 -41 26 -18
34 -16 28 6 -3 13 2 20 17 24 16 4 20 2 16 -9 -3 -8 -1 -14 5 -14 6 0 17 -7
25 -15 18 -17 34 -20 34 -4 0 5 5 7 10 4 6 -3 10 -15 10 -26 0 -15 5 -19 19
-14 11 3 24 -1 32 -11 11 -14 11 -18 1 -22 -7 -2 -21 -20 -31 -40 -11 -21 -39
-58 -64 -84 -36 -37 -50 -45 -69 -41 -12 4 -25 9 -28 13 -3 3 -27 22 -55 41
-27 18 -56 42 -62 51 -21 27 -76 56 -103 53 -14 -1 -35 4 -47 11 -13 8 -23 11
-23 6 0 -13 31 -37 68 -52 18 -7 37 -20 42 -29 7 -11 12 -13 17 -4 6 8 13 8
27 -3 16 -11 17 -16 6 -29 -7 -8 -10 -22 -6 -30 6 -17 -29 -36 -50 -28 -7 2
-19 -6 -28 -19 l-16 -22 0 22 c0 13 4 21 9 17 5 -3 13 0 16 6 4 5 14 8 22 5 8
-4 11 -1 7 5 -3 6 -15 8 -26 6 -14 -4 -22 0 -25 14 -3 11 -10 18 -15 17 -16
-6 -19 -76 -4 -90 10 -10 9 -16 -8 -30 -12 -10 -15 -17 -8 -18 6 0 12 6 12 13
1 7 6 5 14 -5 7 -10 16 -15 20 -11 4 4 4 0 1 -9 -7 -17 10 -58 29 -70 8 -5 8
-10 -1 -19 -8 -8 -19 -8 -41 4 -19 9 -49 13 -76 11 -25 -2 -46 0 -46 5 0 11
-141 8 -159 -3 -8 -5 -16 -4 -20 2 -12 20 -28 -3 -40 -57 -10 -48 -9 -55 6
-66 10 -7 21 -11 25 -9 3 2 10 -6 14 -18 4 -13 2 -24 -4 -26 -12 -4 -3 -42 10
-42 6 0 8 7 4 15 -4 10 1 15 14 15 11 0 20 -4 20 -10 0 -5 6 -10 14 -10 8 0
17 -11 20 -25 6 -24 26 -36 26 -15 0 5 7 7 16 3 10 -4 17 1 21 16 3 11 12 21
20 21 10 0 11 4 4 19 -8 14 -7 20 3 24 23 9 55 -20 52 -48 -4 -28 18 -64 30
-52 4 4 0 21 -9 37 -23 37 -10 44 48 24 73 -24 84 -26 167 -28 52 -1 78 3 78
10 0 15 29 39 37 30 4 -3 -2 -12 -12 -19 -16 -13 -16 -14 0 -14 9 0 22 11 28
24 10 24 31 30 42 13 3 -5 12 -7 20 -3 10 3 15 -1 15 -13 0 -15 8 -19 38 -19
20 0 43 4 50 9 8 4 26 9 40 11 15 2 38 6 51 9 24 5 24 1 8 -44 -4 -9 6 -25 26
-40 17 -14 28 -20 24 -13 -5 8 1 11 20 8 16 -2 30 -4 33 -5 3 -2 8 -2 12 -1 4
0 5 -6 2 -14 -4 -10 0 -15 11 -15 12 0 15 5 10 20 -4 11 -2 20 4 20 6 0 11 -6
11 -14 0 -8 6 -17 13 -20 8 -3 7 -8 -6 -16 -9 -6 -15 -15 -12 -20 3 -5 -1 -24
-8 -42 -8 -18 -12 -39 -10 -45 3 -7 0 -13 -7 -13 -6 0 -9 -4 -6 -9 11 -17 -6
-42 -24 -36 -12 4 -19 -1 -23 -15 -7 -27 -21 -25 -37 5 -12 22 -18 24 -52 18
-22 -3 -50 -1 -64 6 -13 6 -35 16 -48 22 -13 6 -44 12 -70 13 -29 0 -46 6 -46
14 0 17 -23 15 -68 -4 -20 -10 -62 -19 -92 -21 -30 -2 -66 -8 -80 -14 -34 -13
-80 -8 -80 9 0 20 -20 4 -31 -25 -5 -14 -17 -27 -27 -30 -14 -3 -17 -12 -14
-39 4 -29 1 -34 -17 -34 -12 0 -21 -3 -21 -7 0 -5 -11 -9 -25 -9 -28 -2 -33
17 -10 36 13 11 14 10 9 -6 -5 -13 -4 -16 4 -9 12 11 4 65 -9 65 -6 0 -12 -7
-15 -15 -5 -12 -10 -13 -20 -4 -8 6 -23 9 -34 6 -11 -3 -18 -2 -16 2 3 4 -3
15 -12 24 -37 34 -44 47 -27 47 8 0 15 4 15 9 0 11 -30 36 -30 25 0 -5 -7 -1
-15 9 -7 11 -11 25 -9 32 7 17 -14 57 -26 50 -4 -3 -17 10 -28 29 -15 26 -17
37 -9 46 7 6 8 10 2 9 -21 -6 -55 13 -55 31 0 23 -16 35 -24 18 -3 -9 -8 -7
-17 6 -11 18 -12 18 -25 -5 -8 -15 -9 -28 -3 -35 7 -8 2 -13 -16 -16 -14 -3
-29 0 -35 7 -5 6 -26 10 -47 8 -22 -1 -33 1 -25 6 10 6 10 11 -3 21 -9 7 -15
9 -13 4 2 -6 -15 -27 -37 -47 -32 -30 -36 -37 -21 -37 16 0 17 -3 8 -12 -14
-14 -10 -18 -61 64 -38 63 -81 195 -81 248 0 16 -4 20 -15 16 -8 -3 -15 -1
-15 3 0 5 5 11 11 13 13 4 -16 269 -34 308 -9 18 -21 26 -46 28 -34 3 -34 3
-26 -30 7 -30 10 -49 15 -98 1 -10 3 -11 7 -3 4 10 7 10 18 0 20 -20 27 -70
15 -103 -7 -16 -7 -30 -2 -32 5 -1 6 -20 2 -45 -8 -40 1 -131 13 -144 4 -3 2
-12 -4 -19 -6 -7 -17 -55 -24 -106 -17 -106 -18 -141 -7 -134 4 2 7 -17 6 -42
-1 -66 48 -208 68 -196 4 3 11 -8 14 -25 4 -17 12 -31 18 -31 12 0 16 -81 4
-90 -4 -3 -9 -26 -10 -51 -3 -47 -20 -72 -50 -77 -9 -1 -19 5 -21 15 -3 10 -5
0 -6 -22 -1 -37 34 -223 43 -232 2 -3 2 23 -1 56 -6 67 18 168 43 178 8 3 14
11 14 19 0 8 5 14 10 14 6 0 10 29 10 66 0 41 -4 63 -10 59 -13 -8 -13 6 -1
39 7 17 6 26 -2 30 -9 5 -9 7 0 12 7 3 15 37 19 75 4 38 9 67 12 64 6 -6 13
-153 13 -280 1 -191 -18 -330 -48 -366 -12 -14 -12 -18 -1 -22 7 -3 3 -6 -10
-6 -15 -1 -26 7 -32 22 -5 12 -9 16 -9 8 -2 -27 99 -217 140 -266 23 -27 40
-43 37 -35 -2 8 2 21 9 28 8 8 11 23 7 34 -4 15 -2 19 13 16 14 -2 18 3 16 24
-1 20 2 25 13 21 8 -3 14 -10 14 -17 0 -6 5 -4 10 4 14 21 12 27 -8 32 -10 3
-19 13 -19 21 0 12 6 15 24 11 21 -6 22 -4 14 17 -4 13 -5 36 -1 50 7 22 3 30
-21 48 -16 12 -29 27 -29 33 0 7 4 7 13 1 6 -5 23 -10 36 -11 22 -1 22 0 5 13
-18 13 -18 14 -2 20 9 4 23 3 30 -1 7 -4 4 2 -6 14 -22 26 -36 28 -36 7 0 -8
-3 -15 -8 -15 -13 0 -42 39 -33 45 5 3 12 -2 15 -11 5 -13 9 -14 21 -4 18 15
20 46 3 56 -7 5 -9 2 -5 -9 4 -11 2 -14 -9 -10 -13 5 -13 8 -1 27 8 11 19 21
25 21 6 0 14 3 18 8 4 4 0 7 -8 7 -19 0 -29 31 -16 54 7 12 5 16 -12 16 -14 0
-20 7 -20 21 0 11 5 17 10 14 6 -3 10 1 10 9 0 9 8 16 18 16 14 0 15 2 2 10
-9 5 -19 5 -26 -1 -8 -6 -14 -4 -18 7 -9 24 -7 28 7 16 15 -13 31 -4 40 21 8
22 -17 34 -37 18 -11 -9 -15 -8 -20 5 -9 22 -8 24 9 24 20 0 19 17 -2 29 -14
7 -15 13 -7 21 9 9 17 7 31 -7 25 -25 62 -25 55 -1 -2 10 -9 18 -14 18 -5 0
-6 5 -3 10 4 7 13 7 26 0 10 -6 19 -8 19 -4 0 4 10 -1 23 -12 l22 -19 -18 21
c-15 18 -16 23 -3 33 10 8 16 9 21 1 3 -5 1 -10 -5 -10 -6 0 0 -11 14 -25 14
-14 29 -25 35 -25 5 0 14 -14 20 -31 7 -22 15 -29 26 -25 9 3 15 0 15 -8 0 -8
8 -17 17 -20 13 -5 14 -9 5 -15 -8 -5 -2 -18 21 -43 58 -63 62 -69 43 -62 -9
3 -16 2 -16 -4 0 -6 5 -12 11 -14 7 -2 7 -12 -1 -30 -13 -27 -9 -60 10 -88 9
-13 11 -13 20 0 8 12 10 11 10 -7 0 -12 5 -25 10 -28 6 -4 8 -11 5 -16 -4 -5
1 -12 9 -15 9 -3 13 -10 10 -16 -3 -5 -13 -4 -22 4 -12 9 -11 6 2 -10 18 -21
53 -32 42 -13 -4 5 8 13 26 16 l32 7 -23 19 c-13 11 -29 19 -37 19 -7 0 -11 6
-8 14 3 8 13 12 25 9 14 -4 17 -8 9 -13 -8 -5 -7 -9 5 -14 21 -8 25 -8 24 1
-1 5 -1 15 0 23 1 12 5 11 16 -4 8 -11 18 -16 22 -12 4 4 2 11 -5 15 -8 5 -11
17 -7 33 4 16 1 29 -9 37 -9 8 -16 17 -16 22 0 13 28 11 36 -3 4 -7 3 -8 -4
-4 -7 4 -12 2 -12 -3 0 -16 27 -13 34 4 3 8 12 12 21 9 9 -4 15 -1 15 7 -1 16
-21 46 -33 47 -4 0 -11 2 -15 5 -4 2 -1 2 6 1 6 -2 12 1 12 6 0 6 11 5 28 -1
15 -6 38 -12 52 -14 14 -3 59 -14 100 -26 108 -31 233 -31 325 0 39 13 77 24
85 25 8 1 25 7 36 13 29 16 35 7 18 -25 -10 -20 -11 -28 -1 -34 7 -4 8 -8 3
-8 -5 0 -3 -7 4 -15 10 -12 10 -15 0 -15 -9 0 -9 -4 -2 -12 7 -9 5 -19 -8 -35
-9 -12 -20 -19 -24 -16 -3 4 -6 -3 -6 -15 0 -16 -4 -20 -17 -15 -13 5 -15 2
-11 -15 4 -12 2 -22 -3 -22 -4 0 -15 -12 -23 -27 -8 -16 -15 -24 -16 -20 -1
21 -40 -17 -40 -39 0 -14 -4 -23 -9 -20 -11 7 -34 -47 -36 -83 -1 -14 5 -32
12 -39 9 -10 13 -10 13 -2 0 7 6 10 14 7 7 -3 18 -1 22 3 14 14 54 0 54 -19 0
-14 -2 -14 -10 -1 -8 13 -10 12 -10 -4 0 -13 5 -16 16 -12 9 4 23 1 30 -5 9
-7 14 -8 14 -1 0 5 -7 12 -15 16 -8 3 -15 12 -15 21 0 8 7 15 15 15 8 0 15 -5
15 -11 0 -6 9 -9 19 -6 13 3 21 -1 24 -14 5 -18 -16 -28 -26 -11 -2 4 -2 1 -1
-5 2 -7 -7 -19 -19 -28 -12 -8 -18 -15 -13 -15 5 0 3 -6 -3 -14 -8 -10 -9 -16
-1 -21 17 -10 29 3 22 27 -3 14 -1 19 6 14 6 -3 15 2 21 11 9 15 10 15 11 2 0
-11 10 -15 41 -15 l41 0 -5 48 c-4 27 -3 46 2 44 4 -3 18 4 29 15 12 11 22 16
22 12 0 -4 5 -2 11 4 7 7 21 8 40 3 17 -5 27 -5 24 0 -3 5 -1 11 5 15 16 10
12 -18 -6 -44 -14 -19 -14 -25 -3 -32 8 -5 9 -9 3 -9 -15 0 -17 -70 -1 -70 7
0 3 -7 -7 -15 -11 -8 -14 -15 -8 -15 20 0 13 -16 -13 -30 -18 -10 -24 -19 -19
-33 4 -13 2 -17 -5 -13 -6 4 -11 3 -11 -2 0 -6 7 -12 15 -16 11 -4 15 1 15 19
0 19 5 25 23 25 12 0 33 3 46 7 22 6 23 4 17 -20 -4 -16 -2 -27 4 -27 5 0 10
8 10 18 1 16 1 16 11 -1 5 -9 7 -22 4 -27 -3 -6 1 -10 9 -10 9 0 16 -5 16 -10
0 -7 -7 -7 -20 0 -11 6 -28 10 -38 8 -12 -2 -16 3 -15 18 2 17 -2 20 -27 16
-32 -5 -50 -36 -31 -55 17 -17 13 -37 -6 -38 -14 0 -13 -3 6 -12 19 -9 25 -8
35 4 6 9 18 14 26 11 8 -3 12 -1 8 3 -14 14 20 36 47 29 14 -3 25 -2 25 3 0 5
7 10 14 10 11 0 12 -5 5 -18 -6 -11 -5 -20 1 -24 14 -8 13 -55 -1 -55 -6 0 -9
-6 -6 -14 3 -7 0 -19 -6 -25 -33 -33 91 33 168 90 69 50 131 110 208 201 97
113 102 125 102 248 0 93 -3 110 -25 150 -14 24 -29 43 -33 42 -8 -3 -30 23
-86 101 -25 34 -110 105 -120 99 -20 -13 -27 235 -9 323 6 28 12 64 13 81 2
17 27 71 55 119 54 90 80 148 86 199 2 16 8 34 14 41 6 7 10 23 9 36 -4 180 2
281 19 287 14 4 16 82 2 82 -5 0 -10 10 -10 23 0 23 -19 60 -21 42 -6 -40 -5
-55 2 -55 5 0 9 -5 9 -12 0 -9 -3 -9 -12 0 -16 16 -31 15 -25 0 2 -7 -3 -27
-13 -45 -12 -23 -20 -29 -31 -22 -12 8 -11 11 4 23 20 16 22 32 5 39 -10 4
-10 6 0 6 7 1 11 5 8 10 -9 15 -46 0 -46 -18 0 -10 -9 -17 -20 -18 -13 -1 -18
2 -14 9 5 7 2 9 -9 5 -8 -3 -21 1 -27 9 -18 20 -23 18 -40 -18 -14 -32 -15
-48 -4 -96 3 -15 1 -21 -6 -17 -5 3 -10 1 -10 -4 0 -6 8 -11 18 -11 13 0 14
-2 3 -9 -9 -6 -11 -18 -6 -40 4 -19 2 -37 -5 -46 -6 -7 -15 -42 -20 -76 -11
-73 -29 -102 -26 -39 1 23 -2 72 -7 108 -5 37 -9 74 -9 82 1 43 -13 74 -49
108 -21 22 -39 46 -39 55 0 10 -8 17 -17 17 -9 0 -25 7 -35 17 -17 15 -18 15
-17 -3 0 -20 17 -65 18 -50 2 17 31 -17 31 -35 0 -11 7 -19 15 -19 8 0 15 -4
15 -10 0 -5 9 -17 19 -27 16 -15 19 -30 17 -79 -1 -35 -8 -69 -16 -79 -12 -14
-12 -18 1 -25 10 -7 16 -3 20 13 13 47 22 -93 10 -153 -20 -99 -74 -200 -107
-200 -7 0 -14 -5 -16 -12 -2 -6 -14 -13 -27 -15 -21 -3 -21 -2 -7 13 9 8 16
24 16 34 0 26 55 142 63 133 7 -7 10 46 7 130 -1 26 3 54 9 61 8 10 7 17 -3
25 -8 7 -12 20 -9 28 5 13 1 15 -20 11 -22 -4 -26 -1 -29 21 -4 31 -38 43 -38
13 0 -11 7 -23 16 -26 8 -3 13 -10 9 -15 -3 -6 3 -15 12 -21 17 -11 17 -11 0
-6 -10 3 -27 1 -37 -4 -16 -8 -18 -7 -15 9 2 13 -5 26 -21 36 -14 9 -22 20
-19 24 3 5 -2 12 -11 15 -22 8 -26 8 -19 -4 10 -16 -11 -12 -25 5 -7 8 -17 12
-22 9 -5 -3 -12 4 -15 16 -5 17 -11 20 -30 15 -15 -3 -22 -2 -19 4 4 6 -1 15
-11 20 -49 28 -49 28 -24 55 20 21 27 24 40 13 14 -11 14 -10 2 5 -8 11 -10
25 -6 35 5 10 9 25 11 33 4 20 -17 90 -27 90 -21 0 -38 58 -33 116 7 75 -2
124 -23 124 -9 0 -13 6 -10 14 4 9 -5 19 -24 26 -21 9 -29 19 -29 38 0 24 1
24 19 8 19 -17 20 -17 23 5 2 12 10 25 18 27 13 5 13 3 0 -14 -14 -18 -14 -18
4 -4 17 14 17 15 -3 31 -34 28 -26 44 20 40 9 -1 21 4 27 11 10 13 12 18 12
38 0 6 7 10 15 10 8 0 15 5 15 12 0 6 3 8 7 5 3 -4 11 0 17 9 9 12 17 13 39 5
18 -7 27 -7 27 0 0 6 8 5 23 -2 21 -11 21 -11 6 7 -27 32 -32 46 -18 43 8 -1
28 4 44 11 17 7 33 13 38 12 4 -1 7 5 7 13 0 19 -34 37 -57 28 -14 -4 -15 -3
-7 6 16 17 140 11 136 -7 -3 -17 22 -42 42 -42 10 0 16 -9 16 -25 0 -14 3 -24
8 -24 4 1 18 1 31 0 23 -1 23 -2 7 -20 -16 -17 -16 -19 0 -25 9 -3 29 0 44 8
26 13 29 12 48 -13 14 -19 16 -30 9 -42 -15 -24 -1 -53 21 -44 9 4 24 8 32 9
8 0 19 7 23 14 13 20 25 14 20 -10 -3 -17 3 -26 23 -35 16 -7 37 -13 47 -13
14 0 17 -5 13 -16 -5 -13 -1 -15 19 -12 20 4 23 3 14 -8 -9 -11 -8 -18 1 -29
10 -12 10 -15 -4 -15 -11 0 -16 -9 -16 -26 0 -19 4 -25 15 -20 9 3 15 0 15
-10 0 -8 7 -17 16 -21 9 -3 14 -13 11 -24 -3 -11 -1 -16 5 -13 13 8 0 -35 -16
-55 -6 -8 -10 -23 -8 -33 2 -11 -3 -25 -12 -31 -8 -7 -16 -21 -17 -32 -3 -28
12 -105 21 -105 10 0 9 33 -1 46 -6 7 0 15 15 22 14 6 26 21 28 33 2 12 9 24
17 27 11 4 12 -5 7 -44 -6 -43 -5 -47 7 -31 8 9 22 17 31 17 9 0 16 3 16 8 0
8 48 32 66 32 6 0 24 10 39 22 16 12 37 24 48 25 25 4 57 40 57 64 0 10 13 33
30 51 16 18 30 36 30 41 0 5 8 21 19 35 10 15 21 45 24 67 3 22 13 76 23 120
18 85 25 353 10 390 -6 15 -5 16 2 6 11 -16 8 26 -8 124 -10 57 -3 196 11 232
29 76 -18 363 -86 528 -18 44 -38 105 -45 135 -24 114 -45 177 -82 250 -21 41
-39 92 -40 112 -2 24 -9 38 -19 41 -9 3 -20 18 -24 35 -3 17 -17 42 -31 57
-15 17 -24 38 -24 60 0 19 -4 37 -10 40 -5 3 -10 22 -10 41 0 27 -5 37 -25 46
-14 6 -25 14 -25 18 0 11 -34 46 -45 45 -5 0 -14 -3 -20 -7 -5 -3 -30 1 -53 9
-24 8 -46 12 -50 9 -3 -3 2 -6 11 -6 10 0 17 -4 17 -10 0 -5 11 -10 24 -10 27
0 59 -31 39 -37 -19 -7 -16 -21 5 -26 16 -4 16 -5 -2 -12 -13 -6 -21 -3 -27 7
-9 16 -11 16 -104 -7 -29 -7 -29 -7 -10 10 17 14 17 16 3 11 -10 -3 -18 0 -18
6 0 6 -10 2 -23 -10 -25 -24 -46 -30 -28 -9 6 8 8 17 4 20 -3 4 0 14 7 23 12
13 11 17 -1 25 -11 7 -8 9 10 9 19 0 21 3 12 14 -7 8 -21 12 -33 8 -14 -3 -19
-1 -14 6 4 7 1 12 -8 12 -9 0 -16 6 -16 14 0 7 -9 16 -20 19 -12 3 -18 11 -15
19 4 9 -5 14 -26 15 -28 2 -31 0 -26 -22 3 -17 0 -25 -9 -25 -17 0 -18 14 -3
41 9 17 6 28 -15 60 -15 21 -33 39 -42 39 -8 0 -13 4 -10 9 8 13 -41 54 -55
46 -7 -5 -10 -4 -6 2 10 15 -112 90 -158 98 l-40 6 25 -20z m234 -264 c1 -8 8
-22 15 -31 24 -29 2 -30 -24 -2 -18 19 -24 34 -19 48 6 22 24 13 28 -15z
m-275 -19 c1 -5 -10 -8 -24 -8 -16 0 -25 6 -25 16 0 8 5 12 10 9 6 -3 13 2 17
11 6 16 7 16 14 -2 4 -10 8 -22 8 -26z m91 32 c0 -5 -4 -10 -9 -10 -6 0 -13 5
-16 10 -3 6 1 10 9 10 9 0 16 -4 16 -10z m-182 -35 c-3 -3 -9 2 -12 12 -6 14
-5 15 5 6 7 -7 10 -15 7 -18z m-431 -5 c-1 -22 -12 -26 -23 -9 -3 6 0 15 7 20
18 12 18 12 16 -11z m598 -2 c16 -7 21 -14 14 -18 -12 -8 -59 10 -59 23 0 10
15 9 45 -5z m12 -81 c7 2 9 11 6 20 -5 12 -3 14 6 8 8 -4 17 -2 21 5 7 11 12
10 25 -3 9 -10 24 -17 34 -17 22 0 71 -23 71 -32 0 -5 7 -8 15 -8 27 0 16 -20
-12 -21 -16 -1 -35 -2 -43 -3 -29 -2 -42 -18 -36 -42 5 -17 2 -24 -9 -24 -8 0
-15 7 -15 15 0 13 -19 20 -43 16 -4 -1 -7 4 -6 11 3 28 -2 38 -21 38 -11 0
-20 5 -20 11 0 6 -7 17 -15 25 -8 9 -15 11 -15 5 0 -6 -7 -11 -16 -11 -13 0
-14 3 -4 15 7 8 10 25 7 37 -5 18 0 15 26 -13 18 -20 37 -34 44 -32z m-212 23
c3 -5 1 -10 -4 -10 -6 0 -11 5 -11 10 0 6 2 10 4 10 3 0 8 -4 11 -10z m-45
-31 c0 -6 -4 -7 -10 -4 -5 3 -10 11 -10 16 0 6 5 7 10 4 6 -3 10 -11 10 -16z
m899 7 c10 -12 8 -13 -8 -9 -12 3 -18 9 -15 14 7 12 10 11 23 -5z m-849 -6 c8
-5 11 -10 5 -10 -5 0 -2 -7 8 -14 18 -14 18 -15 0 -24 -14 -8 -15 -14 -6 -23
12 -12 7 -39 -7 -39 -4 0 -10 14 -14 30 -3 17 -9 44 -12 60 -7 31 0 37 26 20z
m160 -51 c0 -5 -4 -9 -10 -9 -5 0 -10 7 -10 16 0 8 5 12 10 9 6 -3 10 -10 10
-16z m-196 -40 c-9 -10 -22 -19 -28 -19 -8 0 -8 2 0 8 6 4 14 20 18 37 7 26 9
28 18 12 7 -14 5 -23 -8 -38z m783 25 c-3 -3 -12 -4 -19 -1 -8 3 -5 6 6 6 11
1 17 -2 13 -5z m-576 -61 c-10 -17 -10 -16 -11 3 0 23 13 41 18 25 2 -6 -1
-18 -7 -28z m69 12 c0 -25 -16 -24 -18 1 -1 15 2 22 8 19 6 -3 10 -12 10 -20z
m580 10 c0 -5 -68 -35 -79 -35 -3 0 5 9 19 20 23 18 60 27 60 15z m-1070 -62
c-10 -16 -11 -15 -6 7 3 14 6 32 7 40 1 8 4 5 6 -7 2 -12 -1 -30 -7 -40z m130
42 c0 -8 -4 -15 -10 -15 -5 0 -7 7 -4 15 4 8 8 15 10 15 2 0 4 -7 4 -15z m227
-17 c-3 -8 -6 -5 -6 6 -1 11 2 17 5 13 3 -3 4 -12 1 -19z m-524 -18 c-3 -12
-8 -19 -11 -16 -5 6 5 36 12 36 2 0 2 -9 -1 -20z m1292 10 c-3 -5 -11 -10 -16
-10 -6 0 -7 5 -4 10 3 6 11 10 16 10 6 0 7 -4 4 -10z m-705 -4 c0 -2 -7 -19
-16 -37 -11 -25 -14 -27 -10 -9 3 14 6 31 6 38 0 6 5 12 10 12 6 0 10 -2 10
-4z m-642 -94 c-7 -18 -18 -32 -26 -32 -8 0 -11 -7 -8 -18 4 -12 -5 -29 -29
-52 -35 -34 -50 -33 -18 2 25 28 1 21 -45 -13 -63 -46 -51 -29 22 29 35 29 74
67 87 86 28 41 33 41 17 -2z m1351 12 c2 -2 -12 -4 -32 -4 -20 0 -37 4 -37 10
0 8 58 3 69 -6z m89 4 c-2 -6 -10 -14 -16 -16 -7 -2 -10 2 -6 12 7 18 28 22
22 4z m-1493 -27 c-3 -6 -11 -11 -17 -11 -6 0 -6 6 2 15 14 17 26 13 15 -4z
m1455 9 c0 -5 -4 -10 -9 -10 -6 0 -13 5 -16 10 -3 6 1 10 9 10 9 0 16 -4 16
-10z m-1525 -40 c-3 -5 -12 -10 -18 -10 -7 0 -6 4 3 10 19 12 23 12 15 0z
m-93 -52 c-7 -7 -12 -8 -12 -2 0 14 12 26 19 19 2 -3 -1 -11 -7 -17z m-112
-22 c0 -3 -4 -8 -10 -11 -5 -3 -10 -1 -10 4 0 6 5 11 10 11 6 0 10 -2 10 -4z
m62 -18 c-7 -7 -12 -8 -12 -2 0 14 12 26 19 19 2 -3 -1 -11 -7 -17z m-89 -23
c-3 -9 -8 -14 -10 -11 -3 3 -2 9 2 15 9 16 15 13 8 -4z m211 -40 c-41 -36 -54
-42 -54 -25 0 6 4 10 10 10 5 0 24 16 42 36 18 19 34 30 36 24 2 -6 -13 -26
-34 -45z m1500 40 c11 -8 15 -15 10 -15 -6 0 -19 7 -30 15 -10 8 -14 14 -9 14
6 0 19 -6 29 -14z m-1674 -84 c0 -5 -9 -19 -20 -32 l-21 -24 16 33 c15 31 25
41 25 23z m-154 -15 c7 -18 -53 -86 -76 -86 -9 0 -40 -11 -68 -25 -57 -27 -66
-30 -57 -16 3 5 29 21 58 35 28 13 68 42 87 64 39 44 48 49 56 28z m218 -41
c-4 -8 -11 -15 -16 -15 -6 0 -5 6 2 15 7 8 14 15 16 15 2 0 1 -7 -2 -15z
m-704 -60 c-7 -9 -15 -13 -17 -11 -7 7 7 26 19 26 6 0 6 -6 -2 -15z m395 -24
c-3 -6 -11 -11 -17 -11 -6 0 -6 6 2 15 14 17 26 13 15 -4z m-49 -26 c-11 -8
-25 -15 -30 -15 -6 0 -2 7 8 15 11 8 25 15 30 15 6 0 2 -7 -8 -15z m-342 -56
c-6 -10 20 -40 30 -34 3 3 4 2 2 -1 -2 -3 -8 -6 -13 -7 -14 -3 -43 -31 -43
-43 0 -7 -8 -10 -20 -7 -14 4 -20 1 -18 -7 2 -7 -2 -14 -8 -17 -6 -2 -10 4 -9
14 5 37 18 63 32 63 8 0 12 4 8 10 -9 14 17 49 32 43 7 -3 10 -9 7 -14z m46
17 c0 -3 -4 -8 -10 -11 -5 -3 -10 -1 -10 4 0 6 5 11 10 11 6 0 10 -2 10 -4z
m68 -66 c-10 -29 -25 -46 -33 -38 -5 4 32 68 39 68 3 0 0 -14 -6 -30z m-118
-75 c0 -12 -19 -12 -23 0 -4 9 -1 12 9 8 7 -3 14 -7 14 -8z m83 -2 c-8 -23
-33 -60 -33 -50 0 11 29 67 35 67 2 0 2 -8 -2 -17z m1696 -5 c-2 -2 -16 -14
-31 -27 l-28 -24 13 26 c7 15 20 27 31 27 11 0 17 -1 15 -2z m-1884 -38 c-9
-16 -20 -30 -26 -30 -6 0 -1 14 11 30 12 17 23 30 26 30 2 0 -2 -13 -11 -30z
m71 -8 c-17 -16 -18 -16 -5 5 7 12 15 20 18 17 3 -2 -3 -12 -13 -22z m132 -7
c-3 -3 -9 2 -12 12 -6 14 -5 15 5 6 7 -7 10 -15 7 -18z m1611 12 c-1 -22 -15
-48 -24 -48 -6 1 -10 -7 -10 -16 0 -10 -12 -25 -26 -35 -24 -15 -69 -68 -69
-82 0 -3 8 -3 18 0 11 4 8 -2 -9 -18 -15 -13 -34 -39 -43 -59 -9 -20 -32 -52
-50 -72 -18 -20 -31 -38 -29 -41 3 -2 -6 -10 -19 -17 -12 -7 -35 -25 -49 -41
-26 -27 -26 -28 -4 -22 l22 5 -13 -73 c-7 -40 -13 -84 -13 -98 0 -24 1 -24 14
5 8 17 22 52 31 78 14 39 23 49 46 54 15 3 28 10 28 15 0 6 17 7 43 2 23 -4
48 -7 55 -7 6 0 12 -4 12 -9 0 -14 40 -9 46 7 4 8 12 15 20 15 18 0 54 -40 54
-61 0 -27 21 -34 27 -10 3 12 10 18 17 14 12 -8 17 -9 54 -11 14 -1 26 -10 29
-21 6 -24 43 -36 43 -14 0 8 6 13 13 10 6 -2 11 -10 9 -16 -1 -8 7 -11 20 -9
13 2 22 -2 21 -7 -1 -7 13 -9 34 -7 34 4 35 4 23 -18 -11 -20 -10 -22 4 -17
11 5 16 1 16 -13 0 -11 4 -20 9 -20 4 0 20 -12 35 -26 26 -27 35 -64 15 -64
-5 0 -7 -5 -3 -11 4 -7 -3 -6 -17 2 -13 7 -26 12 -29 11 -3 -1 -6 3 -6 8 -3
23 -5 24 -13 11 -7 -11 -11 -9 -20 8 -13 24 -31 28 -31 7 0 -8 15 -27 33 -42
17 -15 24 -25 15 -21 -22 8 -23 -1 -1 -25 15 -17 15 -18 -10 -18 -32 0 -71 38
-57 55 7 8 4 18 -10 30 -20 18 -21 18 -14 0 5 -13 4 -16 -4 -11 -24 14 -12
-31 14 -58 37 -37 23 -32 -32 9 -42 32 -53 36 -103 34 -31 -1 -65 1 -77 5 -11
3 -37 0 -57 -9 -20 -8 -52 -15 -72 -15 -19 0 -35 -4 -35 -10 0 -5 -11 -10 -25
-10 -14 0 -25 -4 -25 -10 0 -5 -16 -12 -36 -16 -45 -8 -78 -39 -82 -78 -2 -16
-17 -49 -33 -72 -16 -23 -29 -47 -29 -53 0 -6 -11 -21 -25 -34 -15 -13 -27
-34 -28 -46 -1 -14 -11 -27 -24 -32 -16 -6 -21 -13 -16 -25 5 -13 3 -15 -8 -8
-8 4 -22 7 -31 6 -11 -2 -18 3 -18 12 0 9 -8 16 -19 16 -10 0 -21 7 -25 15 -3
8 -15 15 -27 15 -16 0 -19 3 -11 13 8 10 6 16 -9 25 -10 7 -19 23 -19 36 0 13
-4 26 -8 28 -17 7 -72 98 -74 122 -1 14 -8 26 -15 26 -7 0 -19 11 -28 24 -18
26 -130 62 -163 52 -11 -4 -32 -4 -47 0 -25 6 -25 7 -8 26 17 19 17 19 -12 12
-17 -4 -40 -11 -52 -15 -14 -5 -23 -4 -27 4 -3 8 -7 9 -13 2 -4 -5 -17 -17
-27 -25 -16 -12 -18 -12 -11 -1 6 10 4 13 -6 9 -22 -8 -65 -18 -51 -12 7 3 17
14 22 25 8 15 7 17 -5 13 -8 -4 -15 -2 -15 4 0 16 66 107 77 107 6 0 28 18 50
40 36 37 149 111 164 107 4 0 15 8 24 18 10 11 26 20 35 20 9 0 21 5 28 12 16
16 33 -30 20 -54 -11 -22 4 -24 22 -4 6 8 18 12 26 9 8 -3 14 1 14 10 0 8 7
20 15 27 12 10 15 10 15 -3 0 -26 33 -9 63 33 15 21 27 42 27 47 0 12 81 98
90 96 4 -1 18 11 30 27 13 17 39 42 59 57 l35 27 -24 -39 c-13 -22 -29 -47
-37 -56 -7 -8 -13 -18 -13 -22 0 -3 21 17 48 46 26 29 51 54 55 55 4 2 40 34
78 70 39 37 74 67 78 67 3 0 12 4 19 9 22 14 26 -3 6 -25 -13 -15 -5 -12 27
10 25 17 51 37 58 44 14 17 71 20 70 4z m-112 -13 c-3 -3 -12 -4 -19 -1 -8 3
-5 6 6 6 11 1 17 -2 13 -5z m-1666 -55 c-13 -10 -28 -19 -35 -19 -6 0 3 11 19
24 17 13 32 22 35 19 3 -2 -6 -13 -19 -24z m1859 -44 c0 -8 -5 -15 -11 -15 -6
0 -9 -7 -6 -15 6 -14 -65 -115 -81 -115 -4 0 -23 -10 -42 -22 -19 -12 -48 -23
-65 -24 l-29 -2 39 36 c110 98 125 113 125 122 0 6 11 16 25 22 14 6 25 15 25
20 0 4 5 8 10 8 6 0 10 -7 10 -15z m-670 -58 c0 -2 -10 -12 -21 -23 -22 -19
-22 -19 -8 4 12 19 29 30 29 19z m1110 -18 c0 -5 -4 -9 -10 -9 -5 0 -10 7 -10
16 0 8 5 12 10 9 6 -3 10 -10 10 -16z m-1170 0 c0 -6 -13 -28 -28 -48 -15 -20
-34 -49 -42 -65 -8 -16 -28 -35 -45 -42 -35 -15 -46 -1 -18 24 10 9 19 24 21
32 4 16 92 108 105 109 4 1 7 -4 7 -10z m1108 -6 c-2 -9 -14 -20 -28 -23 l-25
-6 27 -18 c28 -18 30 -40 4 -30 -8 3 -17 1 -21 -5 -4 -7 6 -14 24 -17 29 -6
46 -27 36 -44 -3 -5 -12 -7 -20 -3 -18 6 -19 -1 -5 -28 7 -13 7 -19 0 -19 -5
0 -10 6 -11 13 0 10 -2 10 -6 0 -2 -7 -19 -13 -36 -13 -28 0 -29 -1 -12 -13
11 -9 15 -19 10 -27 -5 -9 -4 -11 3 -6 16 10 15 -6 -1 -28 -10 -13 -26 -18
-58 -18 -24 0 -38 -2 -31 -5 6 -3 12 -9 12 -15 0 -6 -7 -8 -14 -5 -10 4 -13 1
-9 -9 4 -10 0 -12 -11 -8 -9 3 -14 10 -11 14 8 13 -6 41 -17 34 -5 -3 -6 -13
-3 -23 11 -27 14 -51 7 -51 -4 0 -20 9 -36 19 -26 18 -27 20 -10 30 11 6 13
11 7 11 -7 0 -13 4 -13 10 0 5 8 7 18 4 16 -5 16 -5 -1 6 -9 6 -21 9 -26 5 -5
-3 -12 4 -16 15 -4 11 -11 18 -16 15 -18 -12 -31 6 -17 23 7 9 9 13 3 10 -5
-3 -18 -3 -28 1 -15 6 -14 11 14 52 37 52 97 84 141 75 27 -5 32 0 29 29 0 6
19 19 44 30 25 11 45 22 45 25 0 3 14 7 31 8 24 2 30 -1 27 -15z m25 2 c-3 -9
-8 -14 -10 -11 -3 3 -2 9 2 15 9 16 15 13 8 -4z m-1001 -7 c-16 -16 -15 -31 1
-22 9 5 9 3 -1 -7 -7 -8 -18 -14 -25 -14 -7 0 -12 -4 -12 -10 0 -5 -24 -32
-54 -60 -46 -43 -51 -46 -38 -20 32 58 73 110 87 110 8 0 21 8 28 18 7 9 16
17 20 17 3 0 1 -5 -6 -12z m-141 -125 c-38 -57 -71 -93 -71 -78 0 38 28 89 63
115 23 16 42 28 44 26 2 -2 -14 -30 -36 -63z m1156 61 c-3 -3 -12 -4 -19 -1
-8 3 -5 6 6 6 11 1 17 -2 13 -5z m-387 -82 c-23 -29 -38 -38 -65 -40 -21 -2
-35 2 -35 9 0 7 10 9 25 7 19 -4 25 -1 25 12 0 9 15 24 33 33 48 24 51 21 17
-21z m-2129 -87 c-8 -36 -9 -37 -10 -10 -1 36 12 87 16 65 2 -9 -1 -33 -6 -55z
m2393 -64 c3 -5 -3 -11 -15 -14 -16 -4 -18 -3 -8 9 13 16 16 17 23 5z m-1644
-172 c0 -13 4 -18 13 -13 8 6 8 3 -1 -9 -8 -9 -17 -16 -20 -15 -4 1 -23 -6
-42 -15 -41 -18 -46 -16 -30 13 30 56 80 81 80 39z m-25 -75 c-9 -9 -19 -13
-23 -10 -3 4 0 11 8 16 24 15 33 11 15 -6z m41 -9 c-11 -8 -22 -12 -25 -9 -6
6 19 24 34 24 6 -1 1 -7 -9 -15z m1688 -15 c-6 -6 -10 -3 -10 10 0 13 4 16 10
10 7 -7 7 -13 0 -20z m-1680 -15 c-7 -16 -54 -21 -54 -6 0 5 12 12 28 14 15 2
28 5 29 6 1 0 0 -6 -3 -14z m-74 -9 c0 -3 -4 -8 -10 -11 -5 -3 -10 -1 -10 4 0
6 5 11 10 11 6 0 10 -2 10 -4z m1471 -24 c-13 -2 -27 0 -32 5 -6 6 3 7 23 4
28 -4 29 -6 9 -9z m-1213 -11 c7 -1 10 -5 7 -11 -4 -6 4 -6 22 1 28 10 107 -4
118 -21 11 -18 -46 -16 -67 1 -23 21 -38 24 -38 9 0 -5 5 -10 10 -10 6 0 10
-4 10 -9 0 -4 -21 -11 -47 -14 -27 -4 -59 -9 -73 -12 -14 -3 -55 -8 -92 -10
-38 -2 -76 -9 -87 -14 -10 -6 -21 -7 -25 -4 -3 3 -6 2 -6 -4 0 -6 -12 -10 -26
-10 -19 0 -22 2 -13 8 12 8 11 11 -1 19 -13 8 -12 10 3 10 10 0 15 5 12 11 -4
6 2 13 14 16 13 3 21 13 21 25 0 16 5 19 23 14 12 -3 33 -6 47 -7 20 -1 18 -3
-10 -9 l-35 -7 40 -3 c54 -3 66 -1 94 20 14 10 37 16 55 14 17 -1 37 -3 44 -3z
m1091 -10 c11 -7 10 -11 -5 -20 -16 -10 -12 -11 21 -6 110 19 170 22 186 8 8
-7 23 -13 32 -13 9 0 17 -4 17 -8 0 -5 7 -17 16 -28 8 -10 13 -13 9 -6 -3 6
-2 12 3 12 16 0 24 -33 10 -42 -14 -9 -50 -7 -58 3 -5 7 -49 14 -172 29 -105
12 -159 48 -105 70 28 11 29 11 46 1z m271 -12 c0 -6 -4 -7 -10 -4 -5 3 -10
11 -10 16 0 6 5 7 10 4 6 -3 10 -11 10 -16z m30 -9 c0 -5 -5 -10 -11 -10 -5 0
-7 5 -4 10 3 6 8 10 11 10 2 0 4 -4 4 -10z m-1720 -80 c0 -5 -7 -10 -16 -10
-8 0 -12 5 -9 10 3 6 10 10 16 10 5 0 9 -4 9 -10z m1370 -40 c0 -30 -1 -30
-52 -30 -50 0 -52 1 -30 16 21 14 74 44 80 44 1 0 2 -13 2 -30z m105 10 c3 -5
-1 -10 -10 -10 -9 0 -13 5 -10 10 3 6 8 10 10 10 2 0 7 -4 10 -10z m-1008 -36
c4 -11 -65 -39 -74 -31 -2 3 0 14 5 24 11 20 63 25 69 7z m1113 -4 c0 -5 -5
-10 -11 -10 -5 0 -7 5 -4 10 3 6 8 10 11 10 2 0 4 -4 4 -10z m-360 -14 c0 -3
-4 -8 -10 -11 -5 -3 -10 -1 -10 4 0 6 5 11 10 11 6 0 10 -2 10 -4z m-995 -17
c10 -15 -1 -23 -20 -15 -9 3 -13 10 -10 16 8 13 22 13 30 -1z m255 -26 c0 -10
-4 -14 -8 -8 -4 6 -11 13 -16 18 -5 4 -2 7 7 7 10 0 17 -8 17 -17z m676 -25
c2 -22 -2 -28 -17 -28 -11 0 -18 4 -15 9 3 5 -1 11 -9 15 -8 3 -15 13 -15 21
0 12 8 15 26 13 21 -2 28 -9 30 -30z m-476 6 c0 -17 -22 -14 -28 4 -2 7 3 12
12 12 9 0 16 -7 16 -16z m1224 -129 c3 -9 -1 -18 -9 -21 -8 -4 -15 -13 -15
-20 0 -12 -4 -12 -21 -4 -22 12 -21 31 2 38 11 3 12 2 0 -6 -9 -6 -10 -12 -3
-16 6 -4 16 2 21 13 8 14 8 21 -2 24 -7 4 -6 6 4 6 9 1 20 -6 23 -14z m-1053
-87 c-17 -41 -47 -54 -36 -15 4 12 9 30 11 39 3 9 13 16 23 15 17 -1 17 -3 2
-39z m1029 12 c0 -5 -2 -10 -4 -10 -3 0 -8 5 -11 10 -3 6 -1 10 4 10 6 0 11
-4 11 -10z m-936 -115 c-4 -8 -8 -15 -10 -15 -2 0 -4 7 -4 15 0 8 4 15 10 15
5 0 7 -7 4 -15z m144 -24 c10 -6 10 -10 -3 -21 -10 -8 -15 -9 -15 -1 0 6 -5
11 -11 11 -5 0 -7 -5 -3 -12 4 -7 3 -8 -4 -4 -13 8 -4 36 12 36 6 0 17 -4 24
-9z m-79 -149 c0 -11 -3 -12 -6 -4 -2 6 -12 12 -21 12 -14 0 -15 2 -2 9 18 12
30 5 29 -17z m933 -99 c-6 -3 -9 -10 -6 -15 4 -7 2 -8 -5 -4 -9 6 -9 11 0 22
6 8 15 12 18 8 3 -4 0 -9 -7 -11z m-782 -103 c0 -5 -5 -10 -11 -10 -5 0 -8 -4
-5 -9 4 -5 -3 -7 -14 -4 -16 4 -18 8 -9 19 13 16 39 19 39 4z m750 -44 c0 -3
-4 -8 -10 -11 -5 -3 -10 -1 -10 4 0 6 5 11 10 11 6 0 10 -2 10 -4z m-724 -83
c-8 -8 -36 5 -36 17 0 7 6 7 21 0 11 -7 18 -14 15 -17z m-411 -103 c3 -5 -1
-10 -10 -10 -9 0 -13 5 -10 10 3 6 8 10 10 10 2 0 7 -4 10 -10z m373 -30 c27
-40 28 -60 3 -60 -11 0 -21 -9 -24 -21 -4 -15 -11 -20 -22 -15 -13 5 -15 2 -9
-16 5 -17 3 -20 -11 -15 -9 4 -25 2 -36 -4 -15 -8 -25 -6 -44 10 -32 24 -61
17 -70 -17 -14 -55 -34 -58 -152 -25 -54 15 -65 26 -37 37 13 5 14 9 4 21 -7
8 -9 23 -6 32 4 10 4 15 1 11 -4 -3 -16 3 -27 14 -16 16 -18 22 -7 29 19 12
30 11 27 -1 -4 -15 134 -26 202 -16 31 5 70 26 70 38 1 8 7 5 15 -6 14 -18 15
-19 15 -2 0 15 6 17 30 14 17 -3 30 0 30 6 0 5 6 4 13 -3 10 -10 9 -15 -5 -25
-25 -19 -22 -31 7 -32 22 -2 24 0 14 13 -10 11 -10 16 -1 22 9 5 6 14 -10 30
-12 14 -15 22 -7 19 8 -2 24 -19 37 -38z m-428 0 c0 -5 -4 -10 -10 -10 -5 0
-10 5 -10 10 0 6 5 10 10 10 6 0 10 -4 10 -10z m250 -140 c0 -5 -2 -10 -4 -10
-3 0 -8 5 -11 10 -3 6 -1 10 4 10 6 0 11 -4 11 -10z m-1207 -20 c-3 -11 -9
-20 -13 -20 -5 0 -6 9 -3 20 3 11 9 20 13 20 5 0 6 -9 3 -20z m1 -96 c9 -23 7
-31 -6 -37 -8 -3 -14 6 -15 24 -2 31 11 39 21 13z m1260 7 c3 -5 -1 -14 -9
-21 -8 -7 -13 -16 -10 -20 3 -4 -21 -6 -52 -4 -35 2 -63 -2 -72 -9 -11 -9 -15
-9 -18 1 -3 6 -13 12 -24 12 -10 0 -19 5 -19 12 0 9 -3 9 -12 0 -7 -7 -17 -12
-24 -12 -14 0 -13 32 1 42 14 11 233 10 239 -1z m-1219 -11 c3 -5 1 -10 -4
-10 -6 0 -11 5 -11 10 0 6 2 10 4 10 3 0 8 -4 11 -10z m935 0 c0 -5 -5 -10
-11 -10 -5 0 -7 5 -4 10 3 6 8 10 11 10 2 0 4 -4 4 -10z m540 -93 c0 -7 -13
-23 -28 -34 -26 -19 -28 -19 -28 -2 0 9 3 16 7 14 3 -3 15 4 25 15 23 23 24
23 24 7z m-1290 -43 c0 -8 -4 -12 -10 -9 -5 3 -10 10 -10 16 0 5 5 9 10 9 6 0
10 -7 10 -16z m898 -244 c4 -13 3 -13 -10 -2 -11 9 -18 10 -23 2 -3 -5 -13
-10 -21 -10 -12 0 -13 3 -2 15 16 18 50 15 56 -5z m402 -31 c0 -4 -9 -13 -20
-19 -17 -9 -20 -8 -20 8 0 10 3 21 6 25 8 8 34 -3 34 -14z m-379 -35 c6 -3 9
2 7 12 -3 16 4 19 47 21 31 2 45 -1 36 -6 -8 -5 -10 -14 -6 -21 4 -7 9 -22 9
-34 1 -12 8 -20 15 -18 8 2 21 0 30 -3 13 -5 13 -8 2 -15 -8 -4 -11 -15 -8
-25 4 -9 11 -14 16 -10 5 3 16 -4 24 -15 14 -21 14 -21 20 2 6 22 7 22 21 3
23 -31 19 -42 -13 -37 -26 4 -29 2 -24 -17 6 -22 -11 -29 -23 -10 -4 8 -9 8
-18 -1 -8 -8 -7 -13 4 -20 12 -8 12 -10 -5 -11 -11 -1 -28 0 -38 0 -9 1 -20
-6 -24 -16 -13 -35 -29 -43 -46 -23 -15 18 -18 18 -49 3 -18 -9 -36 -21 -39
-26 -3 -5 -9 -2 -12 7 -4 9 -13 16 -22 16 -8 0 -15 7 -15 16 0 14 -2 14 -16 3
-14 -11 -18 -10 -30 5 -9 13 -20 17 -38 12 -16 -4 -26 -2 -26 4 0 6 6 8 13 4
7 -4 9 -3 4 2 -5 5 -12 9 -15 9 -4 0 -17 10 -30 23 -25 25 -23 58 4 48 10 -4
13 -2 7 7 -4 6 -9 20 -10 31 -3 15 -1 16 11 7 16 -14 29 -1 21 21 -7 17 35 19
47 3 4 -6 8 -2 8 8 0 10 13 31 29 47 30 28 31 28 76 15 25 -8 50 -17 56 -21z
m-477 11 c-5 -11 -11 -12 -25 -4 -26 13 -24 19 6 19 17 0 23 -4 19 -15z m-594
-5 c0 -5 -2 -10 -4 -10 -3 0 -8 5 -11 10 -3 6 -1 10 4 10 6 0 11 -4 11 -10z
m746 -10 c9 0 13 -4 10 -8 -3 -5 6 -27 20 -51 17 -31 21 -47 14 -59 -9 -16 -9
-16 -10 1 0 9 -7 17 -16 17 -13 0 -14 3 -4 15 10 12 6 16 -22 24 -31 9 -32 10
-10 17 13 4 19 10 14 13 -5 3 -12 17 -16 31 -3 14 -3 19 0 13 3 -7 12 -13 20
-13z m-538 -25 c-3 -34 -24 -32 -22 3 2 34 2 34 14 27 5 -3 9 -17 8 -30z m609
-11 c-3 -3 -12 -4 -19 -1 -8 3 -5 6 6 6 11 1 17 -2 13 -5z m-159 -29 c-3 -3
-9 2 -12 12 -6 14 -5 15 5 6 7 -7 10 -15 7 -18z m1007 -126 c-19 -35 -30 -32
-21 6 4 14 13 25 21 25 14 0 14 -4 0 -31z m-995 -149 c0 -5 -4 -10 -10 -10 -5
0 -10 5 -10 10 0 6 5 10 10 10 6 0 10 -4 10 -10z m50 6 c0 -3 -4 -8 -10 -11
-5 -3 -10 -1 -10 4 0 6 5 11 10 11 6 0 10 -2 10 -4z m-163 -42 c-6 -6 -47 9
-47 17 0 5 11 3 25 -3 14 -6 24 -13 22 -14z m-50 -26 c-3 -8 -6 -5 -6 6 -1 11
2 17 5 13 3 -3 4 -12 1 -19z m1077 -164 c8 -3 12 -12 9 -21 -4 -11 -2 -14 5
-9 7 4 12 3 12 -2 0 -6 -7 -13 -15 -16 -13 -4 -14 -10 -5 -26 8 -15 8 -20 -1
-20 -7 0 -20 -7 -29 -15 -14 -12 -19 -12 -45 6 -25 17 -26 20 -8 16 16 -3 27
2 38 19 8 13 23 24 32 24 15 0 15 1 0 18 -26 28 -23 37 7 26z m-1382 -11 c-6
-3 -10 -9 -6 -14 3 -5 -2 -9 -11 -9 -9 0 -14 4 -11 9 4 5 0 11 -6 14 -7 2 1 4
17 4 17 0 24 -2 17 -4z m-27 -42 c3 -5 1 -12 -5 -16 -5 -3 -10 1 -10 9 0 18 6
21 15 7z m1135 -21 c-8 -5 -19 -10 -25 -10 -5 0 -3 5 5 10 8 5 20 10 25 10 6
0 3 -5 -5 -10z m138 -60 c-7 -10 -14 -17 -17 -15 -4 4 18 35 25 35 2 0 -1 -9
-8 -20z m-160 -2 c-2 -7 4 -12 12 -10 10 1 9 -2 -4 -13 -23 -17 -36 -19 -36
-5 0 5 -7 7 -15 4 -11 -5 -13 -2 -9 9 5 14 19 22 47 26 4 0 6 -5 5 -11z m47
-18 c3 -5 1 -10 -4 -10 -6 0 -11 5 -11 10 0 6 2 10 4 10 3 0 8 -4 11 -10z
m615 -190 c-6 -11 -12 -20 -14 -20 -2 0 -2 9 1 20 3 11 9 20 15 20 5 0 4 -9
-2 -20z m-305 0 c3 -5 1 -10 -4 -10 -6 0 -11 5 -11 10 0 6 2 10 4 10 3 0 8 -4
11 -10z m65 -34 c0 -3 -4 -8 -10 -11 -5 -3 -10 -1 -10 4 0 6 5 11 10 11 6 0
10 -2 10 -4z m-120 -66 c-20 -13 -33 -13 -25 0 3 6 14 10 23 10 15 0 15 -2 2
-10z"/>
<path d="M4267 5963 c-4 -3 -7 -11 -7 -17 0 -6 5 -5 12 2 6 6 9 14 7 17 -3 3
-9 2 -12 -2z"/>
<path d="M4775 5460 c3 -5 11 -10 16 -10 6 0 7 5 4 10 -3 6 -11 10 -16 10 -6
0 -7 -4 -4 -10z"/>
<path d="M4210 3390 c0 -5 4 -10 9 -10 6 0 13 5 16 10 3 6 -1 10 -9 10 -9 0
-16 -4 -16 -10z"/>
<path d="M4231 3274 c0 -11 3 -14 6 -6 3 7 2 16 -1 19 -3 4 -6 -2 -5 -13z"/>
<path d="M3910 7280 c0 -5 5 -10 10 -10 6 0 10 5 10 10 0 6 -4 10 -10 10 -5 0
-10 -4 -10 -10z"/>
<path d="M3755 7200 c-3 -6 1 -7 9 -4 18 7 21 14 7 14 -6 0 -13 -4 -16 -10z"/>
<path d="M3800 7175 c-13 -14 -19 -25 -13 -25 12 0 48 38 41 45 -2 3 -15 -6
-28 -20z"/>
<path d="M3685 7170 c-3 -5 -1 -10 4 -10 6 0 11 5 11 10 0 6 -2 10 -4 10 -3 0
-8 -4 -11 -10z"/>
<path d="M4975 7140 c3 -5 8 -10 11 -10 2 0 4 5 4 10 0 6 -5 10 -11 10 -5 0
-7 -4 -4 -10z"/>
<path d="M3935 7130 c-3 -5 1 -10 9 -10 9 0 16 5 16 10 0 6 -4 10 -9 10 -6 0
-13 -4 -16 -10z"/>
<path d="M3884 7073 c-4 -12 -12 -19 -19 -17 -7 3 -16 0 -20 -6 -10 -17 -13
-60 -4 -60 12 0 63 90 55 98 -4 3 -9 -3 -12 -15z"/>
<path d="M3667 7013 c-26 -26 -47 -52 -47 -59 0 -6 -9 -19 -20 -29 -11 -10
-20 -25 -20 -34 0 -9 -16 -31 -35 -50 -28 -28 -32 -37 -22 -51 10 -17 12 -17
34 -2 14 10 21 24 19 35 -3 10 2 21 10 24 8 3 14 9 14 15 0 11 26 39 31 34 2
-2 12 7 22 20 10 13 13 24 7 24 -6 0 -13 -7 -16 -15 -4 -8 -13 -15 -22 -15
-10 0 2 17 33 46 32 30 45 48 37 51 -10 4 -8 11 9 29 41 44 13 25 -34 -23z"/>
<path d="M4017 7053 c-4 -3 -7 -15 -7 -25 0 -18 1 -18 16 -3 11 10 13 20 7 26
-5 5 -12 6 -16 2z"/>
<path d="M3714 7025 c-7 -16 2 -35 17 -35 5 0 9 5 9 11 0 5 -6 7 -12 3 -10 -6
-10 -4 0 7 6 7 12 17 12 21 0 14 -20 9 -26 -7z"/>
<path d="M3489 6910 c-13 -10 -19 -19 -13 -20 6 0 19 9 29 20 23 26 14 26 -16
0z"/>
<path d="M3128 6738 c-39 -38 -47 -58 -25 -58 6 0 1 -9 -13 -20 -14 -11 -19
-20 -11 -20 11 0 11 -3 1 -15 -7 -8 -16 -13 -20 -10 -4 2 -15 -4 -25 -15 -16
-18 -16 -18 7 -13 31 8 60 34 54 49 -3 7 2 18 10 24 8 7 14 18 14 24 0 6 14
23 31 37 23 19 29 30 23 40 -7 12 -16 7 -46 -23z"/>
<path d="M3029 6684 c-13 -14 -32 -34 -42 -44 -11 -10 -17 -26 -15 -37 3 -15
8 -13 35 16 18 19 30 38 27 43 -4 5 3 12 15 15 22 6 27 18 12 27 -5 3 -20 -6
-32 -20z"/>
<path d="M3014 6556 c-10 -8 -16 -17 -13 -20 3 -3 14 3 24 14 21 23 17 26 -11
6z"/>
<path d="M3525 5080 c3 -5 8 -10 11 -10 2 0 4 5 4 10 0 6 -5 10 -11 10 -5 0
-7 -4 -4 -10z"/>
<path d="M4770 5006 c0 -2 11 -6 25 -8 13 -3 22 -1 19 3 -5 9 -44 13 -44 5z"/>
<path d="M4360 4826 c0 -9 30 -14 35 -6 4 6 -3 10 -14 10 -12 0 -21 -2 -21 -4z"/>
<path d="M3996 4745 c-11 -8 -15 -15 -9 -15 6 0 19 -3 29 -7 12 -4 15 -3 10 5
-4 7 -1 12 9 12 9 0 13 5 10 10 -9 14 -27 12 -49 -5z"/>
<path d="M4861 4424 c0 -11 3 -14 6 -6 3 7 2 16 -1 19 -3 4 -6 -2 -5 -13z"/>
<path d="M4426 4335 c4 -8 11 -15 16 -15 6 0 5 6 -2 15 -7 8 -14 15 -16 15 -2
0 -1 -7 2 -15z"/>
<path d="M3850 4288 c0 -11 5 -18 13 -16 18 7 20 35 2 35 -8 0 -15 -9 -15 -19z"/>
<path d="M3770 4280 c0 -19 3 -21 12 -12 9 9 9 15 0 24 -9 9 -12 7 -12 -12z"/>
<path d="M3680 4160 c0 -5 5 -10 10 -10 6 0 10 5 10 10 0 6 -4 10 -10 10 -5 0
-10 -4 -10 -10z"/>
<path d="M3560 4135 c0 -8 7 -15 16 -15 14 0 14 3 4 15 -7 8 -14 15 -16 15 -2
0 -4 -7 -4 -15z"/>
<path d="M3510 4121 c0 -5 5 -13 10 -16 6 -3 10 -2 10 4 0 5 -4 13 -10 16 -5
3 -10 2 -10 -4z"/>
<path d="M3607 4113 c-4 -3 -7 -11 -7 -17 0 -6 5 -5 12 2 6 6 9 14 7 17 -3 3
-9 2 -12 -2z"/>
<path d="M4150 3819 c0 -6 6 -9 14 -6 7 3 19 0 25 -6 8 -8 11 -7 11 6 0 11 -8
17 -25 17 -14 0 -25 -5 -25 -11z"/>
<path d="M3685 3780 c3 -5 8 -10 11 -10 2 0 4 5 4 10 0 6 -5 10 -11 10 -5 0
-7 -4 -4 -10z"/>
<path d="M4066 3735 c-3 -8 -1 -15 3 -15 5 0 16 -3 25 -6 10 -4 16 -1 16 9 0
8 -7 18 -16 21 -21 8 -21 8 -28 -9z"/>
<path d="M4165 3740 c-3 -5 -1 -10 4 -10 6 0 11 5 11 10 0 6 -2 10 -4 10 -3 0
-8 -4 -11 -10z"/>
<path d="M2500 3428 c-11 -18 -20 -38 -20 -45 0 -19 -12 -22 -58 -13 -61 11
-38 -4 27 -19 44 -9 56 -9 62 1 5 9 23 12 52 10 44 -4 54 -13 62 -57 7 -45 18
-75 27 -75 6 0 8 -10 4 -25 -4 -14 -2 -25 4 -25 5 0 10 4 10 10 0 6 9 6 26 -1
15 -5 27 -8 28 -7 1 2 6 17 12 33 9 26 14 30 42 27 26 -2 35 3 44 23 10 22 8
29 -18 56 -37 38 -167 139 -180 139 -6 0 -20 -9 -32 -20 l-22 -21 -17 21 c-23
27 -30 25 -53 -12z m210 -208 c12 -7 10 -9 -8 -7 -12 0 -22 5 -22 9 0 11 12
10 30 -2z"/>
<path d="M2180 3381 c20 -11 53 -20 75 -20 l40 1 -50 12 c-27 7 -61 16 -75 20
-18 5 -15 1 10 -13z"/>
<path d="M1925 3346 c-165 -57 -196 -79 -178 -132 15 -44 37 -52 72 -26 40 29
79 28 159 -7 37 -16 86 -35 110 -43 l43 -13 -6 -45 c-12 -84 -27 -121 -53
-131 -17 -6 -29 -6 -36 1 -7 7 -3 10 11 10 30 0 37 17 11 24 -14 3 -26 0 -31
-9 -4 -8 -13 -15 -18 -15 -6 0 -7 5 -3 12 5 8 0 9 -14 6 -12 -4 -22 -2 -22 4
0 5 9 12 20 15 21 6 28 23 9 23 -5 0 -7 5 -4 10 3 6 0 10 -7 10 -7 0 -25 7
-40 14 -24 13 -28 13 -28 0 0 -8 -7 -14 -16 -14 -11 0 -14 -6 -9 -21 5 -15 4
-19 -4 -15 -6 4 -11 1 -11 -6 0 -8 -13 -18 -28 -24 -25 -10 -28 -15 -24 -43 3
-24 1 -31 -13 -31 -11 0 -16 -7 -15 -22 3 -37 0 -44 -11 -28 -8 12 -10 10 -8
-10 1 -14 0 -32 -3 -40 -3 -8 -16 -64 -27 -125 -28 -139 -133 -577 -142 -589
-4 -4 -5 46 -2 111 6 119 -1 198 -16 189 -14 -9 -40 32 -34 54 4 16 8 18 14 8
7 -10 9 -9 9 3 0 9 -9 19 -20 22 -11 3 -24 17 -30 32 -9 24 -14 27 -42 21 -51
-10 -55 -22 -18 -56 18 -17 26 -28 19 -25 -8 3 -20 -5 -28 -17 -13 -21 -13
-22 3 -9 15 13 19 13 27 0 5 -8 9 -18 9 -24 0 -5 -4 -4 -9 4 -5 7 -14 10 -21
6 -8 -5 -8 -10 -2 -14 5 -3 19 -23 31 -45 17 -29 18 -37 7 -33 -10 4 -13 1
-10 -8 3 -8 11 -12 17 -9 8 3 13 -14 14 -53 2 -32 5 -85 8 -118 3 -33 2 -67
-1 -75 -6 -15 -16 -110 -16 -143 1 -10 -6 -21 -14 -24 -11 -4 -12 -8 -4 -13 8
-5 7 -17 -4 -45 -20 -46 -20 -64 -1 -84 12 -15 10 -28 -19 -116 -18 -55 -44
-134 -56 -175 -13 -41 -27 -79 -32 -84 -4 -6 -8 -22 -8 -36 0 -14 -6 -32 -12
-39 -11 -11 -10 -14 0 -18 10 -4 10 -8 0 -21 -7 -8 -12 -17 -10 -19 1 -1 0 -2
-1 0 -2 1 -11 -4 -20 -12 -15 -12 -17 -10 -17 14 0 27 -1 28 -20 10 -20 -18
-21 -17 -9 30 1 6 -3 21 -9 35 -10 24 -11 24 -11 3 -1 -21 -17 -40 -27 -30 -3
3 -6 15 -8 28 -6 39 -18 69 -28 69 -5 0 -8 -6 -7 -12 3 -27 -2 -38 -17 -38
-14 0 -14 -2 -3 -16 12 -15 15 -14 25 11 8 19 14 24 19 15 4 -7 2 -16 -4 -20
-7 -4 -14 -16 -16 -26 -2 -10 -4 -21 -4 -23 -1 -2 -7 2 -15 8 -12 10 -13 9 -9
-8 8 -32 201 -257 304 -356 95 -91 280 -249 311 -266 14 -8 24 3 57 63 23 40
43 89 46 108 3 19 11 60 17 90 7 30 13 60 13 65 2 14 15 56 25 80 5 11 28 64
51 118 23 53 43 97 45 97 1 0 0 -25 -3 -55 -4 -38 -2 -55 6 -55 6 0 11 -5 11
-10 0 -6 9 -30 21 -53 37 -75 57 -144 74 -254 10 -59 26 -129 36 -154 l20 -45
-34 -36 c-33 -35 -72 -105 -79 -142 -2 -14 17 -29 80 -63 46 -25 87 -42 91
-37 4 5 16 41 26 79 10 39 21 74 26 79 4 5 20 -1 35 -13 31 -25 81 -27 103 -6
9 8 39 30 66 48 33 21 58 47 73 77 22 42 23 53 18 160 -8 149 -21 224 -56 330
-52 160 -135 297 -200 330 -21 11 -57 42 -80 68 -22 27 -52 55 -66 63 -22 11
-25 18 -19 49 3 19 15 53 25 75 10 22 26 58 35 80 9 22 21 48 26 57 5 10 21
52 35 94 14 43 32 86 39 98 13 20 66 195 90 296 0 3 4 14 8 25 3 11 8 31 11
45 3 14 10 43 16 65 29 111 51 263 50 335 -1 25 -1 52 0 60 6 79 7 220 2 220
-4 0 -7 33 -6 73 1 78 -15 125 -48 146 -14 9 -18 9 -13 1 14 -22 -278 7 -336
33 -50 22 -156 29 -204 13z m180 -39 c50 -14 113 -29 140 -33 l50 -8 -55 -8
c-30 -5 -113 -9 -185 -8 -100 0 -142 -5 -182 -19 -56 -19 -60 -17 -42 23 16
34 138 91 174 81 6 -1 51 -14 100 -28z m117 -302 c-18 -119 -59 -331 -82 -425
-10 -41 -21 -94 -24 -117 -7 -51 -101 -406 -149 -564 -19 -63 -40 -140 -47
-171 -8 -42 -16 -58 -28 -59 -11 0 -12 -2 -4 -6 17 -7 15 -32 -3 -39 -11 -5
-12 -10 -2 -25 10 -17 9 -22 -4 -32 -13 -9 -14 -16 -5 -30 9 -14 7 -21 -6 -30
-11 -9 -14 -22 -11 -41 4 -18 1 -31 -8 -37 -8 -5 -14 -25 -14 -46 0 -25 -5
-38 -15 -40 -43 -8 -41 18 19 265 15 57 14 72 -3 72 -34 0 -30 26 31 230 19
63 46 156 60 205 13 50 38 133 54 185 17 52 37 122 45 157 8 34 19 75 26 90 6
16 12 38 14 51 1 13 14 34 28 46 14 12 26 28 26 35 0 11 -3 11 -15 1 -13 -11
-15 -8 -15 15 0 20 4 26 15 22 8 -4 17 -2 20 3 4 6 -1 10 -9 10 -9 0 -16 9
-16 20 0 11 4 20 10 20 5 0 7 7 4 14 -7 18 23 268 37 313 6 18 19 35 30 38 11
4 17 11 14 16 -4 5 2 20 12 33 l18 24 6 -57 c3 -31 -1 -96 -9 -146z m244 130
c-7 -18 5 -20 23 -2 10 10 12 8 9 -8 -3 -16 -10 -19 -36 -17 -18 2 -32 -1 -32
-7 0 -6 -3 -10 -7 -10 -23 4 -35 -3 -30 -15 3 -8 -3 -22 -13 -31 -11 -10 -19
-20 -18 -24 2 -20 -4 -31 -17 -31 -8 0 -12 6 -9 14 3 8 1 17 -4 20 -6 4 -9 -5
-7 -19 1 -15 -5 -35 -14 -46 l-17 -21 -1 21 c-1 12 4 21 10 21 7 0 6 4 -3 9
-8 6 -17 8 -21 5 -10 -6 -20 26 -14 46 6 19 49 35 66 25 5 -4 8 -1 7 6 -2 7
26 27 60 46 72 38 76 39 68 18z m4 -49 c0 -3 -4 -8 -10 -11 -5 -3 -10 -1 -10
4 0 6 5 11 10 11 6 0 10 -2 10 -4z m-876 -771 c3 -8 1 -15 -4 -15 -6 0 -10 7
-10 15 0 8 2 15 4 15 2 0 6 -7 10 -15z m858 -1522 c38 -81 62 -183 43 -183
-17 0 -45 34 -45 55 0 13 -10 29 -22 37 -18 12 -22 26 -26 96 -2 45 -2 82 2
82 4 0 25 -39 48 -87z"/>
<path d="M2290 3030 c-8 -5 -11 -12 -7 -16 4 -4 13 -2 19 4 15 15 7 24 -12 12z"/>
<path d="M5696 3195 c4 -8 -5 -15 -25 -20 -17 -4 -34 -11 -37 -17 -10 -16 7
-137 21 -152 10 -9 11 -16 3 -24 -7 -7 -7 -36 1 -94 17 -121 19 -181 8 -196
-7 -9 -6 -11 7 -6 16 6 19 -6 19 -78 0 -16 3 -28 7 -28 4 0 13 -35 20 -77 7
-43 17 -83 22 -90 5 -7 7 -16 4 -21 -3 -4 2 -28 10 -53 9 -24 18 -57 20 -74 4
-30 6 -41 25 -120 6 -22 14 -58 18 -80 5 -22 11 -47 15 -55 3 -8 10 -44 15
-80 14 -94 57 -290 72 -325 7 -16 14 -37 15 -45 2 -8 10 -40 19 -70 9 -30 18
-66 21 -78 3 -13 11 -43 20 -65 8 -23 24 -71 35 -107 12 -36 26 -71 31 -77 7
-9 6 -13 -3 -13 -12 0 -12 -2 0 -9 7 -5 19 -35 25 -67 6 -31 17 -59 23 -61 15
-5 193 204 292 342 44 61 109 159 145 220 59 98 66 115 66 162 0 29 -4 53 -9
53 -5 0 -16 51 -26 113 -52 342 -178 822 -243 927 -28 44 -55 65 -80 61 -16
-2 -22 1 -18 8 4 6 14 11 22 11 8 0 13 3 12 8 -1 4 4 18 11 30 26 47 -2 89
-94 141 -87 49 -194 84 -280 90 -45 3 -79 10 -78 16 1 6 -28 11 -67 12 -54 1
-68 -1 -64 -12z m159 -50 c33 -8 80 -14 105 -15 57 0 163 -52 198 -98 13 -18
23 -35 20 -37 -2 -3 -26 4 -54 14 -74 28 -135 36 -145 20 -6 -10 -9 -11 -9 -1
0 6 -5 12 -10 12 -6 0 -28 11 -49 25 -22 15 -45 23 -54 19 -10 -3 -17 -2 -17
4 0 5 -27 21 -60 36 -33 15 -60 29 -60 32 0 9 78 3 135 -11z m89 -160 c56 -60
64 -69 89 -105 14 -20 17 -21 17 -7 0 10 5 15 10 12 6 -4 8 -10 6 -14 -3 -4 4
-36 14 -70 25 -80 24 -108 -1 -56 l-20 40 5 -35 c3 -19 8 -53 11 -75 3 -22 10
-58 15 -80 18 -76 62 -250 81 -320 l18 -70 -5 68 c-2 37 -1 67 3 67 11 0 47
-170 88 -415 8 -49 17 -100 19 -112 3 -12 8 -54 12 -93 l7 -70 -41 0 c-43 0
-51 12 -52 75 0 17 -7 51 -14 76 -8 26 -17 71 -21 100 -4 30 -13 90 -20 134
-8 44 -26 156 -40 249 -20 129 -39 207 -80 330 -29 88 -58 188 -65 221 -13 64
-29 102 -65 150 -55 74 -40 74 29 0z m16 25 c0 -5 -4 -10 -10 -10 -5 0 -10 5
-10 10 0 6 5 10 10 10 6 0 10 -4 10 -10z"/>
<path d="M2669 3164 c-9 -11 -7 -14 10 -14 27 0 27 -17 0 -25 -21 -7 -21 -7 2
-19 28 -14 39 -5 39 35 0 31 -32 45 -51 23z"/>
<path d="M1950 3076 c0 -8 10 -13 25 -13 14 0 25 4 25 9 0 5 -4 6 -10 3 -5 -3
-10 -1 -10 4 0 6 -7 11 -15 11 -8 0 -15 -6 -15 -14z"/>
<path d="M2666 3064 c-5 -12 -2 -15 10 -10 8 3 18 6 20 6 2 0 4 5 4 10 0 16
-27 11 -34 -6z"/>
<path d="M3270 3045 c0 -8 5 -15 10 -15 6 0 10 7 10 15 0 8 -4 15 -10 15 -5 0
-10 -7 -10 -15z"/>
<path d="M3753 3034 c-10 -21 -8 -26 8 -34 11 -7 19 -7 19 -1 0 5 -6 12 -12
14 -10 4 -10 7 -1 14 7 5 9 14 5 20 -5 7 -11 3 -19 -13z"/>
<path d="M3647 2903 c-4 -3 -7 -12 -7 -19 0 -9 5 -10 24 -1 13 7 22 15 20 19
-6 10 -28 10 -37 1z"/>
<path d="M3690 2870 c0 -5 5 -10 11 -10 5 0 7 5 4 10 -3 6 -8 10 -11 10 -2 0
-4 -4 -4 -10z"/>
<path d="M4557 2754 c-4 -4 -7 -14 -7 -23 0 -11 3 -12 11 -4 6 6 10 16 7 23
-2 6 -7 8 -11 4z"/>
<path d="M5490 2729 c0 -9 7 -22 15 -29 19 -16 19 0 0 26 -12 16 -14 16 -15 3z"/>
<path d="M4574 2695 c-4 -8 -18 -15 -33 -15 -20 0 -22 -3 -11 -9 8 -6 18 -7
22 -5 4 3 8 0 8 -6 0 -20 18 -1 22 25 6 28 1 33 -8 10z"/>
<path d="M4206 2685 c-9 -26 -7 -32 5 -12 6 10 9 21 6 23 -2 3 -7 -2 -11 -11z"/>
<path d="M4222 2650 c-12 -12 -22 -23 -22 -25 0 -10 40 20 44 32 7 18 3 16
-22 -7z"/>
<path d="M4318 2614 c3 -17 7 -22 12 -13 9 13 2 39 -10 39 -4 0 -5 -12 -2 -26z"/>
<path d="M4397 2597 c-3 -8 -1 -20 3 -27 6 -9 2 -19 -8 -28 -15 -12 -15 -12 2
-4 10 5 20 21 22 36 3 28 -11 44 -19 23z"/>
<path d="M4455 2529 c-4 -6 -5 -12 -2 -15 2 -3 7 2 10 11 7 17 1 20 -8 4z"/>
<path d="M1007 2523 c-4 -3 -7 -11 -7 -17 0 -6 5 -5 12 2 6 6 9 14 7 17 -3 3
-9 2 -12 -2z"/>
<path d="M6745 2461 c-4 -8 -11 -59 -15 -115 -5 -59 -19 -136 -34 -185 -14
-46 -23 -88 -20 -93 4 -6 9 -5 14 2 5 8 8 2 9 -14 4 -62 5 -63 29 -60 13 1 25
4 27 6 9 9 76 183 99 256 34 108 34 122 -2 122 -18 0 -34 9 -47 27 -47 62 -52
67 -60 54z"/>
<path d="M1380 2451 c0 -6 4 -13 10 -16 6 -3 7 1 4 9 -7 18 -14 21 -14 7z"/>
<path d="M4680 2430 c0 -6 7 -10 15 -10 8 0 15 2 15 4 0 2 -7 6 -15 10 -8 3
-15 1 -15 -4z"/>
<path d="M4510 2419 c0 -5 5 -7 10 -4 6 3 10 8 10 11 0 2 -4 4 -10 4 -5 0 -10
-5 -10 -11z"/>
<path d="M4525 2369 c11 -16 13 -59 4 -53 -5 3 -9 -2 -9 -10 0 -9 -6 -15 -12
-13 -8 1 -13 -8 -13 -23 0 -14 -7 -31 -15 -38 -13 -11 -11 -12 10 -6 69 18
193 69 178 72 -9 2 -27 -2 -39 -9 -19 -10 -21 -9 -15 6 5 14 4 16 -8 6 -11 -9
-15 -7 -19 10 -4 14 -2 19 7 16 8 -3 12 3 11 16 -1 20 -25 39 -25 20 0 -5 -9
-9 -20 -9 -11 0 -20 6 -20 13 0 7 -5 13 -11 13 -5 0 -7 -5 -4 -11z"/>
<path d="M4645 2361 c-3 -5 -1 -12 5 -16 5 -3 10 1 10 9 0 18 -6 21 -15 7z"/>
<path d="M4380 2320 c0 -5 5 -10 10 -10 6 0 10 5 10 10 0 6 -4 10 -10 10 -5 0
-10 -4 -10 -10z"/>
<path d="M5673 2292 c13 -15 14 -21 4 -33 -6 -8 -3 -6 7 3 17 15 17 18 3 32
-22 22 -34 20 -14 -2z"/>
<path d="M800 2121 c0 -6 4 -12 8 -15 5 -3 9 1 9 9 0 8 -4 15 -9 15 -4 0 -8
-4 -8 -9z"/>
<path d="M822 2048 c2 -5 8 -9 13 -9 5 0 11 4 13 9 1 5 -4 9 -13 9 -9 0 -14
-4 -13 -9z"/>
<path d="M1090 2030 c0 -5 7 -10 16 -10 8 0 12 5 9 10 -3 6 -10 10 -16 10 -5
0 -9 -4 -9 -10z"/>
<path d="M876 1742 c-4 -7 -4 -12 1 -13 4 0 16 -2 26 -4 9 -2 15 1 11 6 -3 5
-9 7 -14 4 -4 -3 -10 0 -12 7 -3 9 -6 9 -12 0z"/>
<path d="M910 1695 c0 -8 7 -15 16 -15 14 0 14 3 4 15 -7 8 -14 15 -16 15 -2
0 -4 -7 -4 -15z"/>
<path d="M1030 1536 c0 -2 8 -10 18 -17 15 -13 16 -12 3 4 -13 16 -21 21 -21
13z"/>
<path d="M1157 1391 c-4 -17 -3 -21 5 -13 5 5 8 16 6 23 -3 8 -7 3 -11 -10z"/>
</g>
</svg>
