<?xml version="1.0" encoding="utf-8"?>
<!-- Generator: Adobe Illustrator 23.1.0, SVG Export Plug-In . SVG Version: 6.00 Build 0)  -->
<svg version="1.1" id="Layer_1" xmlns="http://www.w3.org/2000/svg" xmlns:xlink="http://www.w3.org/1999/xlink" x="0px" y="0px"
	 width="900px" height="220px" viewBox="0 0 900 220" style="enable-background:new 0 0 900 220;" xml:space="preserve">
<style type="text/css">
	.st0{fill:#FFFFFF;}
</style>
<rect x="583" y="82.9" class="st0" width="31.5" height="136.2"/>
<g>
	<path class="st0" d="M351.5,40.8c-2.9,0-5.5-0.5-7.9-1.4s-4.5-2.3-6.3-4s-3.1-3.7-4.1-6.1c-1-2.3-1.5-4.9-1.5-7.6s0.5-5.3,1.5-7.6
		s2.4-4.3,4.2-6.1c1.8-1.7,3.9-3.1,6.3-4s5-1.4,7.9-1.4s5.5,0.5,8,1.5c2.4,1,4.5,2.4,6.2,4.4l-3.5,3.4c-1.4-1.5-3-2.6-4.8-3.3
		s-3.7-1.1-5.7-1.1c-2.1,0-4.1,0.4-5.9,1.1s-3.4,1.7-4.7,3c-1.3,1.3-2.3,2.8-3.1,4.6c-0.7,1.8-1.1,3.7-1.1,5.7c0,2.1,0.4,4,1.1,5.7
		c0.7,1.8,1.8,3.3,3.1,4.6c1.3,1.3,2.9,2.3,4.7,3c1.8,0.7,3.7,1.1,5.9,1.1c2,0,3.9-0.4,5.7-1.1c1.8-0.7,3.4-1.9,4.8-3.4l3.5,3.4
		c-1.7,1.9-3.8,3.4-6.2,4.4C357.1,40.3,354.4,40.8,351.5,40.8z"/>
	<path class="st0" d="M366.5,46.9V35.8h33.3v11.1H395v-6.6h-23.7v6.6H366.5z M390.4,37.9V16.5h-12.3l-0.3,5.5
		c-0.1,1.8-0.2,3.5-0.3,5.2c-0.2,1.7-0.4,3.2-0.7,4.6c-0.3,1.4-0.8,2.5-1.5,3.4c-0.6,0.9-1.5,1.4-2.6,1.7l-5.1-0.9
		c1.1,0,2-0.3,2.7-1.1s1.2-1.8,1.6-3.2c0.4-1.4,0.6-2.9,0.8-4.6c0.2-1.7,0.3-3.5,0.4-5.4l0.4-9.6h22V38L390.4,37.9L390.4,37.9z"/>
	<path class="st0" d="M419.2,40.6c-3,0-5.7-0.6-8-1.9c-2.3-1.2-4.1-3-5.3-5.1c-1.3-2.2-1.9-4.7-1.9-7.5s0.6-5.3,1.8-7.5
		c1.2-2.2,2.9-3.9,5.1-5.1s4.6-1.8,7.3-1.8c2.7,0,5.2,0.6,7.3,1.8c2.1,1.2,3.7,2.9,4.9,5.1c1.2,2.2,1.8,4.7,1.8,7.7
		c0,0.2,0,0.5,0,0.7c0,0.3,0,0.6-0.1,0.8H408v-3.7h21.4l-2.1,1.3c0-1.8-0.3-3.4-1.1-4.9c-0.8-1.4-1.9-2.5-3.2-3.3
		c-1.4-0.8-3-1.2-4.8-1.2s-3.4,0.4-4.8,1.2s-2.5,1.9-3.3,3.4c-0.8,1.4-1.2,3.1-1.2,4.9v0.9c0,1.9,0.4,3.6,1.3,5
		c0.9,1.5,2.1,2.6,3.7,3.4c1.6,0.8,3.4,1.2,5.4,1.2c1.7,0,3.2-0.3,4.6-0.9c1.4-0.6,2.6-1.4,3.6-2.6l2.8,3.3
		c-1.3,1.5-2.9,2.6-4.8,3.4C423.7,40.3,421.5,40.6,419.2,40.6z"/>
	<path class="st0" d="M434.9,40.3l0.3-4.3c0.2,0,0.5,0.1,0.7,0.1s0.4,0.1,0.6,0.1c1.1,0,2-0.4,2.7-1.2s1.1-1.8,1.5-3.1
		c0.3-1.3,0.6-2.8,0.7-4.4s0.2-3.3,0.3-4.9l0.5-10.5h21.7v28.3h-5.1V15l1.2,1.5h-14.5l1.2-1.5l-0.4,7.9c-0.1,2.5-0.3,4.8-0.6,7
		c-0.3,2.2-0.7,4.1-1.3,5.7c-0.6,1.6-1.4,2.9-2.4,3.8c-1,0.9-2.3,1.4-3.9,1.4c-0.5,0-1,0-1.5-0.1C436.1,40.5,435.5,40.4,434.9,40.3z
		"/>
	<path class="st0" d="M482,40.6c-2.1,0-3.9-0.4-5.5-1.1c-1.6-0.7-2.8-1.7-3.7-3c-0.9-1.3-1.3-2.7-1.3-4.3c0-1.5,0.4-2.9,1.1-4.2
		c0.7-1.2,1.9-2.2,3.6-3s3.9-1.1,6.7-1.1h9v3.7h-8.8c-2.6,0-4.3,0.4-5.2,1.3c-0.9,0.9-1.3,1.9-1.3,3.1c0,1.4,0.6,2.5,1.7,3.3
		s2.6,1.3,4.6,1.3c1.9,0,3.6-0.4,5-1.3c1.4-0.9,2.5-2.1,3.1-3.7l1,3.5c-0.7,1.7-1.9,3-3.6,4C486.7,40.2,484.6,40.6,482,40.6z
		 M491.3,40.3v-6l-0.3-1.1V23c0-2.2-0.6-3.9-1.9-5c-1.3-1.2-3.2-1.8-5.7-1.8c-1.7,0-3.3,0.3-4.9,0.8c-1.6,0.6-3,1.3-4.1,2.2
		l-2.1-3.8c1.5-1.2,3.2-2.1,5.3-2.7c2-0.6,4.2-0.9,6.4-0.9c3.9,0,6.9,0.9,9,2.8s3.2,4.8,3.2,8.7v17.1h-4.9V40.3z"/>
	<path class="st0" d="M505.4,40.3V12h5.1v12h16.1V12h5.1v28.3h-5.1V28.5h-16.1v11.9h-5.1V40.3z"/>
	<path class="st0" d="M553.9,40.6c-2.9,0-5.4-0.6-7.6-1.9c-2.2-1.2-4-3-5.2-5.2c-1.3-2.2-1.9-4.7-1.9-7.5s0.6-5.3,1.9-7.5
		c1.3-2.2,3-3.9,5.2-5.1s4.7-1.8,7.6-1.8c2.8,0,5.3,0.6,7.6,1.8c2.2,1.2,4,2.9,5.2,5.1c1.3,2.2,1.9,4.7,1.9,7.5s-0.6,5.3-1.9,7.5
		c-1.3,2.2-3,3.9-5.2,5.1C559.2,40,556.7,40.6,553.9,40.6z M553.9,36.2c1.8,0,3.4-0.4,4.9-1.2c1.4-0.8,2.6-2,3.4-3.5
		c0.8-1.5,1.2-3.3,1.2-5.3s-0.4-3.8-1.2-5.3s-2-2.6-3.4-3.4s-3.1-1.2-4.9-1.2c-1.8,0-3.4,0.4-4.9,1.2c-1.4,0.8-2.6,2-3.4,3.4
		c-0.9,1.5-1.3,3.2-1.3,5.3c0,2,0.4,3.7,1.3,5.3c0.9,1.5,2,2.7,3.4,3.5S552.1,36.2,553.9,36.2z"/>
</g>
<path class="st0" d="M553.5,162c-3.7-5.4-8.9-9.6-15.5-12.4c-1.2-0.5-2.4-1-3.7-1.4c5.3-2.8,9.5-6.5,12.7-11.3
	c3.5-5.3,5.3-11.4,5.3-18.6c0-10.6-4.3-19.2-12.9-25.7c-8.6-6.5-21.5-9.7-38.6-9.7h-66.6v78.8h31.3h4.8h32c8.2,0,14.4,1.4,18.6,4.2
	c4.2,2.8,6.3,7,6.3,12.7c0,5.8-2.1,10.1-6.3,12.7c-4.2,2.7-10.4,4-18.6,4h-32h-4.8h-56.1L359,82.9h-31.1l-49.3,110.5h-91.3
	l74.6-90.1V82.9H122.4l0,0H92.2V158c0,13-2.7,22.3-8,28s-12.8,8.6-22.4,8.6s-17.1-2.9-22.4-8.6c-5.3-5.7-8-15-8-28V82.9H0v76.3
	c0,20,5.4,35.4,16.3,46.1c10.9,10.8,26,16.2,45.3,16.2s34.4-5.4,45.3-16.2s16.3-26.1,16.3-46.1v-50.6h97.1l-74.7,90.1v20.4H267h32.1
	h0.2l11.2-27l0,0l14.1-33.9l0,0l18.5-44.4l16.3,39.4l0,0l16.1,38.9l0,0l11.2,27H398h21.9h84.6c17.9,0,31.5-3.3,40.7-9.8
	S559,193.6,559,182C559.1,174.1,557.2,167.4,553.5,162z M514.4,134.8c-4.1,2.7-10,4-17.6,4h-31.3v-32.1h31.3c7.7,0,13.5,1.3,17.6,4
	c4.1,2.7,6.1,6.7,6.1,12C520.5,128.1,518.5,132.1,514.4,134.8z"/>
<polygon class="st0" points="839.1,82.9 808,82.9 758.7,193.5 678.4,193.5 678.4,82.9 646.8,82.9 646.8,219.2 779.4,219.2 
	779.4,219.2 779.5,219.2 791.7,190 791.7,190 806.6,154 806.6,154 823.3,113.9 839.3,152.6 839.3,152.6 854.9,190.1 866.9,219.2 
	900,219.2 "/>
</svg>
