<?xml version="1.0" encoding="utf-8"?>
<!-- Generator: Adobe Illustrator 23.1.0, SVG Export Plug-In . SVG Version: 6.00 Build 0)  -->
<svg version="1.1"
	 id="svg8" inkscape:version="0.92.5 (2060ec1f9f, 2020-04-08)" sodipodi:docname="wordpress.svg" xmlns:cc="http://creativecommons.org/ns#" xmlns:dc="http://purl.org/dc/elements/1.1/" xmlns:inkscape="http://www.inkscape.org/namespaces/inkscape" xmlns:rdf="http://www.w3.org/1999/02/22-rdf-syntax-ns#" xmlns:sodipodi="http://sodipodi.sourceforge.net/DTD/sodipodi-0.dtd" xmlns:svg="http://www.w3.org/2000/svg"
	 xmlns="http://www.w3.org/2000/svg" xmlns:xlink="http://www.w3.org/1999/xlink" x="0px" y="0px" width="500px" height="500px"
	 viewBox="0 0 500 500" style="enable-background:new 0 0 500 500;" xml:space="preserve">
<style type="text/css">
	.st0{fill:#FFFFFF;}
</style>
<title  id="title816">WordPress SVG Icon</title>
<sodipodi:namedview  bordercolor="#666666" borderopacity="1.0" id="base" inkscape:current-layer="layer1" inkscape:cx="169.28571" inkscape:cy="184.16851" inkscape:document-units="mm" inkscape:pageopacity="0.0" inkscape:pageshadow="2" inkscape:window-height="1016" inkscape:window-maximized="1" inkscape:window-width="1848" inkscape:window-x="72" inkscape:window-y="27" inkscape:zoom="0.7" pagecolor="#ffffff" showgrid="false" units="px">
	</sodipodi:namedview>
<path id="path826" inkscape:connector-curvature="0" sodipodi:nodetypes="ccccccccccccccscccccscccccccsccccccsccsccscscccccscsccccscccsccscccccccccscscsscscscsccccsscccsccsscscccsssscsccsccccscccscccssccccccsscccccccscssccsccsccssssccsccccsssccc" class="st0" d="
	M228.3,499.4c-14.8-1.3-34.3-4.9-43.1-7.8c-5.7-1.9-7.2-3-7-5.1c0.1-1.5,6.1-19.8,13.4-40.8c7.3-20.9,13.7-39.6,14.3-41.5
	c0.6-1.9,6.7-19.6,13.6-39.4c6.9-19.8,14.9-43,17.9-51.6c3-8.6,7.4-21.6,9.7-28.9c3.3-10.1,4.9-13.2,6.8-13.3c1.4,0,3.1,1.6,3.9,3.7
	c1.7,4.3,20.1,54.6,37,101.6c6.5,17.9,12.7,34.8,13.8,37.4c1.1,2.6,5.6,14.8,10,27.2c4.4,12.3,9.6,26.7,11.6,31.9
	c1.9,5.2,3.5,10.2,3.5,11.1c0,3.1-21.6,9.4-46.4,13.4C271.9,499.8,243.7,500.8,228.3,499.4L228.3,499.4z M274.9,495.2
	c19.7-2.2,50-9,53.6-12.1c0.9-0.8-1.6-8.1-17.6-51.7c-2.6-7.1-7.1-19.5-10.1-27.5s-7.8-21.3-10.7-29.6c-3-8.2-7.9-21.7-10.9-29.9
	c-3-8.2-7.8-21.5-10.8-29.6c-2.9-8-7.4-20.4-10-27.4c-3.6-10-4.8-12.1-5.4-9.5c-0.4,1.8-6.3,19.5-13.2,39.3
	c-6.9,19.8-13.3,38.5-14.3,41.5c-1,3-7.4,21.6-14.3,41.5c-6.9,19.8-13.9,40.3-15.7,45.5s-5.7,16.5-8.7,25.1
	c-3,8.6-5.5,15.7-5.5,15.8c0,0.4,11.6,3.5,17.8,4.8C223.8,496.4,251.7,497.8,274.9,495.2L274.9,495.2z M127.4,468.4
	c-55.4-31.8-96.6-82-115.9-141.1C2.2,298.8,0.1,284.7,0,250.7c-0.1-22.8,0.5-32.2,2.4-42.8c5.4-29.1,16-60.5,20.4-60.5
	c2.1,0,1.7-0.9,13.2,30.6c4.6,12.7,10.5,28.9,13.1,36c2.6,7.1,7.1,19.6,10.1,27.9c3,8.2,7.7,21.4,10.6,29.2
	c2.8,7.8,8.9,24.7,13.5,37.4c4.6,12.7,8.9,24.3,9.6,25.8c1,2.3,13.3,35.9,34,93.1c2.8,7.8,7.4,20.4,10.2,27.9
	C145.4,477.1,144.5,478.3,127.4,468.4L127.4,468.4z M135.6,461.7c-1.9-5-5.5-14.7-7.9-21.4c-12.4-34.2-34.6-94.9-39.4-108
	c-1.8-4.9-6.4-17.4-10.2-27.9c-3.8-10.5-9.3-25.4-12.1-33.3c-7.5-20.6-16.1-44.2-19.8-54.4c-1.8-4.9-6.2-17.1-9.9-27.2
	c-3.7-10.1-8.1-22.2-9.8-26.8c-1.7-4.7-3.5-8.5-4-8.5c-1.1,0-9.6,24.9-12.9,37.4c-6.4,24.9-8.3,69.1-4.1,95.5
	c6.8,42.2,25.2,84.1,51.3,116.5c11.1,13.8,34.2,36,46.5,44.8c7.6,5.4,34.4,22.3,35.6,22.4C139,470.8,137.6,466.7,135.6,461.7
	L135.6,461.7z M373,463.7c0-0.9,1.9-7.2,4.2-13.9c2.3-6.7,7.2-20.8,10.8-31.2c17-49.4,31.8-92,40-115.5c5-14.2,10.9-31.3,13.2-38.1
	c2.3-6.7,6.2-18,8.8-25.1c13-36,17.3-58.6,16.6-88.3c-0.5-20,0.1-23.2,3.8-20.7c2.2,1.5,14.9,31.3,18.6,43.7
	c8.2,27.2,11.1,47.2,11,76.1c-0.1,24.1-2.2,40.6-8.1,63.2C477.1,371,440,423.3,390.7,456.7C378.1,465.2,373,467.2,373,463.7
	L373,463.7z M412,435.4c38.4-32.7,68.3-83.5,79.3-134.6c10.9-50.9,4.9-106.3-16.8-153.5l-4.7-10.2l0.7,11.7
	c1.6,26.2-3.8,55.9-16.5,91.1c-8.1,22.5-14.1,39.6-23.2,66.3c-4.2,12.3-8.6,25.2-9.8,28.5c-1.2,3.4-2.6,7.3-3.2,8.8
	c-0.6,1.5-3.4,9.4-6.2,17.7c-9.1,26.8-32.2,93.5-34,97.8C376.3,462.7,396.5,448.6,412,435.4L412,435.4z M180.8,388.3
	c-2.6-8-12.2-36.6-21.3-63.5c-40-118.6-63.8-190.1-63.8-191.6c0-1.1,5.3-2.2,16-3.3c10.6-1.1,16.8-2.4,18.3-3.8c3.5-3.2,3-9.4-1-12
	c-2.9-1.9-5.1-2-17.3-0.7c-20.1,2.1-68.6,2.5-70.5,0.5c-1.9-1.9,0.1-5,15.8-24.2c26-31.8,60.9-57.4,99.4-72.8
	c11.7-4.7,14.3-5.6,28.2-9.3C209.7,0.8,217.5-0.1,250,0c24.2,0.1,34,0.6,43.5,2.5c44.7,8.8,84.3,27.3,116,54c5.4,4.6,9.6,9,9.3,9.9
	c-0.3,0.9-3.9,1.9-8,2.4c-20.5,2.2-35.6,19.7-35.7,41.3c-0.1,12.6,3.2,22,13.9,40.6c25.6,44.3,30.2,57.4,30.2,85.9
	c0,16.1-2.3,28.2-10.9,56.3c-3.1,10.1-6.1,20.2-6.8,22.4c-1.8,6.2-4.4,14.8-15.4,51.6c-8.8,29.5-10.5,33.9-12.7,33.5
	c-1.4-0.3-2.5-0.6-2.6-0.7c-0.8-2.8-42.8-128.2-62.4-186.4c-14.6-43.4-26.3-79.5-26-80.3c0.3-0.9,7.5-2.3,16.4-3.3
	c8.7-1,16.6-2.4,17.6-3.2c3.8-3,3.8-7.4,0.1-11.1c-3.3-3.3-4.2-3.5-10.6-2.6c-22.1,3-95.6,3-121.4,0c-7.4-0.9-8.6-0.7-11.2,1.9
	c-3.5,3.5-3.7,8.5-0.5,11.4c1.5,1.3,7.7,2.7,16.6,3.7c7.8,0.9,14.8,2.1,15.5,2.8c1.1,1.1,8,19.1,18.4,48.2c2.1,6,7.6,21,12.2,33.3
	c4.6,12.3,8.3,23.6,8.3,25.1c0,1.5-12.1,38.9-26.8,83.3c-21.4,64.4-27.3,80.6-29.2,80.6C186.2,402.9,184.4,399.3,180.8,388.3
	L180.8,388.3z M214.5,317.8l26.2-78.6l-4.5-12.3c-4.2-11.5-8.1-22.2-24.3-66.6c-10.7-29.3-7.8-25.9-23.3-27c-14.6-1-19.2-3-21.5-9.5
	c-1.8-5,2-12.7,6.8-13.9c1.9-0.5,18.4-0.1,36.7,0.8c27,1.4,39.8,1.4,69.4,0l36.3-1.8l3.2,3.7c3.1,3.6,4,9.2,2.3,13.7
	c-1.5,4-8.3,6.1-22.3,7.1c-11.7,0.8-13.7,1.2-13.1,3.1c0.4,1.2,10.3,30.6,22,65.4c11.7,34.8,31.3,92.7,43.4,128.7l22,65.5l2.8-10.4
	c2.6-9.5,11.3-38.6,26.1-87.2c12.3-40.2,14.9-55.8,12.5-73.8c-3-22.1-8.8-37.1-23.9-62.1c-15.7-25.9-19.7-36.5-19.7-51.9
	c0-22.3,13.4-40,33.8-44.7l7.3-1.7l-5.3-4.6c-15.9-13.8-49.8-33.5-71.9-41.7C274.8-4.7,204.5-1.8,145.4,25.7
	c-35.2,16.4-69,43.8-93.3,75.7L44,112.1l12,0c6.6,0,25.9-0.7,43-1.6l31.1-1.7l3.2,3.8c4.1,4.8,4.1,10.6,0.1,15.3
	c-3.4,4-10.8,5.7-25.7,5.9c-4.3,0.1-7.8,0.5-7.8,0.9c0,0.5,12.9,39.1,28.6,86c15.7,46.8,35.5,105.7,43.8,130.8
	c8.4,25.1,15.4,45.5,15.6,45.4C188.1,396.6,200.1,361.1,214.5,317.8L214.5,317.8z"/>
</svg>
