<?xml version="1.0" encoding="utf-8"?>
<!-- Generator: Adobe Illustrator 23.1.0, SVG Export Plug-In . SVG Version: 6.00 Build 0)  -->
<svg version="1.1" xmlns="http://www.w3.org/2000/svg" xmlns:xlink="http://www.w3.org/1999/xlink" x="0px" y="0px" width="100px"
	 height="80px" viewBox="0 0 100 80" style="enable-background:new 0 0 100 80;" xml:space="preserve">
<style type="text/css">
	.st0{fill:#2C2D2E;}
	.st1{fill-rule:evenodd;clip-rule:evenodd;fill:#2C2D2E;}
	.st2{fill:#0077FF;}
</style>
<g id="Layer_1">
	<g>
		<path class="st0" d="M100,25.2v23h-3.4v-23H100z"/>
		<path class="st0" d="M92.2,31.9v16.3h-3.4V31.9H92.2z M92.8,27c0,1.2-1,2.3-2.3,2.3c-1.2,0-2.3-1-2.3-2.3c0-1.3,1.1-2.3,2.3-2.3
			C91.8,24.7,92.8,25.8,92.8,27z"/>
		<path class="st1" d="M75.6,31.5c-4.7,0-8.5,3.9-8.5,8.6c0,4.8,3.8,8.6,8.5,8.6c2.2,0,4.2-0.8,5.7-2.2l0.7,1.6h2.5V31.8H82
			l-0.8,1.7C79.7,32.3,77.8,31.5,75.6,31.5z M75.8,34.7c-2.9,0-5.3,2.4-5.3,5.4c0,3,2.4,5.4,5.3,5.4c2.9,0,5.3-2.4,5.3-5.4
			C81.1,37.1,78.7,34.7,75.8,34.7z"/>
		<path class="st0" d="M46.1,34.8c-2.3,0-4,1.7-4,4v9.3h-3.4V31.9h2.6l0.8,1.5c1.1-1.2,2.8-1.9,4.6-1.9c2.1,0,3.9,0.9,5,2.5
			c1.3-1.6,3.4-2.5,5.6-2.5c4.1,0,6.9,3,6.9,7.4v9.3h-3.4v-9.2c0-2.5-1.5-4.1-3.7-4.1c-2.3,0-4,1.7-4,4v9.3h-3.4v-9.2
			C49.8,36.5,48.4,34.8,46.1,34.8z"/>
		<path class="st2" d="M22.2,40c0,2.8-2.3,5.1-5.1,5.1S12,42.8,12,40s2.3-5.1,5.1-5.1S22.2,37.2,22.2,40z M17.1,22.9
			C7.7,22.9,0,30.6,0,40c0,9.4,7.7,17.1,17.1,17.1c3.5,0,6.8-1,9.6-3l0,0l-2.3-2.7l0,0c-2.2,1.4-4.7,2.2-7.3,2.2
			C9.6,53.6,3.5,47.5,3.5,40c0-7.5,6.1-13.6,13.6-13.6c7.5,0,13.6,6.1,13.6,13.6c0,1-0.1,2-0.3,2.9c-0.4,1.8-1.7,2.3-2.6,2.2
			c-0.9-0.1-2-0.7-2-2.4v-1.2V40c0-4.8-3.9-8.6-8.6-8.6S8.4,35.2,8.4,40s3.9,8.6,8.6,8.6c2.3,0,4.5-0.9,6.1-2.6
			c1,1.5,2.5,2.4,4.3,2.6c0.2,0,0.3,0,0.5,0c1.2,0,2.5-0.4,3.5-1.2c1-0.8,1.8-1.9,2.2-3.3c0.1-0.2,0.2-0.7,0.2-0.7l0,0
			c0.2-1.1,0.4-2.2,0.4-3.5C34.2,30.6,26.5,22.9,17.1,22.9"/>
	</g>
</g>
<g id="svg8">
</g>
<g id="Livello_1">
</g>
</svg>
