<?xml version="1.0" encoding="utf-8"?>
<!-- Generator: Adobe Illustrator 23.1.0, SVG Export Plug-In . SVG Version: 6.00 Build 0)  -->
<svg version="1.1" xmlns="http://www.w3.org/2000/svg" xmlns:xlink="http://www.w3.org/1999/xlink" x="0px" y="0px" width="100px"
	 height="80px" viewBox="0 0 100 80" style="enable-background:new 0 0 100 80;" xml:space="preserve">
<style type="text/css">
	.st0{fill:#7F19FF;}
	.st1{fill:#35007D;}
</style>
<g id="Layer_1">
</g>
<g id="svg8">
	<g>
		<path id="path1210" class="st0" d="M47.1,59.3h-5.6V43.8h5.5v1.9c0,0,1.2-2.3,4.1-2.3c3.1,0,4.2,2.5,4.2,2.5s1.4-2.5,4.8-2.5
			c3.4,0,5.4,2.2,5.4,6.2v9.7H60v-8.6c0-1-0.6-2.1-1.8-2.1c-1.2,0-1.8,1.2-1.8,2.4v8.3h-5.6v-8.5c0-1.2-0.6-2.2-1.8-2.2
			c-1.1,0-1.8,1-1.8,2.4V59.3z"/>
		<path id="path1212" class="st0" d="M74.3,43.4c-4.3,0-7.2,3.7-7.2,8.2c0,5.1,3.3,8.1,7.1,8.1c3.1,0,4.4-2,4.4-2v1.6h5.5V43.8h-5.5
			v1.6C78.7,45.4,77.2,43.4,74.3,43.4L74.3,43.4z M75.7,48.5c1.9,0,3.2,1.5,3.2,3.1c0,1.6-1.3,3.1-3.1,3.1c-1.5,0-3.1-1.2-3.1-3.1
			C72.6,49.8,74,48.5,75.7,48.5z"/>
		<path id="path1216" class="st0" d="M86.5,59.3V43.8h5.6v15.5H86.5z"/>
		<circle id="path1218" class="st0" cx="89.3" cy="39.4" r="3.2"/>
		<path id="path1220" class="st0" d="M94.4,59.3V37h5.6v22.3H94.4z"/>
		<g id="g1229" transform="matrix(0.6307194,0,0,0.6307194,-72.06292,127.86643)">
			<path id="path1139" class="st1" d="M114.3-159.9h9.4l5.5,14.1l5.6-14.1h9.2l-13.8,33.3h-9.2l3.8-8.8L114.3-159.9z"/>
			<path id="path1141" class="st1" d="M153.5-160.5c-7.1,0-11.6,6.4-11.6,12.7c0,7.1,4.9,12.8,11.4,12.8c4.9,0,6.7-3,6.7-3v2.3h8.2
				v-24.2h-8.2v2.2C160.1-157.7,158-160.5,153.5-160.5z M155.2-152.7c3.3,0,5,2.6,5,4.9c0,2.5-1.8,5-5,5c-2.6,0-5-2.1-5-4.9
				C150.3-150.4,152.2-152.7,155.2-152.7z"/>
			<path id="path1145" class="st1" d="M171.1-135.7v-34.9h8.6v13c0,0,2-2.8,6.3-2.8c5.2,0,8.3,3.9,8.3,9.5v15.3h-8.5v-13.2
				c0-1.9-0.9-3.7-2.9-3.7c-2.1,0-3.2,1.9-3.2,3.7v13.2H171.1z"/>
			<path id="path1147" class="st1" d="M209-160.5c-8.1,0-12.9,6.2-12.9,12.8c0,7.5,5.9,12.7,13,12.7c6.9,0,13-4.9,13-12.5
				C222-155.9,215.7-160.5,209-160.5z M209.1-152.6c2.9,0,4.9,2.4,4.9,4.9c0,2.2-1.8,4.9-4.9,4.9c-2.8,0-4.8-2.2-4.8-4.9
				C204.3-150.3,206-152.6,209.1-152.6z"/>
			<path id="path1153" class="st1" d="M236.3-160.5c-8.1,0-12.9,6.2-12.9,12.8c0,7.5,5.9,12.7,13,12.7c6.9,0,13-4.9,13-12.5
				C249.3-155.9,243-160.5,236.3-160.5z M236.4-152.6c2.9,0,4.9,2.4,4.9,4.9c0,2.2-1.8,4.9-4.9,4.9c-2.8,0-4.8-2.2-4.8-4.9
				C231.6-150.3,233.3-152.6,236.4-152.6z"/>
			<circle id="path1155" class="st1" cx="256.1" cy="-140.9" r="5.7"/>
			<path id="path1157" class="st1" d="M263.7-148.7h-10.3l9.1-21.9h10.2L263.7-148.7z"/>
		</g>
	</g>
</g>
</svg>
