<?xml version="1.0" encoding="utf-8"?>
<!-- Generator: Adobe Illustrator 26.1.0, SVG Export Plug-In . SVG Version: 6.00 Build 0)  -->
<svg version="1.1" xmlns="http://www.w3.org/2000/svg" xmlns:xlink="http://www.w3.org/1999/xlink" x="0px" y="0px"
	 viewBox="0 0 620.12 104.75" style="enable-background:new 0 0 620.12 104.75;" xml:space="preserve">
<style type="text/css">
	.st0{display:none;}
	.st1{display:inline;}
	.st2{fill:#FFFFFF;}
	.st3{display:inline;fill:#23242E;}
</style>
<g id="Layer_1" class="st0">
	<g class="st1">
		<path class="st2" d="M216.28,42.2c0,2.42-0.23,4.76-0.69,7.02c-0.46,2.26-1.11,4.34-1.96,6.23c-1.7,3.8-4.22,6.74-7.56,8.83
			c-3.34,2.09-7.36,3.14-12.08,3.14c-3.34,0-6.35-0.57-9.03-1.72c-2.68-1.14-4.94-2.83-6.77-5.06v25.43h-10.9V18.15h10.6v5.79
			c1.83-2.36,4.11-4.12,6.82-5.3c2.72-1.18,5.81-1.77,9.28-1.77c4.71,0,8.74,1.05,12.08,3.14c3.34,2.1,5.86,5.04,7.56,8.84
			C215.4,32.78,216.28,37.23,216.28,42.2z M204.7,42.2c0-3.66-0.52-6.74-1.57-9.23c-1.05-2.29-2.59-4.01-4.61-5.15
			c-2.03-1.14-4.45-1.72-7.26-1.72c-4.06,0-7.27,1.29-9.62,3.88c-2.36,2.59-3.53,6.23-3.53,10.95v2.45c0,4.78,1.18,8.46,3.53,11.04
			c2.36,2.59,5.56,3.88,9.62,3.88c2.81,0,5.24-0.59,7.26-1.77c2.03-1.18,3.57-2.91,4.61-5.2C204.17,48.85,204.7,45.8,204.7,42.2z"/>
		<path class="st2" d="M262.18,21.88c3.21,3.34,4.81,8.21,4.81,14.63v29.75h-10.8V38.67c0-4.32-0.88-7.49-2.65-9.52
			c-1.77-2.03-4.48-3.04-8.15-3.04c-3.86,0-6.81,1.1-8.84,3.29c-2.03,2.19-3.04,5.45-3.04,9.77v27.1h-10.9V-3.05h10.9v26.61
			c3.34-4.45,8.34-6.68,15.02-6.68C254.42,16.87,258.97,18.54,262.18,21.88z"/>
		<path class="st2" d="M283.72,64c-3.8-2.29-6.61-5.46-8.44-9.52c-1.64-3.47-2.45-7.56-2.45-12.27c0-4.71,0.82-8.84,2.45-12.37
			c1.83-4.06,4.65-7.23,8.44-9.52c3.8-2.29,8.44-3.44,13.94-3.44s10.16,1.15,13.99,3.44c3.83,2.29,6.66,5.47,8.49,9.52
			c1.64,3.67,2.46,7.79,2.46,12.37c0,4.45-0.82,8.58-2.46,12.37c-1.83,4.06-4.66,7.22-8.49,9.47c-3.83,2.26-8.49,3.39-13.99,3.39
			S287.51,66.29,283.72,64z M305.07,56.49c2-1.21,3.49-2.9,4.47-5.06c0.98-2.22,1.47-5.3,1.47-9.23c0-3.99-0.49-7.07-1.47-9.23
			c-0.98-2.22-2.47-3.93-4.47-5.11c-2-1.18-4.47-1.77-7.41-1.77s-5.4,0.59-7.36,1.77c-1.96,1.18-3.44,2.88-4.42,5.11
			c-1.05,2.29-1.57,5.37-1.57,9.23c0,3.8,0.52,6.87,1.57,9.23c0.98,2.16,2.45,3.85,4.42,5.06c1.96,1.21,4.42,1.82,7.36,1.82
			S303.07,57.7,305.07,56.49z"/>
		<path class="st2" d="M363.8,52.9c0.56-1.11,0.9-2.22,1.03-3.34h10.8c-0.46,4.84-2.36,8.84-5.69,11.98
			c-2.16,1.9-4.78,3.35-7.85,4.37c-3.08,1.01-6.45,1.52-10.11,1.52c-5.63,0-10.42-1.11-14.38-3.34c-3.96-2.22-6.86-5.37-8.69-9.42
			c-1.57-3.53-2.36-7.72-2.36-12.57c0-2.49,0.2-4.75,0.59-6.77c0.39-2.03,0.98-3.93,1.77-5.69c1.83-4.06,4.66-7.2,8.49-9.42
			c3.83-2.22,8.43-3.34,13.79-3.34c5.37,0,9.96,1.11,13.79,3.34c3.83,2.23,6.63,5.33,8.39,9.33c0.98,2.23,1.65,4.55,2.01,6.97
			c0.36,2.42,0.54,5.3,0.54,8.64h-38.39c0.2,2.88,0.69,5.14,1.47,6.77c0.98,2.23,2.55,3.93,4.71,5.1c2.16,1.18,4.84,1.77,8.05,1.77
			c2.09,0,3.99-0.26,5.69-0.79c1.7-0.52,3.11-1.28,4.22-2.26C362.54,54.97,363.24,54.02,363.8,52.9z M339.01,32.58
			c-0.66,1.44-1.08,2.98-1.28,4.61h27c-0.2-1.7-0.59-3.37-1.18-5.01c-1.05-2.16-2.59-3.79-4.61-4.91c-2.03-1.11-4.55-1.67-7.56-1.67
			C345.22,25.61,341.1,27.94,339.01,32.58z"/>
		<path class="st2" d="M421.82,21.88c3.21,3.34,4.81,8.21,4.81,14.63v29.75h-10.8V38.67c0-4.32-0.88-7.49-2.65-9.52
			c-1.77-2.03-4.48-3.04-8.15-3.04c-3.86,0-6.81,1.1-8.84,3.29c-2.03,2.19-3.04,5.45-3.04,9.77v27.1h-10.9V18.15h10.9v5.4
			c3.34-4.45,8.34-6.68,15.02-6.68C414.06,16.87,418.61,18.54,421.82,21.88z"/>
		<path class="st2" d="M435.5,9.17c-1.24-1.14-1.87-2.6-1.87-4.37c0-1.83,0.6-3.32,1.82-4.47c1.21-1.14,2.83-1.72,4.86-1.72
			c1.9,0,3.44,0.57,4.61,1.72c1.18,1.15,1.77,2.64,1.77,4.47c0,1.77-0.61,3.22-1.82,4.37c-1.21,1.15-2.73,1.72-4.56,1.72
			C438.35,10.89,436.74,10.31,435.5,9.17z M434.71,18.15h10.9v48.11h-10.9V18.15z"/>
		<path class="st2" d="M468.64,41.61l-18.85-23.46h13.35l11.98,16l12.08-16h13.25L481.8,41.61l19.34,24.64h-13.35l-12.67-16.89
			l-12.57,16.89H449.4L468.64,41.61z"/>
		<path class="st2" d="M536.77,52.9c0.56-1.11,0.9-2.22,1.03-3.34h10.8c-0.46,4.84-2.36,8.84-5.69,11.98
			c-2.16,1.9-4.78,3.35-7.85,4.37c-3.08,1.01-6.45,1.52-10.11,1.52c-5.63,0-10.42-1.11-14.38-3.34c-3.96-2.22-6.86-5.37-8.69-9.42
			c-1.57-3.53-2.36-7.72-2.36-12.57c0-2.49,0.2-4.75,0.59-6.77c0.39-2.03,0.98-3.93,1.77-5.69c1.83-4.06,4.66-7.2,8.49-9.42
			c3.83-2.22,8.43-3.34,13.79-3.34c5.37,0,9.96,1.11,13.79,3.34c3.83,2.23,6.63,5.33,8.39,9.33c0.98,2.23,1.65,4.55,2.01,6.97
			c0.36,2.42,0.54,5.3,0.54,8.64h-38.39c0.2,2.88,0.69,5.14,1.47,6.77c0.98,2.23,2.55,3.93,4.71,5.1c2.16,1.18,4.84,1.77,8.05,1.77
			c2.09,0,3.99-0.26,5.69-0.79c1.7-0.52,3.11-1.28,4.22-2.26C535.51,54.97,536.22,54.02,536.77,52.9z M511.99,32.58
			c-0.66,1.44-1.08,2.98-1.28,4.61h27c-0.2-1.7-0.59-3.37-1.18-5.01c-1.05-2.16-2.59-3.79-4.61-4.91c-2.03-1.11-4.55-1.67-7.56-1.67
			C518.2,25.61,514.08,27.94,511.99,32.58z"/>
		<path class="st2" d="M601.74-3.05v69.31h-10.6v-5.79c-1.83,2.29-4.11,4.02-6.82,5.2c-2.72,1.18-5.78,1.77-9.18,1.77
			c-4.71,0-8.74-1.05-12.08-3.14c-3.34-2.09-5.86-5.04-7.56-8.83c-0.85-1.9-1.51-3.98-1.96-6.23c-0.46-2.26-0.69-4.6-0.69-7.02
			c0-4.97,0.88-9.42,2.65-13.35c1.7-3.79,4.22-6.74,7.56-8.84c3.34-2.09,7.36-3.14,12.08-3.14c3.34,0,6.35,0.57,9.03,1.72
			c2.68,1.15,4.94,2.83,6.77,5.06v-26.7H601.74z M590.94,40.93c0-4.78-1.16-8.44-3.49-11c-2.32-2.55-5.51-3.83-9.57-3.83
			c-2.81,0-5.24,0.57-7.26,1.72c-2.03,1.15-3.57,2.86-4.61,5.15c-1.05,2.49-1.57,5.56-1.57,9.23c0,3.6,0.52,6.64,1.57,9.13
			c1.05,2.29,2.58,4.03,4.61,5.2c2.03,1.18,4.45,1.77,7.26,1.77c4.06,0,7.25-1.29,9.57-3.88c2.32-2.58,3.49-6.27,3.49-11.04V40.93z"
			/>
	</g>
	<g class="st1">
		<polygon class="st2" points="139.44,15.21 124.24,0 104.69,0 112.29,7.6 99.66,7.6 64.73,42.53 77.25,55.05 117.1,15.21 		"/>
		<polygon class="st2" points="54.85,77.46 79.9,77.46 89.78,67.58 77.25,55.05 		"/>
		<polygon class="st2" points="4.76,77.46 29.8,77.46 64.73,42.53 52.21,30.01 		"/>
		<polygon class="st2" points="74.61,7.6 29.8,7.6 52.21,30.01 		"/>
	</g>
	<rect x="-84.5" y="-156.49" class="st3" width="818" height="428"/>
</g>
<g id="Layer_2">
	<g>
		<path class="st2" d="M221.46,52.38c0,2.5-0.24,4.92-0.71,7.26c-0.47,2.34-1.15,4.49-2.03,6.45c-1.76,3.93-4.37,6.97-7.82,9.14
			c-3.45,2.17-7.62,3.25-12.49,3.25c-3.45,0-6.57-0.59-9.34-1.78c-2.78-1.18-5.11-2.93-7.01-5.23v26.3H170.8V27.5h10.97v5.99
			c1.89-2.44,4.25-4.26,7.06-5.48c2.81-1.22,6.01-1.83,9.6-1.83c4.87,0,9.04,1.08,12.49,3.25c3.45,2.17,6.06,5.21,7.82,9.14
			C220.55,42.63,221.46,47.23,221.46,52.38z M209.48,52.38c0-3.79-0.54-6.97-1.62-9.54c-1.08-2.37-2.67-4.15-4.77-5.33
			c-2.1-1.18-4.6-1.78-7.51-1.78c-4.2,0-7.51,1.34-9.95,4.01c-2.44,2.67-3.66,6.45-3.66,11.32v2.54c0,4.94,1.22,8.75,3.66,11.42
			c2.44,2.67,5.75,4.01,9.95,4.01c2.91,0,5.41-0.61,7.51-1.83c2.1-1.22,3.69-3.01,4.77-5.38C208.94,59.25,209.48,56.1,209.48,52.38z
			"/>
		<path class="st2" d="M268.93,31.36c3.32,3.45,4.98,8.5,4.98,15.13v30.77h-11.17V48.72c0-4.47-0.91-7.75-2.74-9.85
			c-1.83-2.1-4.64-3.15-8.43-3.15c-3.99,0-7.04,1.13-9.14,3.4c-2.1,2.27-3.15,5.64-3.15,10.1v28.02h-11.27V5.57h11.27v27.52
			c3.45-4.6,8.63-6.9,15.54-6.9C260.91,26.18,265.61,27.9,268.93,31.36z"/>
		<path class="st2" d="M291.21,74.92c-3.93-2.37-6.84-5.65-8.73-9.85c-1.69-3.59-2.54-7.82-2.54-12.69c0-4.87,0.85-9.14,2.54-12.79
			c1.89-4.2,4.81-7.48,8.73-9.85c3.92-2.37,8.73-3.55,14.42-3.55s10.51,1.19,14.47,3.55c3.96,2.37,6.89,5.65,8.78,9.85
			c1.69,3.79,2.54,8.06,2.54,12.79c0,4.6-0.85,8.87-2.54,12.79c-1.9,4.2-4.82,7.46-8.78,9.8s-8.78,3.5-14.47,3.5
			S295.13,77.29,291.21,74.92z M313.29,67.15c2.06-1.25,3.6-3,4.62-5.23c1.02-2.3,1.52-5.48,1.52-9.54c0-4.13-0.51-7.31-1.52-9.54
			c-1.02-2.3-2.56-4.06-4.62-5.28c-2.07-1.22-4.62-1.83-7.67-1.83c-3.05,0-5.58,0.61-7.62,1.83c-2.03,1.22-3.55,2.98-4.57,5.28
			c-1.08,2.37-1.62,5.55-1.62,9.54c0,3.93,0.54,7.11,1.62,9.54c1.02,2.23,2.54,3.98,4.57,5.23c2.03,1.25,4.57,1.88,7.62,1.88
			C308.67,69.03,311.23,68.4,313.29,67.15z"/>
		<path class="st2" d="M374.03,63.44c0.57-1.15,0.93-2.3,1.07-3.45h11.17c-0.47,5.01-2.44,9.14-5.89,12.39
			c-2.23,1.96-4.94,3.47-8.12,4.52c-3.18,1.05-6.67,1.57-10.46,1.57c-5.82,0-10.78-1.15-14.88-3.45c-4.1-2.3-7.09-5.55-8.99-9.75
			c-1.62-3.66-2.44-7.99-2.44-13c0-2.57,0.2-4.91,0.61-7.01c0.41-2.1,1.02-4.06,1.83-5.89c1.89-4.2,4.82-7.45,8.78-9.75
			c3.96-2.3,8.71-3.45,14.27-3.45c5.55,0,10.31,1.15,14.27,3.45c3.96,2.3,6.85,5.52,8.68,9.65c1.02,2.3,1.71,4.71,2.08,7.21
			c0.37,2.5,0.56,5.48,0.56,8.94h-39.7c0.2,2.98,0.71,5.31,1.52,7.01c1.02,2.3,2.64,4.06,4.87,5.28c2.23,1.22,5.01,1.83,8.33,1.83
			c2.17,0,4.13-0.27,5.89-0.81c1.76-0.54,3.21-1.32,4.37-2.33C372.72,65.58,373.45,64.59,374.03,63.44z M348.39,42.42
			c-0.68,1.49-1.12,3.08-1.32,4.77h27.92c-0.2-1.76-0.61-3.49-1.22-5.18c-1.08-2.23-2.67-3.92-4.77-5.08
			c-2.1-1.15-4.71-1.73-7.82-1.73C354.82,35.22,350.56,37.62,348.39,42.42z"/>
		<path class="st2" d="M434.04,31.36c3.32,3.45,4.98,8.5,4.98,15.13v30.77h-11.17V48.72c0-4.47-0.91-7.75-2.74-9.85
			c-1.83-2.1-4.64-3.15-8.43-3.15c-4,0-7.04,1.13-9.14,3.4c-2.1,2.27-3.15,5.64-3.15,10.1v28.02h-11.27V27.5h11.27v5.58
			c3.45-4.6,8.63-6.9,15.54-6.9C426.01,26.18,430.72,27.9,434.04,31.36z"/>
		<path class="st2" d="M448.19,18.21c-1.29-1.18-1.93-2.69-1.93-4.52c0-1.89,0.62-3.44,1.88-4.62c1.25-1.18,2.93-1.78,5.03-1.78
			c1.96,0,3.55,0.59,4.77,1.78c1.22,1.19,1.83,2.73,1.83,4.62c0,1.83-0.63,3.33-1.88,4.52c-1.25,1.19-2.83,1.78-4.72,1.78
			C451.13,19.98,449.47,19.39,448.19,18.21z M447.38,27.5h11.27v49.75h-11.27V27.5z"/>
		<path class="st2" d="M482.47,51.77l-19.5-24.27h13.81l12.39,16.55l12.49-16.55h13.71l-19.29,24.27l20,25.49h-13.81l-13.1-17.46
			l-13,17.46h-13.61L482.47,51.77z"/>
		<path class="st2" d="M552.93,63.44c0.57-1.15,0.93-2.3,1.07-3.45h11.17c-0.47,5.01-2.44,9.14-5.89,12.39
			c-2.23,1.96-4.94,3.47-8.12,4.52c-3.18,1.05-6.67,1.57-10.46,1.57c-5.82,0-10.78-1.15-14.88-3.45c-4.1-2.3-7.09-5.55-8.99-9.75
			c-1.62-3.66-2.44-7.99-2.44-13c0-2.57,0.2-4.91,0.61-7.01c0.41-2.1,1.02-4.06,1.83-5.89c1.89-4.2,4.82-7.45,8.78-9.75
			c3.96-2.3,8.71-3.45,14.27-3.45c5.55,0,10.31,1.15,14.27,3.45c3.96,2.3,6.85,5.52,8.68,9.65c1.02,2.3,1.71,4.71,2.08,7.21
			c0.37,2.5,0.56,5.48,0.56,8.94h-39.7c0.2,2.98,0.71,5.31,1.52,7.01c1.02,2.3,2.64,4.06,4.87,5.28c2.23,1.22,5.01,1.83,8.33,1.83
			c2.17,0,4.13-0.27,5.89-0.81c1.76-0.54,3.21-1.32,4.37-2.33C551.63,65.58,552.36,64.59,552.93,63.44z M527.29,42.42
			c-0.68,1.49-1.12,3.08-1.32,4.77h27.92c-0.2-1.76-0.61-3.49-1.22-5.18c-1.08-2.23-2.67-3.92-4.77-5.08
			c-2.1-1.15-4.71-1.73-7.82-1.73C533.72,35.22,529.46,37.62,527.29,42.42z"/>
		<path class="st2" d="M620.12,5.57v71.69h-10.97v-5.99c-1.9,2.37-4.25,4.16-7.06,5.38c-2.81,1.22-5.97,1.83-9.49,1.83
			c-4.87,0-9.04-1.08-12.49-3.25c-3.45-2.17-6.06-5.21-7.82-9.14c-0.88-1.96-1.56-4.11-2.03-6.45c-0.47-2.34-0.71-4.75-0.71-7.26
			c0-5.14,0.91-9.75,2.74-13.81c1.76-3.93,4.37-6.97,7.82-9.14c3.45-2.17,7.62-3.25,12.49-3.25c3.45,0,6.57,0.59,9.34,1.78
			c2.77,1.19,5.11,2.93,7.01,5.23V5.57H620.12z M608.95,51.06c0-4.94-1.2-8.73-3.6-11.37c-2.4-2.64-5.7-3.96-9.9-3.96
			c-2.91,0-5.42,0.59-7.51,1.78c-2.1,1.19-3.69,2.96-4.77,5.33c-1.08,2.57-1.62,5.75-1.62,9.54c0,3.72,0.54,6.87,1.62,9.44
			c1.08,2.37,2.67,4.16,4.77,5.38c2.1,1.22,4.6,1.83,7.51,1.83c4.2,0,7.5-1.34,9.9-4.01c2.4-2.67,3.6-6.48,3.6-11.42V51.06z"/>
	</g>
	<g>
		<polygon class="st2" points="141.99,24.45 126.27,8.72 106.05,8.72 113.91,16.59 100.85,16.59 64.72,52.71 77.67,65.66 
			118.89,24.45 		"/>
		<polygon class="st2" points="54.5,88.84 80.4,88.84 90.63,78.62 77.67,65.66 		"/>
		<polygon class="st2" points="2.69,88.84 28.6,88.84 64.72,52.71 51.77,39.76 		"/>
		<polygon class="st2" points="74.94,16.59 28.6,16.59 51.77,39.76 		"/>
	</g>
	<g>
	</g>
	<g>
	</g>
	<g>
	</g>
	<g>
	</g>
	<g>
	</g>
	<g>
	</g>
</g>
</svg>
