<?xml version="1.0" encoding="utf-8"?>
<!-- Generator: Adobe Illustrator 26.1.0, SVG Export Plug-In . SVG Version: 6.00 Build 0)  -->
<svg version="1.1" xmlns="http://www.w3.org/2000/svg" xmlns:xlink="http://www.w3.org/1999/xlink" x="0px" y="0px"
	 viewBox="0 0 737 336" style="enable-background:new 0 0 737 336;" xml:space="preserve">
<style type="text/css">
	.st0{display:none;}
	.st1{display:inline;}
	.st2{fill:#FFFFFF;}
	.st3{display:inline;fill:#23242E;}
	.st4{fill:#24242E;}
</style>
<g id="Layer_1" class="st0">
	<g class="st1">
		<path class="st2" d="M264.28,168.19c0,2.42-0.23,4.76-0.69,7.02c-0.46,2.26-1.11,4.34-1.96,6.23c-1.7,3.8-4.22,6.74-7.56,8.83
			c-3.34,2.09-7.36,3.14-12.08,3.14c-3.34,0-6.35-0.57-9.03-1.72c-2.68-1.14-4.94-2.83-6.77-5.06v25.43h-10.9v-67.94h10.6v5.79
			c1.83-2.36,4.11-4.12,6.82-5.3c2.72-1.18,5.81-1.77,9.28-1.77c4.71,0,8.74,1.05,12.08,3.14c3.34,2.1,5.86,5.04,7.56,8.84
			C263.4,158.77,264.28,163.22,264.28,168.19z M252.7,168.19c0-3.66-0.52-6.74-1.57-9.23c-1.05-2.29-2.59-4.01-4.61-5.15
			c-2.03-1.14-4.45-1.72-7.26-1.72c-4.06,0-7.27,1.29-9.62,3.88c-2.36,2.59-3.53,6.23-3.53,10.95v2.45c0,4.78,1.18,8.46,3.53,11.04
			c2.36,2.59,5.56,3.88,9.62,3.88c2.81,0,5.24-0.59,7.26-1.77c2.03-1.18,3.57-2.91,4.61-5.2
			C252.17,174.84,252.7,171.79,252.7,168.19z"/>
		<path class="st2" d="M310.18,147.87c3.21,3.34,4.81,8.21,4.81,14.63v29.75h-10.8v-27.59c0-4.32-0.88-7.49-2.65-9.52
			c-1.77-2.03-4.48-3.04-8.15-3.04c-3.86,0-6.81,1.1-8.84,3.29c-2.03,2.19-3.04,5.45-3.04,9.77v27.1h-10.9v-69.31h10.9v26.61
			c3.34-4.45,8.34-6.68,15.02-6.68C302.42,142.87,306.97,144.53,310.18,147.87z"/>
		<path class="st2" d="M331.72,189.99c-3.8-2.29-6.61-5.46-8.44-9.52c-1.64-3.47-2.45-7.56-2.45-12.27c0-4.71,0.82-8.84,2.45-12.37
			c1.83-4.06,4.65-7.23,8.44-9.52c3.8-2.29,8.44-3.44,13.94-3.44s10.16,1.15,13.99,3.44c3.83,2.29,6.66,5.47,8.49,9.52
			c1.64,3.67,2.46,7.79,2.46,12.37c0,4.45-0.82,8.58-2.46,12.37c-1.83,4.06-4.66,7.22-8.49,9.47s-8.49,3.39-13.99,3.39
			S335.51,192.28,331.72,189.99z M353.07,182.48c2-1.21,3.49-2.9,4.47-5.06c0.98-2.22,1.47-5.3,1.47-9.23
			c0-3.99-0.49-7.07-1.47-9.23c-0.98-2.22-2.47-3.93-4.47-5.11c-2-1.18-4.47-1.77-7.41-1.77s-5.4,0.59-7.36,1.77
			c-1.96,1.18-3.44,2.88-4.42,5.11c-1.05,2.29-1.57,5.37-1.57,9.23c0,3.8,0.52,6.87,1.57,9.23c0.98,2.16,2.45,3.85,4.42,5.06
			c1.96,1.21,4.42,1.82,7.36,1.82S351.07,183.69,353.07,182.48z"/>
		<path class="st2" d="M411.8,178.9c0.56-1.11,0.9-2.22,1.03-3.34h10.8c-0.46,4.84-2.36,8.84-5.69,11.98
			c-2.16,1.9-4.78,3.35-7.85,4.37c-3.08,1.01-6.45,1.52-10.11,1.52c-5.63,0-10.42-1.11-14.38-3.34c-3.96-2.22-6.86-5.37-8.69-9.42
			c-1.57-3.53-2.36-7.72-2.36-12.57c0-2.49,0.2-4.75,0.59-6.77c0.39-2.03,0.98-3.93,1.77-5.69c1.83-4.06,4.66-7.2,8.49-9.42
			c3.83-2.22,8.43-3.34,13.79-3.34c5.37,0,9.96,1.11,13.79,3.34c3.83,2.23,6.63,5.33,8.39,9.33c0.98,2.23,1.65,4.55,2.01,6.97
			c0.36,2.42,0.54,5.3,0.54,8.64h-38.39c0.2,2.88,0.69,5.14,1.47,6.77c0.98,2.23,2.55,3.93,4.71,5.1c2.16,1.18,4.84,1.77,8.05,1.77
			c2.09,0,3.99-0.26,5.69-0.79c1.7-0.52,3.11-1.28,4.22-2.26C410.54,180.96,411.24,180.01,411.8,178.9z M387.01,158.57
			c-0.66,1.44-1.08,2.98-1.28,4.61h27c-0.2-1.7-0.59-3.37-1.18-5.01c-1.05-2.16-2.59-3.79-4.61-4.91c-2.03-1.11-4.55-1.67-7.56-1.67
			C393.22,151.6,389.1,153.93,387.01,158.57z"/>
		<path class="st2" d="M469.82,147.87c3.21,3.34,4.81,8.21,4.81,14.63v29.75h-10.8v-27.59c0-4.32-0.88-7.49-2.65-9.52
			c-1.77-2.03-4.48-3.04-8.15-3.04c-3.86,0-6.81,1.1-8.84,3.29c-2.03,2.19-3.04,5.45-3.04,9.77v27.1h-10.9v-48.11h10.9v5.4
			c3.34-4.45,8.34-6.68,15.02-6.68C462.06,142.87,466.61,144.53,469.82,147.87z"/>
		<path class="st2" d="M483.5,135.16c-1.24-1.14-1.87-2.6-1.87-4.37c0-1.83,0.6-3.32,1.82-4.47c1.21-1.14,2.83-1.72,4.86-1.72
			c1.9,0,3.44,0.57,4.61,1.72c1.18,1.15,1.77,2.64,1.77,4.47c0,1.77-0.61,3.22-1.82,4.37c-1.21,1.15-2.73,1.72-4.56,1.72
			C486.35,136.88,484.74,136.3,483.5,135.16z M482.71,144.14h10.9v48.11h-10.9V144.14z"/>
		<path class="st2" d="M516.64,167.6l-18.85-23.46h13.35l11.98,16l12.08-16h13.25L529.8,167.6l19.34,24.64h-13.35l-12.67-16.89
			l-12.57,16.89H497.4L516.64,167.6z"/>
		<path class="st2" d="M584.77,178.9c0.56-1.11,0.9-2.22,1.03-3.34h10.8c-0.46,4.84-2.36,8.84-5.69,11.98
			c-2.16,1.9-4.78,3.35-7.85,4.37c-3.08,1.01-6.45,1.52-10.11,1.52c-5.63,0-10.42-1.11-14.38-3.34c-3.96-2.22-6.86-5.37-8.69-9.42
			c-1.57-3.53-2.36-7.72-2.36-12.57c0-2.49,0.2-4.75,0.59-6.77c0.39-2.03,0.98-3.93,1.77-5.69c1.83-4.06,4.66-7.2,8.49-9.42
			c3.83-2.22,8.43-3.34,13.79-3.34c5.37,0,9.96,1.11,13.79,3.34c3.83,2.23,6.63,5.33,8.39,9.33c0.98,2.23,1.65,4.55,2.01,6.97
			c0.36,2.42,0.54,5.3,0.54,8.64h-38.39c0.2,2.88,0.69,5.14,1.47,6.77c0.98,2.23,2.55,3.93,4.71,5.1c2.16,1.18,4.84,1.77,8.05,1.77
			c2.09,0,3.99-0.26,5.69-0.79c1.7-0.52,3.11-1.28,4.22-2.26C583.51,180.96,584.22,180.01,584.77,178.9z M559.99,158.57
			c-0.66,1.44-1.08,2.98-1.28,4.61h27c-0.2-1.7-0.59-3.37-1.18-5.01c-1.05-2.16-2.59-3.79-4.61-4.91c-2.03-1.11-4.55-1.67-7.56-1.67
			C566.2,151.6,562.08,153.93,559.99,158.57z"/>
		<path class="st2" d="M649.74,122.94v69.31h-10.6v-5.79c-1.83,2.29-4.11,4.02-6.82,5.2c-2.72,1.18-5.78,1.77-9.18,1.77
			c-4.71,0-8.74-1.05-12.08-3.14c-3.34-2.09-5.86-5.04-7.56-8.83c-0.85-1.9-1.51-3.98-1.96-6.23c-0.46-2.26-0.69-4.6-0.69-7.02
			c0-4.97,0.88-9.42,2.65-13.35c1.7-3.79,4.22-6.74,7.56-8.84c3.34-2.09,7.36-3.14,12.08-3.14c3.34,0,6.35,0.57,9.03,1.72
			c2.68,1.15,4.94,2.83,6.77,5.06v-26.7H649.74z M638.94,166.92c0-4.78-1.16-8.44-3.49-11c-2.32-2.55-5.51-3.83-9.57-3.83
			c-2.81,0-5.24,0.57-7.26,1.72c-2.03,1.15-3.57,2.86-4.61,5.15c-1.05,2.49-1.57,5.56-1.57,9.23c0,3.6,0.52,6.64,1.57,9.13
			c1.05,2.29,2.58,4.03,4.61,5.2c2.03,1.18,4.45,1.77,7.26,1.77c4.06,0,7.25-1.29,9.57-3.88c2.32-2.58,3.49-6.27,3.49-11.04V166.92z
			"/>
	</g>
	<g class="st1">
		<polygon class="st2" points="187.44,141.2 172.24,125.99 152.69,125.99 160.29,133.59 147.66,133.59 112.73,168.52 125.25,181.05 
			165.1,141.2 		"/>
		<polygon class="st2" points="102.85,203.45 127.9,203.45 137.78,193.57 125.25,181.05 		"/>
		<polygon class="st2" points="52.76,203.45 77.8,203.45 112.73,168.52 100.21,156 		"/>
		<polygon class="st2" points="122.61,133.59 77.8,133.59 100.21,156 		"/>
	</g>
	<rect x="-36.5" y="-30.5" class="st3" width="818" height="428"/>
</g>
<g id="Layer_2">
	<g>
		<path class="st4" d="M269.46,178.37c0,2.5-0.24,4.92-0.71,7.26c-0.47,2.34-1.15,4.49-2.03,6.45c-1.76,3.93-4.37,6.97-7.82,9.14
			c-3.45,2.17-7.62,3.25-12.49,3.25c-3.45,0-6.57-0.59-9.34-1.78c-2.78-1.18-5.11-2.93-7.01-5.23v26.3H218.8v-70.26h10.97v5.99
			c1.89-2.44,4.25-4.26,7.06-5.48c2.81-1.22,6.01-1.83,9.6-1.83c4.87,0,9.04,1.08,12.49,3.25c3.45,2.17,6.06,5.21,7.82,9.14
			C268.55,168.62,269.46,173.22,269.46,178.37z M257.48,178.37c0-3.79-0.54-6.97-1.62-9.54c-1.08-2.37-2.67-4.15-4.77-5.33
			c-2.1-1.18-4.6-1.78-7.51-1.78c-4.2,0-7.51,1.34-9.95,4.01c-2.44,2.67-3.66,6.45-3.66,11.32v2.54c0,4.94,1.22,8.75,3.66,11.42
			c2.44,2.67,5.75,4.01,9.95,4.01c2.91,0,5.41-0.61,7.51-1.83c2.1-1.22,3.69-3.01,4.77-5.38
			C256.94,185.24,257.48,182.09,257.48,178.37z"/>
		<path class="st4" d="M316.93,157.35c3.32,3.45,4.98,8.5,4.98,15.13v30.77h-11.17v-28.53c0-4.47-0.91-7.75-2.74-9.85
			c-1.83-2.1-4.64-3.15-8.43-3.15c-3.99,0-7.04,1.13-9.14,3.4c-2.1,2.27-3.15,5.64-3.15,10.1v28.02h-11.27v-71.69h11.27v27.52
			c3.45-4.6,8.63-6.9,15.54-6.9C308.91,152.17,313.61,153.9,316.93,157.35z"/>
		<path class="st4" d="M339.21,200.91c-3.93-2.37-6.84-5.65-8.73-9.85c-1.69-3.59-2.54-7.82-2.54-12.69c0-4.87,0.85-9.14,2.54-12.79
			c1.89-4.2,4.81-7.48,8.73-9.85c3.92-2.37,8.73-3.55,14.42-3.55s10.51,1.19,14.47,3.55c3.96,2.37,6.89,5.65,8.78,9.85
			c1.69,3.79,2.54,8.06,2.54,12.79c0,4.6-0.85,8.87-2.54,12.79c-1.9,4.2-4.82,7.46-8.78,9.8s-8.78,3.5-14.47,3.5
			S343.13,203.28,339.21,200.91z M361.29,193.14c2.06-1.25,3.6-3,4.62-5.23c1.02-2.3,1.52-5.48,1.52-9.54
			c0-4.13-0.51-7.31-1.52-9.54c-1.02-2.3-2.56-4.06-4.62-5.28c-2.07-1.22-4.62-1.83-7.67-1.83c-3.05,0-5.58,0.61-7.62,1.83
			c-2.03,1.22-3.55,2.98-4.57,5.28c-1.08,2.37-1.62,5.55-1.62,9.54c0,3.93,0.54,7.11,1.62,9.54c1.02,2.23,2.54,3.98,4.57,5.23
			c2.03,1.25,4.57,1.88,7.62,1.88C356.67,195.02,359.23,194.39,361.29,193.14z"/>
		<path class="st4" d="M422.03,189.43c0.57-1.15,0.93-2.3,1.07-3.45h11.17c-0.47,5.01-2.44,9.14-5.89,12.39
			c-2.23,1.96-4.94,3.47-8.12,4.52c-3.18,1.05-6.67,1.57-10.46,1.57c-5.82,0-10.78-1.15-14.88-3.45c-4.1-2.3-7.09-5.55-8.99-9.75
			c-1.62-3.66-2.44-7.99-2.44-13c0-2.57,0.2-4.91,0.61-7.01c0.41-2.1,1.02-4.06,1.83-5.89c1.89-4.2,4.82-7.45,8.78-9.75
			c3.96-2.3,8.71-3.45,14.27-3.45c5.55,0,10.31,1.15,14.27,3.45c3.96,2.3,6.85,5.52,8.68,9.65c1.02,2.3,1.71,4.71,2.08,7.21
			c0.37,2.5,0.56,5.48,0.56,8.94h-39.7c0.2,2.98,0.71,5.31,1.52,7.01c1.02,2.3,2.64,4.06,4.87,5.28c2.23,1.22,5.01,1.83,8.33,1.83
			c2.17,0,4.13-0.27,5.89-0.81c1.76-0.54,3.21-1.32,4.37-2.33C420.72,191.57,421.45,190.58,422.03,189.43z M396.39,168.42
			c-0.68,1.49-1.12,3.08-1.32,4.77h27.92c-0.2-1.76-0.61-3.49-1.22-5.18c-1.08-2.23-2.67-3.92-4.77-5.08
			c-2.1-1.15-4.71-1.73-7.82-1.73C402.82,161.21,398.56,163.61,396.39,168.42z"/>
		<path class="st4" d="M482.04,157.35c3.32,3.45,4.98,8.5,4.98,15.13v30.77h-11.17v-28.53c0-4.47-0.91-7.75-2.74-9.85
			c-1.83-2.1-4.64-3.15-8.43-3.15c-4,0-7.04,1.13-9.14,3.4c-2.1,2.27-3.15,5.64-3.15,10.1v28.02h-11.27v-49.75h11.27v5.58
			c3.45-4.6,8.63-6.9,15.54-6.9C474.01,152.17,478.72,153.9,482.04,157.35z"/>
		<path class="st4" d="M496.19,144.2c-1.29-1.18-1.93-2.69-1.93-4.52c0-1.89,0.62-3.44,1.88-4.62c1.25-1.18,2.93-1.78,5.03-1.78
			c1.96,0,3.55,0.59,4.77,1.78c1.22,1.19,1.83,2.73,1.83,4.62c0,1.83-0.63,3.33-1.88,4.52c-1.25,1.19-2.83,1.78-4.72,1.78
			C499.13,145.98,497.47,145.38,496.19,144.2z M495.38,153.49h11.27v49.75h-11.27V153.49z"/>
		<path class="st4" d="M530.47,177.76l-19.5-24.27h13.81l12.39,16.55l12.49-16.55h13.71l-19.29,24.27l20,25.49h-13.81l-13.1-17.46
			l-13,17.46h-13.61L530.47,177.76z"/>
		<path class="st4" d="M600.93,189.43c0.57-1.15,0.93-2.3,1.07-3.45h11.17c-0.47,5.01-2.44,9.14-5.89,12.39
			c-2.23,1.96-4.94,3.47-8.12,4.52c-3.18,1.05-6.67,1.57-10.46,1.57c-5.82,0-10.78-1.15-14.88-3.45c-4.1-2.3-7.09-5.55-8.99-9.75
			c-1.62-3.66-2.44-7.99-2.44-13c0-2.57,0.2-4.91,0.61-7.01c0.41-2.1,1.02-4.06,1.83-5.89c1.89-4.2,4.82-7.45,8.78-9.75
			c3.96-2.3,8.71-3.45,14.27-3.45c5.55,0,10.31,1.15,14.27,3.45c3.96,2.3,6.85,5.52,8.68,9.65c1.02,2.3,1.71,4.71,2.08,7.21
			c0.37,2.5,0.56,5.48,0.56,8.94h-39.7c0.2,2.98,0.71,5.31,1.52,7.01c1.02,2.3,2.64,4.06,4.87,5.28c2.23,1.22,5.01,1.83,8.33,1.83
			c2.17,0,4.13-0.27,5.89-0.81c1.76-0.54,3.21-1.32,4.37-2.33C599.63,191.57,600.36,190.58,600.93,189.43z M575.29,168.42
			c-0.68,1.49-1.12,3.08-1.32,4.77h27.92c-0.2-1.76-0.61-3.49-1.22-5.18c-1.08-2.23-2.67-3.92-4.77-5.08
			c-2.1-1.15-4.71-1.73-7.82-1.73C581.72,161.21,577.46,163.61,575.29,168.42z"/>
		<path class="st4" d="M668.12,131.56v71.69h-10.97v-5.99c-1.9,2.37-4.25,4.16-7.06,5.38c-2.81,1.22-5.97,1.83-9.49,1.83
			c-4.87,0-9.04-1.08-12.49-3.25c-3.45-2.17-6.06-5.21-7.82-9.14c-0.88-1.96-1.56-4.11-2.03-6.45c-0.47-2.34-0.71-4.75-0.71-7.26
			c0-5.14,0.91-9.75,2.74-13.81c1.76-3.93,4.37-6.97,7.82-9.14c3.45-2.17,7.62-3.25,12.49-3.25c3.45,0,6.57,0.59,9.34,1.78
			c2.77,1.19,5.11,2.93,7.01,5.23v-27.62H668.12z M656.95,177.05c0-4.94-1.2-8.73-3.6-11.37c-2.4-2.64-5.7-3.96-9.9-3.96
			c-2.91,0-5.42,0.59-7.51,1.78c-2.1,1.19-3.69,2.96-4.77,5.33c-1.08,2.57-1.62,5.75-1.62,9.54c0,3.72,0.54,6.87,1.62,9.44
			c1.08,2.37,2.67,4.16,4.77,5.38c2.1,1.22,4.6,1.83,7.51,1.83c4.2,0,7.5-1.34,9.9-4.01c2.4-2.67,3.6-6.48,3.6-11.42V177.05z"/>
	</g>
	<g>
		<polygon class="st4" points="189.99,150.44 174.27,134.71 154.05,134.71 161.91,142.58 148.85,142.58 112.72,178.7 125.67,191.65 
			166.89,150.44 		"/>
		<polygon class="st4" points="102.5,214.83 128.4,214.83 138.63,204.61 125.67,191.65 		"/>
		<polygon class="st4" points="50.69,214.83 76.6,214.83 112.72,178.7 99.77,165.75 		"/>
		<polygon class="st4" points="122.94,142.58 76.6,142.58 99.77,165.75 		"/>
	</g>
	<g>
	</g>
	<g>
	</g>
	<g>
	</g>
	<g>
	</g>
	<g>
	</g>
	<g>
	</g>
</g>
</svg>
