<?xml version="1.0" encoding="utf-8"?>
<!-- Generator: Adobe Illustrator 23.1.0, SVG Export Plug-In . SVG Version: 6.00 Build 0)  -->
<svg version="1.1" xmlns="http://www.w3.org/2000/svg" xmlns:xlink="http://www.w3.org/1999/xlink" x="0px" y="0px" width="300px"
	 height="300px" viewBox="0 0 300 300" style="enable-background:new 0 0 300 300;" xml:space="preserve">
<style type="text/css">
	.st0{fill:#ECECEC;}
	.st1{fill:#2B454E;}
	.st2{fill:#FFC800;}
	.st3{opacity:0.2;}
	.st4{opacity:0.1;}
	.st5{fill:#1A2E35;}
	.st6{fill:#FFFFFF;}
	.st7{opacity:0.4;fill:#FFFFFF;}
	.st8{fill:#DCDCDC;}
</style>
<g id="Layer_1">
</g>
<g id="Shadow">
	<ellipse class="st0" cx="140.7" cy="261.8" rx="140.7" ry="19.9"/>
</g>
<g id="Robot">
	<g>
		<g>
			<rect x="126.6" y="134.2" class="st1" width="33.5" height="2.7"/>
			<rect x="126.6" y="137.8" class="st1" width="33.5" height="2.7"/>
			<rect x="126.6" y="141.4" class="st1" width="33.5" height="2.7"/>
			<rect x="126.6" y="145" class="st1" width="33.5" height="2.7"/>
			<rect x="126.6" y="148.5" class="st1" width="33.5" height="2.7"/>
		</g>
		<g>
			<rect x="110.9" y="219.9" class="st1" width="63.7" height="2.7"/>
			<rect x="110.9" y="223.4" class="st1" width="63.7" height="2.7"/>
			<rect x="110.9" y="227" class="st1" width="63.7" height="2.7"/>
			<rect x="110.9" y="230.6" class="st1" width="63.7" height="2.7"/>
			<rect x="110.9" y="234.2" class="st1" width="63.7" height="2.7"/>
		</g>
		<g>
			<g>
				<path class="st2" d="M82.9,111.5c0-0.4-13.9-5.1-13.9-5.1l0.8-48l18.5-4L82.9,111.5z"/>
				<path class="st3" d="M82.9,111.5c0-0.4-13.9-5.1-13.9-5.1l0.8-48l18.5-4L82.9,111.5z"/>
			</g>
			<g>
				<path class="st2" d="M210.9,130.4c0.1-0.4,14.8,0.1,14.8,0.1l15.7-45.4l-16-10.1L210.9,130.4z"/>
				<path class="st3" d="M210.9,130.4c0.1-0.4,14.8,0.1,14.8,0.1l15.7-45.4l-16-10.1L210.9,130.4z"/>
			</g>
			<path class="st2" d="M80.2,129.2c0,0,5.2-77.7,9.7-103.2c0,0,93.8,7.1,144.5,26.5c0,0-26.1,90.7-27.5,95.2
				C207,147.7,140.9,134.7,80.2,129.2z"/>
			<g>
				<path class="st4" d="M164,36.4c-1.5,9.4-3.1,18.7-4.7,28l-4.8,28l-0.3-0.4l31.4,7.5l15.7,3.8l15.7,3.9l-15.8-3.5l-15.7-3.6
					l-31.5-7.3l-0.3-0.1l0.1-0.3l5-28C160.5,55,162.2,45.7,164,36.4z"/>
				<path class="st4" d="M160.5,41.7c0,0.9-0.7,1.7-1.6,1.8c-0.5,0-1-0.1-1.4-0.4c-0.4-0.3-0.6-0.9-0.6-1.4c0-0.5,0.2-1,0.6-1.4
					c0.4-0.3,0.9-0.5,1.4-0.4C159.9,40,160.6,40.9,160.5,41.7z M160.5,41.7c0-0.4-0.2-0.9-0.5-1.1c-0.3-0.3-0.7-0.4-1.1-0.3
					c-0.8,0.1-1.3,0.8-1.3,1.5c0,0.7,0.5,1.4,1.3,1.5c0.4,0,0.8-0.1,1.1-0.3C160.3,42.6,160.5,42.1,160.5,41.7z"/>
				<path class="st4" d="M158.9,53.3c0,0.9-0.7,1.7-1.6,1.8c-0.5,0-1-0.1-1.4-0.4c-0.4-0.3-0.6-0.9-0.6-1.4c0-0.5,0.2-1,0.6-1.4
					c0.4-0.3,0.9-0.5,1.4-0.4C158.2,51.5,158.9,52.4,158.9,53.3z M158.9,53.3c0-0.4-0.2-0.9-0.5-1.1c-0.3-0.3-0.7-0.4-1.1-0.3
					c-0.8,0.1-1.3,0.8-1.3,1.5c0,0.7,0.5,1.4,1.3,1.5c0.4,0,0.8-0.1,1.1-0.3C158.7,54.1,158.9,53.7,158.9,53.3z"/>
				<path class="st4" d="M156.9,65.5c0,0.9-0.7,1.7-1.6,1.8c-0.5,0-1-0.1-1.4-0.4c-0.4-0.3-0.6-0.9-0.6-1.4c0-0.5,0.2-1,0.6-1.4
					c0.4-0.3,0.9-0.5,1.4-0.4C156.2,63.7,156.9,64.6,156.9,65.5z M156.9,65.5c0-0.4-0.2-0.9-0.5-1.1c-0.3-0.3-0.7-0.4-1.1-0.3
					c-0.8,0.1-1.3,0.8-1.3,1.5c0,0.7,0.5,1.4,1.3,1.5c0.4,0,0.8-0.1,1.1-0.3C156.7,66.3,156.9,65.9,156.9,65.5z"/>
				<path class="st4" d="M154.8,77.7c0,0.9-0.7,1.7-1.6,1.8c-0.5,0-1-0.1-1.4-0.4c-0.4-0.3-0.6-0.9-0.6-1.4c0-0.5,0.2-1,0.6-1.4
					c0.4-0.3,0.9-0.5,1.4-0.4C154.2,75.9,154.8,76.8,154.8,77.7z M154.8,77.7c0-0.4-0.2-0.9-0.5-1.1c-0.3-0.3-0.7-0.4-1.1-0.3
					c-0.8,0.1-1.3,0.8-1.3,1.5c0,0.7,0.5,1.4,1.3,1.5c0.4,0,0.8-0.1,1.1-0.3C154.6,78.5,154.8,78.1,154.8,77.7z"/>
				<path class="st4" d="M161.7,97.2c0,0.9-0.7,1.7-1.6,1.8c-0.5,0-1-0.1-1.4-0.4c-0.4-0.3-0.6-0.9-0.6-1.4c0-0.5,0.2-1,0.6-1.4
					c0.4-0.3,0.9-0.5,1.4-0.4C161.1,95.4,161.8,96.3,161.7,97.2z M161.7,97.2c0-0.4-0.2-0.9-0.5-1.1c-0.3-0.3-0.7-0.4-1.1-0.3
					c-0.8,0.1-1.3,0.8-1.3,1.5c0,0.7,0.5,1.4,1.3,1.5c0.4,0,0.8-0.1,1.1-0.3C161.5,98,161.7,97.6,161.7,97.2z"/>
				<path class="st4" d="M173.3,100c0,0.9-0.7,1.7-1.6,1.8c-0.5,0-1-0.1-1.4-0.4c-0.4-0.3-0.6-0.9-0.6-1.4c0-0.5,0.2-1,0.6-1.4
					c0.4-0.3,0.9-0.5,1.4-0.4C172.6,98.2,173.3,99.1,173.3,100z M173.3,100c0-0.4-0.2-0.9-0.5-1.1c-0.3-0.3-0.7-0.4-1.1-0.3
					c-0.8,0.1-1.3,0.8-1.3,1.5c0,0.7,0.5,1.4,1.3,1.5c0.4,0,0.8-0.1,1.1-0.3C173.1,100.8,173.3,100.4,173.3,100z"/>
				<path class="st4" d="M184.8,102.8c0,0.9-0.7,1.7-1.6,1.8c-0.5,0-1-0.1-1.4-0.4c-0.4-0.3-0.6-0.9-0.6-1.4c0-0.5,0.2-1,0.6-1.4
					c0.4-0.3,0.9-0.5,1.4-0.4C184.1,101,184.8,101.9,184.8,102.8z M184.8,102.8c0-0.4-0.2-0.9-0.5-1.1c-0.3-0.3-0.7-0.4-1.1-0.3
					c-0.8,0.1-1.3,0.8-1.3,1.5c0,0.7,0.5,1.4,1.3,1.5c0.4,0,0.8-0.1,1.1-0.3C184.6,103.6,184.8,103.2,184.8,102.8z"/>
				<path class="st4" d="M196.3,105.6c0,0.9-0.7,1.7-1.6,1.8c-0.5,0-1-0.1-1.4-0.4c-0.4-0.3-0.6-0.9-0.6-1.4c0-0.5,0.2-1,0.6-1.4
					c0.4-0.3,0.9-0.5,1.4-0.4C195.7,103.9,196.3,104.7,196.3,105.6z M196.3,105.6c0-0.4-0.2-0.9-0.5-1.1c-0.3-0.3-0.7-0.4-1.1-0.3
					c-0.8,0.1-1.3,0.8-1.3,1.5c0,0.7,0.5,1.4,1.3,1.5c0.4,0,0.8-0.1,1.1-0.3C196.1,106.5,196.3,106,196.3,105.6z"/>
				<path class="st4" d="M207.8,108.5c0,0.9-0.8,1.7-1.8,1.7c-0.5,0-1-0.2-1.3-0.5c-0.4-0.4-0.6-0.9-0.5-1.4c0-0.5,0.3-1,0.7-1.3
					c0.4-0.3,0.9-0.4,1.4-0.3C207.3,106.7,207.9,107.7,207.8,108.5z M207.8,108.5c0-0.4-0.1-0.9-0.4-1.2c-0.3-0.3-0.7-0.4-1.1-0.4
					c-0.8,0-1.4,0.7-1.4,1.4c-0.1,0.7,0.4,1.4,1.2,1.6c0.4,0.1,0.8,0,1.2-0.3C207.6,109.4,207.8,109,207.8,108.5z"/>
				<path class="st4" d="M152.8,89.9c0,0.9-0.7,1.7-1.6,1.8c-0.5,0-1-0.1-1.4-0.4c-0.4-0.3-0.6-0.9-0.6-1.4c0-0.5,0.2-1,0.6-1.4
					c0.4-0.3,0.9-0.5,1.4-0.4C152.1,88.2,152.8,89,152.8,89.9z M152.8,89.9c0-0.4-0.2-0.9-0.5-1.1c-0.3-0.3-0.7-0.4-1.1-0.3
					c-0.8,0.1-1.3,0.8-1.3,1.5c0,0.7,0.5,1.4,1.3,1.5c0.4,0,0.8-0.1,1.1-0.3C152.6,90.8,152.8,90.3,152.8,89.9z"/>
			</g>
			<g>
				<g>
					
						<ellipse transform="matrix(0.7436 -0.6686 0.6686 0.7436 -30.7516 100.44)" class="st3" cx="115.6" cy="90.3" rx="26.6" ry="26.6"/>
					
						<ellipse transform="matrix(0.354 -0.9352 0.9352 0.354 -9.8008 166.4438)" class="st5" cx="115.6" cy="90.3" rx="21.4" ry="21.4"/>
					<g>
						
							<rect x="108.9" y="82" transform="matrix(0.9871 0.1599 -0.1599 0.9871 14.958 -16.7255)" class="st2" width="5.1" height="5.1"/>
						
							<rect x="104.7" y="76.2" transform="matrix(0.9871 0.1599 -0.1599 0.9871 13.976 -16.1309)" class="st2" width="5.1" height="5.1"/>
						
							<rect x="124.7" y="79.5" transform="matrix(0.9871 0.1599 -0.1599 0.9871 14.7508 -19.2842)" class="st2" width="5.1" height="5.1"/>
						
							<rect x="101.5" y="96.1" transform="matrix(0.9871 0.1599 -0.1599 0.9871 17.1116 -15.3605)" class="st2" width="5.1" height="5.1"/>
						
							<rect x="121.4" y="99.3" transform="matrix(0.9871 0.1599 -0.1599 0.9871 17.8864 -18.5139)" class="st2" width="5.1" height="5.1"/>
						
							<rect x="107.3" y="91.9" transform="matrix(0.9871 0.1599 -0.1599 0.9871 16.5169 -16.3425)" class="st2" width="5.1" height="5.1"/>
						
							<rect x="113.1" y="87.8" transform="matrix(0.9871 0.1599 -0.1599 0.9871 15.9312 -17.3224)" class="st2" width="5.1" height="5.1"/>
						
							<rect x="118.9" y="83.7" transform="matrix(0.9871 0.1599 -0.1599 0.9871 15.3454 -18.3022)" class="st2" width="5.1" height="5.1"/>
						
							<rect x="117.3" y="93.5" transform="matrix(0.9871 0.1599 -0.1599 0.9871 16.9064 -17.9211)" class="st2" width="5.1" height="5.1"/>
					</g>
				</g>
				<g>
					<g>
						
							<ellipse transform="matrix(0.6338 -0.7735 0.7735 0.6338 -9.9905 181.8586)" class="st2" cx="187.1" cy="101.5" rx="26.6" ry="26.6"/>
						
							<ellipse transform="matrix(0.6338 -0.7735 0.7735 0.6338 -9.9905 181.8586)" class="st3" cx="187.1" cy="101.5" rx="26.6" ry="26.6"/>
						<path class="st3" d="M213,107.6c-0.1,0.5-0.3,1-0.4,1.5l-51.9-11.1c0.1-0.9,0.3-1.9,0.5-2.8c3.4-14.3,17.8-23.2,32.1-19.8
							C207.5,79,216.4,93.3,213,107.6z"/>
					</g>
					
						<ellipse transform="matrix(0.9227 -0.3855 0.3855 0.9227 -24.6618 79.9647)" class="st5" cx="187.1" cy="101.5" rx="21.4" ry="21.4"/>
					<g>
						
							<rect x="184.5" y="88.9" transform="matrix(0.9729 0.2312 -0.2312 0.9729 28.5338 -40.5054)" class="st2" width="5.1" height="25.2"/>
					</g>
					<g>
						<path class="st2" d="M214.5,107.1l-54.5-13c3.6-15.1,18.7-24.4,33.8-20.8C208.8,77,218.1,92.1,214.5,107.1z"/>
						<path class="st3" d="M214.5,107.1l-54.5-13c3.6-15.1,18.7-24.4,33.8-20.8C208.8,77,218.1,92.1,214.5,107.1z"/>
					</g>
				</g>
				<path class="st4" d="M140.7,117.3c0.1-2.1,0.9-4.3,2.5-6c0.8-0.9,1.8-1.5,2.9-1.9c1.1-0.4,2.3-0.5,3.5-0.4
					c1.2,0.1,2.4,0.6,3.3,1.3c1,0.8,1.7,1.7,2.1,2.8c0.9,2.1,1,4.4,0.6,6.5c-0.4-2.1-0.9-4.1-1.9-5.8c-1-1.7-2.5-2.7-4.4-2.9
					c-1.9-0.2-3.7,0.3-5.2,1.5C142.7,113.6,141.6,115.4,140.7,117.3z"/>
			</g>
			<g>
				<path class="st6" d="M87.5,63c0.2-2.8,0.5-5.7,0.8-8.5c0.3-2.8,0.6-5.7,1-8.5c0.3-2.8,0.7-5.7,1.1-8.5c0.4-2.8,0.8-5.6,1.1-8.5
					l0.1-0.8l0.8,0c6.1,0.4,12.3,0.9,18.4,1.5c3.1,0.3,6.1,0.7,9.2,1.1c3,0.4,6.1,0.8,9.1,1.4l-18.4-1.1l-18.4-1.2l0.9-0.7
					c-0.4,2.8-0.8,5.6-1.2,8.5c-0.4,2.8-0.9,5.6-1.3,8.4c-0.5,2.8-0.9,5.6-1.4,8.4C88.6,57.4,88.1,60.2,87.5,63z"/>
				<path class="st6" d="M92,84.5c0.6-3.4,2.2-6.7,4.3-9.5c0.5-0.7,1.1-1.4,1.7-2.1c0.6-0.6,1.3-1.3,1.9-1.9
					c0.7-0.6,1.4-1.1,2.1-1.7c0.8-0.5,1.5-1,2.3-1.4c0.8-0.4,1.6-0.8,2.4-1.2l2.5-0.9l2.6-0.5c0.9-0.1,1.8-0.2,2.7-0.2
					c3.6-0.1,7,0.7,10.3,2c-3.4-0.6-6.8-1-10.2-0.7c-3.3,0.3-6.6,1.3-9.5,3c-2.9,1.6-5.5,3.8-7.7,6.4C95.1,78.4,93.3,81.3,92,84.5z"
					/>
				<path class="st6" d="M165.5,91.7c1.1-3.3,3.1-6.3,5.5-8.8c0.6-0.6,1.3-1.2,1.9-1.8c0.7-0.5,1.4-1.1,2.1-1.6
					c0.8-0.5,1.5-0.9,2.3-1.4c0.8-0.4,1.6-0.8,2.4-1.1c0.9-0.3,1.7-0.6,2.6-0.8l2.6-0.5l2.7-0.2c0.9,0,1.8,0.1,2.7,0.1
					c3.5,0.4,6.9,1.6,9.9,3.4c-3.3-1.1-6.6-1.9-10-2.1c-3.4-0.2-6.7,0.4-9.8,1.6c-3.1,1.2-6,3-8.5,5.2
					C169.4,86.1,167.2,88.7,165.5,91.7z"/>
			</g>
		</g>
		<g>
			<g>
				<g>
					<path class="st2" d="M83.2,177.1c-6.8,0-21.8-1.5-31.4-13.9c-12.3-15.8-7.9-46.2-7.7-47.4l5.3,0.8c0,0.3-4.3,29.3,6.6,43.3
						c10.6,13.7,29.9,11.7,30.1,11.7l0.6,5.4C86.6,176.9,85.3,177.1,83.2,177.1z"/>
					<path class="st7" d="M83.2,177.1c-6.8,0-21.8-1.5-31.4-13.9c-12.3-15.8-7.9-46.2-7.7-47.4l5.3,0.8c0,0.3-4.3,29.3,6.6,43.3
						c10.6,13.7,29.9,11.7,30.1,11.7l0.6,5.4C86.6,176.9,85.3,177.1,83.2,177.1z"/>
				</g>
				<path class="st2" d="M51.1,120.2c-1,0-2-0.1-3-0.2c-9-1.5-13-6.8-14.8-11.1c-1.8-4.3-2.2-9.4-1.2-15.4l11.4,1.9
					c-0.6,3.7-0.4,6.9,0.5,9.1c0.6,1.6,1.9,3.5,5.9,4.1c1.8,0.3,3.8,0.1,5.9-3c1.6-2.4,2.6-5.7,2.9-7.8l11.4,1.9
					c-0.3,1.6-1.4,7.4-4.7,12.3C61.9,117.4,56.9,120.2,51.1,120.2z"/>
				<g>
					<path class="st2" d="M94.5,192.5c0-0.2-9.7-1.8-9.7-1.8l-4.7-31.5l11.7-4.6L94.5,192.5z"/>
					<path class="st3" d="M94.5,192.5c0-0.2-9.7-1.8-9.7-1.8l-4.7-31.5l11.7-4.6L94.5,192.5z"/>
				</g>
			</g>
			<g>
				<path class="st2" d="M190,192.6c0-0.2,9.7-1.6,9.7-1.6l5.4-31.4l-11.6-4.9L190,192.6z"/>
				<path class="st3" d="M190,192.6c0-0.2,9.7-1.6,9.7-1.6l5.4-31.4l-11.6-4.9L190,192.6z"/>
			</g>
			<path class="st2" d="M90.5,147.5c0,0,78.1-3.3,104.5,1.1c0,0-7.7,75.6-8.2,77.1c0,0-77.7-0.2-89.9,0
				C97,225.7,90.4,175.4,90.5,147.5z"/>
			<g>
				<path class="st3" d="M114.2,168.3c0,0,42.6-1.7,57.1,0.5c0,0-4.2,38.1-4.5,38.9c0,0-42.4-0.1-49.1,0
					C117.8,207.6,114.8,181.6,114.2,168.3z"/>
				<path class="st3" d="M120.1,207.6c-1,0-1.8,0-2.3,0c0,0-2.9-26.1-3.5-39.4c0,0,1,0,2.7-0.1L120.1,207.6z"/>
				<g>
					<g>
						<g>
							<g>
								<path class="st2" d="M132.6,177.7c-2.4-0.8-4.9,0.6-5.7,3c-0.8,2.4,0.6,4.9,3,5.7c2.4,0.8,4.9-0.6,5.7-3
									C136.3,181,135,178.4,132.6,177.7z M135.1,183.2c-0.7,2.1-2.9,3.3-5,2.6c-2.1-0.7-3.3-2.9-2.6-5c0.7-2.1,2.9-3.3,5-2.6
									C134.6,178.9,135.7,181.1,135.1,183.2z M132.6,177.7c-2.4-0.8-4.9,0.6-5.7,3c-0.8,2.4,0.6,4.9,3,5.7c2.4,0.8,4.9-0.6,5.7-3
									C136.3,181,135,178.4,132.6,177.7z M135.1,183.2c-0.7,2.1-2.9,3.3-5,2.6c-2.1-0.7-3.3-2.9-2.6-5c0.7-2.1,2.9-3.3,5-2.6
									C134.6,178.9,135.7,181.1,135.1,183.2z M132.6,177.7c-2.4-0.8-4.9,0.6-5.7,3c-0.8,2.4,0.6,4.9,3,5.7c2.4,0.8,4.9-0.6,5.7-3
									C136.3,181,135,178.4,132.6,177.7z M135.1,183.2c-0.7,2.1-2.9,3.3-5,2.6c-2.1-0.7-3.3-2.9-2.6-5c0.7-2.1,2.9-3.3,5-2.6
									C134.6,178.9,135.7,181.1,135.1,183.2z M134.1,172.9c-5-1.6-10.4,1.2-12,6.2c-1.6,5,1.2,10.4,6.2,12c5,1.6,10.4-1.2,12-6.2
									C142,179.8,139.2,174.5,134.1,172.9z M136.3,183.6c-0.9,2.8-3.8,4.3-6.6,3.4c-2.8-0.9-4.3-3.8-3.4-6.6
									c0.9-2.8,3.8-4.3,6.6-3.4C135.6,177.9,137.1,180.8,136.3,183.6z M135.6,183.4c0.8-2.4-0.6-4.9-3-5.7c-2.4-0.8-4.9,0.6-5.7,3
									c-0.8,2.4,0.6,4.9,3,5.7C132.3,187.1,134.8,185.7,135.6,183.4z M135.1,183.2c-0.7,2.1-2.9,3.3-5,2.6c-2.1-0.7-3.3-2.9-2.6-5
									c0.7-2.1,2.9-3.3,5-2.6C134.6,178.9,135.7,181.1,135.1,183.2z M132.6,177.7c-2.4-0.8-4.9,0.6-5.7,3c-0.8,2.4,0.6,4.9,3,5.7
									c2.4,0.8,4.9-0.6,5.7-3C136.3,181,135,178.4,132.6,177.7z M135.1,183.2c-0.7,2.1-2.9,3.3-5,2.6c-2.1-0.7-3.3-2.9-2.6-5
									c0.7-2.1,2.9-3.3,5-2.6C134.6,178.9,135.7,181.1,135.1,183.2z M132.6,177.7c-2.4-0.8-4.9,0.6-5.7,3c-0.8,2.4,0.6,4.9,3,5.7
									c2.4,0.8,4.9-0.6,5.7-3C136.3,181,135,178.4,132.6,177.7z M135.1,183.2c-0.7,2.1-2.9,3.3-5,2.6c-2.1-0.7-3.3-2.9-2.6-5
									c0.7-2.1,2.9-3.3,5-2.6C134.6,178.9,135.7,181.1,135.1,183.2z"/>
								<g>
									<polygon class="st2" points="130.3,191.3 126.8,190.2 126.2,192.7 129.3,193.7 									"/>
									<polygon class="st2" points="124,188 122.3,184.7 120.1,186.1 121.6,189 									"/>
									<polygon class="st2" points="121.8,181.2 122.9,177.7 120.4,177.1 119.4,180.2 									"/>
									<polygon class="st2" points="125.1,174.9 128.4,173.2 127,171 124.1,172.5 									"/>
									<polygon class="st2" points="131.9,172.8 135.4,173.9 136,171.3 132.9,170.4 									"/>
									<polygon class="st2" points="138.2,176.1 139.9,179.3 142.1,177.9 140.6,175 									"/>
									<polygon class="st2" points="140.3,182.8 139.2,186.4 141.8,186.9 142.7,183.8 									"/>
									<polygon class="st2" points="137,189.1 133.8,190.8 135.2,193.1 138.1,191.6 									"/>
								</g>
							</g>
						</g>
					</g>
				</g>
				<g>
					<g>
						<g>
							<g>
								<path class="st8" d="M148,191c-1.4-0.9-3.3-0.5-4.2,0.9c-0.9,1.4-0.5,3.3,0.9,4.2c1.4,0.9,3.3,0.5,4.2-0.9
									C149.9,193.8,149.5,191.9,148,191z M148.6,195c-0.8,1.2-2.5,1.6-3.7,0.8c-1.2-0.8-1.6-2.5-0.8-3.7c0.8-1.2,2.5-1.6,3.7-0.8
									C149.1,192.1,149.4,193.8,148.6,195z M148,191c-1.4-0.9-3.3-0.5-4.2,0.9c-0.9,1.4-0.5,3.3,0.9,4.2c1.4,0.9,3.3,0.5,4.2-0.9
									C149.9,193.8,149.5,191.9,148,191z M148.6,195c-0.8,1.2-2.5,1.6-3.7,0.8c-1.2-0.8-1.6-2.5-0.8-3.7c0.8-1.2,2.5-1.6,3.7-0.8
									C149.1,192.1,149.4,193.8,148.6,195z M148,191c-1.4-0.9-3.3-0.5-4.2,0.9c-0.9,1.4-0.5,3.3,0.9,4.2c1.4,0.9,3.3,0.5,4.2-0.9
									C149.9,193.8,149.5,191.9,148,191z M148.6,195c-0.8,1.2-2.5,1.6-3.7,0.8c-1.2-0.8-1.6-2.5-0.8-3.7c0.8-1.2,2.5-1.6,3.7-0.8
									C149.1,192.1,149.4,193.8,148.6,195z M149.9,188.2c-3-1.9-7-1.1-8.9,1.9c-1.9,3-1.1,7,1.9,8.9c3,1.9,7,1.1,8.9-1.9
									C153.7,194.1,152.9,190.1,149.9,188.2z M149.3,195.5c-1.1,1.6-3.3,2.1-4.9,1c-1.6-1.1-2.1-3.3-1-4.9c1.1-1.6,3.3-2.1,4.9-1
									C149.9,191.7,150.4,193.9,149.3,195.5z M148.9,195.2c0.9-1.4,0.5-3.3-0.9-4.2c-1.4-0.9-3.3-0.5-4.2,0.9
									c-0.9,1.4-0.5,3.3,0.9,4.2C146.1,197,148,196.6,148.9,195.2z M148.6,195c-0.8,1.2-2.5,1.6-3.7,0.8c-1.2-0.8-1.6-2.5-0.8-3.7
									c0.8-1.2,2.5-1.6,3.7-0.8C149.1,192.1,149.4,193.8,148.6,195z M148,191c-1.4-0.9-3.3-0.5-4.2,0.9c-0.9,1.4-0.5,3.3,0.9,4.2
									c1.4,0.9,3.3,0.5,4.2-0.9C149.9,193.8,149.5,191.9,148,191z M148.6,195c-0.8,1.2-2.5,1.6-3.7,0.8c-1.2-0.8-1.6-2.5-0.8-3.7
									c0.8-1.2,2.5-1.6,3.7-0.8C149.1,192.1,149.4,193.8,148.6,195z M148,191c-1.4-0.9-3.3-0.5-4.2,0.9c-0.9,1.4-0.5,3.3,0.9,4.2
									c1.4,0.9,3.3,0.5,4.2-0.9C149.9,193.8,149.5,191.9,148,191z M148.6,195c-0.8,1.2-2.5,1.6-3.7,0.8c-1.2-0.8-1.6-2.5-0.8-3.7
									c0.8-1.2,2.5-1.6,3.7-0.8C149.1,192.1,149.4,193.8,148.6,195z"/>
								<g>
									<polygon class="st8" points="144.1,199.4 142,198.1 141.1,199.6 143,200.8 									"/>
									<polygon class="st8" points="140.6,196.1 140,193.7 138.4,194.2 138.8,196.4 									"/>
									<polygon class="st8" points="140.4,191.4 141.8,189.3 140.2,188.4 139,190.3 									"/>
									<polygon class="st8" points="143.7,187.9 146.1,187.4 145.6,185.7 143.4,186.1 									"/>
									<polygon class="st8" points="148.5,187.7 150.5,189.1 151.4,187.5 149.5,186.3 									"/>
									<polygon class="st8" points="151.9,191 152.5,193.4 154.1,192.9 153.7,190.8 									"/>
									<polygon class="st8" points="152.1,195.8 150.8,197.8 152.3,198.7 153.5,196.8 									"/>
									<polygon class="st8" points="148.8,199.3 146.4,199.8 146.9,201.4 149.1,201 									"/>
								</g>
							</g>
						</g>
					</g>
				</g>
			</g>
			<g>
				<polygon class="st2" points="193.1,216.9 196.1,217.4 204.7,159.3 201.3,158.6 				"/>
				<g>
					<path class="st2" d="M166.8,207.6l4.5-38.9l30-10.2c0,0-8.2,58.9-8.2,58.2L166.8,207.6z"/>
					<path class="st7" d="M166.8,207.6l4.5-38.9l30-10.2c0,0-8.2,58.9-8.2,58.2L166.8,207.6z"/>
				</g>
			</g>
			<path class="st6" d="M94.1,170.4c-0.5-3.2-0.8-6.5-1-9.7c-0.1-1.6-0.1-3.3-0.2-4.9c0-1.6-0.1-3.3,0-4.9l0-0.4l0.4,0
				c6-0.3,11.9-0.7,17.9-1c6-0.3,11.9-0.6,17.9-0.7c-5.9,0.5-11.9,1-17.9,1.4c-6,0.5-11.9,0.8-17.9,1.2l0.4-0.4l0,4.9l0.1,4.9
				c0,1.6,0,3.2,0.1,4.9L94.1,170.4z"/>
			<path class="st6" d="M175.5,169.4c1.9-0.9,3.7-1.7,5.7-2.5c1.9-0.8,3.8-1.5,5.8-2.2c1.9-0.7,3.9-1.3,5.9-1.9c2-0.6,4-1.1,6-1.4
				l0.5-0.1l-0.1,0.5c-0.5,2.5-1,5-1.5,7.5c0.2-2.6,0.5-5.1,0.9-7.6l0.4,0.4c-2,0.5-3.9,1-5.9,1.6c-2,0.6-3.9,1.2-5.9,1.8
				L175.5,169.4z"/>
			<g>
				<polygon class="st4" points="107.1,147.7 107.6,157.4 108,167.1 108.8,186.6 109.3,206 109.6,215.8 109.7,225.5 109.2,215.8 
					108.8,206.1 108,186.6 107.5,167.2 107.2,157.4 				"/>
				<path class="st4" d="M104.3,153.6c0.2,0.8-0.3,1.8-1.3,2.1c-0.5,0.1-1,0.1-1.4-0.2c-0.4-0.3-0.8-0.7-0.9-1.2
					c-0.1-0.5,0-1.1,0.3-1.5c0.3-0.4,0.8-0.7,1.3-0.7C103.3,152,104.1,152.7,104.3,153.6z M104.3,153.6c-0.1-0.4-0.4-0.8-0.7-1
					c-0.4-0.2-0.8-0.2-1.2-0.1c-0.8,0.2-1.1,1-1,1.7c0.1,0.7,0.8,1.3,1.6,1.2c0.4,0,0.8-0.2,1-0.6
					C104.3,154.4,104.4,154,104.3,153.6z"/>
				<path class="st4" d="M105,165.2c0.2,0.8-0.3,1.8-1.3,2.1c-0.5,0.1-1,0.1-1.4-0.2c-0.4-0.3-0.8-0.7-0.9-1.2
					c-0.1-0.5,0-1.1,0.3-1.5c0.3-0.4,0.8-0.7,1.3-0.7C104,163.6,104.8,164.4,105,165.2z M105,165.2c-0.1-0.4-0.4-0.8-0.7-1
					c-0.4-0.2-0.8-0.2-1.2-0.1c-0.8,0.2-1.1,1-1,1.7c0.1,0.7,0.8,1.3,1.6,1.2c0.4,0,0.8-0.2,1-0.6C104.9,166.1,105,165.6,105,165.2z
					"/>
				<path class="st4" d="M105.4,177.6c0.2,0.8-0.3,1.8-1.3,2.1c-0.5,0.1-1,0.1-1.4-0.2c-0.4-0.3-0.8-0.7-0.9-1.2
					c-0.1-0.5,0-1.1,0.3-1.5c0.3-0.4,0.8-0.7,1.3-0.7C104.4,176,105.2,176.7,105.4,177.6z M105.4,177.6c-0.1-0.4-0.4-0.8-0.7-1
					c-0.4-0.2-0.8-0.2-1.2-0.1c-0.8,0.2-1.1,1-1,1.7c0.1,0.7,0.8,1.3,1.6,1.2c0.4,0,0.8-0.2,1-0.6
					C105.4,178.5,105.5,178,105.4,177.6z"/>
				<path class="st4" d="M105.8,190c0.2,0.8-0.3,1.8-1.3,2.1c-0.5,0.1-1,0.1-1.4-0.2c-0.4-0.3-0.8-0.7-0.9-1.2
					c-0.1-0.5,0-1.1,0.3-1.5c0.3-0.4,0.8-0.7,1.3-0.7C104.8,188.4,105.6,189.1,105.8,190z M105.8,190c-0.1-0.4-0.4-0.8-0.7-1
					c-0.4-0.2-0.8-0.2-1.2-0.1c-0.8,0.2-1.1,1-1,1.7c0.1,0.7,0.8,1.3,1.6,1.2c0.4,0,0.8-0.2,1-0.6
					C105.8,190.8,105.9,190.4,105.8,190z"/>
				<path class="st4" d="M106.2,202.3c0.2,0.8-0.3,1.8-1.3,2.1c-0.5,0.1-1,0.1-1.4-0.2c-0.4-0.3-0.8-0.7-0.9-1.2
					c-0.1-0.5,0-1.1,0.3-1.5c0.3-0.4,0.8-0.7,1.3-0.7C105.2,200.7,106.1,201.5,106.2,202.3z M106.2,202.3c-0.1-0.4-0.4-0.8-0.7-1
					c-0.4-0.2-0.8-0.2-1.2-0.1c-0.8,0.2-1.1,1-1,1.7c0.1,0.7,0.8,1.3,1.6,1.2c0.4,0,0.8-0.2,1-0.6
					C106.2,203.2,106.3,202.7,106.2,202.3z"/>
				<path class="st4" d="M106.6,214.7c0.2,0.8-0.3,1.8-1.3,2.1c-0.5,0.1-1,0.1-1.4-0.2c-0.4-0.3-0.8-0.7-0.9-1.2
					c-0.1-0.5,0-1.1,0.3-1.5c0.3-0.4,0.8-0.7,1.3-0.7C105.7,213.1,106.5,213.8,106.6,214.7z M106.6,214.7c-0.1-0.4-0.4-0.8-0.7-1
					c-0.4-0.2-0.8-0.2-1.2-0.1c-0.8,0.2-1.1,1-1,1.7c0.1,0.7,0.8,1.3,1.6,1.2c0.4,0,0.8-0.2,1-0.6
					C106.6,215.6,106.7,215.1,106.6,214.7z"/>
			</g>
		</g>
		<g>
			<rect x="66" y="240.2" transform="matrix(0.957 -0.29 0.29 0.957 -66.6162 36.299)" class="st2" width="46.2" height="5.4"/>
			<rect x="66" y="240.2" transform="matrix(0.957 -0.29 0.29 0.957 -66.6162 36.299)" class="st7" width="46.2" height="5.4"/>
			<rect x="85.2" y="238.9" transform="matrix(0.953 -0.3031 0.3031 0.953 -69.4824 38.0788)" class="st2" width="5.4" height="8"/>
			<g>
				<polygon class="st2" points="67.5,259.8 56,210.3 21.6,218.5 38.6,266.7 				"/>
				<g>
					<polygon class="st2" points="75.1,257.2 67.5,259.8 56,210.3 67,212.9 					"/>
					<polygon class="st3" points="75.1,257.2 67.5,259.8 56,210.3 67,212.9 					"/>
				</g>
			</g>
			<circle class="st2" cx="111.3" cy="236.2" r="5.9"/>
		</g>
		<g>
			
				<rect x="190.2" y="219.7" transform="matrix(0.292 -0.9564 0.9564 0.292 -95.6262 356.422)" class="st2" width="5.4" height="46.2"/>
			
				<rect x="190.2" y="219.7" transform="matrix(0.292 -0.9564 0.9564 0.292 -95.6262 356.422)" class="st7" width="5.4" height="46.2"/>
			
				<rect x="190.1" y="240.1" transform="matrix(0.3052 -0.9523 0.9523 0.3052 -96.3278 353.5801)" class="st2" width="8" height="5.4"/>
			<g>
				<polygon class="st2" points="214.6,259.7 226.1,210.3 260.6,218.5 243.5,266.7 				"/>
				<g>
					<polygon class="st2" points="207,257.2 214.6,259.7 226.1,210.3 215.1,212.9 					"/>
					<polygon class="st3" points="207,257.2 214.6,259.7 226.1,210.3 215.1,212.9 					"/>
				</g>
			</g>
			<path class="st2" d="M165,236c0,3.2,2.6,5.9,5.9,5.9c3.2,0,5.9-2.6,5.9-5.9c0-3.2-2.6-5.9-5.9-5.9C167.6,230.2,165,232.8,165,236
				z"/>
		</g>
		<g>
			<g>
				<path class="st2" d="M209.2,175.1c0.1-0.1,14.3-13.3,31.1-8.8c17.1,4.6,31.2,30.4,31.3,30.6l4.8-2.6c-0.6-1.1-15.3-28-34.7-33.3
					c-19.7-5.3-35.5,9.5-36.2,10.1L209.2,175.1z"/>
				<path class="st7" d="M209.2,175.1c0.1-0.1,14.3-13.3,31.1-8.8c17.1,4.6,31.2,30.4,31.3,30.6l4.8-2.6c-0.6-1.1-15.3-28-34.7-33.3
					c-19.7-5.3-35.5,9.5-36.2,10.1L209.2,175.1z"/>
			</g>
			<path class="st2" d="M265.3,222.8l10.2-5.4c-1-1.9-2.2-5.1-2.4-7.9c-0.2-3.7,1.3-5.1,2.9-5.9c3.6-1.9,5.7-1.1,7.2-0.3
				c2.1,1.2,4.1,3.7,5.9,7l10.2-5.4c-2.8-5.3-6.2-9.2-10.2-11.5c-4-2.3-10.4-4.2-18.5,0c-6.3,3.3-9.5,9.3-9,16.9
				C262,216.1,264.6,221.3,265.3,222.8z"/>
		</g>
		<g>
			<path class="st5" d="M211.4,157c2.2-1.5,4.5-3,6.8-4.4c2.3-1.4,4.6-2.8,6.9-4.2c2.3-1.4,4.6-2.7,7-4l3.5-1.9
				c1.2-0.6,2.4-1.3,3.6-1.8c-1.1,0.8-2.2,1.5-3.4,2.2l-3.4,2.2c-2.3,1.4-4.6,2.8-6.9,4.2c-2.3,1.4-4.6,2.7-7,4
				C216.2,154.6,213.8,155.8,211.4,157z"/>
			<path class="st5" d="M205.5,179.1c3.2,1.8,6.2,3.9,9.2,6c3,2.1,5.9,4.3,8.6,6.7c-3.2-1.8-6.2-3.9-9.2-6
				C211.2,183.7,208.2,181.5,205.5,179.1z"/>
			<path class="st5" d="M210.7,176.4c2.5,0.7,4.9,1.6,7.3,2.4c2.4,0.8,4.8,1.8,7.2,2.7c2.4,0.9,4.8,1.9,7.1,2.9l3.5,1.5
				c1.2,0.5,2.3,1,3.5,1.6c-1.2-0.4-2.4-0.8-3.7-1.2l-3.6-1.3c-2.4-0.8-4.8-1.8-7.2-2.7c-2.4-0.9-4.8-1.9-7.1-2.9
				C215.4,178.5,213,177.5,210.7,176.4z"/>
			<path class="st5" d="M217.7,159.1c2.3-0.6,4.7-1.1,7.1-1.6c2.4-0.5,4.7-0.9,7.1-1.4c2.4-0.4,4.8-0.8,7.2-1.1l3.6-0.5
				c1.2-0.1,2.4-0.3,3.6-0.4c-1.2,0.3-2.4,0.6-3.5,0.9l-3.6,0.8c-2.4,0.5-4.7,0.9-7.1,1.4c-2.4,0.4-4.8,0.8-7.2,1.1
				C222.5,158.6,220.1,158.9,217.7,159.1z"/>
		</g>
	</g>
</g>
<g id="Gears">
	<path class="st5" d="M238.6,19.6c-3.8-0.8-7.8-0.9-11.5,0c-1.9,0.5-3.6,1.3-5,2.6c-1.4,1.3-2.2,3.1-2.4,4.9
		c-0.1,1.9,0.5,3.7,1.7,5.1c0.6,0.7,1.3,1.4,2.1,1.9c0.8,0.5,1.6,0.9,2.5,1c0.4,0,0.8,0,1.2-0.2c0.2-0.1,0.3-0.2,0.4-0.4
		c0.1-0.1,0.1-0.2,0.1-0.2c0-0.1,0-0.1,0.1-0.2c0-0.7-0.6-1.5-1.3-2.1c-1.4-1.3-3.1-2.2-4.8-3c-3.5-1.5-7.4-2.4-11.2-2.1
		c-1.9,0.2-3.8,0.6-5.4,1.5c-1.7,0.9-3.1,2.1-4.3,3.7c-0.6,0.7-1.1,1.6-1.6,2.4c-0.3,0.4-0.4,0.9-0.6,1.3c-0.2,0.4-0.4,0.9-0.5,1.3
		c-0.6,1.8-0.8,3.8-0.8,5.7c0.1,3.9,1.2,7.7,3,11.1c-1-1.7-1.8-3.5-2.4-5.3c-0.6-1.9-1-3.8-1.1-5.8c-0.1-2,0.1-4,0.7-5.9
		c0.1-0.5,0.3-0.9,0.5-1.4c0.2-0.5,0.3-0.9,0.6-1.4c0.5-0.9,0.9-1.8,1.6-2.5c1.1-1.7,2.7-3,4.5-4c1.8-1,3.8-1.5,5.7-1.6
		c4-0.3,8,0.6,11.6,2.1c1.8,0.8,3.6,1.8,5.1,3.2c0.4,0.3,0.7,0.7,1,1.2c0.3,0.5,0.6,1,0.5,1.6c-0.1,0.4-0.2,0.6-0.4,0.9
		c-0.2,0.2-0.4,0.5-0.7,0.6c-0.5,0.3-1.1,0.4-1.7,0.3c-1.1-0.1-2-0.6-2.9-1.1c-0.9-0.6-1.6-1.3-2.2-2.1c-1.3-1.6-2-3.7-1.8-5.7
		c0.2-2,1.2-4,2.7-5.3c1.5-1.3,3.4-2.1,5.3-2.6c1.9-0.4,3.9-0.6,5.9-0.5C234.8,18.8,236.7,19.1,238.6,19.6z"/>
	<g>
		<g>
			<g>
				<g>
					<path class="st5" d="M200.8,54.6c-1.9-0.6-3.8,0.4-4.4,2.3c-0.6,1.9,0.4,3.8,2.3,4.4c1.8,0.6,3.8-0.4,4.4-2.3
						C203.7,57.2,202.6,55.2,200.8,54.6z M202.7,58.9c-0.5,1.6-2.2,2.5-3.9,2s-2.5-2.2-2-3.9c0.5-1.6,2.2-2.5,3.9-2
						C202.3,55.5,203.2,57.3,202.7,58.9z M200.8,54.6c-1.9-0.6-3.8,0.4-4.4,2.3c-0.6,1.9,0.4,3.8,2.3,4.4c1.8,0.6,3.8-0.4,4.4-2.3
						C203.7,57.2,202.6,55.2,200.8,54.6z M202.7,58.9c-0.5,1.6-2.2,2.5-3.9,2s-2.5-2.2-2-3.9c0.5-1.6,2.2-2.5,3.9-2
						C202.3,55.5,203.2,57.3,202.7,58.9z M200.8,54.6c-1.9-0.6-3.8,0.4-4.4,2.3c-0.6,1.9,0.4,3.8,2.3,4.4c1.8,0.6,3.8-0.4,4.4-2.3
						C203.7,57.2,202.6,55.2,200.8,54.6z M202.7,58.9c-0.5,1.6-2.2,2.5-3.9,2s-2.5-2.2-2-3.9c0.5-1.6,2.2-2.5,3.9-2
						C202.3,55.5,203.2,57.3,202.7,58.9z M202,50.9c-3.9-1.2-8.1,0.9-9.3,4.8c-1.2,3.9,0.9,8.1,4.8,9.3c3.9,1.2,8.1-0.9,9.3-4.8
						C208,56.3,205.9,52.1,202,50.9z M203.6,59.2c-0.7,2.1-3,3.3-5.1,2.7c-2.1-0.7-3.3-3-2.6-5.1c0.7-2.1,3-3.3,5.1-2.6
						C203.1,54.8,204.3,57,203.6,59.2z M203.1,59c0.6-1.8-0.4-3.8-2.3-4.4c-1.9-0.6-3.8,0.4-4.4,2.3c-0.6,1.9,0.4,3.8,2.3,4.4
						C200.5,61.9,202.5,60.9,203.1,59z M202.7,58.9c-0.5,1.6-2.2,2.5-3.9,2s-2.5-2.2-2-3.9c0.5-1.6,2.2-2.5,3.9-2
						C202.3,55.5,203.2,57.3,202.7,58.9z M200.8,54.6c-1.9-0.6-3.8,0.4-4.4,2.3c-0.6,1.9,0.4,3.8,2.3,4.4c1.8,0.6,3.8-0.4,4.4-2.3
						C203.7,57.2,202.6,55.2,200.8,54.6z M202.7,58.9c-0.5,1.6-2.2,2.5-3.9,2s-2.5-2.2-2-3.9c0.5-1.6,2.2-2.5,3.9-2
						C202.3,55.5,203.2,57.3,202.7,58.9z M200.8,54.6c-1.9-0.6-3.8,0.4-4.4,2.3c-0.6,1.9,0.4,3.8,2.3,4.4c1.8,0.6,3.8-0.4,4.4-2.3
						C203.7,57.2,202.6,55.2,200.8,54.6z M202.7,58.9c-0.5,1.6-2.2,2.5-3.9,2s-2.5-2.2-2-3.9c0.5-1.6,2.2-2.5,3.9-2
						C202.3,55.5,203.2,57.3,202.7,58.9z"/>
					<g>
						<polygon class="st5" points="199,65.1 196.2,64.3 195.8,66.3 198.2,67 						"/>
						<polygon class="st5" points="194.1,62.6 192.8,60.1 191.1,61.2 192.2,63.4 						"/>
						<polygon class="st5" points="192.4,57.4 193.3,54.6 191.3,54.2 190.6,56.6 						"/>
						<polygon class="st5" points="195,52.5 197.5,51.2 196.4,49.5 194.2,50.6 						"/>
						<polygon class="st5" points="200.2,50.8 202.9,51.7 203.4,49.7 201,49 						"/>
						<polygon class="st5" points="205.1,53.4 206.4,55.9 208.1,54.8 207,52.6 						"/>
						<polygon class="st5" points="206.7,58.6 205.9,61.3 207.9,61.8 208.6,59.4 						"/>
						<polygon class="st5" points="204.2,63.5 201.7,64.8 202.8,66.5 205,65.4 						"/>
					</g>
				</g>
			</g>
		</g>
	</g>
</g>
</svg>
