<?xml version="1.0" encoding="utf-8"?>
<!-- Generator: Adobe Illustrator 23.1.0, SVG Export Plug-In . SVG Version: 6.00 Build 0)  -->
<svg version="1.1" xmlns="http://www.w3.org/2000/svg" xmlns:xlink="http://www.w3.org/1999/xlink" x="0px" y="0px" width="300px"
	 height="300px" viewBox="0 0 300 300" style="enable-background:new 0 0 300 300;" xml:space="preserve">
<style type="text/css">
	.st0{fill:#FC4C02;}
	.st1{fill-rule:evenodd;clip-rule:evenodd;fill:#FFFFFF;}
	.st2{fill:#FFFFFF;}
</style>
<g id="Layer_1">
</g>
<g id="_x35_4">
	<path class="st0" d="M231.5,300H68.5C30.7,300,0,269.3,0,231.5V68.5C0,30.7,30.7,0,68.5,0h162.9C269.3,0,300,30.7,300,68.5v162.9
		C300,269.3,269.3,300,231.5,300z"/>
	<g>
		<path class="st1" d="M219.6,137.6c-1.1,0.4-2.4,0.2-3.2-0.6c-0.4-0.3-0.7-0.8-0.8-1.3c-3.4-9.5-8.4-18.2-14.9-25.9
			c-1.1-1.3-1-3.3,0.4-4.5l28.7-24.5c1.3-1.1,3.3-1,4.4,0.4c9.8,11.7,17.4,24.9,22.6,39.3c0.6,1.6-0.2,3.5-1.9,4L219.6,137.6z"/>
		<path class="st1" d="M214.8,195.2l32.9,18.2c0.7,0.4,1.3,1.1,1.5,1.9c0.3,0.8,0.1,1.7-0.2,2.4c-5.5,10.1-12.3,19.4-20.3,27.8
			c-1.4,1.4-2.8,2.8-4.3,4.3c-1.2,1.2-3.1,1.1-4.3,0c0,0-0.1-0.1-0.1-0.1l-25.8-27.6c-0.6-0.6-0.9-1.4-0.9-2.3c0-0.8,0.4-1.6,1-2.2
			c1-1,2-1.9,2.9-2.8c5.3-5.5,9.8-11.7,13.4-18.3C211.4,195,213.3,194.4,214.8,195.2L214.8,195.2z"/>
		<path class="st1" d="M219.2,149.9c0.5-0.7,1.3-1.1,2.1-1.1l37.4-3.5c0.8-0.1,1.7,0.2,2.3,0.7c0.6,0.6,1,1.3,1.1,2.1
			c1.4,15.3,0.1,30.5-3.8,45.3c-0.2,0.8-0.7,1.5-1.5,1.9c-0.7,0.4-1.5,0.5-2.4,0.3l-36.3-9.7c-0.5-0.2-1-0.4-1.4-0.8
			c-0.8-0.8-1.2-1.9-0.9-3.1c2.6-9.8,3.4-19.8,2.5-29.9C218.4,151.4,218.7,150.6,219.2,149.9L219.2,149.9z"/>
		<path class="st1" d="M157.5,159.5c0,0.3,0,0.6,0,0.8l42.8,55.8c0.4,0.7,0.3,1.5-0.3,2c-0.5,0.5-1.4,0.7-2,0.3l-54.6-43.7
			c-0.5,0.1-1,0.1-1.6,0.1c-4.1,0-7.9-1.7-10.8-4.7c-2.8-3-4.4-6.9-4.3-11c0.1-4.1,1.8-8,4.7-10.9c3-2.9,6.9-4.4,11-4.3
			c4.1,0.1,8,1.7,10.8,4.7C156.1,151.5,157.6,155.4,157.5,159.5L157.5,159.5z"/>
		<path class="st2" d="M90,220.7c0.2-1-0.1-2.2-0.9-2.9c-7.3-6.9-13.3-14.9-17.7-23.9c-0.4-0.7-1-1.3-1.8-1.6
			c-0.8-0.3-1.7-0.2-2.4,0.2l-10.5,5.2c0,0-3.7,1.3-1.4,5.5c5.5,10.1,12.7,19.2,21.2,27c2.9,3.1,5.3-0.3,5.3-0.3l7.4-7.7
			C89.6,221.7,89.8,221.2,90,220.7z"/>
		<path class="st2" d="M73.3,84.7l14.3,14.4c0.9,0.9,1.1,2.1,0.8,3.2c-0.2,0.5-0.4,0.9-0.8,1.3c-7.2,7.1-13.1,15.2-17.4,24.3
			c-0.7,1.6-2.6,2.3-4.2,1.5l-14.8-6.9c0,0-3.7-1.2-1.9-4.9c5.6-13.4,11.5-23.3,19.5-32.6C71.2,81.5,73.3,84.7,73.3,84.7z"/>
		<path class="st2" d="M102.6,90.1c0.9,0.6,2.1,0.7,3.1,0.2c9-4.4,18.7-7.1,28.7-8.1c0.8-0.1,1.6-0.5,2.1-1.1
			c0.5-0.6,0.8-1.5,0.7-2.3l-2.6-26.2c0,0,0.2-4.1-3.3-3.2c-13.7,2.6-26.4,7.6-37.7,14.6c-3,1.5-1.6,4.5-1.6,4.5l9.6,20.2
			C101.7,89.4,102.1,89.8,102.6,90.1z"/>
		<g>
			<path class="st2" d="M154.9,82.4c0.2,0.3,0.4,0.5,0.7,0.8c0.4,0.3,0.8,0.5,1.3,0.6c9.8,2.2,19,6,27.4,11.4c1.4,0.9,3.4,0.5,4.3-1
				l18.3-29c0,0,2.5-3.3-1.3-4.8c-12.4-6.5-26.2-10.8-40.8-12.3c-3.1-0.3-3.9,2.3-3.9,2.3L154.4,80
				C154.3,80.8,154.4,81.7,154.9,82.4z"/>
		</g>
		<path class="st2" d="M65.6,178.6c-2.2-9.8-2.7-19.7-1.4-29.7c0.2-1.7-1-3.3-2.7-3.5l-14.9-1.8c0,0-3.7-1-3.8,3.1
			c-0.2,2.3-0.2,4.6-0.2,6.9c0,10.1,1.5,19.8,4.2,29c1.1,4.3,5.6,2.3,5.6,2.3l11-2.6c0.8-0.2,1.5-0.7,2-1.4c0.2-0.3,0.3-0.6,0.4-1
			C65.7,179.5,65.7,179,65.6,178.6z"/>
	</g>
</g>
</svg>
