<?xml version="1.0" encoding="utf-8"?>
<!-- Generator: Adobe Illustrator 23.1.0, SVG Export Plug-In . SVG Version: 6.00 Build 0)  -->
<svg version="1.1" id="Layer_1" xmlns="http://www.w3.org/2000/svg" xmlns:xlink="http://www.w3.org/1999/xlink" x="0px" y="0px"
	 width="300px" height="300px" viewBox="0 0 300 300" style="enable-background:new 0 0 300 300;" xml:space="preserve">
<style type="text/css">
	.st0{fill:url(#SVGID_1_);}
	.st1{fill:url(#SVGID_2_);}
	.st2{fill:url(#SVGID_3_);}
	.st3{fill:url(#SVGID_4_);}
	.st4{fill:url(#SVGID_5_);}
	.st5{fill:url(#SVGID_6_);}
	.st6{fill:url(#SVGID_7_);}
	.st7{fill:url(#SVGID_8_);}
	.st8{fill:url(#SVGID_9_);}
	.st9{fill:url(#SVGID_10_);}
	.st10{fill:url(#SVGID_11_);}
	.st11{fill:url(#SVGID_12_);}
</style>
<g>
	<g>
		<image style="overflow:visible;" width="272" height="52" xlink:href="76D57B83.png"  transform="matrix(1 0 0 1 14 248)">
		</image>
	</g>
	<linearGradient id="SVGID_1_" gradientUnits="userSpaceOnUse" x1="150" y1="299.8866" x2="150" y2="235.2906">
		<stop  offset="0" style="stop-color:#303030"/>
		<stop  offset="0.2809" style="stop-color:#494949"/>
		<stop  offset="0.8747" style="stop-color:#888888"/>
		<stop  offset="0.9956" style="stop-color:#969696"/>
	</linearGradient>
	<path class="st0" d="M280.8,274.4c0,8.3-29.1,15.5-71.6,19c-17.8,1.5-37.9,2.3-59.2,2.3s-41.4-0.8-59.2-2.3
		c-42.5-3.5-71.6-10.7-71.6-19s29.1-15.5,71.6-19c17.8-1.5,37.9-2.3,59.2-2.3s41.4,0.8,59.2,2.3C251.7,259,280.8,266.1,280.8,274.4z
		"/>
	<linearGradient id="SVGID_2_" gradientUnits="userSpaceOnUse" x1="106.3458" y1="286.6184" x2="213.0482" y2="188.4342">
		<stop  offset="4.385960e-03" style="stop-color:#242934"/>
		<stop  offset="1" style="stop-color:#2F3440"/>
	</linearGradient>
	<path class="st1" d="M209.2,225.5v68c-17.8,1.5-37.9,2.3-59.2,2.3s-41.4-0.8-59.2-2.3v-68c0-32.7,26.5-59.2,59.2-59.2
		c16.3,0,31.1,6.6,41.9,17.3C202.6,194.3,209.2,209.1,209.2,225.5z"/>
	<g>
		<radialGradient id="SVGID_3_" cx="177.0047" cy="236.2195" r="19.9413" gradientUnits="userSpaceOnUse">
			<stop  offset="0" style="stop-color:#EBEBEB"/>
			<stop  offset="0.3964" style="stop-color:#E9E9E9"/>
			<stop  offset="0.5878" style="stop-color:#E1E2E4"/>
			<stop  offset="0.7353" style="stop-color:#D4D5DA"/>
			<stop  offset="0.8603" style="stop-color:#C2C4CB"/>
			<stop  offset="0.97" style="stop-color:#AAAEB9"/>
			<stop  offset="1" style="stop-color:#A2A6B3"/>
		</radialGradient>
		<circle class="st2" cx="175.6" cy="239.6" r="13.6"/>
		<linearGradient id="SVGID_4_" gradientUnits="userSpaceOnUse" x1="171.8058" y1="241.3514" x2="179.4116" y2="241.3514">
			<stop  offset="4.385960e-03" style="stop-color:#242934"/>
			<stop  offset="1" style="stop-color:#2F3440"/>
		</linearGradient>
		<circle class="st3" cx="175.6" cy="241.4" r="3.8"/>
		<radialGradient id="SVGID_5_" cx="125.7873" cy="236.2195" r="19.9413" gradientUnits="userSpaceOnUse">
			<stop  offset="0" style="stop-color:#EBEBEB"/>
			<stop  offset="0.3964" style="stop-color:#E9E9E9"/>
			<stop  offset="0.5878" style="stop-color:#E1E2E4"/>
			<stop  offset="0.7353" style="stop-color:#D4D5DA"/>
			<stop  offset="0.8603" style="stop-color:#C2C4CB"/>
			<stop  offset="0.97" style="stop-color:#AAAEB9"/>
			<stop  offset="1" style="stop-color:#A2A6B3"/>
		</radialGradient>
		<circle class="st4" cx="124.4" cy="239.6" r="13.6"/>
		<linearGradient id="SVGID_6_" gradientUnits="userSpaceOnUse" x1="120.5883" y1="243.373" x2="128.1941" y2="243.373">
			<stop  offset="4.385960e-03" style="stop-color:#242934"/>
			<stop  offset="1" style="stop-color:#2F3440"/>
		</linearGradient>
		<circle class="st5" cx="124.4" cy="243.4" r="3.8"/>
	</g>
	<g>
		
			<linearGradient id="SVGID_7_" gradientUnits="userSpaceOnUse" x1="251.4669" y1="-445.1564" x2="394.9402" y2="-455.1937" gradientTransform="matrix(0.9541 -0.2994 0.2994 0.9541 -63.7598 642.5518)">
			<stop  offset="0" style="stop-color:#EB6B38"/>
			<stop  offset="0.1372" style="stop-color:#EF792E"/>
			<stop  offset="0.4877" style="stop-color:#F89719"/>
			<stop  offset="0.7876" style="stop-color:#FDA90C"/>
			<stop  offset="1" style="stop-color:#FFB007"/>
		</linearGradient>
		<path class="st6" d="M240.7,188.1L54.5,246.5l0.8-46.8l0.5-29.1l0.2-10.7l0.9-52.4l0.6-39.8l0.8-48.5c0.1-3.8,2.5-7.1,6.1-8.2
			L98.1,0.4c3.6-1.1,7.5,0.2,9.7,3.2L136.2,43l23.3,32.3l30.6,42.5l6.3,8.7l17,23.6L240.7,188.1z"/>
		
			<linearGradient id="SVGID_8_" gradientUnits="userSpaceOnUse" x1="188.8401" y1="-334.5894" x2="469.2372" y2="-334.5894" gradientTransform="matrix(0.9541 -0.2994 0.2994 0.9541 -63.7598 642.5518)">
			<stop  offset="0" style="stop-color:#EB6B38"/>
			<stop  offset="0.1372" style="stop-color:#EF792E"/>
			<stop  offset="0.4877" style="stop-color:#F89719"/>
			<stop  offset="0.7876" style="stop-color:#FDA90C"/>
			<stop  offset="1" style="stop-color:#FFB007"/>
		</linearGradient>
		<path class="st7" d="M278.6,192.7L26.1,272c-4.2,1.3-8.6-1-9.9-5.2v0c-1.3-4.2,1-8.6,5.2-9.9l252.5-79.2c4.2-1.3,8.6,1,9.9,5.2v0
			C285.1,187,282.8,191.4,278.6,192.7z"/>
		
			<linearGradient id="SVGID_9_" gradientUnits="userSpaceOnUse" x1="273.0157" y1="-465.6559" x2="381.7426" y2="-513.9324" gradientTransform="matrix(0.9541 -0.2994 0.2994 0.9541 -63.7598 642.5518)">
			<stop  offset="0" style="stop-color:#B5BAC7"/>
			<stop  offset="2.154237e-02" style="stop-color:#B8BDC9"/>
			<stop  offset="0.2832" style="stop-color:#D7DAE1"/>
			<stop  offset="0.5382" style="stop-color:#EDEEF1"/>
			<stop  offset="0.7814" style="stop-color:#FAFBFC"/>
			<stop  offset="1" style="stop-color:#FFFFFF"/>
		</linearGradient>
		<polygon class="st8" points="159.4,75.3 56.8,107.5 57.5,67.7 136.2,43 		"/>
		
			<linearGradient id="SVGID_10_" gradientUnits="userSpaceOnUse" x1="246.2154" y1="-405.7873" x2="411.8622" y2="-405.7873" gradientTransform="matrix(0.9541 -0.2994 0.2994 0.9541 -63.7598 642.5518)">
			<stop  offset="0" style="stop-color:#B5BAC7"/>
			<stop  offset="0.1383" style="stop-color:#CDD1D9"/>
			<stop  offset="0.3068" style="stop-color:#E3E5EA"/>
			<stop  offset="0.4917" style="stop-color:#F3F4F6"/>
			<stop  offset="0.703" style="stop-color:#FCFCFD"/>
			<stop  offset="1" style="stop-color:#FFFFFF"/>
		</linearGradient>
		<polygon class="st9" points="213.4,150.1 55.3,199.7 56,159.9 190.1,117.8 		"/>
		
			<linearGradient id="SVGID_11_" gradientUnits="userSpaceOnUse" x1="329.0387" y1="-322.994" x2="329.0387" y2="-376.7581" gradientTransform="matrix(0.9541 -0.2994 0.2994 0.9541 -63.7598 642.5518)">
			<stop  offset="0" style="stop-color:#8D6C5A"/>
			<stop  offset="0.1659" style="stop-color:#AC9487"/>
			<stop  offset="0.3524" style="stop-color:#C9BAB1"/>
			<stop  offset="0.5335" style="stop-color:#E1D8D3"/>
			<stop  offset="0.7051" style="stop-color:#F1EEEB"/>
			<stop  offset="0.8634" style="stop-color:#FCFBFA"/>
			<stop  offset="0.9956" style="stop-color:#FFFFFF"/>
		</linearGradient>
		<polygon class="st10" points="240.7,188.1 54.5,246.5 55.3,199.7 55.8,170.6 196.3,126.5 213.4,150.1 		"/>
		
			<radialGradient id="SVGID_12_" cx="5.7204" cy="1197.108" r="99.2082" gradientTransform="matrix(0.5781 0.8159 -2.162138e-02 1.531766e-02 185.4444 66.3177)" gradientUnits="userSpaceOnUse">
			<stop  offset="0" style="stop-color:#EBEBEB"/>
			<stop  offset="9.029317e-02" style="stop-color:#E3E3E3"/>
			<stop  offset="0.234" style="stop-color:#CBCBCB"/>
			<stop  offset="0.4132" style="stop-color:#A6A6A6"/>
			<stop  offset="0.6209" style="stop-color:#717171"/>
			<stop  offset="0.8496" style="stop-color:#2F2F2F"/>
			<stop  offset="1" style="stop-color:#000000"/>
		</radialGradient>
		<path class="st11" d="M230.6,185.4c-2.2,1.5-46.6-60.3-76.5-102.5S99,5.2,101.2,3.6c2.2-1.5,28.6,32.8,58.5,75
			C189.7,120.8,232.8,183.8,230.6,185.4z"/>
	</g>
</g>
</svg>
