<?xml version="1.0" encoding="utf-8"?>
<!-- Generator: Adobe Illustrator 23.1.0, SVG Export Plug-In . SVG Version: 6.00 Build 0)  -->
<svg version="1.1" id="Layer_1" xmlns="http://www.w3.org/2000/svg" xmlns:xlink="http://www.w3.org/1999/xlink" x="0px" y="0px"
	 width="300px" height="44px" viewBox="0 0 300 44" style="enable-background:new 0 0 300 44;" xml:space="preserve">
<style type="text/css">
	.st0{fill-rule:evenodd;clip-rule:evenodd;fill:#16EA9E;}
	.st1{fill-rule:evenodd;clip-rule:evenodd;fill:#6A00B8;}
	.st2{fill:#6A00B8;}
	.st3{fill:#16EA9E;}
</style>
<g>
	<g>
		<path class="st0" d="M11.9,0.5L11.9,0.5C5.3,0.5,0,5.8,0,12.4v19.2v3.6c0,4.6,3.7,8.4,8.4,8.4h0h3.6v-6v-5.9V12.4h19.2
			c0,0,0-8.5,0-11.9H11.9z"/>
		<path class="st1" d="M31.2,0.5L31.2,0.5L11.9,23.4v20L31.2,21v22.6h0c6.6,0,11.9-5.3,11.9-11.9c0,0,0-7.9,0-19.6
			S31.2,0.5,31.2,0.5z"/>
	</g>
	<g>
		<path class="st2" d="M60.5,38.1H54v-34h7.7v21l16.5-21h6.6v34h-7.6v-21L60.5,38.1z"/>
		<g>
			<path class="st2" d="M91.9,38.1v-34h7.6v13.3h13.7V4.2h7.6v34h-7.6V24.7H99.5v13.4H91.9z"/>
			<path class="st2" d="M156,33.5c-3.4,3.4-7.6,5.2-12.4,5.2c-4.8,0-9-1.7-12.4-5.1c-3.4-3.4-5.1-7.6-5.1-12.4c0-4.8,1.7-9,5.1-12.4
				c3.4-3.4,7.6-5.1,12.4-5.1c4.8,0,9,1.7,12.4,5.2c3.4,3.4,5.1,7.6,5.1,12.4C161.2,26,159.4,30.1,156,33.5z M136.6,28.3
				c1.9,2,4.3,3,7,3s5.1-1,7-3c1.9-2,2.9-4.4,2.9-7.2s-1-5.2-2.9-7.2c-1.9-2-4.2-3-7-3s-5.1,1-7,3c-1.9,2-2.9,4.4-2.9,7.2
				S134.7,26.3,136.6,28.3z"/>
			<path class="st3" d="M187.4,38.1V11.4h-13.3v26.7h-7.7v-34h28.7v34H187.4z"/>
			<path class="st3" d="M230.3,33.5c-3.4,3.4-7.6,5.2-12.4,5.2c-4.8,0-9-1.7-12.4-5.1c-3.4-3.4-5.1-7.6-5.1-12.4
				c0-4.8,1.7-9,5.1-12.4c3.4-3.4,7.6-5.1,12.4-5.1c4.8,0,9,1.7,12.4,5.2c3.4,3.4,5.1,7.6,5.1,12.4C235.5,26,233.7,30.1,230.3,33.5z
				 M210.9,28.3c1.9,2,4.3,3,7,3s5.1-1,7-3c1.9-2,2.9-4.4,2.9-7.2s-1-5.2-2.9-7.2c-1.9-2-4.2-3-7-3s-5.1,1-7,3
				c-1.9,2-2.9,4.4-2.9,7.2S209,26.3,210.9,28.3z"/>
			<path class="st3" d="M256.7,38.7c-5.1,0-9.4-1.7-12.8-5.1c-3.4-3.4-5.1-7.5-5.1-12.5c0-4.9,1.7-9.1,5.1-12.5
				c3.4-3.4,7.6-5.1,12.8-5.1c3.8,0,7.3,1.1,10.4,3.4c3.1,2.2,5.2,5.2,6.1,8.9h-8.3c-0.7-1.6-1.8-2.8-3.3-3.6
				c-1.5-0.8-3.1-1.3-4.9-1.3c-3.1,0-5.5,1-7.4,2.9c-1.9,1.9-2.8,4.4-2.8,7.3c0,2.9,0.9,5.3,2.8,7.3c1.9,1.9,4.3,2.9,7.4,2.9
				c1.8,0,3.4-0.4,4.9-1.3c1.5-0.8,2.6-2,3.3-3.6h8.3c-0.9,3.7-3,6.6-6.1,8.9C264,37.6,260.5,38.7,256.7,38.7z"/>
			<path class="st3" d="M283.6,38.1V11.4h-8.7V4.2H300v7.3h-8.8v26.7H283.6z"/>
		</g>
	</g>
</g>
</svg>
