<?xml version="1.0" encoding="utf-8"?>
<!-- Generator: Adobe Illustrator 23.1.0, SVG Export Plug-In . SVG Version: 6.00 Build 0)  -->
<svg version="1.1" id="Layer_1" xmlns="http://www.w3.org/2000/svg" xmlns:xlink="http://www.w3.org/1999/xlink" x="0px" y="0px"
	 width="300px" height="300px" viewBox="0 0 300 300" style="enable-background:new 0 0 300 300;" xml:space="preserve">
<style type="text/css">
	.st0{fill-rule:evenodd;clip-rule:evenodd;fill:#6A00B8;}
	.st1{fill-rule:evenodd;clip-rule:evenodd;fill:#16EA9E;}
</style>
<path class="st0" d="M-544.4,0h-51.1v11v72h51.1c22.9,0,41.5,18.6,41.5,41.5c0,22.9-18.6,41.5-41.5,41.5H-637h-24.7H-720v83V300h83
	v-51.1h92.6c54.2,0,100.3-34.6,117.4-83c4.6-13,7.1-26.9,7.1-41.5c0-14.5-2.5-28.5-7.1-41.5C-444.2,34.6-490.3,0-544.4,0"/>
<polygon class="st1" points="-637,41.3 -637,0 -720,0 -720,83 -661.8,83 -637,83 "/>
<path class="st0" d="M399.2,424.4h-51.1v11v72h51.1c22.9,0,41.5,18.6,41.5,41.5c0,22.9-18.6,41.5-41.5,41.5h-92.6h-24.7h-58.2v83
	v51.1h83v-51.1h92.6c54.2,0,100.3-34.6,117.4-83c4.6-13,7.1-26.9,7.1-41.5c0-14.5-2.5-28.5-7.1-41.5
	C499.5,459,453.4,424.4,399.2,424.4"/>
<polygon class="st1" points="-277,0 -360,0 -360,217 -360,300 -301.8,300 -277,300 -277,258.4 -277,217 -277,83 -143,83 -143,300 
	-84.7,300 -60,300 -60,258.4 -60,83 -60,41.3 -60,0 "/>
<polygon class="st1" points="-90,401.3 -173,401.3 -173,618.4 -173,701.3 -114.8,701.3 -90,701.3 -90,659.7 -90,618.4 -90,484.3 
	44.1,484.3 44.1,701.3 102.3,701.3 127,701.3 127,659.7 127,484.3 127,442.6 127,401.3 "/>
<polygon class="st0" points="-277,159.6 -277,298.9 -143,142.8 -143,-0.6 "/>
<path class="st1" d="M83,0L83,0C37.1,0,0,37.1,0,83V217v24.7C0,273.9,26.1,300,58.2,300h0H83v-41.6V217V83H217c0,0,0-59.2,0-83H83z"
	/>
<polygon class="st0" points="679.7,458.4 679.7,417.1 596.8,417.1 596.8,551.3 679.7,551.3 "/>
<polygon class="st0" points="-60,40.8 -60,-0.6 -143,-0.6 -143,300 -60,300 "/>
<path class="st0" d="M217,0v-0.6L83,159.6v139.3L217,142.8v157.8h0c45.8,0,83-37.1,83-83c0,0,0-54.9,0-136.3S217,0,217,0z"/>
<polygon class="st1" points="-637,386.3 -720,386.3 -720,603.3 -720,686.3 -661.8,686.3 -637,686.3 -637,644.7 -637,603.3 
	-637,469.2 -503,469.2 -503,686.3 -444.7,686.3 -420,686.3 -420,644.7 -420,469.2 -420,427.6 -420,386.3 "/>
<polygon class="st0" points="-637,603.3 -720,603.3 -720,686.3 -661.8,686.3 -637,686.3 -503,600.6 -503,519.2 "/>
<polygon class="st0" points="-420,560.5 -420,519.2 -503,519.2 -503,686.3 -420,686.3 "/>
</svg>
