<?xml version="1.0" encoding="utf-8"?>
<!-- Generator: Adobe Illustrator 23.1.0, SVG Export Plug-In . SVG Version: 6.00 Build 0)  -->
<svg version="1.1" id="Layer_1" xmlns="http://www.w3.org/2000/svg" xmlns:xlink="http://www.w3.org/1999/xlink" x="0px" y="0px"
	 width="25px" height="25px" viewBox="0 0 25 25" style="enable-background:new 0 0 25 25;" xml:space="preserve">
<style type="text/css">
	.st0{fill:#FFFFFF;}
</style>
<path class="st0" d="M18.3,16.1c1.2-1.7,2-3.7,2-6C20.3,4.6,15.8,0,10.2,0S0,4.6,0,10.2s4.6,10.2,10.2,10.2c2.2,0,4.3-0.7,6-2
	l6.7,6.7l2.2-2.2L18.3,16.1L18.3,16.1z M10.2,17.2c-3.9,0-7-3.2-7-7c0-3.9,3.2-7,7-7s7,3.2,7,7C17.2,14,14,17.2,10.2,17.2L10.2,17.2
	z"/>
</svg>
